<svg xmlns="http://www.w3.org/2000/svg" viewBox="0 0 1920 1080" width="1920" height="1080" role="img" aria-label="Consumer Work Blue Collar isometric day journey">
  <defs>
    <pattern id="puzzle-bc" width="120" height="120" patternUnits="userSpaceOnUse">
      <rect width="120" height="120" fill="#e4ecfb"/>
      <path d="M0 60c20-18 40-18 60 0s40 18 60 0" fill="none" stroke="#d6dff5" stroke-width="1.2" opacity="0.9"/>
      <path d="M60 0c18 20 18 40 0 60s-18 40 0 60" fill="none" stroke="#d6dff5" stroke-width="1.2" opacity="0.9"/>
    </pattern>
    <filter id="soft-bc" x="-20%" y="-20%" width="140%" height="140%">
      <feGaussianBlur in="SourceGraphic" stdDeviation="4"/>
    </filter>
  </defs>
  <rect width="1920" height="1080" fill="url(#puzzle-bc)"/>
  <!-- Simplified journey spine (Iso Journey – Work · Blue Collar) -->
  <path
    d="M 200 400 C 280 360 340 880 420 920 S 520 200 760 220 S 980 780 1180 720 S 1420 180 1680 240 S 1720 520 1580 680 S 1200 820 900 760 S 520 640 380 520"
    fill="none"
    stroke="#ffffff"
    stroke-width="56"
    stroke-linecap="round"
    stroke-linejoin="round"
    opacity="0.98"
    filter="url(#soft-bc)"
  />
  <path
    d="M 200 400 C 280 360 340 880 420 920 S 520 200 760 220 S 980 780 1180 720 S 1420 180 1680 240 S 1720 520 1580 680 S 1200 820 900 760 S 520 640 380 520"
    fill="none"
    stroke="#ffffff"
    stroke-width="44"
    stroke-linecap="round"
    stroke-linejoin="round"
  />
  <g font-family="Open Sans, Noto Sans, sans-serif" font-weight="700" font-size="26" fill="#001a72">
    <rect x="120" y="300" width="200" height="52" rx="26" fill="#fff"/>
    <text x="220" y="334" text-anchor="middle">Commute</text>
    <rect x="320" y="820" width="260" height="52" rx="26" fill="#fff"/>
    <text x="450" y="854" text-anchor="middle">Welcome area</text>
    <rect x="620" y="80" width="220" height="52" rx="26" fill="#fff"/>
    <text x="730" y="114" text-anchor="middle">Workplace</text>
    <rect x="400" y="620" width="420" height="52" rx="26" fill="#fff"/>
    <text x="610" y="654" text-anchor="middle">Wellbeing &amp; Break time</text>
    <rect x="1320" y="120" width="420" height="52" rx="26" fill="#fff"/>
    <text x="1530" y="154" text-anchor="middle">Food &amp; Beverage area</text>
  </g>
</svg>
