<svg xmlns="http://www.w3.org/2000/svg" viewBox="0 0 1920 1080" width="1920" height="1080" role="img" aria-label="Heal  care day journey (simplified; Figma Labs)">
  <defs>
    <pattern id="puzzle-h" width="120" height="120" patternUnits="userSpaceOnUse">
      <rect width="120" height="120" fill="#eceef8"/>
      <path d="M0 60c20-18 40-18 60 0s40 18 60 0" fill="none" stroke="#d6d9ec" stroke-width="1.2" opacity="0.9"/>
      <path d="M60 0c18 20 18 40 0 60s-18 40 0 60" fill="none" stroke="#d6d9ec" stroke-width="1.2" opacity="0.9"/>
    </pattern>
    <filter id="soft-h" x="-20%" y="-20%" width="140%" height="140%">
      <feGaussianBlur in="SourceGraphic" stdDeviation="4"/>
    </filter>
  </defs>
  <rect width="1920" height="1080" fill="url(#puzzle-h)"/>
  <path
    d="M 160 400 C 360 360 480 680 640 720 S 880 240 1080 300 S 1280 640 1480 560 S 1620 380 1760 440"
    fill="none"
    stroke="#ffffff"
    stroke-width="52"
    stroke-linecap="round"
    stroke-linejoin="round"
    opacity="0.98"
    filter="url(#soft-h)"
  />
  <path
    d="M 160 400 C 360 360 480 680 640 720 S 880 240 1080 300 S 1280 640 1480 560 S 1620 380 1760 440"
    fill="none"
    stroke="#ffffff"
    stroke-width="40"
    stroke-linecap="round"
    stroke-linejoin="round"
  />
  <g font-family="Open Sans, Noto Sans, sans-serif" font-weight="700" font-size="24" fill="#001a72">
    <rect x="100" y="300" width="260" height="52" rx="26" fill="#fff"/>
    <text x="230" y="334" text-anchor="middle">Morning rounds</text>
    <rect x="520" y="160" width="240" height="52" rx="26" fill="#fff"/>
    <text x="640" y="194" text-anchor="middle">Meal service</text>
    <rect x="960" y="480" width="280" height="52" rx="26" fill="#fff"/>
    <text x="1100" y="514" text-anchor="middle">Meal distribution</text>
    <rect x="1380" y="700" width="240" height="52" rx="26" fill="#fff"/>
    <text x="1500" y="734" text-anchor="middle">Kitchen prep</text>
  </g>
</svg>
