<svg xmlns="http://www.w3.org/2000/svg" viewBox="0 0 1920 1080" width="1920" height="1080" role="img" aria-label="Learn  campus day journey (simplified; Figma Labs)">
  <defs>
    <pattern id="puzzle-ln" width="120" height="120" patternUnits="userSpaceOnUse">
      <rect width="120" height="120" fill="#e8faf8"/>
      <path d="M0 60c20-18 40-18 60 0s40 18 60 0" fill="none" stroke="#c8ebe8" stroke-width="1.2" opacity="0.9"/>
      <path d="M60 0c18 20 18 40 0 60s-18 40 0 60" fill="none" stroke="#c8ebe8" stroke-width="1.2" opacity="0.9"/>
    </pattern>
    <filter id="soft-ln" x="-20%" y="-20%" width="140%" height="140%">
      <feGaussianBlur in="SourceGraphic" stdDeviation="4"/>
    </filter>
  </defs>
  <rect width="1920" height="1080" fill="url(#puzzle-ln)"/>
  <path
    d="M 200 380 C 400 320 500 720 700 760 S 900 200 1100 260 S 1300 600 1500 520 S 1700 400 1720 480"
    fill="none"
    stroke="#ffffff"
    stroke-width="52"
    stroke-linecap="round"
    stroke-linejoin="round"
    opacity="0.98"
    filter="url(#soft-ln)"
  />
  <path
    d="M 200 380 C 400 320 500 720 700 760 S 900 200 1100 260 S 1300 600 1500 520 S 1700 400 1720 480"
    fill="none"
    stroke="#ffffff"
    stroke-width="40"
    stroke-linecap="round"
    stroke-linejoin="round"
  />
  <g font-family="Open Sans, Noto Sans, sans-serif" font-weight="700" font-size="26" fill="#001a72">
    <rect x="120" y="280" width="280" height="52" rx="26" fill="#fff"/>
    <text x="260" y="314" text-anchor="middle">Campus arrival</text>
    <rect x="520" y="140" width="260" height="52" rx="26" fill="#fff"/>
    <text x="650" y="174" text-anchor="middle">Morning class</text>
    <rect x="980" y="520" width="240" height="52" rx="26" fill="#fff"/>
    <text x="1100" y="554" text-anchor="middle">Lunch break</text>
    <rect x="1320" y="680" width="260" height="52" rx="26" fill="#fff"/>
    <text x="1450" y="714" text-anchor="middle">Study session</text>
  </g>
</svg>
