<svg width="705" height="468" viewBox="0 0 705 468" fill="none" xmlns="http://www.w3.org/2000/svg">
<rect width="705" height="468" fill="#E0E6F9"/>
<path fill-rule="evenodd" clip-rule="evenodd" d="M135.41 252.086L195.739 304.979H215.021L340.644 235.159L289.579 206.77H270.297L252.873 216.456L286.515 235.159L205.38 280.252L154.692 252.086H135.41Z" fill="#293896"/>
<path fill-rule="evenodd" clip-rule="evenodd" d="M186.881 233.9L192.805 219.517H189.784L185.414 233.9H186.881Z" fill="#0E1A68"/>
<path fill-rule="evenodd" clip-rule="evenodd" d="M199.877 200.885L202.345 207.356L198.338 211.2L185.677 216.61L183.223 210.152L181.742 202.813L182.425 180.057L194.926 173.11L199.877 200.885Z" fill="#5B68B7"/>
<path fill-rule="evenodd" clip-rule="evenodd" d="M202.344 207.355L207.324 210.123L201.643 226L188.986 220.648L185.676 216.609L202.344 207.355Z" fill="#0E1A68"/>
<path fill-rule="evenodd" clip-rule="evenodd" d="M182.422 180.057L183.221 210.152L185.675 216.61L200.891 225.066V228.169L184.237 218.916L181.043 208.936L181.493 179.54L182.422 180.057Z" fill="#293896"/>
<path fill-rule="evenodd" clip-rule="evenodd" d="M190.656 219.377L200.893 225.066V228.169L191.426 222.857L190.656 219.377Z" fill="#293896"/>
<path fill-rule="evenodd" clip-rule="evenodd" d="M110 220.201L148.578 233.676L195.738 267.852L204.232 275.414L195.738 304.977L111.118 257.942L114.37 252.756L110 220.201Z" fill="#BBDAF9"/>
<path fill-rule="evenodd" clip-rule="evenodd" d="M252.871 179.33L284.495 186.585L286.513 198.033V235.158L252.871 216.455V179.33Z" fill="#FBF5EC"/>
<path fill-rule="evenodd" clip-rule="evenodd" d="M321.361 198.033L195.738 267.853V304.978L321.361 235.159V198.033Z" fill="#5B68B7"/>
<mask id="mask0_2140_62949" style="mask-type:luminance" maskUnits="userSpaceOnUse" x="199" y="207" width="3" height="2">
<path d="M199.864 207.44L199.152 207.888C199.152 207.888 199.283 207.818 199.356 207.776C199.893 207.594 200.503 207.818 200.837 207.985C200.924 208.027 200.996 208.069 201.025 208.083L201.737 207.636C201.737 207.636 201.635 207.58 201.548 207.538C201.214 207.384 200.604 207.147 200.067 207.342C199.994 207.37 199.922 207.398 199.849 207.44H199.864Z" fill="white"/>
</mask>
<g mask="url(#mask0_2140_62949)">
<path d="M201.024 208.097L201.736 207.65C201.736 207.65 201.634 207.594 201.547 207.552C201.213 207.398 200.603 207.16 200.066 207.356C199.993 207.384 199.921 207.412 199.848 207.454L199.137 207.901C199.137 207.901 199.267 207.831 199.34 207.789C199.877 207.608 200.487 207.831 200.821 207.999C200.908 208.041 200.981 208.083 201.01 208.097H201.024Z" fill="#8E8A8B"/>
</g>
<path d="M213.352 170.665C213.352 170.665 211.638 176.27 212.785 179.107C214.223 182.672 214.223 181.959 214.223 181.959C214.223 181.959 212.045 182.224 210.506 181.959C208.415 181.595 206.223 180.757 206.223 180.757L211.087 170.021L213.381 170.665H213.352Z" fill="#8D5114"/>
<path d="M218.07 221.893C218.07 221.893 214.557 225.89 213.613 226.631C212.669 227.372 209.199 228.085 208.313 228.225C207.34 228.379 206.397 228.756 205.845 227.596C205.104 226.016 209.33 215.952 209.33 215.952L218.085 216.455V221.893H218.07Z" fill="#363030"/>
<path d="M222.151 242.832C222.151 242.832 219.697 239.827 219.203 239.184C217.78 237.339 218.434 235.242 218.434 235.242L221.657 221.879C221.86 221.027 221.933 219.825 221.468 218.776C221.323 218.455 221.134 218.147 220.859 217.868L206.949 208.125L204.611 209.089C201.94 212.095 203.275 213.465 203.275 215.31C203.275 215.408 210.796 220.537 212.626 221.837C212.858 222.005 213.439 222.858 213.41 223.123C213.192 224.787 212.786 233.789 212.495 236.975L212.379 238.443C212.379 239.114 212.524 239.366 213.018 240.162C213.555 241.043 217.185 243.853 217.185 243.853C217.185 243.853 219.508 245.823 221.773 244.943C222.949 244.496 222.877 243.587 222.267 242.972C222.223 242.944 222.194 242.902 222.151 242.86V242.832Z" fill="#CCA283"/>
<path d="M213.89 243.713L215.749 242.916L214.471 241.49H213.426L213.89 243.713Z" fill="#5C5555"/>
<path d="M212.266 241.253L212.658 243.028C212.658 243.028 212.701 243.35 213.442 243.587C213.63 243.657 213.906 243.713 213.906 243.713L214.066 241.7L212.266 241.253Z" fill="#7C7677"/>
<path d="M223.43 246.509C224.301 246.006 223.938 244.971 223.88 244.859C223.387 243.895 222.573 244.049 222.573 244.049C223.024 244.608 218.595 245.586 220.454 245.237C221.601 245.027 218.072 244.496 216.737 243.755C215.793 243.252 214.835 242.092 214.239 241.533C212.41 239.813 212.308 238.304 212.308 238.304C212.308 238.304 212.148 238.877 212.148 239.799C212.148 241.141 212.729 241.379 212.729 241.379C212.729 241.379 212.802 241.854 214.065 242.385C215.488 242.986 216.461 245.377 218.305 246.271C219.844 246.998 222.167 247.25 223.43 246.509Z" fill="#7C7677"/>
<path d="M223.372 246.075C224.33 245.516 224.171 244.747 222.661 243.28C222.588 243.224 222.24 242.916 222.24 242.916C222.69 243.475 222.574 244.314 221.035 244.566C219.786 244.761 218.45 244.44 217.1 243.447C216.243 242.804 214.951 242.064 213.76 240.638C212.25 238.849 212.482 236.976 212.482 236.976C212.482 236.976 211.379 237.674 211.626 239.352C211.829 240.68 212.366 241.518 212.366 241.518L214.428 242.455C215.807 243.084 216.083 244.831 218.305 245.838C220.584 246.858 222.443 246.634 223.358 246.103L223.372 246.075Z" fill="#4B378D"/>
<path d="M216.399 245.907C216.399 245.907 213.829 242.566 213.35 241.923C211.855 239.91 212.668 237.408 212.668 237.408L215.906 224.94C216.167 223.836 216.719 221.767 215.092 220.118L203.869 209.243C203.869 209.243 199.252 207.16 196.783 210.221C194.271 213.338 194.141 215.197 195.999 217.643C196.057 217.727 205.306 223.528 207.266 224.646C207.934 225.024 207.717 225.904 207.658 226.17C206.555 230.755 206.918 235.885 206.758 239.673V239.91L206.628 241.49C206.628 242.161 206.773 242.412 207.266 243.209C207.804 244.104 211.448 246.899 211.448 246.899C211.448 246.899 213.771 248.87 216.036 247.99C217.212 247.542 217.14 246.62 216.53 246.019C216.501 245.977 216.457 245.949 216.414 245.907H216.399Z" fill="#E8C6AC"/>
<path d="M208.14 246.787L209.999 245.99L208.721 244.564H207.676L208.14 246.787Z" fill="#5C5555"/>
<path d="M206.512 244.327L206.889 246.102C206.889 246.102 206.933 246.424 207.673 246.661C207.862 246.717 208.138 246.773 208.138 246.773L208.312 244.774L206.512 244.327Z" fill="#7C7677"/>
<path d="M217.68 249.583C218.551 249.08 218.188 248.045 218.13 247.934C217.637 246.969 216.823 247.123 216.823 247.123C217.274 247.682 212.845 248.66 214.704 248.311C215.851 248.101 212.322 247.556 210.987 246.829C210.043 246.326 209.085 245.18 208.489 244.607C206.66 242.874 206.544 241.378 206.544 241.378C206.544 241.378 206.398 241.937 206.398 242.86C206.398 244.201 206.979 244.439 206.979 244.439C206.979 244.439 207.052 244.914 208.315 245.446C209.723 246.047 210.696 248.437 212.555 249.331C214.094 250.072 216.417 250.31 217.68 249.569V249.583Z" fill="#7C7677"/>
<path d="M217.606 249.15C218.564 248.59 218.405 247.822 216.894 246.354C216.822 246.284 216.488 245.977 216.488 245.977C216.938 246.55 216.822 247.374 215.283 247.626C214.034 247.822 212.698 247.5 211.363 246.494C210.506 245.851 209.17 245.138 208.023 243.684C206.397 241.629 206.76 239.91 206.76 239.91C206.76 239.91 205.656 240.707 205.903 242.398C206.106 243.726 206.644 244.565 206.644 244.565L208.705 245.501C210.085 246.13 210.361 247.892 212.582 248.884C214.862 249.904 216.72 249.681 217.635 249.15H217.606Z" fill="#4B378D"/>
<path d="M211.275 209.313C212.567 210.361 220.451 216.442 220.567 216.554C222.28 217.909 221.467 218.776 221.467 218.776C221.467 218.72 220.814 217.448 219.667 217.574C216.777 217.895 213.598 219.335 211.652 220.216C207.195 222.256 205.83 227.61 205.83 227.61C205.714 227.722 204.218 225.835 203.826 225.374C202.94 224.297 193.154 221.614 192.559 215.268C192.399 213.492 192.617 211.298 193.169 207.873C193.169 207.873 196.203 212.039 203.507 210.417C209.024 209.201 209.271 206.839 209.271 206.839C209.271 207.118 209.852 208.181 211.26 209.313H211.275Z" fill="#293896"/>
<path d="M224.051 205.064L220.508 207.188C214.105 204.882 213.524 204.714 211.259 203.358C210.243 202.743 209.226 201.332 208.95 200.213L205.858 187.284C204.406 185.117 203.68 180.071 206.511 179.694C210.867 179.135 211.767 185.327 212.029 187.493C212.348 190.107 212.9 196.258 213.045 197.949C213.059 198.214 213.234 198.466 213.481 198.62L224.036 205.064H224.051Z" fill="#0E1A68"/>
<path d="M208.718 179.652L211.171 189.814C211.171 189.814 211.709 191.841 211.505 192.959C211.229 194.539 209.995 195.894 209.923 196.006C209.022 197.18 208.5 198.704 208.79 201.206L209.327 207.3C209.327 207.3 209.676 208.95 205.117 210.599C195.084 214.247 192.804 210.403 192.804 210.403C192.703 210.236 192.572 209.565 192.673 209.076C192.964 207.72 193.211 206.811 193.501 205.791L194.706 200.605C194.939 199.85 195.069 199.067 195.084 198.285L193.661 191.603C193.661 191.603 191.672 186.976 193.356 184.978C194.968 183.035 199.135 180.057 200.717 179.275C201.124 179.079 201.995 178.785 203.011 178.604C203.011 178.604 206.728 178.156 208.732 179.652H208.718Z" fill="#293896"/>
<path d="M206.397 182.727C203.537 184.866 202.36 182.154 200.938 180.057L201.46 172.761L207.428 173.893L206.397 182.727Z" fill="white"/>
<path d="M201.127 177.765C201.127 177.765 201.011 178.687 201.026 178.855C201.331 181.692 204.757 183.132 204.757 183.132C205.178 183.384 205.106 183.901 204.975 184.558L204.539 186.501C204.409 187.144 204.075 187.046 203.828 186.752C203.828 186.752 201.36 184.292 200.677 183.496C199.08 181.581 199.269 181.189 200.154 179.051C200.677 177.751 201.127 177.779 201.127 177.779V177.765Z" fill="white"/>
<path d="M205.322 182.741C205.003 183.077 204.872 183.342 205.046 183.622L206.368 185.481C206.919 186.208 207.108 185.705 207.166 185.174L207.515 181.399C207.515 179.023 206.861 178.855 206.861 178.855C206.861 178.855 206.847 179.037 206.789 179.526C206.687 180.351 206.31 181.763 205.322 182.741Z" fill="white"/>
<path d="M205.728 162.012C208.661 162.151 211.957 164.374 212.901 166.806C214.353 170.58 212.567 172.397 212.596 172.523C212.799 173.376 210.302 169.308 209.271 169.644C208.124 170.007 203.696 172.299 203.521 172.901C201.169 181.637 202.331 184.935 202.331 184.935C201.285 184.935 197.031 181.777 196.131 178.883C195.724 177.569 196.625 170.902 196.944 169.518C198.091 164.416 200.98 161.802 205.728 162.012Z" fill="#8D5114"/>
<path d="M209.416 168.428C213.35 168.498 212.857 170.902 212.407 172.957C212.029 174.648 210.781 177.304 210.781 177.304C209.779 179.485 208.646 180.854 207.427 181.288C205.583 181.945 204.61 181.078 202.287 178.856C202.258 178.828 202.679 175.752 202.911 174.606C203.361 172.454 204.523 168.316 209.416 168.428Z" fill="white"/>
<path d="M203.534 165.981L211.477 166.219C211.477 166.219 211.593 167.589 211.07 169.015C208.892 174.941 201.923 174.34 201.923 174.34C201.255 173.39 203.549 165.995 203.549 165.995L203.534 165.981Z" fill="#8D5114"/>
<path d="M210.315 205.26C210.315 205.26 211.375 205.456 211.302 205.931C211.201 206.756 210.344 207.86 209.821 208.643C209.589 209.006 209.168 209.3 208.776 209.146C208.384 208.992 207.077 207.511 207.716 206.532C208.355 205.554 209.908 204.995 210.301 205.26H210.315Z" fill="#4B378D"/>
<path d="M208.557 207.608L208.586 207.356L209.24 205.26L214.888 205.959L217.937 207.804C217.937 207.804 218.372 208.195 218.053 208.559C217.922 208.698 217.559 208.586 217.356 208.503C216.848 208.293 216.006 207.888 215.86 207.804C215.439 207.552 215.222 208.055 215.222 208.055C215.149 208.237 214.568 209.146 214.336 209.551C214.06 210.026 213.624 210.152 212.986 210.32C212.129 210.543 212.071 210.292 211.868 210.096C211.81 210.04 211.926 209.803 211.926 209.803C210.329 209.607 208.426 208.782 208.557 207.622V207.608Z" fill="white"/>
<path d="M211.041 205.442C211.041 205.442 209.88 205.274 208.965 206.755C207.789 208.67 208.776 209.104 208.776 209.104C208.776 209.104 203.172 207.818 201.516 207.119C199.266 206.168 198.947 205.805 198.177 205.344C196.885 204.575 196.623 203.121 196.623 203.121L193.632 189.954C192.819 186.334 193.937 184.069 196.522 183.916C200.094 183.692 200.253 188.053 200.442 190.164C200.573 191.645 201.153 198.746 201.502 200.717C201.546 200.969 201.618 201.514 202.359 201.877L211.041 205.442Z" fill="#5B68B7"/>
<path fill-rule="evenodd" clip-rule="evenodd" d="M257.186 193.267L168.719 242.441L193.402 256.153L281.855 206.993L257.186 193.267Z" fill="#BBDAF9"/>
<path fill-rule="evenodd" clip-rule="evenodd" d="M236.974 218.874V218.888V218.901V218.915V218.929V218.943V218.957V218.971V218.985L220.596 228.085H220.044C219.841 227.973 219.637 227.861 219.449 227.75L219.536 227.694V227.666C219.144 227.456 218.752 227.232 218.374 227.023C216.98 226.282 215.601 225.555 214.207 224.828L230.585 215.729H230.745L231.079 215.896L231.413 216.064L231.747 216.232L232.081 216.399L232.415 216.567L232.748 216.735L233.082 216.903L233.416 217.07L233.75 217.238L234.099 217.406L234.433 217.574L234.781 217.741L235.115 217.909L235.464 218.077L235.798 218.245L236.146 218.412L236.233 218.454L236.32 218.496L236.407 218.538L236.495 218.58L236.582 218.622L236.669 218.664L236.756 218.706L236.843 218.748L236.974 218.874Z" fill="#B0CCE9"/>
<path fill-rule="evenodd" clip-rule="evenodd" d="M230.688 215.449L235.624 217.183L236.278 217.546L236.394 217.742L236.524 217.951V219L235.929 218.664V218.413L235.798 218.189L234.651 217.546L230.688 215.757V215.449Z" fill="url(#paint0_linear_2140_62949)"/>
<path fill-rule="evenodd" clip-rule="evenodd" d="M219.246 226.282L222.992 223.515L235.624 217.183L236.278 217.546L236.394 217.742L236.524 217.951L225.127 224.856L220.146 227.051L219.754 226.995L219.536 226.646L219.246 226.282Z" fill="white"/>
<path fill-rule="evenodd" clip-rule="evenodd" d="M214.324 224.549L230.688 215.449L235.624 217.183L219.246 226.282L218.448 226.366L214.324 224.549Z" fill="#FBFAF8"/>
<path fill-rule="evenodd" clip-rule="evenodd" d="M220.145 227.051L236.523 217.951V219L220.145 228.099V227.051Z" fill="#BBDAF9"/>
<path fill-rule="evenodd" clip-rule="evenodd" d="M214.324 224.549L219.246 226.282L219.914 226.646L220.016 226.841L220.147 227.051V228.099L219.551 227.764V227.512L219.421 227.288L218.274 226.66L214.324 224.856V224.549Z" fill="#F7F4EF"/>
<path fill-rule="evenodd" clip-rule="evenodd" d="M230.512 215.743C229.655 216.218 218.925 222.187 218.069 222.662C218.766 222.9 219.448 223.151 220.145 223.389C220.827 223.627 221.524 223.878 222.221 224.116H222.352C223.209 223.641 233.939 217.672 234.795 217.197C234.113 216.959 233.416 216.708 232.719 216.47C232.036 216.232 231.34 215.981 230.643 215.743H230.512ZM217.604 222.984C218.301 223.221 218.983 223.473 219.68 223.711C220.363 223.948 221.06 224.2 221.757 224.437C217.604 226.744 223.354 223.557 219.201 225.863H219.071C218.388 225.626 217.691 225.374 216.994 225.136C216.312 224.899 215.615 224.647 214.918 224.409C219.071 222.103 213.321 225.29 217.473 222.984H217.604Z" fill="#293896"/>
<path fill-rule="evenodd" clip-rule="evenodd" d="M230.512 215.491C229.655 215.966 218.925 221.935 218.069 222.41C218.766 222.648 219.448 222.9 220.145 223.137C220.842 223.375 221.524 223.626 222.221 223.864C223.078 223.389 233.808 217.42 234.665 216.945C233.968 216.707 233.285 216.456 232.588 216.218C231.906 215.98 231.209 215.729 230.512 215.491ZM217.473 222.732C218.17 222.969 218.853 223.221 219.55 223.459C220.232 223.696 220.929 223.948 221.626 224.185C217.473 226.492 223.223 223.305 219.071 225.611C218.388 225.374 217.691 225.122 216.994 224.884C216.312 224.647 215.615 224.395 214.918 224.158C219.071 221.851 213.321 225.038 217.473 222.746V222.732Z" fill="#FBFAF8"/>
<path fill-rule="evenodd" clip-rule="evenodd" d="M234.649 217.197L222.205 224.116V223.864L234.649 216.945V217.197ZM221.61 224.438L219.055 225.863V225.612L221.61 224.186V224.438Z" fill="#BBDAF9"/>
<path fill-rule="evenodd" clip-rule="evenodd" d="M218.069 222.662L222.207 224.115V223.864L218.069 222.41V222.662ZM214.918 224.409L219.056 225.863V225.611L214.918 224.157V224.409Z" fill="#F7F4EF"/>
<path fill-rule="evenodd" clip-rule="evenodd" d="M248.474 201.974L248.067 201.149L206.266 207.37L206.658 227.344L248.474 201.974Z" fill="#5B68B7"/>
<path fill-rule="evenodd" clip-rule="evenodd" d="M248.473 221.11V201.975L206.671 208.195L206.656 227.345L248.473 221.11Z" fill="#293896"/>
<path fill-rule="evenodd" clip-rule="evenodd" d="M203.362 237.605L194.998 244.329H194.04L188.102 241.309L195.492 234.586L203.362 237.605Z" fill="#B0CCE9"/>
<path fill-rule="evenodd" clip-rule="evenodd" d="M194.039 244.328L195.694 241.043L184.137 238.667V240.526L194.039 244.328Z" fill="white"/>
<path fill-rule="evenodd" clip-rule="evenodd" d="M202.388 235.76L194.039 242.469L184.137 238.667L192.5 231.958L202.388 235.76Z" fill="#293896"/>
<path fill-rule="evenodd" clip-rule="evenodd" d="M194.039 244.328V242.469L202.388 235.76V237.605L194.039 244.328Z" fill="#BBDAF9"/>
<path fill-rule="evenodd" clip-rule="evenodd" d="M194.039 242.665V242.469L184.137 238.667V238.863L194.039 242.665ZM194.039 244.328L184.137 240.526V240.33L194.039 244.132V244.328Z" fill="#0E1A68"/>
<path fill-rule="evenodd" clip-rule="evenodd" d="M269.295 204.365L262.006 208.419H260.787L252.598 203.429L260.308 199.375L269.295 204.365Z" fill="#B0CCE9"/>
<path fill-rule="evenodd" clip-rule="evenodd" d="M268.684 204.519L260.989 208.796H260.147L251.508 203.526L259.203 199.249L268.684 204.519Z" fill="#B0CCE9"/>
<path fill-rule="evenodd" clip-rule="evenodd" d="M260.148 208.796V207.985L267.844 203.708V204.519L260.148 208.796Z" fill="#BBDAF9"/>
<path fill-rule="evenodd" clip-rule="evenodd" d="M267.843 203.708L260.148 207.985L256.475 206.448L250.652 202.716L258.348 198.438L267.843 203.708Z" fill="#FDFAF5"/>
<path fill-rule="evenodd" clip-rule="evenodd" d="M260.831 207.608H259.931L251.742 202.604L259.002 198.802L267.844 203.708L260.831 207.608Z" fill="#B0CCE9"/>
<path fill-rule="evenodd" clip-rule="evenodd" d="M267.218 201.961L259.929 206.014L256.459 204.561L250.941 201.024L258.23 196.971L267.218 201.961Z" fill="#293896"/>
<path fill-rule="evenodd" clip-rule="evenodd" d="M259.93 207.608V206.015L267.219 201.961V203.554L259.93 207.608Z" fill="#BBDAF9"/>
<path fill-rule="evenodd" clip-rule="evenodd" d="M260.148 208.796V207.985L257.084 206.28L250.652 202.716L250.667 203.527L260.148 208.796Z" fill="white"/>
<path fill-rule="evenodd" clip-rule="evenodd" d="M259.929 207.608V206.015L257.025 204.407L250.941 201.024V202.604L259.929 207.608Z" fill="white"/>
<path fill-rule="evenodd" clip-rule="evenodd" d="M127.423 210.515L110 220.201L115.997 223.542H143.787L147.315 221.571L127.423 210.515Z" fill="#BBDAF9"/>
<path fill-rule="evenodd" clip-rule="evenodd" d="M226.477 219.042V217.784L225.258 215.24L225.65 217.309L226.477 219.042Z" fill="#BBDAF9"/>
<path fill-rule="evenodd" clip-rule="evenodd" d="M225.606 215.953L225.258 215.24V216.498L225.65 217.309L225.606 215.953Z" fill="#BBDAF9"/>
<path fill-rule="evenodd" clip-rule="evenodd" d="M226.258 217.322L226.476 217.784L227.231 223.221L226.476 233.844L226.258 233.383V217.322Z" fill="#BBDAF9"/>
<path fill-rule="evenodd" clip-rule="evenodd" d="M231.08 217.099L228.655 217.462L226.477 217.784L225.258 215.24L227.494 214.918L229.861 214.555L231.08 217.099Z" fill="#5B68B7"/>
<path fill-rule="evenodd" clip-rule="evenodd" d="M231.094 217.099L226.477 217.784V233.844L231.094 233.159V217.099Z" fill="#0E1A68"/>
<path fill-rule="evenodd" clip-rule="evenodd" d="M147.315 221.572L110 220.202L195.738 267.853L321.361 198.033L270.296 169.644L252.872 179.33L286.514 198.033L195.738 248.493L147.315 221.572Z" fill="#FDFAF7"/>
<g opacity="0.21" style="mix-blend-mode:multiply">
<path d="M325.833 267.504C326.312 267.797 326.283 268.468 325.789 268.748L321.317 271.208C320.664 271.571 319.836 271.557 319.183 271.194L301.629 261.158C301.179 260.892 301.208 260.249 301.687 260.025L307.596 257.286C308.279 256.964 309.106 257.02 309.745 257.425L325.833 267.518V267.504Z" fill="#B0CCE9"/>
</g>
<path d="M305.371 257.761C305.371 257.942 305.444 258.138 305.574 258.292L305.371 257.761Z" fill="#6D340F"/>
<path d="M305.384 255.721C301.479 250.703 300.869 245.433 300.84 245.153V246.118L300.956 246.705C301.275 248.396 302.306 252.631 305.37 256.531V255.721H305.384Z" fill="#0E1A68"/>
<path d="M315.258 263.254C315.258 263.422 315.33 263.617 315.447 263.771L315.258 263.254Z" fill="#6D340F"/>
<path d="M321.484 271.766L326.624 268.901C326.842 268.775 326.973 268.524 326.973 268.16L321.833 271.026C321.833 271.389 321.702 271.641 321.484 271.752V271.766Z" fill="#733A19"/>
<path d="M321.878 256.839V257.789L321.762 258.25C321.109 260.822 319.497 262.444 317.29 262.863C317.29 262.863 312.716 262.234 311.308 261.437C309.827 260.613 307.518 258.586 307.242 258.446L305.355 256.517C302.291 252.617 301.26 248.382 300.941 246.691L300.825 246.104L300.781 259.341C300.781 260.067 301.304 260.934 301.957 261.312L320.629 271.683C321.283 272.047 321.806 271.739 321.806 271.026L321.849 256.839H321.878Z" fill="#5B68B7"/>
<path d="M321.879 256.992L327.004 254.126V253.973L321.879 256.838V256.992Z" fill="#5C361D"/>
<path d="M321.877 256.992C321.311 259.858 319.627 261.647 317.289 262.08C317.289 262.108 317.289 262.15 317.289 262.164V262.863C319.482 262.444 321.093 260.836 321.747 258.25L321.863 257.789V256.992H321.877Z" fill="#0E1A68"/>
<path d="M300.781 245.283C300.81 245.563 301.406 250.832 305.326 255.851V255.683C305.326 255.389 305.529 255.277 305.79 255.417L306.879 256.032C307.141 256.172 307.359 256.521 307.359 256.815V258.101C308.448 259.135 309.725 260.1 311.221 260.925C312.629 261.707 313.98 262.155 315.214 262.308V261.19C315.214 260.91 315.431 260.785 315.678 260.938L316.782 261.539C317.014 261.679 317.203 261.973 317.246 262.238C319.584 261.805 321.268 260.016 321.835 257.15V256.997L315.257 253.348L314.299 252.817L308.375 249.518L307.417 248.973L300.796 245.297L300.781 245.283Z" fill="#5B68B7"/>
<path d="M305.98 242.273L300.84 245.153L321.879 256.838V257.789L321.835 271.026C321.835 271.389 321.704 271.641 321.487 271.753L326.627 268.887C326.844 268.762 326.975 268.51 326.975 268.147L327.019 253.959L305.98 242.273Z" fill="#0E1A68"/>
<path d="M315.228 262.094C313.993 261.954 312.643 261.507 311.235 260.724C309.754 259.899 308.476 258.935 307.373 257.9L306.879 258.026L306.995 258.376C308.084 259.41 309.754 260.696 311.235 261.521C312.643 262.303 313.993 262.751 315.228 262.891V262.108V262.094Z" fill="#0E1A68"/>
<path d="M316.87 263.325V264.401C316.87 264.527 316.812 264.611 316.754 264.653L316.957 264.541C317.03 264.499 317.073 264.415 317.073 264.275V263.213L316.87 263.325Z" fill="#0E1A68"/>
<path d="M316.869 263.324L317.072 263.227L315.402 262.29L315.199 262.402L316.869 263.324Z" fill="#EA931B"/>
<path d="M315.199 262.401V263.478C315.199 263.715 315.388 264.037 315.606 264.149L316.462 264.624C316.695 264.75 316.869 264.638 316.869 264.4V263.324L315.199 262.401Z" fill="#293896"/>
<path d="M316.969 261.311L315.865 260.696C315.735 260.626 315.619 260.626 315.532 260.668L315.125 260.906C315.212 260.864 315.328 260.864 315.459 260.934L316.548 261.549C316.78 261.675 317.013 262.038 317.013 262.332V263.618L317.419 263.394V262.108C317.419 261.814 317.187 261.451 316.954 261.325L316.969 261.311Z" fill="#293896"/>
<path d="M315.461 260.934C315.199 260.794 314.996 260.906 314.996 261.199V262.499L317.029 263.618V262.332C317.029 262.038 316.811 261.689 316.564 261.549L315.475 260.934H315.461Z" fill="#BBDAF9"/>
<path d="M306.865 257.887V258.963C306.865 259.089 306.807 259.173 306.734 259.229L306.938 259.103C307.025 259.061 307.068 258.978 307.068 258.852V257.775L306.865 257.887Z" fill="#0E1A68"/>
<path d="M306.865 257.887L307.068 257.789L305.399 256.853L305.195 256.964L306.865 257.887Z" fill="#EA931B"/>
<path d="M305.194 256.964V258.04C305.194 258.292 305.383 258.599 305.601 258.725L306.443 259.2C306.675 259.326 306.849 259.228 306.849 258.963V257.886L305.18 256.964H305.194Z" fill="#293896"/>
<path d="M306.966 255.888L305.877 255.287C305.747 255.217 305.616 255.203 305.543 255.259L305.137 255.497C305.224 255.441 305.34 255.455 305.471 255.525L306.56 256.14C306.56 256.14 306.661 256.196 306.705 256.238C306.705 256.238 306.734 256.238 306.734 256.252C306.908 256.419 307.039 256.671 307.039 256.908V258.194L307.445 257.971V256.671C307.445 256.377 307.228 256.014 306.981 255.888H306.966Z" fill="#293896"/>
<path d="M305.457 255.51C305.195 255.371 304.992 255.482 304.992 255.762V257.062L307.01 258.194V256.908C307.01 256.615 306.807 256.265 306.546 256.125L305.457 255.51Z" fill="#BBDAF9"/>
<path d="M318.898 250.856V251.318C319.015 251.248 319.073 251.164 319.073 251.094V250.633C319.073 250.717 319.015 250.801 318.898 250.87V250.856Z" fill="#BBDAF9"/>
<path d="M315.531 251.304V251.765C315.531 251.835 315.604 251.933 315.705 251.989V251.527C315.604 251.471 315.531 251.388 315.531 251.304Z" fill="#BBDAF9"/>
<path d="M315.691 251.541V252.002L316.272 252.31V251.849L315.691 251.541Z" fill="#BBDAF9"/>
<path d="M317.086 251.849L317.1 252.31L318.901 251.304V250.856L317.086 251.849Z" fill="#5B68B7"/>
<path d="M316.273 251.849V252.31C316.491 252.436 316.869 252.436 317.101 252.31V251.849C316.869 251.974 316.506 251.974 316.273 251.849Z" fill="#BBDAF9"/>
<path d="M315.705 251.08C315.473 251.205 315.473 251.415 315.705 251.541L316.272 251.848C316.49 251.974 316.867 251.974 317.085 251.848L318.9 250.842C319.132 250.716 319.132 250.507 318.9 250.381L318.334 250.059C318.116 249.933 317.738 249.933 317.52 250.059L315.705 251.066V251.08Z" fill="#293896"/>
<path d="M312.047 246.998V247.46C312.163 247.404 312.221 247.306 312.221 247.222V246.761C312.221 246.845 312.163 246.942 312.047 246.998Z" fill="#BBDAF9"/>
<path d="M308.68 247.445V247.907C308.68 247.99 308.738 248.074 308.854 248.144V247.683C308.738 247.613 308.68 247.543 308.68 247.445Z" fill="#293896"/>
<path d="M308.855 247.684V248.145L309.422 248.452V248.005L308.855 247.684Z" fill="#293896"/>
<path d="M310.234 248.005L310.249 248.452L312.049 247.445V246.998L310.234 248.005Z" fill="#5B68B7"/>
<path d="M309.422 248.005V248.452C309.64 248.578 310.017 248.578 310.249 248.452V248.005C310.017 248.131 309.64 248.131 309.422 248.005Z" fill="#BBDAF9"/>
<path d="M308.854 247.222C308.622 247.348 308.622 247.557 308.854 247.683L309.42 248.005C309.638 248.13 310.015 248.13 310.233 248.005L312.048 246.998C312.281 246.872 312.281 246.663 312.048 246.537L311.482 246.215C311.25 246.09 310.872 246.09 310.654 246.215L308.854 247.222Z" fill="#5B68B7"/>
<path d="M312.165 246.02L311.352 246.481C310.946 246.704 310.67 247.096 310.539 247.655L311.367 247.194C311.497 246.648 311.788 246.243 312.18 246.02H312.165Z" fill="#8D542D"/>
<mask id="mask1_2140_62949" style="mask-type:luminance" maskUnits="userSpaceOnUse" x="310" y="246" width="3" height="2">
<path d="M312.165 246.02L311.352 246.481C310.946 246.704 310.67 247.096 310.539 247.655L311.367 247.194C311.497 246.648 311.788 246.243 312.18 246.02H312.165Z" fill="white"/>
</mask>
<g mask="url(#mask1_2140_62949)">
<path d="M310.523 247.641L311.351 247.18C311.482 246.635 311.772 246.23 312.164 246.006L311.351 246.467C310.945 246.691 310.669 247.082 310.538 247.641H310.523Z" fill="#0E1A68"/>
</g>
<path d="M311.497 244.915C313.776 243.629 317.682 247.208 318.234 250.996L317.421 251.457C316.883 247.669 312.978 244.091 310.684 245.377L311.497 244.915Z" fill="#0E1A68"/>
<path d="M313.487 245.595C311.527 244.505 309.9 245.223 309.566 247.11L310.525 247.641C310.844 246.327 312.049 245.88 313.487 246.69C314.939 247.487 316.129 249.262 316.449 250.94L317.407 251.471C317.088 249.22 315.461 246.685 313.487 245.595Z" fill="#5B68B7"/>
<path d="M299.408 202.17C299.408 202.17 305.477 210.725 306.958 216.148C307.351 217.602 307.263 219.852 305.623 221.991C303.096 225.318 297.477 230.839 297.477 230.839L297.332 224.13C297.332 224.13 301.18 219 301.035 217.714C300.802 215.687 297.782 211.717 297.782 211.717L299.408 202.156V202.17Z" fill="#0E1A68"/>
<path d="M276.12 268.873C276.12 268.873 275.612 269.67 274.247 270.061C273.201 270.355 270.501 270.327 270.501 270.327C269.078 270.369 267.19 270.369 266.798 271.669C266.798 271.669 266.639 272.326 266.668 272.535C266.769 273.29 267.495 273.654 268.366 274.045C268.366 274.045 269.964 274.758 271.357 275.121C273.158 275.61 274.174 275.652 275.51 275.569C275.51 275.569 277.194 275.443 277.862 275.499C278.603 275.554 278.428 276.072 278.457 276.743L280.766 277.553C283.104 278.043 284.861 276.128 284.846 275.61L284.672 270.55L276.105 268.887L276.12 268.873Z" fill="#5B68B7"/>
<path d="M277.049 275.303C276.411 275.303 274.538 275.471 272.679 275.094C270.922 274.744 268.149 273.486 268.149 273.486C267.365 273.137 266.726 272.605 266.712 272.158C266.682 272.326 266.668 272.508 266.668 272.592C266.77 273.346 267.496 273.71 268.367 274.101C268.367 274.101 269.964 274.814 271.358 275.177C273.158 275.667 274.175 275.695 275.51 275.611C275.51 275.611 277.441 275.513 277.514 275.513C277.964 275.485 278.385 275.639 278.385 275.709C278.385 275.681 278.226 275.275 277.049 275.289V275.303Z" fill="#383736"/>
<path d="M280.735 276.645L278.441 275.862C278.441 276.086 278.441 276.603 278.456 276.827L280.765 277.637C283.102 278.126 284.859 276.225 284.845 275.694L284.801 274.716C284.815 275.247 283.059 277.148 280.721 276.659L280.735 276.645Z" fill="#383736"/>
<path d="M292.771 263.883C292.771 263.883 292.583 265.211 291.247 265.323C290.419 265.393 289.229 265.421 289.229 265.421C287.82 265.169 286.049 265.197 285.729 266.204C285.729 266.204 285.584 266.595 285.599 266.805C285.671 267.56 285.395 266.931 286.455 267.839C286.455 267.839 288.43 269.363 289.708 269.866C291.087 270.411 292.016 270.383 292.525 270.327C292.525 270.327 293.599 270.355 294.223 270.425C294.92 270.509 294.746 271.348 294.746 272.019L296.895 272.871C299.087 273.43 300.801 271.599 300.801 271.082V265.756L292.771 263.855V263.883Z" fill="#5B68B7"/>
<path d="M293.455 270.229C292.846 270.229 292.149 270.117 290.334 269.642C288.824 269.237 286.602 267.741 286.602 267.741C286.079 267.364 285.644 266.902 285.644 266.455C285.615 266.623 285.6 266.791 285.586 266.888C285.528 267.559 286.152 267.937 286.66 268.286C286.66 268.286 288.388 269.53 289.695 269.936C291.379 270.467 291.64 270.425 292.395 270.439C292.395 270.439 293.354 270.481 293.993 270.509C294.268 270.509 294.675 270.676 294.675 270.76C294.675 270.718 294.573 270.257 293.455 270.229Z" fill="#383736"/>
<path d="M296.895 272.284L294.761 271.446C294.761 271.669 294.746 271.893 294.746 272.103L296.895 272.955C299.087 273.514 300.801 271.683 300.801 271.166V270.495C300.801 271.012 299.087 272.829 296.895 272.27V272.284Z" fill="#383736"/>
<path d="M286.687 185.271L282.012 185.816L283.972 197.376C284.466 200.703 285.976 201.094 287.021 201.01C289.213 200.857 291.377 200.214 292.538 199.431C294.789 197.893 294.557 193.267 294.542 192.945L294.644 185.104L286.687 185.257V185.271Z" fill="white"/>
<path d="M295.908 207.104V200.842L294.993 193.825L288.169 195.335L288.953 202.1C288.953 203.065 288.242 203.33 287.719 204.155L284.83 208.586C284.133 209.648 282.695 211.354 282.695 214.345V230.825L296.663 232.698V210.836C296.663 209.564 296.402 208.292 295.908 207.104Z" fill="white"/>
<path d="M287.27 226.968V230.029C287.27 232.307 287.836 236.165 287.836 236.165L298.711 236.557C300.076 236.291 300.598 234.502 300.598 232.685V226.968H287.27Z" fill="#16556E"/>
<path d="M282.958 184.181C281.041 185.103 281.68 187.927 281.68 187.927C281.68 187.857 283.611 189.898 283.611 189.996C283.611 190.052 284.875 193.952 284.875 193.952C284.904 194.399 285.572 195 285.847 194.329C286.167 193.574 285.557 193.057 285.876 192.666C286.196 192.26 287.14 192.064 288.243 194.483L288.868 196.37C289.898 198.494 291.786 198.494 293.122 198.117C293.122 198.117 294.908 197.544 295.532 196.859C295.837 196.523 296.694 192.777 297.057 191.659C298.392 187.494 296.505 179.694 287.619 182.266C285.223 182.965 282.973 184.181 282.973 184.181H282.958Z" fill="#895B13"/>
<path d="M289.188 229.847C289.188 229.847 290.901 246.327 291.598 251.806C292.309 257.369 291.714 265.071 291.714 265.071C291.714 265.071 292.454 268.496 296.302 269.362C298.553 269.852 300.295 270.075 301.195 268.51C301.195 268.51 302.168 257.914 301.34 248.954C300.745 242.539 300.789 232.055 300.789 232.055L289.188 229.847Z" fill="#0E1A68"/>
<path d="M284.454 235.69C284.454 235.69 280.752 246.816 278.821 255.231C276.962 263.352 277.035 263.646 276.033 267.504C275.438 269.782 274.465 270.076 274.668 270.076C274.973 270.076 279.852 276.492 284.89 273.36C284.89 273.36 287.707 262.276 289.188 257.244C290.756 251.932 292.745 247.837 295.417 242.553C297.057 239.296 298.669 233.705 298.669 233.705L284.44 235.704L284.454 235.69Z" fill="#293896"/>
<path d="M294.862 198.872C295.675 198.69 295.893 198.83 296.052 199.305C296.212 199.78 296.198 199.808 296.386 200.269C296.546 200.647 296.357 200.675 296.357 200.675C296.357 200.675 292.263 201.765 289.214 203.764C287.05 205.176 286.891 205.315 286.891 205.315L287.399 203.722C287.791 202.366 289.432 201.01 291.871 199.976C291.871 199.976 293.875 199.123 294.862 198.886V198.872Z" fill="#E4EFF5"/>
<path d="M285.848 192.274C285.848 192.274 286.908 192.372 287.285 193.463C287.546 194.231 287.285 194.888 287.14 195.084C286.748 195.601 286.312 195.727 286.312 195.727C286.312 195.727 286.254 193.868 286.225 193.532C286.196 193.197 285.862 192.288 285.862 192.288L285.848 192.274Z" fill="white"/>
<path d="M285.44 192.134C285.44 192.134 284.874 192.135 285.309 192.889C285.745 193.658 285.846 194.119 285.875 194.553C285.905 194.958 285.846 196.16 285.846 196.16C285.846 196.16 286.209 196.649 286.529 195.895C286.689 195.531 286.761 194.874 286.703 194.022C286.689 193.672 286.035 191.939 285.425 192.134H285.44Z" fill="#FDFDFD"/>
<path d="M288.403 240.358C288.403 240.358 289.651 241.714 292.962 240.595C296.272 239.477 299.684 236.724 299.684 236.724L299.263 234.809C299.263 234.809 290.711 238.541 289.143 238.037C287.575 237.52 288.417 240.372 288.417 240.372L288.403 240.358Z" fill="#292928"/>
<path d="M284.411 207.329C282.523 208.741 281.957 210.04 281.957 214.737L282.422 236.109C282.422 236.92 282.378 239.101 286.719 239.744C288.084 239.953 290.044 240.526 293.123 239.548C294.386 239.143 300.992 236.207 300.992 234.488L301.195 211.117C301.094 208.349 300.92 204.952 300.469 203.485C299.424 200.158 296.375 200.563 296.375 200.563C296.375 200.563 291.264 202.213 288.563 204.198C287.257 205.162 287.097 205.26 284.411 207.329Z" fill="#293896"/>
<path d="M260.249 224.996L255.53 226.324C255.53 226.324 253.061 228.56 252.045 229.189C251.029 229.818 252.771 231.146 254.296 231.077C255.82 231.007 257.78 229.539 257.78 229.539L261.918 228.281L260.249 224.996Z" fill="#FDE7DA"/>
<path d="M259.813 227.931C260.19 228.812 260.785 229.231 260.785 229.231C260.785 229.231 261.526 229.832 262.266 229.553C264.488 228.714 273.882 224.353 276.437 222.885C279.24 221.278 285.89 215.966 285.89 215.966C285.89 215.966 290.986 212.542 289.055 209.55C287.443 207.062 284.83 208.041 282.623 209.383C280.88 210.431 272.169 217.504 272.169 217.504L259.595 224.549C259.595 224.549 258.912 225.891 259.798 227.931H259.813Z" fill="#5B68B7"/>
<path d="M161.85 241.324L164.072 240.08L164.057 244.553L161.836 245.797L161.85 241.324Z" fill="#5B68B7"/>
<path d="M152.312 236.012L154.519 234.782L164.073 240.08L161.852 241.324L152.312 236.012Z" fill="#787474"/>
<path d="M161.851 241.324L161.836 245.797L152.297 240.486L152.311 236.013L161.851 241.324Z" fill="#BBDAF9"/>
<path d="M171.275 221.321L158.324 214.15C157.932 213.927 157.525 213.857 157.148 213.913C156.364 214.025 155.565 214.151 154.781 214.262C155.159 214.206 155.565 214.276 155.943 214.5L168.894 221.671C170.056 222.314 170.666 223.977 170.259 225.403L165.961 240.667C165.7 241.603 165.061 242.204 164.321 242.316L166.687 241.967C167.428 241.855 168.067 241.254 168.328 240.317L172.626 225.053C173.018 223.628 172.408 221.964 171.261 221.321H171.275Z" fill="#5B68B7"/>
<path d="M168.907 221.684C170.068 222.327 170.678 223.991 170.272 225.417L165.974 240.68C165.582 242.106 164.319 242.735 163.157 242.092L150.206 234.922C149.044 234.279 148.434 232.615 148.841 231.189L153.139 215.926C153.545 214.5 154.794 213.871 155.955 214.514L168.907 221.684Z" fill="#BBDAF9"/>
<path d="M155.258 216.191L150.031 232.923L163.52 240.415L168.747 223.684L155.258 216.191Z" fill="#559A33"/>
<path d="M150.758 232.727L163.666 239.912L168.748 223.683L155.84 216.513L150.758 232.727Z" fill="white"/>
<path d="M163.638 239.912L150.73 232.727L155.797 216.513L155.231 216.191L150.004 232.923L163.478 240.415L163.638 239.912Z" fill="#293896"/>
<path d="M157.217 233.482C157.449 233.607 157.566 233.943 157.478 234.236L157.348 234.67C157.261 234.963 156.999 235.089 156.767 234.949L154.255 233.552C154.023 233.426 153.907 233.09 153.994 232.811L154.124 232.377C154.212 232.098 154.473 231.958 154.705 232.098L157.217 233.496V233.482Z" fill="#BBDAF9"/>
<path d="M161.401 235.802C161.633 235.928 161.749 236.264 161.662 236.543L161.531 236.977C161.444 237.27 161.183 237.396 160.951 237.256L158.439 235.858C158.206 235.732 158.09 235.397 158.177 235.104L158.308 234.67C158.395 234.391 158.657 234.265 158.889 234.391L161.401 235.788V235.802Z" fill="#293896"/>
<path d="M157.683 229.401C157.799 229.47 157.858 229.638 157.814 229.778L157.335 231.288C157.291 231.427 157.161 231.497 157.044 231.427L155.825 230.742C155.709 230.673 155.651 230.505 155.694 230.365L156.159 228.869C156.202 228.73 156.333 228.66 156.449 228.73L157.669 229.401H157.683Z" fill="#293896"/>
<path d="M158.524 226.702C158.64 226.758 158.699 226.94 158.655 227.08L158.19 228.589C158.147 228.729 158.016 228.799 157.9 228.729L156.68 228.058C156.564 227.988 156.506 227.82 156.55 227.681L157.014 226.171C157.058 226.031 157.188 225.961 157.305 226.031L158.524 226.702Z" fill="#293896"/>
<path d="M159.849 230.603C159.965 230.673 160.023 230.84 159.979 230.98L159.515 232.476C159.471 232.615 159.34 232.685 159.224 232.615L158.005 231.945C157.888 231.875 157.83 231.707 157.874 231.567L158.338 230.072C158.382 229.932 158.513 229.862 158.629 229.932L159.849 230.603Z" fill="#293896"/>
<path d="M159.352 224.019C159.469 224.075 159.527 224.256 159.483 224.396L159.018 225.892C158.975 226.031 158.844 226.101 158.728 226.031L157.508 225.361C157.392 225.291 157.334 225.123 157.378 224.983L157.842 223.487C157.886 223.348 158.017 223.278 158.133 223.348L159.352 224.019Z" fill="#293896"/>
<path d="M159.076 220.86C159.381 221.027 159.526 221.475 159.41 221.838C159.294 222.216 158.946 222.383 158.655 222.216L156.347 220.93C156.042 220.762 155.896 220.315 156.013 219.951C156.129 219.574 156.477 219.42 156.768 219.574L159.062 220.86H159.076Z" fill="#293896"/>
<path d="M160.704 227.918C160.82 227.988 160.878 228.156 160.835 228.296L160.37 229.805C160.326 229.945 160.196 230.015 160.08 229.945L158.86 229.26C158.744 229.19 158.686 229.037 158.729 228.883L159.194 227.373C159.237 227.233 159.368 227.164 159.484 227.233L160.704 227.904V227.918Z" fill="#293896"/>
<path d="M162.04 231.818C162.156 231.888 162.214 232.056 162.171 232.196L161.706 233.706C161.662 233.845 161.532 233.915 161.416 233.845L160.196 233.174C160.08 233.104 160.022 232.937 160.065 232.797L160.53 231.287C160.573 231.148 160.704 231.078 160.82 231.148L162.04 231.818Z" fill="#293896"/>
<path d="M161.532 225.221C161.648 225.291 161.706 225.458 161.663 225.598L161.198 227.108C161.155 227.248 161.024 227.317 160.908 227.248L159.688 226.577C159.572 226.507 159.514 226.339 159.557 226.199L160.022 224.69C160.066 224.55 160.196 224.48 160.312 224.55L161.532 225.221Z" fill="#293896"/>
<path d="M162.88 229.121C162.996 229.191 163.054 229.359 163.01 229.499L162.546 230.994C162.502 231.134 162.372 231.204 162.255 231.134L161.036 230.463C160.92 230.407 160.862 230.225 160.905 230.086L161.37 228.59C161.413 228.45 161.544 228.38 161.66 228.45L162.88 229.135V229.121Z" fill="#293896"/>
<path d="M163.723 226.437C163.84 226.507 163.898 226.675 163.854 226.814L163.39 228.324C163.346 228.464 163.215 228.534 163.099 228.464L161.88 227.779C161.763 227.709 161.705 227.555 161.749 227.401L162.213 225.892C162.257 225.752 162.388 225.682 162.504 225.752L163.723 226.423V226.437Z" fill="#293896"/>
<path d="M166.597 225.04C166.902 225.207 167.047 225.641 166.931 226.018C166.814 226.395 166.481 226.563 166.176 226.395L160.106 223.027C159.802 222.859 159.642 222.412 159.772 222.048C159.889 221.671 160.223 221.503 160.542 221.685L166.611 225.054L166.597 225.04Z" fill="#293896"/>
<g style="mix-blend-mode:multiply" opacity="0.29">
<path d="M410 240.671L432.964 253.942L455.213 240.697L453.092 239.487L426.146 231.85L410 240.671Z" fill="#231F20"/>
</g>
<path d="M432.652 252.732L454.185 240.099L454.341 183.996L432.822 211.514L432.652 252.732Z" fill="#0E1A68"/>
<path d="M411.836 240.736L433.356 228.064L433.525 172L412.005 199.518L411.836 240.736Z" fill="#0E1A68"/>
<path d="M411.992 199.518L411.836 240.723L432.653 252.732L432.823 211.514L411.992 199.518Z" fill="#5B68B7"/>
<path d="M413.736 203.499L413.684 225.279L419.044 228.363L419.083 206.582L413.736 203.499Z" fill="#293896"/>
<path d="M419.056 228.598L413.5 225.397V225.28L413.539 203.396L413.916 203.591L413.877 225.176L419.056 228.155V228.598Z" fill="#0E1A68"/>
<path d="M433.525 172L454.342 183.996L432.823 211.514L411.992 199.518L433.525 172Z" fill="white"/>
<path d="M433.081 176.202L449.461 185.648L437.843 200.571L421.449 191.126L433.081 176.202Z" fill="#BBDAF9"/>
<path d="M425.442 198.321C425.807 197.839 426.47 197.709 426.991 198.009L434.732 202.471C435.214 202.744 435.344 203.382 435.005 203.824L432.377 207.233C432.013 207.714 431.35 207.845 430.829 207.545L423.087 203.083C422.606 202.809 422.476 202.159 422.814 201.729L425.442 198.334V198.321Z" fill="#293896"/>
<path d="M424.818 188.85L427.616 190.385L426.379 191.972L423.582 190.45L424.818 188.85Z" fill="#0E1A68"/>
<path d="M431.349 180.549L434.134 182.071L432.897 183.659L430.113 182.136L431.349 180.549Z" fill="#0E1A68"/>
<path d="M429.724 182.617L432.509 184.152L431.272 185.74L428.488 184.204L429.724 182.617Z" fill="#0E1A68"/>
<path d="M428.084 184.699L430.881 186.221L429.632 187.809L426.848 186.287L428.084 184.699Z" fill="#0E1A68"/>
<path d="M426.459 186.78L429.243 188.303L428.007 189.89L425.223 188.368L426.459 186.78Z" fill="#0E1A68"/>
<path d="M432.987 178.467L435.771 179.989L434.535 181.576L431.738 180.054L432.987 178.467Z" fill="#0E1A68"/>
<path d="M421.62 191.217L421.281 191.034L433.03 175.968L449.58 185.492L449.346 185.791L433.121 176.449L421.62 191.217Z" fill="#0E1A68"/>
<path d="M416.414 198.594C416.414 198.009 417.052 197.527 417.858 197.527C418.665 197.527 419.302 198.009 419.302 198.594C419.302 199.18 418.652 199.661 417.858 199.661C417.065 199.661 416.414 199.18 416.414 198.594Z" fill="#293896"/>
<path d="M418.523 195.953C418.523 195.367 419.174 194.886 419.967 194.886C420.761 194.886 421.412 195.367 421.412 195.953C421.412 196.538 420.774 197.02 419.967 197.02C419.161 197.02 418.523 196.538 418.523 195.953Z" fill="#293896"/>
<path d="M419.379 200.012C419.379 199.427 420.029 198.945 420.823 198.945C421.617 198.945 422.267 199.427 422.267 200.012C422.267 200.598 421.63 201.079 420.823 201.079C420.016 201.079 419.379 200.598 419.379 200.012Z" fill="#293896"/>
<path d="M421.5 197.371C421.5 196.785 422.151 196.304 422.944 196.304C423.738 196.304 424.388 196.785 424.388 197.371C424.388 197.956 423.738 198.437 422.944 198.437C422.151 198.437 421.5 197.956 421.5 197.371Z" fill="#293896"/>
<path d="M442.723 205.217L443.751 204.67L481 226.138L480.897 262.217L479.882 262.764L479.986 226.685L442.723 205.217Z" fill="#5B68B7"/>
<g opacity="0.46">
<path d="M442.721 205.217L442.617 241.296L479.88 262.764L479.985 226.685L442.721 205.217Z" fill="#BBDAF9"/>
</g>
<g style="mix-blend-mode:multiply" opacity="0.29">
<path d="M466 274.671L488.964 287.942L511.213 274.697L509.092 273.487L482.146 265.85L466 274.671Z" fill="#231F20"/>
</g>
<path d="M488.652 286.732L510.185 274.099L510.341 217.996L488.822 245.514L488.652 286.732Z" fill="#0E1A68"/>
<path d="M467.836 274.736L489.356 262.064L489.525 206L468.005 233.518L467.836 274.736Z" fill="#0E1A68"/>
<path d="M467.992 233.518L467.836 274.723L488.653 286.732L488.823 245.514L467.992 233.518Z" fill="#5B68B7"/>
<path d="M469.736 237.499L469.684 259.279L475.044 262.363L475.083 240.582L469.736 237.499Z" fill="#293896"/>
<path d="M475.056 262.598L469.5 259.397V259.28L469.539 237.396L469.916 237.591L469.877 259.176L475.056 262.155V262.598Z" fill="#0E1A68"/>
<path d="M489.525 206L510.342 217.996L488.823 245.514L467.992 233.518L489.525 206Z" fill="white"/>
<path d="M489.081 210.202L505.461 219.648L493.843 234.571L477.449 225.126L489.081 210.202Z" fill="#BBDAF9"/>
<path d="M481.442 232.321C481.807 231.839 482.47 231.709 482.991 232.009L490.732 236.471C491.214 236.744 491.344 237.382 491.005 237.824L488.377 241.233C488.013 241.714 487.35 241.845 486.829 241.545L479.087 237.083C478.606 236.809 478.476 236.159 478.814 235.729L481.442 232.334V232.321Z" fill="#293896"/>
<path d="M480.818 222.85L483.616 224.385L482.379 225.972L479.582 224.45L480.818 222.85Z" fill="#0E1A68"/>
<path d="M487.349 214.549L490.134 216.071L488.897 217.659L486.113 216.136L487.349 214.549Z" fill="#0E1A68"/>
<path d="M485.724 216.617L488.509 218.152L487.272 219.74L484.488 218.204L485.724 216.617Z" fill="#0E1A68"/>
<path d="M484.084 218.699L486.881 220.221L485.632 221.809L482.848 220.287L484.084 218.699Z" fill="#0E1A68"/>
<path d="M482.459 220.78L485.243 222.303L484.007 223.89L481.223 222.368L482.459 220.78Z" fill="#0E1A68"/>
<path d="M488.987 212.467L491.771 213.989L490.535 215.576L487.738 214.054L488.987 212.467Z" fill="#0E1A68"/>
<path d="M477.62 225.217L477.281 225.034L489.03 209.968L505.58 219.492L505.346 219.791L489.121 210.449L477.62 225.217Z" fill="#0E1A68"/>
<path d="M472.414 232.594C472.414 232.009 473.052 231.527 473.858 231.527C474.665 231.527 475.302 232.009 475.302 232.594C475.302 233.18 474.652 233.661 473.858 233.661C473.065 233.661 472.414 233.18 472.414 232.594Z" fill="#293896"/>
<path d="M474.523 229.953C474.523 229.367 475.174 228.886 475.967 228.886C476.761 228.886 477.412 229.367 477.412 229.953C477.412 230.538 476.774 231.02 475.967 231.02C475.161 231.02 474.523 230.538 474.523 229.953Z" fill="#293896"/>
<path d="M475.379 234.012C475.379 233.427 476.029 232.945 476.823 232.945C477.617 232.945 478.267 233.427 478.267 234.012C478.267 234.598 477.63 235.079 476.823 235.079C476.016 235.079 475.379 234.598 475.379 234.012Z" fill="#293896"/>
<path d="M477.5 231.371C477.5 230.785 478.151 230.304 478.944 230.304C479.738 230.304 480.388 230.785 480.388 231.371C480.388 231.956 479.738 232.437 478.944 232.437C478.151 232.437 477.5 231.956 477.5 231.371Z" fill="#293896"/>
<path d="M498.723 239.217L499.751 238.67L537 260.138L536.897 296.217L535.882 296.764L535.986 260.685L498.723 239.217Z" fill="#5B68B7"/>
<g opacity="0.46">
<path d="M498.721 239.217L498.617 275.296L535.88 296.764L535.985 260.685L498.721 239.217Z" fill="#BBDAF9"/>
</g>
<mask id="mask2_2140_62949" style="mask-type:luminance" maskUnits="userSpaceOnUse" x="536" y="257" width="9" height="49">
<path d="M544.558 257.301V303.454C544.558 304.039 544.064 304.624 543.241 305.063C541.596 305.953 538.912 305.953 537.253 305.063C536.418 304.612 536 304.027 536 303.43L536.139 257.276C536.139 257.861 536.557 258.459 537.393 258.909C539.051 259.811 541.735 259.799 543.381 258.909C544.203 258.459 544.558 257.886 544.558 257.301Z" fill="white"/>
</mask>
<g mask="url(#mask2_2140_62949)">
<path d="M544.559 257.301V303.454C544.559 304.039 544.065 304.624 543.242 305.063C541.596 305.953 538.913 305.953 537.254 305.063C536.419 304.612 536.14 304.027 536.153 303.43V257.276C536.153 257.861 536.571 258.459 537.406 258.909C539.064 259.811 541.748 259.799 543.394 258.909C544.217 258.459 544.571 257.886 544.571 257.301H544.559Z" fill="#293896"/>
</g>
<path d="M543.355 255.667C545.014 256.569 545.026 258.019 543.368 258.921C541.722 259.811 539.038 259.823 537.38 258.921C535.721 258.019 535.721 256.569 537.354 255.667C539 254.778 541.684 254.778 543.342 255.667H543.355Z" fill="#BBDAF9"/>
<path d="M468.06 234.76L464.715 232.232L471.444 225.925L474.789 228.44L468.06 234.76Z" fill="#242940"/>
<path d="M426.843 212.084C426.282 213.833 426.116 215.468 426.371 216.872C426.626 218.277 426.397 222.005 426.511 223.218C426.626 224.431 427.89 225.133 428.874 225.082C429.869 225.044 430.776 224.073 431.185 222.694C431.593 221.315 432.398 215.876 431.989 214.395C431.58 212.901 426.856 212.071 426.856 212.071L426.843 212.084Z" fill="white"/>
<path d="M427.88 221.98C427.344 222.324 426.577 222.082 426.514 223.218C426.45 224.354 428.327 232.513 428.416 233.65C428.505 234.786 428.505 237.378 428.837 238.067C429.169 238.757 429.808 240.404 430.255 240.417H430.689C430.689 240.417 430.97 240.876 431.174 240.902C431.378 240.928 432.502 240.11 432.502 240.11C432.502 240.11 433.74 238.719 433.817 237.927C433.894 237.135 433.345 234.595 433.076 234.314C432.808 234.033 431.697 230.828 431.506 229.628C431.327 228.427 430.689 222.235 430.689 222.235L427.88 221.967V221.98Z" fill="white"/>
<path d="M434.52 202.393C432.681 201.372 430.472 201.512 429.514 202.099C428.736 202.585 428.212 203.913 427.42 207.002C426.629 210.092 426.08 212.697 426.003 213.859C425.927 215.021 428.633 216.681 430.28 216.579C431.928 216.476 434.507 202.38 434.507 202.38L434.52 202.393Z" fill="#0E1A68"/>
<path d="M448.115 222.465C448.064 222.758 447.987 224.227 448.485 225.006C448.97 225.784 453.222 230.866 454.218 231.377C455.214 231.888 458.444 229.372 457.819 227.968C457.206 226.551 453.401 219.873 452.648 219.273C451.894 218.66 448.115 222.477 448.115 222.477V222.465Z" fill="white"/>
<path d="M454.298 228.811C454.298 228.811 453.595 230.662 454.221 231.224C454.847 231.798 455.983 233.177 465.929 233.995C467.589 234.812 467.551 234.812 468.113 234.684C468.662 234.556 469.185 234.531 469.185 234.531C469.185 234.531 469.849 234.224 470.411 234.097C470.96 233.969 470.986 233.126 470.986 233.126C470.986 233.126 471.432 232.73 471.522 232.488C471.598 232.233 470.858 231.224 470.794 231.224C470.73 231.224 469.198 230.458 469.198 230.458C469.198 230.458 467.296 230.764 466.836 230.905C466.376 231.032 463.976 230.177 463.069 229.743C462.163 229.309 458.83 226.921 457.413 226.908C455.996 226.908 454.298 228.811 454.298 228.811Z" fill="white"/>
<path d="M469.913 229.359C469.913 229.359 469.862 229.359 469.811 229.385C469.377 229.5 467.755 230.036 467.755 230.036C467.755 230.036 466.912 230.777 466.9 230.968C466.9 231.16 467.372 231.632 468.113 231.632C468.84 231.632 469.862 230.879 469.862 230.879L471.764 230.445C471.764 230.445 472.186 229.793 472.058 229.628C471.93 229.462 471.215 229.398 471.215 229.398L469.9 229.359H469.913Z" fill="white"/>
<path d="M430.676 280.521C430.854 281.505 430.471 282.679 430.241 283.841C430.012 284.99 429.629 285.948 430.51 286.446C431.391 286.931 434.238 287.059 435.438 286.088C436.638 285.131 437.928 283.943 437.928 283.943C437.928 283.943 440.992 282.501 441.771 281.734C442.55 280.981 441.771 279.296 441.771 279.296C441.771 279.296 439.549 278.721 438.949 278.696C438.349 278.67 436.038 280.151 436.038 280.151L434.059 279.168L430.701 280.534L430.676 280.521Z" fill="#293896"/>
<path d="M439.434 285.667C439.549 286.574 439.191 288.808 439.268 289.6C439.344 290.392 439.319 291.145 440.162 291.477C441.004 291.809 443.992 291.298 444.337 291.132C444.681 290.953 451.717 287.838 451.717 287.838C451.717 287.838 451.87 286.791 451.781 286.191C451.691 285.591 450.133 284.237 449.495 284.454C448.844 284.672 445.001 285.195 444.694 285.182C444.401 285.182 444.018 284.327 443.877 284.186C443.737 284.046 439.421 285.667 439.421 285.667H439.434Z" fill="#293896"/>
<path d="M430.677 279.576C430.855 280.559 429.885 282.053 429.949 283.228C430.013 284.403 429.617 285.003 430.498 285.488C431.379 285.973 434.226 286.101 435.426 285.13C436.627 284.173 437.916 282.985 437.916 282.985C437.916 282.985 440.98 281.543 441.759 280.776C442.538 280.01 441.759 278.338 441.759 278.338C441.759 278.338 439.538 277.763 438.938 277.738C438.337 277.712 436.026 279.193 436.026 279.193L434.047 278.21L430.689 279.576H430.677Z" fill="#0E1A68"/>
<path d="M439.434 284.722C439.549 285.629 439.191 287.863 439.268 288.655C439.344 289.446 439.319 290.2 440.162 290.532C441.004 290.864 443.992 290.353 444.337 290.187C444.681 290.008 451.717 286.893 451.717 286.893C451.717 286.893 451.87 285.846 451.781 285.246C451.691 284.646 450.133 283.292 449.495 283.509C448.844 283.726 445.001 284.25 444.694 284.237C444.401 284.237 444.018 283.381 443.877 283.241C443.737 283.101 439.421 284.722 439.421 284.722H439.434Z" fill="#0E1A68"/>
<path d="M430.23 234.862C429.298 237.339 428.608 239.523 428.659 242C428.71 244.477 429.783 251.742 429.872 253.134C429.962 254.525 430.013 260.68 430.472 262.237C430.932 263.795 437.75 264.114 438.491 261.254C439.231 258.394 438.133 239.765 437.801 238.731C437.469 237.697 430.23 234.85 430.23 234.85V234.862Z" fill="#293896"/>
<path d="M430.111 259.25C429.486 261.446 428.898 264.562 428.924 266.885C428.949 269.209 429.856 280.752 430.571 281.607C431.286 282.463 434.478 282.373 435.397 281.811C436.317 281.25 436.725 280.483 436.725 280.483C436.725 280.483 438.385 262.212 438.526 261.089C438.666 259.965 430.124 259.263 430.124 259.263L430.111 259.25Z" fill="#293896"/>
<path d="M435.603 281.798C435.603 281.632 436.088 264.791 437.352 260.999C438.642 257.13 436.33 244.502 436.228 243.966L435.82 244.042C435.845 244.17 438.22 257.104 436.956 260.871C435.679 264.714 435.207 281.096 435.181 281.785H435.603V281.798Z" fill="#0E1A68"/>
<path d="M432.499 238.272C432.346 239.319 432.588 244.809 433.712 247.797C434.836 250.785 436.674 250.925 436.968 251.998C437.262 253.058 438.449 266.056 439.177 267.473C439.905 268.89 444.412 269.797 445.689 268.724C446.965 267.652 448.14 267.549 448.37 266.515C448.6 265.468 448.51 250.274 448.28 246.776C448.051 243.277 448.178 240.175 447.144 238.068C446.11 235.961 432.499 238.285 432.499 238.285V238.272Z" fill="#5B68B7"/>
<path d="M438.002 250.669L438.092 250.631C438.641 250.427 440.467 249.724 440.709 249.175C440.939 248.639 440.581 245.319 440.505 244.655L440.479 244.489L440.313 244.464C435.806 243.902 433.955 243.238 433.942 243.225L433.597 243.098L433.661 243.455C433.827 244.528 434.402 248.052 434.657 248.435C434.912 248.818 437.211 250.184 437.913 250.605L438.002 250.656V250.669ZM440.096 244.885C440.301 246.724 440.441 248.728 440.313 249.009C440.198 249.265 439.062 249.814 438.041 250.197C436.649 249.367 435.155 248.422 435.015 248.218C434.874 247.988 434.466 245.805 434.134 243.762C434.836 243.979 436.687 244.451 440.096 244.885Z" fill="#0E1A68"/>
<path d="M430.099 247.835H430.227C430.495 247.784 431.72 246.737 431.899 246.341C432.078 245.945 431.644 242.843 431.452 241.54V241.413L431.312 241.374C431.299 241.374 429.563 240.761 428.771 239.446L428.401 239.663C429.154 240.915 430.61 241.566 431.056 241.732C431.35 243.736 431.593 245.92 431.516 246.188C431.414 246.418 430.648 247.082 430.303 247.324C430.022 246.75 429.205 244.937 429.039 244.426L428.63 244.554C428.809 245.09 429.946 247.618 430.048 247.746L430.124 247.835H430.099Z" fill="#0E1A68"/>
<path d="M439.331 260.016C438.974 261.535 438.923 264.318 438.846 266.285C438.77 268.251 438.45 284.301 438.936 286.075C442.115 288.897 446.367 285.028 446.367 285.028C446.367 285.028 448.256 267.855 448.397 266.323C448.537 264.791 439.331 260.016 439.331 260.016Z" fill="#5B68B7"/>
<path d="M445.012 285.884C445.012 285.884 446.506 271.532 447.042 266.336C447.578 261.177 446.174 239.752 446.161 239.535L445.752 239.561C445.765 239.778 447.17 261.177 446.633 266.297C446.097 271.494 444.603 285.845 444.603 285.845L445.012 285.884Z" fill="#0E1A68"/>
<path d="M436.983 203.224C435.106 202.547 432.642 201.142 430.714 202.291C429.13 203.224 427.368 207.284 427.866 212.863C428.288 217.6 428.671 224.968 428.913 226.653C429.156 228.351 428.441 237.11 428.607 239.089C428.773 241.068 432.884 242.92 435.438 243.367C437.992 243.814 440.635 244.107 444.682 243.15C448.717 242.192 448.627 240.507 448.627 240.507C448.627 240.507 447.925 230.203 447.951 227.675C447.976 225.146 450.262 214.945 450.262 214.945C450.262 214.945 449.93 211.485 449.074 210.578C448.219 209.671 443.035 206.25 442.601 205.943C442.167 205.637 436.983 203.224 436.983 203.224Z" fill="#293896"/>
<path d="M448.666 210.386C447.491 210.182 444.452 211.765 444.197 213.884C443.737 217.817 447.632 224.176 448.091 225.095C448.538 226.027 454.859 222.963 454.501 221.635C454.144 220.307 450.785 210.743 448.679 210.386H448.666Z" fill="#0E1A68"/>
<path d="M443.023 206.466C443.112 205.917 443.291 205.049 443.521 204.717C443.751 204.397 445.717 204.857 446.342 204.806C446.968 204.755 447.811 201.103 447.811 201.103C447.811 201.103 449.139 200.746 449.228 200.375C449.317 200.005 448.845 197.758 448.845 197.758C448.845 197.758 449.892 194.157 449.79 193.608C449.7 193.059 443.699 189.867 443.699 189.867C443.699 189.867 438.605 193.57 438.196 195.907C437.788 198.243 437.188 200.312 436.792 201.18C436.396 202.048 435.758 203.682 435.426 204.04C435.094 204.397 436.677 205.1 438.796 205.457C440.916 205.815 443.023 206.466 443.023 206.466Z" fill="white"/>
<path d="M445.348 197.924C445.22 197.592 445.079 197.503 444.39 197.899C443.7 198.295 443.56 199.112 443.292 199.814C443.024 200.516 441.223 200.963 440.381 201.295C439.538 201.627 437.227 200.81 437.227 200.81C437.227 200.81 436.589 197.133 436.563 195.371C436.538 193.609 436.014 188.808 441.006 188.348C445.118 186.854 449.74 190.557 450.302 192.064C450.863 193.57 450.199 195.447 450.199 195.447C450.199 195.447 449.446 195.639 449.114 195.856C448.782 196.073 448.271 196.431 448.157 196.788C448.042 197.146 446.918 199.699 446.918 199.699L445.718 199.559L445.36 197.924H445.348Z" fill="#C74C31"/>
<path d="M445.103 197.146C445.103 197.146 444.822 197.146 444.388 197.899C443.954 198.652 443.52 201.065 444.069 201.244C444.618 201.423 445.167 200.401 445.193 200.312C445.218 200.235 445.652 197.937 445.601 197.541C445.55 197.146 445.091 197.146 445.091 197.146H445.103Z" fill="white"/>
<defs>
<linearGradient id="paint0_linear_2140_62949" x1="234.55" y1="219.475" x2="235.58" y2="222.602" gradientUnits="userSpaceOnUse">
<stop stop-color="#D8C1B5"/>
<stop offset="1" stop-color="#DE9473"/>
</linearGradient>
</defs>
</svg>
