<svg width="705" height="468" viewBox="0 0 705 468" fill="none" xmlns="http://www.w3.org/2000/svg">
<rect width="705" height="468" fill="#E0E6F9"/>
<path fill-rule="evenodd" clip-rule="evenodd" d="M224 303.625L273.909 329H276.962L289.931 322.401H301.79L304.566 321.001L301.765 319.579H299.519V317.512L427.143 252.654H439.002V249.81H427.648L399.312 235.411H405.09V232.567H393.736L380.262 225.724H377.209L349.504 239.811H337.544L226.296 296.359L228.062 297.27H236.49L224 303.625Z" fill="#B0CCE9"/>
<path fill-rule="evenodd" clip-rule="evenodd" d="M412.305 215.859L428.201 207.482L426.057 206.371L407.41 215.859H412.305Z" fill="#DCC2B0"/>
<path fill-rule="evenodd" clip-rule="evenodd" d="M321.545 280.473L270.223 269.341L303.983 297.715L306.834 301.781L321.545 294.293V280.473Z" fill="#0E1A68"/>
<path fill-rule="evenodd" clip-rule="evenodd" d="M321.545 280.472L306.834 287.96L270.223 269.341L284.933 261.853L321.545 280.472Z" fill="#293896"/>
<path fill-rule="evenodd" clip-rule="evenodd" d="M270.223 269.341L306.834 287.961V319.09L270.223 300.47V269.341Z" fill="#0E1A68"/>
<path fill-rule="evenodd" clip-rule="evenodd" d="M292.954 289.271C292.954 289.271 293.181 289.493 293.181 289.604C293.181 289.738 293.08 289.782 292.954 289.715C292.828 289.649 292.727 289.493 292.727 289.382C292.727 289.271 292.828 289.204 292.954 289.271ZM292.323 288.96C292.323 288.96 292.551 289.182 292.551 289.293C292.551 289.404 292.45 289.471 292.323 289.404C292.197 289.338 292.096 289.182 292.096 289.071C292.096 288.938 292.197 288.893 292.323 288.96ZM291.693 288.627C291.693 288.627 291.92 288.849 291.92 288.96C291.92 289.093 291.819 289.138 291.693 289.071C291.566 289.004 291.466 288.849 291.466 288.738C291.466 288.604 291.566 288.56 291.693 288.627ZM291.037 288.293C291.037 288.293 291.264 288.516 291.264 288.627C291.264 288.76 291.163 288.804 291.037 288.738C290.911 288.671 290.81 288.516 290.81 288.404C290.81 288.271 290.911 288.227 291.037 288.293ZM290.406 287.982C290.406 287.982 290.633 288.205 290.633 288.316C290.633 288.427 290.532 288.493 290.406 288.427C290.28 288.36 290.179 288.205 290.179 288.093C290.179 287.982 290.28 287.916 290.406 287.982ZM289.75 287.649C289.75 287.649 289.977 287.871 289.977 287.982C289.977 288.093 289.876 288.16 289.75 288.093C289.624 288.027 289.523 287.871 289.523 287.76C289.523 287.649 289.624 287.582 289.75 287.649ZM289.119 287.316C289.119 287.316 289.346 287.538 289.346 287.649C289.346 287.76 289.245 287.827 289.119 287.76C288.993 287.693 288.892 287.538 288.892 287.427C288.892 287.316 288.993 287.249 289.119 287.316ZM288.488 287.005C288.488 287.005 288.715 287.227 288.715 287.338C288.715 287.449 288.614 287.516 288.488 287.449C288.362 287.382 288.261 287.227 288.261 287.116C288.261 286.982 288.362 286.938 288.488 287.005ZM287.832 286.671C287.832 286.671 288.059 286.894 288.059 287.005C288.059 287.138 287.958 287.182 287.832 287.116C287.706 287.049 287.605 286.894 287.605 286.782C287.605 286.649 287.706 286.605 287.832 286.671ZM287.201 286.338C287.201 286.338 287.429 286.56 287.429 286.671C287.429 286.782 287.328 286.849 287.201 286.782C287.075 286.716 286.974 286.56 286.974 286.449C286.974 286.316 287.075 286.271 287.201 286.338ZM286.571 286.027C286.571 286.027 286.798 286.249 286.798 286.36C286.798 286.494 286.697 286.538 286.571 286.471C286.444 286.405 286.343 286.249 286.343 286.138C286.343 286.027 286.444 285.96 286.571 286.027ZM285.915 285.694C285.915 285.694 286.142 285.916 286.142 286.027C286.142 286.138 286.041 286.205 285.915 286.138C285.788 286.071 285.688 285.916 285.688 285.805C285.688 285.671 285.788 285.627 285.915 285.694ZM292.954 289.938C292.954 289.938 293.181 290.16 293.181 290.271C293.181 290.404 293.08 290.449 292.954 290.382C292.828 290.315 292.727 290.16 292.727 290.049C292.727 289.915 292.828 289.871 292.954 289.938ZM292.323 289.604C292.323 289.604 292.551 289.827 292.551 289.938C292.551 290.071 292.45 290.115 292.323 290.049C292.197 289.982 292.096 289.827 292.096 289.715C292.096 289.604 292.197 289.538 292.323 289.604ZM291.693 289.271C291.693 289.271 291.92 289.493 291.92 289.604C291.92 289.715 291.819 289.782 291.693 289.715C291.566 289.649 291.466 289.493 291.466 289.382C291.466 289.271 291.566 289.204 291.693 289.271ZM291.037 288.96C291.037 288.96 291.264 289.182 291.264 289.293C291.264 289.427 291.163 289.471 291.037 289.404C290.911 289.338 290.81 289.182 290.81 289.071C290.81 288.96 290.911 288.893 291.037 288.96ZM290.406 288.627C290.406 288.627 290.633 288.849 290.633 288.96C290.633 289.093 290.532 289.138 290.406 289.071C290.28 289.004 290.179 288.849 290.179 288.738C290.179 288.627 290.28 288.56 290.406 288.627ZM289.75 288.293C289.75 288.293 289.977 288.516 289.977 288.627C289.977 288.738 289.876 288.804 289.75 288.738C289.624 288.671 289.523 288.516 289.523 288.404C289.523 288.271 289.624 288.227 289.75 288.293ZM289.119 287.982C289.119 287.982 289.346 288.205 289.346 288.316C289.346 288.449 289.245 288.493 289.119 288.427C288.993 288.36 288.892 288.205 288.892 288.093C288.892 287.96 288.993 287.916 289.119 287.982ZM288.488 287.649C288.488 287.649 288.715 287.871 288.715 287.982C288.715 288.116 288.614 288.16 288.488 288.093C288.362 288.027 288.261 287.871 288.261 287.76C288.261 287.649 288.362 287.582 288.488 287.649ZM287.832 287.316C287.832 287.316 288.059 287.538 288.059 287.649C288.059 287.76 287.958 287.827 287.832 287.76C287.706 287.693 287.605 287.538 287.605 287.427C287.605 287.294 287.706 287.249 287.832 287.316ZM287.201 287.005C287.201 287.005 287.429 287.227 287.429 287.338C287.429 287.449 287.328 287.516 287.201 287.449C287.075 287.382 286.974 287.227 286.974 287.116C286.974 286.982 287.075 286.938 287.201 287.005ZM286.571 286.671C286.571 286.671 286.798 286.894 286.798 287.005C286.798 287.138 286.697 287.182 286.571 287.116C286.444 287.049 286.343 286.894 286.343 286.782C286.343 286.671 286.444 286.605 286.571 286.671ZM285.915 286.338C285.915 286.338 286.142 286.56 286.142 286.671C286.142 286.782 286.041 286.849 285.915 286.782C285.788 286.716 285.688 286.56 285.688 286.449C285.688 286.338 285.788 286.271 285.915 286.338ZM292.954 290.582C292.954 290.582 293.181 290.804 293.181 290.915C293.181 291.049 293.08 291.093 292.954 291.026C292.828 290.96 292.727 290.804 292.727 290.693C292.727 290.56 292.828 290.515 292.954 290.582ZM292.323 290.249C292.323 290.249 292.551 290.471 292.551 290.582C292.551 290.693 292.45 290.76 292.323 290.693C292.197 290.626 292.096 290.471 292.096 290.36C292.096 290.249 292.197 290.182 292.323 290.249ZM291.693 289.938C291.693 289.938 291.92 290.16 291.92 290.271C291.92 290.382 291.819 290.449 291.693 290.382C291.566 290.315 291.466 290.16 291.466 290.049C291.466 289.915 291.566 289.871 291.693 289.938ZM291.037 289.604C291.037 289.604 291.264 289.827 291.264 289.938C291.264 290.071 291.163 290.115 291.037 290.049C290.911 289.982 290.81 289.827 290.81 289.715C290.81 289.604 290.911 289.538 291.037 289.604ZM290.406 289.271C290.406 289.271 290.633 289.493 290.633 289.604C290.633 289.738 290.532 289.782 290.406 289.715C290.28 289.649 290.179 289.493 290.179 289.382C290.179 289.249 290.28 289.204 290.406 289.271ZM289.75 288.96C289.75 288.96 289.977 289.182 289.977 289.293C289.977 289.427 289.876 289.471 289.75 289.404C289.624 289.338 289.523 289.182 289.523 289.071C289.523 288.938 289.624 288.893 289.75 288.96ZM289.119 288.627C289.119 288.627 289.346 288.849 289.346 288.96C289.346 289.093 289.245 289.138 289.119 289.071C288.993 289.004 288.892 288.849 288.892 288.738C288.892 288.627 288.993 288.56 289.119 288.627ZM288.488 288.293C288.488 288.293 288.715 288.516 288.715 288.627C288.715 288.76 288.614 288.804 288.488 288.738C288.362 288.671 288.261 288.516 288.261 288.404C288.261 288.293 288.362 288.227 288.488 288.293ZM287.832 287.982C287.832 287.982 288.059 288.205 288.059 288.316C288.059 288.427 287.958 288.493 287.832 288.427C287.706 288.36 287.605 288.205 287.605 288.093C287.605 287.982 287.706 287.916 287.832 287.982ZM287.201 287.649C287.201 287.649 287.429 287.871 287.429 287.982C287.429 288.116 287.328 288.16 287.201 288.093C287.075 288.027 286.974 287.871 286.974 287.76C286.974 287.627 287.075 287.582 287.201 287.649ZM286.571 287.316C286.571 287.316 286.798 287.538 286.798 287.649C286.798 287.76 286.697 287.827 286.571 287.76C286.444 287.693 286.343 287.538 286.343 287.427C286.343 287.294 286.444 287.249 286.571 287.316ZM285.915 287.005C285.915 287.005 286.142 287.227 286.142 287.338C286.142 287.449 286.041 287.516 285.915 287.449C285.788 287.382 285.688 287.227 285.688 287.116C285.688 286.982 285.788 286.938 285.915 287.005ZM292.954 291.226C292.954 291.226 293.181 291.449 293.181 291.56C293.181 291.693 293.08 291.737 292.954 291.671C292.828 291.604 292.727 291.449 292.727 291.337C292.727 291.204 292.828 291.16 292.954 291.226ZM292.323 290.915C292.323 290.915 292.551 291.137 292.551 291.249C292.551 291.382 292.45 291.426 292.323 291.36C292.197 291.293 292.096 291.137 292.096 291.026C292.096 290.893 292.197 290.849 292.323 290.915ZM291.693 290.582C291.693 290.582 291.92 290.804 291.92 290.915C291.92 291.049 291.819 291.093 291.693 291.026C291.566 290.96 291.466 290.804 291.466 290.693C291.466 290.582 291.566 290.515 291.693 290.582ZM291.037 290.249C291.037 290.249 291.264 290.471 291.264 290.582C291.264 290.693 291.163 290.76 291.037 290.693C290.911 290.626 290.81 290.471 290.81 290.36C290.81 290.227 290.911 290.182 291.037 290.249ZM290.406 289.938C290.406 289.938 290.633 290.16 290.633 290.271C290.633 290.404 290.532 290.449 290.406 290.382C290.28 290.315 290.179 290.16 290.179 290.049C290.179 289.915 290.28 289.871 290.406 289.938ZM289.75 289.604C289.75 289.604 289.977 289.827 289.977 289.938C289.977 290.049 289.876 290.115 289.75 290.049C289.624 289.982 289.523 289.827 289.523 289.715C289.523 289.604 289.624 289.538 289.75 289.604ZM289.119 289.271C289.119 289.271 289.346 289.493 289.346 289.604C289.346 289.715 289.245 289.782 289.119 289.715C288.993 289.649 288.892 289.493 288.892 289.382C288.892 289.271 288.993 289.204 289.119 289.271ZM288.488 288.96C288.488 288.96 288.715 289.182 288.715 289.293C288.715 289.427 288.614 289.471 288.488 289.404C288.362 289.338 288.261 289.182 288.261 289.071C288.261 288.938 288.362 288.893 288.488 288.96ZM287.832 288.627C287.832 288.627 288.059 288.849 288.059 288.96C288.059 289.071 287.958 289.138 287.832 289.071C287.706 289.004 287.605 288.849 287.605 288.738C287.605 288.604 287.706 288.56 287.832 288.627ZM287.201 288.293C287.201 288.293 287.429 288.516 287.429 288.627C287.429 288.76 287.328 288.804 287.201 288.738C287.075 288.671 286.974 288.516 286.974 288.404C286.974 288.271 287.075 288.227 287.201 288.293ZM286.571 287.982C286.571 287.982 286.798 288.205 286.798 288.316C286.798 288.427 286.697 288.493 286.571 288.427C286.444 288.36 286.343 288.205 286.343 288.093C286.343 287.96 286.444 287.916 286.571 287.982ZM285.915 287.649C285.915 287.649 286.142 287.871 286.142 287.982C286.142 288.116 286.041 288.16 285.915 288.093C285.788 288.027 285.688 287.871 285.688 287.76C285.688 287.627 285.788 287.582 285.915 287.649ZM292.954 291.893C292.954 291.893 293.181 292.115 293.181 292.226C293.181 292.337 293.08 292.404 292.954 292.337C292.828 292.271 292.727 292.115 292.727 292.004C292.727 291.871 292.828 291.826 292.954 291.893ZM292.323 291.56C292.323 291.56 292.551 291.782 292.551 291.893C292.551 292.004 292.45 292.071 292.323 292.004C292.197 291.937 292.096 291.782 292.096 291.671C292.096 291.537 292.197 291.493 292.323 291.56ZM291.693 291.226C291.693 291.226 291.92 291.449 291.92 291.56C291.92 291.671 291.819 291.737 291.693 291.671C291.566 291.604 291.466 291.449 291.466 291.337C291.466 291.226 291.566 291.16 291.693 291.226ZM291.037 290.915C291.037 290.915 291.264 291.137 291.264 291.249C291.264 291.382 291.163 291.426 291.037 291.36C290.911 291.293 290.81 291.137 290.81 291.026C290.81 290.915 290.911 290.849 291.037 290.915ZM290.406 290.582C290.406 290.582 290.633 290.804 290.633 290.915C290.633 291.049 290.532 291.093 290.406 291.026C290.28 290.96 290.179 290.804 290.179 290.693C290.179 290.56 290.28 290.515 290.406 290.582ZM289.75 290.249C289.75 290.249 289.977 290.471 289.977 290.582C289.977 290.715 289.876 290.76 289.75 290.693C289.624 290.626 289.523 290.471 289.523 290.36C289.523 290.227 289.624 290.182 289.75 290.249ZM289.119 289.938C289.119 289.938 289.346 290.16 289.346 290.271C289.346 290.404 289.245 290.449 289.119 290.382C288.993 290.315 288.892 290.16 288.892 290.049C288.892 289.915 288.993 289.871 289.119 289.938ZM288.488 289.604C288.488 289.604 288.715 289.827 288.715 289.938C288.715 290.049 288.614 290.115 288.488 290.049C288.362 289.982 288.261 289.827 288.261 289.715C288.261 289.582 288.362 289.538 288.488 289.604ZM287.832 289.271C287.832 289.271 288.059 289.493 288.059 289.604C288.059 289.738 287.958 289.782 287.832 289.715C287.706 289.649 287.605 289.493 287.605 289.382C287.605 289.249 287.706 289.204 287.832 289.271ZM287.201 288.96C287.201 288.96 287.429 289.182 287.429 289.293C287.429 289.404 287.328 289.471 287.201 289.404C287.075 289.338 286.974 289.182 286.974 289.071C286.974 288.96 287.075 288.893 287.201 288.96ZM286.571 288.627C286.571 288.627 286.798 288.849 286.798 288.96C286.798 289.093 286.697 289.138 286.571 289.071C286.444 289.004 286.343 288.849 286.343 288.738C286.343 288.627 286.444 288.56 286.571 288.627ZM285.915 288.293C285.915 288.293 286.142 288.516 286.142 288.627C286.142 288.738 286.041 288.804 285.915 288.738C285.788 288.671 285.688 288.516 285.688 288.404C285.688 288.293 285.788 288.227 285.915 288.293ZM292.954 292.537C292.954 292.537 293.181 292.76 293.181 292.871C293.181 292.982 293.08 293.048 292.954 292.982C292.828 292.915 292.727 292.76 292.727 292.648C292.727 292.537 292.828 292.471 292.954 292.537ZM292.323 292.204C292.323 292.204 292.551 292.426 292.551 292.537C292.551 292.648 292.45 292.715 292.323 292.648C292.197 292.582 292.096 292.426 292.096 292.315C292.096 292.182 292.197 292.137 292.323 292.204ZM291.693 291.893C291.693 291.893 291.92 292.115 291.92 292.226C291.92 292.36 291.819 292.404 291.693 292.337C291.566 292.271 291.466 292.115 291.466 292.004C291.466 291.871 291.566 291.826 291.693 291.893ZM291.037 291.56C291.037 291.56 291.264 291.782 291.264 291.893C291.264 292.026 291.163 292.071 291.037 292.004C290.911 291.937 290.81 291.782 290.81 291.671C290.81 291.56 290.911 291.493 291.037 291.56ZM290.406 291.226C290.406 291.226 290.633 291.449 290.633 291.56C290.633 291.671 290.532 291.737 290.406 291.671C290.28 291.604 290.179 291.449 290.179 291.337C290.179 291.226 290.28 291.16 290.406 291.226ZM289.75 290.915C289.75 290.915 289.977 291.137 289.977 291.249C289.977 291.382 289.876 291.426 289.75 291.36C289.624 291.293 289.523 291.137 289.523 291.026C289.523 290.893 289.624 290.849 289.75 290.915ZM289.119 290.582C289.119 290.582 289.346 290.804 289.346 290.915C289.346 291.049 289.245 291.093 289.119 291.026C288.993 290.96 288.892 290.804 288.892 290.693C288.892 290.56 288.993 290.515 289.119 290.582ZM288.488 290.249C288.488 290.249 288.715 290.471 288.715 290.582C288.715 290.693 288.614 290.76 288.488 290.693C288.362 290.626 288.261 290.471 288.261 290.36C288.261 290.249 288.362 290.182 288.488 290.249ZM287.832 289.938C287.832 289.938 288.059 290.16 288.059 290.271C288.059 290.404 287.958 290.449 287.832 290.382C287.706 290.315 287.605 290.16 287.605 290.049C287.605 289.938 287.706 289.871 287.832 289.938ZM287.201 289.604C287.201 289.604 287.429 289.827 287.429 289.938C287.429 290.049 287.328 290.115 287.201 290.049C287.075 289.982 286.974 289.827 286.974 289.715C286.974 289.604 287.075 289.538 287.201 289.604ZM286.571 289.271C286.571 289.271 286.798 289.493 286.798 289.604C286.798 289.738 286.697 289.782 286.571 289.715C286.444 289.649 286.343 289.493 286.343 289.382C286.343 289.271 286.444 289.204 286.571 289.271ZM285.915 288.96C285.915 288.96 286.142 289.182 286.142 289.293C286.142 289.404 286.041 289.471 285.915 289.404C285.788 289.338 285.688 289.182 285.688 289.071C285.688 288.938 285.788 288.893 285.915 288.96ZM292.954 293.182C292.954 293.182 293.181 293.404 293.181 293.515C293.181 293.648 293.08 293.693 292.954 293.626C292.828 293.559 292.727 293.404 292.727 293.293C292.727 293.159 292.828 293.115 292.954 293.182ZM292.323 292.871C292.323 292.871 292.551 293.093 292.551 293.204C292.551 293.337 292.45 293.382 292.323 293.315C292.197 293.248 292.096 293.093 292.096 292.982C292.096 292.871 292.197 292.804 292.323 292.871ZM291.693 292.537C291.693 292.537 291.92 292.76 291.92 292.871C291.92 292.982 291.819 293.048 291.693 292.982C291.566 292.915 291.466 292.76 291.466 292.648C291.466 292.537 291.566 292.471 291.693 292.537ZM291.037 292.204C291.037 292.204 291.264 292.426 291.264 292.537C291.264 292.671 291.163 292.715 291.037 292.648C290.911 292.582 290.81 292.426 290.81 292.315C290.81 292.182 290.911 292.137 291.037 292.204ZM290.406 291.893C290.406 291.893 290.633 292.115 290.633 292.226C290.633 292.337 290.532 292.404 290.406 292.337C290.28 292.271 290.179 292.115 290.179 292.004C290.179 291.871 290.28 291.826 290.406 291.893ZM289.75 291.56C289.75 291.56 289.977 291.782 289.977 291.893C289.977 292.004 289.876 292.071 289.75 292.004C289.624 291.937 289.523 291.782 289.523 291.671C289.523 291.537 289.624 291.493 289.75 291.56ZM289.119 291.226C289.119 291.226 289.346 291.449 289.346 291.56C289.346 291.693 289.245 291.737 289.119 291.671C288.993 291.604 288.892 291.449 288.892 291.337C288.892 291.204 288.993 291.16 289.119 291.226ZM288.488 290.915C288.488 290.915 288.715 291.137 288.715 291.249C288.715 291.382 288.614 291.426 288.488 291.36C288.362 291.293 288.261 291.137 288.261 291.026C288.261 290.915 288.362 290.849 288.488 290.915ZM287.832 290.582C287.832 290.582 288.059 290.804 288.059 290.915C288.059 291.049 287.958 291.093 287.832 291.026C287.706 290.96 287.605 290.804 287.605 290.693C287.605 290.56 287.706 290.515 287.832 290.582ZM287.201 290.249C287.201 290.249 287.429 290.471 287.429 290.582C287.429 290.715 287.328 290.76 287.201 290.693C287.075 290.626 286.974 290.471 286.974 290.36C286.974 290.227 287.075 290.182 287.201 290.249ZM286.571 289.938C286.571 289.938 286.798 290.16 286.798 290.271C286.798 290.404 286.697 290.449 286.571 290.382C286.444 290.315 286.343 290.16 286.343 290.049C286.343 289.915 286.444 289.871 286.571 289.938ZM285.915 289.604C285.915 289.604 286.142 289.827 286.142 289.938C286.142 290.071 286.041 290.115 285.915 290.049C285.788 289.982 285.688 289.827 285.688 289.715C285.688 289.582 285.788 289.538 285.915 289.604ZM292.954 293.826C292.954 293.826 293.181 294.048 293.181 294.159C293.181 294.293 293.08 294.337 292.954 294.27C292.828 294.204 292.727 294.048 292.727 293.937C292.727 293.804 292.828 293.759 292.954 293.826ZM292.323 293.515C292.323 293.515 292.551 293.737 292.551 293.848C292.551 293.982 292.45 294.026 292.323 293.959C292.197 293.893 292.096 293.737 292.096 293.626C292.096 293.515 292.197 293.448 292.323 293.515ZM291.693 293.182C291.693 293.182 291.92 293.404 291.92 293.515C291.92 293.626 291.819 293.693 291.693 293.626C291.566 293.559 291.466 293.404 291.466 293.293C291.466 293.182 291.566 293.115 291.693 293.182ZM291.037 292.871C291.037 292.871 291.264 293.093 291.264 293.204C291.264 293.315 291.163 293.382 291.037 293.315C290.911 293.248 290.81 293.093 290.81 292.982C290.81 292.848 290.911 292.804 291.037 292.871ZM290.406 292.537C290.406 292.537 290.633 292.76 290.633 292.871C290.633 293.004 290.532 293.048 290.406 292.982C290.28 292.915 290.179 292.76 290.179 292.648C290.179 292.515 290.28 292.471 290.406 292.537ZM289.75 292.204C289.75 292.204 289.977 292.426 289.977 292.537C289.977 292.671 289.876 292.715 289.75 292.648C289.624 292.582 289.523 292.426 289.523 292.315C289.523 292.182 289.624 292.137 289.75 292.204ZM289.119 291.893C289.119 291.893 289.346 292.115 289.346 292.226C289.346 292.36 289.245 292.404 289.119 292.337C288.993 292.271 288.892 292.115 288.892 292.004C288.892 291.893 288.993 291.826 289.119 291.893ZM288.488 291.56C288.488 291.56 288.715 291.782 288.715 291.893C288.715 292.026 288.614 292.071 288.488 292.004C288.362 291.937 288.261 291.782 288.261 291.671C288.261 291.537 288.362 291.493 288.488 291.56ZM287.832 291.226C287.832 291.226 288.059 291.449 288.059 291.56C288.059 291.693 287.958 291.737 287.832 291.671C287.706 291.604 287.605 291.449 287.605 291.337C287.605 291.204 287.706 291.16 287.832 291.226ZM287.201 290.915C287.201 290.915 287.429 291.137 287.429 291.249C287.429 291.36 287.328 291.426 287.201 291.36C287.075 291.293 286.974 291.137 286.974 291.026C286.974 290.915 287.075 290.849 287.201 290.915ZM286.571 290.582C286.571 290.582 286.798 290.804 286.798 290.915C286.798 291.026 286.697 291.093 286.571 291.026C286.444 290.96 286.343 290.804 286.343 290.693C286.343 290.56 286.444 290.515 286.571 290.582ZM285.915 290.249C285.915 290.249 286.142 290.471 286.142 290.582C286.142 290.693 286.041 290.76 285.915 290.693C285.788 290.626 285.688 290.471 285.688 290.36C285.688 290.249 285.788 290.182 285.915 290.249ZM292.954 294.493C292.954 294.493 293.181 294.715 293.181 294.826C293.181 294.937 293.08 295.004 292.954 294.937C292.828 294.87 292.727 294.715 292.727 294.604C292.727 294.493 292.828 294.426 292.954 294.493ZM292.323 294.159C292.323 294.159 292.551 294.382 292.551 294.493C292.551 294.626 292.45 294.67 292.323 294.604C292.197 294.537 292.096 294.382 292.096 294.27C292.096 294.137 292.197 294.093 292.323 294.159ZM291.693 293.826C291.693 293.826 291.92 294.048 291.92 294.159C291.92 294.293 291.819 294.337 291.693 294.27C291.566 294.204 291.466 294.048 291.466 293.937C291.466 293.804 291.566 293.759 291.693 293.826ZM291.037 293.515C291.037 293.515 291.264 293.737 291.264 293.848C291.264 293.959 291.163 294.026 291.037 293.959C290.911 293.893 290.81 293.737 290.81 293.626C290.81 293.493 290.911 293.448 291.037 293.515ZM290.406 293.182C290.406 293.182 290.633 293.404 290.633 293.515C290.633 293.648 290.532 293.693 290.406 293.626C290.28 293.559 290.179 293.404 290.179 293.293C290.179 293.159 290.28 293.115 290.406 293.182ZM289.75 292.871C289.75 292.871 289.977 293.093 289.977 293.204C289.977 293.337 289.876 293.382 289.75 293.315C289.624 293.248 289.523 293.093 289.523 292.982C289.523 292.848 289.624 292.804 289.75 292.871ZM289.119 292.537C289.119 292.537 289.346 292.76 289.346 292.871C289.346 292.982 289.245 293.048 289.119 292.982C288.993 292.915 288.892 292.76 288.892 292.648C288.892 292.515 288.993 292.471 289.119 292.537ZM288.488 292.204C288.488 292.204 288.715 292.426 288.715 292.537C288.715 292.648 288.614 292.715 288.488 292.648C288.362 292.582 288.261 292.426 288.261 292.315C288.261 292.182 288.362 292.137 288.488 292.204ZM287.832 291.893C287.832 291.893 288.059 292.115 288.059 292.226C288.059 292.337 287.958 292.404 287.832 292.337C287.706 292.271 287.605 292.115 287.605 292.004C287.605 291.871 287.706 291.826 287.832 291.893ZM287.201 291.56C287.201 291.56 287.429 291.782 287.429 291.893C287.429 292.004 287.328 292.071 287.201 292.004C287.075 291.937 286.974 291.782 286.974 291.671C286.974 291.537 287.075 291.493 287.201 291.56ZM286.571 291.226C286.571 291.226 286.798 291.449 286.798 291.56C286.798 291.671 286.697 291.737 286.571 291.671C286.444 291.604 286.343 291.449 286.343 291.337C286.343 291.204 286.444 291.16 286.571 291.226ZM285.915 290.915C285.915 290.915 286.142 291.137 286.142 291.249C286.142 291.382 286.041 291.426 285.915 291.36C285.788 291.293 285.688 291.137 285.688 291.026C285.688 290.893 285.788 290.849 285.915 290.915ZM292.954 295.137C292.954 295.137 293.181 295.359 293.181 295.47C293.181 295.581 293.08 295.648 292.954 295.581C292.828 295.515 292.727 295.359 292.727 295.248C292.727 295.115 292.828 295.07 292.954 295.137ZM292.323 294.804C292.323 294.804 292.551 295.026 292.551 295.137C292.551 295.27 292.45 295.315 292.323 295.248C292.197 295.181 292.096 295.026 292.096 294.915C292.096 294.781 292.197 294.737 292.323 294.804ZM291.693 294.493C291.693 294.493 291.92 294.715 291.92 294.826C291.92 294.959 291.819 295.004 291.693 294.937C291.566 294.87 291.466 294.715 291.466 294.604C291.466 294.47 291.566 294.426 291.693 294.493ZM291.037 294.159C291.037 294.159 291.264 294.382 291.264 294.493C291.264 294.626 291.163 294.67 291.037 294.604C290.911 294.537 290.81 294.382 290.81 294.27C290.81 294.159 290.911 294.093 291.037 294.159ZM290.406 293.826C290.406 293.826 290.633 294.048 290.633 294.159C290.633 294.27 290.532 294.337 290.406 294.27C290.28 294.204 290.179 294.048 290.179 293.937C290.179 293.826 290.28 293.759 290.406 293.826ZM289.75 293.515C289.75 293.515 289.977 293.737 289.977 293.848C289.977 293.959 289.876 294.026 289.75 293.959C289.624 293.893 289.523 293.737 289.523 293.626C289.523 293.493 289.624 293.448 289.75 293.515ZM289.119 293.182C289.119 293.182 289.346 293.404 289.346 293.515C289.346 293.648 289.245 293.693 289.119 293.626C288.993 293.559 288.892 293.404 288.892 293.293C288.892 293.159 288.993 293.115 289.119 293.182ZM288.488 292.871C288.488 292.871 288.715 293.093 288.715 293.204C288.715 293.315 288.614 293.382 288.488 293.315C288.362 293.248 288.261 293.093 288.261 292.982C288.261 292.848 288.362 292.804 288.488 292.871ZM287.832 292.537C287.832 292.537 288.059 292.76 288.059 292.871C288.059 293.004 287.958 293.048 287.832 292.982C287.706 292.915 287.605 292.76 287.605 292.648C287.605 292.515 287.706 292.471 287.832 292.537ZM287.201 292.204C287.201 292.204 287.429 292.426 287.429 292.537C287.429 292.671 287.328 292.715 287.201 292.648C287.075 292.582 286.974 292.426 286.974 292.315C286.974 292.204 287.075 292.137 287.201 292.204ZM286.571 291.893C286.571 291.893 286.798 292.115 286.798 292.226C286.798 292.36 286.697 292.404 286.571 292.337C286.444 292.271 286.343 292.115 286.343 292.004C286.343 291.871 286.444 291.826 286.571 291.893ZM285.915 291.56C285.915 291.56 286.142 291.782 286.142 291.893C286.142 292.026 286.041 292.071 285.915 292.004C285.788 291.937 285.688 291.782 285.688 291.671C285.688 291.56 285.788 291.493 285.915 291.56ZM292.954 295.781C292.954 295.781 293.181 296.004 293.181 296.115C293.181 296.248 293.08 296.292 292.954 296.226C292.828 296.159 292.727 296.004 292.727 295.892C292.727 295.759 292.828 295.715 292.954 295.781ZM292.323 295.47C292.323 295.47 292.551 295.692 292.551 295.804C292.551 295.937 292.45 295.981 292.323 295.915C292.197 295.848 292.096 295.693 292.096 295.581C292.096 295.47 292.197 295.404 292.323 295.47ZM291.693 295.137C291.693 295.137 291.92 295.359 291.92 295.47C291.92 295.581 291.819 295.648 291.693 295.581C291.566 295.515 291.466 295.359 291.466 295.248C291.466 295.137 291.566 295.07 291.693 295.137ZM291.037 294.804C291.037 294.804 291.264 295.026 291.264 295.137C291.264 295.248 291.163 295.315 291.037 295.248C290.911 295.181 290.81 295.026 290.81 294.915C290.81 294.804 290.911 294.737 291.037 294.804ZM290.406 294.493C290.406 294.493 290.633 294.715 290.633 294.826C290.633 294.937 290.532 295.004 290.406 294.937C290.28 294.87 290.179 294.715 290.179 294.604C290.179 294.493 290.28 294.426 290.406 294.493ZM289.75 294.159C289.75 294.159 289.977 294.382 289.977 294.493C289.977 294.604 289.876 294.67 289.75 294.604C289.624 294.537 289.523 294.382 289.523 294.27C289.523 294.137 289.624 294.093 289.75 294.159ZM289.119 293.826C289.119 293.826 289.346 294.048 289.346 294.159C289.346 294.293 289.245 294.337 289.119 294.27C288.993 294.204 288.892 294.048 288.892 293.937C288.892 293.804 288.993 293.759 289.119 293.826ZM288.488 293.515C288.488 293.515 288.715 293.737 288.715 293.848C288.715 293.982 288.614 294.026 288.488 293.959C288.362 293.893 288.261 293.737 288.261 293.626C288.261 293.493 288.362 293.448 288.488 293.515ZM287.832 293.182C287.832 293.182 288.059 293.404 288.059 293.515C288.059 293.626 287.958 293.693 287.832 293.626C287.706 293.559 287.605 293.404 287.605 293.293C287.605 293.182 287.706 293.115 287.832 293.182ZM287.201 292.871C287.201 292.871 287.429 293.093 287.429 293.204C287.429 293.315 287.328 293.382 287.201 293.315C287.075 293.248 286.974 293.093 286.974 292.982C286.974 292.871 287.075 292.804 287.201 292.871ZM286.571 292.537C286.571 292.537 286.798 292.76 286.798 292.871C286.798 292.982 286.697 293.048 286.571 292.982C286.444 292.915 286.343 292.76 286.343 292.648C286.343 292.537 286.444 292.471 286.571 292.537ZM285.915 292.204C285.915 292.204 286.142 292.426 286.142 292.537C286.142 292.648 286.041 292.715 285.915 292.648C285.788 292.582 285.688 292.426 285.688 292.315C285.688 292.204 285.788 292.137 285.915 292.204ZM292.954 296.448C292.954 296.448 293.181 296.67 293.181 296.781C293.181 296.915 293.08 296.959 292.954 296.892C292.828 296.826 292.727 296.67 292.727 296.559C292.727 296.426 292.828 296.381 292.954 296.448ZM292.323 296.115C292.323 296.115 292.551 296.337 292.551 296.448C292.551 296.581 292.45 296.626 292.323 296.559C292.197 296.492 292.096 296.337 292.096 296.226C292.096 296.115 292.197 296.048 292.323 296.115ZM291.693 295.781C291.693 295.781 291.92 296.004 291.92 296.115C291.92 296.226 291.819 296.292 291.693 296.226C291.566 296.159 291.466 296.004 291.466 295.892C291.466 295.781 291.566 295.715 291.693 295.781ZM291.037 295.47C291.037 295.47 291.264 295.692 291.264 295.804C291.264 295.915 291.163 295.981 291.037 295.915C290.911 295.848 290.81 295.693 290.81 295.581C290.81 295.448 290.911 295.404 291.037 295.47ZM290.406 295.137C290.406 295.137 290.633 295.359 290.633 295.47C290.633 295.604 290.532 295.648 290.406 295.581C290.28 295.515 290.179 295.359 290.179 295.248C290.179 295.115 290.28 295.07 290.406 295.137ZM289.75 294.804C289.75 294.804 289.977 295.026 289.977 295.137C289.977 295.27 289.876 295.315 289.75 295.248C289.624 295.181 289.523 295.026 289.523 294.915C289.523 294.804 289.624 294.737 289.75 294.804ZM289.119 294.493C289.119 294.493 289.346 294.715 289.346 294.826C289.346 294.937 289.245 295.004 289.119 294.937C288.993 294.87 288.892 294.715 288.892 294.604C288.892 294.493 288.993 294.426 289.119 294.493ZM288.488 294.159C288.488 294.159 288.715 294.382 288.715 294.493C288.715 294.604 288.614 294.67 288.488 294.604C288.362 294.537 288.261 294.382 288.261 294.27C288.261 294.159 288.362 294.093 288.488 294.159ZM287.832 293.826C287.832 293.826 288.059 294.048 288.059 294.159C288.059 294.27 287.958 294.337 287.832 294.27C287.706 294.204 287.605 294.048 287.605 293.937C287.605 293.826 287.706 293.759 287.832 293.826ZM287.201 293.515C287.201 293.515 287.429 293.737 287.429 293.848C287.429 293.982 287.328 294.026 287.201 293.959C287.075 293.893 286.974 293.737 286.974 293.626C286.974 293.493 287.075 293.448 287.201 293.515ZM286.571 293.182C286.571 293.182 286.798 293.404 286.798 293.515C286.798 293.626 286.697 293.693 286.571 293.626C286.444 293.559 286.343 293.404 286.343 293.293C286.343 293.159 286.444 293.115 286.571 293.182ZM286.142 293.204C286.142 293.337 286.041 293.382 285.915 293.315C285.788 293.248 285.688 293.093 285.688 292.982C285.688 292.848 285.788 292.804 285.915 292.871C286.041 292.937 286.142 293.093 286.142 293.204Z" fill="#BBD2E9"/>
<path fill-rule="evenodd" clip-rule="evenodd" d="M284.204 284.828C284.204 284.828 284.431 285.05 284.431 285.161C284.431 285.272 284.33 285.339 284.204 285.272C284.078 285.205 283.977 285.05 283.977 284.939C283.977 284.828 284.078 284.761 284.204 284.828ZM283.573 284.494C283.573 284.494 283.801 284.717 283.801 284.828C283.801 284.939 283.7 285.005 283.573 284.939C283.447 284.872 283.346 284.717 283.346 284.606C283.346 284.472 283.447 284.428 283.573 284.494ZM282.943 284.183C282.943 284.183 283.17 284.406 283.17 284.517C283.17 284.65 283.069 284.694 282.943 284.628C282.816 284.561 282.716 284.406 282.716 284.294C282.716 284.161 282.816 284.117 282.943 284.183ZM282.287 283.85C282.287 283.85 282.514 284.072 282.514 284.183C282.514 284.317 282.413 284.361 282.287 284.294C282.161 284.228 282.06 284.072 282.06 283.961C282.06 283.828 282.161 283.783 282.287 283.85ZM281.656 283.517C281.656 283.517 281.883 283.739 281.883 283.85C281.883 283.961 281.782 284.028 281.656 283.961C281.53 283.894 281.429 283.739 281.429 283.628C281.429 283.495 281.53 283.45 281.656 283.517ZM281.025 283.206C281.025 283.206 281.252 283.428 281.252 283.539C281.252 283.672 281.151 283.717 281.025 283.65C280.899 283.583 280.798 283.428 280.798 283.317C280.798 283.183 280.899 283.139 281.025 283.206ZM280.369 282.872C280.369 282.872 280.596 283.095 280.596 283.206C280.596 283.339 280.495 283.383 280.369 283.317C280.243 283.25 280.142 283.095 280.142 282.983C280.142 282.872 280.243 282.806 280.369 282.872ZM279.738 282.539C279.738 282.539 279.965 282.761 279.965 282.872C279.965 282.983 279.864 283.05 279.738 282.983C279.612 282.917 279.511 282.761 279.511 282.65C279.511 282.517 279.612 282.472 279.738 282.539ZM279.082 282.228C279.082 282.228 279.309 282.45 279.309 282.561C279.309 282.672 279.208 282.739 279.082 282.672C278.956 282.606 278.855 282.45 278.855 282.339C278.855 282.228 278.956 282.161 279.082 282.228ZM278.451 281.895C278.451 281.895 278.679 282.117 278.679 282.228C278.679 282.339 278.578 282.406 278.451 282.339C278.325 282.272 278.224 282.117 278.224 282.006C278.224 281.895 278.325 281.828 278.451 281.895ZM277.821 281.561C277.821 281.561 278.048 281.784 278.048 281.895C278.048 282.006 277.947 282.072 277.821 282.006C277.694 281.939 277.593 281.784 277.593 281.673C277.593 281.561 277.694 281.495 277.821 281.561ZM277.165 281.25C277.165 281.25 277.392 281.473 277.392 281.584C277.392 281.717 277.291 281.761 277.165 281.695C277.038 281.628 276.938 281.473 276.938 281.361C276.938 281.228 277.038 281.184 277.165 281.25ZM284.204 285.472C284.204 285.472 284.431 285.694 284.431 285.805C284.431 285.939 284.33 285.983 284.204 285.916C284.078 285.85 283.977 285.694 283.977 285.583C283.977 285.472 284.078 285.405 284.204 285.472ZM283.573 285.161C283.573 285.161 283.801 285.383 283.801 285.494C283.801 285.605 283.7 285.672 283.573 285.605C283.447 285.539 283.346 285.383 283.346 285.272C283.346 285.139 283.447 285.094 283.573 285.161ZM282.943 284.828C282.943 284.828 283.17 285.05 283.17 285.161C283.17 285.294 283.069 285.339 282.943 285.272C282.816 285.205 282.716 285.05 282.716 284.939C282.716 284.805 282.816 284.761 282.943 284.828ZM282.287 284.494C282.287 284.494 282.514 284.717 282.514 284.828C282.514 284.961 282.413 285.005 282.287 284.939C282.161 284.872 282.06 284.717 282.06 284.606C282.06 284.494 282.161 284.428 282.287 284.494ZM281.656 284.183C281.656 284.183 281.883 284.406 281.883 284.517C281.883 284.65 281.782 284.694 281.656 284.628C281.53 284.561 281.429 284.406 281.429 284.294C281.429 284.183 281.53 284.117 281.656 284.183ZM281.025 283.85C281.025 283.85 281.252 284.072 281.252 284.183C281.252 284.317 281.151 284.361 281.025 284.294C280.899 284.228 280.798 284.072 280.798 283.961C280.798 283.85 280.899 283.783 281.025 283.85ZM280.369 283.517C280.369 283.517 280.596 283.739 280.596 283.85C280.596 283.961 280.495 284.028 280.369 283.961C280.243 283.894 280.142 283.739 280.142 283.628C280.142 283.517 280.243 283.45 280.369 283.517ZM279.738 283.206C279.738 283.206 279.965 283.428 279.965 283.539C279.965 283.65 279.864 283.717 279.738 283.65C279.612 283.583 279.511 283.428 279.511 283.317C279.511 283.206 279.612 283.139 279.738 283.206ZM279.082 282.872C279.082 282.872 279.309 283.095 279.309 283.206C279.309 283.317 279.208 283.383 279.082 283.317C278.956 283.25 278.855 283.095 278.855 282.983C278.855 282.872 278.956 282.806 279.082 282.872ZM278.451 282.539C278.451 282.539 278.679 282.761 278.679 282.872C278.679 283.006 278.578 283.05 278.451 282.983C278.325 282.917 278.224 282.761 278.224 282.65C278.224 282.517 278.325 282.472 278.451 282.539ZM277.821 282.228C277.821 282.228 278.048 282.45 278.048 282.561C278.048 282.695 277.947 282.739 277.821 282.672C277.694 282.606 277.593 282.45 277.593 282.339C277.593 282.206 277.694 282.161 277.821 282.228ZM277.165 281.895C277.165 281.895 277.392 282.117 277.392 282.228C277.392 282.339 277.291 282.406 277.165 282.339C277.038 282.272 276.938 282.117 276.938 282.006C276.938 281.873 277.038 281.828 277.165 281.895ZM284.204 286.139C284.204 286.139 284.431 286.361 284.431 286.472C284.431 286.605 284.33 286.65 284.204 286.583C284.078 286.516 283.977 286.361 283.977 286.25C283.977 286.116 284.078 286.072 284.204 286.139ZM283.573 285.805C283.573 285.805 283.801 286.028 283.801 286.139C283.801 286.272 283.7 286.316 283.573 286.25C283.447 286.183 283.346 286.028 283.346 285.916C283.346 285.805 283.447 285.739 283.573 285.805ZM282.943 285.472C282.943 285.472 283.17 285.694 283.17 285.805C283.17 285.939 283.069 285.983 282.943 285.916C282.816 285.85 282.716 285.694 282.716 285.583C282.716 285.472 282.816 285.405 282.943 285.472ZM282.287 285.161C282.287 285.161 282.514 285.383 282.514 285.494C282.514 285.605 282.413 285.672 282.287 285.605C282.161 285.539 282.06 285.383 282.06 285.272C282.06 285.161 282.161 285.094 282.287 285.161ZM281.656 284.828C281.656 284.828 281.883 285.05 281.883 285.161C281.883 285.272 281.782 285.339 281.656 285.272C281.53 285.205 281.429 285.05 281.429 284.939C281.429 284.828 281.53 284.761 281.656 284.828ZM281.025 284.494C281.025 284.494 281.252 284.717 281.252 284.828C281.252 284.961 281.151 285.005 281.025 284.939C280.899 284.872 280.798 284.717 280.798 284.606C280.798 284.494 280.899 284.428 281.025 284.494ZM280.369 284.183C280.369 284.183 280.596 284.406 280.596 284.517C280.596 284.628 280.495 284.694 280.369 284.628C280.243 284.561 280.142 284.406 280.142 284.294C280.142 284.161 280.243 284.117 280.369 284.183ZM279.738 283.85C279.738 283.85 279.965 284.072 279.965 284.183C279.965 284.317 279.864 284.361 279.738 284.294C279.612 284.228 279.511 284.072 279.511 283.961C279.511 283.828 279.612 283.783 279.738 283.85ZM279.082 283.517C279.082 283.517 279.309 283.739 279.309 283.85C279.309 283.983 279.208 284.028 279.082 283.961C278.956 283.894 278.855 283.739 278.855 283.628C278.855 283.495 278.956 283.45 279.082 283.517ZM278.451 283.206C278.451 283.206 278.679 283.428 278.679 283.539C278.679 283.672 278.578 283.717 278.451 283.65C278.325 283.583 278.224 283.428 278.224 283.317C278.224 283.206 278.325 283.139 278.451 283.206ZM277.821 282.872C277.821 282.872 278.048 283.095 278.048 283.206C278.048 283.339 277.947 283.383 277.821 283.317C277.694 283.25 277.593 283.095 277.593 282.983C277.593 282.85 277.694 282.806 277.821 282.872ZM277.165 282.539C277.165 282.539 277.392 282.761 277.392 282.872C277.392 282.983 277.291 283.05 277.165 282.983C277.038 282.917 276.938 282.761 276.938 282.65C276.938 282.539 277.038 282.472 277.165 282.539ZM284.204 286.783C284.204 286.783 284.431 287.005 284.431 287.116C284.431 287.227 284.33 287.294 284.204 287.227C284.078 287.161 283.977 287.005 283.977 286.894C283.977 286.761 284.078 286.716 284.204 286.783ZM283.573 286.45C283.573 286.45 283.801 286.672 283.801 286.783C283.801 286.894 283.7 286.961 283.573 286.894C283.447 286.827 283.346 286.672 283.346 286.561C283.346 286.45 283.447 286.383 283.573 286.45ZM282.943 286.139C282.943 286.139 283.17 286.361 283.17 286.472C283.17 286.605 283.069 286.65 282.943 286.583C282.816 286.516 282.716 286.361 282.716 286.25C282.716 286.116 282.816 286.072 282.943 286.139ZM282.287 285.805C282.287 285.805 282.514 286.028 282.514 286.139C282.514 286.272 282.413 286.316 282.287 286.25C282.161 286.183 282.06 286.028 282.06 285.916C282.06 285.783 282.161 285.739 282.287 285.805ZM281.656 285.472C281.656 285.472 281.883 285.694 281.883 285.805C281.883 285.916 281.782 285.983 281.656 285.916C281.53 285.85 281.429 285.694 281.429 285.583C281.429 285.45 281.53 285.405 281.656 285.472ZM281.025 285.161C281.025 285.161 281.252 285.383 281.252 285.494C281.252 285.628 281.151 285.672 281.025 285.605C280.899 285.539 280.798 285.383 280.798 285.272C280.798 285.139 280.899 285.094 281.025 285.161ZM280.369 284.828C280.369 284.828 280.596 285.05 280.596 285.161C280.596 285.272 280.495 285.339 280.369 285.272C280.243 285.205 280.142 285.05 280.142 284.939C280.142 284.828 280.243 284.761 280.369 284.828ZM279.738 284.494C279.738 284.494 279.965 284.717 279.965 284.828C279.965 284.961 279.864 285.005 279.738 284.939C279.612 284.872 279.511 284.717 279.511 284.583C279.511 284.45 279.612 284.406 279.738 284.472V284.494ZM279.082 284.183C279.082 284.183 279.309 284.406 279.309 284.517C279.309 284.65 279.208 284.694 279.082 284.628C278.956 284.561 278.855 284.406 278.855 284.294C278.855 284.183 278.956 284.117 279.082 284.183ZM278.451 283.85C278.451 283.85 278.679 284.072 278.679 284.183C278.679 284.294 278.578 284.361 278.451 284.294C278.325 284.228 278.224 284.072 278.224 283.961C278.224 283.85 278.325 283.783 278.451 283.85ZM277.821 283.517C277.821 283.517 278.048 283.739 278.048 283.85C278.048 283.961 277.947 284.028 277.821 283.961C277.694 283.894 277.593 283.739 277.593 283.628C277.593 283.517 277.694 283.45 277.821 283.517ZM277.165 283.206C277.165 283.206 277.392 283.428 277.392 283.539C277.392 283.65 277.291 283.717 277.165 283.65C277.038 283.583 276.938 283.428 276.938 283.317C276.938 283.183 277.038 283.139 277.165 283.206ZM284.204 287.427C284.204 287.427 284.431 287.65 284.431 287.761C284.431 287.872 284.33 287.938 284.204 287.872C284.078 287.805 283.977 287.65 283.977 287.538C283.977 287.405 284.078 287.361 284.204 287.427ZM283.573 287.116C283.573 287.116 283.801 287.338 283.801 287.45C283.801 287.583 283.7 287.627 283.573 287.561C283.447 287.494 283.346 287.339 283.346 287.227C283.346 287.094 283.447 287.05 283.573 287.116ZM282.943 286.783C282.943 286.783 283.17 287.005 283.17 287.116C283.17 287.25 283.069 287.294 282.943 287.227C282.816 287.161 282.716 287.005 282.716 286.894C282.716 286.761 282.816 286.716 282.943 286.783ZM282.287 286.45C282.287 286.45 282.514 286.672 282.514 286.783C282.514 286.894 282.413 286.961 282.287 286.894C282.161 286.827 282.06 286.672 282.06 286.561C282.06 286.45 282.161 286.383 282.287 286.45ZM281.656 286.139C281.656 286.139 281.883 286.361 281.883 286.472C281.883 286.605 281.782 286.65 281.656 286.583C281.53 286.516 281.429 286.361 281.429 286.25C281.429 286.116 281.53 286.072 281.656 286.139ZM281.025 285.805C281.025 285.805 281.252 286.028 281.252 286.139C281.252 286.25 281.151 286.316 281.025 286.25C280.899 286.183 280.798 286.028 280.798 285.916C280.798 285.805 280.899 285.739 281.025 285.805ZM280.369 285.472C280.369 285.472 280.596 285.694 280.596 285.805C280.596 285.939 280.495 285.983 280.369 285.916C280.243 285.85 280.142 285.694 280.142 285.583C280.142 285.472 280.243 285.405 280.369 285.472ZM279.738 285.161C279.738 285.161 279.965 285.383 279.965 285.494C279.965 285.628 279.864 285.672 279.738 285.605C279.612 285.539 279.511 285.383 279.511 285.272C279.511 285.161 279.612 285.094 279.738 285.161ZM279.082 284.828C279.082 284.828 279.309 285.05 279.309 285.161C279.309 285.294 279.208 285.339 279.082 285.272C278.956 285.205 278.855 285.05 278.855 284.939C278.855 284.828 278.956 284.761 279.082 284.828ZM278.451 284.494C278.451 284.494 278.679 284.717 278.679 284.828C278.679 284.961 278.578 285.005 278.451 284.939C278.325 284.872 278.224 284.717 278.224 284.606C278.224 284.472 278.325 284.428 278.451 284.494ZM277.821 284.183C277.821 284.183 278.048 284.406 278.048 284.517C278.048 284.628 277.947 284.694 277.821 284.628C277.694 284.561 277.593 284.406 277.593 284.294C277.593 284.161 277.694 284.117 277.821 284.183ZM277.165 283.85C277.165 283.85 277.392 284.072 277.392 284.183C277.392 284.317 277.291 284.361 277.165 284.294C277.038 284.228 276.938 284.072 276.938 283.961C276.938 283.828 277.038 283.783 277.165 283.85ZM284.204 288.094C284.204 288.094 284.431 288.316 284.431 288.427C284.431 288.561 284.33 288.605 284.204 288.538C284.078 288.472 283.977 288.316 283.977 288.205C283.977 288.094 284.078 288.027 284.204 288.094ZM283.573 287.761C283.573 287.761 283.801 287.983 283.801 288.094C283.801 288.205 283.7 288.272 283.573 288.205C283.447 288.138 283.346 287.983 283.346 287.872C283.346 287.738 283.447 287.694 283.573 287.761ZM282.943 287.427C282.943 287.427 283.17 287.65 283.17 287.761C283.17 287.872 283.069 287.938 282.943 287.872C282.816 287.805 282.716 287.65 282.716 287.538C282.716 287.427 282.816 287.361 282.943 287.427ZM282.287 287.116C282.287 287.116 282.514 287.338 282.514 287.45C282.514 287.583 282.413 287.627 282.287 287.561C282.161 287.494 282.06 287.339 282.06 287.227C282.06 287.116 282.161 287.05 282.287 287.116ZM281.656 286.783C281.656 286.783 281.883 287.005 281.883 287.116C281.883 287.227 281.782 287.294 281.656 287.227C281.53 287.161 281.429 287.005 281.429 286.894C281.429 286.761 281.53 286.716 281.656 286.783ZM281.025 286.45C281.025 286.45 281.252 286.672 281.252 286.783C281.252 286.894 281.151 286.961 281.025 286.894C280.899 286.827 280.798 286.672 280.798 286.561C280.798 286.427 280.899 286.383 281.025 286.45ZM280.369 286.139C280.369 286.139 280.596 286.361 280.596 286.472C280.596 286.583 280.495 286.65 280.369 286.583C280.243 286.516 280.142 286.361 280.142 286.25C280.142 286.116 280.243 286.072 280.369 286.139ZM279.738 285.805C279.738 285.805 279.965 286.028 279.965 286.139C279.965 286.25 279.864 286.316 279.738 286.25C279.612 286.183 279.511 286.028 279.511 285.916C279.511 285.783 279.612 285.739 279.738 285.805ZM279.082 285.472C279.082 285.472 279.309 285.694 279.309 285.805C279.309 285.939 279.208 285.983 279.082 285.916C278.956 285.85 278.855 285.694 278.855 285.583C278.855 285.472 278.956 285.405 279.082 285.472ZM278.451 285.161C278.451 285.161 278.679 285.383 278.679 285.494C278.679 285.628 278.578 285.672 278.451 285.605C278.325 285.539 278.224 285.383 278.224 285.272C278.224 285.139 278.325 285.094 278.451 285.161ZM277.821 284.828C277.821 284.828 278.048 285.05 278.048 285.161C278.048 285.294 277.947 285.339 277.821 285.272C277.694 285.205 277.593 285.05 277.593 284.939C277.593 284.805 277.694 284.761 277.821 284.828ZM277.165 284.494C277.165 284.494 277.392 284.717 277.392 284.828C277.392 284.939 277.291 285.005 277.165 284.939C277.038 284.872 276.938 284.717 276.938 284.606C276.938 284.494 277.038 284.428 277.165 284.494ZM284.204 288.738C284.204 288.738 284.431 288.961 284.431 289.072C284.431 289.183 284.33 289.249 284.204 289.183C284.078 289.116 283.977 288.961 283.977 288.849C283.977 288.738 284.078 288.672 284.204 288.738ZM283.573 288.405C283.573 288.405 283.801 288.627 283.801 288.738C283.801 288.849 283.7 288.916 283.573 288.849C283.447 288.783 283.346 288.627 283.346 288.516C283.346 288.383 283.447 288.338 283.573 288.405ZM282.943 288.094C282.943 288.094 283.17 288.316 283.17 288.427C283.17 288.538 283.069 288.605 282.943 288.538C282.816 288.472 282.716 288.316 282.716 288.205C282.716 288.072 282.816 288.027 282.943 288.094ZM282.287 287.761C282.287 287.761 282.514 287.983 282.514 288.094C282.514 288.227 282.413 288.272 282.287 288.205C282.161 288.138 282.06 287.983 282.06 287.872C282.06 287.738 282.161 287.694 282.287 287.761ZM281.656 287.427C281.656 287.427 281.883 287.65 281.883 287.761C281.883 287.894 281.782 287.938 281.656 287.872C281.53 287.805 281.429 287.65 281.429 287.538C281.429 287.405 281.53 287.361 281.656 287.427ZM281.025 287.116C281.025 287.116 281.252 287.338 281.252 287.45C281.252 287.583 281.151 287.627 281.025 287.561C280.899 287.494 280.798 287.339 280.798 287.227C280.798 287.116 280.899 287.05 281.025 287.116ZM280.369 286.783C280.369 286.783 280.596 287.005 280.596 287.116C280.596 287.227 280.495 287.294 280.369 287.227C280.243 287.161 280.142 287.005 280.142 286.894C280.142 286.761 280.243 286.716 280.369 286.783ZM279.738 286.45C279.738 286.45 279.965 286.672 279.965 286.783C279.965 286.916 279.864 286.961 279.738 286.894C279.612 286.827 279.511 286.672 279.511 286.561C279.511 286.427 279.612 286.383 279.738 286.45ZM279.082 286.139C279.082 286.139 279.309 286.361 279.309 286.472C279.309 286.605 279.208 286.65 279.082 286.583C278.956 286.516 278.855 286.361 278.855 286.25C278.855 286.116 278.956 286.072 279.082 286.139ZM278.451 285.805C278.451 285.805 278.679 286.028 278.679 286.139C278.679 286.272 278.578 286.316 278.451 286.25C278.325 286.183 278.224 286.028 278.224 285.916C278.224 285.805 278.325 285.739 278.451 285.805ZM277.821 285.472C277.821 285.472 278.048 285.694 278.048 285.805C278.048 285.939 277.947 285.983 277.821 285.916C277.694 285.85 277.593 285.694 277.593 285.583C277.593 285.472 277.694 285.405 277.821 285.472ZM277.165 285.161C277.165 285.161 277.392 285.383 277.392 285.494C277.392 285.605 277.291 285.672 277.165 285.605C277.038 285.539 276.938 285.383 276.938 285.272C276.938 285.139 277.038 285.094 277.165 285.161ZM284.204 289.383C284.204 289.383 284.431 289.605 284.431 289.716C284.431 289.827 284.33 289.894 284.204 289.827C284.078 289.76 283.977 289.605 283.977 289.494C283.977 289.36 284.078 289.316 284.204 289.383ZM283.573 289.072C283.573 289.072 283.801 289.294 283.801 289.405C283.801 289.538 283.7 289.583 283.573 289.516C283.447 289.449 283.346 289.294 283.346 289.183C283.346 289.072 283.447 289.005 283.573 289.072ZM282.943 288.738C282.943 288.738 283.17 288.961 283.17 289.072C283.17 289.205 283.069 289.249 282.943 289.183C282.816 289.116 282.716 288.961 282.716 288.849C282.716 288.738 282.816 288.672 282.943 288.738ZM282.287 288.405C282.287 288.405 282.514 288.627 282.514 288.738C282.514 288.849 282.413 288.916 282.287 288.849C282.161 288.783 282.06 288.627 282.06 288.516C282.06 288.383 282.161 288.338 282.287 288.405ZM281.656 288.094C281.656 288.094 281.883 288.316 281.883 288.427C281.883 288.561 281.782 288.605 281.656 288.538C281.53 288.472 281.429 288.316 281.429 288.205C281.429 288.072 281.53 288.027 281.656 288.094ZM281.025 287.761C281.025 287.761 281.252 287.983 281.252 288.094C281.252 288.227 281.151 288.272 281.025 288.205C280.899 288.138 280.798 287.983 280.798 287.872C280.798 287.738 280.899 287.694 281.025 287.761ZM280.369 287.427C280.369 287.427 280.596 287.65 280.596 287.761C280.596 287.894 280.495 287.938 280.369 287.872C280.243 287.805 280.142 287.65 280.142 287.538C280.142 287.427 280.243 287.361 280.369 287.427ZM279.738 287.116C279.738 287.116 279.965 287.338 279.965 287.45C279.965 287.583 279.864 287.627 279.738 287.561C279.612 287.494 279.511 287.339 279.511 287.227C279.511 287.094 279.612 287.05 279.738 287.116ZM279.082 286.783C279.082 286.783 279.309 287.005 279.309 287.116C279.309 287.25 279.208 287.294 279.082 287.227C278.956 287.161 278.855 287.005 278.855 286.894C278.855 286.761 278.956 286.716 279.082 286.783ZM278.451 286.45C278.451 286.45 278.679 286.672 278.679 286.783C278.679 286.916 278.578 286.961 278.451 286.894C278.325 286.827 278.224 286.672 278.224 286.561C278.224 286.45 278.325 286.383 278.451 286.45ZM277.821 286.139C277.821 286.139 278.048 286.361 278.048 286.472C278.048 286.605 277.947 286.65 277.821 286.583C277.694 286.516 277.593 286.361 277.593 286.25C277.593 286.116 277.694 286.072 277.821 286.139ZM277.165 285.805C277.165 285.805 277.392 286.028 277.392 286.139C277.392 286.272 277.291 286.316 277.165 286.25C277.038 286.183 276.938 286.028 276.938 285.916C276.938 285.783 277.038 285.739 277.165 285.805ZM284.204 290.027C284.204 290.027 284.431 290.249 284.431 290.36C284.431 290.494 284.33 290.538 284.204 290.471C284.078 290.405 283.977 290.249 283.977 290.138C283.977 290.005 284.078 289.96 284.204 290.027ZM283.573 289.716C283.573 289.716 283.801 289.938 283.801 290.049C283.801 290.183 283.7 290.227 283.573 290.16C283.447 290.094 283.346 289.938 283.346 289.827C283.346 289.716 283.447 289.649 283.573 289.716ZM282.943 289.383C282.943 289.383 283.17 289.605 283.17 289.716C283.17 289.849 283.069 289.894 282.943 289.827C282.816 289.76 282.716 289.605 282.716 289.494C282.716 289.383 282.816 289.316 282.943 289.383ZM282.287 289.072C282.287 289.072 282.514 289.294 282.514 289.405C282.514 289.516 282.413 289.583 282.287 289.516C282.161 289.449 282.06 289.294 282.06 289.183C282.06 289.049 282.161 289.005 282.287 289.072ZM281.656 288.738C281.656 288.738 281.883 288.961 281.883 289.072C281.883 289.183 281.782 289.249 281.656 289.183C281.53 289.116 281.429 288.961 281.429 288.849C281.429 288.716 281.53 288.672 281.656 288.738ZM281.025 288.405C281.025 288.405 281.252 288.627 281.252 288.738C281.252 288.849 281.151 288.916 281.025 288.849C280.899 288.783 280.798 288.627 280.798 288.516C280.798 288.383 280.899 288.338 281.025 288.405ZM280.369 288.094C280.369 288.094 280.596 288.316 280.596 288.427C280.596 288.538 280.495 288.605 280.369 288.538C280.243 288.472 280.142 288.316 280.142 288.205C280.142 288.094 280.243 288.027 280.369 288.094ZM279.738 287.761C279.738 287.761 279.965 287.983 279.965 288.094C279.965 288.227 279.864 288.272 279.738 288.205C279.612 288.138 279.511 287.983 279.511 287.872C279.511 287.738 279.612 287.694 279.738 287.761ZM279.082 287.427C279.082 287.427 279.309 287.65 279.309 287.761C279.309 287.894 279.208 287.938 279.082 287.872C278.956 287.805 278.855 287.65 278.855 287.538C278.855 287.427 278.956 287.361 279.082 287.427ZM278.451 287.116C278.451 287.116 278.679 287.338 278.679 287.45C278.679 287.583 278.578 287.627 278.451 287.561C278.325 287.494 278.224 287.339 278.224 287.227C278.224 287.094 278.325 287.05 278.451 287.116ZM277.821 286.783C277.821 286.783 278.048 287.005 278.048 287.116C278.048 287.25 277.947 287.294 277.821 287.227C277.694 287.161 277.593 287.005 277.593 286.894C277.593 286.783 277.694 286.716 277.821 286.783ZM277.165 286.45C277.165 286.45 277.392 286.672 277.392 286.783C277.392 286.894 277.291 286.961 277.165 286.894C277.038 286.827 276.938 286.672 276.938 286.561C276.938 286.45 277.038 286.383 277.165 286.45ZM284.204 290.694C284.204 290.694 284.431 290.916 284.431 291.027C284.431 291.138 284.33 291.205 284.204 291.138C284.078 291.071 283.977 290.916 283.977 290.805C283.977 290.694 284.078 290.627 284.204 290.694ZM283.573 290.36C283.573 290.36 283.801 290.583 283.801 290.716C283.801 290.849 283.7 290.894 283.573 290.827C283.447 290.76 283.346 290.605 283.346 290.494C283.346 290.36 283.447 290.316 283.573 290.383V290.36ZM282.943 290.027C282.943 290.027 283.17 290.249 283.17 290.36C283.17 290.494 283.069 290.538 282.943 290.471C282.816 290.405 282.716 290.249 282.716 290.138C282.716 290.005 282.816 289.96 282.943 290.027ZM282.287 289.716C282.287 289.716 282.514 289.938 282.514 290.049C282.514 290.16 282.413 290.227 282.287 290.16C282.161 290.094 282.06 289.938 282.06 289.827C282.06 289.716 282.161 289.649 282.287 289.716ZM281.656 289.383C281.656 289.383 281.883 289.605 281.883 289.716C281.883 289.849 281.782 289.894 281.656 289.827C281.53 289.76 281.429 289.605 281.429 289.494C281.429 289.36 281.53 289.316 281.656 289.383ZM281.025 289.072C281.025 289.072 281.252 289.294 281.252 289.405C281.252 289.516 281.151 289.583 281.025 289.516C280.899 289.449 280.798 289.294 280.798 289.183C280.798 289.049 280.899 289.005 281.025 289.072ZM280.369 288.738C280.369 288.738 280.596 288.961 280.596 289.072C280.596 289.183 280.495 289.249 280.369 289.183C280.243 289.116 280.142 288.961 280.142 288.849C280.142 288.716 280.243 288.672 280.369 288.738ZM279.738 288.405C279.738 288.405 279.965 288.627 279.965 288.738C279.965 288.849 279.864 288.916 279.738 288.849C279.612 288.783 279.511 288.627 279.511 288.516C279.511 288.405 279.612 288.338 279.738 288.405ZM279.082 288.094C279.082 288.094 279.309 288.316 279.309 288.427C279.309 288.538 279.208 288.605 279.082 288.538C278.956 288.472 278.855 288.316 278.855 288.205C278.855 288.094 278.956 288.027 279.082 288.094ZM278.451 287.761C278.451 287.761 278.679 287.983 278.679 288.094C278.679 288.227 278.578 288.272 278.451 288.205C278.325 288.138 278.224 287.983 278.224 287.872C278.224 287.738 278.325 287.694 278.451 287.761ZM277.821 287.427C277.821 287.427 278.048 287.65 278.048 287.761C278.048 287.872 277.947 287.938 277.821 287.872C277.694 287.805 277.593 287.65 277.593 287.538C277.593 287.405 277.694 287.361 277.821 287.427ZM277.165 287.116C277.165 287.116 277.392 287.338 277.392 287.45C277.392 287.561 277.291 287.627 277.165 287.561C277.038 287.494 276.938 287.339 276.938 287.227C276.938 287.094 277.038 287.05 277.165 287.116ZM284.204 291.338C284.204 291.338 284.431 291.56 284.431 291.671C284.431 291.805 284.33 291.849 284.204 291.782C284.078 291.716 283.977 291.56 283.977 291.449C283.977 291.338 284.078 291.271 284.204 291.338ZM283.573 291.005C283.573 291.005 283.801 291.227 283.801 291.338C283.801 291.471 283.7 291.516 283.573 291.449C283.447 291.382 283.346 291.227 283.346 291.116C283.346 290.983 283.447 290.938 283.573 291.005ZM282.943 290.694C282.943 290.694 283.17 290.916 283.17 291.027C283.17 291.138 283.069 291.205 282.943 291.138C282.816 291.071 282.716 290.916 282.716 290.805C282.716 290.671 282.816 290.627 282.943 290.694ZM282.287 290.36C282.287 290.36 282.514 290.583 282.514 290.694C282.514 290.827 282.413 290.871 282.287 290.805C282.161 290.738 282.06 290.583 282.06 290.471C282.06 290.36 282.161 290.294 282.287 290.36ZM281.656 290.027C281.656 290.027 281.883 290.249 281.883 290.36C281.883 290.494 281.782 290.538 281.656 290.471C281.53 290.405 281.429 290.249 281.429 290.138C281.429 290.027 281.53 289.96 281.656 290.027ZM281.025 289.716C281.025 289.716 281.252 289.938 281.252 290.049C281.252 290.183 281.151 290.227 281.025 290.16C280.899 290.094 280.798 289.938 280.798 289.827C280.798 289.716 280.899 289.649 281.025 289.716ZM280.369 289.383C280.369 289.383 280.596 289.605 280.596 289.716C280.596 289.849 280.495 289.894 280.369 289.827C280.243 289.76 280.142 289.605 280.142 289.494C280.142 289.36 280.243 289.316 280.369 289.383ZM279.738 289.072C279.738 289.072 279.965 289.294 279.965 289.405C279.965 289.516 279.864 289.583 279.738 289.516C279.612 289.449 279.511 289.294 279.511 289.183C279.511 289.072 279.612 289.005 279.738 289.072ZM279.082 288.738C279.082 288.738 279.309 288.961 279.309 289.072C279.309 289.205 279.208 289.249 279.082 289.183C278.956 289.116 278.855 288.961 278.855 288.849C278.855 288.738 278.956 288.672 279.082 288.738ZM278.451 288.405C278.451 288.405 278.679 288.627 278.679 288.738C278.679 288.872 278.578 288.916 278.451 288.849C278.325 288.783 278.224 288.627 278.224 288.516C278.224 288.383 278.325 288.338 278.451 288.405ZM277.821 288.094C277.821 288.094 278.048 288.316 278.048 288.427C278.048 288.561 277.947 288.605 277.821 288.538C277.694 288.472 277.593 288.316 277.593 288.205C277.593 288.072 277.694 288.027 277.821 288.094ZM277.165 287.761C277.165 287.761 277.392 287.983 277.392 288.094C277.392 288.227 277.291 288.272 277.165 288.205C277.038 288.138 276.938 287.983 276.938 287.872C276.938 287.761 277.038 287.694 277.165 287.761ZM284.204 291.982C284.204 291.982 284.431 292.205 284.431 292.316C284.431 292.427 284.33 292.493 284.204 292.427C284.078 292.36 283.977 292.205 283.977 292.093C283.977 291.96 284.078 291.916 284.204 291.982ZM283.573 291.671C283.573 291.671 283.801 291.894 283.801 292.005C283.801 292.138 283.7 292.182 283.573 292.116C283.447 292.049 283.346 291.894 283.346 291.782C283.346 291.671 283.447 291.605 283.573 291.671ZM282.943 291.338C282.943 291.338 283.17 291.56 283.17 291.671C283.17 291.805 283.069 291.849 282.943 291.782C282.816 291.716 282.716 291.56 282.716 291.449C282.716 291.338 282.816 291.271 282.943 291.338ZM282.287 291.005C282.287 291.005 282.514 291.227 282.514 291.338C282.514 291.449 282.413 291.516 282.287 291.449C282.161 291.382 282.06 291.227 282.06 291.116C282.06 290.983 282.161 290.938 282.287 291.005ZM281.656 290.694C281.656 290.694 281.883 290.916 281.883 291.027C281.883 291.16 281.782 291.205 281.656 291.138C281.53 291.071 281.429 290.916 281.429 290.805C281.429 290.694 281.53 290.627 281.656 290.694ZM281.025 290.36C281.025 290.36 281.252 290.583 281.252 290.694C281.252 290.827 281.151 290.871 281.025 290.805C280.899 290.738 280.798 290.583 280.798 290.471C280.798 290.36 280.899 290.294 281.025 290.36ZM280.369 290.049C280.369 290.049 280.596 290.271 280.596 290.383C280.596 290.494 280.495 290.56 280.369 290.494C280.243 290.427 280.142 290.271 280.142 290.16C280.142 290.027 280.243 289.983 280.369 290.049ZM279.738 289.716C279.738 289.716 279.965 289.938 279.965 290.049C279.965 290.183 279.864 290.227 279.738 290.16C279.612 290.094 279.511 289.938 279.511 289.827C279.511 289.694 279.612 289.649 279.738 289.716ZM279.082 289.383C279.082 289.383 279.309 289.605 279.309 289.716C279.309 289.849 279.208 289.894 279.082 289.827C278.956 289.76 278.855 289.605 278.855 289.494C278.855 289.36 278.956 289.316 279.082 289.383ZM278.451 289.072C278.451 289.072 278.679 289.294 278.679 289.405C278.679 289.516 278.578 289.583 278.451 289.516C278.325 289.449 278.224 289.294 278.224 289.183C278.224 289.072 278.325 289.005 278.451 289.072ZM277.821 288.738C277.821 288.738 278.048 288.961 278.048 289.072C278.048 289.183 277.947 289.249 277.821 289.183C277.694 289.116 277.593 288.961 277.593 288.849C277.593 288.738 277.694 288.672 277.821 288.738ZM277.392 288.761C277.392 288.894 277.291 288.938 277.165 288.872C277.038 288.805 276.938 288.649 276.938 288.538C276.938 288.427 277.038 288.361 277.165 288.427C277.291 288.494 277.392 288.649 277.392 288.761Z" fill="#BBD2E9"/>
<path fill-rule="evenodd" clip-rule="evenodd" d="M309.333 295.226L309.182 295.382L309.005 295.515L308.955 295.715L308.879 295.915L308.955 296.048L309.005 296.182L309.182 296.16L309.333 296.137L309.484 296.004L309.661 295.848L309.712 295.649L309.787 295.449L309.712 295.315L309.661 295.204H309.484L309.333 295.226Z" fill="#E4E474"/>
<path fill-rule="evenodd" clip-rule="evenodd" d="M309.333 296.804L309.182 296.938L309.005 297.093L308.955 297.293L308.879 297.493L308.955 297.627L309.005 297.76L309.182 297.738L309.333 297.715L309.484 297.582L309.661 297.427L309.712 297.227L309.787 297.027L309.712 296.893L309.661 296.782H309.484L309.333 296.804Z" fill="url(#paint0_linear_2140_67221)"/>
<path fill-rule="evenodd" clip-rule="evenodd" d="M403.977 219.791L426.181 208.504L426.231 216.992L403.977 228.324V219.791Z" fill="url(#paint1_linear_2140_67221)"/>
<path fill-rule="evenodd" clip-rule="evenodd" d="M298.988 274.518L301.789 275.94L304.565 274.518L301.789 273.118L298.988 274.518Z" fill="#FFE7AC"/>
<path fill-rule="evenodd" clip-rule="evenodd" d="M301.79 275.941L300.023 290.983L301.79 322.402L304.565 321.002V274.519L301.79 275.941Z" fill="#FAF4EB"/>
<path fill-rule="evenodd" clip-rule="evenodd" d="M301.79 275.941L300.023 290.983L301.79 301.849L304.565 300.427V274.519L301.79 275.941Z" fill="#293896"/>
<path fill-rule="evenodd" clip-rule="evenodd" d="M301.789 275.941V322.402L298.988 321.002V274.519L301.789 275.941Z" fill="#606CBA"/>
<path fill-rule="evenodd" clip-rule="evenodd" d="M439 206.17L437.461 227.812L439 252.653L441.776 251.231V204.748L439 206.17Z" fill="#FAF4EB"/>
<path fill-rule="evenodd" clip-rule="evenodd" d="M439.001 206.17L437.234 221.213L439.001 232.078L441.776 230.678V204.748L439.001 206.17Z" fill="url(#paint2_linear_2140_67221)"/>
<path fill-rule="evenodd" clip-rule="evenodd" d="M439.002 206.17V252.653L436.227 251.231V204.748L439.002 206.17Z" fill="url(#paint3_linear_2140_67221)"/>
<path fill-rule="evenodd" clip-rule="evenodd" d="M405.09 188.928L403.551 210.57L405.09 235.411L407.865 233.989V187.528L405.09 188.928Z" fill="#FAF4EB"/>
<path fill-rule="evenodd" clip-rule="evenodd" d="M405.092 188.928V235.411L402.316 233.989V187.528L405.092 188.928Z" fill="url(#paint4_linear_2140_67221)"/>
<path fill-rule="evenodd" clip-rule="evenodd" d="M455.002 201.994L301.793 279.896V285.295L455.002 207.393V201.994Z" fill="white"/>
<path fill-rule="evenodd" clip-rule="evenodd" d="M251.855 254.52L276.835 267.207L301.79 279.894L454.998 201.993L405.089 176.618L377.385 190.683L330.352 216.724L269.139 245.743L251.855 254.52Z" fill="#AED3FF"/>
<path fill-rule="evenodd" clip-rule="evenodd" d="M347.29 241.081L346.476 241.525L345.782 242.081L345.447 242.725L345.567 243.236L346.165 243.947L349.254 245.592L350.379 245.969L351.528 246.103H352.103L353.324 245.969L354.377 245.592L355.191 245.169L355.886 244.614L356.125 243.947L355.886 243.303L355.191 242.725L352.103 241.081L351.049 240.703L350.786 240.681L350.571 240.548L349.469 240.57L348.32 240.703L347.29 241.081Z" fill="#293896"/>
<path fill-rule="evenodd" clip-rule="evenodd" d="M346.671 241.592L345.809 242.058V242.725L346.048 243.392L346.742 243.947L349.831 245.591L350.884 245.969L352.105 246.102V241.592H346.671Z" fill="#AED3FF"/>
<path fill-rule="evenodd" clip-rule="evenodd" d="M350.884 245.968L352.105 246.102V242.791H350.884V245.968Z" fill="#293896"/>
<path fill-rule="evenodd" clip-rule="evenodd" d="M353.324 245.97L354.377 245.592L355.191 245.17L355.886 244.614L356.125 243.948V243.281L355.886 243.303L355.862 243.281H352.103L353.324 245.97Z" fill="#F6F3EF"/>
<path fill-rule="evenodd" clip-rule="evenodd" d="M352.103 246.102L353.324 245.969V243.747H352.103V246.102Z" fill="url(#paint5_linear_2140_67221)"/>
<path fill-rule="evenodd" clip-rule="evenodd" d="M347.554 240.547L346.74 240.991L346.045 241.547L345.806 242.058L346.045 242.324L346.74 242.88L349.828 244.546L350.882 245.057L352.103 245.435L353.324 245.457L354.377 245.08L355.191 244.635L355.886 244.08L356.125 243.28L355.886 242.369L355.191 241.68L352.103 240.013L351.049 239.636L349.828 239.902L348.607 240.191L347.554 240.547Z" fill="white"/>
<path fill-rule="evenodd" clip-rule="evenodd" d="M347.557 240.547L346.742 240.991L346.048 241.547L345.809 242.058L346.048 242.324L346.742 242.88L352.105 240.013L351.052 239.636L349.831 239.902L348.61 240.191L347.557 240.547Z" fill="#A1C8F6"/>
<path fill-rule="evenodd" clip-rule="evenodd" d="M347.555 240.547L346.741 240.991L346.047 241.547L345.807 242.058L346.047 242.324L351.051 239.636L349.83 239.902L348.609 240.191L347.555 240.547Z" fill="#8FC3FF"/>
<path fill-rule="evenodd" clip-rule="evenodd" d="M348.799 240.903L348.224 241.214L349.134 241.614L350.164 242.148L350.451 241.992L350.738 241.837L349.709 241.303L348.799 240.903Z" fill="#5B68B7"/>
<path fill-rule="evenodd" clip-rule="evenodd" d="M264.371 248.165H274.01L385.258 191.594L383.491 190.705H377.385L328.486 215.569L264.371 248.165Z" fill="#AED3FF"/>
<path fill-rule="evenodd" clip-rule="evenodd" d="M286.977 241.566L333.504 217.902V215.036H329.543L328.483 215.569L286.977 236.678V241.566Z" fill="#AED3FF"/>
<path fill-rule="evenodd" clip-rule="evenodd" d="M333.434 220.925L339.011 218.103L339.44 217.303L339.011 216.526L333.031 213.481L332.804 213.57L332.602 213.481L323.922 217.881L329.927 220.925L331.466 221.147H331.895L333.434 220.925Z" fill="#AED3FF"/>
<path fill-rule="evenodd" clip-rule="evenodd" d="M333.43 220.925L339.006 218.103L339.435 217.303V216.57L332.799 213.37L324.145 217.036V217.77L330.352 220.925L331.891 221.147L333.43 220.925Z" fill="#0E1A68"/>
<path fill-rule="evenodd" clip-rule="evenodd" d="M326.087 216.215L324.145 217.037V217.77L330.352 220.925L331.891 221.148V216.215H326.087Z" fill="#061157"/>
<path fill-rule="evenodd" clip-rule="evenodd" d="M333.435 220.19L339.012 217.346L339.441 216.569L339.012 215.791L332.805 212.636L328.742 219.368L330.357 220.19L331.896 220.39L333.435 220.19Z" fill="#293896"/>
<path fill-rule="evenodd" clip-rule="evenodd" d="M337.845 215.191L332.799 212.636L324.145 217.035L327.904 218.946L329.166 219.59L331.638 218.346H333.506L333.935 217.169L337.845 215.191Z" fill="#6D3F55"/>
<path fill-rule="evenodd" clip-rule="evenodd" d="M329.371 204.082L333.509 206.193L334.443 211.792L333.509 218.347L329.371 216.214V204.082Z" fill="#0E1A68"/>
<path fill-rule="evenodd" clip-rule="evenodd" d="M335.375 214.081L333.508 215.036V218.347L335.375 217.392V214.081Z" fill="#293896"/>
<path fill-rule="evenodd" clip-rule="evenodd" d="M335.375 205.26L333.508 206.193V215.036L335.375 214.081V205.26Z" fill="#0E1A68"/>
<path fill-rule="evenodd" clip-rule="evenodd" d="M392.579 146.911L390.812 146L335.176 174.285L336.942 206.993L392.579 146.911Z" fill="white"/>
<path fill-rule="evenodd" clip-rule="evenodd" d="M392.578 146.911L336.941 175.197V207.015L392.578 178.729V146.911Z" fill="#293896"/>
<path fill-rule="evenodd" clip-rule="evenodd" d="M391.494 148.533V178.174L338.027 205.371V175.73L391.494 148.533Z" fill="#0E1A68"/>
<path fill-rule="evenodd" clip-rule="evenodd" d="M336.942 175.196L335.176 174.285V206.103L336.942 206.992V175.196Z" fill="#6D3F55"/>
<path fill-rule="evenodd" clip-rule="evenodd" d="M336.94 175.196L335.174 174.285L279.562 202.571L281.329 235.278L336.94 175.196Z" fill="white"/>
<path fill-rule="evenodd" clip-rule="evenodd" d="M336.94 175.196L281.328 203.46V235.278L336.94 207.015V175.196Z" fill="#293896"/>
<path fill-rule="evenodd" clip-rule="evenodd" d="M335.879 176.818V206.459L282.387 233.656V204.015L335.879 176.818Z" fill="#0E1A68"/>
<path fill-rule="evenodd" clip-rule="evenodd" d="M281.329 203.46L279.562 202.571V234.39L281.329 235.278V203.46Z" fill="#0E1A68"/>
<path fill-rule="evenodd" clip-rule="evenodd" d="M337.845 215.191L332.799 212.636L324.145 217.035L327.904 218.946L329.166 219.59L331.638 218.346H333.506L333.935 217.169L337.845 215.191Z" fill="#0E1A68"/>
<path fill-rule="evenodd" clip-rule="evenodd" d="M263.969 239.877L270.731 233.944L283.397 237.677L276.66 259.675L263.969 239.877Z" fill="white"/>
<path fill-rule="evenodd" clip-rule="evenodd" d="M270.73 250.01L276.66 259.675H267.526L254.859 255.942L261.596 250.01H270.73Z" fill="white"/>
<path fill-rule="evenodd" clip-rule="evenodd" d="M283.397 253.72L276.66 259.675V243.61L283.397 237.678V253.72Z" fill="#0E1A68"/>
<path fill-rule="evenodd" clip-rule="evenodd" d="M263.969 255.943L276.66 259.676V243.611L263.969 239.878V255.943Z" fill="#5B68B7"/>
<path fill-rule="evenodd" clip-rule="evenodd" d="M280.02 247.566C279.263 248.233 278.607 249.255 278.102 250.388C277.623 251.522 277.32 252.766 277.32 253.832C277.32 254.899 277.623 255.61 278.102 255.877C278.582 256.143 279.263 255.988 280.02 255.321C280.777 254.655 281.433 253.632 281.938 252.499C282.417 251.366 282.72 250.122 282.72 249.055C282.72 247.989 282.417 247.278 281.938 247.011C281.458 246.744 280.777 246.9 280.02 247.544V247.566ZM281.257 248.566C281.585 248.744 281.761 249.211 281.761 249.9C281.761 250.588 281.559 251.41 281.257 252.144C280.928 252.877 280.5 253.544 280.02 253.988C279.541 254.41 279.087 254.521 278.784 254.343C278.456 254.166 278.279 253.699 278.279 253.01C278.279 252.321 278.481 251.499 278.784 250.766C279.112 250.033 279.541 249.366 280.02 248.922C280.5 248.5 280.954 248.389 281.257 248.566Z" fill="#5B68B7"/>
<path fill-rule="evenodd" clip-rule="evenodd" d="M278.677 243.942C277.971 244.564 277.391 245.897 277.391 246.897C277.391 247.919 277.971 248.23 278.677 247.608C279.384 246.986 279.964 245.653 279.964 244.653C279.964 243.631 279.384 243.32 278.677 243.942ZM279.51 245.053C279.51 245.719 279.132 246.586 278.677 246.986C278.223 247.386 277.845 247.186 277.845 246.519C277.845 245.853 278.223 244.986 278.677 244.586C279.132 244.186 279.51 244.386 279.51 245.053Z" fill="#5B68B7"/>
<path fill-rule="evenodd" clip-rule="evenodd" d="M251.855 254.521L301.79 279.895V285.295L251.855 259.92V254.521Z" fill="white"/>
<path fill-rule="evenodd" clip-rule="evenodd" d="M376.58 217.658L377.842 218.303L352.383 234.567L347.084 233.923L345.848 233.279L376.58 217.658Z" fill="white"/>
<path fill-rule="evenodd" clip-rule="evenodd" d="M356.191 240.988C352.734 239.388 349.252 237.811 345.795 236.211C345.392 236.011 344.963 235.789 344.534 235.567C344.534 235.522 344.483 235.5 344.433 235.456C344.408 235.411 344.357 235.367 344.332 235.322L375.09 219.68L376.351 220.324L356.519 240.966H356.494H356.191V240.988Z" fill="#293896"/>
<path fill-rule="evenodd" clip-rule="evenodd" d="M346.529 235.922L349.734 234.3L347.766 234.389L345.898 234.3L346.529 235.922Z" fill="#14227C"/>
<path fill-rule="evenodd" clip-rule="evenodd" d="M356.498 240.455L347.087 233.923L345.851 233.278L345.623 233.389L345.371 233.523V235.345L346.532 235.922V235.478L346.784 235.345L348.979 236.456L356.498 240.988V240.455Z" fill="#5B68B7"/>
<path fill-rule="evenodd" clip-rule="evenodd" d="M387.258 224.834V225.367L356.5 240.988V240.454L368.056 232.789L387.258 224.834Z" fill="#293896"/>
<path fill-rule="evenodd" clip-rule="evenodd" d="M387.251 224.834L377.84 218.302L347.082 233.922L356.494 240.455L387.251 224.834Z" fill="white"/>
<path fill-rule="evenodd" clip-rule="evenodd" d="M361.315 237.123L356.496 239.567H356.243L352.307 236.811L348.371 234.056L353.19 231.612L353.291 231.679L353.417 231.612L357.379 234.367L361.315 237.123ZM362.4 236.567L374.083 230.634L385.765 224.702L381.804 221.947L377.867 219.191L377.741 219.258L377.64 219.191L365.958 225.124L354.275 231.057L358.237 233.812L362.198 236.567H362.451H362.4Z" fill="#CAD9E4"/>
<path fill-rule="evenodd" clip-rule="evenodd" d="M361.319 237.122L356.5 239.566V239.122L361.319 236.678V237.122ZM385.769 224.257L362.404 236.122V236.566L385.769 224.701V224.257Z" fill="#293896"/>
<path fill-rule="evenodd" clip-rule="evenodd" d="M348.602 234.078L356.499 239.566V239.121L348.602 233.633V234.078ZM354.506 230.611L362.403 236.1V236.544L354.506 231.056V230.611Z" fill="#5B68B7"/>
<path fill-rule="evenodd" clip-rule="evenodd" d="M361.313 236.676L356.493 239.12L352.557 236.365L348.621 233.61L353.44 231.166L357.402 233.921L361.338 236.676H361.313ZM377.865 218.745L366.183 224.678L354.5 230.61L358.462 233.366L362.423 236.121L374.105 230.188C377.991 228.211 381.877 226.233 385.788 224.256L377.89 218.767L377.865 218.745Z" fill="#AED3FF"/>
<path fill-rule="evenodd" clip-rule="evenodd" d="M378.975 278.785H381.423L393.358 282.296L394.316 281.807L396.083 281.563L396.739 282.807L396.007 283.074L421.668 290.606L421.693 291.206L428.43 291.05L428.91 291.961L426.437 292.295L421.794 292.65L421.819 292.983L406.806 306.204L409.582 307.137L410.238 308.382L408.472 308.626L404.914 307.871L397.395 314.492L378.698 312.848L377.537 312.492L376.351 312.159L380.994 308.093L354.551 300.294L378.975 278.785Z" fill="#B0CCE9"/>
<path fill-rule="evenodd" clip-rule="evenodd" d="M410.236 308.38L408.47 308.624L405.492 280.494L408.066 282.627L409.908 299.07L410.236 308.38Z" fill="white"/>
<path fill-rule="evenodd" clip-rule="evenodd" d="M409.908 299.071L407.839 302.715L406.3 293.872L405.492 280.495L409.227 279.984L409.908 299.071Z" fill="#0E1A68"/>
<path fill-rule="evenodd" clip-rule="evenodd" d="M383.817 274.14L388.964 273.429L378.594 298.803L376.121 299.137L383.817 274.14Z" fill="#0E1A68"/>
<path fill-rule="evenodd" clip-rule="evenodd" d="M416.598 269.674L426.489 284.183L428.911 291.96L426.438 292.293L416.598 269.674Z" fill="white"/>
<path fill-rule="evenodd" clip-rule="evenodd" d="M416.598 269.673L421.745 268.984L426.489 284.183L424.521 287.871L416.598 269.673Z" fill="#0E1A68"/>
<path fill-rule="evenodd" clip-rule="evenodd" d="M407.256 307.091L408.467 308.624L405.489 280.494L404.102 277.872L407.256 307.091Z" fill="#293896"/>
<path fill-rule="evenodd" clip-rule="evenodd" d="M383.82 274.14L382.81 272.229L375.645 298.226L376.124 299.137L383.82 274.14Z" fill="#293896"/>
<path fill-rule="evenodd" clip-rule="evenodd" d="M416.595 269.675L415.586 267.786L425.956 291.383L426.436 292.294L416.595 269.675Z" fill="#293896"/>
<path fill-rule="evenodd" clip-rule="evenodd" d="M407.413 282.095L370.902 271.518L395.327 250.01L431.838 260.586L407.413 282.095Z" fill="#FDFAF6"/>
<path fill-rule="evenodd" clip-rule="evenodd" d="M424.516 227.235L424.945 230.168L426.862 227.924L437.889 225.413L444.651 212.259L443.49 211.903L442.304 211.548L433.397 219.391L424.516 227.235Z" fill="#AED3FF"/>
<path fill-rule="evenodd" clip-rule="evenodd" d="M408.37 284.205L397.395 279.184L410.566 267.585L431.836 260.586L408.37 284.205Z" fill="#0E1A68"/>
<path fill-rule="evenodd" clip-rule="evenodd" d="M424.52 227.234L415.109 273.362L407.413 282.094L370.902 271.518V275.806L411.147 287.627L421.543 276.917L426.867 227.923L424.52 227.234Z" fill="#293896"/>
<path fill-rule="evenodd" clip-rule="evenodd" d="M419.195 275.983L419.75 272.495L426.866 227.923L444.654 212.258L443.645 254.475L428.859 272.028L419.195 275.983Z" fill="white"/>
<path fill-rule="evenodd" clip-rule="evenodd" d="M419.193 275.985L411.145 287.628L435.569 266.12L443.643 254.477L419.193 275.985Z" fill="#AED3FF"/>
<path d="M359.625 284.803C359.625 284.803 360.992 286.269 361.025 288.946C361.059 291.623 360.709 292.667 360.008 293.226C359.308 293.786 357.908 294.89 356.125 294.799C354.341 294.708 352.091 294.179 351.008 293.967C349.925 293.755 349.091 293.876 345.191 293.075C339.707 291.941 336.374 288.825 335.807 287.57C335.24 286.285 336.04 284.228 336.04 284.228C340.591 284.682 349.458 286.088 351.008 284.319C352.575 282.549 359.625 284.787 359.625 284.787V284.803Z" fill="#FBFDFD"/>
<path d="M359.988 283.32C359.988 283.32 361.355 284.787 361.388 287.464C361.422 290.141 361.072 291.199 360.372 291.744C359.672 292.303 358.272 293.407 356.488 293.317C354.705 293.226 352.455 292.712 351.371 292.485C350.288 292.273 348.821 292.848 344.937 292.016C341.054 291.169 336.72 288.205 336.254 286.919C335.837 285.785 334.704 282.7 339.254 283.154C343.804 283.607 349.821 284.606 351.388 282.836C352.938 281.067 360.005 283.305 360.005 283.305L359.988 283.32Z" fill="#0E1A68"/>
<path d="M356.921 289.095C357.755 286.766 360.805 285.118 360.805 285.118L360.955 285.042C361.188 285.677 361.372 286.494 361.388 287.477C361.422 290.154 361.072 291.212 360.372 291.757C359.672 292.316 358.272 293.42 356.488 293.329C356.405 293.329 356.305 293.33 356.221 293.314C356.221 292.377 356.355 290.683 356.921 289.11V289.095Z" fill="#293896"/>
<path d="M346.618 288.173C346.801 288.37 347.085 288.173 347.102 287.916C347.102 287.916 347.068 287.221 347.218 286.404C347.435 285.27 348.068 284.483 348.568 284.257C348.785 284.166 349.135 284.226 349.085 284.03C349.035 283.833 348.818 283.727 348.618 283.803C347.985 284.045 346.735 284.695 346.452 286.298C346.268 287.236 346.335 287.856 346.635 288.173H346.618Z" fill="#293896"/>
<path d="M344.806 287.825C344.989 288.022 345.273 287.825 345.289 287.568C345.289 287.568 345.256 286.872 345.406 286.056C345.623 284.921 346.239 284.226 346.739 284.014C346.956 283.923 347.323 283.893 347.273 283.681C347.223 283.5 347.006 283.379 346.806 283.455C346.173 283.697 344.923 284.347 344.639 285.95C344.456 286.887 344.523 287.508 344.823 287.825H344.806Z" fill="#293896"/>
<path d="M343.263 287.614C343.429 287.81 343.729 287.614 343.746 287.357C343.746 287.357 343.713 286.661 343.863 285.845C344.079 284.71 344.696 284.03 345.213 283.803C345.43 283.712 345.78 283.667 345.73 283.47C345.68 283.274 345.463 283.168 345.263 283.243C344.629 283.485 343.379 284.136 343.096 285.739C342.913 286.676 342.979 287.296 343.279 287.614H343.263Z" fill="#293896"/>
<path d="M350 289.799C350.867 290.026 351.717 290.222 352.367 290.283C352.367 290.328 352.351 290.358 352.351 290.358L346.517 292.309C346.033 292.234 345.517 292.143 344.933 292.022C344.667 291.961 344.383 291.886 344.1 291.795C345.25 291.402 347.884 290.479 350 289.799Z" fill="#F5F5F5"/>
<path d="M347.028 288.991C347.878 289.218 348.744 289.415 349.395 289.475C349.395 289.521 349.378 289.551 349.378 289.551L343.544 291.502C343.311 291.471 343.061 291.426 342.811 291.381C342.377 291.214 341.961 291.033 341.544 290.836C342.827 290.398 345.128 289.596 347.028 288.991Z" fill="#F5F5F5"/>
<path d="M368.603 252.394L361.253 259.759C358.036 266.11 353.686 277.755 349.869 285.196C349.469 285.967 351.152 290.111 356.236 289.566C358.753 289.294 361.519 288.447 361.369 287.691L373.137 260.908L368.603 252.409V252.394Z" fill="#5B68B7"/>
<path d="M412.897 254.241L405.346 251.065L389.379 245.212C385.362 243.488 375.428 243.564 375.645 251.11L374.861 262.906L392.112 260.804C392.112 260.804 404.03 265.523 409.18 265.069C418.364 264.283 412.897 254.256 412.897 254.256V254.241Z" fill="#0E1A68"/>
<path d="M383.609 226.591C383.609 226.591 376.776 225.199 375.509 225.003C372.992 224.61 368.342 226.591 368.342 226.591L365.442 229.026C365.442 229.026 365.058 229.57 366.092 229.767C367.125 229.963 368.692 228.269 368.692 228.269L371.725 227.468C371.725 227.468 373.675 227.407 373.742 228.269C373.792 228.92 372.109 229.252 371.392 229.358C370.892 229.434 369.792 229.736 369.592 230.205C369.292 230.901 369.975 231.203 369.975 231.203C369.975 231.203 370.392 231.279 372.709 230.901C374.576 230.598 375.959 230.538 377.026 230.356C378.509 230.099 379.376 229.116 379.376 229.116L382.759 229.918L383.576 226.591H383.609Z" fill="white"/>
<path d="M392.394 193.968L385.993 195.223L390.244 210.089C391.36 214.369 393.51 214.702 394.944 214.475C397.944 214.021 400.978 211.949 402.478 210.785C405.394 208.516 404.344 203.48 404.278 203.057L403.361 192.818L392.377 193.953L392.394 193.968Z" fill="white"/>
<path d="M409.113 214.883C409.113 214.883 406.63 212.509 406.096 211.541C405.263 210.014 404.313 204.917 404.313 204.917L396.063 207.397C396.063 207.397 397.429 212.388 398.079 214.036C398.479 215.065 400.313 218.089 400.313 218.089C400.446 219.344 394.029 228.706 394.412 232.608L409.863 226.619C409.697 224.955 409.097 214.868 409.097 214.868L409.113 214.883Z" fill="white"/>
<path d="M385.947 192.674C385.313 192.855 386.83 193.248 386.73 193.384C385.497 195.26 384.663 195.396 384.13 195.35C383.83 195.32 386.547 198.617 387.33 198.662C388.814 198.753 391.914 202.685 392.447 204.334C392.447 204.334 392.13 203.744 392.497 203.199C392.88 202.64 394.164 202.262 396.014 205.302C396.014 205.302 397.881 207.736 400.198 207.646C402.764 207.54 403.548 208.583 404.031 209.43C404.031 209.43 403.848 208.356 404.381 208.009C404.814 207.706 405.398 207.963 405.364 208.145C405.348 208.281 405.615 206.451 407.331 202.746C410.765 195.35 407.215 190.859 405.331 189.755C404.481 189.241 402.498 186.972 393.564 189.135C393.097 189.256 390.464 189.982 388.597 189.271C388.497 189.241 388.947 189.982 389.93 190.481C390.264 190.647 388.013 191.282 386.83 191.055C386.463 190.98 387.663 191.948 387.863 191.993C388.347 192.099 385.947 192.704 385.947 192.704V192.674Z" fill="#55544F"/>
<path d="M392.179 202.011C392.179 202.011 393.562 202.041 394.229 203.418C394.696 204.386 394.429 205.263 394.229 205.535C393.746 206.261 393.162 206.472 393.162 206.472C393.162 206.472 392.846 204.068 392.746 203.614C392.646 203.176 392.162 201.996 392.162 201.996L392.179 202.011Z" fill="white"/>
<path d="M391.464 201.56C391.464 201.56 390.681 201.621 391.381 202.558C392.081 203.496 392.298 204.101 392.398 204.66C392.481 205.175 392.581 206.747 392.581 206.747C392.581 206.747 393.164 207.337 393.498 206.324C393.664 205.84 393.681 204.963 393.498 203.859C393.431 203.405 392.298 201.212 391.481 201.545L391.464 201.56Z" fill="white"/>
<path d="M365.619 240.748C365.619 240.748 360.152 240.355 358.068 240.748C355.985 241.141 349.868 243.334 349.868 243.334C349.868 243.334 348.118 243.924 349.101 244.922C349.568 245.391 350.968 246.117 351.501 246.51C352.051 246.903 353.685 247.009 356.968 246.404C358.685 246.086 359.485 246.102 361.452 246.298C363.419 246.495 365.719 245.708 365.719 245.708L365.602 240.748H365.619Z" fill="white"/>
<path d="M414.491 267.062C418.425 264.28 418.691 256.038 418.691 256.038L416.508 240.748L399.657 248.688L394.19 256.234L371.705 252.892C366.338 251.395 362.055 254.147 360.288 263.07L364.872 264.37C364.872 264.37 366.588 267.894 369.338 265.036C370.872 263.448 371.705 264.144 371.705 264.144C371.705 264.144 389.406 268.423 396.123 270.042C406.491 272.537 410.741 269.724 414.508 267.062H414.491Z" fill="#5B68B7"/>
<path d="M407.413 212.982C407.413 212.982 419.363 213.935 415.03 227.273C414.63 228.513 411.163 230.298 409.23 233.383C409.23 233.383 406.896 236.982 401.196 236.196C396.962 235.606 380.845 231.13 380.845 231.13C380.845 231.13 380.045 230.343 380.995 227.893C381.628 226.275 382.811 225.837 382.811 225.837L400.396 227.485L407.413 212.967V212.982Z" fill="#0E1A68"/>
<path d="M394.265 223.116C392.582 225.006 392.848 230.692 393.482 236.817L394.665 253.014C394.782 254.073 392.832 262.194 397.815 264.205C399.565 264.916 405.583 267.91 409.716 266.262C411.4 265.582 419.083 260.803 418.867 258.549L416.466 224.416C415.683 215.841 407.533 212.62 407.533 212.62L400.716 217.263L394.282 223.1L394.265 223.116Z" fill="#293896"/>
<path d="M363.324 242.806C363.441 245.09 364.341 246.315 364.341 246.315C364.341 246.315 377.425 247.434 379.192 247.555C381.742 247.721 382.909 247.343 385.142 246.33C389.276 244.455 397.593 236.243 397.593 236.243C397.593 236.243 403.643 230.95 401.076 226.276C399.193 222.843 396.026 221.316 393.743 223.947C391.609 226.413 384.925 234.352 382.159 237.316C381.142 238.42 379.625 239.056 378.042 239.01L365.924 239.313C365.924 239.313 364.808 239.01 363.908 239.978C363.424 240.492 363.274 241.959 363.324 242.821V242.806Z" fill="#5B68B7"/>
<defs>
<linearGradient id="paint0_linear_2140_67221" x1="318.038" y1="289.317" x2="309.262" y2="299.655" gradientUnits="userSpaceOnUse">
<stop stop-color="#895264"/>
<stop offset="1" stop-color="#552E48"/>
</linearGradient>
<linearGradient id="paint1_linear_2140_67221" x1="412.883" y1="214.792" x2="416.383" y2="222.272" gradientUnits="userSpaceOnUse">
<stop stop-color="#D5B7A4"/>
<stop offset="1" stop-color="#CBAE9F"/>
</linearGradient>
<linearGradient id="paint2_linear_2140_67221" x1="440.01" y1="220.968" x2="438.344" y2="242.625" gradientUnits="userSpaceOnUse">
<stop stop-color="#DAB8A4"/>
<stop offset="1" stop-color="#E5C6B7"/>
</linearGradient>
<linearGradient id="paint3_linear_2140_67221" x1="468.347" y1="228.234" x2="331.374" y2="230.956" gradientUnits="userSpaceOnUse">
<stop stop-color="#D9CBC3"/>
<stop offset="1" stop-color="#CB967E"/>
</linearGradient>
<linearGradient id="paint4_linear_2140_67221" x1="392.451" y1="211.636" x2="273.874" y2="213.986" gradientUnits="userSpaceOnUse">
<stop stop-color="#D7C0B4"/>
<stop offset="1" stop-color="#C46E4C"/>
</linearGradient>
<linearGradient id="paint5_linear_2140_67221" x1="353.827" y1="244.969" x2="351.242" y2="244.84" gradientUnits="userSpaceOnUse">
<stop stop-color="#F6F3EF"/>
<stop offset="1" stop-color="#EED3C8"/>
</linearGradient>
</defs>
</svg>
