<svg width="705" height="468" viewBox="0 0 705 468" fill="none" xmlns="http://www.w3.org/2000/svg">
<rect width="705" height="468" fill="#E0E6F9"/>
<path d="M333.211 322.978L412.887 275.036C418.493 271.658 417.795 265.771 411.313 261.872L303.335 196.899C296.864 193 287.068 192.576 281.462 195.954L201.786 243.897C196.18 247.274 196.878 253.161 203.36 257.061L311.338 322.033C317.809 325.933 327.604 326.356 333.211 322.978Z" fill="#CAE5FF"/>
<g opacity="0.13" style="mix-blend-mode:multiply">
<path d="M321.336 159.434L312.131 159.276L306.488 167.866C306.488 167.866 304.105 169.785 305.229 171.114C306.265 172.352 310.8 172.277 310.8 172.277L307.46 179.629C307.46 179.629 307.317 181.49 309.166 180.559C311.023 179.629 312.88 175.45 312.88 175.45C312.88 175.45 321.272 175.915 325.058 174.827C327.633 174.088 330.111 169.718 330.111 169.718C330.111 169.718 332.04 169.336 332.335 170.258C332.63 171.189 333.299 172.036 335.746 171.729C338.201 171.421 339.476 170.898 340.576 169.635C341.325 168.788 341.692 162.674 321.344 159.426L321.336 159.434Z" fill="#231F20"/>
</g>
<g style="mix-blend-mode:multiply" opacity="0.46">
<path d="M445.525 240.786C448.872 242.771 448.888 246.401 445.19 248.644L411.82 268.689C408.122 270.932 402.104 270.932 398.382 268.689L288.476 203.379C284.754 201.136 284.731 197.497 288.429 195.263L321.799 175.218C325.497 172.975 331.514 172.975 335.611 175.475L445.509 240.786H445.525Z" fill="#5E6670"/>
</g>
<path d="M375.205 172.867L385.183 166.786L387.957 196.982L375.117 204.75L375.205 172.867Z" fill="#B7B060"/>
<path d="M383.996 164.426C380.027 162.034 375.787 159.45 371.499 156.875C354.706 146.765 346.258 145.046 336.407 143.335C328.668 141.989 323.512 145.137 323.512 145.137C327.321 142.828 344.736 152.846 361.529 162.948C365.816 165.531 370.056 168.115 374.025 170.499C374.193 170.599 374.344 170.74 374.48 170.898L384.45 164.817C384.315 164.651 384.163 164.518 383.996 164.418V164.426Z" fill="#A3BAFF"/>
<path d="M374.479 170.906L384.449 164.825C384.64 165.049 384.8 165.324 384.919 165.614L374.941 171.695C374.821 171.404 374.654 171.13 374.471 170.906H374.479Z" fill="#8096D8"/>
<path d="M374.949 171.695L384.928 165.614C385.095 166.005 385.191 166.428 385.183 166.794L375.204 172.875C375.204 172.509 375.109 172.094 374.949 171.703V171.695Z" fill="#8096D8"/>
<path d="M361.522 162.948C365.81 165.531 370.05 168.115 374.019 170.499C374.712 170.923 375.214 172.036 375.206 172.866L375.118 204.749L320.588 171.928C320.588 171.022 320.715 153.893 322.819 146.068C324.174 141.025 343.215 151.933 361.53 162.948H361.522Z" fill="#778ED3"/>
<path d="M398.932 173.381C394.652 170.806 390.396 168.28 386.435 165.888C386.132 165.705 385.861 165.705 385.662 165.822L375.684 171.902C375.891 171.778 376.154 171.778 376.465 171.969C380.434 174.353 384.682 176.878 388.962 179.462C403.977 188.5 419.487 198.203 425.313 205.073L433.012 200.836C427.186 193.966 413.955 182.419 398.94 173.381H398.932Z" fill="#A3BAFF"/>
<path d="M425.305 205.065L433.004 200.828C433.928 201.916 434.614 202.938 435.004 203.877L427.305 208.113C426.907 207.183 426.229 206.161 425.305 205.065Z" fill="#8096D8"/>
<path d="M427.297 208.113L434.996 203.876C435.147 204.233 435.259 204.574 435.323 204.906C437.379 215.24 439.037 224.536 437.036 228.615C435.339 232.054 429.704 237.603 429.704 237.603C429.704 236.697 429.68 219.477 427.624 209.151C427.56 208.819 427.448 208.47 427.297 208.121V208.113Z" fill="#6477B1"/>
<path d="M388.954 179.462C407.261 190.477 426.309 202.498 427.624 209.152C429.681 219.486 429.704 236.698 429.704 237.604L375.174 204.782L375.261 172.899C375.261 172.069 375.764 171.554 376.457 171.969C380.426 174.353 384.674 176.878 388.954 179.462Z" fill="#778ED3"/>
<path d="M382.65 245.396L383.934 244.623C384.013 244.573 384.117 244.582 384.236 244.656L382.953 245.437C382.834 245.363 382.722 245.354 382.65 245.404V245.396Z" fill="#A6A38B"/>
<path d="M400.408 266.222L401.691 265.449C401.763 265.69 401.715 265.889 401.596 265.964L400.312 266.745C400.432 266.67 400.48 266.471 400.408 266.23V266.222Z" fill="#1E309B"/>
<path d="M382.961 245.429L384.244 244.648L397.737 252.773L396.454 253.545L382.961 245.429Z" fill="#999782"/>
<path d="M396.846 254.093L398.129 253.32L401.691 265.449L400.408 266.221L396.846 254.093Z" fill="#1B4089"/>
<path d="M396.455 253.545L397.738 252.765C397.802 252.798 397.866 252.856 397.93 252.931L396.646 253.703C396.591 253.637 396.527 253.579 396.455 253.537V253.545Z" fill="#A6A38B"/>
<path d="M396.639 253.712L397.922 252.939C397.986 253.014 398.049 253.114 398.089 253.214L396.806 253.986C396.766 253.886 396.71 253.795 396.639 253.712Z" fill="#DCDBD1"/>
<path d="M396.805 253.985L398.088 253.213C398.088 253.213 398.112 253.288 398.12 253.321L396.837 254.093C396.837 254.093 396.813 254.019 396.797 253.985H396.805Z" fill="#A6A38B"/>
<path d="M396.455 253.545C396.622 253.645 396.781 253.861 396.853 254.093L400.416 266.222C400.511 266.537 400.408 266.778 400.185 266.761C400.129 266.761 400.073 266.737 400.017 266.703C399.85 266.604 399.698 266.388 399.627 266.155L396.176 254.409L382.969 246.459C382.73 246.318 382.539 245.969 382.539 245.686C382.539 245.396 382.73 245.288 382.969 245.429L396.463 253.545H396.455Z" fill="#0A1B3D"/>
<path d="M288.605 199.358L289.888 198.577C289.872 198.627 289.841 198.66 289.801 198.685L288.518 199.466C288.518 199.466 288.589 199.408 288.605 199.358Z" fill="#1E309B"/>
<path d="M292.112 191.79L293.395 191.009L289.889 198.577L288.605 199.357L292.112 191.79Z" fill="#030A19"/>
<path d="M291.522 190.552L292.805 189.779C292.885 189.73 292.996 189.738 293.108 189.813L291.825 190.594C291.705 190.519 291.593 190.511 291.514 190.56L291.522 190.552Z" fill="#A6A38B"/>
<path d="M291.832 190.585L293.107 189.812L306.6 197.929L305.317 198.701L291.832 190.585Z" fill="#999782"/>
<path d="M305.318 198.701L306.602 197.929C306.673 197.97 306.729 198.028 306.793 198.095L305.51 198.876C305.454 198.809 305.39 198.751 305.318 198.71V198.701Z" fill="#A6A38B"/>
<path d="M305.51 198.876L306.793 198.095C306.857 198.178 306.912 198.269 306.96 198.361L305.677 199.141C305.637 199.042 305.581 198.95 305.51 198.876Z" fill="#DCDBD1"/>
<path d="M305.669 199.141L306.952 198.36C307 198.468 307.024 198.585 307.024 198.701C307.024 198.842 306.976 198.942 306.896 198.992L305.613 199.764C305.693 199.714 305.741 199.615 305.741 199.474C305.741 199.366 305.709 199.249 305.661 199.133L305.669 199.141Z" fill="#A6A38B"/>
<path d="M305.318 198.702C305.565 198.851 305.748 199.192 305.748 199.474C305.748 199.757 305.549 199.873 305.31 199.732L292.103 191.79L288.605 199.358C288.533 199.508 288.373 199.532 288.206 199.433C288.15 199.4 288.087 199.35 288.039 199.292C287.824 199.042 287.728 198.685 287.816 198.477L291.434 190.669C291.498 190.519 291.657 190.494 291.832 190.594L305.318 198.71V198.702Z" fill="#0A1B3D"/>
<path d="M413.104 227.794L414.387 227.013C414.466 226.963 414.578 226.971 414.69 227.046L413.406 227.827C413.287 227.761 413.175 227.752 413.104 227.794Z" fill="#A6A38B"/>
<path d="M430.851 248.62L432.135 247.839C432.206 248.08 432.159 248.279 432.039 248.354L430.756 249.127C430.875 249.052 430.915 248.861 430.851 248.611V248.62Z" fill="#1E309B"/>
<path d="M413.406 227.819L414.689 227.046L428.183 235.162L426.899 235.943L413.406 227.819Z" fill="#999782"/>
<path d="M427.289 236.491L428.572 235.71L432.135 247.838L430.852 248.619L427.289 236.491Z" fill="#1B4089"/>
<path d="M426.898 235.943L428.182 235.162C428.245 235.204 428.317 235.262 428.373 235.328L427.09 236.109C427.034 236.043 426.97 235.985 426.898 235.943Z" fill="#A6A38B"/>
<path d="M427.082 236.109L428.365 235.328C428.437 235.411 428.493 235.503 428.533 235.602L427.242 236.383C427.202 236.283 427.146 236.192 427.074 236.109H427.082Z" fill="#DCDBD1"/>
<path d="M427.248 236.375L428.539 235.594C428.539 235.594 428.563 235.669 428.571 235.702L427.288 236.483C427.288 236.483 427.264 236.408 427.248 236.375Z" fill="#A6A38B"/>
<path d="M426.898 235.943C427.066 236.042 427.225 236.258 427.289 236.491L430.852 248.619C430.939 248.935 430.844 249.176 430.62 249.159C430.565 249.159 430.509 249.134 430.453 249.101C430.286 249.002 430.126 248.786 430.055 248.553L426.604 236.807L413.389 228.857C413.15 228.716 412.959 228.367 412.959 228.084C412.959 227.802 413.158 227.686 413.389 227.827L426.883 235.951L426.898 235.943Z" fill="#0A1B3D"/>
<path d="M319.049 181.747L320.332 180.966C320.308 181.016 320.276 181.049 320.244 181.066L318.961 181.846C318.961 181.846 319.025 181.788 319.049 181.738V181.747Z" fill="#A6A38B"/>
<path d="M322.556 174.18L323.839 173.407L320.34 180.975L319.049 181.747L322.556 174.18Z" fill="#7F7D70"/>
<path d="M321.967 172.95L323.25 172.169C323.33 172.119 323.441 172.128 323.561 172.202L322.278 172.975C322.158 172.908 322.047 172.892 321.975 172.942L321.967 172.95Z" fill="#A6A38B"/>
<path d="M322.277 172.983L323.56 172.202L337.046 180.318L335.771 181.099L322.277 172.983Z" fill="#999782"/>
<path d="M335.772 181.099L337.047 180.318C337.119 180.36 337.182 180.418 337.238 180.485L335.955 181.265C335.899 181.199 335.827 181.141 335.764 181.099H335.772Z" fill="#A6A38B"/>
<path d="M335.955 181.265L337.238 180.484C337.31 180.567 337.358 180.659 337.406 180.75L336.122 181.531C336.083 181.431 336.019 181.34 335.955 181.265Z" fill="#DCDBD1"/>
<path d="M336.122 181.531L337.405 180.75C337.453 180.858 337.477 180.983 337.477 181.091C337.477 181.232 337.429 181.332 337.35 181.381L336.066 182.154C336.138 182.104 336.186 182.004 336.186 181.863C336.186 181.755 336.154 181.639 336.114 181.523L336.122 181.531Z" fill="#A6A38B"/>
<path d="M335.77 181.099C336.009 181.24 336.201 181.581 336.193 181.871C336.193 182.154 336.001 182.27 335.762 182.129L322.556 174.179L319.057 181.747C318.985 181.896 318.826 181.921 318.659 181.822C318.603 181.788 318.539 181.739 318.491 181.68C318.276 181.431 318.173 181.074 318.268 180.866L321.887 173.058C321.95 172.908 322.11 172.883 322.285 172.991L335.778 181.107L335.77 181.099Z" fill="#7C7A6D"/>
<path d="M289.951 184.397L319.894 166.263C322.174 168.697 322.453 169.901 322.939 171.039L292.996 189.174C292.518 188.027 292.231 186.831 292.231 185.726L289.951 184.397Z" fill="#989547"/>
<path d="M292.996 189.173L322.939 171.039C323.369 172.053 323.959 173.024 322.365 172.509L292.422 190.644C294.008 191.159 293.426 190.187 292.996 189.173Z" fill="#989547"/>
<path d="M292.43 190.644L322.373 172.51C325.234 174.528 325.888 175.118 326.581 175.534L296.638 193.668C295.944 193.253 295.291 192.671 294.709 191.982L292.43 190.653V190.644Z" fill="#989547"/>
<path d="M292.239 183.666L322.182 165.523L319.894 166.263L289.951 184.397L292.239 183.666Z" fill="#989547"/>
<path d="M293.529 180.717L323.473 162.583C322.684 163.065 322.189 164.078 322.181 165.532L292.238 183.666C292.238 182.213 292.732 181.199 293.529 180.717Z" fill="#989547"/>
<path d="M287.879 168.755L317.822 150.62C318.013 150.504 318.284 150.521 318.579 150.695L288.636 168.829C288.341 168.655 288.07 168.638 287.879 168.755Z" fill="#8096D8"/>
<path d="M296.637 193.668L326.58 175.533L420.49 232.046L390.547 250.181L296.637 193.668Z" fill="#D2DDFF"/>
<path d="M293.768 181.149L323.703 163.015C324.468 162.558 325.52 162.616 326.692 163.322C329.816 165.2 365.091 186.416 372.081 190.619L342.137 208.754C335.148 204.542 299.873 183.334 296.748 181.457C295.585 180.759 294.525 180.692 293.768 181.149Z" fill="#A3BAFF"/>
<path d="M302.933 183.384L332.876 165.249C332.876 165.648 332.741 165.93 332.517 166.063L302.574 184.198C302.797 184.065 302.933 183.782 302.933 183.384Z" fill="#D2DDFF"/>
<path d="M302.942 178.756L332.885 160.622L332.877 165.241L302.934 183.384L302.942 178.756Z" fill="#7085C6"/>
<path d="M288.635 168.83L318.578 150.695L331.832 158.712L301.889 176.846L288.635 168.83Z" fill="#A3BAFF"/>
<path d="M332.703 159.791C332.599 159.542 332.456 159.317 332.296 159.118C332.161 158.952 332.001 158.811 331.834 158.711L301.891 176.845C302.058 176.945 302.217 177.086 302.353 177.252C302.52 177.452 302.664 177.684 302.759 177.925C302.871 178.199 302.943 178.49 302.943 178.756L332.886 160.622C332.886 160.356 332.822 160.065 332.703 159.791Z" fill="#7085C6"/>
<path d="M343.372 220.068L373.316 201.934C373.316 202.141 373.276 202.316 373.212 202.457C373.148 202.59 373.061 202.69 372.949 202.756L343.006 220.89C343.117 220.824 343.205 220.724 343.269 220.591C343.333 220.45 343.372 220.276 343.372 220.068Z" fill="#304A7C"/>
<path d="M343.397 210.997L373.34 192.862L373.316 201.934L343.373 220.068L343.397 210.997Z" fill="#304A7C"/>
<path d="M341.332 208.753C342.025 209.169 342.583 210.166 342.591 210.996L342.567 220.068C342.567 220.275 342.527 220.45 342.463 220.591C342.264 221.006 341.818 221.106 341.308 220.799L295.919 193.468C293.599 192.073 291.726 188.692 291.734 185.917V183.948C291.75 181.174 293.631 180.052 295.951 181.448C299.075 183.325 334.35 204.542 341.34 208.745L341.332 208.753Z" fill="#A3BAFF"/>
<path d="M342.139 208.754L372.082 190.619C372.273 190.735 372.464 190.902 372.632 191.101L342.689 209.235C342.521 209.036 342.338 208.87 342.139 208.754Z" fill="#8096D8"/>
<path d="M342.697 209.235L372.64 191.101C372.84 191.333 373.007 191.616 373.127 191.898L343.183 210.033C343.056 209.742 342.889 209.468 342.697 209.235Z" fill="#8096D8"/>
<path d="M343.182 210.033L373.125 191.898C373.26 192.214 373.34 192.555 373.34 192.862L343.397 210.996C343.397 210.681 343.317 210.348 343.182 210.033Z" fill="#8096D8"/>
<path d="M343.906 210.257L373.849 192.123C374.081 191.982 374.391 192.007 374.742 192.214L344.799 210.349C344.448 210.141 344.137 210.116 343.906 210.257Z" fill="#D2DDFF"/>
<path d="M390.547 250.181L420.482 232.047C421.71 232.786 422.825 232.853 423.622 232.363L393.679 250.497C392.882 250.987 391.766 250.921 390.539 250.181H390.547Z" fill="#EEEF8C"/>
<path d="M390.547 250.181L420.482 232.047C421.71 232.786 422.825 232.853 423.622 232.363L393.679 250.497C392.882 250.987 391.766 250.921 390.539 250.181H390.547Z" fill="#EEEF8C"/>
<path d="M390.547 250.181L420.482 232.047C421.71 232.786 422.825 232.853 423.622 232.363L393.679 250.497C392.882 250.987 391.766 250.921 390.539 250.181H390.547Z" fill="#989547"/>
<path d="M394.796 247.457L424.739 229.322C424.739 230.701 424.269 231.665 423.512 232.13L393.568 250.265C394.318 249.808 394.788 248.836 394.788 247.457H394.796Z" fill="#C9CA7D"/>
<path d="M399.783 255.722L429.727 237.588C429.727 237.937 429.607 238.178 429.416 238.302L399.473 256.437C399.664 256.32 399.783 256.071 399.783 255.722Z" fill="#536290"/>
<path d="M344.801 210.348L374.744 192.214C379.47 195.055 415.184 216.562 420.563 219.802C421.225 220.2 421.839 220.757 422.396 221.413L392.453 239.548C391.903 238.891 391.274 238.335 390.62 237.936C385.24 234.696 349.527 213.198 344.801 210.348Z" fill="#A3BAFF"/>
<path d="M392.453 239.548L422.396 221.413C423.05 222.194 423.608 223.108 424.022 224.071L394.079 242.206C393.673 241.242 393.115 240.32 392.453 239.548Z" fill="#F0F18D"/>
<path d="M394.08 242.206L424.023 224.071C424.486 225.16 424.749 226.298 424.749 227.353L394.805 245.487C394.805 244.432 394.542 243.294 394.08 242.206Z" fill="#F0F18D"/>
<path d="M387.463 228.575L417.422 210.208C417.613 210.091 417.86 210.34 418.163 210.515L388.22 228.649C387.925 228.475 387.662 228.458 387.463 228.575Z" fill="#8096D8"/>
<path d="M394.803 245.487L424.746 227.353L424.738 229.321L394.795 247.456L394.803 245.487Z" fill="#C9CA7D"/>
<path d="M345.26 210.899C349.986 213.74 385.7 235.248 391.079 238.487C393.399 239.883 395.272 243.264 395.264 246.039V248.007C395.248 250.782 393.367 251.903 391.047 250.508L345.228 222.953C344.71 222.646 344.264 221.998 344.072 221.35C344.009 221.134 343.969 220.91 343.969 220.702L343.985 211.738C343.993 210.891 344.575 210.492 345.26 210.908V210.899Z" fill="#A3BAFF"/>
<path d="M399.825 236.989L429.768 218.854L429.721 237.562L399.777 255.696L399.825 236.989Z" fill="#6477B0"/>
<path d="M388.221 228.649L418.164 210.515L428.716 216.969L398.773 235.112L388.221 228.649Z" fill="#A3BAFF"/>
<path d="M398.772 235.112C399.362 235.461 399.84 236.317 399.833 237.023L399.785 255.731C399.785 256.437 399.306 256.719 398.717 256.362L398.382 256.163L288.58 190.079C287.99 189.731 287.52 188.867 287.52 188.169L287.567 169.461C287.567 168.763 288.046 168.473 288.635 168.83L301.881 176.846C302.471 177.204 302.941 178.059 302.941 178.757V183.384C302.926 184.19 302.376 184.514 301.698 184.107L296.661 181.033C294.222 179.563 292.246 180.742 292.23 183.666V185.727C292.214 188.642 294.182 192.206 296.621 193.668L390.532 250.181C392.97 251.652 394.947 250.472 394.955 247.548V245.48C394.971 242.564 393.002 239.008 390.563 237.538L388.34 236.093C387.678 235.694 387.12 234.739 387.12 233.941C387.12 232.147 387.136 229.422 387.136 229.281C387.136 228.583 387.614 228.292 388.196 228.649L398.749 235.112H398.772Z" fill="#A3BAFF"/>
<path d="M398.774 235.112L428.717 216.978C428.884 217.077 429.044 217.218 429.179 217.385L399.236 235.519C399.092 235.353 398.933 235.212 398.766 235.112H398.774Z" fill="#8096D8"/>
<path d="M399.244 235.519L429.187 217.385C429.355 217.584 429.49 217.817 429.594 218.058L399.651 236.192C399.547 235.951 399.404 235.719 399.244 235.519Z" fill="#8096D8"/>
<path d="M399.65 236.192L429.594 218.058C429.713 218.332 429.777 218.623 429.777 218.888L399.834 237.023C399.834 236.757 399.762 236.466 399.65 236.192Z" fill="#8096D8"/>
<path d="M366.128 166.504C358.995 159.127 350.937 156.444 343.987 152.265C338.297 148.843 337.46 146.459 331.642 145.794C329.059 145.503 321.998 150.263 321.998 150.263C325.712 151.651 331.283 153.827 336.974 157.249C343.923 161.428 352.451 167.16 358.413 171.953C358.524 172.044 358.58 172.252 358.74 172.277C361.298 172.717 366.447 166.836 366.447 166.836C366.343 166.711 366.223 166.62 366.12 166.512L366.128 166.504Z" fill="#D2DDFF"/>
<path d="M357.4 172.302C357.4 169.593 366.454 166.827 366.454 166.827C366.693 167.118 366.908 167.492 367.091 167.94C367.091 167.94 359.759 176.239 357.288 175.4C356.85 175.251 357.392 172.302 357.392 172.302H357.4Z" fill="#A3BAFF"/>
<path d="M357.616 173.739C357.616 171.031 367.093 167.94 367.093 167.94C369.157 172.883 367.954 186.482 365.841 187.612L356.859 193.053C358.971 191.923 356.764 182.038 356.764 175.948L357.616 173.739Z" fill="#6477B0"/>
<path d="M337.221 156.825C331.53 153.403 325.545 148.385 322.006 150.254C321.089 150.803 320.508 152.855 320.221 155.505C320.547 153.885 321.034 152.705 321.695 152.306C325.234 150.446 331.227 155.455 336.91 158.877C343.852 163.056 357.632 168.422 357.074 173.323C356.452 178.823 357.815 187.628 357.52 192.214C358.931 189.057 357.855 178.656 358.588 172.409C359.17 167.508 344.155 160.996 337.213 156.817L337.221 156.825Z" fill="#A3BAFF"/>
<path d="M357.083 173.332C357.641 168.431 343.869 163.064 336.919 158.886C331.228 155.463 325.243 150.446 321.704 152.315C321.043 152.705 320.548 153.885 320.23 155.513C319.863 158.994 320.006 163.505 320.564 167.027C320.891 169.095 321.879 171.696 324.988 173.739C332.432 178.624 338.848 182.761 345.032 186.482C348.977 188.85 352.835 191.034 356.868 193.07C357.131 192.92 357.354 192.629 357.529 192.231C357.824 187.645 356.461 178.831 357.083 173.34V173.332Z" fill="#778ED3"/>
<path d="M391.178 237.246C385.798 234.006 350.093 212.508 345.359 209.658C344.673 209.243 343.685 209.691 343.55 210.58L343.51 211.045C343.709 210.746 344.323 210.846 344.442 210.921C349.176 213.762 384.882 235.269 390.262 238.509C392.581 239.904 394.454 243.285 394.446 246.06V248.029C394.446 248.594 394.398 249.175 394.247 249.599C394.948 249.125 395.004 248.162 395.004 246.841L394.948 244.764C394.948 241.989 393.49 238.642 391.17 237.246H391.178Z" fill="#D2DDFF"/>
<path d="M343.502 211.204V210.722C343.502 209.891 342.928 208.869 342.235 208.454C337.509 205.605 302.226 184.388 296.846 181.149C296.105 180.7 295.756 180.171 295.179 180.097C294.31 180.097 293.095 180.326 292.76 181.306C293.525 180.783 294.726 181.68 295.937 182.411C301.317 185.651 336.608 206.851 341.326 209.708C343.263 210.88 343.415 213.081 343.423 213.912C343.423 213.912 343.542 211.212 343.51 211.195L343.502 211.204Z" fill="#D2DDFF"/>
<path d="M300.95 178.075C301.54 178.433 302.01 179.288 302.01 179.986V184.206C302.52 184.356 302.911 184.023 302.911 183.342L302.927 178.723C302.927 178.017 302.456 177.162 301.867 176.813L288.628 168.855C288.039 168.506 287.561 168.788 287.561 169.486V170.042C287.608 170.067 287.664 170.084 287.712 170.117L300.95 178.075Z" fill="#D2DDFF"/>
<path d="M398.772 235.095L388.22 228.64C387.63 228.283 387.16 228.574 387.16 229.272C387.16 229.305 387.16 229.513 387.16 229.828C387.216 229.853 387.264 229.87 387.32 229.903L397.872 236.358C398.462 236.715 398.932 237.571 398.932 238.268L398.884 256.419C399.394 256.635 399.793 256.353 399.793 255.713L399.84 237.006C399.84 236.308 399.37 235.444 398.78 235.095H398.772Z" fill="#D2DDFF"/>
<mask id="mask0_2067_298852" style="mask-type:luminance" maskUnits="userSpaceOnUse" x="356" y="166" width="69" height="61">
<path d="M424.477 191.906C424.238 192.239 421.082 207.98 421.082 207.98L390.995 226.281C390.995 226.281 390.923 220.017 390.525 219.934C390.134 219.851 356.357 187.977 356.357 187.977L380.172 166.894L424.477 191.915V191.906Z" fill="white"/>
</mask>
<g mask="url(#mask0_2067_298852)">
<path d="M416.03 197.007C408.897 189.63 400.839 186.947 393.897 182.768C388.207 179.346 387.362 176.953 381.552 176.289C378.97 175.99 371.908 180.758 371.908 180.758C375.622 182.137 381.193 184.322 386.884 187.744C393.826 191.923 402.369 197.655 408.323 202.44C408.435 202.531 408.49 202.739 408.65 202.764C411.216 203.204 416.357 197.322 416.357 197.322C416.253 197.198 416.134 197.107 416.03 197.007Z" fill="#D2DDFF"/>
<path d="M407.302 202.797C407.302 200.089 416.356 197.322 416.356 197.322C416.595 197.613 416.81 197.987 416.994 198.435C416.994 198.435 409.661 206.734 407.191 205.895C406.752 205.746 408.88 203.054 408.641 202.763L407.302 202.797Z" fill="#A3BAFF"/>
<path d="M407.509 204.234C407.509 201.526 416.993 198.436 416.993 198.436C419.057 203.378 417.854 216.985 415.742 218.115L406.76 223.556C408.872 222.426 406.664 212.541 406.664 206.452L407.517 204.234H407.509Z" fill="#6477B0"/>
<path d="M387.121 187.329C381.431 183.907 375.445 178.889 371.906 180.758C370.982 181.307 370.408 183.358 370.121 186.008C370.448 184.389 370.934 183.209 371.596 182.81C375.134 180.941 381.12 185.959 386.818 189.389C393.76 193.568 407.54 198.926 406.982 203.827C406.353 209.327 407.723 218.132 407.429 222.718C408.847 219.561 407.763 209.16 408.505 202.922C409.086 198.021 394.071 191.508 387.129 187.329H387.121Z" fill="#A3BAFF"/>
<path d="M406.983 203.827C407.541 198.926 393.769 193.559 386.819 189.389C381.129 185.967 375.135 180.949 371.597 182.81C370.927 183.2 370.449 184.38 370.122 186.008C369.756 189.489 369.899 194 370.457 197.522C370.784 199.59 371.78 202.19 374.88 204.234C382.324 209.119 388.74 213.255 394.925 216.977C398.87 219.345 402.727 221.529 406.752 223.565C407.023 223.423 407.238 223.133 407.414 222.726C407.709 218.14 406.346 209.335 406.967 203.835L406.983 203.827Z" fill="#778ED3"/>
</g>
<path d="M371.308 201.104L353.476 204.627C353.476 204.627 351.446 206.944 348.598 202.27C346.52 198.851 344.568 193.325 344.568 193.325L350.422 192.263L369.586 192.351C369.745 192.794 371.3 201.112 371.3 201.112L371.308 201.104Z" fill="#5B68B7"/>
<path d="M369.158 192.633C369.158 192.633 372.521 190.042 376.424 193.751C379.772 196.929 395.446 211.441 395.446 211.441L392.193 213.919C392.193 213.919 375.211 205.392 371.784 201.45C369.666 199.012 369.039 197.894 368.698 196.575C367.984 193.807 369.15 192.633 369.15 192.633H369.158Z" fill="white"/>
<path d="M348.376 187.814C346.528 188.981 343.68 185.248 343.68 185.248L331.639 178.885C329.894 177.243 330.441 174.042 332.266 173.221C334.637 172.143 334.614 171.371 337.088 173.221C339.809 175.248 344.576 180.405 345.401 181.242C346.448 182.304 350.605 186.422 348.376 187.822V187.814Z" fill="white"/>
<path d="M364.058 207.178C363.947 210.412 359.576 213.726 359.576 213.726L348.281 210.275C348.281 210.275 341.991 208.256 339.135 203.952C336.922 200.621 335.098 196.446 335.098 196.446L344.87 197.355L361.663 204.258C362.4 204.773 364.082 206.647 364.058 207.178Z" fill="#5B68B7"/>
<path d="M338.944 203.718C338.318 202.986 334.637 198.264 329.616 191.716C327.998 189.6 323.048 186.06 321.826 182.778C321.493 181.877 324.055 177.002 325.325 175.498C325.34 175.473 326.268 176.181 326.34 176.206C328.72 177.115 331.877 178.378 333.431 177.227C334.518 176.423 334.351 175.401 334.002 174.934C333.598 174.404 331.543 174.146 330.56 173.35C330.56 173.35 334.336 172.111 334.47 172.062L339.254 175.023C339.254 175.023 341.966 176.656 342.641 177.597C343.6 178.933 343.243 183.132 343.339 183.245C343.537 183.502 343.783 186.076 345.575 188.265C348.28 191.563 350.843 192.158 350.787 192.102C350.787 192.102 352.088 195.762 348.265 198.819C343.759 202.415 338.936 203.726 338.936 203.726L338.944 203.718Z" fill="#293896"/>
<path d="M359.401 203.84C359.401 203.84 362.781 203.116 364.581 208.176C365.882 211.836 370.261 230.99 370.261 230.99L366.223 230.894C366.223 230.894 358.513 217.99 356.879 213.002C355.983 210.275 356.054 208.489 356.427 207.186C357.22 204.443 359.401 203.856 359.401 203.856V203.84Z" fill="white"/>
<path d="M370.515 226.751C371.015 227.016 371.11 228.738 371.11 228.738C371.11 228.738 376.195 231.988 377.004 232.712C377.448 233.114 377.567 233.79 377.559 234.216C377.551 234.49 377.401 235.23 377.202 235.415C376.687 235.881 375.703 236.332 374.886 236.316C373.316 236.284 370.753 235.447 370.753 235.447C370.388 235.165 363.004 231.087 363.004 231.087C363.004 231.087 362.869 229.639 362.916 229.148C362.916 229.148 362.924 226.694 363.71 226.63C363.86 226.622 364.035 227.257 364.931 228.529C366.153 230.266 368.191 230.628 368.191 230.628C368.191 230.628 366.946 228.826 367.62 228.183C368.572 227.265 369.778 226.356 370.523 226.743L370.515 226.751Z" fill="#0E1A68"/>
<path d="M371.801 232.366C372.063 232.116 373.03 231.223 373.99 230.87C374.077 230.837 374.157 230.813 374.244 230.789C374.355 230.861 374.466 230.934 374.585 231.006C374.426 231.038 374.268 231.071 374.093 231.135C373.26 231.441 372.372 232.229 372.063 232.519C372.007 232.575 371.904 232.583 371.84 232.527C371.793 232.478 371.753 232.406 371.801 232.366Z" fill="#F5F5F5"/>
<path d="M369.555 230.756C369.809 230.507 370.784 229.614 371.736 229.26C371.784 229.244 371.823 229.236 371.871 229.22C371.974 229.292 372.085 229.365 372.204 229.437C372.085 229.461 371.974 229.485 371.847 229.533C371.014 229.839 370.126 230.628 369.816 230.917C369.753 230.973 369.658 230.982 369.594 230.917C369.547 230.877 369.507 230.805 369.555 230.756Z" fill="#F5F5F5"/>
<path d="M370.5 231.473C370.762 231.223 371.729 230.33 372.681 229.976C372.753 229.952 372.824 229.928 372.895 229.912C373.006 229.985 373.118 230.057 373.229 230.129C373.086 230.153 372.943 230.194 372.792 230.242C371.959 230.548 371.071 231.336 370.762 231.626C370.706 231.682 370.603 231.69 370.548 231.626C370.5 231.577 370.46 231.513 370.508 231.465L370.5 231.473Z" fill="#F5F5F5"/>
<path d="M377.552 234.167C377.369 234.795 376.14 235.084 375.323 235.141C371.634 235.414 364.162 231.255 363.813 231.046C363.012 230.555 362.941 230.233 362.941 230.233C362.941 230.233 362.925 231.175 362.964 231.167C362.964 231.167 362.941 232.1 363.393 232.43C363.758 232.695 368.12 234.658 368.898 235.012C368.898 235.012 372.84 236.573 375.164 236.428C375.981 236.38 376.949 236.267 377.417 235.503C377.465 235.422 377.576 234.087 377.544 234.167H377.552Z" fill="#F5F5F5"/>
<path d="M324.816 178.819C327.228 178.433 327.958 181.152 328.124 182.247C328.648 185.617 328.886 195.263 329.044 195.464C331.337 198.352 334.819 205.986 335.66 207.595C335.953 208.15 337.46 210.009 336.08 209.952C334.835 209.904 335.438 211.746 334.065 210.572C330.432 207.483 324.206 199.358 322.722 196.526C322.31 195.746 321.58 185.529 321.58 185.529C320.953 182.641 322.667 179.157 324.809 178.819H324.816Z" fill="white"/>
<path d="M318.233 160.615C317.789 154.34 324.174 152.522 326.8 152.82C333.257 153.552 332.955 159.151 333.042 159.239C333.685 159.851 327.331 166.464 327.696 167.002C331.107 172.03 323.793 169.167 323.793 169.167C321.549 168.169 318.685 164.621 318.32 161.894C318.281 161.588 318.257 160.961 318.233 160.623V160.615Z" fill="#844C14"/>
<path d="M316.354 155.885C316.354 157.446 317.44 158.709 318.773 158.709C320.105 158.709 321.192 157.446 321.192 155.885C321.192 154.324 320.105 153.069 318.773 153.069C317.44 153.069 316.354 154.332 316.354 155.885Z" fill="#844C14"/>
<path d="M334.153 175.032C334.843 175.812 336.778 178.193 334.867 179.714C333.653 180.679 327.411 177.043 325.055 175.772C325.055 175.772 326.03 174.758 326.03 172.988L325.134 165.981L331.345 163.954C331.345 163.954 331.813 171.17 332.305 172.803C332.416 173.173 333.066 173.801 334.145 175.032H334.153Z" fill="white"/>
<path d="M328.275 157.381C331.289 154.815 332.566 156.255 332.939 157.244C333.574 158.95 334.748 164.493 334.748 164.493C335.176 166.954 335.001 168.869 334.248 169.931C333.098 171.548 330.892 171.62 327.965 170.124C325.586 168.901 325.657 166.721 325.467 166.431C325.467 166.431 325.594 165.45 325.602 164.525C325.602 163.157 326.395 158.974 328.267 157.381H328.275Z" fill="white"/>
<path d="M323.279 163.431C324.572 162.844 325.77 164.887 325.77 164.887C325.77 164.887 325.659 166.577 325.96 167.574C326.151 168.178 324.739 168.001 324.112 167.309C324.072 167.261 323.279 166.472 323.232 166.408C322.502 165.531 322.058 163.986 323.287 163.423L323.279 163.431Z" fill="white"/>
<path d="M333.868 209.937C333.868 209.937 337.199 209.164 337.802 209.712C338.405 210.259 340.333 211.876 340.333 211.876C340.333 211.876 342.617 214.941 341.173 216.3C340.237 217.193 336.398 213.742 334.836 212.849C333.931 212.326 333.035 210.717 333.868 209.937Z" fill="white"/>
<path d="M335.47 212.093C336.247 212.704 337.564 212.045 338.112 211.321C338.302 211.071 339.873 212.061 340.69 212.125C341.554 212.181 341.673 211.321 341.57 211.087C341.499 210.91 338.865 209.897 338.215 209.623C336.041 208.69 335.415 209.382 334.867 210.098C334.32 210.814 334.685 211.49 335.462 212.093H335.47Z" fill="white"/>
<path d="M345.965 194.789C345.664 195.368 342.324 194.877 342.618 193.132C343.141 190.01 343.435 189.254 343.744 187.718C344.022 186.342 344.403 184.822 345.299 184.797C346.806 184.765 350.296 184.162 348.599 188.522C348.599 188.522 346.608 193.55 345.973 194.789H345.965Z" fill="white"/>
<path d="M342.862 192.963C342.862 192.963 341.062 194.58 340.76 195.666C340.427 196.857 340.332 201.957 341.22 201.909C341.72 201.884 341.49 199.745 341.49 199.745C341.49 199.745 341.656 201.563 342.109 201.732C342.442 201.86 342.672 200.501 342.672 200.501C342.672 200.501 342.981 201.394 343.568 200.686C344.092 200.05 344.766 198.248 344.893 197.613C345.115 196.527 346.083 194.395 346.083 194.395L342.854 192.971L342.862 192.963Z" fill="white"/>
<path d="M374.727 203.903C374.727 203.903 374.528 204.466 376.17 205.842C378.542 207.805 388.767 215.978 388.767 215.978C388.767 215.978 390.98 218.03 392.868 216.606C394.541 215.343 401.506 209.663 401.506 209.663C401.506 209.663 403.497 207.636 402.275 205.874C401.292 204.45 399.626 204.257 398.293 204.627C396.009 205.255 392.939 207.314 392.939 207.314C392.939 207.314 381.541 196.526 380.723 196.172C379.906 195.81 379.066 196.245 379.066 196.245C379.066 196.245 381.104 197.942 379.391 200.814C377.614 203.807 375.567 204.298 374.719 203.927L374.727 203.903Z" fill="#BDDAFC"/>
<g opacity="0.09" style="mix-blend-mode:multiply">
<path d="M374.726 203.903C375.321 204.161 376.503 204 377.764 202.85C377.891 203.155 378.232 203.662 379.152 204.426C381.524 206.397 391.749 214.563 391.749 214.563C391.749 214.563 392.796 215.528 394.057 215.673C393.557 216.067 393.145 216.389 392.867 216.598C390.979 218.022 388.766 215.971 388.766 215.971C388.766 215.971 378.542 207.805 376.17 205.834C374.528 204.467 374.726 203.895 374.726 203.895V203.903Z" fill="#231F20"/>
</g>
<path d="M326.64 154.769L328.119 153.078C328.119 153.078 329.263 155.141 329.584 156.893C330.935 164.166 325.324 165.204 325.324 165.204C329.601 162.701 326.645 154.757 326.645 154.757L326.64 154.769Z" fill="#844C14"/>
<path d="M483.718 287.066L458.932 301.401L483.758 315.735L508.584 301.401L483.718 287.066Z" fill="#BEC1C1"/>
<path d="M501.007 294.791L483.771 304.732L466.535 294.791L483.744 284.836L501.007 294.791Z" fill="#F4DBAB"/>
<path d="M483.771 310.804L466.535 300.863V294.791L483.771 304.732V310.804Z" fill="#2D3B8B"/>
<path d="M501.007 300.863L483.771 310.804V304.732L501.007 294.791V300.863Z" fill="#C6CEFF"/>
<path d="M502.135 289.377L483.771 299.976L465.406 289.377L483.744 278.777L502.135 289.377Z" fill="#F5F5F5"/>
<path d="M483.771 298.902L466.535 288.961V282.889L483.771 292.83V298.902Z" fill="#2D3B8B"/>
<path d="M501.007 288.961L483.771 298.902V292.83L501.007 282.889V288.961Z" fill="#C6CEFF"/>
<path d="M483.771 306.452L465.406 295.852V289.377L483.771 299.976V306.452Z" fill="#5468E1"/>
<path d="M502.136 295.852L483.771 306.452V299.976L502.136 289.377V295.852Z" fill="#E9ECFF"/>
<path d="M503.478 275.687L483.77 287.066L464.062 275.687L483.743 264.309L503.478 275.687Z" fill="white"/>
<path d="M483.636 268.03L483.757 267.949L497.191 275.674L495.028 276.923L483.757 283.439L483.636 283.372L472.486 276.937L470.363 275.701L483.193 268.285L483.636 268.03Z" fill="#2D3B8B"/>
<path d="M483.77 294.012L464.062 282.633V275.688L483.77 287.066V294.012Z" fill="#5468E1"/>
<path d="M503.479 282.633L483.771 294.012V287.066L503.479 275.688V282.633Z" fill="#E9ECFF"/>
<path d="M483.636 268.029V283.371L470.363 275.7L483.193 268.285L483.636 268.029Z" fill="#C6CEFF"/>
<path d="M495.029 276.924L483.758 283.44L483.637 283.372L472.486 276.937L483.744 270.422L495.029 276.924Z" fill="#5468E1"/>
<path d="M483.541 278.44C483.541 278.44 479.202 251.733 490.608 237.936C502.013 224.153 508.999 218.618 508.999 218.618C508.999 218.618 490.796 222.716 483.703 241.846C476.61 260.976 483.541 278.427 483.541 278.427V278.44Z" fill="#616DBA"/>
<path d="M482.818 257.403C482.818 257.403 487.197 235.734 485.384 222.85C483.57 209.967 471.076 197.46 471.076 197.46C471.076 197.46 476.745 220.943 477.847 230.83C478.572 237.332 480.453 253.52 480.453 253.52L482.818 257.403Z" fill="#616DBA"/>
<path d="M471.09 197.46C471.09 197.46 481.394 223.105 481.971 230.575C482.549 238.044 483.731 252.325 483.731 252.325L482.724 259.149L479.432 244.506L477.296 226.8L471.103 197.446L471.09 197.46Z" fill="#30365F"/>
<path d="M483.542 278.441C483.542 278.441 481.756 250.874 474.407 244.157C467.059 237.44 445 234.377 445 234.377C445 234.377 454.122 231.865 465.151 235.344C476.181 238.824 481.46 245.097 482.333 251.599C483.207 258.102 483.556 278.454 483.556 278.454L483.542 278.441Z" fill="#2D3B8B"/>
</svg>
