<svg width="705" height="468" viewBox="0 0 705 468" fill="none" xmlns="http://www.w3.org/2000/svg">
<rect width="705" height="468" fill="#E0E6F9"/>
<path d="M458.955 171.995L458.211 171.576L457.828 172.039L458.594 172.787L458.955 171.995Z" fill="#0E1A68"/>
<path d="M458.211 171.576C458.053 171.488 457.85 171.51 457.602 171.642L454.242 173.536C453.769 173.8 453.385 174.461 453.385 174.989V183.026C453.385 183.291 453.476 183.489 453.634 183.577C453.791 183.665 453.994 183.643 454.242 183.511L457.602 181.617C458.076 181.353 458.459 180.692 458.459 180.164V172.127C458.459 171.863 458.369 171.664 458.211 171.576Z" fill="#0E1A68"/>
<path d="M454.378 183.973L453.634 183.555L454.491 182.63L455.1 183.114L454.378 183.973Z" fill="#0E1A68"/>
<path d="M458.955 171.994C458.797 171.906 458.594 171.928 458.346 172.06L454.986 173.954C454.513 174.218 454.13 174.879 454.13 175.407V183.444C454.13 183.709 454.22 183.907 454.378 183.995C454.535 184.083 454.738 184.061 454.986 183.929L458.346 182.035C458.82 181.771 459.203 181.11 459.203 180.582V172.545C459.203 172.281 459.113 172.082 458.955 171.994Z" fill="#5B68B7"/>
<path d="M287.721 164.948L291.531 162.79V156.625L287.721 158.783V164.948Z" fill="#0E1A68"/>
<path d="M295.791 159.047C295.791 164.31 299.084 170.585 303.503 174.108C304.157 174.637 304.833 175.099 305.51 175.474C308.419 177.125 311.034 177.125 312.816 175.848C314.327 174.769 315.229 172.765 315.229 169.991C315.229 166.974 314.146 163.605 312.387 160.632C310.629 157.66 308.193 155.062 305.51 153.542C303.052 152.155 300.82 151.935 299.106 152.661C297.077 153.52 295.791 155.744 295.791 159.025V159.047Z" fill="#293896"/>
<path d="M298.651 152.91L312.383 176.137L305.509 180.012L291.777 156.786L298.651 152.91Z" fill="#293896"/>
<path d="M298.654 179.371C297.955 178.975 297.279 178.513 296.648 178.006C292.251 174.483 288.936 168.208 288.936 162.945C288.936 159.664 290.221 157.44 292.251 156.581C293.964 155.855 296.197 156.075 298.654 157.462C301.338 158.982 303.773 161.58 305.532 164.552C307.291 167.525 308.373 170.872 308.373 173.911C308.373 176.685 307.449 178.689 305.96 179.768C304.179 181.045 301.563 181.023 298.654 179.393V179.371ZM298.654 175.32C302.037 177.236 304.788 175.672 304.788 171.863C304.788 168.053 302.037 163.407 298.654 161.492C295.272 159.576 292.521 161.139 292.521 164.949C292.521 168.78 295.272 173.404 298.654 175.32Z" fill="#0C1342"/>
<path d="M298.656 175.319C295.273 173.403 292.522 168.757 292.522 164.948C292.522 161.139 295.273 159.575 298.656 161.491C302.038 163.407 304.789 168.053 304.789 171.862C304.789 175.671 302.038 177.235 298.656 175.319ZM298.656 173.161C300.978 174.482 302.872 173.403 302.872 170.783C302.872 168.163 300.978 164.97 298.656 163.649C296.333 162.328 294.439 163.407 294.439 166.027C294.439 168.647 296.333 171.84 298.656 173.161Z" fill="#95ADFB"/>
<path d="M302.85 170.784C302.85 168.164 300.956 164.971 298.633 163.65C296.31 162.329 294.416 163.408 294.416 166.028C294.416 168.648 296.31 171.841 298.633 173.162C300.956 174.483 302.85 173.404 302.85 170.784Z" fill="white"/>
<path d="M317.282 171.18C317.282 176.443 320.574 182.718 324.993 186.241C325.647 186.77 326.324 187.232 327 187.606C329.909 189.258 332.525 189.258 334.306 187.981C335.817 186.902 336.719 184.898 336.719 182.124C336.719 179.107 335.636 175.738 333.878 172.765C332.119 169.793 329.684 167.194 327 165.675C324.542 164.288 322.31 164.068 320.596 164.794C318.567 165.653 317.282 167.877 317.282 171.158V171.18Z" fill="#293896"/>
<path d="M320.113 165.042L333.846 188.269L326.972 192.144L313.24 168.917L320.113 165.042Z" fill="#293896"/>
<path d="M320.123 191.482C319.424 191.085 318.748 190.623 318.116 190.117C313.719 186.594 310.405 180.318 310.405 175.055C310.405 171.774 311.69 169.55 313.719 168.692C315.433 167.965 317.665 168.185 320.123 169.573C322.807 171.092 325.242 173.69 327.001 176.663C328.759 179.635 329.842 182.982 329.842 186.021C329.842 188.795 328.917 190.799 327.429 191.878C325.648 193.155 323.032 193.133 320.123 191.504V191.482ZM320.123 187.452C323.506 189.368 326.257 187.805 326.257 183.995C326.257 180.186 323.506 175.54 320.123 173.624C316.741 171.708 313.99 173.272 313.99 177.081C313.99 180.89 316.741 185.537 320.123 187.452Z" fill="#0C1342"/>
<path d="M320.123 187.452C316.74 185.536 313.989 180.89 313.989 177.081C313.989 173.271 316.74 171.708 320.123 173.624C323.505 175.539 326.256 180.185 326.256 183.995C326.256 187.804 323.505 189.368 320.123 187.452ZM320.123 185.272C322.445 186.593 324.339 185.514 324.339 182.894C324.339 180.274 322.445 177.081 320.123 175.76C317.8 174.438 315.906 175.517 315.906 178.138C315.906 180.758 317.8 183.951 320.123 185.272Z" fill="#95ADFB"/>
<path d="M324.34 182.916C324.34 180.296 322.446 177.103 320.123 175.782C317.801 174.46 315.907 175.539 315.907 178.16C315.907 180.78 317.801 183.973 320.123 185.294C322.446 186.615 324.34 185.536 324.34 182.916Z" fill="white"/>
<path d="M284.924 147.245L373.654 197.273V213.391L332.119 189.985C332.119 183.379 327.361 175.342 321.521 172.061L298.296 158.959C292.456 155.679 287.698 158.343 287.698 164.949L284.902 163.385V147.267L284.924 147.245Z" fill="#293896"/>
<path d="M393.068 186.352L373.676 197.295V213.413L393.068 202.47V186.352Z" fill="#0E1A68"/>
<path d="M369.233 139.868V199.915L426.529 167.612V107.565L369.233 139.868Z" fill="#293896"/>
<path d="M280.999 90.127V150.174L369.232 199.916V139.869L280.999 90.127Z" fill="#5B68B7"/>
<path d="M338.476 58L426.688 107.742L369.233 139.868L280.999 90.1264L338.476 58Z" fill="#0E1A68"/>
<path d="M391.737 223.344L401.072 217.575V207.027L391.737 212.796V223.344Z" fill="#95ADFB"/>
<path d="M399.088 217.156C399.088 222.419 402.38 228.695 406.8 232.218C407.454 232.746 408.13 233.209 408.807 233.583C411.716 235.234 414.331 235.234 416.113 233.957C417.623 232.878 418.525 230.875 418.525 228.1C418.525 225.083 417.443 221.714 415.684 218.742C413.925 215.769 411.49 213.171 408.807 211.652C406.349 210.264 404.117 210.044 402.403 210.771C400.374 211.63 399.088 213.854 399.088 217.134V217.156Z" fill="#293896"/>
<path d="M401.914 211.017L415.646 234.243L408.773 238.119L395.04 214.892L401.914 211.017Z" fill="#293896"/>
<path d="M401.93 237.458C401.231 237.062 400.554 236.6 399.923 236.093C395.526 232.57 392.211 226.295 392.211 221.032C392.211 217.751 393.497 215.527 395.526 214.668C397.24 213.942 399.472 214.162 401.93 215.549C404.613 217.068 407.048 219.667 408.807 222.639C410.566 225.612 411.648 228.959 411.648 231.998C411.648 234.772 410.724 236.776 409.236 237.855C407.454 239.132 404.839 239.11 401.93 237.48V237.458ZM401.93 233.429C405.312 235.345 408.063 233.781 408.063 229.972C408.063 226.162 405.312 221.516 401.93 219.601C398.548 217.685 395.797 219.248 395.797 223.058C395.797 226.867 398.548 231.513 401.93 233.429Z" fill="#0C1342"/>
<path d="M401.929 233.428C398.547 231.513 395.796 226.867 395.796 223.057C395.796 219.248 398.547 217.685 401.929 219.6C405.312 221.516 408.062 226.162 408.062 229.971C408.062 233.781 405.312 235.344 401.929 233.428ZM401.929 231.248C404.252 232.57 406.146 231.491 406.146 228.87C406.146 226.25 404.252 223.057 401.929 221.736C399.607 220.415 397.713 221.494 397.713 224.114C397.713 226.734 399.607 229.927 401.929 231.248Z" fill="#95ADFB"/>
<path d="M406.146 228.871C406.146 226.251 404.252 223.058 401.93 221.737C399.607 220.416 397.713 221.494 397.713 224.115C397.713 226.735 399.607 229.928 401.93 231.249C404.252 232.57 406.146 231.491 406.146 228.871Z" fill="white"/>
<path d="M421.616 143.083C422.045 142.841 422.653 142.863 423.33 143.259L446.014 156.03C447.795 157.043 449.419 159.135 450.118 161.381L450.817 163.627L459.453 191.129V213.941L420.895 192.208V144.624C420.895 143.876 421.165 143.325 421.594 143.083H421.616Z" fill="#293896"/>
<path d="M459.475 191.13V213.942L417.195 237.767V214.977L459.475 191.13Z" fill="#5B68B7"/>
<path d="M459.475 191.13L450.793 163.693L408.537 187.518L417.195 214.977L459.475 191.13Z" fill="#5B68B7"/>
<path d="M457.986 190.579L417.94 213.149L410.025 188.091L450.072 165.499L457.986 190.579Z" fill="#BDDAFC"/>
<path d="M379.629 166.754L421.592 143.083C422.021 142.841 422.629 142.863 423.306 143.259L445.99 156.03C447.771 157.043 449.395 159.135 450.094 161.381L450.793 163.627V163.671L408.514 187.496L379.606 166.732L379.629 166.754Z" fill="#5B68B7"/>
<path d="M417.24 230.126L458.46 206.961L459.565 206.345L462 207.666L419.698 231.447V239L417.24 237.678V230.126Z" fill="white"/>
<path d="M419.698 231.447L462 207.666V215.219L419.698 239V231.447Z" fill="#0C1342"/>
<path d="M413.318 235.499V232.35C413.318 231.117 413.16 229.84 412.844 228.541C411.807 224.093 409.101 219.557 405.696 216.452C404.704 215.55 403.644 214.779 402.562 214.162C401.164 213.37 399.856 212.929 398.638 212.797C394.647 212.313 391.806 215.109 391.806 220.24V223.477L378.638 216.056V168.472C378.638 166.953 379.72 166.358 381.073 167.107L403.757 179.9C405.538 180.913 407.162 183.005 407.861 185.251L417.219 214.999V237.811L413.34 235.631V235.543L413.318 235.499Z" fill="#293896"/>
<path d="M400.87 184.788V206.037L406.417 209.208L408.626 210.441L413.136 212.995L414.512 213.766L410.656 201.501L406.394 187.959L400.87 184.788Z" fill="#BDDAFC"/>
<path d="M380.847 175.21V212.466C380.847 213.898 381.636 215.219 382.899 215.945L387.566 218.566C388.491 219.094 389.641 218.566 389.844 217.531C390.497 214.316 392.347 212.004 394.962 211.035C395.819 210.727 396.744 210.573 397.736 210.573C397.848 210.573 398.006 210.573 398.209 210.595C398.976 210.661 399.652 210.066 399.652 209.318V185.625C399.652 184.722 399.156 183.863 398.345 183.423L382.312 174.373C381.658 173.998 380.847 174.461 380.847 175.21Z" fill="#5B68B7"/>
<path d="M380.847 194.763V175.21C380.847 174.461 381.658 173.998 382.312 174.373L398.345 183.423C399.156 183.885 399.652 184.722 399.652 185.625V205.354L380.847 194.741V194.763Z" fill="#BDDAFC"/>
<path d="M448.517 206.675L456.792 202.007C457.176 201.787 457.469 201.281 457.469 200.862V195.556C457.469 195.137 457.176 194.961 456.792 195.181L448.517 199.849C448.134 200.07 447.84 200.576 447.84 200.994V206.301C447.84 206.719 448.134 206.896 448.517 206.675Z" fill="#BDDAFC"/>
<path d="M448.223 207.115C448.381 207.115 448.539 207.071 448.719 206.983L456.995 202.315C457.491 202.029 457.852 201.412 457.852 200.862V195.555C457.852 194.895 457.243 194.52 456.611 194.873L448.336 199.541C447.84 199.827 447.479 200.443 447.479 200.994V206.301C447.479 206.785 447.795 207.137 448.223 207.137V207.115ZM457.107 195.423C457.107 195.423 457.107 195.467 457.107 195.533V200.84C457.107 201.126 456.882 201.522 456.611 201.677L448.336 206.345C448.336 206.345 448.246 206.389 448.223 206.389C448.223 206.389 448.223 206.345 448.223 206.279V200.972C448.223 200.686 448.449 200.289 448.719 200.135L456.995 195.467C456.995 195.467 457.085 195.423 457.107 195.423Z" fill="#0E1A68"/>
<path d="M420.374 222.486L428.65 217.818C429.033 217.598 429.326 217.091 429.326 216.673V211.366C429.326 210.948 429.033 210.772 428.65 210.992L420.374 215.66C419.991 215.88 419.698 216.387 419.698 216.805V222.112C419.698 222.53 419.991 222.706 420.374 222.486Z" fill="#BDDAFC"/>
<path d="M420.059 222.926C420.217 222.926 420.375 222.882 420.555 222.794L428.831 218.126C429.327 217.839 429.688 217.223 429.688 216.672V211.366C429.688 210.705 429.079 210.331 428.447 210.683L420.172 215.351C419.676 215.637 419.315 216.254 419.315 216.804V222.111C419.315 222.596 419.631 222.948 420.059 222.948V222.926ZM428.943 211.256C428.943 211.256 428.943 211.3 428.943 211.366V216.672C428.943 216.959 428.718 217.355 428.447 217.509L420.172 222.177C420.172 222.177 420.082 222.221 420.059 222.221C420.059 222.221 420.059 222.177 420.059 222.111V216.804C420.059 216.518 420.285 216.122 420.555 215.968L428.831 211.3C428.831 211.3 428.921 211.256 428.943 211.256Z" fill="#0E1A68"/>
<path d="M452.191 209.229L456.814 206.675C457.197 206.455 457.49 205.948 457.49 205.53V203.812C457.49 203.394 457.197 203.218 456.814 203.438L452.191 205.992C451.808 206.213 451.515 206.719 451.515 207.137V208.855C451.515 209.273 451.808 209.449 452.191 209.229Z" fill="white"/>
<path d="M420.375 227.132L424.997 224.577C425.381 224.357 425.674 223.851 425.674 223.432V221.715C425.674 221.296 425.381 221.12 424.997 221.34L420.375 223.895C419.991 224.115 419.698 224.621 419.698 225.04V226.757C419.698 227.176 419.991 227.352 420.375 227.132Z" fill="white"/>
<path d="M430.951 210.991C430.951 211.344 431.199 211.476 431.492 211.299L445.72 203.284C446.014 203.108 446.262 202.69 446.262 202.36C446.262 202.007 446.014 201.875 445.72 202.051L431.492 210.066C431.199 210.243 430.951 210.661 430.951 210.991Z" fill="#0E1A68"/>
<path d="M430.951 213.083C430.951 213.435 431.199 213.567 431.492 213.391L445.72 205.376C446.014 205.2 446.262 204.782 446.262 204.451C446.262 204.099 446.014 203.967 445.72 204.143L431.492 212.158C431.199 212.334 430.951 212.753 430.951 213.083Z" fill="#0E1A68"/>
<path d="M430.951 215.196C430.951 215.549 431.199 215.681 431.492 215.505L445.72 207.49C446.014 207.313 446.262 206.895 446.262 206.565C446.262 206.212 446.014 206.08 445.72 206.256L431.492 214.271C431.199 214.448 430.951 214.866 430.951 215.196Z" fill="#0E1A68"/>
<path d="M430.951 217.311C430.951 217.663 431.199 217.795 431.492 217.619L445.72 209.604C446.014 209.428 446.262 209.009 446.262 208.679C446.262 208.327 446.014 208.195 445.72 208.371L431.492 216.386C431.199 216.562 430.951 216.98 430.951 217.311Z" fill="#0E1A68"/>
<path d="M430.951 219.425C430.951 219.777 431.199 219.909 431.492 219.733L445.72 211.718C446.014 211.542 446.262 211.123 446.262 210.793C446.262 210.441 446.014 210.309 445.72 210.485L431.492 218.5C431.199 218.676 430.951 219.095 430.951 219.425Z" fill="#0E1A68"/>
<path d="M408.807 214.294C408.942 214.294 409.077 214.25 409.167 214.162C409.393 213.964 409.415 213.611 409.212 213.391L406.552 210.529C406.349 210.308 405.988 210.286 405.762 210.484C405.537 210.683 405.514 211.035 405.717 211.255L408.378 214.118C408.491 214.228 408.649 214.294 408.784 214.294H408.807Z" fill="#0E1A68"/>
<path d="M408.018 200.685L407.273 200.245L406.89 200.73L407.657 201.478L408.018 200.685Z" fill="#0E1A68"/>
<path d="M407.273 200.245C407.116 200.157 406.913 200.179 406.665 200.311L403.305 202.205C402.831 202.469 402.448 203.13 402.448 203.658V211.695C402.448 211.96 402.538 212.158 402.696 212.246C402.854 212.334 403.057 212.312 403.305 212.18L406.665 210.286C407.138 210.022 407.521 209.361 407.521 208.833V200.796C407.521 200.531 407.431 200.333 407.273 200.245Z" fill="#0E1A68"/>
<path d="M403.439 212.642L402.695 212.224L403.575 211.299L404.184 211.783L403.439 212.642Z" fill="#0E1A68"/>
<path d="M408.018 200.686C407.86 200.598 407.657 200.62 407.409 200.752L404.049 202.645C403.575 202.91 403.192 203.57 403.192 204.099V212.136C403.192 212.4 403.282 212.598 403.44 212.686C403.598 212.774 403.801 212.752 404.049 212.62L407.409 210.727C407.882 210.462 408.266 209.802 408.266 209.273V201.236C408.266 200.972 408.175 200.774 408.018 200.686Z" fill="#5B68B7"/>
<path d="M338.602 151.849C338.602 158.935 330.263 162.553 321 159C311.707 155.427 304.971 146.035 305 138.929C305 131.823 313.237 127.947 322.5 131.5C334.5 137 338.602 144.743 338.602 151.849Z" fill="white"/>
<path d="M336.625 151.454C336.596 158.124 329.92 160.808 321.757 157.463C313.565 154.118 306.948 145.982 306.977 139.313C306.977 132.643 313.682 129.958 321.845 133.324C330.037 136.669 336.655 144.785 336.625 151.454ZM312.02 143.091L319.308 146.065V151.991L324.031 153.932V148.006L331.319 150.979V147.118L324.06 144.144V138.218L319.338 136.277V142.203L312.049 139.23V143.091H312.02Z" fill="#0E1A68"/>
<path d="M286.443 188.566C286.882 187.992 289.621 185.475 289.96 185.753C290.677 186.341 290.341 189.069 289.695 190.172C289.102 191.184 286.476 193.959 286.361 193.63C286.144 193.004 285.908 189.266 286.443 188.566Z" fill="#BBD2E9"/>
<path d="M200.916 185.023L201.133 185.392L214.148 177.878L214.305 177.292L200.916 185.023Z" fill="#151B1C"/>
<path opacity="0.7" d="M212.666 176.093L211.158 175.088L207.288 174.01L201.01 185.275L209.531 190.168H210.436L213.45 182.222L215.232 178.73L212.666 176.093Z" fill="#0E1A68"/>
<path d="M209.661 199.98L198.713 205.317C197.145 206.228 197.633 213.276 198.565 216.253L217.804 205.244C215.549 203.202 212.728 201.565 209.661 199.98Z" fill="#293896"/>
<path d="M261.797 231.001C261.261 230.51 260.728 230.012 260.208 229.502L252.056 233.952C250.446 234.888 250.21 242.006 251.234 244.617L259.549 239.532L265.127 234.978C264.015 233.645 262.923 232.303 261.797 231.001Z" fill="#293896"/>
<path d="M220.171 213.728C219.39 211.96 218.319 210.271 217.064 208.842C216.005 207.635 214.815 206.615 213.556 205.889C211.323 204.6 209.3 204.48 207.842 205.33L203.424 207.897C204.884 207.049 206.907 207.168 209.14 208.456C210.398 209.183 211.59 210.204 212.648 211.41C213.903 212.84 214.975 214.528 215.755 216.296C216.636 218.289 217.148 220.38 217.142 222.311C217.134 224.843 216.241 226.623 214.8 227.461L219.218 224.894C220.659 224.056 221.552 222.276 221.56 219.744C221.565 217.812 221.052 215.721 220.171 213.728Z" fill="#0E1A68"/>
<path d="M209.137 208.454C204.702 205.894 201.096 207.949 201.082 213.038C201.067 218.134 204.65 224.34 209.086 226.901C213.521 229.461 217.127 227.406 217.141 222.309C217.156 217.221 213.573 211.015 209.137 208.454Z" fill="#0E1A68"/>
<path opacity="0.5" d="M209.129 211.061C205.947 209.224 203.36 210.698 203.35 214.349C203.34 218.006 205.91 222.458 209.092 224.295C212.274 226.132 214.861 224.659 214.872 221.001C214.883 217.351 212.312 212.898 209.129 211.061Z" fill="#0E1A68"/>
<path d="M206.517 210.703L206.744 210.69L208.201 210.855C208.201 210.855 208.518 210.899 208.297 210.958C207.248 211.241 206.552 212.267 206.517 213.874C206.456 216.606 208.328 219.977 210.697 221.404C212.134 222.271 213.425 222.222 214.23 221.441C214.391 221.285 214.13 221.817 214.13 221.817L213.653 222.666C212.803 224.181 211.012 224.509 208.972 223.278C206.167 221.587 203.951 217.595 204.021 214.361C204.073 212.06 204.82 210.65 206.517 210.703Z" fill="#5B68B7"/>
<path d="M209.237 211.205C212.215 213.001 214.57 217.24 214.494 220.674C214.419 224.108 211.944 225.436 208.966 223.641C205.988 221.845 203.633 217.606 203.709 214.172C203.783 210.738 206.258 209.41 209.237 211.205ZM209.228 211.567C206.424 209.876 204.093 211.127 204.022 214.36C203.951 217.595 206.168 221.586 208.972 223.276C211.777 224.968 214.109 223.716 214.179 220.483C214.251 217.25 212.034 213.258 209.228 211.567Z" fill="#BBD2E9"/>
<mask id="mask0_2067_298510" style="mask-type:luminance" maskUnits="userSpaceOnUse" x="204" y="210" width="11" height="15">
<path d="M209.228 211.567C206.424 209.876 204.093 211.127 204.021 214.36C203.951 217.594 206.167 221.586 208.972 223.276C211.776 224.967 214.108 223.716 214.179 220.483C214.25 217.25 212.034 213.258 209.228 211.567Z" fill="white"/>
</mask>
<g mask="url(#mask0_2067_298510)">
<path d="M210.447 211.47C212.986 213.041 214.966 216.705 214.867 219.653C214.769 222.6 212.63 223.716 210.09 222.145C207.551 220.575 205.57 216.911 205.67 213.963C205.768 211.016 207.906 209.9 210.447 211.47Z" fill="#293896"/>
<path d="M209.97 213.116C211.838 214.272 213.295 216.968 213.223 219.136C213.151 221.305 211.577 222.127 209.709 220.971C207.84 219.815 206.384 217.12 206.456 214.951C206.529 212.782 208.102 211.961 209.97 213.116Z" fill="#BBD2E9"/>
<path d="M206.465 214.535C206.465 214.509 206.466 214.482 206.467 214.456C206.54 212.286 207.948 211.316 209.74 212.046C209.961 212.136 210.188 212.252 210.417 212.394C211.614 213.134 212.659 214.435 213.322 215.867C213.825 216.951 214.109 218.111 214.074 219.161C213.992 221.599 212.224 222.522 210.123 221.223L209.711 220.972C211.58 222.128 213.154 221.307 213.226 219.137C213.257 218.203 213.005 217.171 212.557 216.206C211.967 214.932 211.037 213.775 209.973 213.116C209.768 212.99 209.566 212.887 209.37 212.806C207.776 212.157 206.522 213.02 206.458 214.95C206.458 214.974 206.457 214.996 206.457 215.02L206.465 214.535Z" fill="#5B68B7"/>
</g>
<path d="M246.752 231.564L222.199 216.999L219.536 221.574L219.512 226.238L251.283 244.631V239.76L246.752 231.564Z" fill="#C7C7C7"/>
<path d="M272.13 243.727C271.348 241.959 270.278 240.27 269.022 238.841C267.963 237.634 266.773 236.614 265.514 235.888C263.282 234.599 261.259 234.479 259.799 235.329L255.381 237.896C256.841 237.048 258.864 237.167 261.097 238.455C262.356 239.181 263.547 240.203 264.605 241.408C265.86 242.837 266.932 244.526 267.712 246.294C268.593 248.287 269.105 250.378 269.099 252.309C269.091 254.841 268.198 256.621 266.757 257.459L271.175 254.892C272.616 254.054 273.509 252.274 273.517 249.742C273.523 247.811 273.01 245.72 272.13 243.727Z" fill="#0E1A68"/>
<path d="M261.096 238.453C256.661 235.893 253.055 237.948 253.041 243.036C253.027 248.132 256.609 254.338 261.045 256.898C265.48 259.459 269.086 257.403 269.1 252.307C269.114 247.22 265.532 241.014 261.096 238.453Z" fill="#0E1A68"/>
<path opacity="0.5" d="M261.088 241.059C257.906 239.222 255.319 240.696 255.309 244.347C255.299 248.004 257.869 252.457 261.051 254.294C264.233 256.13 266.82 254.657 266.83 251C266.842 247.349 264.271 242.896 261.088 241.059Z" fill="#0E1A68"/>
<path d="M258.476 240.702L258.704 240.689L260.161 240.854C260.161 240.854 260.478 240.898 260.257 240.957C259.207 241.24 258.511 242.266 258.476 243.873C258.417 246.605 260.288 249.976 262.658 251.403C264.095 252.269 265.386 252.221 266.191 251.44C266.352 251.284 266.09 251.816 266.09 251.816L265.614 252.665C264.764 254.18 262.973 254.508 260.933 253.277C258.128 251.586 255.912 247.594 255.982 244.36C256.031 242.059 256.78 240.649 258.476 240.702Z" fill="#5B68B7"/>
<path d="M261.196 241.204C264.174 243 266.529 247.239 266.453 250.673C266.378 254.107 263.903 255.435 260.925 253.64C257.947 251.844 255.592 247.605 255.668 244.171C255.742 240.737 258.217 239.409 261.196 241.204ZM261.187 241.566C258.383 239.875 256.051 241.126 255.981 244.359C255.91 247.594 258.127 251.585 260.931 253.275C263.736 254.967 266.068 253.715 266.138 250.482C266.208 247.249 263.992 243.257 261.187 241.566Z" fill="#BBD2E9"/>
<mask id="mask1_2067_298510" style="mask-type:luminance" maskUnits="userSpaceOnUse" x="255" y="240" width="12" height="15">
<path d="M261.187 241.566C258.383 239.875 256.052 241.126 255.98 244.359C255.91 247.593 258.126 251.585 260.931 253.275C263.735 254.966 266.067 253.715 266.137 250.482C266.208 247.249 263.993 243.257 261.187 241.566Z" fill="white"/>
</mask>
<g mask="url(#mask1_2067_298510)">
<path d="M262.406 241.469C264.945 243.04 266.925 246.704 266.826 249.652C266.728 252.599 264.589 253.715 262.049 252.144C259.51 250.574 257.529 246.91 257.629 243.962C257.728 241.015 259.866 239.899 262.406 241.469Z" fill="#293896"/>
<path d="M261.931 243.115C263.799 244.271 265.256 246.967 265.184 249.135C265.112 251.304 263.538 252.126 261.67 250.97C259.801 249.814 258.345 247.119 258.417 244.95C258.488 242.781 260.063 241.96 261.931 243.115Z" fill="#BBD2E9"/>
<path d="M258.423 244.534C258.423 244.508 258.424 244.481 258.425 244.455C258.498 242.285 259.908 241.315 261.697 242.045C261.918 242.135 262.145 242.251 262.374 242.393C263.571 243.133 264.616 244.432 265.279 245.865C265.782 246.949 266.066 248.109 266.031 249.159C265.949 251.597 264.181 252.52 262.08 251.221L261.668 250.97C263.537 252.126 265.111 251.305 265.183 249.135C265.214 248.202 264.962 247.169 264.514 246.205C263.924 244.931 262.994 243.774 261.93 243.115C261.725 242.989 261.523 242.886 261.327 242.805C259.733 242.156 258.479 243.019 258.415 244.949C258.414 244.973 258.414 244.995 258.414 245.019L258.423 244.534Z" fill="#5B68B7"/>
</g>
<path d="M315.806 224.409C315.788 224.147 315.703 223.893 315.533 223.694C315.269 223.382 314.954 223.191 314.95 223.109C314.918 222.246 314.744 221.727 314.744 221.727C314.489 221.145 314.111 221.125 313.934 221.025C313.531 220.795 313.48 220.873 313.346 220.397C313.005 219.187 312.762 218.031 312.365 216.186C311.842 213.754 309.978 211.012 308.682 209.822C303.596 205.159 290.308 193.746 290.308 193.746C290.011 193.381 275.647 178.903 271.008 176.218L238.532 157.475C237.433 156.842 236.08 156.842 234.982 157.475L209.263 172.324C208.552 172.735 208.234 172.918 207.621 173.457C207.6 173.476 207.404 173.668 207.266 173.829C207.288 173.908 207.303 173.993 207.316 174.078C208.734 174.768 215.161 178.593 215.161 178.593C214.27 179.929 210.277 190.589 210.277 190.589L200.841 185.428C200.101 189.293 199.349 194.501 198.728 199.486C198.728 199.486 195.941 200.39 195.403 203.654C195.207 204.845 194.982 208.518 195.001 210.268C195.044 214.343 198.571 216.197 198.571 216.197C198.933 210.668 201.116 200.62 210.282 205.96C210.384 206.019 210.487 206.08 210.59 206.143C215.428 209.129 219.261 215.841 219.536 221.573L251.29 239.95C251.559 234.259 255.679 232.054 260.635 234.916C260.74 234.977 260.843 235.038 260.948 235.102C265.776 238.076 271.28 243.483 271.377 255.873C280.022 259.426 288.314 255.472 297.436 250.998C306.929 246.343 313.941 240.503 315.592 235.868C315.761 235.395 315.81 234.895 315.814 234.394C315.827 232.058 315.873 225.405 315.806 224.409ZM268.299 182.445C270.493 180.8 271.93 179.517 272.593 178.897C276.868 182.588 285.342 190.838 287.141 193.259L268.299 182.445Z" fill="#5B68B7"/>
<path d="M220.729 181.701C228.504 186.19 236.643 190.873 240.17 192.913C241.206 193.512 242.059 194.366 242.647 195.409C244.989 199.566 249.733 209.754 251.082 213.345L251.89 214.557L253.033 214.144C250.814 208.564 247.663 203.546 245.485 197.953C243.555 192.998 240.227 191.289 235.75 188.727C230.571 185.763 216.409 177.581 209.892 173.818C208.571 173.055 207.648 173.435 207.648 173.435C208.211 172.931 208.687 172.657 209.26 172.325C208.551 172.735 208.233 172.918 207.62 173.457C207.599 173.476 207.403 173.668 207.265 173.829C207.287 173.908 207.302 173.993 207.315 174.078C208.733 174.768 215.16 178.592 215.16 178.592C214.269 179.929 210.276 190.589 210.276 190.589L204.188 187.402C204.188 187.402 206.651 193.61 210.574 203.461C210.574 203.461 220.451 214.345 223.631 223.947L249.001 238.595L251.29 239.917C251.322 239.289 251.408 238.713 251.531 238.171L224.807 222.793L219.637 210.575L221.132 196.989L217.859 195.13C216.794 194.535 218.753 180.561 220.729 181.701Z" fill="#293896"/>
<path opacity="0.6" d="M285.712 239.651C279.088 239.404 274.847 238.985 268.521 237.06C255.137 232.989 230.327 219.975 199.372 194.602C199.146 196.217 198.93 197.863 198.728 199.488C198.728 199.488 195.941 200.391 195.403 203.657C195.207 204.848 194.982 208.521 195.001 210.271C195.044 214.346 198.571 216.2 198.571 216.2C198.933 210.671 201.116 200.623 210.282 205.963C210.384 206.022 210.487 206.082 210.59 206.146C215.428 209.131 219.261 215.843 219.536 221.576L219.512 226.24L251.284 244.633V239.95C251.559 234.263 255.68 232.058 260.635 234.921C260.74 234.981 260.843 235.042 260.948 235.106C265.776 238.081 271.28 243.486 271.377 255.877C277.585 258.429 283.614 257.101 289.898 254.496C289.196 249.313 288.622 244.113 285.712 239.651Z" fill="#5B68B7"/>
<path d="M308.24 209.363C301.068 202.657 290.308 193.746 290.308 193.746C290.226 193.647 289.079 192.479 287.386 190.804C289.921 197.501 267.365 212.671 253.033 214.145C256.751 219.943 260.911 223.714 265.549 227.981C273.368 235.174 284.74 237.11 294.369 232.618C299.196 230.365 303.886 227.612 307.498 224.814C312.437 220.985 312.805 213.631 308.24 209.363Z" fill="#BBD2E9"/>
<path d="M288.185 192.649C282.853 187.296 278.146 182.832 273.173 178.609C273.09 178.537 272.969 178.537 272.89 178.614C272.82 178.682 272.718 178.78 272.594 178.897C276.868 182.587 285.342 190.837 287.141 193.258L268.299 182.444C263.886 185.753 256.42 190.519 246.044 194.276C245.907 194.326 245.843 194.486 245.914 194.614L255.945 213.016C256.576 214.172 257.919 214.572 259.191 214.229C263.763 212.993 274.968 209.105 285.804 199.474C287.471 197.991 289.94 194.411 288.185 192.649Z" fill="#101616"/>
<path d="M214.911 178.232L214.198 177.769L200.934 185.427L209.851 190.659L212.809 183.577L215.066 178.75L214.911 178.232Z" fill="#0E1A68"/>
<g opacity="0.5">
<path opacity="0.5" d="M251.16 214.04L250.684 214.17C250.694 214.205 251.653 217.781 251.359 219.496C251.116 220.904 249.754 231.066 249.193 235.279C249.1 235.976 248.331 236.349 247.721 235.999L224.809 222.794L219.638 210.576L221.208 196.188L220.648 195.899L219.094 210.6L224.302 223.072L247.47 236.423C248.386 236.951 249.542 236.389 249.681 235.341C250.279 230.858 251.61 220.938 251.845 219.578C252.159 217.757 251.202 214.191 251.16 214.04Z" fill="#0E1A68"/>
</g>
<path d="M315.824 224.755C315.819 224.635 315.816 224.513 315.808 224.409C315.79 224.147 315.705 223.893 315.535 223.694C315.27 223.382 314.96 223.191 314.952 223.109C312.302 230.731 298.887 238.878 287.863 242.085C278.75 244.735 271.062 243.978 271.062 243.978C271.062 243.991 272.482 244.843 276.125 244.966C293.432 245.551 313.005 231.94 315.824 224.755Z" fill="#293896"/>
<path d="M251.417 214.502L217.859 195.304C216.794 194.705 218.754 180.731 220.729 181.872C228.504 186.361 236.643 191.044 240.17 193.083C241.206 193.683 242.059 194.537 242.647 195.58C245.263 200.219 250.883 212.4 251.417 214.502Z" fill="#101616"/>
<mask id="mask2_2067_298510" style="mask-type:luminance" maskUnits="userSpaceOnUse" x="217" y="178" width="72" height="37">
<path d="M247.761 206.401C248.369 207.723 248.961 209.052 249.54 210.386C249.997 211.463 250.46 212.566 250.845 213.653L246.16 210.952L247.727 206.329C247.738 206.352 247.751 206.376 247.761 206.401ZM246.924 204.609C245.972 202.569 245.003 200.536 243.991 198.527L242.991 196.592C242.633 195.951 242.329 195.294 241.896 194.752C241.468 194.199 240.944 193.718 240.361 193.332C239.768 192.96 239.111 192.6 238.488 192.234L230.923 187.853L230.58 187.642L223.596 183.607L221.555 196.82L225.85 199.242L244.999 210.282L246.924 204.609ZM222.248 182.828L220.618 181.885C219.375 181.142 217.084 194.018 218.215 194.985L220.215 196.064L222.248 182.828ZM286.964 197.97C286.051 199.2 284.734 200.142 283.511 201.217C282.873 201.723 282.227 202.234 281.575 202.751C280.904 203.243 280.228 203.74 279.546 204.241C274.021 208.152 267.511 211.5 260.612 213.621C260.184 213.754 259.748 213.876 259.31 213.996C258.886 214.124 258.466 214.178 258.041 214.14C257.189 214.069 256.422 213.573 256.055 212.793C255.195 211.208 254.338 209.629 253.489 208.063C251.789 204.931 250.117 201.849 248.498 198.865C247.696 197.384 246.906 195.929 246.134 194.505L246.346 194.424L246.915 194.208C247.293 194.064 247.669 193.919 248.042 193.776C248.792 193.498 249.526 193.202 250.241 192.89C253.126 191.703 255.778 190.404 258.176 189.117C262.983 186.554 266.716 183.941 269.226 181.999C271.737 180.053 273.032 178.76 273.032 178.76C273.227 178.919 273.473 179.13 273.796 179.406C274.434 179.963 275.371 180.781 276.562 181.822C278.928 183.924 282.242 187.001 286.101 190.818C286.582 191.297 287.073 191.784 287.575 192.282C287.822 192.531 288.094 192.782 288.28 193.04C288.459 193.313 288.579 193.631 288.6 193.974C288.678 195.37 287.871 196.768 286.964 197.97Z" fill="white"/>
</mask>
<g mask="url(#mask2_2067_298510)">
<path d="M278.011 209.122C277.959 208.858 277.875 208.576 277.765 208.294C277.741 208.233 277.717 208.174 277.69 208.116C277.505 207.697 277.261 207.327 276.967 206.992C276.339 206.277 275.48 205.714 274.469 205.13C273.848 204.772 273.17 204.405 272.452 203.99C270.6 202.921 264.759 199.842 262.913 198.882C262.728 198.787 262.56 198.783 262.436 198.856L247.982 207.256C248.107 207.184 248.275 207.187 248.46 207.282C250.307 208.242 256.147 211.32 257.999 212.391C258.718 212.805 259.395 213.172 260.016 213.53C261.027 214.115 261.885 214.676 262.514 215.393C262.808 215.728 263.053 216.096 263.237 216.517C263.262 216.575 263.288 216.634 263.311 216.694C263.422 216.977 263.506 217.258 263.558 217.522C263.734 218.401 263.505 219.01 263.061 219.268L277.515 210.868C277.958 210.609 278.186 210 278.011 209.122Z" fill="url(#paint0_linear_2067_298510)"/>
<path d="M263.558 217.521C263.506 217.257 263.422 216.976 263.311 216.693C262.759 215.271 261.567 214.425 260.016 213.529C259.395 213.171 258.717 212.804 257.999 212.39C256.146 211.32 250.306 208.242 248.46 207.281C248.093 207.091 247.791 207.265 247.77 207.674C247.652 210.137 248.795 211.371 250.347 212.267C251.617 213 254.256 214.163 255.592 214.933C257.968 216.305 260.042 217.887 261.219 218.853C261.354 218.961 261.487 219.054 261.618 219.129C262.843 219.837 263.878 219.129 263.558 217.521Z" fill="#2F2F2F"/>
<path d="M265.515 194.402C263.143 182.318 264.507 182.194 263.878 179.841C263.834 179.68 263.778 179.523 263.712 179.371C263.572 179.057 263.386 178.767 263.167 178.515C262.95 178.27 262.703 178.062 262.434 177.907C261.974 177.642 261.512 177.549 261.205 177.728L246.752 186.127C247.06 185.949 247.521 186.042 247.981 186.307C248.248 186.461 248.497 186.669 248.712 186.915C248.932 187.166 249.119 187.456 249.257 187.771C249.324 187.923 249.381 188.08 249.423 188.24C250.053 190.593 248.688 190.717 251.06 202.802C251.539 205.218 251.547 207.189 251.537 208.344C251.537 208.458 251.495 208.539 251.431 208.578L265.884 200.178C265.95 200.141 265.99 200.059 265.99 199.945C266 198.79 265.994 196.818 265.515 194.402Z" fill="url(#paint1_linear_2067_298510)"/>
<path d="M251.062 202.802C248.69 190.717 250.054 190.594 249.425 188.241C249.204 187.42 248.656 186.697 247.981 186.307C247.222 185.869 246.455 185.9 246.393 186.851C246.152 190.955 247.137 197.573 247.55 202.121C247.683 203.592 247.889 205.098 247.833 206.308C247.825 206.538 247.982 206.823 248.185 206.941L251.183 208.552C251.379 208.665 251.537 208.568 251.537 208.342C251.547 207.19 251.539 205.218 251.062 202.802Z" fill="#2F2F2F"/>
<path d="M260.503 219.23C260.452 218.966 260.367 218.685 260.257 218.402C260.233 218.342 260.209 218.283 260.183 218.225C259.997 217.804 259.753 217.436 259.459 217.1C258.831 216.386 257.973 215.823 256.961 215.238C256.34 214.88 255.662 214.513 254.944 214.099C253.092 213.029 247.251 209.951 245.405 208.99C245.221 208.894 245.052 208.891 244.928 208.964L230.475 217.363C230.599 217.291 230.767 217.294 230.952 217.389C232.798 218.351 238.639 221.428 240.491 222.498C241.21 222.913 241.887 223.28 242.508 223.638C243.519 224.222 244.377 224.785 245.006 225.5C245.3 225.835 245.543 226.205 245.729 226.625C245.755 226.682 245.78 226.741 245.804 226.802C245.914 227.084 245.998 227.366 246.05 227.63C246.226 228.508 245.996 229.117 245.554 229.375L260.007 220.975C260.449 220.718 260.678 220.108 260.503 219.23Z" fill="url(#paint2_linear_2067_298510)"/>
<path d="M248.006 204.511C245.634 192.427 246.998 192.303 246.369 189.949C246.325 189.789 246.269 189.632 246.203 189.479C246.063 189.165 245.877 188.875 245.657 188.624C245.441 188.378 245.194 188.17 244.926 188.016C244.466 187.751 244.004 187.658 243.697 187.836L229.244 196.236C229.551 196.057 230.013 196.15 230.473 196.415C230.741 196.57 230.989 196.777 231.206 197.023C231.425 197.275 231.613 197.565 231.751 197.879C231.817 198.031 231.874 198.188 231.917 198.349C232.546 200.701 231.182 200.825 233.554 212.91C234.033 215.326 234.04 217.298 234.03 218.452C234.03 218.567 233.989 218.647 233.925 218.685L248.378 210.285C248.443 210.248 248.483 210.166 248.483 210.053C248.492 208.898 248.485 206.927 248.006 204.511Z" fill="url(#paint3_linear_2067_298510)"/>
<path d="M233.552 212.91C231.18 200.827 232.545 200.703 231.915 198.349C231.694 197.529 231.146 196.805 230.471 196.415C229.713 195.977 228.945 196.008 228.883 196.961C228.642 201.063 229.627 207.682 230.04 212.231C230.174 213.702 230.38 215.207 230.323 216.417C230.316 216.647 230.473 216.932 230.675 217.051L233.674 218.661C233.87 218.774 234.028 218.678 234.028 218.451C234.039 217.298 234.031 215.327 233.552 212.91Z" fill="#2F2F2F"/>
<path d="M278.702 207.197C273.848 203.592 269.697 202.851 267.611 201.011C267.394 200.82 267.257 199.044 267.249 198.791C267.037 199.11 266.85 199.717 266.627 200.143C265.684 201.947 263.674 202.878 261.419 203.529C259.509 204.08 257.26 204.69 255.479 205.008C255.49 205.344 255.406 207.42 256.41 209.372C257.318 211.136 266.017 215.261 267.467 216.144C267.987 216.461 268.94 228.667 268.94 228.667C269.437 229.984 273.128 229.217 273.029 227.912C273.029 227.912 273.834 215.552 273.628 212.999C273.592 212.544 273.371 212.139 273.015 211.877C271.788 210.976 270.687 210.006 267.989 208.343C267.469 208.022 267.483 207.926 268.091 208.243C271 209.761 273.279 211.072 274.074 211.552C274.16 211.603 274.21 211.692 274.218 211.796L275.239 224.204C276.004 225.889 279.514 224.972 279.519 223.545L279.843 209.284C279.775 208.443 279.358 207.684 278.702 207.197Z" fill="url(#paint4_linear_2067_298510)"/>
<path d="M276.15 196.874C275.711 197.243 275.071 197.285 274.577 196.996C272.919 196.027 267.676 192.248 267.318 191.593C266.181 189.516 261.303 183.751 261.533 182.058C261.806 180.053 264.073 179.816 264.966 180.373C265.906 180.958 269.687 187.355 270.308 188.923C270.401 189.159 277.188 193.86 277.387 194.73C277.588 195.609 276.877 196.261 276.15 196.874Z" fill="url(#paint5_linear_2067_298510)"/>
<path d="M265.712 186.187C265.701 184.219 265.528 180.982 264.223 180.405C263.793 180.214 263.272 180.269 262.231 180.717L261.902 180.859L256.577 183.165C255.57 183.676 254.068 184.487 253.295 185.121C251.545 186.557 251.27 189.171 251.876 191.103C254.128 198.287 254.771 204.858 255.479 205.009C259.69 207.004 267.783 204.906 268.31 201.414C268.31 201.414 265.714 186.738 265.712 186.187Z" fill="#774E2C"/>
<path d="M257.416 184.806C257.703 184.653 256.333 183.29 256.578 183.164L261.903 180.858C262.849 183.971 263.156 193.424 263.156 193.424C263.156 193.424 258.408 186.501 257.416 184.806Z" fill="#D6DADC"/>
<path d="M256.531 178.573C256.528 178.615 261.063 178.559 261.123 178.99C261.181 179.411 261.274 179.937 261.285 180.362C261.301 181.017 261.47 181.948 261.727 182.551C261.53 182.649 260.989 182.762 260.989 182.762C260.912 183.316 260.989 185.631 260.989 185.631L259.977 183.409C259.977 183.409 258.051 184.562 257.489 184.395C257.09 184.275 256.652 184.142 256.566 183.671C256.542 183.541 256.529 183.406 256.523 183.266C256.504 182.803 256.567 182.3 256.576 181.858C256.596 180.791 256.732 179.619 256.531 178.573Z" fill="#E5AB83"/>
<path d="M261.368 181.197C261.368 181.197 261.52 181.89 261.54 182.004C261.573 182.189 261.417 182.558 260.986 182.762C261.458 183.107 262.813 183.696 263.31 184.139C263.346 183.998 262.575 182.096 262.037 181.412C261.773 181.078 261.37 181.205 261.368 181.197Z" fill="#FAFAFA"/>
<path d="M259.974 183.409C259.974 183.409 259.583 184.596 259.346 185.902C256.503 185.542 255.918 184.305 255.693 183.771C255.818 183.371 256.552 182.098 256.553 182.019C256.493 182.918 257.616 183.34 258.24 183.479C258.699 183.579 259.517 183.602 259.974 183.409Z" fill="#FAFAFA"/>
<path d="M274.943 192.653C272.125 193.571 269.399 196.362 268.868 198.873C268.336 201.385 270.197 202.681 273.016 201.762C275.834 200.844 278.559 198.052 279.091 195.541C279.622 193.031 277.761 191.734 274.943 192.653ZM274.874 193.449C275.047 193.393 275.206 193.368 275.37 193.33L274.032 197.241L270.886 196.34C271.897 195.051 273.37 193.939 274.874 193.449ZM278.442 195.935C277.985 198.094 275.64 200.496 273.215 201.286C270.792 202.076 269.19 200.96 269.647 198.801C269.784 198.156 270.103 197.494 270.528 196.854L274.41 197.965L276.031 193.224C277.775 193.091 278.82 194.144 278.442 195.935Z" fill="#858585"/>
<path d="M274.99 196.638C274.984 196.195 275.15 195.595 275.539 195.196C275.797 194.931 276.528 194.586 276.933 194.792C277.829 195.246 278.225 195.481 278.608 196.174C278.852 196.615 278.803 197.866 278.166 197.995C278.036 198.021 277.904 198.001 277.772 198.001C277.364 198.001 276.959 198.196 276.557 198.122C276.442 198.101 276.324 198.053 276.252 197.959C276.026 197.662 276.506 197.191 276.324 196.825C276.122 196.414 275.703 196.514 274.99 196.638Z" fill="#F4BD98"/>
<path d="M261.572 194.35C261.625 194.558 265.942 196.579 267.484 196.907C268.191 197.058 268.612 198.643 267.138 199.976C265.808 200.777 259.624 198.327 258.607 197.454C258.025 196.955 251.011 191.327 251.454 188.048C251.87 184.971 253.828 184.795 254.743 185.331C256.735 186.5 261.425 193.775 261.572 194.35Z" fill="url(#paint6_linear_2067_298510)"/>
<path d="M269.646 197.386C269.618 197.194 269.921 196.915 269.985 196.73C270.062 196.509 270.326 196.103 270.096 195.916C269.906 195.762 269.588 195.921 269.42 196.015C269.092 196.201 268.862 196.572 268.595 196.831C268.197 197.215 267.862 197.338 267.321 197.184C266.49 196.946 265.951 199.467 266.836 199.786C267.712 200.101 268.279 200.3 269.055 200.412C269.774 200.514 270.671 199.957 271.003 199.302C271.18 198.954 271.173 198.58 271.098 198.204C271.063 198.026 271.029 197.614 270.881 197.504C270.7 197.371 270.301 197.503 270.106 197.533C269.981 197.552 269.674 197.568 269.646 197.386Z" fill="#F4BD98"/>
<path d="M262.216 181.309C262.097 181.959 261.995 182.826 261.38 182.994C260.253 183.302 257.782 182.818 257.43 181.988C256.839 180.589 256.262 179.148 256.805 177.276C257.022 176.524 257.438 175.749 258.052 175.176C258.495 174.764 259.011 174.479 259.521 174.224C261.019 173.472 262.35 173.476 262.518 175.046C262.603 175.838 262.718 176.59 262.711 177.389C262.688 179.927 262.39 180.365 262.216 181.309Z" fill="#F3BC97"/>
<path d="M260.658 171.901C260.912 171.874 261.079 172.201 261.576 172.209C261.91 172.214 262.054 172.441 262.387 172.917C262.554 173.156 262.538 173.422 262.65 173.649C262.728 173.808 262.848 173.838 262.944 174.103C263.016 174.301 263.019 174.779 263.047 174.913C263.131 175.31 263.302 175.335 263.229 175.785C263.13 176.393 262.987 176.944 262.725 177.507C262.693 176.566 262.611 175.699 262.498 175.437C262.357 175.11 261.978 175.161 261.681 175.082C261.372 174.999 261.211 175.198 260.922 175.268C260.436 175.385 259.442 175.665 259.005 176.13C258.143 177.046 258.277 178.068 258.149 178.668C258.124 178.785 257.977 178.811 257.909 178.716C257.691 178.408 257.258 178.11 256.863 178.534C256.452 178.974 256.662 179.656 256.845 180.271C257.008 180.822 257.182 181.471 257.182 181.471C256.663 181.343 256.069 180.91 255.709 180.241C255.596 180.031 255.595 179.837 255.512 179.619C255.465 179.496 255.38 179.402 255.341 179.275C255.311 179.177 255.323 179.065 255.293 178.972C255.238 178.804 255.106 178.722 255.037 178.57C255.001 178.49 255.027 178.37 254.975 178.288C254.916 178.191 254.783 178.182 254.727 178.08C254.654 177.948 254.68 177.064 254.629 176.903C254.487 176.454 254.37 176.178 254.505 175.7C254.601 175.361 254.573 175.05 254.635 174.71C254.704 174.332 254.992 174.573 255.077 174.194C255.149 173.875 255.242 173.615 255.47 173.372C255.93 172.885 256.429 172.128 257.055 172.122C257.559 172.117 257.993 171.778 258.525 171.785C259.242 171.793 259.938 171.977 260.658 171.901Z" fill="#352920"/>
<path d="M261.107 215.629C255.369 212.94 251.311 211.728 249.095 210.047C248.865 209.872 248.577 208.168 248.547 207.926C248.365 208.241 248.232 208.834 248.048 209.254C247.272 211.03 245.367 212.013 243.196 212.734C241.357 213.345 239.101 212.718 237.369 213.1C237.369 213.1 237.304 215.517 237.906 217.359C239.153 221.18 247.532 225.817 247.532 225.817L250.065 237.199C250.489 238.513 254.166 238.118 254.131 236.852L253.458 224.237C253.427 223.648 253.22 223.081 252.863 222.611L249.034 217.572C248.993 217.398 249.152 217.243 249.325 217.292C250.751 217.697 255.666 219.913 256.485 220.342C256.574 220.389 256.626 220.478 256.637 220.577L257.292 231.697C258.127 233.318 261.559 232.422 261.499 231.045L261.842 217.773C261.739 216.96 261.847 215.976 261.107 215.629Z" fill="#2F4B5B"/>
<path d="M249.771 203.99C250.726 205.023 255.891 209.07 256.649 209.736C257.47 210.457 257.181 210.39 258.442 210.018C259.305 209.764 259.358 209.438 259.206 208.888C258.85 207.594 259.074 207.349 256.84 206.664C255.421 206.229 251.598 201.217 251.598 201.217C251.598 201.217 249.073 190.487 247.997 189.988C246.974 189.515 245.19 190.329 245.207 192.406C245.221 194.161 248.205 202.298 249.771 203.99Z" fill="#F4BD98"/>
<path d="M251.349 198.716C250.705 195.469 249.365 191.47 248.284 190.177C247.496 189.235 244.895 189.076 244.542 191.831C244.396 192.967 245.799 196.635 246.772 199.895C247.412 201.154 251.307 199.89 251.349 198.716Z" fill="#C13030"/>
<path d="M249.041 195.206C248.861 193.313 248.414 190.204 247.076 189.703C246.635 189.537 246.125 189.613 245.136 190.089L244.823 190.24L239.763 192.685C238.812 193.22 237.4 194.063 236.69 194.708C235.084 196.165 235.048 196.869 235.643 198.766C237.837 205.748 236.745 214.293 237.456 214.409C241.785 216.152 249.595 213.788 249.817 210.405C249.817 210.405 249.091 195.738 249.041 195.206Z" fill="#293896"/>
<path d="M239.322 188.267C239.324 188.307 243.797 188.062 243.892 188.473C243.985 188.875 244.122 189.376 244.17 189.786C244.243 190.415 244.488 191.305 244.794 191.874C246.056 195.309 242.275 195.804 240.059 193.474C239.88 193.286 239.787 193.033 239.773 192.775C239.717 191.756 239.553 189.07 239.322 188.267Z" fill="#E5AB83"/>
<path d="M246.079 214.407C247.044 215.068 248.398 215.85 248.557 215.876C249.725 216.06 250.457 216.109 250.699 215.896C250.988 215.641 252.101 214.351 251.974 213.987C251.91 213.801 251.84 213.851 251.677 213.858C251.677 213.858 251.039 213.802 250.361 213.774C250.361 213.774 248.514 213.234 248.893 212.933C249.132 212.743 249.533 212.675 249.828 212.698C250.108 212.719 250.115 212.273 249.966 212.184C249.895 212.141 248.523 212.061 248.432 212.06L247.119 212.594L240.886 208.04C240.886 208.04 240.078 198.172 238.799 195.889C238.208 194.836 236.157 193.953 235.345 196.816C234.791 198.772 237.285 209.437 238.365 210.318C238.365 210.318 241.89 212.32 246.079 214.407Z" fill="#F4BD98"/>
<path d="M241.143 203.932C240.76 200.838 239.981 197.125 239.059 195.713C238.388 194.685 236.042 193.902 235.1 196.821C234.748 197.91 234.927 201.565 235.508 204.916C235.994 206.243 240.8 205.355 241.143 203.932Z" fill="#293896"/>
<path d="M245.406 191.915C245.287 192.564 245.185 193.431 244.569 193.6C243.442 193.907 240.972 193.424 240.62 192.593C240.028 191.195 239.451 189.753 239.994 187.881C240.212 187.13 240.628 186.355 241.242 185.782C241.684 185.37 242.201 185.086 242.711 184.829C244.208 184.078 245.539 184.082 245.707 185.651C245.793 186.444 245.907 187.195 245.901 187.994C245.877 190.532 245.579 190.971 245.406 191.915Z" fill="#F3BC97"/>
<path d="M245.913 188.111C245.88 187.17 245.799 186.303 245.686 186.04C245.331 185.217 242.764 186.126 242.193 186.733C241.331 187.649 241.465 188.67 241.336 189.271C241.311 189.386 241.164 189.414 241.096 189.318C240.499 188.479 239.455 188.94 240.032 190.874C240.195 191.424 240.368 192.074 240.368 192.074C238.089 191.512 236.549 184.869 238.895 183.96C239.103 182.467 241.7 182.061 242.874 182.211C246.716 182.699 246.852 186.087 245.913 188.111Z" fill="#1D1D1E"/>
</g>
<path d="M287.281 196.17C287.314 195.3 288.299 195.055 287.957 194.293C287.878 194.117 286.461 193.126 286.327 193.186C274.687 196.913 262.408 204.463 255.027 211.517C256.672 215.541 258.442 212.748 260.15 213.364C260.22 213.345 276.36 207.704 287.281 196.17Z" fill="#858585"/>
<path d="M282.862 194.449C281.946 197.847 274.275 201.71 268.521 201.484C268.521 201.484 270.801 198.436 274.955 196.338C279.844 193.868 282.862 194.449 282.862 194.449Z" fill="#858585"/>
<path opacity="0.7" d="M272.892 178.614C271.701 179.77 262.547 188.303 246.046 194.276C245.909 194.326 245.845 194.486 245.916 194.614L255.947 213.016C256.577 214.172 257.921 214.572 259.193 214.229C263.765 212.994 274.97 209.105 285.806 199.474C287.473 197.993 289.942 194.412 288.187 192.65C282.855 187.298 278.148 182.835 273.175 178.61C273.091 178.539 272.971 178.537 272.892 178.614Z" fill="#0E1A68"/>
<path opacity="0.7" d="M251.067 213.757L217.509 194.558C216.444 193.96 218.404 179.986 220.379 181.127C228.154 185.616 236.294 190.299 239.821 192.338C240.856 192.938 241.709 193.792 242.297 194.835C244.913 199.474 250.533 211.655 251.067 213.757Z" fill="#0E1A68"/>
<path d="M250.082 210.149C249.495 208.812 248.897 207.482 248.283 206.159C247.058 203.511 245.795 200.883 244.472 198.281L243.457 196.336C243.102 195.709 242.788 195.033 242.308 194.431C241.842 193.833 241.277 193.318 240.642 192.902C239.999 192.503 239.376 192.167 238.741 191.796L231.158 187.445L230.799 187.264L220.471 181.314C218.56 180.211 216.221 194.536 216.708 194.818C218.344 195.763 225.492 199.869 225.492 199.869L251.266 214.593C251.35 214.641 251.435 214.652 251.517 214.627C251.674 214.578 251.761 214.411 251.712 214.255C251.257 212.805 250.66 211.499 250.082 210.149ZM225.852 199.241L218.215 194.984C217.085 194.016 219.375 181.141 220.619 181.884L230.582 187.642L230.925 187.853L238.49 192.235C239.112 192.601 239.769 192.961 240.363 193.333C240.946 193.717 241.47 194.198 241.897 194.752C242.33 195.293 242.634 195.951 242.992 196.592L243.992 198.527C245.3 201.125 246.55 203.755 247.763 206.401C248.371 207.723 248.963 209.052 249.542 210.387C249.999 211.464 250.461 212.567 250.847 213.654L225.852 199.241Z" fill="#0E1A68"/>
<path opacity="0.4" d="M290.188 196.387C290.188 196.387 282.417 208.833 260.455 215.822C261.445 216.708 273.006 224.706 281.364 229.189C285.127 231.207 289.585 231.386 293.499 229.681C297.535 227.922 302.801 225.054 306.84 220.84C308.124 219.5 308.283 217.418 307.236 215.883C302.356 208.725 291.692 197.423 290.188 196.387Z" fill="url(#paint7_linear_2067_298510)"/>
<path d="M288.563 192.848C288.324 192.521 288.066 192.291 287.819 192.039C287.319 191.54 286.829 191.05 286.349 190.57C282.498 186.738 279.187 183.644 276.822 181.532C275.631 180.485 274.695 179.664 274.057 179.102C273.734 178.826 273.487 178.613 273.32 178.47C273.201 178.347 272.982 178.332 272.889 178.38C272.784 178.422 272.75 178.468 272.75 178.468C272.75 178.468 271.473 179.737 268.968 181.668C266.468 183.59 262.747 186.179 257.959 188.714C255.569 189.987 252.928 191.272 250.054 192.445C249.342 192.752 248.612 193.045 247.864 193.319C247.492 193.461 247.118 193.603 246.741 193.746L246.176 193.964L246.034 194.018C245.992 194.039 245.946 194.038 245.83 194.118C245.665 194.241 245.594 194.476 245.673 194.675C246.461 196.117 247.266 197.591 248.085 199.09C249.716 202.067 251.4 205.143 253.113 208.269C253.968 209.832 254.831 211.407 255.697 212.988C256.103 213.86 257.048 214.471 258.005 214.53C258.483 214.572 258.974 214.502 259.415 214.365C259.85 214.242 260.286 214.118 260.719 213.979C267.661 211.803 274.141 208.37 279.717 204.485C280.404 203.984 281.085 203.486 281.76 202.995C282.416 202.479 283.067 201.966 283.71 201.461C284.936 200.387 286.263 199.449 287.223 198.172C287.707 197.55 288.128 196.889 288.451 196.186C288.767 195.487 289 194.728 288.94 193.946C288.916 193.555 288.778 193.172 288.563 192.848ZM286.964 197.969C286.051 199.199 284.734 200.142 283.512 201.216C282.873 201.722 282.228 202.234 281.575 202.75C280.904 203.243 280.228 203.739 279.546 204.24C274.021 208.152 267.512 211.499 260.612 213.62C260.184 213.753 259.748 213.875 259.311 213.996C258.886 214.124 258.466 214.178 258.042 214.139C257.19 214.068 256.422 213.572 256.055 212.792C255.196 211.208 254.339 209.628 253.489 208.063C251.789 204.93 250.117 201.848 248.499 198.864C247.696 197.384 246.907 195.929 246.134 194.504L246.346 194.424L246.916 194.207C247.294 194.063 247.669 193.918 248.043 193.775C248.793 193.498 249.527 193.201 250.241 192.889C253.126 191.702 255.779 190.403 258.176 189.116C262.983 186.553 266.716 183.941 269.227 181.998C271.737 180.052 273.033 178.759 273.033 178.759C273.227 178.919 273.474 179.13 273.797 179.405C274.435 179.963 275.371 180.781 276.562 181.821C278.928 183.923 282.243 187 286.101 190.817C286.582 191.296 287.074 191.784 287.575 192.281C287.823 192.53 288.094 192.781 288.28 193.039C288.46 193.313 288.579 193.631 288.6 193.974C288.678 195.37 287.872 196.767 286.964 197.969Z" fill="#151B1C"/>
<path d="M288.186 192.648C287.932 192.393 287.686 192.151 287.436 191.899C289.077 199.678 258.27 214.845 255.947 213.016C256.577 214.172 257.921 214.571 259.193 214.228C263.765 212.993 274.97 209.104 285.806 199.473C287.472 197.991 289.941 194.411 288.186 192.648Z" fill="#0E1A68"/>
<path d="M223.632 183.394L222.277 182.65L220.197 196.178L221.532 196.988L223.632 183.394Z" fill="#0E1A68"/>
<path d="M247.696 205.442C247.675 205.401 247.654 205.359 247.635 205.317C247.451 204.939 247.258 204.564 247.069 204.188L244.941 210.463L246.09 211.167L247.889 205.858C247.822 205.72 247.762 205.579 247.696 205.442Z" fill="#151B1C"/>
<path d="M311.316 233.397C306.229 238.685 298.548 243.031 291.314 245.994C291.191 246.044 291.112 246.163 291.111 246.296L291.1 251.653C291.098 251.861 291.284 252.028 291.487 251.984C294.596 251.324 309.087 243.118 311.688 239.409C311.824 239.214 311.882 238.977 311.882 238.739V233.623C311.88 233.324 311.524 233.181 311.316 233.397Z" fill="#0E1A68"/>
<path d="M291.487 250.833C291.287 250.876 291.105 250.711 291.102 250.508L291.1 251.655C291.098 251.861 291.284 252.03 291.487 251.986C294.596 251.326 309.087 243.12 311.688 239.411C311.824 239.216 311.882 238.979 311.882 238.741V237.589C311.882 237.826 311.825 238.064 311.688 238.259C309.087 241.968 294.596 250.174 291.487 250.833Z" fill="#293896"/>
<path d="M246.086 215.093L248.554 215.219C249.703 215.278 250.849 215.051 251.89 214.558C251.421 213.402 250.974 212.249 250.479 211.102L247.496 212.44L246.086 215.093Z" fill="#151B1C"/>
<path d="M247.557 211.482C246.857 211.441 241.658 213.121 241.723 213.735C241.846 214.909 243.682 216.45 244.789 216.678C245.85 216.896 250.282 215.485 250.304 215.073C250.345 214.29 248.895 211.56 247.557 211.482Z" fill="#BBD2E9"/>
<path opacity="0.5" d="M226.27 208.454L224.769 207.587C224.252 207.289 223.834 206.628 223.834 206.112V204.211C223.834 203.694 224.252 203.517 224.769 203.816L226.27 204.683C226.787 204.981 227.205 205.642 227.205 206.158V208.058C227.205 208.575 226.787 208.752 226.27 208.454Z" fill="#293896"/>
<path d="M227.466 207.664L223.571 205.415C223.162 205.179 222.83 204.655 222.83 204.245C222.83 203.836 223.162 203.695 223.571 203.931L227.466 206.18C227.876 206.416 228.208 206.94 228.208 207.35C228.209 207.759 227.876 207.9 227.466 207.664Z" fill="#5B68B7"/>
<path d="M207.353 173.731C207.192 173.802 207.126 174.015 207.173 174.122L214.361 178.279C214.584 178.407 214.665 178.674 214.541 178.899C213.142 181.437 211.539 185.364 209.96 189.636C209.879 189.855 209.62 189.951 209.418 189.836L200.961 185.013C200.84 184.944 200.654 185.554 200.776 185.624C204.118 187.56 208.432 190.063 210.015 190.982C210.333 191.166 210.726 191.01 210.83 190.659C211.422 188.661 213.277 182.722 215.453 178.972C215.6 178.72 215.513 178.408 215.261 178.264L207.353 173.731Z" fill="#0E1A68"/>
<path d="M198.373 195.046C198.369 195.283 198.427 195.528 198.569 195.717C198.827 196.059 200.247 196.544 200.845 196.43C201.661 196.273 202.293 194.558 201.403 193.673C200.314 192.595 198.431 191.763 198.373 195.046Z" fill="#293896"/>
<path d="M199.235 190.095C199.231 190.331 199.289 190.576 199.431 190.766C199.688 191.108 201.108 191.593 201.706 191.479C202.523 191.321 203.155 189.606 202.264 188.722C201.176 187.644 199.292 186.812 199.235 190.095Z" fill="#293896"/>
<path d="M292.065 234.348C287.504 236.183 280.43 236.449 274.347 235.944C272.375 235.781 274.535 242.222 277.406 242.469C281.389 242.811 288.949 241.314 293.063 239.176C294.379 238.491 293.662 233.706 292.065 234.348Z" fill="#BBD2E9"/>
<path d="M281.032 242.156C279.883 240.267 279.277 238.192 278.55 236.15C277.126 236.123 275.71 236.056 274.347 235.943C272.375 235.779 274.535 242.221 277.406 242.467C278.455 242.558 279.758 242.514 281.174 242.371C281.129 242.298 281.078 242.23 281.032 242.156Z" fill="#293896"/>
<path d="M314.358 222.535C314.267 223.113 313.957 223.787 313.613 224.438C312.792 225.988 310.7 228.633 309.294 229.706C308.574 230.255 308.416 226.86 308.501 225.573C308.616 223.852 311.716 223.11 312.464 216.621C313.079 216.673 314.594 221.033 314.358 222.535Z" fill="#BBD2E9"/>
<path d="M255.947 213.016L245.915 194.614C245.845 194.486 245.909 194.325 246.046 194.276C255.279 190.934 265.735 185.317 272.594 178.895C272.79 178.713 272.977 178.442 273.173 178.609C278.145 182.833 282.853 187.296 288.185 192.649C288.91 193.378 288.714 195.427 288.744 195.424C289.042 194.404 289.095 193.336 289.095 192.507C285.534 188.925 274.888 178.466 271.007 176.219L238.531 157.476C237.432 156.842 236.079 156.843 234.981 157.476L209.262 172.325C208.687 172.657 208.211 172.931 207.646 173.436C207.646 173.436 208.57 173.058 209.891 173.819C216.408 177.582 230.57 185.765 235.749 188.729C240.226 191.291 243.554 192.998 245.484 197.955C247.694 203.629 250.809 208.467 253.033 214.146C253.033 214.146 256.435 214.773 258.907 214.486C257.885 214.091 256.576 214.172 255.947 213.016Z" fill="#0E1A68"/>
<path d="M272.021 176.886C271.651 176.625 271.303 176.391 271.007 176.219L238.531 157.476C237.432 156.842 236.079 156.843 234.981 157.476L209.262 172.325C208.687 172.657 208.211 172.931 207.646 173.436C207.646 173.436 208.57 173.058 209.891 173.819C216.408 177.582 230.57 185.765 235.749 188.729C238.461 190.282 240.744 191.529 242.558 193.366C247.232 192.992 267.685 184.026 272.021 176.886Z" fill="#293896"/>
<path d="M436.605 322.871L437.48 364.373C437.522 365.764 436.905 366.19 436.789 366.306C435.497 367.548 430.347 369.34 429.588 367.573L426.772 322.996L436.605 322.862V322.871Z" fill="#141413"/>
<path d="M429.996 322.996L428.296 335.146L423.346 372.982C423.237 373.798 422.471 374.349 421.779 374.615C418.854 375.74 416.204 373.815 416.204 373.815C415.412 373.423 415.462 372.773 415.42 372.39L418.754 317.396L429.996 323.004V322.996Z" fill="#383736"/>
<path d="M424.811 293.219C424.811 293.219 425.436 290.544 427.32 290.26C429.37 289.952 433.52 288.46 439.095 291.594C443.146 293.869 446.554 297.227 446.554 297.227C446.554 297.227 449.771 299.478 445.829 305.778C445.621 306.111 439.129 316.445 438.487 321.579C437.879 326.437 440.729 340.571 440.846 342.105C440.929 343.263 436.92 344.363 432.587 344.897C432.212 344.938 431.828 327.037 431.453 327.079C431.012 327.121 430.57 345.105 430.137 345.138C427.695 345.305 425.378 345.255 423.886 344.897C420.886 344.172 416.344 342.546 415.236 341.421C414.619 340.796 416.319 322.579 419.069 315.737C420.328 312.603 422.195 307.095 422.886 304.203C423.995 299.553 424.82 293.219 424.82 293.219H424.811Z" fill="#C5CDFF"/>
<path d="M439.555 298.228C436.263 299.895 435.388 294.178 434.396 291.736L439.23 282.735L444.771 286.861L442.513 291.227L439.555 298.228Z" fill="white"/>
<path d="M447.481 277.577L446.114 277.243L441.697 277.677L438.414 286.469C438.264 287.102 438.022 287.91 438.314 288.702C438.53 289.269 438.755 289.569 439.38 290.361C439.38 290.361 441.964 292.969 444.006 293.052C445.131 293.102 445.947 292.019 446.297 291.411C446.664 290.786 450.556 283.844 450.556 283.844C450.556 283.844 451.948 281.677 450.906 279.81C450.373 278.868 447.481 277.577 447.481 277.577Z" fill="white"/>
<path d="M452.131 280.235C452.489 280.769 452.481 281.385 451.847 281.627C451.289 281.844 450.047 281.594 449.781 281.527C449.464 281.435 446.639 280.577 446.614 280.594C446.547 280.635 446.847 280.027 446.764 279.952C446.147 279.443 445.264 279.935 444.43 280.602C443.53 281.319 442.372 283.285 442.139 284.077L441.855 284.844C441.714 285.252 441.489 285.361 441.397 285.319C441.08 285.194 440.905 284.827 440.947 284.352C440.947 284.352 440.905 283.135 439.747 282.894C438.755 282.685 438.663 285.135 438.672 285.277L438.355 285.869C438.105 286.277 437.08 286.836 437.072 286.511C437.03 285.469 436.947 283.435 436.972 282.427C437.163 275.31 443.489 271.626 448.831 276.427C449.981 277.46 451.914 279.952 452.114 280.244L452.131 280.235Z" fill="#332107"/>
<path d="M440.055 282.143C441.322 282.602 441.022 283.877 441.022 283.877L440.688 286.002C440.688 286.002 440.28 286.669 439.772 286.594C438.997 286.477 438.93 286.377 438.563 285.652C438.338 285.227 438.18 284.218 438.18 284.152C438.155 283.16 438.863 281.71 440.063 282.143H440.055Z" fill="white"/>
<path d="M431.495 327.113C431.495 327.063 431.704 322.18 432.262 320.13C432.829 318.071 435.629 308.237 435.662 308.146L435.629 308.004C435.604 308.104 432.604 318.013 432.037 320.071C431.47 322.146 431.412 326.88 431.404 327.08L431.487 327.105L431.495 327.113Z" fill="#A0A1A3"/>
<path d="M436.979 302.603L439.346 299.128L437.879 298.444L436.146 298.228L436.979 302.603Z" fill="#293896"/>
<path d="M441.929 292.594C441.929 292.594 442.779 293.277 442.996 293.877C443.229 294.519 442.946 294.952 442.946 294.952L438.946 300.128C438.946 300.128 438.796 298.461 437.962 298.552C437.262 298.627 440.062 297.161 441.937 292.594H441.929Z" fill="#5B68B7"/>
<path d="M436.07 288.61C436.07 288.61 435.095 288.677 434.095 289.152C433.479 289.444 433.087 290.81 433.087 290.81L436.137 299.319C436.137 299.319 437.154 298.036 437.837 298.544C438.404 298.961 436.07 295.519 436.07 288.61Z" fill="#5B68B7"/>
<path d="M442.779 293.419L444.938 295.445C445.038 295.561 445.03 295.728 444.938 295.836L437.371 304.587L436.987 302.578L442.779 293.411V293.419Z" fill="white"/>
<path d="M434.387 289.027L437.487 305.245C437.521 305.412 437.488 305.578 437.387 305.712L435.521 308.42L436.171 305.512C436.187 305.428 436.187 305.345 436.162 305.262L431.179 289.719C431.137 289.586 431.212 289.452 431.354 289.419L434.379 289.027H434.387Z" fill="white"/>
<path d="M458.164 324.921C458.164 324.921 458.764 325.404 458.931 325.746C459.098 326.088 459.189 326.571 459.698 328.138C460.214 329.705 461.173 329.788 461.831 330.213C461.998 330.321 462.314 329.505 461.606 328.905C461.039 328.43 460.806 327.854 460.806 327.854C460.806 327.854 462.714 329.705 463.139 330.696C463.656 331.896 464.481 331.871 464.548 331.73C464.706 331.396 463.989 330.33 463.989 330.33C463.989 330.33 464.69 331.296 464.873 331.33C465.056 331.363 466.156 329.455 465.84 328.621C465.523 327.796 462.789 324.296 462.789 324.296L460.539 323.046L458.148 324.921H458.164Z" fill="#E8C5AC"/>
<path d="M446.296 297.036C446.296 297.036 448.146 298.345 448.946 302.011C449.471 304.428 451.788 313.204 452.438 314.154C453.08 315.104 462.605 323.454 462.605 323.454C462.705 323.546 462.689 323.704 462.58 323.779L459.08 326.263C458.947 326.346 458.789 326.338 458.664 326.246C458.664 326.246 447.771 317.462 447.088 316.437C446.405 315.412 443.179 306.345 443.179 306.345L446.305 297.044L446.296 297.036Z" fill="#C5CDFF"/>
<path d="M433.971 364.273L434.646 365.815C434.646 365.815 441.013 368.457 441.405 368.665C441.855 368.907 442.839 369.332 442.68 370.182C442.647 370.382 442.647 370.515 442.514 370.699C442.03 371.332 441.097 371.599 440.238 371.724C438.363 372.007 434.455 371.324 434.455 371.324C433.313 371.149 431.438 370.532 431.23 370.349C431.23 370.349 430.255 370.032 430.071 370.374C430.005 370.49 430.08 371.074 430.088 371.191L427.679 370.124C427.563 370.057 427.379 368.857 427.346 368.324L427.529 364.823L433.971 364.282V364.273Z" fill="#140F10"/>
<path d="M441.322 371.15C440.822 371.375 440.13 371.475 439.447 371.541C436.713 371.775 432.63 370.725 432.63 370.725C432.221 370.616 430.688 370.191 430.688 370.191C430.688 370.191 430.055 370.224 430.071 370.375C430.071 370.3 430.08 370.366 430.046 370.375C429.98 370.391 430.088 371.191 430.088 371.191L430.763 370.791C430.763 370.791 432.63 371.258 432.963 371.375C432.963 371.375 436.888 372.375 439.647 372.175C440.513 372.108 441.997 371.641 442.547 370.85C442.647 370.708 442.764 370.358 442.672 370.116C442.655 370.158 441.997 370.85 441.322 371.158V371.15Z" fill="#282827"/>
<path d="M430.07 370.374L427.445 369.091C427.445 369.091 427.62 370.133 427.662 370.116L430.062 371.183C430.062 371.099 430.062 370.583 430.07 370.366V370.374Z" fill="#282827"/>
<path d="M416.612 370.889C416.612 370.889 416.487 374.781 416.479 374.873C416.337 376.598 418.204 381.031 420.913 381.298C421.321 381.34 422.729 381.198 422.729 381.198C422.729 381.198 424.579 381.131 424.229 377.623C424.096 376.256 422.804 370.756 422.804 370.756L416.612 370.881V370.889Z" fill="#383736"/>
<path d="M416.345 369.923C416.345 369.923 416.554 372.156 416.729 375.065C416.837 376.798 418.77 380.465 421.154 380.607C421.771 380.64 422.262 380.582 422.296 380.582C423.329 380.523 424.729 380.115 424.162 376.54C423.962 375.265 423.121 370.348 423.054 370.34L416.337 369.923H416.345Z" fill="#0E1A68"/>
<g opacity="0.27" style="mix-blend-mode:multiply">
<path d="M484.891 361.431C484.891 361.431 481.565 365.173 480.407 365.682C479.249 366.19 476.248 370.007 472.907 370.19C469.565 370.374 464.898 373.074 468.848 374.499C472.807 375.924 478.032 376.266 481.399 375.29C484.766 374.315 488.124 373.249 489.924 368.223C491.716 363.198 494.791 362.706 498.208 360.906C501.625 359.098 507.992 355.873 504.192 355.339C500.383 354.806 488.049 356.664 484.882 361.423L484.891 361.431Z" fill="#BBD2E9"/>
</g>
<g opacity="0.27" style="mix-blend-mode:multiply">
<path d="M377.26 428.193C377.26 428.193 373.835 429.802 372.676 430.318C371.518 430.835 363.342 433.11 360.001 433.294C356.659 433.477 348.867 434.452 352.267 436.927C354.384 438.469 361.042 441.219 367.709 438.335C370.926 436.944 380.402 437.894 382.193 432.869C383.985 427.843 385.944 429.468 389.36 427.66C392.777 425.852 397.394 421.985 393.586 421.451C389.777 420.91 380.41 423.435 377.251 428.193H377.26Z" fill="#BBD2E9"/>
</g>
<path d="M489.706 356.056C489.706 356.056 488.773 357.739 489.973 357.689C490.707 357.656 493.015 357.072 493.015 357.072C494.232 356.681 495.79 356.506 496.198 357.397C496.198 357.397 496.373 357.747 496.382 357.947C496.398 358.639 496.573 358.031 495.74 358.989C495.74 358.989 494.14 360.548 493.107 361.206C491.815 362.031 491.107 362.139 490.656 362.156C490.656 362.156 489.74 362.089 489.198 362.231C488.59 362.389 488.848 363.148 488.923 363.756L487.123 364.781C485.256 365.539 483.523 364.056 483.464 363.589L482.839 358.698L489.706 356.064V356.056Z" fill="#0E1A68"/>
<path d="M489.84 361.956C490.373 361.881 490.982 361.706 492.515 361.064C493.798 360.522 495.582 358.906 495.582 358.906C496.007 358.497 496.332 358.03 496.274 357.622C496.324 357.772 496.349 357.922 496.365 358.014C496.49 358.63 495.99 359.039 495.574 359.414C495.574 359.414 494.19 360.756 493.09 361.272C491.673 361.947 491.44 361.931 490.773 362.039C490.773 362.039 489.932 362.189 489.373 362.281C489.123 362.322 488.79 362.514 488.798 362.581C488.798 362.547 488.832 362.097 489.815 361.956H489.84Z" fill="#0C1342"/>
<path d="M487.048 364.23L488.832 363.214C488.857 363.414 488.898 363.622 488.932 363.814L487.132 364.839C485.265 365.597 483.531 364.114 483.473 363.647L483.398 363.03C483.456 363.497 485.181 364.98 487.057 364.222L487.048 364.23Z" fill="#0C1342"/>
<path d="M477.04 294.87L478.198 288.211L483.799 289.519L483.074 295.986C483.074 296.903 483.724 297.161 484.207 297.936L477.04 294.87Z" fill="white"/>
<path d="M482.639 321.321C482.639 321.321 487.29 339.147 487.723 341.014C488.665 345.089 490.823 359.206 490.823 359.206C490.823 359.206 490.99 361.906 487.281 362.723C485.206 363.181 482.931 361.673 482.839 361.081C480.981 348.031 480.264 345.455 479.689 344.022C478.722 341.605 475.597 335.672 473.814 331.546C472.38 328.246 472.38 324.421 472.38 324.421L482.639 321.312V321.321Z" fill="#293896"/>
<path d="M468.906 365.79C468.906 365.79 467.256 366.865 466.406 369.674C466.056 370.832 466.514 371.599 466.514 371.599C466.514 371.599 467.498 371.965 468.365 372.34C468.531 372.415 468.74 372.79 468.881 372.932C470.506 374.491 471.331 374.957 471.573 375.099C472.815 375.799 474.415 375.966 475.39 375.799C476.357 375.632 479.107 374.016 479.107 374.016C479.107 374.016 479.432 372.715 478.382 372.207C477.323 371.699 475.465 371.949 475.465 371.949C475.465 371.949 473.148 369.774 472.34 368.932C471.531 368.082 468.915 365.798 468.915 365.798L468.906 365.79Z" fill="#0E1A68"/>
<path d="M485.664 329.038C484.714 335.363 481.672 350.156 480.839 352.472C479.022 357.473 474.505 370.148 474.255 370.532C474.18 370.648 473.78 371.282 470.847 368.307C469.93 367.381 468.146 366.232 467.113 367.032C467.113 367.032 470.972 353.856 472.605 348.972C475.105 341.472 475.214 325.638 475.214 325.638L485.664 329.046V329.038Z" fill="#293896"/>
<path d="M486.881 300.753C488.115 302.028 489.648 305.97 489.423 310.445C488.973 319.304 487.265 329.754 487.265 329.754C487.265 330.53 486.24 331.913 483.856 332.48C482.623 332.771 481.273 333.296 478.406 332.48C474.431 331.346 471.706 328.104 471.706 326.463C471.706 326.463 471.514 316.671 471.114 301.82C470.972 296.411 476.606 294.428 476.606 294.428L481.939 296.294L486.881 300.753Z" fill="#C5CDFF"/>
<path d="M471.097 372.657C471.189 372.74 472.855 374.807 473.214 375.09C474.014 375.724 474.597 375.782 474.98 375.79C474.464 375.907 473.039 375.907 471.789 375.282C470.28 374.532 468.98 372.873 468.905 372.865C468.78 372.865 470.58 373.498 470.58 373.498L471.105 372.648L471.097 372.657Z" fill="#0C1342"/>
<path d="M469.206 371.332C469.847 372.182 470.372 373.015 470.447 373.332L466.555 371.598C466.555 371.598 466.364 371.332 466.297 370.982C466.047 369.665 468.48 370.373 469.197 371.332H469.206Z" fill="#0C1342"/>
<path d="M477.639 292.894C476.889 292.719 476.698 292.844 476.556 293.302C476.414 293.752 476.423 293.786 476.239 294.219C476.098 294.578 476.264 294.603 476.264 294.603C476.264 294.603 480.031 295.636 482.823 297.544C484.815 298.903 484.965 299.028 484.965 299.028L484.498 297.503C484.14 296.203 482.631 294.919 480.381 293.927C480.381 293.927 478.548 293.111 477.631 292.894H477.639Z" fill="#5B68B7"/>
<path d="M485.073 280.11L489.207 280.618L487.474 291.261C487.04 294.319 485.707 294.677 484.773 294.611C482.84 294.469 480.782 293.202 479.757 292.477C477.765 291.069 478.106 287.477 478.106 287.185L478.023 279.977L485.073 280.118V280.11Z" fill="white"/>
<path d="M478.289 277.602C478.389 277.41 481.214 276.16 483.914 277.152C484.131 277.235 486.981 278.643 487.348 278.868C487.898 279.21 489.09 279.752 489.581 280.46C489.965 281.01 489.456 282.177 488.756 282.727C488.556 282.885 487.998 283.177 487.698 284.069C487.439 284.869 487.223 285.794 486.973 286.744L486.673 288.094C486.656 288.502 486.064 287.277 485.789 286.911C485.514 286.544 484.964 286.769 483.373 288.144C482.689 288.736 479.814 291.077 479.814 291.077C479.022 291.561 478.322 291.844 477.639 290.802C477.414 290.461 475.797 287.561 475.514 286.511C474.539 282.96 475.314 279.193 478.281 277.593L478.289 277.602Z" fill="#513103"/>
<path d="M485.756 286.777C485.756 286.777 484.881 286.877 484.547 287.877C484.314 288.586 484.547 289.186 484.672 289.361C485.022 289.844 485.406 289.952 485.406 289.952C485.406 289.952 485.456 288.244 485.481 287.936C485.514 287.619 485.748 286.777 485.748 286.777H485.756Z" fill="white"/>
<path d="M486.181 286.419C486.181 286.419 486.681 286.419 486.306 287.111C485.931 287.811 485.822 288.244 485.797 288.644C485.772 289.011 485.822 290.119 485.822 290.119C485.822 290.119 485.489 290.561 485.214 289.877C485.081 289.552 485.006 288.936 485.056 288.152C485.072 287.836 485.656 286.236 486.189 286.419H486.181Z" fill="white"/>
<path d="M497.116 321.888C497.116 321.888 498.624 320.738 500.074 321.054C501.525 321.371 502.441 321.471 502.858 321.963C503.275 322.454 502.883 323.129 502.025 323.046C501.166 322.963 501.091 322.429 500.591 323.138C500.091 323.838 497.108 321.896 497.108 321.896L497.116 321.888Z" fill="white"/>
<path d="M407.745 373.499C407.745 373.499 409.253 372.349 410.703 372.666C412.153 372.982 413.07 373.082 413.487 373.574C413.904 374.066 413.512 374.741 412.653 374.657C411.795 374.574 411.72 374.041 411.22 374.749C410.72 375.449 407.736 373.507 407.736 373.507L407.745 373.499Z" fill="#FFE8D9"/>
<path d="M484.24 337.455C484.24 337.455 471.681 350.889 451.53 366.048C431.379 381.216 407.32 381.049 407.32 381.049C407.32 381.049 415.637 366.198 424.662 360.423C433.688 354.648 484.24 336.797 484.24 336.797V337.455Z" fill="#A7A9AC"/>
<path d="M372.235 361.189L454.881 314.42L489.383 334.138L406.02 381.765L372.235 361.189Z" fill="#BDDAFC"/>
<path d="M469.382 305.037C469.382 305.037 468.315 303.703 468.207 303.645C467.815 303.42 467.448 303.395 467.19 303.545C443.514 317.304 374.094 357.439 350.426 371.19C350.684 371.04 351.042 371.057 351.442 371.29C351.551 371.348 351.651 371.423 351.751 371.507C351.784 371.532 351.809 371.565 351.842 371.598C351.909 371.657 351.967 371.715 352.034 371.782C352.059 371.815 352.092 371.848 352.117 371.882C352.192 371.973 352.259 372.065 352.326 372.157C352.351 372.198 352.376 372.232 352.401 372.273C352.476 372.398 352.542 372.523 352.601 372.648C352.601 372.657 352.617 372.673 352.617 372.682C352.617 372.698 352.626 372.707 352.634 372.723C352.676 372.815 352.709 372.907 352.734 373.007C352.742 373.04 352.751 373.073 352.759 373.107C352.784 373.182 352.801 373.265 352.809 373.34C352.809 373.373 352.826 373.407 352.826 373.432C352.842 373.54 352.851 373.648 352.851 373.748C352.851 374.198 352.692 374.515 352.434 374.665C376.11 360.906 445.531 320.779 469.199 307.02C469.457 306.87 469.615 306.553 469.615 306.103C469.615 306.003 469.374 305.037 469.365 305.028L469.382 305.037Z" fill="#808284"/>
<path d="M351.434 371.29C352.226 371.749 352.859 372.849 352.859 373.757C352.859 374.665 352.218 375.024 351.426 374.574C350.634 374.115 350.001 373.015 350.001 372.107C350.001 371.199 350.643 370.832 351.434 371.29Z" fill="#656667"/>
<path d="M371.06 362.072V363.839L404.953 383.473L404.945 381.707L371.06 362.072Z" fill="#636466"/>
<path d="M404.945 381.708L404.953 383.474L406.486 382.591V380.824L404.945 381.708Z" fill="#454647"/>
<path d="M371.059 362.073L404.945 381.707L406.486 380.824L372.593 361.189L371.059 362.073Z" fill="#6E7072"/>
<path d="M455.423 313.203L455.431 314.97L489.316 334.604V332.838L455.423 313.203Z" fill="#636466"/>
<path d="M489.316 332.837V334.604L490.857 333.72L490.849 331.945L489.316 332.837Z" fill="#454647"/>
<path d="M455.423 313.203L489.316 332.838L490.85 331.946L456.965 312.312L455.423 313.203Z" fill="#6E7072"/>
<path d="M481.832 328.804C483.441 327.229 479.649 326.496 478.616 325.971C475.899 324.596 471.04 321.937 469.682 321.462C468.323 320.987 461.748 314.637 460.731 315.162C459.715 315.687 456.073 320.195 453.106 321.37C450.139 322.545 445.631 322.829 445.772 324.654C445.914 326.479 451.106 332.671 453.256 334.021C455.406 335.379 460.315 339.363 461.898 339.671C463.49 339.98 469.498 336.438 471.157 334.838C472.815 333.238 481.041 329.571 481.832 328.804Z" fill="#5B68B7"/>
<path d="M433.737 327.104C441.204 323.854 452.163 321.987 454.413 325.446C455.354 326.896 447.404 327.213 447.404 327.213C447.404 327.213 437.554 330.138 434.845 329.946C430.786 329.654 432.995 327.438 433.745 327.104H433.737Z" fill="white"/>
<path d="M420.487 352.49C422.554 351.706 429.937 345.989 432.462 346.364L437.404 348.348C436.063 352.54 433.246 353.273 429.446 353.948C424.979 354.731 418.612 359.373 417.853 360.473C416.712 362.107 411.42 366.007 408.578 367.532C405.111 369.391 402.402 373.482 402.402 373.482C402.402 373.482 401.944 374.474 401.186 374.399C399.469 374.216 395.869 374.807 395.602 372.699C395.527 372.116 396.669 371.941 398.752 371.674C399.811 371.532 400.211 371.007 400.769 370.841C402.419 370.341 402.736 369.107 402.736 369.107L413.803 357.157C413.803 357.157 416.095 354.181 420.495 352.498L420.487 352.49Z" fill="white"/>
<path d="M416.811 345.822C418.878 345.03 426.262 339.314 428.787 339.689L433.721 341.672C432.379 345.864 430.579 344.939 426.779 345.606C422.312 346.397 414.786 352.614 414.161 353.798C412.87 356.256 407.419 358.998 404.578 360.515C401.102 362.373 398.719 366.807 398.719 366.807C398.719 366.807 398.219 367.473 397.502 367.715C395.335 368.482 389.902 369.198 389.635 367.09C389.56 366.507 390.327 365.848 392.41 365.582C393.469 365.448 395.21 364.973 395.769 364.815C397.419 364.315 399.044 362.423 399.044 362.423L410.119 350.472C410.119 350.472 412.411 347.497 416.811 345.822Z" fill="white"/>
<path d="M456.789 331.388C456.789 331.388 461.839 329.33 463.431 329.288C464.689 329.255 461.414 324.904 461.414 324.904L455.597 327.163L456.789 331.388Z" fill="white"/>
<path d="M442.196 344.714C442.196 344.714 440.413 352.772 430.929 354.864C421.454 356.956 418.695 359.131 417.345 361.223C415.312 364.373 403.344 372.157 403.344 372.157C403.344 372.157 402.619 372.107 402.094 371.39C401.544 370.64 401.753 369.932 401.753 369.932C401.753 369.932 412.262 358.073 413.987 356.331C415.712 354.589 425.904 348.856 428.162 347.314C430.429 345.764 431.229 345.697 430.429 345.764C429.621 345.839 422.787 349.147 419.637 350.672C416.487 352.206 417.203 351.956 413.212 355.514C409.211 359.073 398.944 366.473 398.944 366.473C398.944 366.473 396.786 365.857 397.194 364.098C397.377 363.315 407.761 352.539 410.853 349.581C413.953 346.622 426.212 339.605 429.079 338.872C431.938 338.138 434.179 337.48 434.288 336.68C434.388 335.88 441.446 342.539 443.23 342.58C443.588 342.58 442.205 344.689 442.205 344.689L442.196 344.714Z" fill="#A01F1F"/>
<path d="M445.621 344.022C443.054 347.155 440.971 348.172 440.196 348.531C440.196 348.531 437.004 344.914 435.712 342.339C434.412 339.772 434.137 336.93 434.137 336.93C434.329 336.863 439.721 335.371 439.912 335.296C442.262 334.371 444.187 329.721 445.404 328.313C446.504 327.038 453.138 325.004 454.313 325.313C459.43 328.604 459.588 331.438 460.738 334.847C459.863 335.222 455.313 339.038 454.338 339.555C451.246 341.18 447.188 342.113 445.621 344.022Z" fill="white"/>
<path d="M460.156 332.889C459.465 331.347 459.365 329.122 457.739 327.613C456.931 326.872 456.148 326.272 455.323 325.972C454.264 326.038 453.131 326.513 451.731 327.555C449.997 328.839 450.281 330.83 450.964 331.547C454.256 335.064 458.348 331.705 460.148 332.88L460.156 332.889Z" fill="white"/>
<path d="M467.623 320.746C466.347 317.854 464.281 318.529 462.647 319.163C461.506 319.604 459.105 321.004 459.105 321.004C457.205 322.263 455.947 323.821 456.055 325.08C456.189 326.655 459.03 327.688 460.73 328.538C462.822 329.58 464.389 328.338 464.656 328.255L466.447 325.53C466.447 325.53 468.314 322.271 467.631 320.738L467.623 320.746Z" fill="white"/>
<path d="M472.048 322.096C472.206 322.046 472.465 321.154 473.873 321.429C475.281 321.705 476.048 323.321 475.315 324.871C474.581 326.413 472.906 327.83 471.489 326.338C470.073 324.846 472.048 322.096 472.048 322.096Z" fill="#4F1F07"/>
<path d="M462.588 328.997C470.472 332.822 475.256 322.388 470.28 319.438C465.305 316.488 463.18 318.954 463.18 318.954C463.18 318.954 465.788 318.304 465.83 322.58C465.83 323.688 463.53 324.546 465.213 326.388C466.122 327.38 462.105 328.763 462.588 328.997Z" fill="#662B0A"/>
<path d="M449.513 326.23C449.513 326.23 448.222 329.822 450.022 332.797C451.822 335.772 454.714 335.922 456.747 339.131C458.781 342.339 460.814 345.673 463.706 347.156C466.598 348.64 461.531 348.531 459.647 351.398C457.914 354.032 433.329 364.824 427.929 368.474C423.387 371.541 422.037 372.891 416.487 375.549C410.928 378.208 394.069 370.049 393.611 366.991C393.152 363.932 392.602 353.14 397.844 350.081C403.086 347.031 410.045 340.773 410.045 340.773L427.721 330.605C427.721 330.605 433.721 333.564 439.063 327.005C440.78 324.897 449.622 324.972 449.505 326.222L449.513 326.23Z" fill="#293896"/>
<path d="M460.073 334.163C460.073 334.163 462.431 334.488 459.823 339.78C458.748 341.964 456.964 345.806 454.439 349.256C452.206 352.306 443.93 347.639 443.93 347.639C443.93 347.639 442.605 347.072 442.614 346.597C442.63 345.739 442.747 344.797 442.747 344.797C442.747 344.797 451.656 346.314 451.897 346.056C452.556 345.356 454.589 339.955 454.589 339.955C454.589 339.955 455.264 337.63 455.881 336.189C457.123 333.23 460.081 334.172 460.081 334.172L460.073 334.163Z" fill="white"/>
<path d="M444.781 345.439C444.781 345.439 441.956 340.964 439.372 341.147C437.447 341.28 436.614 341.472 436.614 341.472C436.614 341.472 436.205 342.63 436.997 343.397C437.797 344.156 438.355 344.139 439.155 344.897C439.955 345.656 440.739 346.639 441.756 346.989C444.064 347.797 444.789 345.439 444.789 345.439H444.781Z" fill="white"/>
<path d="M434.738 327.172C434.738 327.172 433.421 326.48 430.846 328.38C428.288 330.255 426.046 330.197 426.046 330.197L426.388 332.355C426.388 332.355 431.946 332.547 434.03 331.205C436.472 329.63 436.513 327.572 434.73 327.18L434.738 327.172Z" fill="white"/>
<path d="M428.078 330.755C428.078 330.755 428.503 329.413 425.57 330.321C422.469 331.263 420.278 334.222 421.686 335.688C422.044 336.055 425.136 335.788 426.203 334.58C426.678 334.038 429.078 331.713 429.078 331.713L428.086 330.763L428.078 330.755Z" fill="white"/>
<path d="M510.525 320.162C510.225 319.62 509.692 319.254 509.583 319.196C509.183 318.971 508.825 318.946 508.567 319.096C484.89 332.855 407.053 377.832 383.377 391.591C383.635 391.441 383.993 391.458 384.393 391.691C384.502 391.749 384.602 391.824 384.702 391.908C384.735 391.933 384.76 391.966 384.793 391.999C384.86 392.058 384.918 392.116 384.985 392.183C385.018 392.216 385.043 392.249 385.068 392.283C385.143 392.374 385.21 392.466 385.277 392.558C385.302 392.599 385.327 392.633 385.352 392.674C385.427 392.799 385.493 392.924 385.552 393.049C385.552 393.066 385.568 393.074 385.568 393.091C385.568 393.108 385.577 393.116 385.585 393.133C385.627 393.224 385.66 393.316 385.685 393.416C385.693 393.449 385.702 393.483 385.718 393.516C385.743 393.591 385.76 393.674 385.768 393.749C385.768 393.783 385.785 393.816 385.785 393.841C385.802 393.949 385.81 394.049 385.81 394.158C385.81 394.608 385.652 394.924 385.393 395.074C409.07 381.315 486.907 336.338 510.583 322.579C510.842 322.429 511 322.112 511 321.662C511 321.562 510.867 320.796 510.517 320.162H510.525Z" fill="#808284"/>
<path d="M384.401 391.691C385.193 392.15 385.826 393.25 385.826 394.158C385.826 395.066 385.184 395.425 384.393 394.975C383.601 394.525 382.968 393.416 382.968 392.516C382.968 391.608 383.609 391.241 384.401 391.699V391.691Z" fill="#656667"/>
<path d="M356 425.009C356 425.009 353.8 426.651 353.375 429.876C353.283 430.543 354.141 431.576 354.141 431.576C354.141 431.576 354.566 431.26 355.45 431.643C355.616 431.718 355.833 432.101 355.966 432.235C357.608 433.81 358.442 434.285 358.683 434.418C359.942 435.127 361.558 435.302 362.542 435.127C363.525 434.952 366.3 433.326 366.3 433.326C366.3 433.326 366.634 432.01 365.567 431.493C364.5 430.976 362.617 431.235 362.617 431.235C362.617 431.235 360.275 429.035 359.45 428.176C358.633 427.318 355.991 425.001 355.991 425.001L356 425.009Z" fill="#0E1A68"/>
<path d="M474.415 295.628C474.415 295.628 471.057 296.428 465.232 308.487C464.14 310.745 462.423 313.887 466.332 314.804C469.64 315.579 469.582 315.512 471.64 315.929C471.565 312.77 471.374 305.762 471.274 301.795C471.207 299.386 472.632 297.095 474.424 295.636L474.415 295.628Z" fill="#C5CDFF"/>
<path d="M368.593 354.181L369.81 347.181L375.694 348.547L374.502 355.464C374.502 356.431 375.619 356.581 376.127 357.406L368.593 354.181Z" fill="white"/>
<path d="M373.143 386.491C372.151 393.141 368.951 408.692 368.067 411.125C366.159 416.376 361.417 429.701 361.142 430.11C361.067 430.226 361.075 430.651 357.992 427.526C357.033 426.551 354.717 425.584 353.642 426.426C353.642 426.426 357.7 412.575 359.417 407.442C362.042 399.558 362.159 382.907 362.159 382.907L373.143 386.491Z" fill="#293896"/>
<path d="M372.359 380.107C370.067 379.54 361.917 378.048 357.725 377.031C355.35 376.456 355.25 375.398 355.358 374.156C355.775 369.139 360.967 358.797 362.683 356.764C364.942 354.089 367.167 353.38 368.959 354.139C370.451 354.764 369.917 358.089 369.417 360.656C368.825 363.672 368.15 369.023 368.367 371.031C368.459 371.914 377.143 374.223 377.143 374.223C377.143 374.223 375.009 380.765 372.367 380.107H372.359Z" fill="#C5CDFF"/>
<path d="M385.41 421.101C385.41 421.101 384.435 422.867 385.685 422.817C386.46 422.784 388.877 422.167 388.877 422.167C390.152 421.759 391.794 421.576 392.219 422.509C392.219 422.509 392.402 422.876 392.411 423.084C392.436 423.809 392.611 423.176 391.736 424.176C391.736 424.176 390.052 425.817 388.969 426.509C387.61 427.376 386.86 427.493 386.394 427.501C386.394 427.501 385.435 427.434 384.86 427.576C384.219 427.743 384.494 428.534 384.577 429.176L382.685 430.259C380.727 431.051 378.902 429.501 378.843 429.009L378.185 423.876L385.402 421.101H385.41Z" fill="#0E1A68"/>
<path d="M385.561 427.301C386.119 427.217 386.753 427.042 388.378 426.359C389.728 425.792 391.603 424.092 391.603 424.092C392.053 423.667 392.386 423.167 392.336 422.742C392.386 422.901 392.42 423.059 392.436 423.151C392.561 423.801 392.036 424.226 391.603 424.617C391.603 424.617 390.153 426.026 388.994 426.576C387.503 427.284 387.253 427.267 386.561 427.384C386.561 427.384 385.678 427.542 385.094 427.642C384.828 427.684 384.486 427.892 384.494 427.959C384.494 427.917 384.528 427.459 385.569 427.301H385.561Z" fill="#0C1342"/>
<path d="M382.619 429.692L384.494 428.626C384.527 428.834 384.56 429.059 384.594 429.259L382.702 430.343C380.735 431.143 378.918 429.584 378.86 429.084L378.777 428.442C378.843 428.934 380.66 430.492 382.619 429.692Z" fill="#0C1342"/>
<path d="M375.402 385.983C375.402 385.983 382.519 406.067 382.977 408.026C383.969 412.309 386.594 424.302 386.594 424.302C386.594 424.302 385.41 428.035 381.51 428.902C379.335 429.385 378.56 427.402 378.452 426.785C377.093 418.985 375.101 412.243 374.493 410.734C373.476 408.192 369.226 400.45 367.351 396.125C365.843 392.658 365.843 388.633 365.843 388.633L375.402 385.975V385.983Z" fill="#293896"/>
<path d="M379.351 360.94C380.86 363.198 380.676 374.665 380.235 378.399C379.759 382.449 378.793 391.408 378.793 391.408C378.793 392.225 377.926 393.45 376.801 394.125C375.659 394.808 369.851 396.317 366.125 395.292C361.934 394.141 360.859 393.433 360.859 391.708C360.859 391.708 361.8 371.757 362.675 359.506C362.934 355.923 367.651 353.581 367.651 353.581C367.651 353.581 370.892 353.964 373.751 355.681C377.468 357.915 377.768 358.548 379.359 360.94H379.351Z" fill="#C5CDFF"/>
<path d="M358.21 431.96C358.301 432.043 359.985 434.135 360.351 434.427C361.16 435.069 361.751 435.127 362.135 435.135C361.61 435.252 360.176 435.252 358.91 434.618C357.385 433.86 355.851 432.085 355.768 432.085C355.634 432.085 357.876 432.743 357.876 432.743L358.21 431.968V431.96Z" fill="#0C1342"/>
<path d="M494.858 321.188L500.417 321.813C500.417 321.813 500.2 322.388 500.675 322.729C501.192 323.096 502.417 323.738 504.417 323.288C506.159 322.896 504.417 325.521 504.417 325.521C503.751 326.446 502.792 326.596 500.65 326.521C500.092 326.504 499.684 326.263 497.734 325.338C497.35 325.154 494.7 324.254 494.325 324.029L494.858 321.188Z" fill="white"/>
<path d="M389.536 381.607C389.536 381.607 392.002 383.499 394.152 383.374C396.303 383.241 396.769 383.832 396.769 383.832C396.769 383.832 395.536 384.391 396.011 384.724C396.528 385.091 397.386 385.499 399.386 385.049C401.128 384.658 399.386 387.283 399.386 387.283C398.719 388.208 397.761 388.358 395.619 388.283C395.061 388.266 394.652 388.024 392.702 387.099C392.319 386.916 389.669 386.016 389.294 385.791L389.536 381.607Z" fill="white"/>
<path d="M376.902 338.596L381.127 339.113L379.36 349.972C378.91 353.097 377.552 353.455 376.602 353.389C374.627 353.239 372.526 351.955 371.476 351.205C369.443 349.763 369.785 346.105 369.793 345.805L369.71 338.446L376.902 338.596Z" fill="white"/>
<path d="M369.976 336.038C370.076 335.838 373.31 335.072 375.252 335.363C375.485 335.397 376.785 335.73 377.843 335.672C377.91 335.672 377.418 335.822 377.485 336.147C377.518 336.305 378.043 336.288 378.377 336.288C378.635 336.288 379.777 336.513 380.027 336.988C380.044 337.013 379.468 337.097 379.802 337.38C380.31 337.805 380.835 338.247 381.335 338.972C381.727 339.538 382.002 340.647 382.002 340.647C381.852 340.947 381.027 340.605 380.677 340.955C380.494 341.139 379.935 341.755 379.577 342.647C379.227 343.547 379.002 344.405 378.768 345.614L378.527 346.747C378.51 347.172 377.902 345.914 377.627 345.539C377.343 345.164 376.785 345.389 375.16 346.797C374.46 347.406 371.535 349.789 371.535 349.789C370.726 350.281 370.018 350.572 369.318 349.506C369.093 349.156 367.443 346.189 367.151 345.122C366.159 341.497 366.951 337.655 369.976 336.022V336.038Z" fill="#A35F16"/>
<path d="M377.602 345.397C377.602 345.397 376.701 345.506 376.368 346.522C376.135 347.239 376.368 347.856 376.501 348.039C376.86 348.531 377.252 348.648 377.252 348.648C377.252 348.648 377.302 346.906 377.327 346.589C377.36 346.273 377.602 345.406 377.602 345.406V345.397Z" fill="white"/>
<path d="M378.035 345.039C378.035 345.039 378.552 345.039 378.16 345.747C377.768 346.464 377.668 346.905 377.643 347.314C377.618 347.689 377.668 348.822 377.668 348.822C377.668 348.822 377.335 349.272 377.043 348.572C376.91 348.239 376.835 347.614 376.885 346.814C376.902 346.489 377.493 344.855 378.043 345.039H378.035Z" fill="white"/>
<path d="M391.678 387.808L380.211 383.649C380.211 383.649 374.502 381.391 374.035 380.474C371.902 376.232 371.385 364.648 371.66 361.24C371.802 359.531 373.035 357.398 374.969 357.123C376.569 356.898 377.735 358.656 378.619 361.123C379.661 364.015 378.927 374.865 380.144 376.482C380.677 377.191 393.503 382.266 393.503 382.266C393.503 382.266 394.286 387.024 391.678 387.816V387.808Z" fill="#C5CDFF"/>
<path d="M496.523 325.704C494.74 326.004 484.548 322.937 484.548 322.937C484.548 322.937 481.881 322.487 480.914 320.412C479.689 317.803 480.764 307.52 481.039 304.111C481.181 302.403 482.414 300.269 484.348 299.994C485.948 299.769 488.373 301.503 488.598 304.061C488.873 307.128 485.656 315.828 486.164 316.545C486.681 317.27 497.673 321.387 497.673 321.387C497.673 321.387 498.482 325.379 496.515 325.704H496.523Z" fill="#C5CDFF"/>
<path d="M435.863 322.371C435.863 322.371 438.597 324.421 438.997 324.929C439.397 325.446 439.322 329.279 438.755 330.021C438.188 330.763 436.313 330.304 435.513 329.963C434.721 329.621 435.746 329.621 435.855 329.104C435.963 328.596 434.221 327.371 433.763 327.079C433.313 326.796 432.913 324.296 432.913 324.296L435.871 322.362L435.863 322.371Z" fill="white"/>
<path d="M426.687 290.202C426.687 290.202 428.662 289.86 429.646 292.594C430.629 295.327 429.779 308.528 430.612 309.895C431.371 311.137 435.304 320.354 436.029 322.07C436.096 322.22 436.071 322.395 435.929 322.487L432.571 324.637C432.446 324.712 432.296 324.671 432.229 324.546L424.387 310.653C424.387 310.653 423.02 296.386 423.554 293.652C424.087 290.919 424.937 290.352 426.687 290.202Z" fill="#C5CDFF"/>
<defs>
<linearGradient id="paint0_linear_2067_298510" x1="258.923" y1="200.883" x2="267.917" y2="216.462" gradientUnits="userSpaceOnUse">
<stop offset="0.197" stop-color="#383838"/>
<stop offset="0.2562" stop-color="#434343"/>
</linearGradient>
<linearGradient id="paint1_linear_2067_298510" x1="251.453" y1="183.358" x2="262.368" y2="202.263" gradientUnits="userSpaceOnUse">
<stop offset="0.0985" stop-color="#434343"/>
<stop offset="0.1163" stop-color="#3C3C3C"/>
<stop offset="0.1429" stop-color="#383838"/>
</linearGradient>
<linearGradient id="paint2_linear_2067_298510" x1="241.415" y1="210.992" x2="250.409" y2="226.571" gradientUnits="userSpaceOnUse">
<stop offset="0.197" stop-color="#383838"/>
<stop offset="0.2562" stop-color="#434343"/>
</linearGradient>
<linearGradient id="paint3_linear_2067_298510" x1="233.945" y1="193.467" x2="244.859" y2="212.371" gradientUnits="userSpaceOnUse">
<stop offset="0.0985" stop-color="#434343"/>
<stop offset="0.1163" stop-color="#3C3C3C"/>
<stop offset="0.1429" stop-color="#383838"/>
</linearGradient>
<linearGradient id="paint4_linear_2067_298510" x1="255.478" y1="214.7" x2="279.84" y2="214.7" gradientUnits="userSpaceOnUse">
<stop stop-color="#202021"/>
<stop offset="0.8488" stop-color="#28282A"/>
</linearGradient>
<linearGradient id="paint5_linear_2067_298510" x1="263.983" y1="183.48" x2="275.666" y2="196.875" gradientUnits="userSpaceOnUse">
<stop stop-color="#774E2C"/>
<stop offset="0.384" stop-color="#805531"/>
<stop offset="1" stop-color="#98663E"/>
</linearGradient>
<linearGradient id="paint6_linear_2067_298510" x1="252.131" y1="186.798" x2="265.855" y2="199.895" gradientUnits="userSpaceOnUse">
<stop stop-color="#774E2C"/>
<stop offset="0.384" stop-color="#805531"/>
<stop offset="1" stop-color="#98663E"/>
</linearGradient>
<linearGradient id="paint7_linear_2067_298510" x1="301.794" y1="205.973" x2="197.591" y2="279.025" gradientUnits="userSpaceOnUse">
<stop stop-color="#ECECEC"/>
<stop offset="1"/>
</linearGradient>
</defs>
</svg>
