<svg width="705" height="468" viewBox="0 0 705 468" fill="none" xmlns="http://www.w3.org/2000/svg">
<rect width="705" height="468" fill="#E0E6F9"/>
<path d="M410.45 244.927C410.971 245.751 410.863 245.837 410.863 245.837C410.863 245.837 411.86 245.382 412.662 245.382C415.612 245.426 421.987 244.927 425.284 243.907C428.428 242.932 420.903 239.57 420.903 239.57L410.971 241.913C410.971 241.913 409.214 243.019 410.429 244.927H410.45Z" fill="white"/>
<path d="M414.503 246.056C417.105 244.863 414.655 240.612 414.655 240.612C414.655 240.612 414.329 240.201 413.701 240.829C413.31 241.22 410.534 240.764 410.166 240.548C409.797 240.309 407.303 240.873 406.74 240.959C406.197 241.046 404.788 239.723 403.942 241.046C403.617 241.523 405.005 243.28 405.286 244.689C405.568 246.099 413.028 246.749 414.503 246.077V246.056Z" fill="#5B68B7"/>
<path d="M422.2 245.076C422.2 245.076 422.72 245.033 423.523 244.903C426.19 244.491 426.906 244.187 427.99 243.384C430.636 241.433 430.961 231.696 430.961 231.696C430.961 231.696 432.718 225.147 429.877 222.198C427.795 220.029 424.238 223.477 423.61 226.231C422.981 229.007 421.289 235.968 421.181 238.072C421.181 238.462 420.899 238.766 420.53 238.896L418.925 239.589L422.2 245.054V245.076Z" fill="#F9F9F9"/>
<path d="M421.225 237.465C421.074 237.052 420.575 237.096 420.271 237.291L417.973 239.763C417.756 239.958 417.712 240.262 417.799 240.522C418.818 243.298 420.835 245.358 422.18 245.553L425.562 244.925C425.931 244.838 426.018 244.361 425.714 244.1C424.782 243.276 422.44 240.631 421.204 237.465H421.225Z" fill="#0E1A68"/>
<g opacity="0.21" style="mix-blend-mode:multiply">
<path d="M426.153 294.241C428.994 294.133 432.789 296.431 439.295 299.597C441.376 300.616 448.164 309.594 438.449 311.503C428.734 313.411 425.698 305.279 419.669 304.26C409.802 302.59 405.704 295.022 426.153 294.263V294.241Z" fill="#0E1A68"/>
</g>
<path d="M423.179 294.153L420.729 295.303C420.729 295.303 412.684 298.209 413.139 300.16C413.312 300.898 415.329 301.873 416.197 302.025C417.866 302.35 421.38 301.656 421.38 301.656C421.835 301.44 428.557 299.726 428.557 299.726C428.557 299.726 429.728 299.553 429.36 297.775L429.729 294.153H423.201H423.179Z" fill="#212121"/>
<path d="M434.909 301.201L432.589 305.494C432.589 305.494 430.138 309.246 433.283 309.68C433.911 309.767 437.078 309.962 437.078 309.962C437.837 310.005 439.528 310.157 440.612 308.921C441.285 308.14 441.545 304.128 441.545 303.608C441.523 301.656 441.415 300.832 441.415 300.832L434.909 301.179V301.201Z" fill="#0E1A68"/>
<path d="M422.267 250.435L421.291 293.719C421.096 295.194 421.703 295.389 421.812 295.497C423.069 296.712 428.751 298.967 429.489 297.232L433.565 251.888L422.289 250.435H422.267Z" fill="#0E1A68"/>
<path d="M433.175 259.13L434.194 300.962C433.782 301.894 433.37 303.152 434.476 302.718C437.989 301.373 441.524 303.585 441.524 303.585C442.088 303.347 442.153 301.959 442.131 298.815L442.934 277.194L433.153 259.13H433.175Z" fill="#0E1A68"/>
<path d="M444.883 225.581C444.883 225.581 439.678 222.935 435.948 222.155C429.421 220.745 427.599 221.634 427.599 221.634C427.599 221.634 425.431 223.976 424.108 229.029C424 229.419 419.771 251.43 420.92 275.003C421.007 276.911 426.992 279.665 432.695 279.838C437.662 279.99 444.384 278.32 444.384 278.32C444.384 278.32 442.454 253.62 442.736 245.445C442.974 238.375 444.883 225.581 444.883 225.581Z" fill="#EFEFEF"/>
<path d="M437.447 210.314C436.016 210.076 435.626 211.42 435.626 211.42L435.149 214.283C435.149 214.283 435.105 214.912 435.626 215.107C436.406 215.411 436.884 214.76 437.361 214.044C437.382 214.001 438.033 212.939 438.076 212.874C438.64 211.963 438.77 210.553 437.404 210.314H437.447Z" fill="#FFE8D9"/>
<path d="M432.115 227.015C432.267 234.042 438.577 226.56 438.512 221.724L438.902 212.963L432.05 214.785L432.115 222.852C432.115 222.852 432.071 225.172 432.115 226.994V227.015Z" fill="white"/>
<path d="M432.864 205.985L438.415 206.614L437.418 216.633C437.266 217.305 437.114 218.216 436.463 218.823C435.986 219.278 435.618 219.452 434.642 219.929C434.642 219.929 430.89 221.295 428.917 220.341C428.114 219.951 427.919 218.888 427.724 218.237C427.507 217.5 427.29 215.267 427.29 214.659L427.052 209.78C427.052 209.78 426.813 207.395 427.464 206.527C428.353 205.356 432.864 205.985 432.864 205.985Z" fill="white"/>
<path d="M427.202 207.133C427.202 207.133 427.419 206.33 429.197 206.504C431.279 206.72 433.382 208.217 433.751 208.499C434.813 209.279 435.074 211.665 434.944 212.532C434.944 212.532 436.57 212.207 437.806 212.532C438.869 212.793 437.589 214.181 437.524 214.289L437.264 215.221C437.307 215.72 438.218 217.932 438.522 217.325C439.021 216.327 440.148 214.137 440.495 213.53C444.442 206.547 439.238 200.952 432.038 202.167C430.628 202.405 428.481 203.294 427.397 204.552C427.159 204.834 427.397 205.658 427.18 207.111L427.202 207.133Z" fill="#5E3E0B"/>
<path d="M437.679 211.385C436.248 211.233 435.923 212.599 435.923 212.599L435.619 215.483C435.619 215.483 435.619 216.112 436.161 216.286C436.964 216.546 437.397 215.874 437.853 215.115C437.875 215.072 438.46 213.965 438.504 213.9C439.002 212.968 439.067 211.537 437.701 211.385H437.679Z" fill="white"/>
<path d="M425.736 278.495C425.974 278.582 426.234 278.669 426.495 278.756L428.533 234.712L427.774 235.232L425.757 278.495H425.736Z" fill="#0E1A68"/>
<path d="M430.88 237.335C430.88 237.942 430.489 238.44 430.012 238.44C429.535 238.44 429.145 237.942 429.145 237.335C429.145 236.727 429.535 236.229 430.012 236.229C430.489 236.229 430.88 236.727 430.88 237.335Z" fill="#0E1A68"/>
<path d="M430.423 247.05C430.423 247.658 430.032 248.156 429.555 248.156C429.078 248.156 428.666 247.658 428.666 247.05C428.666 246.443 429.057 245.944 429.555 245.944C430.054 245.944 430.423 246.443 430.423 247.05Z" fill="#0E1A68"/>
<path d="M429.923 256.53C429.923 257.137 429.533 257.636 429.034 257.636C428.535 257.636 428.166 257.137 428.166 256.53C428.166 255.923 428.557 255.424 429.034 255.424C429.511 255.424 429.923 255.923 429.923 256.53Z" fill="#0E1A68"/>
<path d="M429.465 267.673C429.465 268.281 429.074 268.779 428.597 268.779C428.12 268.779 427.73 268.281 427.73 267.673C427.73 267.066 428.12 266.567 428.597 266.567C429.074 266.567 429.465 267.066 429.465 267.673Z" fill="#0E1A68"/>
<path d="M431.853 220.922C432.07 220.922 432.243 221.074 432.243 221.269L432.438 228.924L430.4 231.7L429.056 221.573C429.034 221.356 429.186 221.182 429.381 221.16L431.831 220.922H431.853Z" fill="#0E1A68"/>
<path d="M438.443 220.358C438.594 220.163 438.876 220.141 439.05 220.315L442.91 224.305C443.083 224.479 443.04 224.76 442.845 224.912L427.773 235.256L438.464 220.358H438.443Z" fill="#0E1A68"/>
<path d="M431.831 252.169L430.248 250.239L421.053 255.379C420.858 256.723 425.889 256.008 427.06 256.181C428.687 256.42 429.576 255.986 429.576 255.986L431.05 254.793C431.874 254.143 432.547 253.037 431.831 252.169Z" fill="#FFE8D9"/>
<path d="M429.794 252.951C430.315 253.775 430.445 254.404 430.445 254.404C430.445 254.404 431.811 253.341 432.548 252.994C436.539 251.107 438.924 250.001 441.374 249.004C443.066 248.332 438.599 244.06 438.599 244.06L429.339 250.522C429.339 250.522 428.58 251.064 429.794 252.972V252.951Z" fill="white"/>
<path d="M435.995 245.535L440.419 242.174C440.744 241.914 440.939 241.524 440.939 241.112C440.983 238.791 441.2 231.179 442.024 229.249C443 226.951 444.496 225.411 444.496 225.411C444.496 225.411 447.358 225.823 448.161 229.249C448.811 232.003 447.662 240.526 447.207 243.735C447.098 244.559 446.643 245.297 446.014 245.817C444.17 247.292 442.544 248.636 442.067 248.766L436.017 245.513L435.995 245.535Z" fill="#F9F9F9"/>
<path d="M436.128 244.862C435.89 245.035 435.846 245.382 435.998 245.621L438.926 250.218C439.099 250.478 439.403 250.565 439.685 250.457L443.87 248.765C444.109 248.657 444.174 248.375 444.022 248.158L439.642 242.758C439.468 242.541 439.143 242.498 438.904 242.671L436.107 244.862H436.128Z" fill="#0E1A68"/>
<path d="M430.857 252.472C430.271 253.209 428.862 252.884 428.19 252.342C427.951 252.147 425.501 254.381 425.219 252.797C425.219 252.797 425.609 252.32 426.325 251.496C426.39 251.431 426.867 250.629 427.713 250.477C429.968 250.087 430.315 249.935 430.965 250.477C431.638 251.019 431.442 251.735 430.835 252.472H430.857Z" fill="#FFE8D9"/>
<path d="M427.997 252.408L416.199 259.261C415.375 259.738 414.031 259.738 413.207 259.261L395.945 249.307C395.533 249.068 395.316 248.743 395.316 248.439V249.654C395.316 249.979 395.511 250.283 395.945 250.521L413.207 260.475C414.031 260.952 415.375 260.952 416.199 260.475L427.997 253.622C428.409 253.384 428.604 253.08 428.604 252.755V251.54C428.604 251.844 428.409 252.169 427.997 252.408Z" fill="white"/>
<path d="M427.977 250.674C428.801 251.151 428.801 251.932 427.977 252.409L416.18 259.261C415.356 259.739 414.011 259.739 413.187 259.261L395.925 249.308C395.101 248.83 395.101 248.05 395.925 247.573L407.722 240.72C408.546 240.243 409.891 240.243 410.715 240.72L427.977 250.674Z" fill="#293896"/>
<path d="M427.105 251.953L410.732 242.455C409.908 241.978 408.563 241.978 407.739 242.455L396.506 248.917L395.964 248.505C395.791 248.245 396.181 247.877 396.593 247.638L407.739 241.241C408.563 240.764 409.908 240.764 410.732 241.241L426.996 250.696C427.625 251.021 427.886 251.324 427.712 251.541C427.712 251.541 427.127 251.932 427.105 251.932V251.953Z" fill="#0E1A68"/>
<path d="M433.001 246.943C432.697 247.095 431.114 248.374 430.312 248.374C429.748 248.374 428.729 248.699 427.471 248.765C426.018 248.851 426.321 250.825 424.522 252.061C423.329 252.863 424.327 254.316 425.758 253.666C427.384 252.928 427.883 251.736 428.078 252.148C428.273 252.538 428.186 253.666 426.734 254.316C425.281 254.967 422.873 256.55 422.873 256.55C422.873 256.55 422.765 257.417 423.763 257.352C424.76 257.287 428.23 256.94 429.011 256.962C429.791 256.962 432.133 255.401 432.871 253.557C433.196 252.755 435.581 253.405 435.906 252.213C436.232 251.02 433.825 246.553 433.022 246.943H433.001Z" fill="#5B68B7"/>
<path d="M411.989 240.982C411.989 240.982 410.883 240.136 409.582 239.464C409.083 239.204 407.544 238.553 406.72 240.071C405.505 242.326 405.223 242.695 405.917 243.085C406.633 243.476 407.977 242.803 408.303 241.502C408.671 240.093 411.968 241.502 411.968 240.982H411.989Z" fill="#5B68B7"/>
<path d="M428.637 252.271L416.628 258.98C415.789 259.447 414.421 259.447 413.582 258.98L396.01 249.236C395.591 249.002 395.37 248.684 395.37 248.387V249.575C395.37 249.894 395.569 250.191 396.01 250.425L413.582 260.168C414.421 260.636 415.789 260.636 416.628 260.168L428.637 253.46C429.056 253.227 429.255 252.93 429.255 252.611V251.422C429.255 251.719 429.056 252.038 428.637 252.271Z" fill="white"/>
<path d="M428.617 250.575C429.456 251.042 429.456 251.806 428.617 252.273L416.608 258.981C415.769 259.448 414.401 259.448 413.562 258.981L395.99 249.237C395.151 248.77 395.151 248.006 395.99 247.539L407.999 240.831C408.838 240.364 410.206 240.364 411.045 240.831L428.617 250.575Z" fill="#293896"/>
<path d="M427.73 251.828L411.063 242.529C410.224 242.062 408.856 242.062 408.017 242.529L396.582 248.856L396.03 248.452C395.854 248.197 396.251 247.837 396.67 247.603L408.017 241.341C408.856 240.873 410.224 240.873 411.063 241.341L427.619 250.596C428.259 250.915 428.524 251.212 428.348 251.424C428.348 251.424 427.752 251.806 427.73 251.806V251.828Z" fill="#0E1A68"/>
<path d="M406.26 248.233C408.096 249.27 411.031 249.24 412.815 248.167C414.599 247.093 414.557 245.381 412.722 244.344C410.886 243.307 407.952 243.336 406.167 244.41C404.383 245.484 404.424 247.196 406.26 248.233Z" fill="#C5CDFF"/>
<path d="M403.166 244.69C403.129 244.767 403.089 244.843 403.052 244.918C402.37 246.268 402.962 247.786 404.812 248.831L404.895 248.533C403.078 247.508 402.497 246.017 403.166 244.69Z" fill="#C5CDFF"/>
<path d="M415.921 244.881C415.884 244.807 415.844 244.73 415.805 244.654C416.465 245.944 415.94 247.4 414.216 248.439C411.679 249.966 407.506 250.008 404.895 248.533L404.812 248.831C407.47 250.333 411.72 250.29 414.303 248.735C416.059 247.678 416.594 246.195 415.921 244.881Z" fill="#C5CDFF"/>
<path d="M404.895 248.535L406.26 248.233C404.424 247.196 404.382 245.484 406.167 244.41C407.951 243.336 410.886 243.307 412.722 244.344C414.558 245.381 414.6 247.093 412.814 248.166C411.03 249.24 408.096 249.27 406.26 248.233L404.895 248.535C407.506 250.009 411.678 249.967 414.216 248.44C416.754 246.913 416.694 244.479 414.084 243.005C411.473 241.53 407.301 241.572 404.763 243.099C402.225 244.626 402.284 247.06 404.895 248.535Z" fill="white"/>
<path d="M410.855 244.371C411.281 244.107 411.994 243.935 412.717 244.238C412.957 244.338 413.739 244.733 413.788 245.603C413.789 245.878 413.613 246.153 413.258 246.366C412.538 246.799 411.352 246.812 410.611 246.393C410.234 246.18 410.045 245.896 410.043 245.612C410.062 244.958 410.559 244.553 410.855 244.371Z" fill="#9694FF"/>
<path d="M406.003 244.218C406.429 243.956 407.142 243.782 407.865 244.085C408.103 244.186 408.887 244.581 408.935 245.45C408.936 245.725 408.759 246 408.405 246.213C407.684 246.647 406.499 246.659 405.757 246.24C405.38 246.027 405.191 245.743 405.19 245.46C405.208 244.804 405.707 244.4 406.003 244.218Z" fill="#9694FF"/>
<path d="M408.327 246.121C408.753 245.859 409.466 245.685 410.189 245.989C410.428 246.089 411.211 246.484 411.259 247.353C411.26 247.628 411.084 247.904 410.729 248.117C410.009 248.55 408.823 248.563 408.082 248.143C407.705 247.93 407.515 247.647 407.514 247.363C407.532 246.707 408.031 246.303 408.327 246.121Z" fill="#9694FF"/>
<path d="M412.215 244.718C412.215 244.981 412.428 245.196 412.69 245.196C412.952 245.196 413.165 244.981 413.165 244.718C413.165 244.454 412.952 244.239 412.69 244.239C412.428 244.239 412.215 244.454 412.215 244.718Z" fill="#0E1A68"/>
<path d="M410.785 245.146C410.785 245.41 410.998 245.625 411.26 245.625C411.522 245.625 411.735 245.41 411.735 245.146C411.735 244.882 411.522 244.668 411.26 244.668C410.998 244.668 410.785 244.882 410.785 245.146Z" fill="#0E1A68"/>
<path d="M408.459 246.88C408.459 247.144 408.672 247.358 408.934 247.358C409.196 247.358 409.409 247.144 409.409 246.88C409.409 246.616 409.196 246.401 408.934 246.401C408.672 246.401 408.459 246.616 408.459 246.88Z" fill="#0E1A68"/>
<path d="M409.888 247.265C409.888 247.529 410.101 247.744 410.363 247.744C410.625 247.744 410.838 247.529 410.838 247.265C410.838 247.002 410.625 246.787 410.363 246.787C410.101 246.787 409.888 247.002 409.888 247.265Z" fill="#0E1A68"/>
<path d="M407.04 244.718C407.04 244.981 407.253 245.196 407.515 245.196C407.777 245.196 407.99 244.981 407.99 244.718C407.99 244.454 407.777 244.239 407.515 244.239C407.253 244.239 407.04 244.454 407.04 244.718Z" fill="#0E1A68"/>
<path d="M405.627 245.388C405.627 245.651 405.84 245.866 406.102 245.866C406.364 245.866 406.577 245.651 406.577 245.388C406.577 245.124 406.364 244.909 406.102 244.909C405.84 244.909 405.627 245.124 405.627 245.388Z" fill="#0E1A68"/>
<path d="M411.945 256.234C413.781 257.271 416.716 257.241 418.5 256.167C420.284 255.094 420.242 253.382 418.408 252.345C416.572 251.308 413.637 251.337 411.853 252.411C410.068 253.486 410.11 255.197 411.945 256.234Z" fill="#C5CDFF"/>
<path d="M408.852 252.692C408.814 252.769 408.775 252.845 408.737 252.92C408.056 254.27 408.647 255.788 410.497 256.833L410.58 256.535C408.764 255.509 408.182 254.019 408.852 252.692Z" fill="#C5CDFF"/>
<path d="M421.606 252.883C421.568 252.809 421.529 252.732 421.489 252.656C422.15 253.946 421.624 255.402 419.9 256.441C417.364 257.968 413.19 258.01 410.579 256.535L410.496 256.833C413.155 258.335 417.404 258.292 419.987 256.737C421.745 255.68 422.279 254.197 421.606 252.883Z" fill="#C5CDFF"/>
<path d="M410.58 256.535L411.945 256.233C410.109 255.196 410.067 253.484 411.853 252.41C413.637 251.336 416.571 251.307 418.407 252.344C420.243 253.381 420.284 255.093 418.5 256.166C416.716 257.24 413.781 257.27 411.945 256.233L410.58 256.535C413.191 258.009 417.363 257.967 419.901 256.44C422.44 254.913 422.379 252.479 419.77 251.005C417.159 249.53 412.986 249.572 410.448 251.099C407.91 252.627 407.969 255.06 410.58 256.535Z" fill="white"/>
<path d="M414.027 250.655C413.728 250.829 413.574 251.042 413.358 251.251C413.12 251.484 412.823 251.691 412.681 251.962C412.531 252.247 412.575 252.583 412.912 252.807C413.17 252.984 413.591 253.065 413.819 253.26C414.254 253.619 413.858 254.183 414.338 254.515C414.58 254.683 414.966 254.743 415.327 254.79C415.763 254.855 416.206 254.915 416.65 254.975C417.152 255.044 417.677 255.117 418.195 255.065C418.815 255.004 419.356 254.776 419.868 254.556C420.035 254.484 420.204 254.413 420.35 254.328C420.412 254.292 420.469 254.254 420.521 254.211C420.692 254.077 420.804 253.901 420.731 253.737C420.672 253.59 420.496 253.479 420.319 253.366C418.949 252.512 417.578 251.659 416.2 250.809C415.913 250.624 415.589 250.434 415.167 250.396C414.761 250.356 414.346 250.469 414.057 250.637C414.046 250.644 414.036 250.65 414.027 250.655Z" fill="#5B68B7"/>
<path d="M412.512 251.535C412.213 251.709 412.059 251.922 411.843 252.131C411.605 252.364 411.308 252.571 411.166 252.842C411.016 253.127 411.06 253.463 411.398 253.687C411.656 253.864 412.076 253.945 412.304 254.14C412.739 254.499 412.344 255.063 412.823 255.395C413.065 255.563 413.451 255.623 413.812 255.671C414.248 255.736 414.691 255.797 415.135 255.856C415.637 255.925 416.163 255.999 416.68 255.946C417.301 255.886 417.842 255.657 418.353 255.437C418.52 255.365 418.69 255.294 418.835 255.21C418.897 255.173 418.955 255.135 419.006 255.093C419.177 254.959 419.29 254.782 419.217 254.619C419.158 254.472 418.981 254.36 418.805 254.247C417.434 253.394 416.063 252.54 414.686 251.69C414.398 251.506 414.075 251.315 413.653 251.277C413.246 251.239 412.831 251.35 412.543 251.518C412.532 251.524 412.522 251.53 412.512 251.535Z" fill="#95ADFB"/>
<path d="M410.997 252.416C410.699 252.59 410.545 252.803 410.329 253.012C410.09 253.244 409.793 253.452 409.652 253.723C409.502 254.008 409.545 254.344 409.883 254.568C410.141 254.744 410.561 254.826 410.79 255.021C411.224 255.379 410.829 255.944 411.308 256.275C411.551 256.443 411.936 256.504 412.298 256.552C412.734 256.617 413.177 256.678 413.621 256.737C414.123 256.806 414.648 256.879 415.165 256.827C415.786 256.767 416.327 256.538 416.839 256.318C417.005 256.246 417.175 256.175 417.321 256.091C417.382 256.054 417.441 256.016 417.492 255.974C417.663 255.839 417.775 255.663 417.702 255.499C417.643 255.353 417.467 255.241 417.29 255.128C415.919 254.275 414.549 253.421 413.171 252.571C412.884 252.386 412.56 252.196 412.138 252.158C411.732 252.12 411.317 252.231 411.028 252.399C411.017 252.405 411.007 252.41 410.997 252.416Z" fill="#5B68B7"/>
<path d="M412.825 251.235C412.825 251.69 413.192 252.06 413.645 252.06C414.098 252.06 414.465 251.69 414.465 251.235C414.465 250.779 414.098 250.409 413.645 250.409C413.192 250.409 412.825 250.779 412.825 251.235Z" fill="#9694FF"/>
<path d="M416.097 255.038C416.097 255.494 416.464 255.864 416.916 255.864C417.369 255.864 417.736 255.494 417.736 255.038C417.736 254.583 417.369 254.213 416.916 254.213C416.462 254.213 416.097 254.583 416.097 255.038Z" fill="#9694FF"/>
<path d="M410.977 253.377C410.977 253.833 411.345 254.203 411.797 254.203C412.25 254.203 412.617 253.833 412.617 253.377C412.617 252.921 412.25 252.552 411.797 252.552C411.345 252.552 410.977 252.921 410.977 253.377Z" fill="#9694FF"/>
<path d="M411.922 255.436C411.922 255.892 412.289 256.261 412.742 256.261C413.194 256.261 413.562 255.892 413.562 255.436C413.562 254.98 413.194 254.61 412.742 254.61C412.288 254.61 411.922 254.98 411.922 255.436Z" fill="#9694FF"/>
<path d="M417.424 252.242C417.424 252.697 417.791 253.067 418.244 253.067C418.696 253.067 419.063 252.697 419.063 252.242C419.063 251.786 418.696 251.416 418.244 251.416C417.791 251.416 417.424 251.786 417.424 252.242Z" fill="#9694FF"/>
<path d="M443.346 201.055C441.239 201.252 441.618 207.778 441.618 207.778C439.63 208.273 435.962 206.666 434.045 205.306C431.133 203.255 427.82 204.318 427.82 204.318C427.82 204.318 428.624 198.929 426.991 197.322C426.991 197.322 423.11 192.947 427.133 189.016C427.133 189.016 430.092 186.322 433.074 188.67C433.074 188.67 435.606 184.987 439.441 186.272C439.89 186.421 443.464 188.003 442.352 192.081C442.352 192.081 445.902 190.499 447.867 193.935C448.719 195.419 448.86 200.511 443.322 201.055H443.346Z" fill="white"/>
<path d="M443.013 201.152C441.972 201.276 440.718 200.93 440.031 200.312C439.345 199.719 439.179 198.408 439.014 197.815C436.197 198.581 433.949 196.703 432.836 195.219C430.919 197.37 428.174 197.939 427.345 197.469C427.345 197.469 428.316 197.988 430.659 196.48C433.002 194.972 432.836 193.662 432.836 193.662C432.836 193.662 433.925 195.912 435.724 196.727C437.404 197.518 439.795 196.653 439.795 196.653C439.795 196.653 439.392 198.73 440.481 200.04C441.215 200.93 443.037 201.152 443.037 201.152H443.013Z" fill="#BAB6B5"/>
<path d="M293.102 214.894C293.029 214.819 291.351 213.049 292.819 210.406C293.435 209.299 294.675 208.183 295.989 207.009C297.724 205.448 299.532 203.829 300.124 202.051C301.3 198.569 296.621 195.314 292.494 193.2C285.926 189.836 285.772 178.687 285.772 178.217V157.479H286.462V178.209C286.462 178.318 286.616 189.467 292.835 192.655C299.159 195.893 301.835 199.115 300.781 202.227C300.132 204.148 298.267 205.826 296.467 207.445C295.194 208.586 293.994 209.668 293.427 210.683C292.17 212.94 293.548 214.425 293.613 214.483L293.094 214.894H293.102Z" fill="#BDDAFC"/>
<path d="M281.856 138.881C281.831 138.998 281.71 139.057 281.604 139.032C281.491 139.007 281.41 138.898 281.434 138.78C281.702 137.555 283.072 131.482 283.85 129.938C283.907 129.829 284.045 129.804 284.142 129.871C284.248 129.947 284.256 130.098 284.199 130.215C283.567 131.54 282.431 136.263 281.856 138.889V138.881Z" fill="#9694FF"/>
<g style="mix-blend-mode:multiply" opacity="0.29">
<path d="M324.579 218.761L296.532 235.624L268.307 218.761L296.353 201.899L324.579 218.761Z" fill="#BBD2E9"/>
</g>
<path d="M306.829 225.121C306.829 226.345 307.656 227.839 308.686 228.451C309.716 229.063 310.551 228.577 310.559 227.352C310.559 226.119 309.732 224.634 308.702 224.013C307.672 223.401 306.829 223.887 306.829 225.121ZM307.567 225.557C307.567 224.819 308.078 224.517 308.702 224.886C309.326 225.263 309.829 226.161 309.829 226.899C309.829 227.637 309.318 227.939 308.702 227.562C308.078 227.193 307.575 226.287 307.575 225.548L307.567 225.557Z" fill="#4D4D4D"/>
<path d="M308.694 224.894C308.069 224.525 307.567 224.819 307.559 225.566C307.559 226.312 308.061 227.21 308.686 227.579C309.31 227.956 309.813 227.654 309.813 226.916C309.813 226.178 309.31 225.272 308.686 224.903L308.694 224.894Z" fill="#747575"/>
<path d="M308.93 222.948C309.27 222.746 309.74 222.772 310.259 223.082C311.289 223.694 312.116 225.179 312.116 226.413C312.116 227.025 311.905 227.444 311.573 227.646L310.024 228.585C310.357 228.384 310.567 227.956 310.567 227.352C310.567 226.119 309.74 224.634 308.711 224.013C308.192 223.703 307.721 223.678 307.381 223.879L308.938 222.948H308.93Z" fill="#3B3C3B"/>
<path d="M279.609 208.862C279.609 210.087 280.436 211.572 281.466 212.193C282.496 212.805 283.331 212.318 283.339 211.094C283.339 209.869 282.512 208.376 281.482 207.763C280.453 207.151 279.617 207.637 279.617 208.871L279.609 208.862ZM280.347 209.307C280.347 208.56 280.858 208.266 281.482 208.636C282.107 209.005 282.61 209.911 282.61 210.649C282.61 211.387 282.099 211.689 281.474 211.312C280.858 210.943 280.347 210.037 280.347 209.298V209.307Z" fill="#5B68B7"/>
<path d="M281.474 208.636C280.85 208.266 280.339 208.56 280.339 209.307C280.339 210.053 280.842 210.951 281.466 211.32C282.09 211.689 282.601 211.396 282.601 210.657C282.601 209.911 282.098 209.013 281.474 208.644V208.636Z" fill="#95ADFB"/>
<path d="M281.709 206.69C282.042 206.48 282.52 206.513 283.039 206.824C284.069 207.436 284.896 208.93 284.896 210.154C284.896 210.767 284.685 211.195 284.353 211.388L282.796 212.319C283.128 212.117 283.339 211.69 283.339 211.086C283.339 209.861 282.512 208.367 281.482 207.755C280.963 207.445 280.501 207.411 280.152 207.621L281.709 206.69Z" fill="#0E1A68"/>
<path d="M282.65 223.619C283.169 223.308 283.639 223.275 283.98 223.485C284.11 223.56 284.239 223.644 284.369 223.711C284.547 223.82 284.734 223.929 284.912 224.038C285.115 224.164 285.326 224.29 285.529 224.416C285.188 224.206 284.718 224.24 284.199 224.55C283.98 224.676 283.769 224.852 283.574 225.053L284.199 225.431C283.574 225.8 283.072 226.706 283.08 227.444C283.08 227.813 283.21 228.073 283.412 228.191L282.366 227.562C282.35 227.671 282.342 227.78 282.342 227.88C282.342 228.493 282.553 228.912 282.885 229.122L281.328 228.191C280.996 227.99 280.785 227.562 280.785 226.958C280.785 225.733 281.612 224.24 282.65 223.627V223.619Z" fill="#0E1A68"/>
<mask id="mask0_2067_298496" style="mask-type:luminance" maskUnits="userSpaceOnUse" x="283" y="224" width="3" height="3">
<path d="M283.453 224.416C283.656 224.533 283.777 224.794 283.785 225.171C284.304 225.481 284.823 225.792 285.334 226.102C285.334 225.733 285.213 225.473 285.01 225.356C284.54 225.079 283.923 224.701 283.453 224.416Z" fill="white"/>
</mask>
<g mask="url(#mask0_2067_298496)">
<path d="M285.002 225.356L283.445 224.416C283.647 224.533 283.769 224.794 283.777 225.171C283.777 225.909 283.274 226.815 282.658 227.184L284.215 228.116C284.839 227.746 285.342 226.84 285.334 226.102C285.334 225.733 285.212 225.473 285.01 225.356H285.002Z" fill="#4D4D4D"/>
</g>
<path d="M282.342 227.89C282.342 229.114 283.185 229.609 284.215 228.997C285.245 228.376 286.08 226.891 286.072 225.658C286.072 224.433 285.229 223.938 284.199 224.559C283.169 225.171 282.334 226.665 282.334 227.89H282.342ZM283.08 227.445C283.08 226.707 283.575 225.809 284.199 225.432C284.823 225.054 285.326 225.356 285.326 226.103C285.326 226.841 284.831 227.747 284.207 228.116C283.583 228.485 283.08 228.192 283.08 227.445Z" fill="#5B68B7"/>
<path d="M284.199 225.431C284.823 225.054 285.326 225.356 285.326 226.102C285.326 226.841 284.831 227.747 284.207 228.116C283.583 228.485 283.08 228.191 283.08 227.445C283.08 226.706 283.575 225.809 284.199 225.431Z" fill="#95ADFB"/>
<path d="M309.87 207.353C310.388 207.042 310.859 207.017 311.199 207.218C311.329 207.294 311.459 207.378 311.589 207.453C311.767 207.562 311.953 207.68 312.132 207.78C312.335 207.906 312.545 208.032 312.748 208.158C312.416 207.957 311.937 207.982 311.426 208.292C311.199 208.418 310.997 208.603 310.802 208.795L311.426 209.165C310.802 209.534 310.299 210.44 310.307 211.178C310.307 211.547 310.437 211.807 310.64 211.925L309.594 211.295C309.578 211.396 309.561 211.514 309.561 211.614C309.561 212.227 309.772 212.646 310.113 212.856L308.556 211.916C308.215 211.715 308.013 211.287 308.013 210.683C308.013 209.458 308.848 207.965 309.878 207.344L309.87 207.353Z" fill="#0E1A68"/>
<path d="M309.562 211.622C309.562 212.847 310.405 213.35 311.435 212.73C312.465 212.109 313.292 210.624 313.292 209.391C313.292 208.166 312.448 207.679 311.419 208.292C310.381 208.912 309.554 210.406 309.554 211.622H309.562ZM310.3 211.186C310.3 210.439 310.802 209.542 311.419 209.173C312.043 208.803 312.546 209.105 312.546 209.844C312.546 210.582 312.043 211.488 311.427 211.857C310.802 212.226 310.3 211.924 310.3 211.186Z" fill="#5B68B7"/>
<path d="M311.427 209.173C312.051 208.804 312.554 209.106 312.554 209.844C312.554 210.583 312.051 211.489 311.435 211.858C310.81 212.227 310.308 211.925 310.308 211.187C310.308 210.44 310.81 209.542 311.427 209.173Z" fill="#95ADFB"/>
<path d="M281.523 205.137L294.286 212.805V215.355L281.532 207.679C281.175 207.469 280.988 207.184 280.988 206.899V204.349C280.988 204.634 281.159 204.911 281.523 205.129V205.137Z" fill="#0C1342"/>
<path d="M312.368 205.137C312.733 204.919 312.919 204.634 312.919 204.349V206.899C312.919 207.184 312.741 207.469 312.376 207.687L299.532 215.364V212.813L312.368 205.137Z" fill="#0C1342"/>
<path d="M281.532 203.568C282.253 203.132 283.429 203.132 284.151 203.568L296.913 211.236V211.773L283.218 203.543C283.007 203.417 282.675 203.417 282.464 203.543C282.261 203.669 282.253 203.87 282.464 203.996L296.151 212.226L294.286 212.805L281.524 205.137C280.802 204.701 280.802 204.005 281.532 203.568Z" fill="#0E1A68"/>
<path d="M311.435 203.544C311.224 203.418 310.883 203.418 310.681 203.544L296.896 211.773V211.236L309.748 203.56C310.478 203.124 311.654 203.133 312.367 203.56C313.089 203.997 313.089 204.693 312.359 205.138L299.515 212.814L297.642 212.226L311.435 203.997C311.637 203.871 311.637 203.669 311.435 203.544Z" fill="#0E1A68"/>
<path d="M282.455 203.544C282.253 203.669 282.245 203.871 282.455 203.997L296.142 212.226L282.358 220.464C282.155 220.59 282.155 220.792 282.358 220.909C282.561 221.035 282.901 221.035 283.112 220.909L296.896 212.679L310.583 220.909C310.794 221.035 311.127 221.035 311.337 220.909C311.54 220.792 311.548 220.582 311.337 220.464L297.642 212.226L311.435 203.997C311.637 203.871 311.637 203.669 311.435 203.544C311.224 203.418 310.883 203.418 310.681 203.544L296.896 211.773L283.21 203.544C282.999 203.418 282.666 203.418 282.455 203.544Z" fill="#293896"/>
<path d="M281.426 222.049C282.147 222.486 283.315 222.486 284.045 222.049L296.888 214.382V216.932L284.053 224.608C283.323 225.044 282.155 225.044 281.434 224.608C281.077 224.39 280.899 224.105 280.891 223.828V221.278C280.891 221.563 281.061 221.848 281.426 222.058V222.049Z" fill="#0C1342"/>
<path d="M281.434 220.481L294.278 212.805L296.143 212.227L282.358 220.465C282.156 220.59 282.156 220.792 282.358 220.909C282.561 221.035 282.902 221.035 283.113 220.909L296.897 212.68V214.391L284.045 222.059C283.315 222.495 282.148 222.495 281.426 222.059C280.704 221.631 280.704 220.926 281.426 220.49L281.434 220.481Z" fill="#0E1A68"/>
<path d="M296.897 212.671L310.584 220.9C310.795 221.026 311.127 221.026 311.338 220.9C311.541 220.783 311.549 220.573 311.338 220.456L297.643 212.218L299.516 212.805L312.271 220.473C313 220.909 312.992 221.614 312.271 222.041C311.541 222.478 310.373 222.478 309.643 222.041L296.881 214.374V212.662L296.897 212.671Z" fill="#0E1A68"/>
<path d="M309.652 222.049C310.381 222.486 311.549 222.486 312.279 222.049C312.644 221.831 312.822 221.546 312.822 221.261V223.811C312.83 224.096 312.644 224.382 312.287 224.6C311.565 225.036 310.389 225.036 309.668 224.6L296.905 216.932V214.382L309.66 222.049H309.652Z" fill="#0C1342"/>
<path d="M294.594 205.943C294.594 205.591 294.813 205.247 295.25 204.978C296.134 204.425 297.594 204.416 298.51 204.945C298.972 205.213 299.207 205.574 299.215 205.935L299.232 212.587C299.232 212.638 299.215 212.688 299.207 212.73C299.207 212.763 299.207 212.805 299.191 212.839C299.175 212.889 299.143 212.94 299.118 212.99C299.102 213.024 299.086 213.057 299.069 213.091C299.029 213.141 298.98 213.2 298.932 213.25C298.907 213.275 298.891 213.3 298.859 213.326C298.778 213.401 298.68 213.477 298.567 213.544C297.683 214.089 296.224 214.106 295.315 213.577C295.202 213.51 295.096 213.443 295.015 213.359C294.983 213.334 294.967 213.309 294.942 213.284C294.894 213.233 294.837 213.175 294.796 213.116C294.772 213.082 294.764 213.049 294.74 213.015C294.715 212.965 294.683 212.915 294.667 212.864C294.65 212.822 294.65 212.78 294.642 212.747C294.634 212.696 294.618 212.646 294.618 212.596C294.618 210.591 294.602 207.923 294.602 205.935L294.594 205.943Z" fill="#0E1A68"/>
<path d="M296.061 124.51C296.507 124.233 297.253 124.225 297.715 124.493C297.951 124.636 298.064 124.812 298.072 124.996V205.515C298.072 205.515 298.072 205.565 298.072 205.59C298.072 205.607 298.072 205.624 298.064 205.641C298.064 205.666 298.04 205.691 298.032 205.716C298.024 205.733 298.015 205.75 298.007 205.775C297.991 205.8 297.967 205.825 297.943 205.851C297.926 205.867 297.918 205.884 297.902 205.901C297.861 205.943 297.813 205.976 297.756 206.01C297.302 206.295 296.564 206.304 296.102 206.027C296.045 205.993 295.996 205.96 295.948 205.918C295.932 205.901 295.924 205.892 295.907 205.876C295.875 205.851 295.851 205.834 295.834 205.8C295.826 205.783 295.81 205.758 295.802 205.741C295.794 205.716 295.778 205.691 295.769 205.666C295.769 205.649 295.769 205.624 295.761 205.607C295.761 205.582 295.745 205.557 295.745 205.532C295.745 204.785 295.745 203.913 295.745 203.04V124.996C295.745 124.82 295.842 124.644 296.069 124.51H296.061Z" fill="#5B68B7"/>
<mask id="mask1_2067_298496" style="mask-type:luminance" maskUnits="userSpaceOnUse" x="307" y="109" width="3" height="2">
<path d="M307.908 109.024L309.716 110.115C309.643 110.073 309.546 110.081 309.432 110.148L307.624 109.058C307.738 108.99 307.835 108.982 307.908 109.032V109.024Z" fill="white"/>
</mask>
<g mask="url(#mask1_2067_298496)">
<path d="M309.44 110.139L307.632 109.049C307.745 108.982 307.843 108.973 307.916 109.024L309.724 110.114C309.651 110.072 309.554 110.081 309.44 110.148V110.139Z" fill="#0E1A68"/>
</g>
<mask id="mask2_2067_298496" style="mask-type:luminance" maskUnits="userSpaceOnUse" x="307" y="109" width="3" height="2">
<path d="M309.043 110.852L307.234 109.762C307.234 109.502 307.405 109.183 307.632 109.049L309.44 110.139C309.221 110.274 309.043 110.584 309.043 110.852Z" fill="white"/>
</mask>
<g mask="url(#mask2_2067_298496)">
<path d="M309.043 110.852L307.234 109.762C307.234 109.502 307.405 109.183 307.632 109.049L309.44 110.139C309.221 110.274 309.043 110.584 309.043 110.852Z" fill="#0E1A68"/>
</g>
<path d="M309.043 112.506V110.844L307.227 109.754V111.415C307.227 111.465 307.332 113.714 306.1 116.012C305.329 117.447 304.186 118.621 302.71 119.502L298.583 121.968L291.513 126.197L287.386 128.663C285.942 129.527 284.823 129.72 284.045 129.25L285.853 130.341C286.631 130.811 287.75 130.609 289.194 129.754L293.321 127.287L300.391 123.059L304.519 120.593C305.994 119.712 307.129 118.529 307.908 117.103C309.14 114.804 309.035 112.547 309.035 112.506H309.043Z" fill="#293896"/>
<path d="M285.228 131.305C283.745 130.324 283.858 127.639 283.866 127.522V125.894L282.05 124.804V126.431C282.05 126.549 281.936 129.233 283.42 130.215C283.445 130.231 283.477 130.248 283.501 130.265L285.309 131.356C285.309 131.356 285.253 131.322 285.228 131.305Z" fill="#0C1342"/>
<mask id="mask3_2067_298496" style="mask-type:luminance" maskUnits="userSpaceOnUse" x="282" y="124" width="3" height="2">
<path d="M282.723 124.066L284.531 125.156C284.458 125.114 284.361 125.114 284.248 125.181C284.029 125.316 283.85 125.626 283.85 125.894L282.042 124.804C282.042 124.544 282.212 124.225 282.439 124.091C282.545 124.024 282.65 124.015 282.723 124.066Z" fill="white"/>
</mask>
<g mask="url(#mask3_2067_298496)">
<path d="M283.858 125.894L282.05 124.804C282.05 124.544 282.22 124.225 282.447 124.091C282.553 124.024 282.658 124.015 282.731 124.066L284.539 125.156C284.466 125.114 284.369 125.114 284.255 125.181C284.036 125.316 283.858 125.626 283.858 125.894Z" fill="#0E1A68"/>
</g>
<path d="M309.44 110.14C309.659 110.005 309.837 110.115 309.837 110.375V112.002C309.837 112.111 309.975 114.661 308.5 117.405C307.575 119.133 306.237 120.525 304.535 121.549L300.407 124.015L293.337 128.243L289.21 130.71C287.499 131.733 286.161 131.935 285.229 131.314C283.745 130.332 283.858 127.648 283.866 127.53V125.903C283.866 125.643 284.037 125.324 284.256 125.19C284.475 125.064 284.653 125.165 284.653 125.425V127.086C284.653 127.136 284.564 129.502 285.804 130.324C286.583 130.827 287.726 130.651 289.202 129.762L293.329 127.295L300.399 123.067L304.527 120.601C306.002 119.72 307.137 118.537 307.916 117.111C309.148 114.812 309.043 112.556 309.043 112.514V110.853C309.043 110.593 309.213 110.274 309.432 110.14H309.44Z" fill="#0E1A68"/>
<path d="M287.086 157.009C287.086 157.672 286.567 158.209 285.926 158.209C285.285 158.209 284.767 157.672 284.767 157.009V154.274C284.767 154.107 284.799 153.947 284.856 153.805C285.034 153.377 285.448 153.066 285.926 153.066C286.567 153.066 287.086 153.603 287.086 154.266V157.001V157.009Z" fill="#293896"/>
<path opacity="0.58" d="M281.507 137.639C281.507 137.639 281.969 138.52 284.921 136.96C287.872 135.399 289.056 134.384 289.056 134.384L289.972 132.958C289.972 132.958 290.759 131.196 291.083 134.518C291.099 134.711 291.115 134.929 291.132 135.181C291.375 139.325 291.083 151.204 291.083 151.204C291.083 151.204 291.213 153.713 288.196 155.407C285.18 157.102 284.167 156.364 284.167 156.364C284.167 156.364 280.461 156.212 280.461 153.301C280.461 148.939 280.591 138.1 280.591 138.1C280.591 138.1 280.266 136.272 281.507 137.622V137.639Z" fill="#5B68B7"/>
<path d="M284.167 156.674C284.167 156.674 285.18 157.11 288.197 155.416C291.213 153.721 291.083 151.213 291.083 151.213C291.083 151.213 291.213 146.079 291.229 141.381C289.567 142.06 287.799 142.807 286.956 143.277C285.691 143.981 282.367 145.575 280.429 146.809C280.404 149.116 280.364 151.842 280.469 153.319C280.696 156.599 284.175 156.674 284.175 156.674H284.167Z" fill="#95ADFB"/>
<path d="M280.396 146.8C280.396 146.8 280.534 145.458 283.875 143.545C286.234 142.186 288.148 141.247 289.713 141.037C291.221 140.836 291.943 141.448 289.778 143.009C287.953 144.326 284.248 145.802 283.486 146.196C282.699 146.599 280.794 147.354 280.405 146.809L280.396 146.8Z" fill="#293896"/>
<path opacity="0.4" d="M291.083 151.212C291.083 151.212 291.326 141.171 291.18 136.33C290.71 136.691 289.494 137.555 287.28 138.729C284.329 140.29 283.866 139.409 283.866 139.409C282.618 138.05 282.95 139.887 282.95 139.887C282.95 139.887 283.112 150.592 283.275 154.945C283.315 155.952 285.172 157.118 288.188 155.424C291.205 153.729 291.075 151.221 291.075 151.221L291.083 151.212Z" fill="white"/>
<path d="M287.362 143.898C285.505 144.946 284.005 145.148 283.04 145.131C283.064 146.582 283.097 148.176 283.129 149.711C283.64 149.837 284.313 149.879 285.181 149.762C287.597 149.426 290.046 147.698 291.165 146.825C291.189 145.223 291.213 143.369 291.221 141.565C290.605 141.993 289.47 142.723 287.362 143.906V143.898Z" fill="white"/>
<path d="M290.337 134.644C290.231 134.712 290.094 134.67 290.029 134.569C289.769 134.183 289.088 133.218 287.702 131.566C286.558 130.207 285.958 129.787 285.691 129.661C285.577 129.611 285.488 129.51 285.456 129.393C285.415 129.267 285.512 129.141 285.634 129.166C285.983 129.242 286.688 129.653 288.034 131.264C289.445 132.941 290.126 133.915 290.385 134.309C290.458 134.418 290.442 134.569 290.337 134.636V134.644Z" fill="#C5CDFF"/>
<g opacity="0.29" style="mix-blend-mode:multiply">
<path d="M258.857 291.897L338.651 240.12C340.224 239.096 342.235 239.088 343.824 240.086L385.866 266.654C387.05 267.401 387.042 269.18 385.858 269.909L349.962 292.157L360.665 298.298L341.7 309.783L331.411 303.65L305.723 319.573C304.118 320.571 302.099 320.596 300.469 319.632L258.922 295.119C257.722 294.414 257.689 292.644 258.849 291.889L258.857 291.897Z" fill="#BBD2E9"/>
</g>
<path d="M339.276 302.829C338.96 302.636 338.676 302.619 338.465 302.745C338.384 302.795 338.311 302.837 338.23 302.887C338.116 302.954 338.011 303.021 337.897 303.089C337.768 303.164 337.646 303.24 337.524 303.315C337.727 303.189 338.019 303.206 338.335 303.399C338.465 303.475 338.595 303.584 338.716 303.709L338.335 303.936C338.716 304.162 339.024 304.708 339.016 305.161C339.016 305.387 338.935 305.547 338.814 305.622L339.446 305.236C339.446 305.303 339.462 305.37 339.462 305.429C339.462 305.798 339.333 306.058 339.13 306.184L340.079 305.614C340.281 305.488 340.411 305.228 340.411 304.859C340.411 304.112 339.908 303.198 339.276 302.829Z" fill="#3B3B3B"/>
<mask id="mask4_2067_298496" style="mask-type:luminance" maskUnits="userSpaceOnUse" x="337" y="303" width="2" height="2">
<path d="M338.781 303.315C338.66 303.391 338.578 303.55 338.578 303.777C338.262 303.961 337.946 304.154 337.63 304.347C337.63 304.121 337.703 303.961 337.833 303.894C338.116 303.726 338.497 303.5 338.781 303.324V303.315Z" fill="white"/>
</mask>
<g mask="url(#mask4_2067_298496)">
<path d="M337.833 303.886L338.781 303.315C338.66 303.391 338.579 303.55 338.579 303.777C338.579 304.23 338.887 304.775 339.26 305.002L338.311 305.572C337.93 305.346 337.622 304.792 337.63 304.347C337.63 304.121 337.703 303.961 337.833 303.894V303.886Z" fill="#4C4C4C"/>
</g>
<path d="M338.327 303.399C337.703 303.022 337.192 303.324 337.184 304.07C337.184 304.817 337.686 305.723 338.319 306.1C338.943 306.478 339.462 306.176 339.462 305.429C339.462 304.683 338.959 303.777 338.327 303.399ZM338.319 305.572C337.938 305.345 337.63 304.792 337.638 304.347C337.638 303.894 337.946 303.718 338.327 303.944C338.708 304.171 339.016 304.716 339.008 305.169C339.008 305.622 338.7 305.807 338.319 305.58V305.572Z" fill="#4C4C4C"/>
<path d="M338.327 303.936C337.946 303.709 337.638 303.894 337.638 304.339C337.638 304.792 337.938 305.337 338.319 305.563C338.7 305.79 339.008 305.605 339.008 305.152C339.008 304.699 338.7 304.154 338.327 303.928V303.936Z" fill="#7B7B7B"/>
<path d="M354.608 294.414C354.292 294.222 354.008 294.205 353.797 294.331C353.716 294.381 353.643 294.431 353.562 294.473C353.457 294.54 353.343 294.607 353.23 294.675C353.1 294.75 352.978 294.826 352.849 294.901C353.051 294.775 353.343 294.792 353.659 294.985C353.797 295.06 353.919 295.17 354.041 295.295L353.659 295.522C354.041 295.748 354.341 296.294 354.341 296.747C354.341 296.973 354.268 297.124 354.138 297.2L354.778 296.814C354.778 296.881 354.795 296.948 354.795 297.007C354.795 297.376 354.665 297.636 354.462 297.762L355.411 297.191C355.614 297.074 355.743 296.805 355.743 296.436C355.743 295.69 355.241 294.784 354.608 294.406V294.414Z" fill="#3B3B3B"/>
<path d="M353.66 294.985C353.036 294.607 352.517 294.909 352.517 295.656C352.517 296.403 353.019 297.317 353.652 297.686C354.284 298.064 354.795 297.762 354.795 297.015C354.795 296.269 354.292 295.363 353.66 294.985ZM353.652 297.149C353.271 296.923 352.971 296.369 352.971 295.925C352.971 295.472 353.279 295.287 353.66 295.522C354.041 295.748 354.341 296.294 354.341 296.747C354.341 297.2 354.033 297.376 353.652 297.158V297.149Z" fill="#4C4C4C"/>
<path d="M353.66 295.522C353.279 295.295 352.971 295.48 352.971 295.925C352.971 296.378 353.279 296.923 353.652 297.149C354.033 297.376 354.341 297.191 354.341 296.738C354.341 296.285 354.033 295.74 353.66 295.513V295.522Z" fill="#7B7B7B"/>
<path d="M347.36 184.492C347.36 183.301 347.773 182.453 348.43 182.059L351.033 180.49C350.376 180.885 349.962 181.732 349.962 182.923V184.567L347.352 186.136V184.483L347.36 184.492Z" fill="#0C1342"/>
<path d="M353.571 187.369L356.173 185.8L349.954 184.575L347.352 186.144L353.571 187.369Z" fill="#0E1A68"/>
<path d="M349.914 178.51C350.871 177.94 352.185 178.015 353.644 178.888L356.19 180.406L353.587 181.975L351.041 180.457C349.59 179.592 348.268 179.509 347.312 180.087L349.914 178.519V178.51Z" fill="#95ADFB"/>
<path d="M374.061 199.667L376.663 198.107L376.672 194.575L374.069 196.144L374.061 199.667Z" fill="#0C1342"/>
<path d="M380.288 206.387L382.891 204.819L376.663 198.107L374.061 199.668L380.288 206.387Z" fill="#0E1A68"/>
<path d="M374.077 194.265L376.68 192.704V192.419L374.077 193.988V194.265Z" fill="#5B68B7"/>
<path d="M356.368 179.727C356.482 179.66 356.628 179.668 356.79 179.769L376.088 191.363L373.485 192.931L354.187 181.338C354.025 181.237 353.879 181.229 353.766 181.296L356.368 179.727Z" fill="#95ADFB"/>
<path d="M374.077 193.988L376.68 192.419C376.68 192.033 376.421 191.555 376.088 191.362L373.485 192.931C373.818 193.124 374.077 193.602 374.077 193.988Z" fill="#5B68B7"/>
<path d="M345.787 183.552C345.787 180.113 348.155 178.72 351.049 180.448L353.595 181.967V181.682C353.595 181.296 353.863 181.136 354.187 181.329L373.485 192.923C373.818 193.116 374.077 193.594 374.077 193.98V194.265L376.639 195.8C379.526 197.529 381.877 201.732 381.869 205.171L381.845 224.541L381.82 235.129L345.738 213.51L345.787 185.826V183.552ZM374.061 199.668L380.288 206.379V204.223C380.296 201.815 378.666 198.879 376.631 197.671L374.069 196.136V199.668H374.061ZM347.352 186.145L353.571 187.369V183.838L351.041 182.319C349.014 181.111 347.36 182.084 347.36 184.492V186.145H347.352Z" fill="#293896"/>
<path d="M376.68 192.705L379.242 194.24C382.137 195.968 384.48 200.171 384.472 203.611L384.456 208.015L384.423 233.568L381.821 235.137L381.845 224.55L381.869 205.18C381.869 201.74 379.534 197.537 376.639 195.809L374.077 194.274L376.68 192.705Z" fill="#95ADFB"/>
<path d="M381.755 254.885L381.723 258.056L379.898 259.239L379.939 256.068L381.755 254.885Z" fill="#B59983"/>
<path d="M379.939 256.068L379.898 259.239L342.138 236.546L342.17 233.375L379.939 256.068Z" fill="#293896"/>
<path d="M381.755 254.885L379.939 256.068L342.17 233.375L343.986 232.192L381.755 254.885Z" fill="#0E1A68"/>
<path d="M302.666 300.639L302.706 303.81L304.523 305.001L304.482 301.822L302.666 300.639Z" fill="#0E1A68"/>
<path d="M304.482 301.822L304.523 305.001L384.706 256.906L384.666 253.735L304.482 301.822Z" fill="#5B68B7"/>
<path d="M302.666 300.639L304.482 301.821L384.666 253.735L382.85 252.544L302.666 300.639Z" fill="#0E1A68"/>
<path d="M260.081 264.893C260.081 265.656 260.567 266.419 261.532 266.998L296.114 287.719C298.052 288.877 301.182 288.877 303.104 287.719L384.966 238.257C385.923 237.687 386.401 236.932 386.401 236.177L386.385 242.284C386.385 243.039 385.906 243.786 384.95 244.365L303.088 293.827C301.166 294.984 298.036 294.984 296.098 293.827L261.516 273.106C260.543 272.527 260.056 271.763 260.065 271L260.081 264.893Z" fill="#5B68B7"/>
<path d="M384.942 234.071C386.88 235.228 386.888 237.108 384.966 238.257L303.104 287.719C301.182 288.877 298.052 288.877 296.115 287.719L261.533 266.998C259.603 265.849 259.595 263.97 261.516 262.812L343.378 213.35C345.3 212.192 348.43 212.192 350.36 213.35L384.942 234.071Z" fill="#293896"/>
<path d="M310.28 294.792C310.67 295.329 311.294 295.639 311.926 295.639C312.283 295.639 312.632 295.539 312.948 295.354L377.693 256.731C379.566 255.623 380.402 253.299 379.688 251.202L378.496 247.696C378.026 246.32 376.769 245.405 375.366 245.405C374.782 245.405 374.207 245.565 373.696 245.875L315.454 281.294C313.605 282.41 312.218 284.289 311.659 286.42L309.948 292.93C309.778 293.575 309.899 294.255 310.297 294.783L310.28 294.792ZM376.972 248.249L378.172 251.756C378.626 253.098 378.091 254.583 376.899 255.288L312.162 293.911C312.089 293.953 312.016 293.978 311.934 293.978C311.789 293.978 311.651 293.903 311.562 293.785C311.497 293.701 311.44 293.567 311.489 293.383L313.199 286.873C313.653 285.153 314.764 283.643 316.256 282.745L374.499 247.318C374.766 247.159 375.058 247.075 375.358 247.075C376.08 247.075 376.737 247.553 376.972 248.258V248.249Z" fill="#C5CDFF"/>
<path d="M350.254 204.273L382.274 223.963L374.993 231.261C371.936 234.273 367.249 240.539 368.125 244.818L336.105 225.129C334.67 218.141 338.529 215.808 350.254 204.273Z" fill="#5B68B7"/>
<path d="M374.993 231.261C372.204 234.005 367.209 240.355 368.125 244.818L382.282 235.515V223.963L374.993 231.261Z" fill="#0E1A68"/>
<path d="M301.077 312.921C301.418 312.133 301.88 311.378 302.423 310.74C302.877 310.203 303.396 309.742 303.94 309.423C304.904 308.844 305.772 308.794 306.404 309.171L307.848 310.069C307.215 309.683 306.348 309.742 305.383 310.321C304.84 310.64 304.329 311.101 303.867 311.638C303.323 312.284 302.869 313.03 302.529 313.827C302.148 314.717 301.921 315.656 301.929 316.529C301.929 317.661 302.318 318.458 302.942 318.827L301.499 317.938C300.875 317.561 300.485 316.764 300.485 315.631C300.485 314.767 300.704 313.827 301.085 312.93L301.077 312.921Z" fill="#0E1A68"/>
<path d="M305.375 310.313C303.462 311.454 301.913 314.231 301.921 316.512C301.921 318.786 303.486 319.709 305.399 318.559C307.321 317.41 308.862 314.642 308.862 312.368C308.862 310.086 307.305 309.164 305.383 310.313H305.375Z" fill="#293896"/>
<path d="M305.489 311.864C304.297 312.569 303.332 314.297 303.34 315.715C303.34 317.133 304.313 317.703 305.497 316.99C306.689 316.285 307.654 314.557 307.645 313.148C307.645 311.73 306.672 311.16 305.489 311.873V311.864Z" fill="#5B68B7"/>
<path d="M305.667 316.915V302.594L309.202 299.146L309.105 312.418C309.105 312.418 308.797 316.705 305.675 316.915H305.667Z" fill="#5B68B7"/>
<path d="M261.167 289.615C261.508 288.827 261.962 288.063 262.505 287.426C262.959 286.889 263.47 286.436 264.022 286.109C264.986 285.53 265.854 285.48 266.487 285.857L267.93 286.755C267.297 286.369 266.43 286.427 265.465 287.006C264.922 287.334 264.411 287.787 263.949 288.323C263.405 288.969 262.943 289.716 262.611 290.513C262.23 291.402 262.011 292.342 262.011 293.214C262.011 294.347 262.4 295.144 263.024 295.513L261.581 294.624C260.957 294.246 260.567 293.449 260.567 292.317C260.567 291.453 260.786 290.513 261.167 289.615Z" fill="#0E1A68"/>
<path d="M265.465 287.007C263.551 288.148 262.003 290.925 262.011 293.206C262.011 295.48 263.576 296.403 265.489 295.253C267.403 294.112 268.951 291.336 268.943 289.054C268.943 286.772 267.387 285.849 265.465 286.998V287.007Z" fill="#293896"/>
<path d="M265.578 288.558C264.387 289.263 263.422 290.991 263.43 292.409C263.43 293.827 264.403 294.397 265.595 293.684C266.787 292.979 267.743 291.251 267.743 289.833C267.743 288.416 266.779 287.845 265.587 288.558H265.578Z" fill="#5B68B7"/>
<path d="M265.749 293.609V279.289L269.284 275.841L269.187 289.121C269.187 289.121 268.887 293.408 265.749 293.617V293.609Z" fill="#5B68B7"/>
<path d="M335.221 244.91C335.562 244.121 336.024 243.366 336.559 242.729C337.013 242.192 337.532 241.73 338.075 241.411C339.04 240.833 339.908 240.782 340.54 241.16L341.984 242.049C341.351 241.671 340.475 241.722 339.519 242.301C338.975 242.628 338.464 243.081 338.002 243.618C337.459 244.255 336.997 245.01 336.664 245.807C336.283 246.697 336.064 247.636 336.064 248.509C336.064 249.641 336.454 250.438 337.078 250.807L335.635 249.918C335.01 249.54 334.621 248.744 334.621 247.611C334.621 246.747 334.84 245.807 335.221 244.918V244.91Z" fill="#93CCE5"/>
<path d="M339.519 242.301C337.597 243.442 336.056 246.219 336.064 248.501C336.064 250.774 337.629 251.697 339.543 250.548C341.465 249.407 343.005 246.63 343.005 244.356C343.005 242.075 341.44 241.152 339.527 242.301H339.519Z" fill="#83BDD2"/>
<path d="M339.624 243.844C338.432 244.549 337.476 246.277 337.476 247.695C337.476 249.113 338.441 249.683 339.632 248.97C340.824 248.257 341.789 246.537 341.781 245.119C341.781 243.702 340.808 243.131 339.616 243.844H339.624Z" fill="#A6DAE8"/>
<path d="M339.803 248.895V234.566L343.338 231.118L343.241 244.398C343.241 244.398 342.933 248.685 339.803 248.895Z" fill="#A6DAE8"/>
<path d="M263.827 277.502L263.868 280.673L265.684 281.856L265.652 278.685L263.827 277.502Z" fill="#0E1A68"/>
<path d="M265.651 278.685L265.684 281.856L345.867 233.769L345.835 230.59L265.651 278.685Z" fill="#5B68B7"/>
<path d="M263.827 277.502L265.652 278.685L345.835 230.59L344.011 229.407L263.827 277.502Z" fill="#0E1A68"/>
<path d="M308.107 298.349L308.074 301.52L306.25 302.703L306.291 299.531L308.107 298.349Z" fill="#0E1A68"/>
<path d="M306.29 299.531L306.25 302.702L268.489 280.01L268.522 276.839L306.29 299.531Z" fill="#5B68B7"/>
<path d="M308.106 298.349L306.29 299.532L268.521 276.839L270.338 275.656L308.106 298.349Z" fill="#0E1A68"/>
<path d="M314.415 254.725C316.718 253.626 324.68 246.269 327.591 246.504L333.381 248.433C332.189 253.492 329.027 254.599 324.745 255.698C319.71 256.998 312.826 263.005 312.039 264.356C310.864 266.386 305.139 271.428 302.018 273.449C298.207 275.932 295.45 280.983 295.45 280.983C295.45 280.983 294.939 281.805 294.136 282.157C291.72 283.239 285.582 284.531 285.112 282.073C284.982 281.385 285.809 280.555 288.16 280.06C289.352 279.808 291.298 279.112 291.923 278.877C293.763 278.147 295.474 275.781 295.474 275.781L307.15 260.765C307.15 260.765 309.534 257.065 314.415 254.725Z" fill="#E8C5AC"/>
<path d="M309.696 247.159C311.999 246.06 319.962 238.702 322.872 238.929L328.662 240.858C327.462 245.917 325.337 244.969 321.056 246.076C316.021 247.377 307.937 255.346 307.321 256.789C306.04 259.801 300.039 263.484 296.918 265.506C293.107 267.989 290.739 273.417 290.739 273.417C290.739 273.417 290.22 274.239 289.425 274.591C287.009 275.673 280.871 276.965 280.401 274.507C280.271 273.819 281.09 272.98 283.441 272.494C284.641 272.242 286.588 271.546 287.212 271.302C289.052 270.573 290.755 268.207 290.755 268.207L302.431 253.19C302.431 253.19 304.807 249.491 309.696 247.15V247.159Z" fill="#E8C5AC"/>
<path d="M338.578 243.752C338.578 243.752 337.184 253.416 326.529 256.671C315.883 259.926 312.915 262.72 311.545 265.304C309.477 269.196 296.439 279.364 296.439 279.364C296.439 279.364 295.612 279.364 294.955 278.567C294.266 277.728 294.444 276.881 294.444 276.881C294.444 276.881 305.488 262.015 307.321 259.817C309.153 257.619 320.326 250.019 322.775 247.997C325.232 245.984 326.14 245.833 325.232 245.984C324.316 246.135 316.775 250.606 313.304 252.67C309.834 254.742 310.629 254.381 306.356 258.911C302.074 263.441 290.95 273.03 290.95 273.03C290.95 273.03 288.436 272.476 288.769 270.371C288.915 269.423 299.901 255.849 303.193 252.108C306.485 248.366 319.921 239.071 323.132 237.964C326.335 236.856 328.84 235.892 328.905 234.944C328.962 233.996 337.54 241.269 339.576 241.168C339.981 241.152 338.57 243.744 338.57 243.744L338.578 243.752Z" fill="#A01F1F"/>
<path d="M337.167 219.273C337.167 219.273 332.813 213.644 344.919 206.06C349.825 202.982 353.263 198.485 360.252 201.774C361.249 202.243 364.817 204.039 373.89 212.235C375.285 213.493 376.493 213.669 377.336 214.19C377.831 214.492 378.715 215.54 377.28 216.757C375.658 218.141 374.369 221.111 373.971 223.426C373.728 224.844 372.698 231.421 366.982 235.28C363.187 237.838 361.184 238.266 357.211 236.144C352.865 233.82 341.489 224.29 341.489 224.29C341.489 224.29 337.265 220.246 337.159 219.265L337.167 219.273Z" fill="#5B68B7"/>
<path d="M377.28 216.764C378.715 215.539 377.823 214.499 377.337 214.197C376.493 213.669 375.285 213.501 373.891 212.242C373.688 212.058 373.493 211.89 373.299 211.714C375.804 214.868 375.942 215.783 374.474 216.387C372.091 217.368 370.631 219.046 371.045 220.657C371.474 222.326 371.555 224.683 369.853 227.527C368.15 230.371 365.515 232.796 360.09 234.583C357.86 235.321 356.312 235.229 355.906 235.388C356.133 235.531 356.344 235.656 356.539 235.782C356.571 235.799 356.604 235.816 356.636 235.841C356.839 235.958 357.033 236.076 357.212 236.168C358.542 236.873 359.896 237.309 361.225 237.502C363.042 237.611 364.688 236.848 366.982 235.296C372.699 231.437 373.728 224.86 373.972 223.442C374.369 221.126 375.658 218.165 377.28 216.772V216.764Z" fill="#293896"/>
<path d="M325.694 221.857C325.694 221.857 321.145 224.482 318.283 226.848C315.105 229.474 312.502 233.459 312.502 233.459L315.891 233.534C315.891 233.534 326.765 225.741 328.411 223.358C330.34 220.548 327.762 221.513 325.702 221.865L325.694 221.857Z" fill="white"/>
<path d="M315.793 230.548C315.793 230.548 315.68 228.895 312.939 231.169C310.053 233.568 308.974 237.779 311.091 238.769C311.626 239.021 314.804 237.368 315.42 235.565C315.696 234.759 317.253 231.16 317.253 231.16L315.793 230.548Z" fill="#E8C5AC"/>
<g opacity="0.29" style="mix-blend-mode:multiply">
<path d="M293.674 237.116L334.751 261.654C335.44 262.065 336 263.072 336 263.894L335.927 304.841L337.183 305.588L338.221 304.959L338.237 296.821L351.859 288.684L351.843 296.293L353.1 297.039L354.138 296.419L354.211 255.471C354.211 253.827 353.092 251.822 351.714 250.992L348.373 248.995V247.795C348.373 247.795 348.373 247.863 348.373 247.904C348.422 247.527 348.203 247.133 347.724 246.847L316.596 228.257C315.761 227.754 314.423 227.737 313.547 228.198L310.637 226.462L309.599 227.083V228.576L311.253 229.566L299.763 236.47C299.325 236.73 299.115 237.074 299.115 237.418V237.628L294.72 235.002L293.682 235.623V237.116H293.674ZM335.797 259.54L334.054 258.5L346.816 250.824L350.668 253.122C351.357 253.534 351.924 254.54 351.916 255.362L351.859 286.578L338.237 294.716L338.286 264.028C338.286 262.384 337.167 260.371 335.781 259.549L335.797 259.54ZM299.147 237.645C299.147 237.645 299.147 237.636 299.147 237.628C299.147 237.628 299.147 237.636 299.147 237.645ZM299.115 237.477C299.115 237.477 299.115 237.527 299.115 237.544C299.115 237.519 299.115 237.494 299.115 237.477ZM348.121 248.425C348.121 248.425 348.089 248.45 348.081 248.467C348.097 248.45 348.113 248.441 348.121 248.425ZM348.008 248.542C348.008 248.542 347.992 248.559 347.984 248.567C347.992 248.567 348 248.55 348.008 248.542ZM348.365 247.93C348.365 247.93 348.349 247.997 348.34 248.03C348.349 247.997 348.357 247.963 348.365 247.93ZM348.211 248.307C348.211 248.307 348.178 248.349 348.17 248.366C348.186 248.349 348.203 248.324 348.211 248.307ZM348.284 248.181C348.284 248.181 348.251 248.232 348.243 248.257C348.259 248.232 348.276 248.206 348.284 248.181ZM348.34 248.055C348.34 248.055 348.316 248.114 348.308 248.139C348.324 248.114 348.332 248.081 348.34 248.055Z" fill="#BBD2E9"/>
</g>
<g opacity="0.29" style="mix-blend-mode:multiply">
<path d="M347.416 208.107C347.416 208.107 360.787 214.181 357.543 216.698C354.308 219.206 354.916 219.626 355.322 226.329C355.549 230.028 351.478 241.194 351.478 241.194L346.824 235.33L347.416 208.107Z" fill="#0E1A68"/>
</g>
<path d="M326.116 227.343C333.409 221.89 347.579 218.635 343.743 215.187C340.305 212.1 335.967 215.372 335.967 215.372C335.967 215.372 323.391 222.511 321.291 224.977C318.145 228.668 325.232 227.67 326.116 227.343Z" fill="white"/>
<path d="M343.857 239.767C343.233 244.515 341.814 246.839 341.271 247.678C341.271 247.678 335.992 246.009 333.195 244.222C330.389 242.435 328.419 239.75 328.419 239.75C328.557 239.566 332.919 234.717 333.057 234.524C334.792 232.133 333.876 226.252 334.216 224.071C334.524 222.1 341.003 214.659 342.341 214.239C346.663 216.135 349.671 218.241 351.228 219.508C352.193 220.296 352.549 220.791 352.485 220.649C351.86 221.571 350.311 228.719 349.663 229.851C347.628 233.4 344.23 236.873 343.857 239.759V239.767Z" fill="#C5CDFF"/>
<path d="M339.129 239.558C339.129 239.558 336.056 237.871 334.613 237.938C333.17 237.997 332.083 238.685 332.083 238.685C332.083 238.685 331.54 239.809 332.083 239.742C332.627 239.683 334.548 239.314 334.548 239.314L336.3 239.868L339.129 239.558Z" fill="#E8C5AC"/>
<path d="M340.573 227.586C344.035 229.6 349.411 234.742 351.738 238.534C354.065 242.326 357.641 248.249 360.949 250.01C364.257 251.772 365.692 258.064 365.238 261.764C364.792 265.463 365.149 268.055 360.584 267.779C356.027 267.502 351.519 269.867 346.468 270.849C336.592 272.762 335.919 277.166 330.194 279.825C317.407 285.773 313.402 289.397 307.053 292.543C300.696 295.689 280.036 275.111 279.517 271.495C278.99 267.871 278.844 255.841 284.357 251.487C288.931 247.88 298.312 240.472 298.312 240.472L325.134 223.585C325.134 223.585 330.34 221.63 340.565 227.578L340.573 227.586Z" fill="#0E1A68"/>
<path d="M261.695 260.086C261.695 258.819 262.133 257.921 262.839 257.502L265.603 255.841C264.898 256.26 264.468 257.158 264.468 258.425V260.178L261.695 261.839V260.086Z" fill="#0C1342"/>
<path d="M268.304 263.14L271.069 261.479L264.46 260.17L261.695 261.839L268.304 263.14Z" fill="#0E1A68"/>
<path d="M264.419 253.727C265.433 253.115 266.836 253.207 268.384 254.121L271.084 255.74L268.319 257.41L265.619 255.791C264.071 254.868 262.668 254.784 261.654 255.396L264.419 253.735V253.727Z" fill="#95ADFB"/>
<path d="M289.75 276.016L292.515 274.355L292.531 270.605L289.766 272.267L289.75 276.016Z" fill="#0C1342"/>
<path d="M296.375 283.156L299.14 281.495L292.515 274.355L289.75 276.017L296.375 283.156Z" fill="#0E1A68"/>
<path d="M289.766 270.278L292.539 268.617V268.315L289.774 269.976L289.766 270.278Z" fill="#5B68B7"/>
<path d="M271.27 255.019C271.384 254.952 271.546 254.961 271.716 255.07L291.906 267.192L289.141 268.853L268.96 256.731C268.781 256.622 268.627 256.613 268.514 256.68L271.287 255.019H271.27Z" fill="#95ADFB"/>
<path d="M289.774 269.977L292.539 268.316C292.539 267.904 292.263 267.401 291.914 267.191L289.149 268.852C289.498 269.062 289.782 269.574 289.782 269.985L289.774 269.977Z" fill="#5B68B7"/>
<path d="M260.024 259.08C260.041 255.43 262.546 253.945 265.619 255.783L268.319 257.402V257.108C268.319 256.689 268.603 256.521 268.952 256.731L289.134 268.853C289.482 269.063 289.766 269.574 289.766 269.985V270.287L292.49 271.915C295.563 273.752 298.053 278.223 298.045 281.881L298.02 286.562L297.988 297.216L259.968 274.432L260.016 261.512V259.088L260.024 259.08ZM289.75 276.017L296.366 283.156V280.866C296.382 278.307 294.639 275.187 292.482 273.895L289.758 272.267L289.742 276.017H289.75ZM261.695 261.84L268.311 263.14V259.39L265.619 257.779C263.471 256.496 261.711 257.528 261.703 260.086V261.84H261.695Z" fill="#5B68B7"/>
<path d="M292.539 268.618L295.263 270.245C298.336 272.082 300.834 276.545 300.826 280.203L300.801 284.884L300.777 295.538L298.012 297.199L298.044 286.545L298.069 281.864C298.069 278.207 295.588 273.735 292.514 271.898L289.79 270.27L292.555 268.609L292.539 268.618Z" fill="#95ADFB"/>
<mask id="mask5_2067_298496" style="mask-type:luminance" maskUnits="userSpaceOnUse" x="282" y="280" width="5" height="7">
<path d="M282.898 286.084L283.985 285.43C285.274 284.65 286.069 283.006 286.077 280.665L284.998 281.319C284.99 283.668 284.188 285.313 282.898 286.093V286.084Z" fill="white"/>
</mask>
<g mask="url(#mask5_2067_298496)">
<path d="M282.898 286.084L283.985 285.43C285.274 284.65 286.069 283.006 286.077 280.665L284.998 281.319C284.99 283.668 284.188 285.313 282.898 286.093V286.084Z" fill="#0C1342"/>
</g>
<path d="M284.999 281.31L286.077 280.656L286.11 267.065L285.031 267.711L284.999 281.31Z" fill="#0C1342"/>
<path d="M285.031 267.712L286.109 267.066L271.757 258.492L270.671 259.138L285.031 267.712Z" fill="#0C1342"/>
<path d="M270.671 259.138L270.639 272.736C270.631 277.451 273.841 283.198 277.798 285.563C281.763 287.937 284.982 286.016 284.999 281.31L285.031 267.711L270.679 259.138H270.671Z" fill="#0E1A68"/>
<path d="M283.604 269.146L272.106 262.67L272.065 269.096L283.555 275.765L283.604 269.146Z" fill="#5B68B7"/>
<path d="M272.065 269.096L273.403 266.529L283.579 272.41L283.555 275.766L272.065 269.096Z" fill="#5B68B7"/>
<path d="M272.909 266.537V263.391L283.11 269.154L283.085 272.417L272.909 266.537Z" fill="#BDDAFC"/>
<path d="M272.957 268.492L273.492 267.477L276.938 269.372L276.314 270.396L272.957 268.492Z" fill="#95ADFB"/>
<path d="M277.295 270.673C277.295 271.017 277.554 271.294 277.879 271.294C278.203 271.294 278.463 271.017 278.463 270.673C278.463 270.329 278.203 270.044 277.879 270.044C277.554 270.044 277.295 270.321 277.295 270.673Z" fill="#C5CDFF"/>
<path d="M278.682 271.503C278.682 271.847 278.941 272.132 279.266 272.132C279.59 272.132 279.849 271.856 279.849 271.503C279.849 271.151 279.59 270.874 279.266 270.874C278.941 270.874 278.682 271.159 278.682 271.503Z" fill="#C5CDFF"/>
<path d="M280.068 272.342C280.068 272.686 280.328 272.963 280.652 272.963C280.976 272.963 281.228 272.686 281.228 272.342C281.228 271.998 280.968 271.713 280.652 271.713C280.336 271.713 280.068 271.99 280.068 272.342Z" fill="#9694FF"/>
<path d="M350.936 273.441C353.887 269.087 356.036 267.518 360.593 267.795C365.158 268.072 364.801 265.48 365.247 261.78C365.596 258.852 364.777 254.322 362.79 251.68C362.79 251.68 365.644 257.963 337.265 265.631C317.57 270.949 302.01 273.676 302.01 273.676C329.311 277.602 299.545 293.248 305.261 293.499C311.521 293.776 347.984 277.795 350.936 273.441Z" fill="#293896"/>
<path d="M354.625 295.479L355.663 294.85L355.728 253.911L354.69 254.532L354.625 295.479Z" fill="#0E1A68"/>
<path d="M352.192 250.052L353.23 249.432L312.153 224.894L311.115 225.514L352.192 250.052Z" fill="#95ADFB"/>
<mask id="mask6_2067_298496" style="mask-type:luminance" maskUnits="userSpaceOnUse" x="352" y="249" width="4" height="6">
<path d="M354.69 254.532L355.728 253.911C355.728 252.267 354.609 250.254 353.222 249.432L352.185 250.052C353.571 250.883 354.69 252.888 354.682 254.532H354.69Z" fill="white"/>
</mask>
<g mask="url(#mask6_2067_298496)">
<path d="M354.69 254.532L355.728 253.911C355.728 252.267 354.609 250.254 353.222 249.432L352.185 250.052C353.571 250.883 354.69 252.888 354.682 254.532H354.69Z" fill="#BBD2E9"/>
</g>
<path d="M311.115 225.514V227.008L352.192 251.546C352.881 251.957 353.449 252.963 353.441 253.786L353.368 294.724L354.625 295.471L354.698 254.524C354.698 252.879 353.579 250.874 352.2 250.044L311.123 225.506L311.115 225.514Z" fill="#5B68B7"/>
<path d="M339.316 294.649L338.27 294.028L338.278 294.901L339.316 295.522V294.649Z" fill="#A4A4A5"/>
<path d="M354.576 285.538L353.538 284.909L338.27 294.028L339.316 294.649L354.576 285.538Z" fill="#5B68B7"/>
<path d="M339.315 294.649V295.521L354.575 286.402V285.538L339.315 294.649Z" fill="#0E1A68"/>
<path d="M338.708 304.019L339.746 303.39L339.819 262.451L338.781 263.072L338.708 304.019Z" fill="#0E1A68"/>
<path d="M336.275 258.592L337.313 257.972L296.236 233.434L295.198 234.054L336.275 258.592Z" fill="#95ADFB"/>
<mask id="mask7_2067_298496" style="mask-type:luminance" maskUnits="userSpaceOnUse" x="336" y="257" width="4" height="7">
<path d="M338.781 263.072L339.818 262.443C339.818 260.798 338.7 258.793 337.321 257.963L336.283 258.584C337.67 259.406 338.789 261.419 338.789 263.063L338.781 263.072Z" fill="white"/>
</mask>
<g mask="url(#mask7_2067_298496)">
<path d="M338.781 263.072L339.818 262.443C339.818 260.798 338.7 258.793 337.321 257.963L336.283 258.584C337.67 259.406 338.789 261.419 338.789 263.063L338.781 263.072Z" fill="#BBD2E9"/>
</g>
<path d="M295.198 234.054V235.548L336.275 260.086C336.964 260.497 337.532 261.503 337.524 262.326L337.451 303.264L338.708 304.011L338.781 263.064C338.781 261.42 337.662 259.406 336.275 258.584L295.198 234.046V234.054Z" fill="#5B68B7"/>
<path d="M349.248 247.175L335.586 255.388C334.718 255.909 333.299 255.909 332.423 255.388L301.304 236.798C300.866 236.53 300.639 236.186 300.639 235.842C300.639 236.354 300.639 236.857 300.639 237.369C300.639 237.713 300.858 238.065 301.304 238.325L332.432 256.915C333.307 257.444 334.726 257.444 335.594 256.915L349.256 248.702C349.686 248.442 349.905 248.098 349.905 247.763V246.236C349.905 246.58 349.694 246.915 349.256 247.175H349.248Z" fill="#0E1A68"/>
<path d="M349.232 245.279C350.108 245.808 350.116 246.655 349.24 247.175L335.578 255.388C334.71 255.908 333.291 255.908 332.416 255.388L301.296 236.798C300.42 236.278 300.412 235.422 301.287 234.902L314.95 226.689C315.818 226.169 317.237 226.169 318.12 226.689L349.24 245.279H349.232Z" fill="#BDDAFC"/>
<path d="M351.479 220.271C351.479 220.271 353.944 219.835 353.344 226.521C353.084 229.39 352.865 234.398 351.641 239.298C350.563 243.626 339.795 242.133 339.795 242.133C339.795 242.133 338.149 242.091 337.962 241.563C337.622 240.615 337.338 239.524 337.338 239.524C337.338 239.524 347.449 237.276 347.587 236.89C347.984 235.841 347.854 229.004 347.854 229.004C347.854 229.004 347.587 226.152 347.627 224.298C347.692 220.506 351.487 220.263 351.487 220.263L351.479 220.271Z" fill="white"/>
<path d="M339.535 241.244C339.535 241.244 335.237 245.656 332.505 244.851C330.478 244.255 329.634 243.836 329.634 243.836C329.634 243.836 329.521 242.426 330.591 241.747C331.661 241.076 332.261 241.227 333.332 240.556C334.402 239.876 335.537 239.532 336.721 239.373C339.429 238.995 339.543 241.244 339.543 241.244H339.535Z" fill="white"/>
<path d="M352.834 203C352.834 203 353.345 203.948 353.547 211.867C353.661 216.104 354.261 217.463 354.261 217.463C354.261 217.463 349.145 218 347.531 216.615C346.655 215.869 346.307 212.924 346.307 212.924L352.834 203.008V203Z" fill="#BAC0C2"/>
<path d="M340.403 220.103C339.852 223.778 346.322 222.31 348.722 217.897L348.86 209.197L343.282 207.604L342.82 216.655C342.82 216.655 340.59 218.786 340.395 220.103H340.403Z" fill="white"/>
<path d="M344.109 196.496C346.93 195.817 350.644 197.495 352.112 199.793C354.382 203.35 353.093 205.649 353.149 205.766C353.539 206.597 350.198 202.973 349.282 203.552C348.268 204.189 348.292 203.644 348.747 206.211C348.933 207.218 348.682 207.696 347.944 207.83C347.117 207.981 346.484 208.098 346.484 208.098C346.484 208.098 345.552 206.597 345.203 207.167C342.722 211.295 343.736 219.482 343.736 219.482C342.26 219.843 334.93 216.06 335.489 212.696C336.341 207.52 336.446 198.334 344.117 196.488L344.109 196.496Z" fill="#BAC0C2"/>
<path d="M349.128 202.251C352.988 201.865 353.198 202.964 353.231 205.187C353.263 207.024 352.493 211.118 352.493 211.118C352.039 213.593 351.26 215.279 350.198 216.009C348.585 217.125 346.517 216.395 344.336 213.928C342.552 211.915 344.295 210.262 344.214 209.918C344.214 209.918 344.425 208.358 344.749 207.486C345.22 206.194 347.085 202.469 349.136 202.251H349.128Z" fill="white"/>
<path d="M348.608 200.599L350.595 199.5C350.595 199.5 351.163 201.564 350.984 203.158C350.263 209.777 344.271 209.298 344.271 209.298C349.33 208.183 348.617 200.591 348.617 200.591L348.608 200.599Z" fill="#BAC0C2"/>
<path d="M342.674 207.52C343.963 207.226 344.498 209.088 344.498 209.088C344.498 209.088 344.271 210.909 344.368 211.899C344.433 212.503 343.176 212.058 342.731 211.303C342.706 211.253 342.122 210.364 342.09 210.296C341.579 209.332 341.466 207.813 342.682 207.52H342.674Z" fill="white"/>
</svg>
