<svg width="705" height="468" viewBox="0 0 705 468" fill="none" xmlns="http://www.w3.org/2000/svg">
<rect width="705" height="468" fill="#E0E6F9"/>
<g opacity="0.29" style="mix-blend-mode:multiply">
<path d="M438.741 260.42C438.741 260.42 436.553 254.535 429.166 257.972C421.779 261.4 421.882 256.874 419.142 260.504C417.973 262.046 411.484 265.08 406.014 269.984C404.022 271.77 399.759 278.484 407.295 279.792C415.776 281.267 430.447 274.477 428.895 271.703C428.352 270.722 429.39 268.45 431.625 267.042C434.365 265.324 440.377 263.856 438.741 260.42Z" fill="#BBD2E9"/>
</g>
<path d="M410.164 222.464L406.929 221.551C406.929 221.551 405.9 222.163 404.517 225.097C403.862 226.471 403.862 227.921 403.862 227.921C403.862 227.921 403.946 230.193 406.162 230.587C406.433 230.638 407.34 230.621 407.78 230.21C408.332 229.682 408.631 228.835 408.911 228.114C409.192 227.393 410.585 225.273 410.585 225.273C411.174 224.2 410.716 222.808 410.164 222.464Z" fill="white"/>
<path d="M408.977 224.024C408.828 224.971 407.649 225.868 406.686 225.985C406.35 226.027 406.406 227.829 406.004 228.55C405.583 229.305 404.713 228.978 404.554 228.785C404.433 228.634 404.947 225.927 405.05 225.248C405.396 222.959 406.34 222.599 407.303 222.49C408.267 222.381 409.136 223.018 408.977 224.024Z" fill="white"/>
<path d="M408.09 224.87C411.035 225.918 411.764 225.557 411.764 225.557C411.764 225.557 415.57 216.252 416.589 211.701C417.309 208.457 418.703 199.177 418.703 199.177C418.703 199.177 420.629 191.071 416.982 189.495C415.804 188.984 413.289 188.841 411.867 189.847C410.942 190.51 409.941 193.402 409.773 195.413C409.595 197.492 408.819 208.893 408.67 209.924C407.847 215.439 405.387 223.16 405.387 223.16C405.387 223.16 406.986 224.467 408.099 224.87H408.09Z" fill="#3C4788"/>
<path d="M417.047 273.596L419.197 275.08L419.59 273.186L417.047 273.596Z" fill="#050500"/>
<path d="M415.289 268.031L409.726 270.864C409.726 270.864 406.93 272.206 405.939 272.533C405.49 272.675 405.116 273.094 404.985 273.547C404.901 273.832 404.929 274.134 405.107 274.385C405.556 275.014 406.631 275.634 407.547 275.986C410.259 277.034 413.457 275.936 413.457 275.936C413.99 275.743 417.562 274.427 417.833 274.293C418.599 273.924 419.245 273.84 419.413 274.201C419.413 274.201 419.217 274.989 419.198 275.098L422.218 273.891C422.218 273.891 422.573 273.027 422.686 272.491L423.415 268.978L415.289 268.04V268.031Z" fill="#231F20"/>
<path d="M404.956 273.655C405.368 274.552 406.752 275.206 407.649 275.591C410.819 276.941 413.624 275.566 413.624 275.566C414.643 275.214 417.505 274.175 417.785 274.091C417.785 274.091 419.478 273.345 419.393 274.133C419.384 274.267 419.393 274.292 419.365 274.451C419.365 274.376 419.337 274.309 419.328 274.275C419.253 273.739 417.561 274.468 417.561 274.468C417.308 274.627 414.026 275.918 413.503 276.103C413.503 276.103 410.398 277.528 407.415 276.153C406.527 275.751 405.405 275.214 404.994 274.317C404.881 274.074 404.947 273.613 404.966 273.655H404.956Z" fill="#282827"/>
<path d="M419.394 274.133C419.394 274.133 420.796 273.714 421.273 273.588C422.376 273.295 422.563 272.984 422.563 272.984C422.563 272.984 422.274 273.974 422.236 273.957C422.236 273.957 422.152 274.233 421.507 274.443C420.927 274.636 419.197 275.08 419.197 275.08L419.394 274.133Z" fill="#282827"/>
<path d="M426.574 254.435L425.686 256.162C425.686 256.162 424.311 258.643 420.823 260.663C420.543 260.823 420.216 261.686 420.468 262.155C420.571 262.34 420.646 262.457 420.861 262.566C421.637 262.977 423.217 263.078 424.18 262.851C426.284 262.365 429.015 260.923 429.015 260.923C429.379 260.529 431.904 258.953 432.044 258.71C432.044 258.71 433.194 258.517 433.222 258.576C433.288 258.702 433.512 259.23 433.549 259.339C433.549 259.339 435.335 258.174 435.616 257.151C435.625 257.101 435.42 256.086 435.233 255.575L434.017 252.172L426.537 254.444L426.574 254.435Z" fill="#231F20"/>
<path d="M420.721 262.315C421.684 262.751 423.218 262.852 424.181 262.642C427.341 261.955 429.688 259.993 429.688 259.993C430.633 259.281 431.801 258.619 432.204 258.526C432.456 258.468 433.279 258.568 433.26 258.552C433.139 258.476 433.335 258.568 433.382 258.711C433.344 258.635 433.26 258.526 433.279 258.56C433.419 258.845 433.578 259.331 433.578 259.331C433.559 259.314 433.419 259.289 433.026 259.231C432.484 259.155 431.848 259.013 431.83 259.029C431.83 259.029 428.015 262.123 425.013 263.028C424.069 263.313 421.815 263.237 420.908 262.709C420.749 262.617 420.478 262.34 420.478 262.072C420.506 262.106 420.693 262.29 420.74 262.307L420.721 262.315Z" fill="#282827"/>
<path d="M433.25 258.552C433.391 258.459 434.148 257.965 434.419 257.738C435.148 257.118 435.504 256.473 435.504 256.473C435.504 256.473 435.635 257.101 435.635 257.143C435.644 257.847 433.568 259.339 433.568 259.339C433.54 259.264 433.344 258.769 433.25 258.56V258.552Z" fill="#282827"/>
<path d="M411.811 220.067C411.811 220.067 413.241 235.49 415.99 240.772C417.72 244.083 425.565 256.799 425.565 256.799C425.855 258.316 428.595 258.383 429.361 258.392C432.092 258.442 435.477 255.768 434.962 254.351C430.773 242.876 428.595 239.455 427.847 236.983C426.865 233.764 426.865 217.393 426.865 217.393L411.811 220.075V220.067Z" fill="#0E1A68"/>
<path d="M419.759 224.334C419.759 224.334 416.673 248.375 416.177 252.902C415.27 261.352 413.241 268.98 413.241 268.98C412.961 270.061 413.812 271.075 416.364 271.637C420.591 272.559 422.237 271.612 422.237 271.612C423.125 271.176 423.246 270.992 423.396 270.623C423.396 270.623 426.379 256.372 427.089 251.293C427.258 250.127 430.371 239.054 430.456 234.997C430.586 228.525 430.951 224.175 430.951 224.175L419.777 224.334H419.759Z" fill="#0E1A68"/>
<path d="M425.424 193.695C425.424 193.695 423.208 190.677 421.357 190.149C419.496 189.629 413.68 190.258 413.68 190.258C413.68 190.258 411.006 196.52 411.006 196.931C411.006 197.341 413.278 208.188 413.278 208.188L420.665 202.187L425.434 193.687L425.424 193.695Z" fill="#C5CDFF"/>
<path d="M412.036 190.46C412.84 189.11 414.738 188.934 416.01 188.976C414.532 190.057 412.718 193.411 412.718 198.021C412.718 200.427 413.775 206.529 413.85 206.387C413.924 206.253 418.375 196.99 420.255 195.238C420.526 194.995 422.901 190.099 422.901 190.099C422.901 190.099 430.503 195.003 431.27 196.076L431.363 241.325C431.307 242.055 431.475 242.298 430.662 242.692C430.662 242.692 426.529 244.033 421.583 244.175C417.674 244.293 409.745 242.868 409.745 242.868C409.708 240.747 410.858 229.036 410.858 228.735L411.596 220.931C410.484 208.491 410.184 193.587 412.036 190.46Z" fill="#293896"/>
<path d="M412.877 243.379L414.523 216.168L413.588 206.646C413.588 206.646 413.953 205.774 414.102 205.506L414.906 216.076L413.326 243.445C413.139 243.445 412.943 243.412 412.877 243.379Z" fill="#B2B5B7"/>
<path d="M414.775 192.656C417.758 195.12 420.348 191.792 422.134 189.747L421.648 183.116L414.738 185.162L414.775 192.656Z" fill="white"/>
<path d="M414.719 197.174C414.775 196.914 414.943 196.646 414.869 196.344L414.597 195.43L415.878 193.469L416.626 193.553L417.188 195.657L416.234 196.445C416.019 196.646 415.748 197.04 415.776 197.308L415.476 203.394L413.859 206.043C413.859 206.043 413.073 204.224 413.055 203.536C412.97 201.122 414.71 197.174 414.71 197.174H414.719Z" fill="#305670"/>
<path d="M426.669 257.822L421.049 254.897C420.816 254.779 420.675 254.519 420.675 254.15L426.295 257.076C426.295 257.445 426.435 257.705 426.669 257.814V257.822Z" fill="#723919"/>
<path d="M426.239 242.608L449.26 230.688L449.307 245.156C449.307 245.885 448.736 246.782 448.026 247.151L427.576 257.73C426.865 258.099 426.286 257.805 426.286 257.067L426.239 242.599V242.608Z" fill="#1A3478"/>
<path d="M426.239 242.767L420.62 239.833V239.674L426.239 242.608V242.767Z" fill="#5C361D"/>
<path d="M443.649 227.754L449.269 230.688L426.248 242.608V243.58L426.294 257.076C426.294 257.445 426.435 257.705 426.668 257.814L421.049 254.888C420.815 254.771 420.675 254.511 420.675 254.142L420.628 239.674L443.658 227.754H443.649Z" fill="#D61A1A"/>
<path d="M433.001 237.192L432.383 237.519C432.14 237.645 431.729 237.645 431.486 237.519L429.503 236.496C429.382 236.429 429.316 236.346 429.316 236.262V236.723C429.316 236.807 429.372 236.899 429.503 236.958L431.486 237.98C431.738 238.106 432.14 238.106 432.383 237.98L433.001 237.662C433.122 237.595 433.188 237.511 433.188 237.427V236.958C433.188 237.041 433.131 237.125 433.001 237.184V237.192Z" fill="#8E8E8E"/>
<path d="M432.999 236.731C433.252 236.857 433.252 237.067 432.999 237.201L432.382 237.528C432.139 237.653 431.727 237.653 431.484 237.528L429.502 236.505C429.259 236.379 429.249 236.162 429.502 236.036L430.119 235.709C430.372 235.575 430.774 235.583 431.026 235.709L433.008 236.731H432.999Z" fill="#C1C1C1"/>
<path d="M440.498 233.269L439.872 233.587C439.629 233.713 439.227 233.722 438.974 233.587L436.992 232.565C436.87 232.498 436.805 232.414 436.805 232.33V232.8C436.805 232.883 436.861 232.976 436.992 233.034L438.974 234.057C439.227 234.183 439.629 234.183 439.872 234.057L440.498 233.73C440.62 233.663 440.686 233.588 440.686 233.495V233.034C440.686 233.118 440.62 233.202 440.498 233.269Z" fill="#8E8E8E"/>
<path d="M440.489 232.8C440.742 232.934 440.742 233.135 440.489 233.269L439.863 233.588C439.62 233.713 439.218 233.722 438.965 233.588L436.983 232.565C436.73 232.439 436.73 232.221 436.983 232.096L437.6 231.777C437.853 231.643 438.255 231.651 438.507 231.777L440.489 232.8Z" fill="#C1C1C1"/>
<path d="M436.88 231.576L437.778 232.046C438.208 232.272 438.516 232.674 438.666 233.228L437.768 232.758C437.628 232.196 437.31 231.794 436.88 231.576Z" fill="#8C532C"/>
<mask id="mask0_2062_297251" style="mask-type:luminance" maskUnits="userSpaceOnUse" x="436" y="231" width="3" height="3">
<path d="M436.88 231.576L437.778 232.046C438.208 232.272 438.516 232.674 438.666 233.228L437.768 232.758C437.628 232.196 437.31 231.794 436.88 231.576Z" fill="white"/>
</mask>
<g mask="url(#mask0_2062_297251)">
<path d="M438.666 233.228L437.768 232.758C437.628 232.196 437.31 231.794 436.88 231.576L437.778 232.046C438.208 232.272 438.516 232.674 438.666 233.228Z" fill="#474747"/>
</g>
<path d="M437.609 230.445C435.103 229.137 430.83 232.784 430.232 236.656L431.129 237.126C431.718 233.261 435.992 229.607 438.507 230.914L437.609 230.445Z" fill="#474747"/>
<path d="M435.412 231.182C437.562 230.067 439.348 230.754 439.713 232.682L438.666 233.227C438.32 231.886 436.992 231.433 435.421 232.246C433.841 233.059 432.522 234.887 432.186 236.58L431.138 237.125C431.494 234.828 433.27 232.297 435.421 231.182H435.412Z" fill="#2D2D2D"/>
<path d="M426.669 257.822L421.049 254.897C420.816 254.779 420.675 254.519 420.675 254.15L426.295 257.076C426.295 257.445 426.435 257.705 426.669 257.814V257.822Z" fill="#723919"/>
<path d="M426.239 242.608L449.26 230.688L449.307 245.156C449.307 245.885 448.736 246.782 448.026 247.151L427.576 257.73C426.865 258.099 426.286 257.805 426.286 257.067L426.239 242.599V242.608Z" fill="#1A3478"/>
<path d="M426.239 242.767L420.62 239.833V239.674L426.239 242.608V242.767Z" fill="#5C361D"/>
<path d="M443.649 227.754L449.269 230.688L426.248 242.608V243.58L426.294 257.076C426.294 257.445 426.435 257.705 426.668 257.814L421.049 254.888C420.815 254.771 420.675 254.511 420.675 254.142L420.628 239.674L443.658 227.754H443.649Z" fill="#5B68B7"/>
<path d="M433.001 237.192L432.383 237.519C432.14 237.645 431.729 237.645 431.486 237.519L429.503 236.496C429.382 236.429 429.316 236.346 429.316 236.262V236.723C429.316 236.807 429.372 236.899 429.503 236.958L431.486 237.98C431.738 238.106 432.14 238.106 432.383 237.98L433.001 237.662C433.122 237.595 433.188 237.511 433.188 237.427V236.958C433.188 237.041 433.131 237.125 433.001 237.184V237.192Z" fill="#8E8E8E"/>
<path d="M432.999 236.731C433.252 236.857 433.252 237.067 432.999 237.201L432.382 237.528C432.139 237.653 431.727 237.653 431.484 237.528L429.502 236.505C429.259 236.379 429.249 236.162 429.502 236.036L430.119 235.709C430.372 235.575 430.774 235.583 431.026 235.709L433.008 236.731H432.999Z" fill="#C1C1C1"/>
<path d="M440.498 233.269L439.872 233.587C439.629 233.713 439.227 233.722 438.974 233.587L436.992 232.565C436.87 232.498 436.805 232.414 436.805 232.33V232.8C436.805 232.883 436.861 232.976 436.992 233.034L438.974 234.057C439.227 234.183 439.629 234.183 439.872 234.057L440.498 233.73C440.62 233.663 440.686 233.588 440.686 233.495V233.034C440.686 233.118 440.62 233.202 440.498 233.269Z" fill="#8E8E8E"/>
<path d="M440.489 232.8C440.742 232.934 440.742 233.135 440.489 233.269L439.863 233.588C439.62 233.713 439.218 233.722 438.965 233.588L436.983 232.565C436.73 232.439 436.73 232.221 436.983 232.096L437.6 231.777C437.853 231.643 438.255 231.651 438.507 231.777L440.489 232.8Z" fill="#C1C1C1"/>
<path d="M436.88 231.576L437.778 232.046C438.208 232.272 438.516 232.674 438.666 233.228L437.768 232.758C437.628 232.196 437.31 231.794 436.88 231.576Z" fill="#8C532C"/>
<mask id="mask1_2062_297251" style="mask-type:luminance" maskUnits="userSpaceOnUse" x="436" y="231" width="3" height="3">
<path d="M436.88 231.576L437.778 232.046C438.208 232.272 438.516 232.674 438.666 233.228L437.768 232.758C437.628 232.196 437.31 231.794 436.88 231.576Z" fill="white"/>
</mask>
<g mask="url(#mask1_2062_297251)">
<path d="M438.666 233.228L437.768 232.758C437.628 232.196 437.31 231.794 436.88 231.576L437.778 232.046C438.208 232.272 438.516 232.674 438.666 233.228Z" fill="#474747"/>
</g>
<path d="M437.609 230.445C435.103 229.137 430.83 232.784 430.232 236.656L431.129 237.126C431.718 233.261 435.992 229.607 438.507 230.914L437.609 230.445Z" fill="#474747"/>
<path d="M435.412 231.182C437.562 230.067 439.348 230.754 439.713 232.682L438.666 233.227C438.32 231.886 436.992 231.433 435.421 232.246C433.841 233.059 432.522 234.887 432.186 236.58L431.138 237.125C431.494 234.828 433.27 232.297 435.421 231.182H435.412Z" fill="#2D2D2D"/>
<path d="M432.448 247.268C432.448 250.211 434.852 251.401 437.788 249.926C440.733 248.442 443.108 244.854 443.099 241.904C443.099 238.953 440.696 237.771 437.76 239.246C434.814 240.73 432.448 244.318 432.448 247.268Z" fill="white"/>
<path d="M433.019 247.051C433.028 249.759 435.169 250.848 437.788 249.49C440.415 248.132 442.538 244.83 442.528 242.122C442.528 239.415 440.378 238.325 437.76 239.691C435.132 241.049 433.009 244.343 433.019 247.051ZM440.911 243.656L438.573 244.863V247.269L437.058 248.057V245.651L434.721 246.858V245.291L437.049 244.084V241.678L438.564 240.89V243.296L440.901 242.089V243.656H440.911Z" fill="#1A3478"/>
<path d="M414.719 190.25L414.195 189.235C414.195 189.235 413.643 189.545 413.522 189.629C412.839 190.107 412.493 190.795 412.241 191.23C411.736 192.102 410.52 194.843 410.52 194.843C410.287 195.472 410.464 195.891 410.876 196.277L412.063 197.459L410.997 198.322C410.296 198.808 410.595 199.73 410.866 200.367C411.811 202.622 413.868 206.185 413.868 206.185C413.868 206.185 413.129 201.935 413.036 199.487C412.839 193.955 414.719 190.266 414.719 190.266V190.25Z" fill="#5B68B7"/>
<path d="M416.047 193.083C416.458 193.377 416.15 193.779 415.934 194.056L414.569 195.791C414.13 196.311 413.933 195.732 413.915 195.188L413.709 191.264C413.784 189.194 414.766 188.984 414.766 188.984C414.766 188.984 414.747 189.479 414.803 190.116C414.887 190.954 414.868 192.245 416.047 193.083Z" fill="white"/>
<path d="M421.984 187.576C421.984 187.576 421.928 188.9 421.694 189.495C420.544 192.429 416.607 193.167 416.607 193.167C416.149 193.326 416.168 193.527 416.252 194.223L416.719 196.771C416.794 197.442 417.187 197.367 417.477 197.09C417.477 197.09 420.46 194.751 421.301 193.972C423.274 192.128 423.461 190.82 422.722 188.498C422.47 187.693 421.984 187.567 421.984 187.567V187.576Z" fill="white"/>
<path d="M422.686 188.364L424.397 190.971C424.397 190.971 424.696 191.298 424.659 192.01C424.631 192.513 424.397 193.217 424.397 193.217L422.751 196.872C422.49 197.736 422.144 198.021 421.414 198.071L418.852 198.356L419.759 199.965C420.068 200.485 419.871 200.778 419.385 201.114C414.364 204.567 413.616 206.697 413.616 206.697C413.616 206.697 413.438 204.417 417.45 197.828C418.469 196.151 420.255 193.745 421.508 191.809C423.135 189.294 422.686 188.355 422.686 188.355V188.364Z" fill="#5B68B7"/>
<path d="M415.373 175.346L421.348 175.371L421.441 185.044C421.357 185.707 421.395 186.31 421.264 186.872C421.133 187.492 420.815 188.062 419.983 188.632C419.983 188.632 418.833 189.227 417.58 189.982C416.832 190.426 414.569 191.122 413.466 190.594C412.839 190.292 411.857 190.434 410.866 188.263C410.81 188.129 410.352 186.159 410.296 185.598L409.604 179.562L409.333 175.865L415.364 175.346H415.373Z" fill="white"/>
<path d="M409.848 174.239C408.501 175.262 409.558 177.902 409.558 177.877C409.595 176.737 410.923 176.008 411.54 176.234C412.747 176.679 416.562 178.145 416.982 178.372C418.198 179.017 418.413 180.551 418.357 181.398V182.245C418.357 182.68 418.273 183.183 418.759 183.142C419.264 183.091 419.226 182.915 419.367 182.446C419.367 182.446 420.059 180.928 421.405 181.105C422.555 181.255 421.695 183.661 421.63 183.787L421.891 186.495C422.022 186.461 422.191 186.042 422.752 184.952C423.789 182.932 424.089 182.404 424.388 181.792C427.792 174.717 421.433 169.403 413.962 171.439C412.56 171.817 409.857 174.239 409.857 174.239H409.848Z" fill="#C1934F"/>
<path d="M421.18 181.004C419.627 181.004 419.459 182.337 419.459 182.337V185.128C419.459 185.128 419.534 185.74 420.114 185.841C420.993 186 421.376 185.313 421.769 184.55C421.787 184.508 422.292 183.393 422.32 183.318C422.75 182.37 422.638 181.004 421.17 181.004H421.18Z" fill="white"/>
<path d="M435.234 230.328C435.365 231.3 433.99 232.088 432.999 232.197C432.653 232.231 432.419 234.653 431.007 234.72C431.007 234.72 430.923 234.083 430.83 232.977C430.82 232.893 430.54 231.962 431.101 231.225C432.569 229.28 432.719 228.928 433.71 228.819C434.691 228.718 435.112 229.364 435.243 230.336L435.234 230.328Z" fill="white"/>
<path d="M436.412 228.878L433.57 229.154L432.522 229.532L432.962 232.775C432.962 232.775 433.065 233.295 432.616 233.949C432.438 234.209 432.12 234.645 432.12 234.645C432.12 234.645 431.971 236.59 433.616 236.212C434.149 236.095 434.542 235.718 434.542 235.718C435.262 235.634 436.459 235.374 437.254 235.24C439.096 234.93 438.656 232.968 438.656 232.968L438.441 231.04C438.338 229.959 437.712 228.76 436.412 228.886V228.878Z" fill="white"/>
<path d="M435.776 230.814C436.898 230.814 437.609 230.428 437.609 230.428C437.609 230.428 438.582 229.975 438.6 229.154C438.684 226.689 438.095 215.926 437.628 212.883C437.114 209.547 434.299 200.989 434.299 200.989C434.308 201.039 432.812 194.71 428.764 195.288C425.369 195.766 425.285 198.666 425.753 201.332C426.127 203.428 429.942 214.686 429.942 214.686L432.027 229.598C432.027 229.598 433.177 230.814 435.776 230.822V230.814Z" fill="#5B68B7"/>
<path d="M411.423 336.727L349 373L183.463 276.272L245.877 240L294.13 267.857L411.423 336.727Z" fill="#D0DBFF"/>
<path d="M21 369.696L137.554 436.988L301.921 342.85L185.366 275.549L21 369.696Z" fill="#D0DBFF"/>
<path d="M277.888 333.356L178.013 391.593C178.013 391.593 167.812 396.745 157.692 397.409C147.572 398.073 138.791 393.574 132.643 390.769C126.507 387.964 112.368 379.825 109.437 377.088C106.507 374.341 98.4585 368.559 106.415 360.752C114.372 352.955 233.068 292.085 243.623 291.661C254.178 291.238 286.348 318.221 287.161 322.915C287.939 327.391 283.829 329.91 277.888 333.344V333.356Z" fill="#BBD2E9"/>
<path d="M273.732 324.573L264.413 318.494L238.895 335.209L189.129 374.419L182.603 368.878L165.992 376.789L159.901 343.989L273.732 295.426C273.732 295.426 283.303 300.955 273.732 324.573Z" fill="#0E1A68"/>
<path d="M165.923 374.293C165.923 380.613 165.694 387.905 171.201 384.734C176.708 381.563 181.172 373.858 181.172 367.539C181.172 361.219 176.708 358.678 171.201 361.861C165.694 365.043 165.923 367.985 165.923 374.293Z" fill="#0E1A68"/>
<path d="M170.595 389.177L164.138 385.456L178.322 361.197L184.825 364.941L170.595 389.177Z" fill="#0E1A68"/>
<path d="M167.755 382.823C167.755 389.143 172.22 391.684 177.726 388.502C183.233 385.319 187.698 377.626 187.698 371.306C187.698 364.987 183.233 362.445 177.726 365.628C172.22 368.811 167.755 376.504 167.755 382.823Z" fill="#0E1A68"/>
<path d="M245.821 330.206C245.821 336.526 250.286 339.067 255.793 335.885C261.299 332.702 265.764 325.009 265.764 318.689C265.764 312.37 261.299 309.828 255.793 313.011C250.286 316.194 245.821 323.887 245.821 330.206Z" fill="#0E1A68"/>
<path d="M255.197 340.339L248.74 336.607L262.925 312.348L269.416 316.103L255.197 340.339Z" fill="#0E1A68"/>
<path d="M252.358 333.984C252.358 340.303 256.823 342.845 262.33 339.662C267.837 336.479 272.301 328.786 272.301 322.467C272.301 316.147 267.837 313.606 262.33 316.788C256.823 319.971 252.358 327.664 252.358 333.984Z" fill="#0E1A68"/>
<path d="M108.521 347.311C108.625 345.25 109.323 343.727 110.044 342.686C113.456 337.74 111.143 345.525 111.143 345.525L108.521 347.311Z" fill="white"/>
<path d="M282.639 314.408C282.639 314.408 282.742 313.251 281.688 311.66C280.635 310.069 277.258 309.428 277.258 309.428L280.189 314.671L282.639 314.396V314.408Z" fill="#BBD2E9"/>
<path d="M281.997 306.222C281.997 306.222 281.459 301.677 278.38 297.281C275.312 292.885 269.942 288.088 269.942 288.088L267.458 295.815L280.44 306.474L281.997 306.222Z" fill="white"/>
<path d="M234.797 286.783C234.797 286.783 233.766 288.787 232.885 289.634C232.003 290.481 224.528 295.759 224.528 295.759L224.184 295.965V293.034C224.184 285.81 219.078 282.902 212.782 286.532C207.699 289.462 203.394 295.77 201.917 301.895C201.562 303.361 201.379 304.814 201.379 306.2V310.081L200.417 310.676L139.581 345.799V341.873C139.581 340.098 139.272 338.587 138.711 337.373C137.005 333.618 132.93 332.634 128.179 335.381C121.882 339.022 121.47 343.063 121.47 350.287V352.771L110.96 357.419L108.751 353.241L109.014 352.382L109.415 351.089V349.406L108.751 349.325V346.418L110.262 342.674C110.262 342.674 111.739 336.515 111.922 335.313C112.048 334.488 113.41 331.798 113.525 331.649C113.548 331.615 116.65 329.176 116.65 329.176C116.65 329.176 117.841 327.001 121.127 323.704C124.412 320.396 140.36 306.463 143.107 304.139C145.855 301.826 156.296 294.557 167.046 288.741C177.784 282.937 179.456 283.017 180.726 282.731C188.191 281.036 197.899 281.952 199.57 282.067C202.513 280.933 227.195 267.859 230.389 271.706C231.122 273.023 232.839 277.774 232.839 277.774L234.167 278.586V280.109L233.331 282.227L233.915 285.661L234.797 286.783Z" fill="#5B68B7"/>
<path d="M234.797 286.784C234.797 286.784 233.766 288.787 232.885 289.635C232.003 290.482 224.528 295.759 224.528 295.759L224.184 295.965V293.035C224.184 285.811 219.078 282.903 212.782 286.532C207.699 289.463 203.394 295.771 201.917 301.896C201.562 303.361 201.379 304.815 201.379 306.2V310.081L200.417 310.677L139.581 345.8V341.873C139.581 340.099 139.272 338.588 138.711 337.374C137.005 333.619 132.93 332.634 128.179 335.382C121.882 339.023 121.47 343.064 121.47 350.288V352.772L110.96 357.42L108.751 353.241L109.014 352.383L109.415 351.089V349.406L108.751 349.326V347.174C108.751 347.174 111.831 345.17 112.174 344.472C112.517 343.774 118.333 330.482 119.215 329.635C120.497 328.41 139.993 320.099 149.049 315.015C158.517 309.715 194.705 290.734 207.79 284.506C222.742 277.396 222.742 283.017 225.993 285.216C226.279 285.41 233.32 282.228 233.32 282.228L233.904 285.662L234.785 286.784H234.797Z" fill="#5B68B7"/>
<path d="M124.527 331.706C119.375 335.633 120.737 336.801 120.589 345.547C126.862 334.443 123.886 336.045 129.724 334.202C135.563 332.359 139.73 334.065 139.73 334.065C139.73 334.065 137.624 322.055 124.527 331.695V331.706Z" fill="#5B68B7"/>
<path d="M201.917 301.894C201.562 303.36 201.379 304.814 201.379 306.199V310.08L200.417 310.675L139.581 345.799V341.872C139.581 340.097 139.272 338.586 138.711 337.373C139.02 335.884 139.203 334.957 139.203 334.957C139.203 334.957 139.386 334.625 139.718 334.076C140.92 332.061 144.103 327.069 147.744 324.081C152.38 320.269 193.205 299.399 196.216 298.116C198.402 297.189 199.902 295.174 201.15 298.769C201.413 299.536 201.665 300.555 201.917 301.894Z" fill="#293896"/>
<path d="M154.441 327.436L145.03 336.16L148.339 335.679L196.17 309.199C196.17 309.199 191.545 309.004 188.694 310.584C185.843 312.164 154.441 327.425 154.441 327.425V327.436Z" fill="#293896"/>
<path d="M139.581 345.81V341.883C139.581 340.109 139.272 338.598 138.711 337.384C137.005 333.629 132.93 332.644 128.179 335.392C121.882 339.033 121.47 343.074 121.47 350.298V352.782L110.96 357.43L108.751 353.251L110.995 354.385L119.604 349.554C120.382 341.482 121.333 337.086 128.179 333.125C133.102 330.286 137.406 330.858 139.73 334.075C140.886 335.678 141.55 337.934 141.55 340.75V341.952L199.422 309.519V307.332C199.422 304.585 200.051 301.631 201.162 298.769C203.451 292.804 207.802 287.16 212.793 284.287C220.177 280.028 226.153 283.44 226.153 291.911L226.394 292.61L234.797 286.782C234.797 286.782 233.766 288.786 232.885 289.633C232.003 290.48 224.528 295.758 224.528 295.758L224.184 295.964V293.033C224.184 285.809 219.078 282.902 212.782 286.531C207.699 289.461 203.394 295.769 201.917 301.894C201.562 303.36 201.379 304.814 201.379 306.199V310.08L200.417 310.675L139.581 345.798V345.81Z" fill="#0E1A68"/>
<path d="M130.755 320.9C147.424 312.13 197.407 286.372 197.407 286.372C197.407 286.372 216.457 276.274 219.513 276.068C222.57 275.862 226.806 278.964 227.55 279.422C228.283 279.88 232.839 277.785 232.839 277.785C232.839 277.785 231.122 273.034 230.389 271.718C227.207 267.871 202.513 280.945 199.571 282.078C197.899 281.975 188.191 281.059 180.727 282.742C179.467 283.029 177.784 282.948 167.046 288.753C156.307 294.557 145.855 301.827 143.108 304.151C140.36 306.475 124.412 320.407 121.127 323.716C117.841 327.024 116.651 329.188 116.651 329.188C116.651 329.188 115.964 328.925 114.865 329.921C114.452 330.837 114.281 331.512 114.258 331.569L114.361 332.256C125.283 322.331 118.299 327.448 130.755 320.888V320.9Z" fill="white"/>
<path d="M138.15 342.709C138.15 349.028 138.379 351.97 132.872 355.142C127.366 358.324 122.901 355.771 122.901 349.463C122.901 343.155 122.672 340.202 128.178 337.03C133.685 333.848 138.15 336.401 138.15 342.709Z" fill="#0E1A68"/>
<path d="M135.906 344.013C135.906 348.913 137.143 350.115 132.872 352.576C128.602 355.037 125.145 353.068 125.145 348.168C125.145 343.269 123.908 342.067 128.179 339.605C132.449 337.144 135.906 339.113 135.906 344.013Z" fill="#293896"/>
<path d="M222.753 293.871C222.753 300.19 218.289 307.883 212.782 311.066C207.275 314.249 202.811 311.696 202.811 305.388C202.811 299.08 207.275 291.375 212.782 288.192C218.289 285.01 222.753 287.563 222.753 293.871Z" fill="#0E1A68"/>
<path d="M220.509 295.163C220.509 300.063 217.052 306.028 212.781 308.489C208.511 310.95 205.054 308.981 205.054 304.081C205.054 299.181 208.511 293.217 212.781 290.756C217.052 288.294 220.509 290.263 220.509 295.163Z" fill="#293896"/>
<path d="M142.214 337.235L142.1 337.121C141.504 336.56 134.876 328.626 134.578 328.271L130.296 322.329L130.239 322.249L130.525 320.853L133.994 314.51L134.029 314.453L190.732 284.584L190.858 284.516L194.957 287.343L196.731 289.954L196.765 290.057C196.765 290.057 197.487 295.517 197.784 297.647C198.082 299.788 196.903 309.587 196.857 310.011V310.126L196.742 310.183C196.285 310.446 150.297 336.022 147.332 337.682C146.336 338.243 145.5 338.449 144.813 338.449C143.451 338.449 142.638 337.647 142.214 337.235ZM197.326 297.716C197.052 295.701 196.399 290.744 196.319 290.171L194.67 287.698L190.835 285.054L134.384 314.785L130.983 320.967L130.743 322.123L134.956 327.973C135.025 328.054 141.859 336.228 142.432 336.766L142.546 336.88C143.164 337.487 144.447 338.758 147.103 337.258C149.988 335.632 193.949 311.19 196.41 309.816C196.548 308.672 197.601 299.65 197.326 297.693V297.716Z" fill="#5B68B7"/>
<path d="M221.494 275.519L228.077 272.268C228.077 272.268 229.554 272.645 230.206 274.031C230.87 275.416 231.42 277.809 231.42 277.809C231.42 277.809 227.711 279.24 227.596 279.045C227.482 278.85 222.261 275.92 222.261 275.92L221.494 275.519Z" fill="#293896"/>
<path d="M111.922 335.325L114.349 332.944L118.78 329.395L117.703 332.062L114.715 337.534L111.613 340.305L111.144 340.808L111.922 335.325Z" fill="#0E1A68"/>
<path d="M119.226 349.338C119.226 349.338 110.858 354.032 110.32 354.112C109.782 354.203 108.763 352.772 108.763 352.772L109.026 352.406L111.9 351.467L114.578 349.784L115.368 350.174L119.238 349.349L119.226 349.338Z" fill="#5B68B7"/>
<path d="M234.155 278.598C234.155 278.598 232.461 279.995 230.309 281.014C228.156 282.032 227.046 280.647 227.046 280.647L232.827 277.785L234.155 278.598Z" fill="#293896"/>
<path d="M110.96 357.431L115.139 361.312L150.514 381.736L157.956 384.563L158.872 376.733L108.751 353.264L110.96 357.431Z" fill="#0E1A68"/>
<path d="M157.956 384.563C157.956 384.563 153.216 383.75 148.637 382.056C144.058 380.362 119.089 365.685 116.318 363.956C110.377 359.469 108.751 353.264 108.751 353.264L155.998 381.804L157.944 384.563H157.956Z" fill="#293896"/>
<path d="M108.751 346.43V349.338L109.415 349.418V351.112L108.751 353.264L155.998 381.805L158.494 378.428L155.746 373.551L108.751 346.43Z" fill="#5B68B7"/>
<path d="M108.751 346.43L108.487 347.929L108.739 353.264C108.739 353.264 109.575 356.527 112.391 359.114C115.425 361.896 145.511 379.16 148.82 380.145C152.208 381.152 155.998 381.816 155.998 381.816L152.506 377.947L113.868 355.634L108.751 346.441V346.43Z" fill="#5B68B7"/>
<path d="M121.126 323.716L143.107 304.162L185.34 328.547L175.414 348.707L170.251 352.451L121.126 323.716Z" fill="white"/>
<path d="M157.257 369.818L110.262 342.686L111.922 335.325L113.914 331.867L159.386 358.404L157.257 369.818Z" fill="white"/>
<path d="M110.262 342.686L108.751 346.429L155.746 373.55L157.257 369.818L110.262 342.686Z" fill="white"/>
<path d="M108.751 346.43V347.185L155.746 374.318V373.551L108.751 346.43Z" fill="white"/>
<path d="M155.746 374.317C154.533 374.489 150.56 373.711 145.042 371.089C138.665 368.055 112.586 352.989 110.285 351.066C107.56 348.788 108.762 346.418 108.762 346.418L155.746 374.306V374.317Z" fill="white"/>
<path d="M157.257 369.818C157.257 369.818 152.746 370.401 144.984 366.956C131.681 361.048 114.703 350.493 111.887 348.238C109.162 346.062 110.273 342.697 110.273 342.697L110.868 340.27L141.664 353.481L157.863 367.391L157.268 369.818H157.257Z" fill="#5B68B7"/>
<path d="M158.127 362.319C158.127 362.319 156.146 362.136 148.522 358.403C137.818 353.171 117.589 340.796 114.681 338.644C110.937 335.862 111.922 335.324 111.922 335.324L113.524 331.66L142.683 345.833L158.883 359.743L158.138 362.307L158.127 362.319Z" fill="white"/>
<path d="M199.558 282.09L248.259 310.195L185.339 328.547L143.106 304.162L164.698 290.848L176.593 284.517L191.556 283.166L199.558 282.09Z" fill="white"/>
<path d="M230.377 271.718L278.22 299.343L248.248 310.196L199.559 282.079C199.559 282.079 226.622 269.543 230.377 271.718Z" fill="white"/>
<path d="M199.559 282.09L180.715 282.754L225.821 308.799L249.656 309.554C249.656 309.554 249.553 309.371 249.37 309.051C249.748 308.432 249.428 307.94 249.084 307.356C248.042 305.616 245.97 303.487 245.089 302.765C239.845 298.495 237.441 295.702 232.473 292.714C224.195 287.745 213.606 284.918 209.313 283.509C208.328 283.189 206.038 282.674 203.921 282.41C201.642 282.124 199.559 282.09 199.559 282.09Z" fill="#293896"/>
<path d="M197.314 290.309C199.387 290.172 201.825 290.928 203.119 291.431C203.909 291.74 209.587 295.255 210.491 295.942C211.27 296.537 209.392 297.041 208.74 297.041C207.446 296.228 206.187 295.45 204.996 294.728C202.329 293.126 199.741 291.649 197.314 290.309Z" fill="#0E1A68"/>
<path d="M232.473 292.713C237.441 295.69 239.834 298.495 245.089 302.765C245.97 303.486 248.042 305.616 249.084 307.356C249.439 307.94 249.76 308.432 249.37 309.05C249.462 309.222 249.542 309.348 249.588 309.428C247.081 309.348 242.433 307.756 234.259 305.547C231.671 302.891 225.879 299.571 219.616 295.564C213.354 291.546 201.391 286.6 201.391 286.279C201.391 285.959 203.921 282.398 203.921 282.398C206.039 282.662 208.328 283.177 209.313 283.497C213.606 284.906 224.196 287.733 232.473 292.702V292.713Z" fill="#5B68B7"/>
<path d="M222.81 295.426L217.818 296.067L237.922 308.385L234.968 303.337L222.81 295.426Z" fill="#5B68B7"/>
<path d="M186.908 283.326C185.374 283.452 183.955 283.635 182.661 283.876L191.888 289.211C195.323 287.447 197.395 286.371 197.395 286.371L198.723 284.78C198.723 284.78 194.636 282.708 186.908 283.326Z" fill="#0E1A68"/>
<path d="M250.057 309.553L249.095 308.844C249.095 308.844 243.875 306.165 233.525 305.775C223.188 305.386 217.12 307.447 217.12 307.447L224.55 311.5L249.656 314.213L250.057 309.553Z" fill="white"/>
<path d="M113.41 331.866L159.375 358.403L159.478 358.346L165.179 357.453L170.228 352.45L121.103 323.715L119.111 325.26C119.111 325.26 114.085 330.664 113.479 331.706C113.444 331.763 113.421 331.82 113.398 331.866H113.41Z" fill="white"/>
<path d="M282.639 314.409C282.639 314.409 282.456 316.905 281.574 317.752C280.693 318.599 274.064 324.369 274.064 324.369L273.721 324.575V321.644C273.721 314.42 268.615 311.512 262.318 315.141C257.235 318.072 252.93 324.38 251.454 330.505C251.099 331.971 250.915 333.424 250.915 334.81V338.691L249.954 339.286L189.118 374.409V370.483C189.118 368.708 188.808 367.197 188.248 365.983C186.542 362.228 182.466 361.244 177.715 363.991C171.418 367.632 166.313 376.436 166.313 383.66V386.144L157.944 384.564L155.998 381.805V379.527L156.398 378.233V376.55L155.734 376.47V373.562L157.246 369.819C157.246 369.819 157.497 365.445 157.692 364.243C157.818 363.419 158.402 361.221 158.871 359.767C159.089 359.08 159.283 358.565 159.386 358.428C159.409 358.393 159.455 358.347 159.535 358.279C160.634 357.271 165.351 357.317 165.351 357.317C165.351 357.317 167.114 355.623 170.4 352.314C173.685 349.006 182.604 330.871 185.351 328.547C188.099 326.235 198.54 318.965 209.289 313.149C220.028 307.345 221.699 307.425 222.97 307.139C230.435 305.445 246.599 310.093 248.271 310.196C251.213 309.062 275.049 295.496 278.243 299.343C278.975 300.659 280.693 305.41 280.693 305.41L282.021 306.223V307.746L281.654 310.207L281.78 313.298L282.662 314.42L282.639 314.409Z" fill="white"/>
<path d="M282.639 314.408C282.639 314.408 282.456 316.904 281.574 317.751C280.693 318.599 274.064 324.368 274.064 324.368L273.721 324.575V321.644C273.721 314.42 268.615 311.512 262.318 315.141C257.235 318.072 252.93 324.38 251.454 330.505C251.099 331.97 250.915 333.424 250.915 334.809V338.69L249.954 339.286L189.118 374.409V370.482C189.118 368.708 188.808 367.197 188.248 365.983C186.542 362.228 182.466 361.243 177.715 363.991C171.418 367.632 166.313 376.435 166.313 383.659V386.144L157.944 384.564L155.998 381.805V379.526L156.398 378.233V376.55L155.734 376.47V374.317C155.734 374.317 159.02 374.386 161.195 370.528C164.195 365.193 166.862 361.827 173.09 357.981C174.132 357.34 189.129 348.937 198.585 343.636C208.053 338.335 244.241 319.354 257.327 313.126C272.278 306.017 274.121 312.062 275.987 314.191C276.216 314.443 281.608 310.218 281.608 310.218L281.734 313.309L282.616 314.431L282.639 314.408Z" fill="#5B68B7"/>
<path d="M174.074 360.316C168.923 364.243 165.591 370.162 165.442 378.92C171.716 367.815 173.433 364.655 179.272 362.823C185.111 360.98 189.278 362.686 189.278 362.686C189.278 362.686 187.171 350.677 174.074 360.316Z" fill="white"/>
<path d="M251.465 330.505C251.11 331.971 250.927 333.425 250.927 334.81V338.691L249.965 339.286L189.129 374.41V370.483C189.129 368.708 188.82 367.197 188.259 365.984C188.568 364.495 188.751 363.568 188.751 363.568C188.751 363.568 189.461 363.305 189.266 362.687C187.892 358.474 192.85 354.993 197.292 352.692C202.615 349.922 242.753 328.01 245.764 326.727C247.95 325.8 249.862 325.789 250.698 327.38C251.076 328.101 251.213 329.166 251.465 330.505Z" fill="#293896"/>
<path d="M203.989 356.046L194.578 364.769L197.887 364.288L245.718 337.808C245.718 337.808 241.093 337.614 238.242 339.194C235.391 340.773 203.989 356.034 203.989 356.034V356.046Z" fill="#5B68B7"/>
<path d="M189.129 374.41V370.483C189.129 368.708 188.82 367.197 188.259 365.984C186.553 362.229 182.477 361.244 177.726 363.992C171.43 367.632 166.324 376.436 166.324 383.66V386.144L157.955 384.564L156.009 381.805L157.989 381.519L164.458 382.916C165.236 374.845 170.88 365.686 177.726 361.736C182.649 358.897 186.954 359.47 189.278 362.686C190.434 364.289 191.098 366.545 191.098 369.361V370.563L248.969 338.13V335.943C248.969 333.196 249.599 330.242 250.709 327.369C252.999 321.404 257.349 315.76 262.341 312.886C269.725 308.628 275.701 312.039 275.701 320.511L275.941 321.209C282.181 317.775 282.65 314.398 282.65 314.398C282.65 314.398 282.65 316.252 282.192 317.386C280.818 320.797 274.087 324.346 274.087 324.346L273.743 324.552V321.621C273.743 314.398 268.637 311.49 262.341 315.119C257.258 318.05 252.953 324.358 251.476 330.482C251.121 331.948 250.938 333.402 250.938 334.787V338.668L249.976 339.263L189.14 374.387L189.129 374.41Z" fill="#5B68B7"/>
<path d="M180.302 349.498C196.971 340.728 246.954 314.97 246.954 314.97C246.954 314.97 266.004 304.872 269.061 304.666C272.118 304.46 276.354 307.562 277.098 308.02C277.83 308.478 280.692 305.399 280.692 305.399C280.692 305.399 278.975 300.648 278.243 299.331C275.06 295.484 251.213 309.051 248.271 310.184C246.599 310.081 235.208 304.552 222.97 307.127C221.802 307.368 220.028 307.333 209.289 313.138C198.551 318.942 188.099 326.212 185.351 328.536C182.603 330.86 173.685 348.994 170.4 352.302C167.114 355.611 165.351 357.305 165.351 357.305C165.351 357.305 160.646 357.26 159.535 358.267C159.123 359.183 158.894 359.709 158.871 359.755C158.871 359.755 167.4 356.286 180.302 349.498Z" fill="#5B68B7"/>
<path d="M167.755 382.823C167.755 389.143 172.22 391.684 177.726 388.502C183.233 385.319 187.698 377.626 187.698 371.306C187.698 364.987 183.233 362.445 177.726 365.628C172.22 368.811 167.755 376.504 167.755 382.823Z" fill="#0E1A68"/>
<path d="M167.755 382.823C167.755 389.143 172.22 391.684 177.726 388.502C183.233 385.319 187.698 377.626 187.698 371.306C187.698 364.987 183.233 362.445 177.726 365.628C172.22 368.811 167.755 376.504 167.755 382.823Z" fill="#0E1A68"/>
<path d="M168.385 382.71C168.385 388.789 172.678 391.239 177.978 388.171C183.279 385.114 187.572 377.707 187.572 371.628C187.572 365.549 183.279 363.099 177.978 366.156C172.678 369.212 168.385 376.619 168.385 382.699V382.71Z" fill="#0E1A68"/>
<path d="M169.735 381.954C169.735 387.128 173.387 389.212 177.898 386.613C182.409 384.014 186.061 377.706 186.061 372.532C186.061 367.357 182.409 365.274 177.898 367.872C173.387 370.471 169.735 376.779 169.735 381.954Z" fill="#5B68B7"/>
<path d="M169.987 381.416C169.987 386.316 173.456 388.296 177.726 385.824C181.997 383.351 185.465 377.375 185.465 372.475C185.465 367.575 181.997 365.594 177.726 368.067C173.456 370.54 169.987 376.516 169.987 381.416Z" fill="#293896"/>
<path d="M184.916 373.964C184.596 376.78 183.176 379.997 180.955 382.55C178.734 385.103 176.215 386.385 174.189 386.259C173.296 386.202 172.495 385.87 171.876 385.24C171.67 385.046 171.487 384.817 171.327 384.554C171.293 384.496 171.258 384.451 171.235 384.405C171.121 384.21 171.018 384.015 170.949 383.798C170.835 383.523 170.743 383.226 170.674 382.916C170.548 382.367 170.491 381.772 170.491 381.142C170.491 380.856 170.503 380.57 170.526 380.272C170.526 380.123 170.548 379.974 170.571 379.825C170.583 379.722 170.594 379.631 170.606 379.528C170.617 379.436 170.629 379.345 170.652 379.253C170.697 378.978 170.755 378.692 170.823 378.406C170.858 378.268 170.892 378.131 170.926 377.994C170.949 377.879 170.984 377.765 171.029 377.65C171.075 377.49 171.132 377.307 171.19 377.147C171.224 377.021 171.27 376.895 171.316 376.78C171.51 376.242 171.728 375.715 171.991 375.189C172.048 375.074 172.094 374.971 172.151 374.868C172.334 374.513 172.529 374.159 172.735 373.804C172.792 373.712 172.838 373.632 172.895 373.54C172.998 373.38 173.101 373.22 173.205 373.071C173.605 372.476 174.04 371.903 174.51 371.354C174.75 371.079 174.99 370.827 175.231 370.587C175.345 370.472 175.46 370.358 175.574 370.243C175.609 370.209 175.643 370.174 175.677 370.14C175.769 370.049 175.872 369.968 175.964 369.888C177.12 368.892 178.299 368.217 179.409 367.873C181.367 367.278 183.13 367.736 184.138 369.339C184.172 369.385 184.206 369.442 184.229 369.488C184.424 369.808 184.573 370.175 184.687 370.552C184.996 371.548 185.065 372.716 184.916 373.952V373.964Z" fill="#5B68B7"/>
<path d="M175.345 371.615L175.277 373.79C174.464 373.722 173.651 373.642 172.896 373.55C172.999 373.39 173.102 373.23 173.205 373.081C173.605 372.485 174.04 371.913 174.51 371.363C174.75 371.089 174.991 370.837 175.231 370.596C175.345 370.482 175.46 370.367 175.574 370.253C175.609 370.219 175.643 370.184 175.677 370.15C175.769 370.058 175.872 369.978 175.964 369.898C177.12 368.902 178.299 368.227 179.41 367.883C181.367 367.288 183.13 367.746 184.138 369.349C178.517 367.425 175.357 371.604 175.357 371.604L175.345 371.615Z" fill="#BBD2E9"/>
<path d="M184.446 373.928C184.446 373.928 182.569 376.412 180.646 377.065C178.722 377.718 174.99 382.228 174.99 382.228L175.276 373.779C179.684 374.111 184.446 373.928 184.446 373.928Z" fill="#BBD2E9"/>
<path d="M180.588 372.475C180.314 374.891 179.1 377.661 177.188 379.848C176.135 381.061 174.99 381.943 173.903 382.458C173.01 382.893 172.162 383.076 171.384 383.03C171.327 383.03 171.269 383.03 171.201 383.007C171.018 382.996 170.834 382.962 170.663 382.904C170.537 382.355 170.479 381.76 170.479 381.13C170.479 380.844 170.491 380.557 170.514 380.26C170.514 380.111 170.537 379.962 170.56 379.813C170.571 379.71 170.582 379.619 170.594 379.516C170.605 379.424 170.617 379.333 170.64 379.241C170.686 378.966 170.743 378.68 170.811 378.394C170.846 378.256 170.88 378.119 170.915 377.982C170.937 377.867 170.972 377.753 171.018 377.638C171.063 377.478 171.121 377.295 171.178 377.134C171.212 377.009 171.258 376.883 171.304 376.768C171.498 376.23 171.716 375.703 171.979 375.177C172.036 375.062 172.082 374.959 172.139 374.856C172.323 374.501 172.517 374.146 172.723 373.792C172.872 373.551 173.032 373.299 173.193 373.059C173.593 372.464 174.028 371.891 174.498 371.342C174.738 371.067 174.979 370.815 175.219 370.575C175.334 370.46 175.448 370.346 175.563 370.231C175.597 370.197 175.631 370.162 175.666 370.128C175.757 370.036 175.86 369.956 175.952 369.876C177.108 368.88 178.287 368.205 179.398 367.861C179.615 368.079 179.81 368.331 179.993 368.628C180.153 368.903 180.279 369.201 180.382 369.533C180.52 370.002 180.611 370.517 180.634 371.067C180.657 371.513 180.634 371.971 180.577 372.452L180.588 372.475Z" fill="#0E1A68"/>
<path d="M175.014 376.538L173.697 375.771L172.735 373.802C172.884 373.562 173.044 373.31 173.205 373.069C173.605 372.474 174.04 371.902 174.51 371.352C174.75 371.077 174.991 370.826 175.231 370.585C175.346 370.471 175.46 370.356 175.575 370.242C175.609 370.207 175.643 370.173 175.678 370.139C175.941 370.287 176.147 370.425 176.158 370.436L174.498 372.337L175.014 376.515V376.538Z" fill="#293896"/>
<path d="M175.013 376.538L175.196 378.233L173.891 382.457L173.307 384.357C173.113 384.77 173.697 385.72 173.422 385.674C172.987 385.582 171.899 384.941 171.315 384.552C171.281 384.495 171.247 384.449 171.224 384.403C171.109 384.209 171.006 384.014 170.938 383.796C170.949 383.693 170.983 383.602 171.041 383.487L171.201 383.007L173.582 375.989L173.697 375.76L175.013 376.527V376.538Z" fill="#293896"/>
<path d="M182.993 370.23C182.878 370.173 182.729 370.184 182.569 370.276L176.238 372.955L176.066 373.058V376.458L177.463 375.645L182.706 373.585C183.038 373.401 183.302 372.944 183.325 372.566C183.359 371.822 184.504 371.661 184.366 371.02C184.344 370.894 183.084 370.276 183.004 370.23H182.993Z" fill="#293896"/>
<path d="M176.33 379.229L173.582 373.573C173.445 373.345 173.525 372.909 173.777 372.566C174.04 372.211 174.315 371.868 174.601 371.536C174.887 371.204 175.185 370.895 175.483 370.608C175.769 370.334 176.089 370.299 176.215 370.54L178.963 376.195L176.307 379.229H176.33Z" fill="white"/>
<path d="M177.372 377.224V373.824L177.555 373.721L183.886 371.042C184.172 370.882 184.424 370.962 184.481 371.248C184.619 371.89 184.676 372.599 184.642 373.332C184.619 373.721 184.356 374.168 184.024 374.351L178.78 376.412L177.372 377.224Z" fill="white"/>
<path d="M172.38 385.125C172.197 384.976 172.186 384.621 172.357 384.255L174.899 376.756L175.002 376.527L177.36 377.214L176.513 378.989L174.624 385.114C174.429 385.526 174.063 385.8 173.788 385.755C173.262 385.652 172.792 385.434 172.369 385.114L172.38 385.125Z" fill="white"/>
<path d="M173.799 384.929C173.799 384.929 173.868 384.849 173.902 384.781L175.837 378.553L178.253 375.782L183.622 373.653C183.702 373.607 183.817 373.412 183.828 373.298C183.851 372.863 183.828 372.439 183.794 372.05L177.257 374.844L175.803 371.443C175.608 371.649 175.402 371.855 175.219 372.073C174.944 372.382 174.681 372.714 174.429 373.058C174.372 373.138 174.337 373.206 174.326 373.264L175.814 376.732L173.078 384.632C173.296 384.769 173.525 384.872 173.777 384.929H173.799Z" fill="#293896"/>
<path d="M252.358 333.986C252.358 340.305 256.823 342.847 262.33 339.664C267.837 336.481 272.301 328.788 272.301 322.469C272.301 316.149 267.837 313.608 262.33 316.79C256.823 319.973 252.358 327.666 252.358 333.986Z" fill="#0E1A68"/>
<path d="M252.358 333.986C252.358 340.305 256.823 342.847 262.33 339.664C267.837 336.481 272.301 328.788 272.301 322.469C272.301 316.149 267.837 313.608 262.33 316.79C256.823 319.973 252.358 327.666 252.358 333.986Z" fill="#0E1A68"/>
<path d="M252.977 333.87C252.977 339.949 257.27 342.399 262.57 339.343C267.871 336.286 272.164 328.879 272.164 322.8C272.164 316.721 267.871 314.271 262.57 317.328C257.27 320.384 252.977 327.791 252.977 333.87Z" fill="#0E1A68"/>
<path d="M254.327 333.116C254.327 338.29 257.979 340.374 262.49 337.775C267 335.177 270.652 328.869 270.652 323.694C270.652 318.519 267 316.436 262.49 319.034C257.979 321.633 254.327 327.941 254.327 333.116Z" fill="#5B68B7"/>
<path d="M254.591 332.576C254.591 337.476 258.06 339.457 262.33 336.984C266.6 334.511 270.069 328.535 270.069 323.635C270.069 318.735 266.6 316.755 262.33 319.227C258.06 321.7 254.591 327.676 254.591 332.576Z" fill="#293896"/>
<path d="M269.508 325.124C269.187 327.94 267.768 331.157 265.547 333.71C263.326 336.263 260.807 337.545 258.781 337.42C257.888 337.362 257.086 337.03 256.468 336.401C256.262 336.206 256.079 335.977 255.919 335.714C255.884 335.656 255.85 335.611 255.827 335.565C255.713 335.37 255.61 335.176 255.541 334.958C255.426 334.683 255.335 334.386 255.266 334.077C255.14 333.527 255.083 332.932 255.083 332.302C255.083 332.016 255.094 331.73 255.117 331.432C255.117 331.283 255.14 331.134 255.163 330.986C255.175 330.882 255.186 330.791 255.198 330.688C255.209 330.596 255.22 330.505 255.243 330.413C255.289 330.138 255.346 329.852 255.415 329.566C255.449 329.429 255.484 329.291 255.518 329.154C255.541 329.039 255.575 328.925 255.621 328.81C255.667 328.65 255.724 328.467 255.781 328.307C255.816 328.181 255.862 328.055 255.907 327.94C256.102 327.402 256.319 326.876 256.583 326.349C256.64 326.234 256.686 326.131 256.743 326.028C256.926 325.674 257.121 325.319 257.327 324.964C257.384 324.872 257.43 324.792 257.487 324.7C257.59 324.54 257.693 324.38 257.796 324.231C258.197 323.636 258.632 323.063 259.101 322.514C259.342 322.239 259.582 321.987 259.823 321.747C259.937 321.632 260.052 321.518 260.166 321.403C260.2 321.369 260.235 321.335 260.269 321.3C260.361 321.209 260.464 321.129 260.555 321.048C261.712 320.052 262.891 319.377 264.001 319.034C265.959 318.438 267.722 318.896 268.729 320.499C268.764 320.545 268.798 320.602 268.821 320.648C269.016 320.968 269.164 321.335 269.279 321.712C269.588 322.708 269.657 323.876 269.508 325.113V325.124Z" fill="#5B68B7"/>
<path d="M259.949 322.766L259.88 324.941C259.067 324.872 258.255 324.792 257.499 324.7C257.602 324.54 257.705 324.38 257.808 324.231C258.209 323.636 258.644 323.063 259.113 322.514C259.354 322.239 259.594 321.987 259.835 321.747C259.949 321.632 260.063 321.518 260.178 321.403C260.212 321.369 260.247 321.335 260.281 321.3C260.373 321.209 260.476 321.129 260.567 321.048C261.724 320.052 262.903 319.377 264.013 319.034C265.971 318.438 267.734 318.896 268.741 320.499C263.12 318.576 259.96 322.754 259.96 322.754L259.949 322.766Z" fill="#BBD2E9"/>
<path d="M269.05 325.088C269.05 325.088 267.173 327.573 265.249 328.225C263.326 328.878 259.594 333.388 259.594 333.388L259.88 324.939C264.288 325.271 269.05 325.088 269.05 325.088Z" fill="#BBD2E9"/>
<path d="M265.18 323.635C264.905 326.051 263.692 328.821 261.78 331.008C260.727 332.221 259.582 333.103 258.494 333.618C257.601 334.053 256.754 334.236 255.976 334.19C255.919 334.19 255.861 334.19 255.793 334.168C255.609 334.156 255.426 334.122 255.255 334.065C255.129 333.515 255.071 332.92 255.071 332.29C255.071 332.004 255.083 331.718 255.106 331.42C255.106 331.271 255.129 331.122 255.151 330.974C255.163 330.87 255.174 330.779 255.186 330.676C255.197 330.584 255.209 330.493 255.232 330.401C255.277 330.126 255.335 329.84 255.403 329.554C255.438 329.417 255.472 329.279 255.506 329.142C255.529 329.027 255.564 328.913 255.609 328.798C255.655 328.638 255.712 328.455 255.77 328.295C255.804 328.169 255.85 328.043 255.896 327.928C256.09 327.39 256.308 326.864 256.571 326.337C256.628 326.222 256.674 326.119 256.731 326.016C256.914 325.661 257.109 325.307 257.315 324.952C257.464 324.711 257.624 324.459 257.785 324.219C258.185 323.624 258.62 323.051 259.09 322.502C259.33 322.227 259.57 321.975 259.811 321.735C259.925 321.62 260.04 321.506 260.154 321.391C260.189 321.357 260.223 321.323 260.257 321.288C260.349 321.197 260.452 321.117 260.544 321.036C261.7 320.04 262.879 319.365 263.99 319.021C264.207 319.239 264.402 319.491 264.573 319.789C264.734 320.063 264.86 320.361 264.963 320.693C265.1 321.162 265.192 321.677 265.215 322.227C265.237 322.673 265.214 323.131 265.157 323.612L265.18 323.635Z" fill="#0E1A68"/>
<path d="M259.617 327.689L258.289 326.922L257.327 324.952C257.476 324.712 257.636 324.46 257.796 324.22C258.197 323.625 258.632 323.052 259.102 322.503C259.342 322.228 259.582 321.976 259.823 321.736C259.937 321.621 260.052 321.507 260.166 321.392C260.201 321.358 260.235 321.323 260.269 321.289C260.533 321.438 260.739 321.575 260.75 321.587L259.09 323.487L259.605 327.666L259.617 327.689Z" fill="#293896"/>
<path d="M259.617 327.689L259.8 329.383L258.495 333.607L257.911 335.508C257.716 335.92 258.3 336.87 258.025 336.824C257.59 336.733 256.503 336.092 255.919 335.702C255.884 335.645 255.85 335.599 255.827 335.554C255.713 335.359 255.61 335.164 255.541 334.947C255.552 334.844 255.587 334.752 255.644 334.638L255.804 334.157L258.186 327.139L258.3 326.91L259.628 327.677L259.617 327.689Z" fill="#293896"/>
<path d="M267.596 321.379C267.482 321.321 267.333 321.333 267.173 321.425L260.842 324.103L260.67 324.206V327.607L262.067 326.794L267.31 324.733C267.642 324.55 267.905 324.092 267.928 323.714C267.963 322.97 269.107 322.81 268.97 322.169C268.947 322.043 267.688 321.425 267.608 321.379H267.596Z" fill="#5B68B7"/>
<path d="M260.933 330.377L258.186 324.722C258.048 324.493 258.128 324.058 258.38 323.714C258.644 323.36 258.918 323.016 259.205 322.684C259.491 322.352 259.788 322.043 260.086 321.757C260.372 321.482 260.693 321.448 260.819 321.688L263.566 327.344L260.91 330.377H260.933Z" fill="white"/>
<path d="M261.976 328.375V324.975L262.159 324.872L268.49 322.193C268.776 322.033 269.028 322.113 269.085 322.399C269.222 323.04 269.28 323.75 269.245 324.482C269.222 324.872 268.959 325.318 268.627 325.501L263.384 327.562L261.976 328.375Z" fill="white"/>
<path d="M256.984 336.273C256.801 336.125 256.789 335.77 256.961 335.403L259.502 327.905L259.605 327.676L261.964 328.363L261.117 330.137L259.228 336.262C259.033 336.674 258.667 336.949 258.392 336.903C257.865 336.8 257.396 336.583 256.972 336.262L256.984 336.273Z" fill="white"/>
<path d="M258.391 336.08C258.391 336.08 258.46 336 258.494 335.931L260.429 329.703L262.845 326.933L268.214 324.803C268.294 324.757 268.409 324.563 268.42 324.448C268.443 324.013 268.42 323.59 268.386 323.201L261.849 325.994L260.395 322.594C260.2 322.8 259.994 323.006 259.811 323.223C259.536 323.532 259.273 323.865 259.021 324.208C258.964 324.288 258.941 324.357 258.918 324.414L260.418 327.883L257.682 335.782C257.899 335.92 258.128 336.023 258.38 336.08H258.391Z" fill="#293896"/>
<path d="M190.549 361.965C190.343 361.644 190.183 361.392 190.091 361.301C187.069 358.004 184.298 356.847 184.264 356.847H184.23L179.925 350.86L179.891 350.814L180.165 349.475V349.44L185.351 344.117L242.021 314.26H242.055L246.943 314.844H247.023L247.905 317.797C247.905 317.855 248.351 323.304 248.351 325.445C248.351 328.192 246.348 338.175 246.256 338.599V338.656L246.199 338.679C245.73 338.942 199.742 364.518 196.788 366.178C196.399 366.395 196.01 366.498 195.632 366.498C193.457 366.498 191.465 363.407 190.526 361.965H190.549ZM248.134 325.456C248.134 323.327 247.688 317.877 247.688 317.855L246.852 315.084L242.112 314.5L185.523 344.312L180.406 349.566L180.154 350.78L184.39 356.653C184.71 356.79 187.378 358.004 190.263 361.163C190.366 361.266 190.515 361.518 190.744 361.862C191.808 363.51 194.293 367.357 196.697 366.006C199.616 364.369 244.345 339.492 246.062 338.53C246.222 337.729 248.145 328.101 248.145 325.479L248.134 325.456Z" fill="#5B68B7"/>
<path d="M217.418 354.637L217.956 352.885V352.851L217.143 349.863C217.189 349.428 217.945 342.879 217.945 341.082C217.945 339.285 216.903 334.133 216.857 333.927V333.893L214.407 329.016L214.201 329.119L216.628 333.984C216.697 334.293 217.704 339.296 217.704 341.082C217.704 342.868 216.903 349.783 216.903 349.852V349.874V349.897L217.704 352.885L217.189 354.58L217.407 354.648L217.418 354.637Z" fill="#5B68B7"/>
<path d="M247.424 311.775L246.955 314.981C246.955 314.981 196.971 340.74 180.303 349.509C180.303 349.509 183.76 333.092 184.493 331.902C185.226 330.722 187.927 327.94 195.689 322.743C203.451 317.545 213.343 312.382 215.106 311.535C216.869 310.688 223.303 307.7 228.168 307.723C239.422 307.78 247.424 311.787 247.424 311.787V311.775Z" fill="#0E1A68"/>
<path d="M182.283 346.875C199.65 337.785 240.086 316.938 245.661 314.053L245.879 312.61C243.52 311.614 236.789 309.141 228.145 309.096H228.088C223.795 309.096 217.99 311.672 215.701 312.771C213.617 313.778 203.898 318.895 196.456 323.887C188.087 329.497 186.118 331.935 185.695 332.599C185.271 333.526 183.737 340.121 182.283 346.875Z" fill="#293896"/>
<path d="M164.069 382.687C164.069 382.687 157.841 381.142 157.303 381.233C156.765 381.325 155.998 381.313 155.998 381.313V379.527L158.872 378.589L164.103 378.371L164.893 378.76L164.069 382.687Z" fill="#BBD2E9"/>
<path d="M281.998 306.223C281.998 306.223 281.998 308.604 279.846 309.623C277.693 310.642 276.583 309.257 276.583 309.257C278.22 309.28 280.67 305.41 280.67 305.41L281.998 306.223Z" fill="white"/>
<path d="M123.416 331.421C126.084 333.814 131.567 337.18 137.188 340.351C137.326 340.419 137.463 340.5 137.601 340.58C137.749 340.671 137.91 340.751 138.059 340.843C138.07 340.843 138.093 340.854 138.104 340.866C138.253 340.946 138.402 341.026 138.551 341.106C140.165 342.011 141.779 342.892 143.313 343.717C143.496 343.808 143.657 343.911 143.84 344.003C145.076 344.655 146.256 345.273 147.355 345.846C147.355 345.846 147.377 345.857 147.4 345.869C155.22 349.738 162.581 351.57 163.531 351.719C164.39 351.845 168.064 349.452 170.56 345.48C171.121 344.587 171.774 343.522 172.564 342.24C176.822 335.302 183.119 327.54 183.119 327.54L183.188 327.563C181.551 326.842 174.212 323.464 161.356 316.229C156.719 313.619 146.221 307.105 143.874 304.598C129.77 316.893 119.215 326.418 119.215 326.418C119.215 326.418 119.054 327.506 123.416 331.41V331.421Z" fill="#293896"/>
<path d="M130.754 320.899C135.539 318.38 143.084 314.453 151.395 310.137C148.487 308.248 145.82 306.382 144.423 305.123C143.198 306.234 142.557 307.012 142.248 307.504C141.515 308.683 130.754 320.887 130.754 320.887V320.899Z" fill="#0E1A68"/>
<path d="M146.977 342.137C144.115 340.58 142.352 339.607 141.241 339C143.187 340.088 145.145 341.152 146.977 342.137Z" fill="#293896"/>
<path d="M113.559 334.614C114.028 335.015 114.635 335.507 115.413 336.08C118.321 338.232 138.55 350.619 149.254 355.84C156.89 359.56 158.871 359.743 158.871 359.743L159.489 358.335L159.524 358.244L138.997 344.941L113.501 331.684C113.501 331.684 113.444 331.798 113.421 331.844C112.872 332.886 112.918 333.767 113.57 334.591L113.559 334.614Z" fill="white"/>
<path d="M221.929 306.543C221.929 306.543 211.007 298.06 207.115 295.816C203.222 293.573 193.972 288.249 191.533 286.818C186.164 283.67 180.715 282.754 180.715 282.754L176.078 284.78L211.751 307.7L221.929 306.543Z" fill="white"/>
<path d="M278.219 299.341C277.716 295.151 271.408 288.946 267.962 286.073C265.431 283.978 262.352 281.642 257.544 278.826C252.22 275.712 241.184 272.255 228.671 271.007C227.675 270.904 225.74 273.743 225.74 273.743L268.042 300.486L278.219 299.33V299.341Z" fill="white"/>
<path d="M203.921 282.399C203.921 282.399 201.081 282.354 191.888 282.445C182.913 282.537 180.864 283.304 180.864 283.304L180.715 282.754C180.715 282.754 190.984 281.644 199.559 282.09C202.341 281.873 203.921 282.411 203.921 282.411V282.399Z" fill="white"/>
<path d="M277.613 300.866C277.613 300.866 277.407 299.217 275.999 296.664C276.869 296.721 277.705 297.534 277.705 297.534C277.705 297.534 278.781 299.366 279.754 301.461C280.555 303.201 280.12 304.953 280.12 304.953C280.12 304.953 279.948 305.456 279.101 306.338C278.254 307.208 276.8 307.471 276.8 307.471C276.686 307.277 273.583 305.571 273.583 305.571L271.442 304.724C271.442 304.724 277.327 303.567 277.613 300.866Z" fill="#293896"/>
<path d="M149.552 355.988C155.997 358.587 167.091 356.881 170.342 354.958C173.593 353.034 161.733 361.071 159.386 361.037C157.05 361.002 149.552 355.988 149.552 355.988Z" fill="white"/>
<path d="M157.257 369.817C157.257 369.817 158.367 369.92 159.901 367.997C160.897 366.749 162.431 363.315 163.507 361.666C163.507 361.666 162.683 359.789 163.507 358.941C156.123 361.735 153.318 360.762 149.941 359.102C146.564 357.442 141.95 362.399 141.95 362.399L157.268 369.817H157.257Z" fill="#BBD2E9"/>
<path d="M140.234 362.057C141.379 362.057 142.649 360.901 142.89 360.672L152.186 360.958L152.644 357.352C152.758 356.505 153.273 355.772 154.052 355.394C155.162 354.845 157.074 354.009 159.856 353.082C163.657 351.822 165.512 349.636 165.523 349.613L165.34 349.464C165.34 349.464 163.508 351.616 159.776 352.864C156.983 353.791 155.059 354.639 153.937 355.188C153.102 355.6 152.529 356.402 152.403 357.329L151.968 360.718L142.787 360.431L142.752 360.466C142.752 360.466 140.898 362.286 139.696 361.702C136.135 359.973 125.122 353.608 121.355 350.986C120.451 350.231 120.142 347.197 120.142 347.163V347.128L120.108 347.094L114.349 341.095L113.525 338.187L113.96 335.142C113.994 335.016 114.017 334.867 114.029 334.707C114.086 334.249 114.235 332.841 119.524 326.59C120.005 326.029 122.409 327.289 123.805 328.227L123.874 328.273L123.943 328.227L128.247 325.228L128.11 325.033L123.874 327.987C123.267 327.586 120.096 325.56 119.352 326.43C114.578 332.074 113.903 333.837 113.811 334.673C113.788 334.821 113.777 334.959 113.742 335.085L113.296 338.187V338.21L114.177 341.221L119.924 347.209C119.97 347.598 120.291 350.368 121.23 351.147C125.019 353.768 136.044 360.157 139.616 361.885C139.822 361.988 140.028 362.023 140.245 362.023L140.234 362.057Z" fill="#5B68B7"/>
<path d="M142.844 360.557L143.954 363.877L153.353 367.998L157.841 367.391L158.482 366.762L163.496 361.667V358.942C163.496 358.942 155.757 361.278 151.796 360.248C148.373 359.366 144.309 356.847 143.267 356.172L142.844 360.557Z" fill="#0E1A68"/>
<path d="M110.307 342.479L111.738 345.306L116.936 348.832L120.027 347.184L120.519 342.936C119.592 342.341 115.184 339.536 113.192 338.048C112.116 337.247 111.841 336.377 111.727 336.113C111.429 337.212 110.342 341.288 110.296 342.467L110.307 342.479Z" fill="#0E1A68"/>
<path d="M143.278 356.172L120.531 342.949L119.592 345.754L143.782 359.927L143.278 356.172Z" fill="#0E1A68"/>
<path d="M147.229 359.229L116.433 341.324L115.94 341.92L147.744 360.546L147.229 359.229Z" fill="#293896"/>
<path d="M249.37 309.051C249.393 307.459 246.176 303.647 245.088 302.766C239.295 298.049 233.399 294.122 227.996 290.974C220.36 286.532 213.342 284.826 209.312 283.51C208.728 283.315 203.92 282.41 203.92 282.41C205.225 282.09 208.167 281.06 215.551 282.765C222.981 284.483 230.949 288.81 236.399 292.073C241.837 295.336 249.656 300.968 251.133 305.422C251.717 307.185 250.423 308.467 249.37 309.062V309.051Z" fill="#0E1A68"/>
<path d="M275.621 296.331C275.621 296.331 273.675 295.598 270.332 295.701C267.115 295.793 258.632 296.674 248.248 299.972C249.278 300.498 248.82 300.258 248.82 300.258C248.82 300.258 265.317 296.102 271.03 296.491C274.304 296.869 275.094 297.109 275.094 297.109L275.609 296.331H275.621Z" fill="white"/>
<path d="M242.649 273.962C242.649 273.962 239.387 273.825 235.036 276.08C230.686 278.335 221.493 284.014 221.493 284.014L220.943 283.853C220.943 283.853 232.174 276.927 235.277 275.439C238.379 273.951 241.837 273.745 242.638 273.973L242.649 273.962Z" fill="white"/>
<path d="M145.785 358.519C145.785 358.519 151.052 361.084 152.712 361.198C153.753 361.267 155.379 361.141 156.467 361.026V362.446L155.505 364.656C154.486 364.77 153.021 364.85 153.021 364.85L146.198 361.954L145.671 360.328L145.785 358.508V358.519Z" fill="#293896"/>
<path d="M112.517 338.541L117.943 342.308L117.748 343.784L116.672 344.826L112.356 341.678L112.059 340.212L112.517 338.541Z" fill="#293896"/>
<path d="M210.526 315.277C210.526 315.277 213.457 318.929 216.101 326.52C217.281 329.897 217.109 329.943 217.109 329.943L211.957 332.576C211.957 332.576 211.19 325.947 207.298 316.914C206.931 316.067 210.526 315.277 210.526 315.277Z" fill="#0E1A68"/>
<path d="M182.008 328.397C182.169 328.283 197.658 317.292 204.516 313.411C211.236 309.611 219.96 306.726 222.455 306.416L222.432 306.188C220.005 306.485 211.442 309.221 204.401 313.205C197.532 317.086 182.031 328.088 181.871 328.203L182.008 328.397Z" fill="#0E1A68"/>
<path d="M143.954 304.689C147.823 301.289 163.382 291.776 171.498 287.368C179.054 283.258 182.065 283.166 182.1 283.166V282.938C181.974 282.938 179.02 283.029 171.395 287.173C164.172 291.1 147.938 300.888 143.816 304.518L143.965 304.689H143.954Z" fill="#0E1A68"/>
<path d="M148.82 380.133C148.82 380.133 146.759 379.205 145.9 377.889C145.042 376.572 141.939 375.187 141.939 375.187C141.939 375.187 132.884 370.15 126.976 366.967C121.069 363.785 113.57 358.724 113.57 358.724C113.57 358.724 112.597 357.774 112.368 358.232C112.139 358.69 112.082 358.782 112.082 358.782C112.082 358.782 112.906 360.705 115.734 363.006C116.948 363.991 144.549 379.721 146.427 380.694C147.205 381.094 149.232 382.022 150.869 382.48C153.17 383.121 155.62 383.281 156.021 381.816C153.09 381.232 148.579 380.179 148.579 380.179L148.843 380.144L148.82 380.133Z" fill="#0E1A68"/>
<path d="M275.186 305.96C275.186 305.96 276.399 306.979 276.88 307.15C277.361 307.322 279.479 306.131 279.948 304.906C279.227 303.693 278.631 303.258 278.631 303.258C278.631 303.258 278.586 304.334 275.197 305.96H275.186Z" fill="white"/>
<path d="M277.612 300.866C277.612 300.866 277.406 299.217 275.998 296.664C276.216 296.676 276.433 296.744 276.628 296.824C276.788 296.939 276.903 297.03 276.903 297.03C276.903 297.03 278.723 300.499 279.043 301.552C279.364 302.606 279.284 303.545 279.284 303.545L277.876 301.827V302.411C277.876 302.411 277.944 302.674 276.754 303.602C275.563 304.54 274.407 305.044 274.407 305.044L273.319 304.208C275.071 303.636 277.441 302.548 277.612 300.866Z" fill="white"/>
<path d="M226.725 282.845L234.579 286.657C234.899 286.806 234.865 287.104 234.51 287.31L233.926 287.653C233.571 287.86 233.022 287.905 232.713 287.757L224.859 283.944C224.539 283.795 224.573 283.498 224.928 283.292L225.512 282.948C225.866 282.742 226.416 282.696 226.725 282.845Z" fill="#0E1A68"/>
<path d="M243.91 292.805L250.332 297.591C250.595 297.785 250.538 298.094 250.218 298.278L249.691 298.587C249.37 298.77 248.901 298.77 248.638 298.587L242.215 293.801C241.952 293.607 242.009 293.298 242.33 293.114L242.856 292.805C243.177 292.622 243.646 292.622 243.91 292.805Z" fill="#0E1A68"/>
<path d="M208.293 295.918C208.293 295.918 227.664 292.244 234.796 295.918C241.069 300.303 245.065 302.593 248.66 308.18C242.329 305.524 235.185 305.478 230.514 305.306C225.214 305.111 221.928 306.016 221.928 306.016C221.928 306.016 217.131 301.459 208.293 295.907V295.918Z" fill="#0E1A68"/>
<path d="M185.042 350.756C184.55 351.992 185.077 352.828 185.34 353.126C185.615 353.458 190.343 350.607 190.812 350.16C191.282 349.714 190.984 348.478 190.904 348.18C190.824 347.882 185.054 350.744 185.054 350.744L185.042 350.756Z" fill="#5B68B7"/>
<path d="M189.026 348.157L185.798 350.024C185.385 350.264 185.042 350.848 185.042 351.329V351.5C185.042 351.981 185.385 352.176 185.798 351.935L190.228 349.371C190.732 349.085 190.984 348.249 190.64 348.032C190.217 347.768 189.633 347.814 189.015 348.169L189.026 348.157Z" fill="#BBD2E9"/>
<path d="M186.336 350.666C186.336 350.929 186.153 351.238 185.924 351.364C185.695 351.49 185.512 351.387 185.512 351.135C185.512 350.883 185.695 350.562 185.924 350.437C186.153 350.311 186.336 350.414 186.336 350.666Z" fill="#0E1A68"/>
<path d="M219.284 331.844C218.791 333.08 219.318 333.916 219.581 334.213C219.856 334.545 224.584 331.695 225.054 331.248C225.523 330.802 225.225 329.565 225.145 329.268C225.065 328.97 219.295 331.832 219.295 331.832L219.284 331.844Z" fill="#5B68B7"/>
<path d="M223.256 329.245L220.028 331.111C219.616 331.352 219.272 331.936 219.272 332.416V332.588C219.272 333.069 219.616 333.264 220.028 333.023L224.459 330.459C224.962 330.173 225.214 329.337 224.871 329.119C224.447 328.856 223.863 328.902 223.245 329.257L223.256 329.245Z" fill="#BBD2E9"/>
<path d="M220.567 331.742C220.567 332.005 220.383 332.314 220.154 332.44C219.925 332.566 219.742 332.463 219.742 332.211C219.742 331.959 219.925 331.639 220.154 331.513C220.383 331.387 220.567 331.49 220.567 331.742Z" fill="#0E1A68"/>
<path d="M251.706 317.476C253.583 316.938 253.824 317.293 253.675 317.705C253.515 318.14 250.481 321.082 249.897 320.991C249.313 320.899 250.183 319.754 249.668 318.3C250.401 317.991 251.706 317.488 251.706 317.488V317.476Z" fill="#0E1A68"/>
<path d="M123.415 331.42C126.083 333.812 131.567 337.178 137.188 340.349C137.325 340.418 137.462 340.498 137.6 340.578C137.749 340.67 137.909 340.75 138.058 340.841C138.069 340.841 138.092 340.853 138.104 340.864C140.05 341.952 142.007 343.017 143.839 344.001C145.076 344.654 146.255 345.272 147.354 345.844C147.354 345.844 147.377 345.856 147.4 345.867C155.219 349.737 162.58 351.569 163.53 351.717C164.389 351.843 168.064 349.451 170.56 345.478C168.934 344.722 157.543 339.456 151.304 336.159C144.583 332.61 131.59 323.715 131.59 323.715L119.225 326.417C119.225 326.417 119.065 327.504 123.427 331.408L123.415 331.42Z" fill="#5B68B7"/>
<path d="M165.088 319.057C165.088 319.057 157.475 324.517 151.041 331.925C144.618 339.332 141.195 341.724 141.195 341.724C141.195 341.724 148.499 346.029 154.67 348.238C160.841 350.459 163.76 351.822 164.458 350.791C166.656 346.99 179.65 330.722 182.077 327.975C174.533 324.643 165.088 319.068 165.088 319.068V319.057Z" fill="#0E1A68"/>
<path d="M464.433 31.9907L459 28.8457V171.689L509.072 200.603V57.7593L464.433 31.9907ZM507.922 198.619L460.15 171.035V30.8522L460.882 31.2693L461.615 31.6976L465.73 34.0648L507.911 58.4243V198.607L507.922 198.619Z" fill="#5B68B7"/>
<path d="M510.548 56.9141V199.757L509.071 200.603V57.7595L510.548 56.9141Z" fill="#777777"/>
<path d="M461.626 31.697V170.189L460.149 171.035V30.8516L461.626 31.697Z" fill="#485291"/>
<path d="M460.477 28L510.548 56.9136L509.072 57.759L459 28.8567L460.477 28Z" fill="#BBD2E9"/>
<path d="M461.626 170.189L507.922 196.916V198.618L460.149 171.035L461.626 170.189Z" fill="#BBD2E9"/>
<path d="M460.883 31.2686V170.629L507.922 197.772V58.4237L460.883 31.2686Z" fill="url(#paint0_linear_2062_297251)" style="mix-blend-mode:screen"/>
<path d="M509.071 57.7695V200.613L510.221 201.289V59.8662L510.965 60.2833L576.638 98.2035V239.626L577.788 240.303V97.4482L509.071 57.7695Z" fill="#5B68B7"/>
<path d="M579.265 96.5918V239.345L577.788 240.202V97.4372L579.265 96.5918Z" fill="#777777"/>
<path d="M511.698 60.7003V200.432L510.222 201.278V59.7646L511.698 60.7003Z" fill="#485291"/>
<path d="M510.548 56.9131L579.264 96.5918L577.788 97.4372L509.071 57.7698L510.548 56.9131Z" fill="#BBD2E9"/>
<path d="M510.965 60.2725V200.749L576.626 238.657V98.1926L510.965 60.2725Z" fill="url(#paint1_linear_2062_297251)" style="mix-blend-mode:screen"/>
<path d="M510.965 193.343V200.749L576.626 238.658V231.252L510.965 193.343Z" fill="#8798FF"/>
<path d="M543.193 78.8718L542.145 78.2744V218.548L543.193 219.156V78.8718Z" fill="#C9D2D8"/>
<path d="M550.351 181.506C550.373 181.765 550.272 181.946 550.148 182.036L547.07 184.054V181.45L548.919 180.221C548.919 180.221 548.953 180.187 548.975 180.187L549.009 180.165C549.009 180.165 549.099 180.131 549.156 180.131C549.246 180.131 549.359 180.165 549.483 180.221C549.933 180.424 550.317 181.01 550.351 181.506Z" fill="#2C42C9"/>
<path d="M550.351 167.416C550.373 167.664 550.272 167.856 550.148 167.924L547.07 169.941V167.337L548.919 166.109C548.919 166.109 548.953 166.086 548.975 166.075L549.009 166.052C549.009 166.052 549.099 166.019 549.156 166.019C549.246 166.019 549.359 166.052 549.483 166.109C549.933 166.312 550.317 166.898 550.351 167.416Z" fill="#2C42C9"/>
<path d="M545.887 185.35V162.963L548.243 163.076V185.327C548.243 185.327 548.243 185.384 548.243 185.406V185.44C548.22 185.587 548.107 185.733 547.916 185.846C547.454 186.116 546.71 186.116 546.236 185.846C545.999 185.711 545.887 185.53 545.887 185.35Z" fill="#5B68B7"/>
<path d="M546.226 162.512C546.688 162.242 547.432 162.242 547.905 162.512C548.367 162.783 548.367 163.211 547.905 163.482C547.443 163.752 546.699 163.752 546.226 163.482C545.763 163.211 545.763 162.783 546.226 162.512Z" fill="#8697FF"/>
<path d="M539.315 175.769C539.338 176.028 539.237 176.208 539.113 176.299L536.035 178.316V175.712L537.884 174.484C537.884 174.484 537.918 174.45 537.94 174.45L537.974 174.427C538.03 174.405 538.064 174.394 538.121 174.394C538.211 174.394 538.323 174.427 538.447 174.484C538.898 174.687 539.282 175.273 539.315 175.769Z" fill="#2C42C9"/>
<path d="M539.315 161.667C539.338 161.915 539.237 162.107 539.113 162.175L536.035 164.192V161.588L537.884 160.36C537.884 160.36 537.918 160.337 537.94 160.326L537.974 160.303C538.03 160.281 538.064 160.27 538.121 160.27C538.211 160.27 538.323 160.303 538.447 160.36C538.898 160.563 539.282 161.149 539.315 161.667Z" fill="#2C42C9"/>
<path d="M534.863 179.613V157.227L537.219 157.339V179.591C537.219 179.591 537.219 179.647 537.219 179.67V179.704C537.197 179.85 537.084 179.997 536.892 180.109C536.43 180.38 535.686 180.38 535.213 180.109C534.976 179.974 534.863 179.794 534.863 179.613Z" fill="#5B68B7"/>
<path d="M535.201 156.775C535.663 156.505 536.407 156.505 536.881 156.775C537.343 157.046 537.343 157.474 536.881 157.745C536.419 158.015 535.675 158.015 535.201 157.745C534.739 157.474 534.739 157.046 535.201 156.775Z" fill="#8697FF"/>
<path d="M583.221 100.583L577.788 97.4385V240.282L631.512 271.303V128.46L583.21 100.583H583.221ZM630.374 269.308L578.949 239.617V99.4337L579.682 99.8507L580.414 100.279L584.529 102.646L630.362 129.125V269.308H630.374Z" fill="#5B68B7"/>
<path d="M633 127.614V270.458L631.523 271.303V128.46L633 127.614Z" fill="#485291"/>
<path d="M580.415 100.279V238.771L578.938 239.617V99.4336L580.415 100.279Z" fill="#485291"/>
<path d="M579.265 96.5928L633 127.614L631.523 128.46L577.788 97.4382L579.265 96.5928Z" fill="#BBD2E9"/>
<path d="M580.415 238.771L630.374 267.617V269.308L578.938 239.617L580.415 238.771Z" fill="#BBD2E9"/>
<path d="M579.683 99.8613V239.21L630.374 268.473V129.124L579.683 99.8613Z" fill="url(#paint2_linear_2062_297251)" style="mix-blend-mode:screen"/>
<defs>
<linearGradient id="paint0_linear_2062_297251" x1="514.573" y1="62.2675" x2="454.232" y2="166.785" gradientUnits="userSpaceOnUse">
<stop stop-color="#24565C"/>
<stop offset="0.47" stop-color="#214E55"/>
<stop offset="0.52" stop-color="#224A52"/>
<stop offset="1" stop-color="#264A52"/>
</linearGradient>
<linearGradient id="paint1_linear_2062_297251" x1="543.801" y1="60.2725" x2="543.801" y2="238.657" gradientUnits="userSpaceOnUse">
<stop stop-color="#24565C"/>
<stop offset="0.47" stop-color="#214E55"/>
<stop offset="0.52" stop-color="#224A52"/>
<stop offset="1" stop-color="#264A52"/>
</linearGradient>
<linearGradient id="paint2_linear_2062_297251" x1="635.199" y1="131.909" x2="574.847" y2="236.426" gradientUnits="userSpaceOnUse">
<stop stop-color="#24565C"/>
<stop offset="0.47" stop-color="#214E55"/>
<stop offset="0.52" stop-color="#224A52"/>
<stop offset="1" stop-color="#264A52"/>
</linearGradient>
</defs>
</svg>
