<svg width="705" height="468" viewBox="0 0 705 468" fill="none" xmlns="http://www.w3.org/2000/svg">
<rect width="705" height="468" fill="#E0E6F9"/>
<g opacity="0.29" style="mix-blend-mode:multiply">
<path d="M273.611 394.858C269.597 395.736 266.576 395.926 265.827 396.746C264.842 397.823 266.25 401.419 256.821 401.419C246.741 401.419 241 396.954 241 393.325C241 389.697 247.514 388.429 257.586 388.048C281.119 387.153 279.84 393.483 273.611 394.85V394.858Z" fill="#BBD2E9"/>
</g>
<path d="M265.77 385.671L266.478 387.005C266.478 387.005 272.357 389.009 272.723 389.183C273.139 389.374 274.051 389.697 273.969 390.467C273.953 390.65 273.969 390.765 273.855 390.931C273.464 391.528 272.65 391.809 271.885 391.975C270.215 392.323 266.673 391.925 266.673 391.925C265.639 391.834 263.889 391.486 263.693 391.337C263.693 391.337 262.773 391.122 262.683 391.321C262.635 391.437 262.741 391.942 262.757 392.05L260.526 391.229C260.412 391.18 260.176 390.111 260.102 389.639L260.037 386.508L265.77 385.679V385.671Z" fill="#545454"/>
<path d="M272.811 391.394C272.379 391.618 271.769 391.751 271.158 391.842C268.723 392.198 264.994 391.486 264.994 391.486C264.628 391.411 263.724 391.204 263.292 391.171C263.137 391.162 262.657 391.179 262.681 391.32C262.681 391.254 262.69 391.32 262.657 391.32C262.6 391.345 262.755 392.049 262.755 392.049L263.333 391.651C263.333 391.651 265.043 391.966 265.344 392.057C265.344 392.057 268.935 392.736 271.386 392.405C272.16 392.297 273.454 391.8 273.894 391.063C273.967 390.931 274.057 390.616 273.959 390.4C273.951 390.442 273.397 391.096 272.819 391.403L272.811 391.394Z" fill="#282827"/>
<path d="M262.683 391.312L260.248 390.31C260.248 390.31 260.476 391.237 260.509 391.221L262.732 392.041C262.723 391.966 262.699 391.503 262.683 391.312Z" fill="#282827"/>
<path d="M249.061 390.624C249.061 390.624 248.955 394.12 248.955 394.211C248.833 395.769 250.624 399.753 253.206 400.01C253.588 400.052 254.94 399.927 254.94 399.927C254.94 399.927 256.707 399.878 256.357 396.713C256.218 395.487 254.964 390.533 254.964 390.533L249.061 390.616V390.624Z" fill="#383736"/>
<path d="M248.809 389.755C248.809 389.755 249.02 391.768 249.199 394.386C249.305 395.943 251.17 399.248 253.442 399.381C254.028 399.414 254.492 399.364 254.533 399.364C255.51 399.323 256.853 398.958 256.292 395.736C256.088 394.593 255.274 390.161 255.209 390.161L248.809 389.755Z" fill="#545454"/>
<path d="M265.763 350.529C265.041 350.596 263.794 350.084 263.794 350.084C263.794 350.084 262.634 343.485 262.553 343.171C262.132 341.37 261.281 335.081 261.05 332.787C260.792 330.272 260.64 325.718 260.64 325.718C260.64 325.718 259.441 320.119 261.992 319.238C263.452 318.733 266.665 320.734 266.547 326.17C266.51 327.77 266.657 337.082 266.657 337.082L267.086 349.178C267.086 349.178 267.167 350.407 265.755 350.536L265.763 350.529Z" fill="white"/>
<path d="M261.697 318.361C263.264 317.963 266.111 320.076 266.433 325.653C266.495 326.788 266.823 329.864 266.655 332.648C264.255 332.792 260.472 332.565 259.676 332.435C259.675 332.342 259.674 332.25 259.67 332.174C259.593 329.575 259.783 324.897 259.783 324.897C259.783 324.897 258.958 319.062 261.696 318.369L261.697 318.361Z" fill="#0E1A68"/>
<path d="M266.396 348.202L265.794 382.879C265.794 382.879 265.794 384.279 266.095 384.76C266.242 384.992 266.665 385.48 266.665 385.48C266.413 386.673 263.872 387.618 262.822 387.618C261.079 387.618 259.654 388.09 259.654 386.425L257.822 346.811L266.405 348.211L266.396 348.202Z" fill="#0E1A68"/>
<path d="M261.551 346.106L255.257 387.585C254.834 389.763 256.853 391.022 256.137 391.362C251.756 393.425 249.411 392 249.411 392C249.069 391.784 248.548 390.832 248.531 390.525L250.6 346.844L261.559 346.115L261.551 346.106Z" fill="#1C2876"/>
<path d="M262.773 318.934C265.118 321.527 266.225 327.227 266.25 334.409C266.266 340.191 266.494 355.227 266.494 355.227C266.543 355.906 265.883 356.668 263.872 356.908C256.755 357.762 249.745 355.019 249.248 354.771L246.602 326.05C246.431 324.476 253.726 320.011 253.726 320.011L258.97 318.122C258.97 318.122 261.478 317.501 262.781 318.943L262.773 318.934Z" fill="#0E1A68"/>
<path d="M252.374 352.957C252.537 350.174 251.145 341.327 250.705 339.504C250.037 336.787 249.703 335.884 247.521 335.081C247.489 335.064 247.464 335.047 247.432 335.039L249.256 354.772C249.427 354.854 250.42 355.261 251.943 355.7C251.943 354.623 252.317 354.001 252.382 352.966L252.374 352.957Z" fill="#0E1A68"/>
<path d="M259.557 318.504L258.954 314.486L253.735 312.821C253.735 312.821 254.199 316.044 254.142 317.369C253.996 320.832 251.732 321.876 250.967 322.572C250.901 322.63 250.942 322.737 251.032 322.754C251.724 322.895 254.346 323.334 255.779 323.135C258.84 322.712 260.314 322.365 261.283 321.271C262.089 320.36 261.031 319.954 259.557 318.504Z" fill="white"/>
<path d="M251.284 351.88C250.649 351.88 250.218 351.367 249.786 350.87C248.304 349.147 241.196 343.994 241.456 341.534C241.741 338.825 245.405 327.484 245.405 327.484C245.405 327.484 247.71 323.441 249.965 324.311C252.693 325.363 252.351 329.215 251.284 331.104C249.102 334.956 246.961 341.492 247.27 342.254C248.117 344.358 252.937 349.834 252.937 349.834C252.937 349.834 253.922 351.88 251.284 351.88Z" fill="white"/>
<path d="M251.984 349.478C251.984 349.478 254.81 350.173 255.934 351.855C256.634 352.899 257.383 353.553 257.383 353.553C257.383 353.553 257.179 354.166 256.626 354.034C256.406 353.984 256.194 353.926 255.779 353.479C254.598 352.236 253.637 352.907 253.637 352.907L251.984 349.478Z" fill="white"/>
<path d="M254.997 352.824L251.65 348.367L250.909 349.477C250.909 349.477 249.403 350.529 250.063 352.542C250.16 352.832 250.331 353.18 250.852 354.05C251.235 354.688 253.311 358.441 255.648 356.61C256.178 356.196 255.779 356.179 255.591 354.746C255.51 354.141 255.372 353.412 255.005 352.824H254.997Z" fill="white"/>
<path d="M249.981 324.261C252.709 325.313 252.424 329.174 251.61 331.187C251.317 331.916 249.802 335.643 248.996 336.886C247.49 337.267 243.891 335.122 242.181 333.191C243.15 330.226 244.851 327.094 244.851 327.094C244.851 327.094 247.726 323.391 249.981 324.261Z" fill="#384493"/>
<path d="M251.813 345.792C251.813 345.792 250.909 339.024 250.608 336.994C250.306 334.964 249.46 333.672 249.394 334.592C249.337 335.511 252.114 346.902 251.813 345.792Z" fill="#0E1A68"/>
<path d="M260.111 327.848L259.858 327.633C259.858 327.633 260.608 326.705 260.599 326.017C260.599 325.545 260.51 325.181 260.42 324.791C260.323 324.352 260.209 323.855 260.192 323.143C260.192 322.646 260.404 322.116 260.673 321.436C260.941 320.774 261.275 319.945 261.511 318.86C261.511 318.843 261.511 318.827 261.495 318.81C261.373 318.653 260.803 318.562 260.453 318.545V318.214C260.632 318.214 261.495 318.264 261.756 318.603C261.829 318.703 261.853 318.81 261.829 318.926C261.585 320.036 261.243 320.881 260.974 321.552C260.713 322.19 260.51 322.696 260.518 323.126C260.518 323.806 260.632 324.261 260.738 324.7C260.835 325.106 260.917 325.487 260.925 325.993C260.933 326.804 260.143 327.782 260.103 327.823L260.111 327.848Z" fill="#4C4C4C"/>
<path d="M257.423 327.094C257.163 326.705 257.032 326.357 256.886 325.984C256.723 325.562 256.544 325.09 256.153 324.501C255.876 324.087 255.404 323.772 254.801 323.375C254.215 322.985 253.474 322.497 252.676 321.743C252.66 321.735 252.66 321.718 252.66 321.693C252.66 321.569 252.831 321.362 253.026 321.179C253.026 321.179 253.026 321.163 253.026 321.155C253.042 321.039 253.075 320.914 253.124 320.807C253.14 320.74 253.156 320.674 253.189 320.616H253.181C253.042 320.707 252.358 321.246 252.334 321.677C252.334 321.801 252.367 321.909 252.456 321.983C253.279 322.754 254.028 323.251 254.63 323.648C255.2 324.029 255.648 324.319 255.884 324.684C256.259 325.247 256.422 325.686 256.584 326.1C256.731 326.49 256.869 326.854 257.154 327.277C257.602 327.948 258.799 328.296 258.856 328.304L258.946 327.989C258.946 327.989 257.814 327.666 257.431 327.086L257.423 327.094Z" fill="#4C4C4C"/>
<path d="M261.82 340.299C261.275 339.628 260.428 338.095 260.566 335.13C260.688 332.537 259.565 328.917 259.557 328.884L259.874 328.801C259.874 328.801 260.973 332.487 260.9 335.121C260.811 338.178 261.657 339.57 262.081 340.092L261.828 340.299H261.82Z" fill="#4C4C4C"/>
<path d="M259.955 329.464L259.98 329.249L260.142 327.608L260.118 327.824L259.955 329.464Z" fill="#787879"/>
<path d="M259.923 329.315C259.923 329.315 259.841 329.331 259.809 329.29L258.661 328.055C258.661 328.055 258.62 327.989 258.628 327.956L258.604 328.171C258.604 328.171 258.612 328.246 258.644 328.279L259.792 329.513C259.792 329.513 259.874 329.555 259.906 329.538C259.931 329.522 259.955 329.505 259.955 329.472L259.98 329.257C259.98 329.257 259.955 329.315 259.931 329.323L259.923 329.315Z" fill="#CCCCCC"/>
<path d="M258.701 327.857H258.718L259.955 327.476C259.955 327.476 260.012 327.476 260.037 327.476C260.094 327.492 260.143 327.55 260.134 327.616L259.963 329.248C259.963 329.248 259.939 329.306 259.915 329.315C259.882 329.331 259.833 329.331 259.801 329.29L258.653 328.055C258.587 327.989 258.612 327.881 258.693 327.848L258.701 327.857Z" fill="#DBDCDD"/>
<path d="M263.791 340.83C263.872 341.443 263.53 342.014 263.001 342.246C262.887 342.296 262.773 342.329 262.643 342.346C261.918 342.445 261.25 341.915 261.153 341.178C261.055 340.44 261.568 339.761 262.301 339.662C263.025 339.562 263.693 340.084 263.791 340.83Z" fill="#C6C6C6"/>
<path d="M263.962 340.622C264.059 341.36 263.546 342.039 262.814 342.138C262.089 342.238 261.421 341.708 261.323 340.97C261.226 340.233 261.739 339.554 262.471 339.454C263.196 339.355 263.864 339.885 263.962 340.622Z" fill="#DBDCDD"/>
<path d="M263.742 340.689C263.807 341.202 263.522 341.683 263.082 341.873C262.993 341.915 262.887 341.94 262.781 341.956C262.17 342.039 261.609 341.6 261.535 340.979C261.454 340.357 261.885 339.794 262.496 339.711C263.107 339.628 263.66 340.067 263.742 340.689Z" fill="#C6C6C6"/>
<path d="M263.888 340.515C263.97 341.136 263.538 341.708 262.928 341.782C262.317 341.865 261.763 341.426 261.682 340.805C261.6 340.183 262.032 339.612 262.643 339.537C263.253 339.455 263.807 339.894 263.888 340.515Z" fill="#DBDCDD"/>
<path d="M257.831 305.431L253.214 306.392L254.794 314.883C254.965 315.455 255.046 315.985 255.241 316.457C255.453 316.971 255.787 317.427 256.536 317.799C256.536 317.799 257.497 318.288 258.661 318.553C259.305 318.702 260.005 319.067 261.495 318.702C262.936 318.346 263.189 316.946 263.237 316.118C263.327 314.502 263.262 306.351 263.262 306.351L262.431 303.65L257.839 305.448L257.831 305.431Z" fill="white"/>
<path d="M263.253 306.335C262.219 308.24 257.211 309.88 257.211 309.88L255.558 313.102C255.558 313.102 253.392 310.377 253.612 311.255C254.548 314.983 254.304 317.22 254.304 317.22C254.304 317.22 252.944 315.049 250.339 309.946C247.326 304.056 252.171 300.685 255.444 300.436C258.774 300.179 261.567 302.192 262.471 304.131C263.342 306.003 263.253 306.326 263.253 306.326V306.335Z" fill="#633A11"/>
<path d="M253.1 310.949C254.297 310.709 254.72 312.208 254.72 312.208L255.128 314.296C255.128 314.296 255.168 314.834 254.737 315.016C254.093 315.298 253.678 314.751 253.238 314.147C253.214 314.113 252.636 313.202 252.603 313.152C252.107 312.39 251.968 311.173 253.1 310.941V310.949Z" fill="white"/>
<path d="M261.308 300.295C261.308 300.295 261.308 300.329 261.284 300.387C260.844 298.763 254.305 299.732 251.586 300.793C247.783 302.275 248.752 304.993 248.752 304.993C248.752 304.993 249.558 309.11 250.372 310.675C251.211 312.291 254.843 311.056 258.206 309.632C262.472 307.817 263.197 307.486 263.384 306.666C263.58 305.846 261.308 300.295 261.308 300.295Z" fill="#384493"/>
<mask id="mask0_2067_297518" style="mask-type:luminance" maskUnits="userSpaceOnUse" x="248" y="299" width="14" height="13">
<path d="M261.308 300.295C261.308 300.295 261.308 300.329 261.284 300.387C260.844 298.763 254.305 299.732 251.586 300.793C247.783 302.275 248.752 304.993 248.752 304.993C248.752 304.993 249.558 309.11 250.372 310.675C251.187 312.241 252.571 311.222 257.204 309.88C262.627 308.314 260.925 306.716 261.113 305.895C261.3 305.075 261.3 300.295 261.3 300.295H261.308Z" fill="white"/>
</mask>
<g mask="url(#mask0_2067_297518)">
<path d="M247.506 306.567C247.506 306.567 251.268 307.006 253.645 305.465C256.023 303.924 256.283 303.526 256.283 303.526C256.283 303.526 253.214 305.374 251.056 305.506C248.898 305.639 246.822 305.68 247.343 306.169L247.514 306.567H247.506Z" fill="#0E1A68"/>
<path d="M247.814 308.795C247.814 308.795 250.021 309.052 251.421 308.149C252.814 307.246 252.969 307.014 252.969 307.014C252.969 307.014 251.169 308.099 249.899 308.173C248.629 308.248 247.407 308.273 247.717 308.563L247.814 308.795Z" fill="#0E1A68"/>
</g>
<path d="M309.956 355.603C310.591 355.603 311.023 355.089 311.454 354.592C312.936 352.869 320.037 347.717 319.784 345.256C319.499 342.547 315.835 331.207 315.835 331.207C315.835 331.207 313.531 327.164 311.275 328.034C308.547 329.086 308.889 332.938 309.956 334.827C312.138 338.679 314.28 345.207 313.97 345.977C313.124 348.081 308.303 353.557 308.303 353.557C308.303 353.557 307.318 355.603 309.956 355.603Z" fill="white"/>
<path d="M309.264 353.2C309.264 353.2 306.438 353.896 305.315 355.578C304.614 356.622 303.865 357.276 303.865 357.276C303.865 357.276 304.069 357.889 304.623 357.756C304.842 357.707 305.054 357.649 305.469 357.201C306.65 355.951 307.611 356.63 307.611 356.63L309.264 353.2Z" fill="#F2CEB6"/>
<path d="M306.251 356.556L309.598 352.099L310.339 353.209C310.339 353.209 311.845 354.261 311.186 356.274C311.096 356.564 310.925 356.912 310.396 357.782C310.013 358.419 307.945 362.172 305.6 360.341C305.071 359.927 305.47 359.911 305.657 358.477C305.738 357.873 305.877 357.144 306.251 356.564V356.556Z" fill="#F2CEB6"/>
<g opacity="0.29" style="mix-blend-mode:multiply">
<path d="M316.82 400.319C316.82 400.319 318.718 403.484 312.936 403.832C307.147 404.18 301.007 408.272 297.995 408.313C291.513 408.405 280.032 403.741 281.669 401.454C283.313 399.168 291 398.994 295.487 396.973C299.981 394.951 311.642 396.269 316.82 400.311V400.319Z" fill="#BBD2E9"/>
</g>
<path d="M318.197 337.411C316.577 328.348 314.63 328.547 314.63 328.547L313.1 338.008C313.1 338.008 313.865 339.076 314.639 340.377C315.42 339.59 317.301 338.066 318.197 337.403V337.411Z" fill="#0E1A68"/>
<path d="M293.264 398.854C293.264 398.854 292.816 399.607 291.595 399.972C290.674 400.253 288.264 400.22 288.264 400.22C287.002 400.262 285.317 400.253 284.967 401.479C284.967 401.479 284.828 402.092 284.852 402.3C284.95 403.012 285.585 403.343 286.367 403.716C286.367 403.716 287.792 404.379 289.03 404.735C290.634 405.191 291.538 405.224 292.726 405.149C292.726 405.149 294.233 405.033 294.827 405.083C295.487 405.141 295.332 405.622 295.356 406.259L297.416 407.013C299.501 407.477 301.064 405.679 301.048 405.191L300.902 400.427L293.272 398.862L293.264 398.854Z" fill="#545454"/>
<path d="M294.102 404.909C293.532 404.909 291.862 405.066 290.201 404.718C288.638 404.387 286.171 403.211 286.171 403.211C285.479 402.888 284.909 402.382 284.892 401.96C284.868 402.117 284.843 402.283 284.86 402.374C284.949 403.087 285.593 403.418 286.374 403.791C286.374 403.791 287.799 404.462 289.037 404.81C290.641 405.265 291.545 405.298 292.734 405.224C292.734 405.224 294.452 405.133 294.517 405.133C294.916 405.108 295.29 405.249 295.29 405.323C295.282 405.29 295.152 404.909 294.102 404.917V404.909Z" fill="#383736"/>
<path d="M297.382 406.16L295.347 405.415C295.347 405.622 295.355 406.119 295.363 406.318L297.423 407.072C299.507 407.544 301.071 405.738 301.055 405.249L301.022 404.338C301.038 404.827 299.475 406.624 297.39 406.16H297.382Z" fill="#383736"/>
<path d="M308.401 393.526C308.401 393.526 308.221 394.844 306.968 394.951C306.194 395.018 303.938 394.91 303.938 394.91C302.619 394.661 302.106 394.827 301.805 395.829C301.805 395.829 301.667 396.219 301.683 396.434C301.748 397.171 301.496 396.55 302.489 397.453C302.489 397.453 304.337 398.986 305.534 399.45C306.593 399.864 308.156 400.013 308.629 399.963C308.629 399.963 309.166 399.938 309.76 400.013C310.412 400.096 310.249 400.941 310.249 401.595L312.268 402.44C314.32 402.987 315.933 401.181 315.933 400.676V395.399L308.409 393.526H308.401Z" fill="#545454"/>
<path d="M309.043 399.814C308.473 399.798 307.325 399.814 306.023 399.309C304.655 398.77 302.627 397.354 302.627 397.354C302.13 396.981 301.731 396.517 301.731 396.078C301.699 396.244 301.691 396.41 301.683 396.509C301.634 397.18 302.212 397.544 302.692 397.884C302.692 397.884 304.313 399.118 305.526 399.524C307.097 400.046 307.342 400.005 308.05 400.03C308.05 400.03 308.946 400.071 309.54 400.096C309.809 400.113 310.175 400.27 310.175 400.344C310.167 400.311 310.078 399.839 309.027 399.814H309.043Z" fill="#383736"/>
<path d="M312.259 401.852L310.264 401.016C310.264 401.231 310.248 401.463 310.248 401.67L312.267 402.515C314.319 403.07 315.932 401.264 315.932 400.751V400.088C315.932 400.593 314.319 402.399 312.267 401.852H312.259Z" fill="#383736"/>
<path d="M302.718 311.117L298.834 312.667L300.251 322.732C300.699 325.921 302.067 326.294 303.019 326.219C304.998 326.07 306.977 325.457 308.027 324.695C310.071 323.229 309.851 318.78 309.851 318.474L309.94 310.96L302.726 311.109L302.718 311.117Z" fill="white"/>
<path d="M311.34 333.443L311.324 327.255L310.493 320.305L304.101 321.796L304.842 328.498C304.842 329.45 303.955 330.511 303.458 331.322L300.983 334.909C300.331 335.97 298.979 337.651 298.979 340.617V356.92L312.057 358.767V337.121C312.057 335.854 311.82 334.603 311.356 333.435L311.34 333.443Z" fill="white"/>
<path d="M303.255 353.092V356.124C303.255 358.377 303.784 362.196 303.784 362.196L313.971 362.586C315.249 362.329 315.737 360.548 315.737 358.75V353.084H303.255V353.092Z" fill="#317F9E"/>
<path d="M299.786 309.32C298.051 310.198 298.947 313.743 298.947 313.743C300.217 313.884 299.941 315.549 299.941 315.64C299.941 315.69 301.08 319.434 301.08 319.434C301.097 319.857 301.707 320.445 301.96 319.799C302.245 319.07 301.691 318.739 301.976 318.357C302.261 317.968 303.727 317.363 304.191 319.6L304.81 321.497C305.738 323.535 308.116 323.485 309.329 323.121C309.329 323.121 310.371 322.806 310.746 322.234C310.982 321.878 311.625 317.662 311.951 316.585C313.164 312.592 311.625 305.766 303.556 308.243C301.382 308.905 299.786 309.32 299.786 309.32Z" fill="#633A11"/>
<path d="M305.046 359.836C305.046 359.836 306.65 376.155 307.301 381.573C307.961 387.082 307.407 394.712 307.407 394.712C307.407 394.712 308.099 398.1 311.707 398.945C313.815 399.442 314.931 399.069 315.762 397.528C315.762 397.528 316.087 387.041 315.314 378.185C314.76 371.831 314.793 361.468 314.793 361.468L305.046 359.844V359.836Z" fill="#0E1A68"/>
<path d="M300.73 363.82C300.73 363.82 298.206 377.091 296.398 385.417C294.656 393.444 294.696 393.734 293.793 397.561C293.345 399.458 292.514 399.856 292.539 399.897C292.701 400.113 295.657 405.986 300.38 402.879C300.38 402.879 303.018 391.911 304.402 386.924C305.868 381.664 307.733 377.605 310.233 372.386C311.772 369.172 313.286 363.63 313.286 363.63L300.73 363.829V363.82Z" fill="#1C2876"/>
<path d="M301.846 317.844C301.846 317.844 302.929 317.935 303.263 318.97C303.499 319.708 303.263 320.329 303.133 320.519C302.774 321.017 302.375 321.141 302.375 321.141C302.375 321.141 302.326 319.368 302.294 319.037C302.261 318.714 301.838 317.852 301.838 317.852L301.846 317.844Z" fill="white"/>
<path d="M301.585 317.695C301.585 317.695 301.072 317.695 301.463 318.415C301.854 319.144 301.96 319.592 301.984 320.014C302.009 320.395 301.96 321.555 301.96 321.555C301.96 321.555 302.294 322.019 302.587 321.306C302.725 320.967 302.79 320.329 302.75 319.509C302.733 319.177 302.139 317.512 301.593 317.695H301.585Z" fill="white"/>
<path d="M300.738 333.451C298.971 334.851 298.263 336.334 298.263 340.981L296.862 363.713C296.862 364.516 300.575 366.537 302.863 367.051C304.126 367.333 306.699 367.54 309.589 366.562C310.77 366.165 316.673 363.555 316.673 361.857L316.299 337.403C316.209 334.669 316.038 331.297 315.607 329.856C314.621 326.559 311.771 326.956 311.771 326.956C311.771 326.956 307.008 328.588 304.476 330.552C303.295 331.471 303.303 331.38 300.746 333.459L300.738 333.451Z" fill="#0E1A68"/>
<path d="M296.179 367.241L298.101 367.639L298.573 369.014L298.264 370.489C298.264 370.489 298.158 370.886 298.426 371.417C298.532 371.624 298.711 371.988 298.711 371.988C298.711 371.988 298.679 373.504 297.571 373.106C297.213 372.982 296.977 372.659 296.977 372.659C296.497 372.551 295.691 372.27 295.153 372.112C293.915 371.748 294.355 370.257 294.355 370.257L294.632 368.774C294.779 367.937 295.292 367.051 296.171 367.233L296.179 367.241Z" fill="white"/>
<path d="M296.578 369.13C297.327 369.263 298.679 368.849 298.679 368.849C298.679 368.849 300.487 362.197 300.592 361.882C301.195 360.076 302.653 353.714 303.1 351.386C303.597 348.826 304.167 344.187 304.167 344.187C304.167 344.187 305.926 338.562 303.336 337.436C301.854 336.79 298.312 338.546 297.946 344.129C297.84 345.769 297.539 354.956 297.539 354.956L295.3 367.631C295.3 367.631 295.104 368.882 296.57 369.139L296.578 369.13Z" fill="white"/>
<path d="M312.725 310.388C312.725 310.388 312.709 310.422 312.668 310.463C312.888 308.732 306.276 306.992 303.272 306.893C299.062 306.752 298.915 309.742 298.915 309.742C298.915 309.742 298.06 314 298.215 315.814C298.378 317.695 302.319 318.001 306.081 318.01C310.852 318.018 311.683 318.01 312.188 317.297C312.693 316.593 312.717 310.38 312.717 310.38L312.725 310.388Z" fill="#384493"/>
<path d="M303.573 348.486C304.02 348.635 304.493 348.321 304.542 347.84C304.859 344.518 305.046 340.898 305.046 340.898C305.046 340.898 305.844 335.033 302.482 334.37C299.68 333.824 298.598 335.762 297.71 338.239C297.441 338.976 296.643 341.511 296.472 344.071C296.432 344.642 296.578 344.692 297.059 344.99C298.695 345.993 301.635 347.848 303.573 348.486Z" fill="#384493"/>
<path opacity="0.3" d="M354.957 122.277V63.499L220.473 138.506L219 141.992V200.77L354.97 122.277H354.957Z" fill="black"/>
<path d="M220.462 197.283L223.052 198.793V140.015L220.462 138.493V197.283Z" fill="#1D374E"/>
<path d="M359.021 120.3V61.5225L223.592 139.709L223.051 140.016V198.794L359.021 120.3ZM356.885 65.2053V118.925L225.187 194.964V141.243L356.885 65.2053Z" fill="#0F2034"/>
<path d="M357.953 119.539L224.119 196.817V140.629L357.953 63.3633V119.539Z" fill="#C4C3FE"/>
<path d="M297.788 110.541C297.788 110.43 297.8 110.32 297.8 110.209C297.8 108.122 296.339 107.275 294.522 108.319C292.718 109.362 291.245 111.903 291.245 113.99C291.245 114.101 291.245 114.199 291.257 114.297C288.998 116.065 287.464 117.894 287.464 118.974C287.464 120.521 290.631 119.957 294.522 117.71C298.426 115.463 301.581 112.382 301.581 110.823C301.581 109.743 300.034 109.694 297.788 110.528V110.541Z" fill="white"/>
<path d="M308.873 113.879C308.873 113.806 308.873 113.732 308.873 113.658C308.873 112.259 307.891 111.682 306.664 112.382C305.448 113.081 304.454 114.788 304.454 116.2C304.454 116.273 304.454 116.335 304.454 116.408C302.932 117.599 301.901 118.827 301.901 119.551C301.901 120.594 304.024 120.214 306.651 118.692C309.279 117.169 311.402 115.107 311.402 114.064C311.402 113.339 310.359 113.302 308.849 113.867L308.873 113.879Z" fill="white"/>
<path d="M333.732 94.95C333.732 94.8763 333.732 94.8027 333.732 94.729C333.732 93.3173 332.75 92.7525 331.522 93.4523C330.307 94.152 329.312 95.8706 329.312 97.2701C329.312 97.3438 329.312 97.4175 329.312 97.4788C327.79 98.6696 326.759 99.8972 326.759 100.634C326.759 101.677 328.883 101.297 331.51 99.7745C334.137 98.2522 336.261 96.1899 336.261 95.1464C336.261 94.4221 335.217 94.3853 333.707 94.95H333.732Z" fill="white"/>
<path d="M264.36 136.934C264.36 136.861 264.36 136.787 264.36 136.713C264.36 135.302 263.378 134.737 262.163 135.437C260.947 136.136 259.953 137.843 259.953 139.255C259.953 139.328 259.953 139.402 259.953 139.463C258.431 140.654 257.4 141.882 257.4 142.618C257.4 143.662 259.523 143.281 262.151 141.759C264.778 140.249 266.901 138.174 266.901 137.131C266.901 136.406 265.858 136.37 264.348 136.934H264.36Z" fill="white"/>
<path d="M272.462 123.959C272.462 123.898 272.462 123.824 272.462 123.762C272.462 122.498 271.578 121.982 270.486 122.621C269.393 123.259 268.509 124.794 268.509 126.046C268.509 126.107 268.509 126.169 268.509 126.23C267.147 127.298 266.214 128.403 266.214 129.053C266.214 129.986 268.129 129.643 270.486 128.292C272.843 126.93 274.758 125.076 274.758 124.131C274.758 123.48 273.825 123.456 272.462 123.959Z" fill="#B4BEFF"/>
<path d="M329.902 106.268C329.902 106.207 329.902 106.133 329.902 106.072C329.902 104.808 329.018 104.292 327.925 104.93C326.833 105.556 325.949 107.091 325.949 108.355C325.949 108.417 325.949 108.478 325.949 108.54C324.586 109.608 323.653 110.712 323.653 111.363C323.653 112.296 325.568 111.952 327.925 110.59C330.282 109.227 332.197 107.373 332.197 106.428C332.197 105.777 331.264 105.741 329.902 106.256V106.268Z" fill="#B4BEFF"/>
<path d="M299.028 125.53C299.028 125.53 299.028 125.457 299.028 125.432C299.028 124.757 298.561 124.487 297.972 124.818C297.395 125.162 296.916 125.972 296.916 126.647C296.916 126.684 296.916 126.709 296.916 126.746C296.192 127.31 295.701 127.899 295.701 128.243C295.701 128.747 296.72 128.562 297.972 127.838C299.224 127.114 300.243 126.132 300.243 125.628C300.243 125.285 299.752 125.272 299.028 125.53Z" fill="#B4BEFF"/>
<path d="M320.093 96.3002C320.093 96.3002 320.093 96.2266 320.093 96.202C320.093 95.5268 319.627 95.2568 319.038 95.6005C318.461 95.9319 317.982 96.7545 317.982 97.4174C317.982 97.4542 317.982 97.4787 317.982 97.5156C317.257 98.0803 316.766 98.6695 316.766 99.0132C316.766 99.5166 317.785 99.3324 319.038 98.6081C320.29 97.8839 321.309 96.8895 321.309 96.3984C321.309 96.0547 320.818 96.0424 320.093 96.3002Z" fill="#B4BEFF"/>
<path d="M314.741 104.243C314.741 104.243 314.741 104.17 314.741 104.133C314.741 103.458 314.274 103.187 313.685 103.531C313.108 103.863 312.629 104.685 312.629 105.348C312.629 105.385 312.629 105.409 312.629 105.446C311.905 106.011 311.414 106.6 311.414 106.944C311.414 107.447 312.433 107.263 313.685 106.539C314.937 105.815 315.956 104.832 315.956 104.329C315.956 103.985 315.465 103.973 314.741 104.231V104.243Z" fill="#B4BEFF"/>
<path d="M341.945 96.3002C341.945 96.3002 341.945 96.2266 341.945 96.202C341.945 95.5268 341.478 95.2568 340.889 95.6005C340.312 95.9319 339.833 96.7545 339.833 97.4174C339.833 97.4542 339.833 97.4787 339.833 97.5156C339.109 98.0803 338.618 98.6695 338.618 99.0132C338.618 99.5166 339.637 99.3324 340.889 98.6081C342.141 97.8839 343.16 96.8895 343.16 96.3984C343.16 96.0547 342.669 96.0424 341.945 96.3002Z" fill="#B4BEFF"/>
<path d="M246.118 134.786C246.118 134.786 246.118 134.712 246.118 134.676C246.118 134 245.651 133.73 245.062 134.074C244.485 134.406 244.006 135.228 244.006 135.891C244.006 135.928 244.006 135.965 244.006 135.989C243.282 136.554 242.791 137.143 242.791 137.487C242.791 137.99 243.81 137.806 245.062 137.082C246.314 136.357 247.333 135.375 247.333 134.872C247.333 134.528 246.842 134.516 246.118 134.774V134.786Z" fill="#B4BEFF"/>
<path d="M341.147 84.0365C341.147 84.0365 341.147 83.9383 341.147 83.8892C341.147 82.9071 340.46 82.502 339.6 82.9931C338.741 83.4841 338.054 84.6872 338.054 85.6693C338.054 85.7184 338.054 85.7675 338.054 85.8166C336.986 86.6513 336.261 87.5107 336.261 88.0263C336.261 88.7505 337.747 88.4928 339.588 87.4247C341.43 86.3567 342.915 84.9082 342.915 84.1839C342.915 83.6683 342.191 83.656 341.123 84.0488L341.147 84.0365Z" fill="white"/>
<path d="M243.699 143.871C243.699 143.76 243.712 143.65 243.712 143.551C243.712 141.452 242.238 140.605 240.422 141.649C238.605 142.704 237.132 145.245 237.132 147.345C237.132 147.455 237.132 147.553 237.144 147.652C234.885 149.432 233.338 151.261 233.338 152.341C233.338 153.9 236.506 153.323 240.422 151.064C244.338 148.806 247.505 145.712 247.505 144.165C247.505 143.085 245.958 143.036 243.699 143.871Z" fill="white"/>
<path d="M250.66 175.886L239.489 182.331V172.755L250.66 166.311V175.886Z" fill="#3F52D0"/>
<path d="M236.739 186.591L225.556 193.049V183.473L236.739 177.028V186.591Z" fill="#3F52D0"/>
<path d="M355.866 118.52L344.683 124.965V115.389L355.866 108.944V118.52Z" fill="#3F52D0"/>
<path d="M309.462 145.43L298.291 151.887V142.312L309.462 135.854V145.43Z" fill="#3F52D0"/>
<path d="M241.76 183.694L233.559 188.421V164.654L241.76 159.928V183.694Z" fill="#3F52D0"/>
<path d="M295.419 155.778L288.581 159.718V139.892L295.419 135.939V155.778Z" fill="#3F52D0"/>
<path d="M331.351 134.209L324.525 138.162V118.323L331.351 114.383V134.209Z" fill="#3F52D0"/>
<path d="M253.766 168.152L249.076 170.853V157.263L253.766 154.562V168.152Z" fill="#3F52D0"/>
<path d="M341.957 126.144L337.268 128.844V106.097L341.957 103.384V126.144Z" fill="#3F52D0"/>
<path d="M267.859 166.507L263.17 169.208V155.606L267.859 152.905V166.507Z" fill="#3F52D0"/>
<path d="M280.822 159.51L276.145 162.223V148.621L280.822 145.92V159.51Z" fill="#3F52D0"/>
<path d="M272.904 157.926L266.914 161.388V148.535L272.904 140.519V157.926Z" fill="#3F52D0"/>
<path d="M314.557 140.715L308.554 144.177V134.049L314.557 126.033V140.715Z" fill="#3F52D0"/>
<path d="M353.104 114.273V118.656L352.085 119.245V106.109L349.31 107.718V115.685L344.216 118.705L340.631 123.37V125.862L338.336 127.187V119.404L336.359 116.888L333.192 118.717V121.663L327.68 127.335V118.521L323.653 114.31L320.167 116.323V134.529L317.491 136.075V131.865L317.208 128.845L316.926 132.196V136.407C316.791 136.137 316.619 135.916 316.386 135.732V129.753L316.104 126.733L315.821 130.085V135.388C314.508 134.835 312.372 135.228 309.953 136.615C307.793 137.868 305.853 139.66 304.54 141.501V136.603L304.257 133.583L303.975 136.935V142.361C303.533 143.085 303.201 143.797 302.993 144.472V140.261L302.71 137.242L302.428 140.593V144.804L298.61 147.001V136.849L292.128 140.581V147.492L289.931 148.757V144.558L286.089 146.78V154.133L280.945 157.104C280.945 153.372 278.318 151.862 275.089 153.728C273.444 154.674 271.959 156.331 270.891 158.209L262.69 162.935V151.924L257.596 148.229V155.042L255.104 156.478V160.677L251.851 162.555V167.478L243.233 175.604V180.122L239.832 182.086V180.331L231.521 185.131V186.886L228.563 188.592V182.933L224.168 185.474V196.793L358.002 119.515V111.449L353.153 114.248L353.104 114.273Z" fill="#0E1A68"/>
<path d="M289.992 132.601L288.9 133.227V130.833L287.795 131.472V129.974L283.756 132.307V130.662C284.051 130.355 284.259 129.9 284.259 129.508C284.259 128.992 283.903 128.783 283.449 129.041C283.007 129.299 282.639 129.925 282.639 130.441C282.639 130.833 282.847 131.042 283.142 131.005V132.65L279.533 134.737V136.235L278.428 136.873V139.267L276.906 140.151V143.429L279.533 141.919V143.883L282.455 142.189V158.577L284.861 157.19V140.802L287.782 139.108V137.143L289.98 135.879V132.601H289.992Z" fill="#0E1A68"/>
<path d="M220.461 138.493L223.051 140.016L359.021 61.51L356.431 60L220.461 138.493Z" fill="#293896"/>
<path opacity="0.3" d="M393.133 229.219C391.955 229.895 390.04 229.895 388.861 229.219L373.271 220.172C372.092 219.497 372.092 218.38 373.271 217.704L389.279 208.46C390.457 207.785 392.372 207.785 393.551 208.46L409.129 217.508C410.308 218.183 410.308 219.3 409.129 219.975L393.121 229.219H393.133Z" fill="#293896"/>
<path d="M372.903 217.889L373.898 219.129L388.654 227.648L391.71 226.936L396.645 220.884L389.685 208.142L372.903 217.889Z" fill="#38368E"/>
<path d="M405.803 199.634L396.805 194.441C394.423 193.066 392.103 189.42 391.759 186.486L389.329 165.777C389.267 165.261 388.887 164.709 388.469 164.537C388.371 164.5 388.273 164.475 388.199 164.488C388.089 164.5 388.003 164.549 387.942 164.635L369.871 175.045L372.474 195.779L374.106 200.849L376.709 204.422L386.198 210.265L389.316 212.487L392.115 216.379L392.692 221.387L391.661 228.188L409.462 217.852C410.8 217.385 411.647 215.986 411.647 213.862V209.7C411.647 205.993 409.032 201.463 405.828 199.609L405.803 199.634Z" fill="#EDEFFF"/>
<g opacity="0.6">
<path d="M392.962 190.084L374.143 200.948L376.684 204.434L377.629 205.011L396.399 194.172C395.086 193.275 393.833 191.741 392.962 190.071V190.084Z" fill="#38368E"/>
</g>
<path d="M387.511 210.192L378.512 204.999C376.119 203.624 373.811 199.978 373.467 197.044L371.036 176.334C370.975 175.819 370.594 175.266 370.177 175.094C369.76 174.922 369.477 175.205 369.539 175.72L371.969 196.43C372.424 200.297 375.358 204.925 378.525 206.754L387.523 211.947C389.892 213.322 391.832 216.673 391.832 219.411V223.573C391.832 226.31 389.905 227.427 387.523 226.065L373.467 217.95C373.05 217.705 372.706 217.901 372.706 218.38C372.706 218.859 373.05 219.448 373.467 219.693L387.523 227.82C390.739 229.674 393.354 228.164 393.354 224.457V220.295C393.354 216.588 390.739 212.058 387.523 210.204L387.511 210.192Z" fill="#D2D8FF"/>
<path opacity="0.3" d="M383.461 248.359C382.282 249.034 380.367 249.034 379.189 248.359L351.85 232.522C350.671 231.847 350.671 230.73 351.85 230.055L367.87 220.811C369.049 220.136 370.964 220.136 372.142 220.811L399.481 236.647C400.659 237.322 400.659 238.44 399.481 239.115L383.473 248.359H383.461Z" fill="#BBD2E9"/>
<path d="M351.456 230.263L352.45 231.503L367.206 240.01L370.263 239.298L375.21 233.258L368.25 220.516L351.456 230.263Z" fill="#38368E"/>
<path d="M384.369 211.996L375.37 206.804C372.989 205.429 370.669 201.783 370.325 198.849L367.894 178.139C367.833 177.623 367.452 177.071 367.035 176.899C366.937 176.862 366.838 176.838 366.765 176.85C366.654 176.862 366.568 176.911 366.507 176.997L348.437 187.407L351.039 208.142L352.672 213.212L355.274 216.784L364.764 222.627L367.882 224.849L370.681 228.741L371.258 233.75L370.227 240.551L388.027 230.214C389.365 229.748 390.212 228.348 390.212 226.224V222.063C390.212 218.355 387.597 213.825 384.393 211.972L384.369 211.996Z" fill="#EDEFFF"/>
<g opacity="0.6">
<path d="M371.528 202.458L352.709 213.322L355.25 216.808L356.195 217.385L374.966 206.546C373.652 205.649 372.4 204.115 371.528 202.445V202.458Z" fill="#38368E"/>
</g>
<path d="M366.077 222.554L357.079 217.361C354.685 215.986 352.377 212.34 352.033 209.406L349.603 188.697C349.541 188.181 349.161 187.628 348.743 187.457C348.326 187.285 348.044 187.567 348.105 188.083L350.536 208.792C350.99 212.659 353.924 217.288 357.091 219.117L366.09 224.309C368.459 225.684 370.398 229.036 370.398 231.773V235.935C370.398 238.673 368.471 239.79 366.09 238.427L352.033 230.312C351.616 230.067 351.272 230.263 351.272 230.742C351.272 231.221 351.616 231.81 352.033 232.056L366.09 240.182C369.306 242.036 371.921 240.526 371.921 236.819V232.657C371.921 228.95 369.306 224.42 366.09 222.566L366.077 222.554Z" fill="#D2D8FF"/>
<path d="M389.242 235.088C389.242 235.088 391.55 238.28 393.932 239.962C394.681 240.49 394.177 242.171 393.785 242.319C392.925 242.65 391.366 242.196 390.47 241.582C388.837 240.465 388.629 239.606 387.622 239.041C386.628 238.476 385.412 238.489 384.443 237.212C383.841 236.414 384.909 234.008 384.909 234.008L389.23 235.1L389.242 235.088Z" fill="#293896"/>
<path d="M383.018 238.807C384.602 241.496 387.204 243.939 387.622 244.196C388.039 244.454 387.929 245.866 387.929 245.866C387.929 245.866 385.707 247.486 383.62 245.94C381.877 244.638 379.814 242.871 378.722 241.643C377.629 240.415 378.869 237.825 378.869 237.825C378.869 237.825 382.859 238.157 383.018 238.82V238.807Z" fill="#293896"/>
<path d="M367.354 206.705C367.354 206.705 362.824 210.044 368.262 212.696C373.688 215.335 383.178 219.583 383.178 219.583C382.097 226.74 384.577 228.581 384.933 234.302C385.081 236.61 389.402 236.401 389.242 234.879C389.07 233.357 387.941 229.637 388.776 220.553C389.033 217.803 387.732 216.195 386.112 215.004C381.655 211.738 377.482 205.748 370.914 204.041C369.576 203.82 367.354 206.705 367.354 206.705Z" fill="#0E1A68"/>
<path d="M357.116 207.061C357.116 207.061 356.81 213.236 362.248 215.875C367.686 218.527 377.016 223.143 377.016 223.143C376.599 228.581 378.673 233.332 378.907 238.107C379.017 240.415 383.252 239.961 383.093 238.439C382.933 236.917 382.025 233.05 382.982 223.671C383.265 220.933 380.736 218.748 380.736 218.748L368.705 208.878C368.705 208.878 370.215 206.509 370.767 204.618C364.58 206.214 357.129 207.049 357.129 207.049L357.116 207.061Z" fill="#0E1A68"/>
<path d="M376.451 206.681C376.451 206.681 375.849 207.491 375.837 208.448C375.837 209.418 377.065 209.958 377.065 209.958C377.065 209.958 377.2 210.916 377.396 211.223C377.691 211.665 378.501 212.266 379.016 212.119C379.962 211.849 380.87 210.192 380.674 209.443C380.477 208.694 379.188 207.061 379.188 207.061L378.673 205.048L376.819 205.232L376.426 206.681H376.451Z" fill="white"/>
<path d="M367.711 181.379C371.48 180.36 372.941 185.787 372.941 185.787C372.941 185.787 378.293 193.962 378.514 194.687C378.735 195.411 379.226 198.996 379.214 207.049C379.214 207.049 378.207 205.625 376.464 206.668C376.243 202.605 375.064 200.1 374.561 195.89C374.561 195.89 373.137 194.036 372.499 192.784C371.86 191.532 367.367 182.767 367.367 182.767C367.367 182.767 367.367 181.465 367.723 181.367L367.711 181.379Z" fill="#9896F1"/>
<path d="M367.501 181.626L367.71 183.676L368.262 186.143L367.71 188.009L365.93 189.47L360.7 187.85C360.7 187.85 359.988 185.824 359.988 185.738C359.988 185.652 360.823 182.964 360.823 182.964L360.799 180.521L365.353 179.612L367.501 181.626Z" fill="white"/>
<path d="M367.403 171.117C368.41 172.21 370.215 176.543 370.055 178.802C369.969 179.968 368.852 180.655 368.852 180.655L365.856 175.757C365.856 175.757 365.316 171.289 365.365 171.289C365.365 171.289 367.096 170.97 367.403 171.117Z" fill="#FF8400"/>
<path d="M355.827 188.328C357.877 186.671 360.959 182.841 360.959 182.841C360.959 182.841 360.48 185.787 361.56 186.696C362.628 187.604 366.483 187.985 366.483 187.985C366.483 187.985 367.674 184.805 366.483 183.234C367.195 181.908 367.674 181.785 367.674 181.785C368.017 181.859 368.287 182.055 368.336 182.374C370.006 185.885 373.898 190.072 373.898 192.306C373.898 194.54 371.933 195.436 371.7 195.939C370.755 199.156 371.442 204.054 371.442 204.054C371.442 204.054 366.311 208.658 363.082 209.038C358.663 209.947 356.92 207.909 356.92 206.006C356.92 204.005 356.134 192.22 356.134 192.22C356.134 192.22 355.925 189.323 355.827 188.341V188.328Z" fill="#C5CDFF"/>
<path d="M362.161 197.29C363.303 200.936 366.728 198.69 366.728 198.69C366.728 198.69 363.782 199.316 362.161 197.29Z" fill="white"/>
<path d="M366.912 172.136C367.784 173.155 368.422 173.989 368.238 175.094C368.754 176.604 369.306 180.164 369.257 180.864C369.22 181.416 368.066 182.104 367.453 182.202C363.291 182.84 361.511 179.968 361.511 179.968L359.485 173.695L361.241 170.847C361.241 170.847 366.605 171.755 366.912 172.136Z" fill="white"/>
<path d="M365.365 172.86C365.365 172.86 363.328 172.676 362.738 174.088C362.149 175.5 362.382 177.636 362.579 178.986C362.775 180.336 363.733 182.35 364.199 182.828C362.395 184.301 360.455 183.356 360.455 183.356L360.173 183.86C360.173 183.86 357.816 184.461 357.153 179.686C356.036 171.682 359.534 171.105 359.534 171.105C359.534 171.105 359.866 169.423 362.726 169.423C365.648 169.423 367.416 171.129 367.416 171.129C367.416 171.129 367.489 172.222 366.937 172.148C366.065 172.025 365.378 172.872 365.378 172.872L365.365 172.86Z" fill="#FF8400"/>
<path d="M360.186 171.179C363.083 170.835 364.617 172.222 364.617 172.222C364.617 172.222 362.837 171.596 360.186 171.179Z" fill="#BA6000"/>
<path d="M369.233 210.916C369.233 210.916 372.572 210.646 373.137 210.793C373.714 210.94 376.058 212.598 376.181 212.794C376.291 212.978 376.23 213.58 376.034 213.837C375.85 214.095 374.462 215.016 373.517 215.004C372.989 215.004 371.614 214.5 371.614 214.5C371.614 214.5 369.024 214.5 367.833 213.42C367.686 213.015 367.354 212.07 367.354 212.07L368.091 211.124L369.22 210.916H369.233Z" fill="white"/>
<path d="M357.128 188.009C353.863 188.009 354.6 192.477 354.6 192.477C354.6 192.477 355.348 203.256 356.343 205.883C357.705 209.467 362.272 209.909 367.845 213.42C367.845 213.42 368.005 211.579 369.245 210.916C366.36 209.05 362.874 206.042 360.21 204.361C360.234 199.291 360.087 192.195 360.087 192.195C360.087 192.195 360.406 188.009 357.141 188.009H357.128Z" fill="#9896F1"/>
<path opacity="0.3" d="M362.088 260.696C360.909 261.371 358.994 261.371 357.816 260.696L330.194 244.688C329.016 244.012 329.016 242.895 330.194 242.22L346.202 232.976C347.381 232.301 349.296 232.301 350.475 232.976L378.096 248.984C379.274 249.659 379.274 250.776 378.096 251.452L362.088 260.696Z" fill="#BBD2E9"/>
<path d="M329.813 242.416L330.808 243.656L345.564 252.163L348.62 251.451L353.555 245.412L346.607 232.669L329.813 242.416Z" fill="#38368E"/>
<path d="M362.713 224.162L353.715 218.969C351.321 217.594 349.013 213.948 348.67 211.026L346.239 190.317C346.177 189.801 345.785 189.249 345.38 189.077C345.269 189.04 345.183 189.015 345.109 189.028C344.999 189.04 344.913 189.089 344.852 189.175L326.781 199.585L329.384 220.319L331.017 225.389L333.607 228.974L343.096 234.817L346.214 237.039L349.013 240.931L349.603 245.94L348.571 252.741L366.372 242.404C367.71 241.938 368.557 240.538 368.557 238.414V234.253C368.557 230.545 365.942 226.015 362.738 224.162H362.713Z" fill="#EDEFFF"/>
<g opacity="0.6">
<path d="M349.885 214.611L331.065 225.475L333.607 228.962L334.552 229.539L353.322 218.699C352.008 217.803 350.769 216.268 349.885 214.599V214.611Z" fill="#38368E"/>
</g>
<path d="M344.422 234.719L335.424 229.526C333.03 228.151 330.722 224.505 330.378 221.571L327.947 200.862C327.886 200.346 327.506 199.794 327.088 199.622C326.671 199.45 326.388 199.732 326.45 200.248L328.88 220.958C329.335 224.824 332.281 229.465 335.424 231.282L344.422 236.475C346.791 237.849 348.731 241.201 348.731 243.938V248.1C348.731 250.838 346.804 251.955 344.422 250.592L330.366 242.478C329.948 242.232 329.605 242.428 329.605 242.907C329.605 243.386 329.948 243.975 330.366 244.221L344.422 252.348C347.638 254.201 350.253 252.691 350.253 248.984V244.822C350.253 241.115 347.638 236.585 344.422 234.731V234.719Z" fill="#D2D8FF"/>
<path opacity="0.3" d="M339.499 275.541C338.333 276.216 336.405 276.216 335.227 275.541L307.753 259.521C306.575 258.845 306.575 257.728 307.753 257.053L323.761 247.809C324.94 247.134 326.855 247.134 328.033 247.809L355.507 263.829C356.686 264.505 356.686 265.622 355.507 266.297L339.499 275.541Z" fill="#BBD2E9"/>
<path d="M307.372 257.237L308.366 258.477L323.122 266.997L326.167 266.285L331.114 260.233L324.153 247.49L307.372 257.237Z" fill="#38368E"/>
<path d="M340.272 238.983L331.274 233.79C328.88 232.415 326.572 228.769 326.228 225.848L323.797 205.138C323.736 204.622 323.356 204.07 322.938 203.898C322.84 203.861 322.742 203.837 322.668 203.849C322.558 203.861 322.472 203.91 322.41 203.996L304.34 214.406L306.942 235.141L308.575 240.211L311.178 243.795L320.667 249.639L323.785 251.848L326.584 255.74L327.161 260.749L326.13 267.55L343.93 257.213C345.268 256.747 346.115 255.347 346.115 253.223V249.062C346.115 245.354 343.501 240.825 340.284 238.971L340.272 238.983Z" fill="#EDEFFF"/>
<g opacity="0.6">
<path d="M327.432 229.432L308.612 240.297L311.153 243.783L312.099 244.36L330.881 233.52C329.568 232.624 328.315 231.089 327.444 229.42L327.432 229.432Z" fill="#38368E"/>
</g>
<path d="M321.981 249.54L312.982 244.348C310.588 242.973 308.28 239.327 307.937 236.393L305.506 215.683C305.445 215.167 305.064 214.615 304.647 214.443C304.229 214.271 303.947 214.553 304.008 215.069L306.439 235.779C306.893 239.646 309.827 244.274 312.994 246.103L321.993 251.296C324.362 252.671 326.302 256.022 326.302 258.76V262.921C326.302 265.659 324.362 266.776 321.993 265.413L307.937 257.299C307.519 257.053 307.176 257.25 307.176 257.728C307.176 258.207 307.519 258.797 307.937 259.042L321.993 267.169C325.209 269.023 327.824 267.513 327.824 263.805V259.644C327.824 255.936 325.209 251.406 321.993 249.553L321.981 249.54Z" fill="#D2D8FF"/>
<path d="M341.574 264.184C341.574 264.184 345.029 267.665 346.101 268.048C346.774 268.283 346.797 269.715 346.644 270.06C346.278 270.863 345.429 271.665 344.569 271.628C343.72 271.591 342.423 271.011 341.539 270.122C340.654 269.233 339.133 267.764 339.133 267.764C339.133 267.764 337.093 267.172 336.174 266.258C334.936 265.048 335.514 262.69 335.514 262.69L341.574 264.184Z" fill="#7F89C8"/>
<path d="M318.05 229.409C318.05 229.409 316.694 235.52 323.073 239.902C328.414 243.569 335.441 247.778 336.066 247.964C334.392 256.543 335.772 263.703 335.772 263.703C335.772 263.703 337.823 266.654 341.962 264.296C342.056 259.901 341.844 252.729 342.61 250.099C343.388 247.457 342.445 245.013 341.514 244.1C340.582 243.186 332.836 232.742 325.891 230.026C324.96 229.668 318.039 229.409 318.039 229.409H318.05Z" fill="#0E1A68"/>
<path d="M336.467 268.159C336.467 268.159 338.165 269.888 340.865 272.048C341.242 272.357 341.466 273.319 341.219 273.813C340.971 274.307 339.474 275.455 336.821 274.85C335.63 274.579 334.616 273.603 333.578 272.752C332.281 271.69 331.315 270.949 330.831 270.493C329.959 269.665 330.289 266.789 330.289 266.789L336.455 268.172L336.467 268.159Z" fill="#7F89C8"/>
<path d="M311.106 232.742C311.106 232.742 309.88 239.433 316.259 243.803C321.6 247.457 328.863 251.703 329.5 251.901C328.615 261.456 329.877 267.9 329.877 267.9C329.877 267.9 332.094 270.64 337.057 268.27C335.536 260.999 336.35 255.728 336.668 252.049C336.916 249.296 335.513 248.333 334.581 247.432C333.65 246.519 323.074 236.383 323.074 236.383C323.074 236.383 324.96 234.223 325.774 230.581C325.172 229.816 311.106 232.754 311.106 232.754V232.742Z" fill="#0E1A68"/>
<path d="M332.837 232.174C332.837 232.174 332.106 234.013 332.082 234.976C332.058 235.927 332.247 238.025 332.837 238.038C333.426 238.05 333.19 235.63 333.603 235.556C334.004 235.482 334.122 236.173 334.346 236.939C334.57 237.704 334.57 238.618 334.711 239.26C334.853 239.865 335.313 239.963 335.714 239.902C337.246 239.667 337.423 237.038 337.27 235.791C337.105 234.544 335.265 231.556 335.265 231.556L334.464 230.038L332.577 230.705L332.848 232.174H332.837Z" fill="white"/>
<path d="M324.488 204.657C324.488 204.657 327 205.682 327.955 209.941C328.91 214.2 330.242 217.767 330.961 219.792C332.789 223.236 334.251 229.063 335.253 231.544C333.661 231.063 332.836 232.162 332.836 232.162C332.836 232.162 328.32 226.001 327.141 223.372C326.894 222.323 324.477 218.545 324.477 218.545V204.657H324.488Z" fill="#8292F8"/>
<path d="M315.257 204.46C315.222 205.818 314.903 206.732 314.903 206.732L314.125 209.41L315.705 212.694C315.705 212.694 319.69 213.867 319.737 213.867C319.784 213.867 323.074 212.497 323.074 212.497L323.687 209.731L323.204 205.843L321.199 201.991L317.308 202.152C317.308 202.152 315.563 203.942 315.28 204.46H315.257Z" fill="white"/>
<path d="M309.644 211.497L314.902 206.744C314.902 206.744 314.773 209.583 316.081 210.806C317.39 212.028 319.972 212.596 321.281 211.806C322.79 210.892 322.012 206.744 322.012 206.744H323.757C323.757 206.744 327.377 210.04 327.117 214.386C326.858 218.731 326.504 223.768 326.186 230.002C326.151 230.644 319.465 235.977 316.317 235.977C312.426 235.977 311.577 232.742 311.577 232.742L309.62 211.497H309.644Z" fill="#293896"/>
<path d="M323.722 197.56C325.644 199.09 325.243 201.683 325.243 202.127C325.243 202.572 324.901 202.831 324.901 202.831C325.219 204.127 324.217 208.003 324.146 208.546C324.064 209.09 322.271 210.016 321.706 209.658C321.14 209.3 317.779 207.448 317.532 207.028C317.284 206.608 317.213 205.399 317.213 205.399C317.213 205.399 315.763 204.942 315.339 203.695C314.914 202.448 314.902 201.103 314.902 201.103L315.763 197.732L319.536 195.942C319.536 195.942 323.144 197.214 323.722 197.56Z" fill="white"/>
<path d="M325.397 200.522C323.829 201.707 320.457 199.818 320.375 200.559C320.339 200.929 320.009 201.719 319.573 202.102C318.865 202.719 318.005 202.929 317.686 204.423C317.616 204.213 316.979 201.966 315.788 201.917C314.868 201.868 315.941 204.658 315.941 204.658C315.941 204.658 315.305 204.744 315.057 204.201C314.491 202.917 312.44 197.893 316 195.448C321.377 190.609 326.966 199.349 325.409 200.534L325.397 200.522Z" fill="#944F00"/>
<path d="M323.073 238.186C323.639 238.421 327.388 238.939 327.388 238.939C327.388 238.939 329.511 239.865 329.864 240.42C330.206 240.976 330.23 242.618 329.97 243.013C329.711 243.408 328.166 244.778 327.341 244.704C326.516 244.63 325.301 243.26 325.301 243.26C325.301 243.26 323.167 243.408 320.526 240.84C320.29 240.495 319.913 239.964 319.913 239.964L321.469 237.618C321.469 237.618 322.519 237.951 323.085 238.198L323.073 238.186Z" fill="white"/>
<path d="M310.328 211.472C314.255 211.855 313.936 218.62 313.936 218.62C313.936 218.62 313.795 229.372 313.795 229.953C316.341 231.94 320.551 236.335 323.074 238.187C321.883 238.125 320.61 240.038 320.515 240.828C320.515 240.828 311.507 236.693 309.267 232.533C308.678 231.422 307.852 221.077 307.616 219.04C307.369 217.003 306.862 211.127 310.328 211.46V211.472Z" fill="#8292F8"/>
<path d="M316.483 196.053C318.428 196.893 319.737 199.325 319.737 199.325C319.737 199.325 315.952 195.819 316.483 196.053Z" fill="#7A4100"/>
<path opacity="0.3" d="M316.224 283.247C315.045 283.922 313.13 283.922 311.952 283.247L287.719 269.203C286.54 268.528 286.54 267.411 287.719 266.736L303.727 257.492C304.893 256.817 306.82 256.817 307.999 257.492L332.244 271.536C333.423 272.211 333.423 273.328 332.244 274.003L316.236 283.247H316.224Z" fill="#BBD2E9"/>
<path d="M287.326 266.932L288.321 268.172L303.076 276.679L306.133 275.967L311.068 269.927L304.12 257.185L287.326 266.932Z" fill="#38368E"/>
<path d="M320.238 248.665L311.239 243.472C308.846 242.097 306.538 238.451 306.194 235.529L303.763 214.82C303.702 214.304 303.321 213.752 302.904 213.58C302.806 213.543 302.708 213.518 302.634 213.531C302.523 213.543 302.437 213.592 302.376 213.678L284.306 224.088L286.896 244.822L288.529 249.892L291.131 253.477L300.621 259.32L303.739 261.53L306.538 265.422L307.127 270.43L306.096 277.231L323.896 266.895C325.234 266.428 326.081 265.029 326.081 262.905V258.743C326.081 255.036 323.466 250.506 320.25 248.652L320.238 248.665Z" fill="#EDEFFF"/>
<g opacity="0.6">
<path d="M307.397 239.127L288.578 249.991L291.119 253.477L292.065 254.054L310.835 243.214C309.533 242.318 308.281 240.784 307.397 239.114V239.127Z" fill="#38368E"/>
</g>
<path d="M301.946 259.235L292.948 254.042C290.554 252.667 288.246 249.021 287.903 246.087L285.472 225.377C285.411 224.862 285.03 224.309 284.613 224.137C284.195 223.965 283.913 224.248 283.974 224.763L286.405 245.473C286.859 249.34 289.793 253.98 292.96 255.797L301.959 260.99C304.328 262.365 306.268 265.716 306.268 268.454V272.616C306.268 275.353 304.328 276.47 301.959 275.095L287.903 266.981C287.485 266.735 287.141 266.932 287.141 267.411C287.141 267.889 287.485 268.479 287.903 268.724L301.959 276.851C305.175 278.705 307.79 277.195 307.79 273.487V269.326C307.79 265.618 305.175 261.088 301.959 259.235H301.946Z" fill="#D2D8FF"/>
<path d="M312.456 256.497C313.916 256.718 315.144 255.208 315.979 254.435C316.814 253.674 318.299 251.145 318.827 250.482C319.355 249.819 312.456 250.568 312.456 250.568L311.154 255.233C311.154 255.233 312.247 256.362 312.456 256.497Z" fill="#0F2034"/>
<path d="M319.821 269.755C319.821 269.755 319.501 271.854 320.349 272.357C321.183 272.861 321.92 272.689 322.583 273.008C323.246 273.327 324.94 274.665 326.867 275.07C328.782 275.488 330.562 274.764 331.016 274.481C331.471 274.199 331.434 273.29 330.783 273.057C330.12 272.824 327.162 270.884 327.162 270.884L319.845 269.755H319.821Z" fill="#5B68B7"/>
<path d="M322.533 251.55C322.718 254.017 321.588 263.691 324.952 269.092C325.222 269.522 328.88 271.94 328.328 272.37C326.806 273.561 319.882 270.209 319.82 269.755C319.906 268.859 320.275 268.552 320.275 268.233C320.275 266.048 317.684 257.872 317.365 252.47C317.586 249.598 319.685 249.77 319.685 249.77C319.685 249.77 322.19 251.046 322.546 251.55H322.533Z" fill="white"/>
<path d="M313.375 272.8C313.375 272.8 313.032 274.359 313.916 275.12C314.591 275.697 315.143 275.857 315.475 276.114C315.806 276.372 317.083 278.655 318.188 279.294C319.292 279.932 321.036 280.251 321.674 279.871C322.312 279.49 322.374 278.005 321.6 277.452C320.827 276.888 319.022 274.653 319.022 274.653L313.375 272.8Z" fill="#5B68B7"/>
<path d="M317.463 253.649C317.463 253.649 319.955 255.515 320.226 257.234C320.447 258.634 318.998 261.85 318.998 261.85L317.721 256.915L317.451 253.649H317.463Z" fill="#C7A496"/>
<path d="M315.463 251.169C315.463 251.169 319.649 256.153 319.772 257.221C320.091 259.946 317.059 265.765 317.796 272.713C317.845 273.18 320.791 276.691 319.944 277.219C318.864 277.882 313.45 273.487 313.388 272.898C313.327 272.308 313.757 271.609 313.892 271.007C314.015 270.406 313.45 261.911 313.646 260.585C313.83 259.259 315.193 257.761 315.193 257.761L312.21 255.957V253.133L313.708 251.451L315.488 251.169H315.463Z" fill="white"/>
<path d="M316.605 252.557C316.605 252.557 313.744 253.355 312.566 256.178L312.431 256.092L312.774 251.783L316.359 252.09L316.605 252.544V252.557Z" fill="#C7A496"/>
<path d="M312.197 252.704C312.197 252.704 315.02 252.778 317.66 252.422L320.017 252.987L322.533 251.538C322.533 251.538 322.533 249.021 318.691 247.376C317.549 246.885 314.505 246.529 314.505 246.529L312.185 252.704H312.197Z" fill="white"/>
<path d="M307.582 240.575C307.582 240.575 310.467 243.902 318.692 247.388C317.648 247.388 316.2 247.769 314.923 250.261C313.597 252.851 312.099 256.153 312.443 256.497C306.845 253.612 300.511 252.999 296.533 250.371C294.287 248.886 293.82 246.075 293.82 246.075L297.81 238.942L307.582 240.575Z" fill="#121214"/>
<path d="M296.841 215.323C296.963 216.563 296.779 218.564 296.779 218.564L295.748 221.093L296.853 224.039C296.853 224.039 300.597 225.279 300.585 225.279L303.629 224.334L305.311 221.424L304.084 217.079L299.897 212.807C299.897 212.807 297.246 214.66 296.865 215.336L296.841 215.323Z" fill="white"/>
<path d="M305.114 216.82C305.114 216.82 307.484 217.52 307.766 220.172C308.048 222.823 307.889 223.376 308.367 225.88C308.306 226.678 304.059 223.916 304.059 223.916L303.801 217.581L305.114 216.833V216.82Z" fill="#293896"/>
<path d="M308.134 224.42C308.134 224.42 308.244 223.254 305.937 221.13C305.961 222.812 305.937 223.683 305.937 223.683L308.134 224.42Z" fill="#121A4A"/>
<path d="M306.624 232.669C306.882 234.866 308.65 237.174 308.404 239.372C308.748 239.838 311.08 241.066 311.068 239.568C310.933 237.518 311.227 234.007 310.798 232.485C310.442 231.233 309.558 229.305 309.276 228.47C308.993 227.636 308.343 228.188 308.343 228.188C308.343 228.188 306.513 231.392 306.624 232.657V232.669Z" fill="white"/>
<path d="M291.819 223.486C293.869 221.841 296.766 218.551 296.766 218.551C296.766 218.551 296.287 221.498 297.355 222.406C298.423 223.314 302.278 223.695 302.278 223.695C302.278 223.695 303.469 220.516 302.278 218.944C301.087 217.373 303.985 216.992 304.132 218.085C305.789 221.596 309.693 225.782 309.693 228.016C309.693 230.25 307.729 231.147 307.495 231.65C306.55 234.866 307.79 240.612 307.79 240.612C307.79 240.612 307.287 242.306 305.286 241.643C305.286 241.643 303.174 242.613 302.131 244.663C296.521 247.179 292.666 245.853 292.666 245.853C292.666 245.853 292.776 243.877 293.292 241.937C293.808 239.998 293.292 226.74 293.292 226.74C293.292 226.74 291.893 224.481 291.807 223.499L291.819 223.486Z" fill="#293896"/>
<path d="M295.293 235.603C295.293 235.603 296.447 235.333 296.717 234.608C296.569 233.295 296.213 230.999 295.98 228.016C295.378 227.758 295.28 235.615 295.28 235.615L295.293 235.603Z" fill="#121A4A"/>
<path d="M298.043 232.632C299.062 235.922 302.29 234.412 302.29 234.412C302.29 234.412 299.663 234.67 298.043 232.632Z" fill="#121A4A"/>
<path d="M305.299 241.643C305.041 240.17 304.881 238.672 304.808 237.162C304.759 236.413 304.746 235.665 304.759 234.903C304.759 234.155 304.783 233.406 304.832 232.645V232.583L304.894 232.534C305.164 232.264 305.372 231.945 305.446 231.577C305.52 231.208 305.483 230.803 305.397 230.423C305.213 229.649 304.844 228.9 304.476 228.164C304.108 227.427 303.703 226.703 303.322 225.966C302.954 225.218 302.586 224.481 302.291 223.695C303.028 225.181 303.924 226.568 304.734 228.016C305.139 228.741 305.507 229.502 305.728 230.337C305.827 230.754 305.876 231.196 305.802 231.638C305.716 232.08 305.471 232.497 305.139 232.804L305.2 232.681C305.078 234.155 305.078 235.665 305.09 237.15C305.115 238.648 305.188 240.145 305.299 241.631V241.643Z" fill="#293896"/>
<path d="M305.041 209.148C305.753 210.29 306.084 212.119 305.851 212.782C306.133 214.353 305.409 218.11 305.249 218.797C305.127 219.337 304.095 219.767 303.469 219.767C299.259 219.779 298.547 216.268 298.547 216.268C298.547 216.268 297.503 216.035 297.098 215.274C296.521 215.041 295.735 214.722 295.735 214.722L295.22 213.15L295.367 209.848C295.367 209.848 297.908 207.38 297.982 207.38C298.056 207.38 302.217 206.853 302.217 206.853C302.217 206.853 304.795 208.706 305.041 209.136V209.148Z" fill="white"/>
<path d="M296.177 205.834C296.177 207.086 295.158 208.092 293.906 208.092C292.654 208.092 291.635 207.073 291.635 205.834C291.635 204.594 292.654 203.562 293.906 203.562C295.158 203.562 296.177 204.581 296.177 205.834Z" fill="#303033"/>
<path d="M297.368 207.22C297.368 208.153 296.644 208.902 295.735 208.902C294.827 208.902 294.103 208.141 294.103 207.22C294.103 206.3 294.827 205.526 295.735 205.526C296.644 205.526 297.368 206.287 297.368 207.22Z" fill="#5B68B7"/>
<path d="M297.098 215.286C297.098 215.286 296.03 213.764 296.668 213.31C297.073 213.027 299.074 215.114 299.074 215.114C299.074 215.114 299.111 214.206 300.032 213.531C300.645 213.077 300.216 212.144 300.523 211.567C300.829 211.002 305.372 210.928 305.016 208.768C304.868 207.896 300.056 203.096 295.944 206.632C292.74 209.394 294.176 213.347 294.642 214.071C295.661 215.667 297.11 215.286 297.11 215.286H297.098Z" fill="#303033"/>
<path d="M306.341 244.147C306.341 244.147 307.716 243.656 308.833 243.509C309.95 243.361 312.234 244.147 312.234 244.147C312.234 244.147 313.4 245.006 313.142 245.866C312.884 246.725 311.288 247.437 310.171 247.388C309.054 247.339 307.483 247.167 306.845 247.216C306.206 247.265 305.408 246.725 305.408 246.725L306.341 244.147Z" fill="white"/>
<path d="M295.994 234.523C295.994 234.523 296.018 238.967 295.969 239.372C299.799 240.968 301.837 242.6 306.146 244.024C307.263 244.393 306.195 246.934 305.422 246.713C304.648 246.492 295.871 244.122 294.95 243.828C294.029 243.533 292.348 242.441 292.2 241.287C292.053 240.133 291.488 236.008 291.525 235.271C291.562 234.535 291.893 233.982 291.893 233.982L296.006 234.498L295.994 234.523Z" fill="white"/>
<path d="M293.304 223.266C289.806 222.971 290.395 227.255 290.395 227.255C290.395 227.255 290.923 233.725 291.107 235.149C291.303 236.573 296.336 236.29 296.238 234.339C296.152 232.387 295.956 228.2 295.956 228.2C295.956 228.2 296.717 223.548 293.304 223.253V223.266Z" fill="#293896"/>
<path d="M307.986 243.669C307.986 243.669 308.121 244.859 308.269 245.436C308.404 246.013 309.705 247.094 310.454 247.094C312.258 247.094 312.455 244.319 312.455 244.319L307.986 243.656V243.669Z" fill="#C7A496"/>
<path d="M308.343 239.568C308.061 240.771 307.202 242.072 307.263 242.674C307.324 243.275 308.073 243.73 308.073 243.73C308.073 243.73 308.208 245.019 308.527 245.497C308.847 245.976 310.074 246.897 310.43 246.897C311.916 246.897 312.677 244.049 312.591 243.239C312.493 242.428 311.424 240.526 311.068 239.58C310.651 238.463 308.626 238.377 308.343 239.58V239.568Z" fill="white"/>
<path d="M366.69 244.512C366.69 244.512 367.196 245.75 367.808 246.065C368.421 246.379 374.467 250.084 373.472 251.147C372.477 252.212 371.367 252.605 369.033 251.581C369.033 251.581 367.923 250.477 367.388 249.887C366.852 249.296 364.212 248.744 364.058 248.154C363.905 247.563 364.115 244.469 364.115 244.469L366.69 244.512Z" fill="#0E1A68"/>
<path d="M368.371 246.392C368.371 246.392 367.635 246.509 366.857 247.539V248.025L366.189 247.425C366.189 247.425 364.55 247.679 364.035 245.963L364.116 244.469L366.955 245.055C366.955 245.055 367.311 245.818 368.371 246.392Z" fill="white"/>
<path d="M364.006 247.567C364.006 247.567 363.839 248.957 364.673 249.314C365.507 249.672 367.445 250.988 368.497 251.39C369.548 251.792 370.11 251.863 370.11 251.863L366.801 248.684L364.006 247.567Z" fill="#0E1A68"/>
<path d="M361.268 250.118C361.268 250.118 361.773 251.355 362.385 251.67C362.998 251.985 369.045 255.69 368.049 256.753C367.054 257.817 365.944 258.211 363.61 257.186C363.61 257.186 362.5 256.083 361.965 255.492C361.429 254.9 358.789 254.349 358.635 253.758C358.482 253.167 358.693 250.074 358.693 250.074L361.268 250.118Z" fill="#0E1A68"/>
<path d="M362.947 251.997C362.947 251.997 362.212 252.113 361.433 253.144V253.631L360.766 253.03C360.766 253.03 359.126 253.284 358.611 251.567L358.693 250.074L361.532 250.66C361.532 250.66 361.889 251.423 362.947 251.997Z" fill="white"/>
<path d="M352.604 217.297C352.604 217.297 364.667 221.321 366.307 222.737C367.948 224.153 368.647 234.809 367.104 245.019C367.104 245.019 364.83 245.465 363.533 245.019C363.533 245.019 361.868 233.915 361.434 230.19L348.531 221.684L352.604 217.297Z" fill="#BDDAFC"/>
<path d="M350.866 222.616C350.866 222.616 352.344 221.032 352.64 220.045C352.937 219.056 352.77 221.204 352.269 221.762C352.269 221.762 352.701 221.76 353.09 221.202C353.479 220.645 352.886 222.311 352.64 222.616C352.395 222.922 360.404 225.928 361.865 228.076C363.324 230.223 362.627 238.873 362.627 238.873L361.516 231.869L350.866 222.616Z" fill="#A4BEDC"/>
<path d="M349.689 193.953C349.689 193.953 350.893 196.737 351.116 199.715C351.338 202.692 351.266 203.763 351.266 203.763L350.867 203.659L349.689 193.953Z" fill="#5B68B7"/>
<path d="M346.077 189.611C346.077 189.611 349.515 191.043 349.998 195.488C350.48 199.933 352.217 216.874 352.603 217.296C352.989 217.717 350.468 225.269 339.955 226.56C339.955 226.56 335.619 226.462 335.909 223.878C336.198 221.295 336.97 214.539 334.654 203.659L338.466 192.556L346.077 189.611Z" fill="#293896"/>
<path d="M339.401 187.98C339.401 187.98 338.77 192.318 338.632 192.406C338.495 192.494 339.353 196.021 342.12 195.962C344.887 195.904 344.498 195.605 344.526 194.172C344.555 192.739 345.041 191.202 345.041 191.202L339.401 187.98Z" fill="white"/>
<path d="M358.557 204.777L366.306 200.059L362.168 212.609L354.484 217.297L358.557 204.777Z" fill="#EADFDA"/>
<path d="M359.354 205.224L367.102 200.505L362.964 213.056L355.281 217.743L359.354 205.224Z" fill="#0E1A68"/>
<path d="M365.258 206.103C365.258 206.103 365.463 207.125 365.258 207.46C365.053 207.796 364.574 209.581 364.293 209.733C364.01 209.885 362.881 209.808 362.845 209.547C362.808 209.286 363.098 207.983 363.461 207.349C363.822 206.716 364.831 207.398 365.258 206.103Z" fill="white"/>
<path d="M358.294 205.588L350.866 203.66L351.481 208.28H357.419L358.294 205.588Z" fill="#293896"/>
<path d="M336.602 225.546C336.602 225.546 339.033 229.742 343.647 230.536C348.26 231.331 354.58 232.92 354.58 232.92C354.58 232.92 354.679 241.167 355.282 242.757C355.885 244.346 357.428 250.606 357.428 250.606C357.428 250.606 361.723 250.755 362.084 250.01C362.447 249.264 362.181 229.591 361.192 228.847C360.202 228.101 349.927 222.063 349.927 222.063L336.602 225.546Z" fill="#BDDAFC"/>
<path d="M344.826 192.013L344.549 193.73C344.549 193.73 342.803 193.988 341.714 192.975C340.626 191.96 339.982 190.503 339.113 189.878L339.382 188.106L344.826 192.013Z" fill="white"/>
<path d="M339.439 188.86C339.439 188.86 337.231 184.993 337.793 183.06C338.354 181.128 340.018 186.321 339.439 188.86Z" fill="#8E4600"/>
<path d="M346.334 181.081C346.334 181.081 347.055 182.576 346.916 183.662C346.776 184.746 347.313 187.015 347.151 187.944C346.991 188.873 347.203 191.033 345.807 191.734C344.412 192.436 342.735 191.925 339.962 189.548C339.962 189.548 339.197 189.155 339.4 187.981C339.4 187.981 338.617 186.916 338.886 185.792C339.154 184.669 339.88 185.786 339.88 185.786C339.88 185.786 338.589 181.953 339.723 180.95C340.856 179.948 345.068 179.12 346.334 181.081Z" fill="white"/>
<path d="M339.881 185.785C339.881 185.785 339.463 182.553 339.993 181.779C340.523 181.004 340.552 182.464 344.332 182.17C348.113 181.877 347.881 180.607 347.881 180.607C347.881 180.607 346.179 180.648 345.883 179.43C345.585 178.212 341.184 176.878 339.316 179.501C339.316 179.501 337.141 180.962 337.794 183.06C338.446 185.159 339.881 185.785 339.881 185.785Z" fill="#8E4600"/>
<path d="M351.379 208.28H353.09C353.09 208.28 351.838 207.017 351.783 205.586C351.728 204.154 351.266 203.764 351.266 203.764L350.866 203.66L351.379 208.28Z" fill="#5B68B7"/>
<path d="M349.689 220.435C349.689 220.435 346.721 219.759 345.775 218.327C344.83 216.894 340.825 215.634 340.324 211.111C339.823 206.587 337.319 201.027 337.319 201.027L336.222 215.65C336.222 215.65 336.359 219.96 336.075 222.251C335.791 224.54 335.66 224.663 336.601 225.546C336.601 225.546 345.136 223.51 346.582 222.937C348.028 222.363 349.689 220.435 349.689 220.435Z" fill="#5B68B7"/>
<path d="M350.866 222.616L349.928 222.063C349.928 222.063 351.265 220.551 351.603 219.979C351.939 219.408 352.041 221.221 351.603 221.751C351.163 222.281 351.247 222.362 351.247 222.362C351.247 222.362 351.304 222.875 350.866 222.616Z" fill="#A4BEDC"/>
<path d="M354.58 232.92C354.58 232.92 354.733 240.805 355.119 242.11C355.505 243.414 356.756 247.944 356.756 247.944C356.756 247.944 355.27 241.476 355.668 239.114C356.067 236.752 356.067 236.752 356.067 236.752C356.067 236.752 355.764 233.212 354.58 232.92Z" fill="#A4BEDC"/>
<path d="M347.473 221.065C347.473 221.065 349.814 221.952 351.457 224.08C353.101 226.209 350.888 224.082 350.092 223.551C350.092 223.551 352.165 225.511 352.456 226.158C352.746 226.806 351.609 226.013 351.609 226.013C351.609 226.013 352.383 226.706 352.214 226.856C352.045 227.005 350.786 226.182 350.786 226.182C350.786 226.182 351.747 227.003 351.509 227.191C351.271 227.378 350.206 226.556 350.206 226.556C350.206 226.556 350.835 227.18 350.617 227.353C350.4 227.528 348.948 226.731 348.585 226.208C348.222 225.684 346.513 223.678 346.158 223.386C345.803 223.094 347.473 221.065 347.473 221.065Z" fill="white"/>
<path d="M338.465 192.557L333.978 196.556C333.978 196.556 331.663 198.941 331.855 200.928C332.048 202.915 334.679 215.633 337.32 216.725L346.222 223.879C346.222 223.879 346.234 221.745 348.067 220.875C348.067 220.875 339.575 214.44 339.286 213.347C338.996 212.254 337.32 201.027 337.32 201.027L338.465 192.557Z" fill="#293896"/>
<path d="M356.649 248.97C356.649 248.97 357.254 249.937 357.066 250.474C356.878 251.011 357.379 251.29 357.922 251.14C358.464 250.99 359.861 250.463 360.759 250.618C361.656 250.775 362.719 250.567 362.594 249.877C362.469 249.185 362.991 249.079 362.604 248.563C362.217 248.046 361.926 248.498 360.967 248.67C360.007 248.842 356.197 247.722 356.649 248.97Z" fill="#BDDAFC"/>
<path d="M362.838 243.925C362.838 243.925 363.461 245.149 363.198 245.493C362.934 245.837 364.095 245.901 365.47 245.643C366.845 245.386 367.863 245.814 367.959 245.471C368.053 245.128 367.864 245.042 367.959 244.463C368.053 243.883 368.219 243.174 366.987 243.689C365.754 244.204 362.365 242.937 362.838 243.925Z" fill="#BDDAFC"/>
<path d="M358.582 253.174C358.582 253.174 358.415 254.562 359.249 254.92C360.083 255.278 362.022 256.594 363.073 256.996C364.125 257.398 364.686 257.468 364.686 257.468L361.377 254.29L358.582 253.174Z" fill="#0E1A68"/>
<path d="M359.353 205.223L358.557 204.776L354.484 217.296L355.281 217.743L359.353 205.223Z" fill="#9694FF"/>
<path d="M358.558 204.777L359.354 205.224L367.102 200.505L366.307 200.059L358.558 204.777Z" fill="#FCF0EB"/>
<path d="M366.307 200.059L367.103 200.506L359.354 205.225L358.558 204.777L360.904 203.337C360.904 203.337 361.308 203.639 361.613 203.481C361.92 203.324 364.937 201.376 364.937 201.376C364.937 201.376 365.401 201.16 365.002 200.853L366.307 200.059Z" fill="#9694FF"/>
<path d="M466.876 189.287V186.782H436.935V189.287C436.935 191.496 438.395 193.706 441.317 195.4C447.161 198.776 456.638 198.776 462.493 195.4C465.415 193.706 466.876 191.496 466.876 189.287Z" fill="#222344"/>
<path d="M462.493 180.669C468.337 184.045 468.337 189.52 462.493 192.896C456.65 196.272 447.173 196.272 441.317 192.896C435.474 189.52 435.474 184.045 441.317 180.669C447.161 177.293 456.638 177.293 462.493 180.669Z" fill="#424582"/>
<path d="M455.325 186.389V135.627H448.499V186.389C448.499 186.892 448.83 187.395 449.493 187.788C450.831 188.561 452.992 188.561 454.318 187.788C454.981 187.408 455.312 186.904 455.312 186.389H455.325Z" fill="#222344"/>
<path d="M442.053 105.882L465.034 119.153L466.912 114.107L450.781 104.802L442.053 105.882Z" fill="#686A9A"/>
<path d="M465.034 141.913L466.912 136.867V114.107L465.034 119.153V141.913Z" fill="#222344"/>
<path d="M421.012 133.368C443.428 141.188 461.67 151.721 475.223 164.66L477.138 163.985C476.512 163.383 475.874 162.794 475.223 162.192C461.695 149.892 443.858 139.825 422.178 132.251L421.012 133.356V133.368Z" fill="#456185"/>
<path d="M421.012 97.1172V133.356C443.428 141.176 461.67 151.709 475.223 164.648V128.409C461.646 113.653 443.133 103.648 421.012 97.1172Z" fill="#424582"/>
<path d="M473.222 129.195C461.069 117.385 444.619 107.982 423.001 99.8057V131.957C443.281 139.187 460.148 148.652 473.222 160.13V129.195Z" fill="white"/>
<path d="M471.872 157.184C459.215 146.626 443.244 137.824 424.363 130.999V101.77C445.012 109.761 460.578 118.932 471.872 129.771V157.184Z" fill="#293896"/>
<path d="M421.012 97.1171C443.428 104.949 461.658 115.47 475.211 128.409L477.126 127.734C463.377 114.611 444.889 103.943 422.166 96L421 97.1049L421.012 97.1171Z" fill="#686A9A"/>
<path d="M475.224 164.648L477.139 163.985V127.746L475.224 128.421V164.648Z" fill="#222344"/>
<path d="M430.268 108.656V115.371C433.312 116.611 436.221 117.876 439.008 119.177V112.327C436.246 111.075 433.337 109.847 430.268 108.669V108.656Z" fill="#314CF5"/>
<path d="M450.978 118.514V125.425C454.869 127.708 458.441 130.09 461.707 132.57V125.941C458.515 123.338 454.943 120.858 450.978 118.514Z" fill="#4861FF"/>
<path d="M465.967 129.698C464.629 128.409 463.205 127.169 461.695 125.941V132.571C463.181 133.7 464.605 134.842 465.967 136.008V129.698Z" fill="white"/>
<path d="M438.996 112.314V119.165C443.293 121.166 447.27 123.252 450.978 125.425V118.514C447.319 116.353 443.342 114.291 438.996 112.314Z" fill="#686A9A"/>
<path d="M430.268 122.921V130.619C432.539 131.441 434.748 132.3 436.909 133.197V125.757C434.761 124.787 432.563 123.842 430.268 122.909V122.921Z" fill="#0098F6"/>
<path d="M436.909 125.757V133.196C438.652 133.92 440.359 134.669 442.016 135.443V128.163C440.359 127.353 438.665 126.543 436.909 125.757Z" fill="#0E1A68"/>
<path d="M442.016 128.175V135.455C445.944 137.271 449.651 139.236 453.162 141.323V134.313C449.713 132.189 446.005 130.151 442.016 128.187V128.175Z" fill="#0098F6"/>
<path d="M453.163 134.301V141.31C456.048 143.029 458.786 144.821 461.376 146.712V139.862C458.822 137.947 456.085 136.093 453.163 134.301Z" fill="white"/>
<path d="M465.967 143.569C464.506 142.305 462.971 141.077 461.363 139.874V146.724C462.959 147.89 464.494 149.081 465.967 150.309V143.569Z" fill="#0098F6"/>
<path d="M430.268 115.371V122.921C434.331 124.566 438.161 126.285 441.77 128.052V120.503C438.161 118.735 434.343 117.028 430.268 115.371Z" fill="white"/>
<path d="M441.758 120.49V128.04C444.483 129.378 447.073 130.753 449.553 132.165V124.615C447.073 123.203 444.495 121.828 441.758 120.49Z" fill="#91A8F0"/>
<path d="M449.554 124.615V132.165C454.55 135.001 459.031 137.996 463.045 141.163V133.614C459.031 130.446 454.55 127.463 449.554 124.615Z" fill="#0E1A68"/>
<path d="M465.968 136.019C465.022 135.209 464.04 134.411 463.046 133.613V141.163C464.053 141.949 465.035 142.759 465.968 143.569V136.019Z" fill="#91A8F0"/>
<path d="M433.19 119.19C433.19 119.84 432.662 120.061 432.012 119.681C431.361 119.3 430.833 118.478 430.833 117.827C430.833 117.176 431.361 116.955 432.012 117.336C432.662 117.716 433.19 118.539 433.19 119.19Z" fill="#686A9A"/>
<path d="M444.987 124.333C444.987 124.984 444.459 125.205 443.808 124.824C443.158 124.444 442.63 123.621 442.63 122.97C442.63 122.32 443.158 122.099 443.808 122.479C444.459 122.86 444.987 123.682 444.987 124.333Z" fill="white"/>
<path d="M452.647 128.421C452.647 129.072 452.119 129.293 451.469 128.912C450.818 128.531 450.29 127.709 450.29 127.058C450.29 126.408 450.818 126.187 451.469 126.567C452.119 126.948 452.647 127.77 452.647 128.421Z" fill="white"/>
<path d="M464.224 143.95C464.224 144.601 463.696 144.822 463.046 144.441C462.395 144.061 461.867 143.238 461.867 142.588C461.867 141.937 462.395 141.716 463.046 142.097C463.696 142.477 464.224 143.3 464.224 143.95Z" fill="white"/>
<path d="M444.987 131.661C444.987 132.312 444.459 132.533 443.808 132.152C443.158 131.772 442.63 130.949 442.63 130.299C442.63 129.648 443.158 129.427 443.808 129.808C444.459 130.188 444.987 131.011 444.987 131.661Z" fill="white"/>
<path d="M433.19 126.444C433.19 127.095 432.662 127.316 432.012 126.935C431.361 126.555 430.833 125.732 430.833 125.082C430.833 124.431 431.361 124.21 432.012 124.591C432.662 124.971 433.19 125.794 433.19 126.444Z" fill="#686A9A"/>
<path d="M456.305 138.045C456.305 138.696 455.777 138.917 455.127 138.536C454.476 138.168 453.948 137.333 453.948 136.682C453.948 136.032 454.476 135.811 455.127 136.191C455.777 136.56 456.305 137.394 456.305 138.045Z" fill="#293896"/>
<path d="M453.813 121.902C453.813 122.553 453.285 122.774 452.635 122.393C451.984 122.025 451.456 121.19 451.456 120.54C451.456 119.889 451.984 119.668 452.635 120.049C453.285 120.417 453.813 121.252 453.813 121.902Z" fill="white"/>
<path d="M433.19 112.044C433.19 112.695 432.662 112.916 432.012 112.535C431.361 112.154 430.833 111.332 430.833 110.681C430.833 110.031 431.361 109.81 432.012 110.19C432.662 110.571 433.19 111.393 433.19 112.044Z" fill="white"/>
<path d="M442.053 116.047C442.053 116.698 441.525 116.919 440.875 116.538C440.224 116.17 439.696 115.335 439.696 114.684C439.696 114.034 440.224 113.813 440.875 114.193C441.525 114.562 442.053 115.396 442.053 116.047Z" fill="white"/>
<g opacity="0.27" style="mix-blend-mode:multiply">
<path d="M452.302 311.938C449.376 312.223 447.542 313.178 446.786 314.27C432.513 312.957 425.081 318.748 429.34 326.619C432.02 331.561 439.888 331.48 443.3 328.87C447.517 325.648 451.554 323.006 456.117 326.504C459.529 329.123 465.432 328.372 468.104 323.43C472.404 315.494 466.788 310.511 452.294 311.946L452.302 311.938Z" fill="#BBD2E9"/>
</g>
<path d="M452.656 316.497C452.656 316.497 455.254 314.385 455.681 313.887C457.276 311.995 456.997 310.07 456.997 310.07C456.997 310.07 456.668 293.269 456.2 287.185C455.936 283.718 456.652 281.271 456.652 281.271L464.339 283.155C464.256 283.906 465.054 284.045 464.881 284.436C464.634 284.982 464.709 286.671 464.593 288.106L461.058 309.556L460.557 313.21C460.524 313.757 460.359 316.114 459.628 316.261C458.995 316.383 458.427 316.505 458.427 316.505C458.427 316.505 453.158 318.455 452.631 318.194C451.448 317.606 452.533 316.62 452.664 316.497H452.656Z" fill="white"/>
<path d="M458.723 318.047L457.786 316.807L458.781 315.991L459.463 316.097L458.723 318.047Z" fill="#5B5454"/>
<path d="M460.417 315.747L459.916 317.615C459.916 317.615 459.866 317.974 459.472 318.047C459.34 318.071 458.066 318.324 458.066 318.324L454.679 319.034L458.017 316.603L460.417 315.747Z" fill="#0C1342"/>
<path d="M451.357 318.642C451.061 318.373 451.381 317.378 451.562 317.28C452.286 316.889 452.664 316.701 452.664 316.701C452.31 317.035 453.059 317.076 453.683 317.199C454.44 317.345 455.286 317.345 456.24 317.003C456.914 316.758 458.123 316.114 458.616 315.861C460.26 315.013 460.573 314.083 460.573 314.083C460.573 314.083 460.606 314.483 460.507 315.103C460.359 316.008 459.948 316.106 459.948 316.106C459.948 316.106 460.047 316.179 459.159 316.407C458.945 316.465 458.682 316.579 458.394 316.726C457.358 317.256 455.763 318.724 454.736 319.042C453.642 319.376 452.08 319.311 451.357 318.659V318.642Z" fill="#0C1342"/>
<path d="M451.637 317.859C451.217 317.46 451.579 317.215 451.908 316.978C451.957 316.946 452.993 316.22 452.993 316.22C452.639 316.554 452.952 316.921 453.61 317.035C454.374 317.166 455.336 316.995 456.224 316.505C457.046 316.048 458.263 315.159 458.592 314.947C460.129 313.912 460.581 313.112 460.581 313.112C460.581 313.112 460.976 314.05 460.754 314.858C460.507 315.739 460.4 315.828 460.4 315.828C460.4 315.828 459.521 316.203 458.814 316.481C457.877 316.856 456.545 317.769 454.974 318.21C453.371 318.658 452.146 318.34 451.645 317.859H451.637Z" fill="#0E1A68"/>
<path d="M460.187 320.42C460.187 320.42 462.119 317.614 462.514 317.1C464.051 315.11 464.01 314.221 464.108 313.169C464.15 312.737 464.043 311.872 464.043 311.872L461.1 285.088C461.1 285.088 461.124 284.655 461.067 283.775C461.042 283.448 459.825 282.902 459.825 282.657L469.51 284.468L469.551 284.664C469.987 287.029 470.25 289.622 470.053 291.099C469.937 291.963 467.973 311.366 467.71 313.56L468.055 315.917C468.047 316.464 467.923 316.668 467.537 317.296C467.101 318.005 464.207 320.232 464.207 320.232C464.207 320.232 462.366 321.798 460.59 321.056C459.669 320.672 460.392 321.023 460.869 320.542C460.902 320.509 460.146 320.436 460.179 320.411L460.187 320.42Z" fill="white"/>
<path d="M466.641 320.011L465.317 319.408L466.246 318.372L466.995 318.388L466.641 320.011Z" fill="#5B5454"/>
<path d="M468.154 317.703L467.793 319.742C467.793 319.742 467.768 320.093 467.48 320.232C467.349 320.297 463.419 322.45 463.419 322.45L466.074 318.967L468.162 317.703H468.154Z" fill="#0C1342"/>
<path d="M460.015 322.638C459.398 322.254 459.686 320.9 459.727 320.819C460.097 320.109 460.434 320.15 460.434 320.15C460.105 320.558 461.248 321.023 461.938 321.063C462.777 321.096 463.657 320.533 464.61 320.019C465.293 319.652 465.992 318.821 466.427 318.405C467.759 317.157 467.85 316.056 467.85 316.056C467.85 316.056 467.948 316.472 467.94 317.149C467.924 318.135 467.504 318.307 467.504 318.307C467.504 318.307 467.447 318.649 466.534 319.033C465.506 319.457 464.766 321.806 463.435 322.442C462.325 322.972 460.902 323.192 460.015 322.638Z" fill="#0C1342"/>
<path d="M459.842 321.643C459.587 321.463 459.34 320.941 460.442 319.881C460.491 319.84 460.878 319.4 460.878 319.4C460.549 319.808 460.425 320.346 461.527 320.55C462.423 320.713 463.377 320.485 464.347 319.767C464.964 319.302 466.057 318.282 466.756 317.491C468.079 315.999 467.923 315.028 467.923 315.028C467.923 315.028 468.507 315.575 468.301 316.814C468.145 317.793 468.121 317.867 468.121 317.867L466.279 319.416C465.128 320.322 464.725 320.844 463.451 321.512C461.856 322.344 460.45 322.1 459.833 321.651L459.842 321.643Z" fill="#0E1A68"/>
<path d="M456.11 312.134C456.11 312.134 456.142 312.468 458.346 312.745C460.549 313.023 461.445 312.729 461.445 312.729L465.498 288.587C465.712 287.046 466.395 284.387 466.279 283.229L455.551 281.875C455.542 282.25 455.551 282.381 455.551 282.381L456.11 312.134Z" fill="#293896"/>
<path d="M460.006 282.926L462.908 314.188C462.908 314.188 462.916 314.408 462.924 314.661C462.924 314.661 463.59 315.518 465.366 315.452C467.142 315.387 468.194 314.466 468.194 314.466C468.868 307.117 470.652 287.836 470.735 287.053C470.924 285.463 470.34 285.341 471.22 282.306L470.743 278.139L459.85 278.791V280.382C459.85 280.382 459.85 281.108 459.891 281.703C459.973 282.649 460.006 282.918 460.006 282.918V282.926Z" fill="#293896"/>
<path d="M462.053 246.584C461.807 246.861 461.379 246.942 461.017 246.942C460.434 246.942 460.236 246.959 460.014 246.404C459.834 246.388 459.677 246.559 459.505 246.6C459.324 246.641 459.168 246.649 458.987 246.559C458.617 246.363 458.6 246.013 458.477 245.686C457.68 246.184 456.685 245.613 456.257 244.92C456.076 244.618 455.887 244.178 456.003 243.81C456.068 243.607 456.323 243.256 456.562 243.231C456.562 242.995 456.29 242.816 456.274 242.546C456.257 242.277 456.52 242.057 456.783 242.008C456.142 241.747 455.748 240.989 456.356 240.491C456.644 240.263 456.833 240.303 456.455 240.042C456.216 239.879 456.142 239.684 456.175 239.398C456.208 239.129 456.446 238.623 456.751 238.558C456.389 238.273 456.052 238.232 455.912 237.726C455.797 237.302 455.748 236.845 455.789 236.405C455.822 235.997 455.97 235.565 456.159 235.198C456.331 234.872 456.635 234.717 456.964 234.578C457.285 234.447 457.77 234.211 458.132 234.284C458.65 234.399 459.011 235.23 459.258 235.63C459.76 236.462 460.162 237.335 460.508 238.248L462.037 246.559L462.053 246.584Z" fill="#FFC545"/>
<path d="M447.419 267.773C447.419 267.773 446.786 266.941 445.413 267.267C444.04 267.593 442.667 268.262 442.667 268.262C442.667 268.262 442.38 269.005 442.832 268.939C443.284 268.874 445.364 268.654 445.364 268.654L447.419 267.765V267.773Z" fill="#F7D2B7"/>
<path d="M447.945 268.817L447.402 266.68C447.402 266.68 445.018 267.593 444.583 268.14C443.333 269.722 443.21 270.016 441.598 271.19C441.598 271.19 440.529 271.671 441.45 272.413C441.87 272.748 442.429 272.919 442.429 272.919C443.407 273.213 444.862 272.593 444.862 272.593L447.37 270.635C449.014 269.2 448.496 269.502 447.953 268.817H447.945Z" fill="white"/>
<path d="M447.041 266.223C445.873 266.745 446.137 268.115 446.712 268.98C447.197 269.698 447.921 269.983 447.921 269.983C450.403 269.64 457.161 267.577 459.069 265.783C460.064 264.853 462.629 256.575 462.629 256.575C462.949 254.527 462.76 251.95 460.54 250.898C457.869 249.634 456.57 251.673 456.389 252.953C456.052 255.278 454.539 262.659 454.539 262.659C454.539 262.659 449.811 265.008 447.041 266.231V266.223Z" fill="#9694FF"/>
<path d="M457.885 250.694L457.129 257.717C457.129 257.717 456.307 260.302 456.414 261.281C456.553 262.667 457.112 265.62 457.088 265.742C456.512 269.339 454.794 283.726 454.794 283.726C454.794 283.726 457.038 285.904 459.727 286.874C466.172 289.191 471.105 287.706 471.105 287.706C471.352 287.486 473.679 279.183 470.957 273.238L470.053 269.363C469.897 268.703 469.847 267.634 470.152 266.688L470.867 260.938C470.867 260.938 473.292 256.575 471.837 254.87C469.839 252.513 466.929 250.67 465.655 249.903C465.334 249.707 464.462 249.756 463.616 249.536C463.616 249.536 458.403 249.822 457.877 250.694H457.885Z" fill="#C5CDFF"/>
<path d="M465.941 259.029C465.941 259.029 463.122 257.732 462.891 257.431C462.653 257.129 462.423 259.959 462.39 260.195C462.357 260.424 465.136 261.859 465.136 261.859C465.136 261.859 466.007 259.861 465.941 259.029Z" fill="white"/>
<path d="M465.087 261.949C462.242 260.489 462.275 260.261 462.283 260.179C462.283 260.138 462.3 260.04 462.316 259.894C462.563 257.488 462.686 257.316 462.851 257.316C462.883 257.316 462.925 257.325 462.966 257.373C463.13 257.577 464.898 258.442 465.983 258.939L466.041 258.964V259.021C466.115 259.869 465.268 261.81 465.235 261.9L465.194 261.998L465.095 261.949H465.087ZM462.867 257.545C462.768 257.765 462.653 258.564 462.522 259.91C462.505 260.04 462.497 260.138 462.497 260.187C462.62 260.375 463.886 261.093 465.095 261.721C465.259 261.321 465.876 259.812 465.851 259.094C465.408 258.89 463.295 257.904 462.875 257.545H462.867Z" fill="#D1E5DF"/>
<path d="M464.964 259.543L463.451 258.809L463.533 258.646L465.038 259.379L464.964 259.543Z" fill="#8E8E8E"/>
<path d="M464.997 260.44L462.982 259.478L463.065 259.314L465.079 260.277L464.997 260.44Z" fill="#8E8E8E"/>
<path d="M460.697 259.641L460.943 259.405C460.943 259.405 460.08 258.5 460.047 257.79C460.022 257.301 460.08 256.917 460.154 256.518C460.236 256.061 460.318 255.539 460.277 254.797C460.253 254.283 459.981 253.745 459.652 253.068C459.324 252.407 459.209 251.583 458.88 250.482C458.88 250.466 458.88 250.45 458.888 250.425C459.003 250.254 460.22 249.911 460.581 249.879L460.548 249.536C460.368 249.552 458.847 249.862 458.592 250.238C458.518 250.344 458.501 250.458 458.543 250.58C458.88 251.714 459.003 252.538 459.34 253.214C459.661 253.859 459.907 254.364 459.932 254.813C459.973 255.514 459.891 255.988 459.817 256.452C459.743 256.877 459.677 257.276 459.71 257.806C459.759 258.646 460.664 259.601 460.705 259.641H460.697Z" fill="#4C4C4C"/>
<path d="M463.492 258.679C463.739 258.255 463.862 257.888 463.977 257.497C464.117 257.056 464.282 256.551 464.652 255.914C464.915 255.466 465.391 255.107 466 254.659C466.592 254.218 467.34 253.663 468.137 252.823C468.154 252.807 468.154 252.799 468.154 252.774C468.137 252.644 467.455 252.163 467.397 252.057C467.381 251.991 467.562 251.763 467.521 251.706C467.669 251.788 468.433 252.293 468.491 252.742C468.507 252.864 468.466 252.978 468.384 253.076C467.562 253.924 466.805 254.495 466.197 254.944C465.622 255.376 465.161 255.711 464.939 256.094C464.586 256.698 464.438 257.162 464.298 257.611C464.166 258.019 464.043 258.41 463.78 258.867C463.353 259.593 462.103 260.033 462.053 260.05L461.938 259.723C461.938 259.723 463.114 259.307 463.484 258.688L463.492 258.679Z" fill="#4C4C4C"/>
<path d="M459.751 272.609C460.277 271.884 461.075 270.236 460.721 267.186C460.409 264.511 461.354 260.702 461.363 260.661L461.025 260.596C461.025 260.596 460.121 264.478 460.376 267.194C460.68 270.342 459.883 271.843 459.472 272.414L459.751 272.609Z" fill="#4C4C4C"/>
<path d="M460.975 261.297L460.934 261.077L460.646 259.396L460.688 259.625L460.975 261.297Z" fill="#787879"/>
<path d="M460.992 261.142C460.992 261.142 461.083 261.142 461.107 261.11L462.242 259.756C462.242 259.756 462.283 259.682 462.275 259.642L462.316 259.862C462.316 259.862 462.316 259.935 462.283 259.976L461.148 261.33C461.148 261.33 461.066 261.379 461.033 261.363C461 261.354 460.984 261.33 460.976 261.289L460.935 261.069C460.935 261.069 460.967 261.126 460.992 261.134V261.142Z" fill="#CCCCCC"/>
<path d="M462.192 259.552C462.192 259.552 462.176 259.552 462.168 259.552L460.828 259.25C460.828 259.25 460.762 259.25 460.737 259.25C460.68 259.274 460.63 259.332 460.647 259.405L460.935 261.077C460.935 261.077 460.959 261.134 460.992 261.142C461.033 261.158 461.083 261.142 461.107 261.11L462.242 259.756C462.307 259.682 462.275 259.576 462.184 259.544L462.192 259.552Z" fill="#DBDCDD"/>
<path d="M457.704 273.303C457.663 273.939 458.066 274.502 458.641 274.706C458.765 274.746 458.888 274.779 459.028 274.787C459.809 274.836 460.475 274.249 460.524 273.482C460.573 272.707 459.981 272.047 459.209 271.998C458.436 271.949 457.762 272.536 457.712 273.303H457.704Z" fill="#C6C6C6"/>
<path d="M457.506 273.099C457.457 273.874 458.049 274.535 458.822 274.584C459.603 274.632 460.269 274.045 460.318 273.27C460.367 272.504 459.775 271.835 458.994 271.786C458.222 271.737 457.547 272.324 457.498 273.091L457.506 273.099Z" fill="#DBDCDD"/>
<path d="M457.737 273.148C457.704 273.678 458.033 274.151 458.518 274.323C458.616 274.363 458.723 274.38 458.838 274.388C459.488 274.428 460.047 273.939 460.088 273.295C460.129 272.651 459.636 272.096 458.986 272.055C458.337 272.014 457.778 272.504 457.737 273.148Z" fill="#C6C6C6"/>
<path d="M457.572 272.985C457.531 273.63 458.024 274.184 458.673 274.225C459.323 274.266 459.882 273.776 459.923 273.132C459.964 272.488 459.471 271.933 458.821 271.884C458.172 271.843 457.613 272.333 457.572 272.977V272.985Z" fill="#DBDCDD"/>
<path d="M461.609 279.591C461.609 280.317 461.848 281.247 462.703 281.549L465.638 282.421C466.699 282.666 467.027 281.94 467.027 281.206V276.386C467.027 276.386 466.041 276.5 464.635 276.149C462.613 275.644 461.716 274.991 461.716 274.991L461.609 279.591Z" fill="#9694FF"/>
<path d="M461.699 276.646C461.699 276.646 462.784 277.111 464.067 277.454C466.615 278.131 467.018 277.625 467.018 277.625V276.948C467.018 276.948 466.517 277.348 464.314 276.793C462.316 276.296 461.724 275.766 461.724 275.766L461.699 276.638V276.646Z" fill="white"/>
<path d="M460.442 250.8C459.842 251.493 460.097 252.268 462.119 253.059C463.402 253.557 465.958 252.529 467.192 252.089C467.545 251.966 468.17 251.648 467.29 250.254L465.325 244.234L460.253 244.887C460.253 244.887 461.346 248.198 460.96 249.691C460.861 250.082 461.182 249.952 460.45 250.8H460.442Z" fill="white"/>
<path d="M461.913 252.742C462.242 253.043 461.954 253.402 461.757 253.655L460.483 255.221C460.08 255.686 459.94 255.123 459.965 254.609L460.03 250.89C460.22 248.941 461.075 248.794 461.075 248.794C461.075 248.794 461.025 249.267 461.042 249.862C461.066 250.662 460.968 251.877 461.921 252.733L461.913 252.742Z" fill="white"/>
<path d="M466.468 248.206C466.468 248.206 467.126 249.274 466.895 249.829C465.728 252.545 462.382 252.863 462.382 252.863C461.987 252.985 461.987 253.173 462.012 253.842L462.258 256.272C462.283 256.909 462.62 256.868 462.892 256.615C462.892 256.615 465.58 254.568 466.344 253.874C468.137 252.235 467.898 251.55 467.413 249.315C467.241 248.54 466.476 248.206 466.476 248.206H466.468Z" fill="white"/>
<path d="M462.398 235.116C458.904 235.027 458.756 237.906 458.608 239.822C458.51 241.168 458.625 243.688 458.625 243.688C458.888 246.192 459.611 247.995 460.919 248.492C462.555 249.104 464.939 247.742 466.92 245.621C468.679 243.754 468.959 242.49 469.008 242.188L469.83 235.581C469.83 235.581 464.256 235.157 462.398 235.108V235.116Z" fill="white"/>
<path d="M458.715 235.744C458.337 236.087 458.123 237.212 458.517 237.628C459.068 238.199 459.841 237.449 460.063 236.984C460.063 237.539 459.315 238.044 459.849 238.582C460.252 238.99 461 238.689 460.976 238.109C460.737 239.202 462.645 240.018 464.388 238.477C464.092 238.958 464.042 239.561 464.733 240.091C465.555 240.728 466.393 240.328 466.747 239.871C466.024 241.037 465.736 242.351 467.298 243.076C466.394 243.182 466.007 244.553 466.443 245.213C465.933 245.605 465.785 247.448 466.607 247.562C465.843 247.603 465.53 248.631 466.172 249.079C466.928 249.601 467.643 248.932 467.816 248.223C467.89 248.859 468.145 249.161 468.819 249.193C469.411 249.226 469.97 248.549 469.501 248.019C469.888 248.37 470.332 248.459 470.817 248.166C471.22 247.921 471.573 247.261 471.228 246.836C471.82 246.918 472.009 246.078 471.45 245.972C471.565 245.841 471.672 245.662 471.639 245.474C471.54 245.45 471.458 245.36 471.392 245.336C472.091 245.083 472.584 244.732 472.79 243.982C472.971 243.321 472.609 242.334 472.033 241.927C472.354 241.837 472.855 241.853 473.094 241.584C473.299 241.356 473.382 240.785 473.415 240.483C473.497 239.708 473.184 239.047 472.42 238.86C472.716 238.264 473.628 236.911 472.494 236.658C472.543 236.47 472.699 236.177 472.642 235.981C472.576 235.769 472.395 235.842 472.329 235.679C472.165 235.255 472.387 234.659 472.239 234.211C471.869 233.077 471.17 232.351 469.921 232.669C470.044 232.294 469.707 232.253 469.493 232.123C469.197 231.952 468.835 231.699 468.482 231.528C467.709 231.161 466.887 230.997 466.246 231.658C465.941 231.071 464.215 230.704 463.796 231.316C463.122 231.112 462.324 230.94 461.658 231.25C461.247 231.446 461.329 231.732 461.074 231.952C460.795 232.196 460.384 231.952 460.063 231.886C459.192 231.723 458.435 232.074 457.95 232.816C457.449 233.575 457.843 234.032 457.852 234.806C457.852 235.133 457.588 235.304 457.876 235.573C458.049 235.736 458.468 235.712 458.682 235.728H458.723L458.715 235.744Z" fill="#FFC545"/>
<path d="M436.263 249.072L439.124 249.153L439.864 248.803L440.653 249.194L441.771 249.227C441.771 249.227 444.229 236.226 439.913 235.043C435.013 233.689 436.255 249.072 436.255 249.072H436.263Z" fill="#51575F"/>
<path d="M448.529 279.412L445.545 280.162C445.545 280.162 440.965 271.28 440.16 267.847C439.617 265.53 439.412 257.391 439.412 257.391C438.754 254.936 437.899 250.801 440.628 250.646C444.895 250.409 444.501 263.915 444.944 266.778C445.446 270.057 448.537 279.412 448.537 279.412H448.529Z" fill="#293896"/>
<path d="M445.57 278.294L447.494 277.911L448.669 280.113L448.743 280.497L449.039 283.628C449.039 283.628 449.294 285.121 447.757 285.431C446.754 285.627 447.65 285.455 447.65 285.455C446.277 285.733 445.71 283.849 445.71 283.849L444.879 280.603C444.69 279.771 444.69 278.474 445.57 278.303V278.294Z" fill="white"/>
<path d="M446.596 279.216C446.547 280.015 447.558 280.627 448.274 280.668C448.52 280.684 448.561 282.201 448.882 282.796C449.219 283.408 449.836 283.098 449.943 282.935C450.033 282.804 449.54 280.562 449.433 279.991C449.088 278.082 448.364 277.968 447.649 277.919C446.942 277.862 446.654 278.417 446.596 279.224V279.216Z" fill="white"/>
<path d="M449.688 319.686C449.688 319.686 446.737 317.255 446.252 316.684C444.682 314.833 444.772 312.321 444.772 312.321L445.57 298.309C445.57 298.309 446.121 287.812 446.359 284.884C446.68 280.937 437.118 283.033 437.241 284.672L439.256 297.754C439.256 297.754 438.491 300.079 438.417 300.886C438.162 303.594 440.144 311.726 440.144 311.726L440.694 315.902C440.735 316.521 440.826 318.193 441.664 318.356C442.38 318.495 443.103 319.67 443.103 319.67C443.103 319.67 449.105 321.921 449.713 321.619C451.07 320.95 449.836 319.825 449.68 319.686H449.688Z" fill="white"/>
<path d="M451.077 322.092C451.718 321.562 450.912 320.501 450.542 320.232C450.485 320.191 449.301 319.368 449.301 319.368C449.704 319.743 449.342 320.167 448.594 320.289C447.723 320.436 446.629 320.24 445.618 319.678C444.681 319.156 443.299 318.136 442.921 317.883C441.17 316.701 440.66 315.787 440.66 315.787C440.66 315.787 440.2 316.856 440.455 317.777C440.734 318.789 440.882 319.164 440.882 319.164C440.882 319.164 441.992 319.678 442.732 320.118C443.826 320.762 445.248 321.774 447.032 322.279C448.865 322.793 450.452 322.606 451.069 322.1L451.077 322.092Z" fill="#0E1A68"/>
<path d="M445.052 309.019L445.57 298.269C445.57 298.269 446.121 287.772 446.359 284.844C446.68 280.897 437.118 282.993 437.241 284.632L438.902 296.548C438.902 296.548 438.417 300.031 438.417 300.846C438.401 304.1 439.141 306.376 439.412 308.961C440.489 309.377 442.692 309.679 445.052 309.019Z" fill="#5062B2"/>
<path d="M438.038 323.544C438.038 323.544 436.024 320.216 435.605 319.604C433.985 317.231 434.158 313.879 434.158 313.879L434.215 313.536C434.215 313.536 435.621 303.88 436.032 300.789C436.246 299.19 439.378 282.128 439.378 282.128C439.378 282.128 439.378 281.638 439.502 280.635C439.551 280.26 429.258 284.428 429.389 286.124C429.422 286.564 430.072 299.133 430.072 299.133C430.072 299.133 428.913 301.474 428.806 303.17C428.543 307.419 430.023 314.189 429.932 315.233L429.381 317.892C429.357 318.52 429.48 318.756 429.883 319.498C430.335 320.339 433.467 323.071 433.467 323.071C433.467 323.071 435.465 324.971 437.529 324.253C438.597 323.878 438.079 323.576 438.038 323.536V323.544Z" fill="white"/>
<path d="M438.572 325.46C438.975 325.036 438.975 324.196 437.783 322.915C437.734 322.866 437.314 322.336 437.314 322.336C437.66 322.826 437.767 323.446 436.5 323.601C435.473 323.731 434.396 323.405 433.343 322.524C432.669 321.953 431.502 320.713 430.754 319.767C429.348 317.981 429.586 316.88 429.586 316.88C429.586 316.88 428.888 317.467 429.027 318.886C429.142 320.012 429.167 320.656 429.167 320.656L431.157 322.548C432.406 323.658 432.834 324.286 434.231 325.126C435.991 326.178 437.964 326.088 438.556 325.46H438.572Z" fill="#0E1A68"/>
<path d="M439.387 282.201C439.387 282.201 439.387 281.712 439.511 280.708C439.56 280.333 429.267 284.501 429.398 286.197C429.431 286.638 429.365 300.038 429.365 300.038C429.365 300.038 428.921 301.547 428.815 303.243C428.708 305.013 428.815 308.007 429.127 309.923C430.196 310.682 432.383 311.62 434.635 310.502C435.285 306.922 436.132 302.999 436.378 301.074C436.592 299.475 439.387 282.201 439.387 282.201Z" fill="#616DBA"/>
<path d="M448.233 276.875C448.159 267.137 442.338 263.736 442.642 263.239C442.708 263.141 443.686 261.811 443.769 260.107C443.859 258.108 441.911 252.473 440.965 250.988C440.217 249.822 428.748 251.429 426.101 254.52C424.629 256.241 427.581 260.751 427.581 260.751L427.235 273.638C426.841 275.399 424.975 288.84 424.975 288.84C432.908 297.975 449.384 286.548 449.384 286.548C449.384 286.548 448.299 285.325 448.241 276.875H448.233Z" fill="#B0BFFF"/>
<path d="M437.151 250.752C438.853 251.951 437.907 254.153 436.871 254.593C434.619 255.556 431.716 253.835 431.84 252.098L432.654 244.488L436.616 245.059L437.159 250.752H437.151Z" fill="white"/>
<path d="M437.53 236.471C441.229 236.781 441.476 239.692 441.402 241.739C441.353 243.167 440.514 245.981 440.514 245.981C439.938 248.599 438.919 250.059 437.48 250.426C435.68 250.89 433.37 249.537 431.52 247.065C429.884 244.888 429.744 243.517 429.728 243.191C429.728 243.191 435.565 236.308 437.53 236.471Z" fill="white"/>
<path d="M435.785 272.634L434.807 275.277C434.807 275.277 424.235 273.923 423.182 270.62C422.418 268.214 424.284 262.676 424.654 260.245C425.114 257.236 425.32 254.234 427.909 254.079C431.001 253.884 429.965 257.285 429.619 258.459C428.715 261.591 428.057 265.424 427.515 268.059C427.243 269.38 435.785 272.634 435.785 272.634Z" fill="#293896"/>
<path d="M439.296 275.293C438.539 275.008 437.594 274.682 437.281 274.298C436.977 273.915 436.788 273.662 437.479 273.548C438.038 273.45 438.975 273.107 438.975 273.107C438.975 273.107 439.74 272.904 439.707 272.528C439.666 272.047 439.345 271.941 438.753 272.039C437.15 272.3 434.766 272.308 434.215 273.042C433.532 273.956 433.483 274.951 434.996 276.484C435.695 277.202 436.961 277.471 437.676 277.601C438.556 277.765 440.126 277.993 440.85 276.003C441.055 275.432 440.364 275.701 439.296 275.301V275.293Z" fill="white"/>
<path d="M433.731 251.388L433.263 239.586L435.145 237.979C435.145 237.979 441.558 237.572 441.204 235.851C440.884 234.293 431.939 230.199 428.322 236.405C426.751 239.105 425.905 241.511 427.483 249.137L428.313 249.985L428.864 249.683L429.514 250.54L430.138 250.018L430.582 250.719L431.709 251.404H433.723L433.731 251.388Z" fill="#51575F"/>
<path d="M432.604 243.265L434.758 242.588L435.193 241.283L435.588 242.18L436.838 241.805L437.183 240.696L437.495 241.625L441.877 240.467C441.877 240.467 441.918 236.006 438.844 236.724C429.792 238.836 432.612 243.273 432.612 243.273L432.604 243.265Z" fill="#51575F"/>
<path d="M481.826 274.297C481.826 274.297 482.566 273.555 483.882 274.053C485.205 274.55 486.471 275.39 486.471 275.39C486.471 275.39 486.66 276.165 486.225 276.043C485.781 275.92 483.75 275.439 483.75 275.439L481.826 274.297Z" fill="white"/>
<path d="M480.403 275.292L481.217 273.245C481.217 273.245 483.461 274.452 483.823 275.048C484.859 276.777 484.941 277.078 486.396 278.449C486.396 278.449 487.391 279.06 486.388 279.68C485.928 279.958 485.352 280.055 485.352 280.055C484.341 280.219 482.984 279.419 482.984 279.419L480.748 277.16C479.301 275.529 479.778 275.896 480.403 275.284V275.292Z" fill="white"/>
<path d="M481.431 272.609C482.524 273.27 481.858 274.403 481.176 275.195C480.609 275.847 479.507 276.255 479.507 276.255C477.09 275.602 470.628 270.758 469.773 268.295C469.198 266.639 468.269 262.993 468.096 261.199C467.89 259.135 467.734 255.995 470.069 255.237C472.881 254.323 473.136 257.023 473.341 258.295C473.736 260.775 474.681 266.117 474.681 266.117C474.681 266.117 478.841 271.035 481.423 272.609H481.431Z" fill="#9694FF"/>
</svg>
