<svg width="705" height="468" viewBox="0 0 705 468" fill="none" xmlns="http://www.w3.org/2000/svg">
<rect width="705" height="468" fill="#E0E6F9"/>
<path d="M296.509 235.201C296.431 235.123 294.625 233.298 296.204 230.573C296.867 229.431 298.202 228.28 299.616 227.069C301.483 225.46 303.429 223.79 304.066 221.956C305.331 218.366 300.296 215.01 295.855 212.83C288.787 209.36 288.621 197.863 288.621 197.379V175.993H289.363V197.37C289.363 197.482 289.529 208.98 296.221 212.267C303.028 215.607 305.907 218.929 304.773 222.138C304.075 224.119 302.068 225.849 300.131 227.519C298.761 228.696 297.469 229.812 296.858 230.858C295.506 233.186 296.989 234.717 297.059 234.777L296.501 235.201H296.509Z" fill="#BDDAFC"/>
<path d="M284.408 156.814C284.381 156.935 284.251 156.995 284.137 156.97C284.015 156.944 283.928 156.831 283.954 156.71C284.242 155.447 285.717 149.184 286.554 147.592C286.615 147.479 286.764 147.453 286.868 147.523C286.982 147.6 286.991 147.756 286.929 147.877C286.249 149.244 285.027 154.115 284.408 156.822V156.814Z" fill="#9694FF"/>
<g style="mix-blend-mode:multiply" opacity="0.29">
<path d="M330.385 239.189L300.201 256.578L269.826 239.189L300.009 221.801L330.385 239.189Z" fill="#BBD2E9"/>
</g>
<path d="M311.283 245.747C311.283 247.01 312.173 248.55 313.281 249.182C314.39 249.813 315.288 249.312 315.297 248.049C315.297 246.777 314.407 245.246 313.299 244.605C312.191 243.974 311.283 244.476 311.283 245.747ZM312.077 246.197C312.077 245.436 312.627 245.124 313.299 245.505C313.971 245.894 314.512 246.82 314.512 247.581C314.512 248.343 313.962 248.654 313.299 248.265C312.627 247.884 312.086 246.95 312.086 246.189L312.077 246.197Z" fill="#4D4D4D"/>
<path d="M313.29 245.514C312.618 245.133 312.077 245.436 312.068 246.206C312.068 246.976 312.609 247.901 313.281 248.282C313.953 248.671 314.494 248.36 314.494 247.599C314.494 246.837 313.953 245.903 313.281 245.522L313.29 245.514Z" fill="#747575"/>
<path d="M313.544 243.507C313.91 243.299 314.416 243.325 314.975 243.645C316.083 244.277 316.973 245.808 316.973 247.079C316.973 247.711 316.746 248.144 316.388 248.351L314.722 249.32C315.079 249.112 315.306 248.671 315.306 248.048C315.306 246.777 314.416 245.245 313.308 244.605C312.75 244.285 312.243 244.259 311.877 244.467L313.552 243.507H313.544Z" fill="#3B3C3B"/>
<path d="M281.99 228.981C281.99 230.244 282.88 231.775 283.989 232.415C285.097 233.047 285.996 232.545 286.004 231.282C286.004 230.019 285.114 228.479 284.006 227.848C282.898 227.216 281.999 227.718 281.999 228.99L281.99 228.981ZM282.784 229.439C282.784 228.669 283.334 228.367 284.006 228.747C284.678 229.128 285.219 230.062 285.219 230.824C285.219 231.585 284.669 231.896 283.997 231.507C283.334 231.126 282.784 230.192 282.784 229.431V229.439Z" fill="#5B68B7"/>
<path d="M283.997 228.748C283.325 228.367 282.775 228.67 282.775 229.44C282.775 230.21 283.316 231.136 283.988 231.516C284.66 231.897 285.21 231.594 285.21 230.833C285.21 230.063 284.669 229.137 283.997 228.757V228.748Z" fill="#95ADFB"/>
<path d="M284.25 226.741C284.607 226.524 285.122 226.559 285.681 226.879C286.789 227.511 287.679 229.051 287.679 230.314C287.679 230.945 287.452 231.386 287.094 231.585L285.419 232.546C285.777 232.338 286.004 231.897 286.004 231.274C286.004 230.011 285.114 228.471 284.005 227.839C283.447 227.519 282.949 227.485 282.574 227.701L284.25 226.741Z" fill="#0E1A68"/>
<path d="M285.263 244.198C285.821 243.878 286.327 243.844 286.694 244.06C286.833 244.138 286.973 244.224 287.113 244.294C287.305 244.406 287.505 244.519 287.697 244.631C287.916 244.761 288.142 244.891 288.361 245.02C287.994 244.804 287.488 244.839 286.929 245.159C286.694 245.288 286.467 245.47 286.258 245.678L286.929 246.067C286.258 246.448 285.717 247.382 285.725 248.143C285.725 248.524 285.865 248.792 286.083 248.913L284.957 248.264C284.94 248.377 284.931 248.489 284.931 248.593C284.931 249.225 285.158 249.657 285.516 249.874L283.841 248.913C283.483 248.706 283.256 248.264 283.256 247.642C283.256 246.379 284.146 244.839 285.263 244.207V244.198Z" fill="#0E1A68"/>
<mask id="mask0_2067_298850" style="mask-type:luminance" maskUnits="userSpaceOnUse" x="286" y="245" width="3" height="2">
<path d="M286.127 245.021C286.345 245.142 286.476 245.41 286.485 245.799C287.043 246.119 287.602 246.439 288.151 246.759C288.151 246.379 288.02 246.111 287.802 245.989C287.296 245.704 286.633 245.315 286.127 245.021Z" fill="white"/>
</mask>
<g mask="url(#mask0_2067_298850)">
<path d="M287.793 245.989L286.118 245.021C286.336 245.142 286.467 245.41 286.476 245.799C286.476 246.56 285.935 247.495 285.271 247.875L286.947 248.836C287.619 248.455 288.16 247.521 288.151 246.759C288.151 246.379 288.02 246.111 287.802 245.989H287.793Z" fill="#4D4D4D"/>
</g>
<path d="M284.931 248.602C284.931 249.866 285.838 250.376 286.946 249.744C288.054 249.104 288.953 247.573 288.945 246.301C288.945 245.038 288.037 244.528 286.929 245.168C285.821 245.8 284.922 247.339 284.922 248.602H284.931ZM285.725 248.144C285.725 247.383 286.257 246.457 286.929 246.068C287.601 245.678 288.142 245.99 288.142 246.76C288.142 247.521 287.609 248.455 286.938 248.836C286.266 249.217 285.725 248.914 285.725 248.144Z" fill="#5B68B7"/>
<path d="M286.929 246.067C287.601 245.678 288.142 245.989 288.142 246.759C288.142 247.521 287.609 248.455 286.938 248.836C286.266 249.216 285.725 248.913 285.725 248.143C285.725 247.382 286.257 246.457 286.929 246.067Z" fill="#95ADFB"/>
<path d="M314.557 227.424C315.115 227.104 315.621 227.078 315.988 227.286C316.128 227.364 316.267 227.45 316.407 227.528C316.599 227.641 316.8 227.762 316.991 227.865C317.21 227.995 317.437 228.125 317.655 228.255C317.297 228.047 316.782 228.073 316.232 228.393C315.988 228.523 315.77 228.713 315.56 228.912L316.232 229.293C315.56 229.674 315.019 230.608 315.028 231.369C315.028 231.75 315.168 232.018 315.386 232.139L314.26 231.49C314.243 231.594 314.225 231.715 314.225 231.819C314.225 232.451 314.452 232.883 314.819 233.099L313.143 232.13C312.777 231.923 312.559 231.482 312.559 230.859C312.559 229.596 313.457 228.056 314.566 227.416L314.557 227.424Z" fill="#0E1A68"/>
<path d="M314.224 231.828C314.224 233.091 315.131 233.61 316.239 232.97C317.347 232.33 318.238 230.799 318.238 229.527C318.238 228.264 317.33 227.762 316.222 228.394C315.105 229.034 314.215 230.574 314.215 231.828H314.224ZM315.018 231.378C315.018 230.608 315.559 229.683 316.222 229.302C316.894 228.921 317.435 229.233 317.435 229.994C317.435 230.755 316.894 231.69 316.231 232.07C315.559 232.451 315.018 232.14 315.018 231.378Z" fill="#5B68B7"/>
<path d="M316.232 229.301C316.903 228.92 317.444 229.232 317.444 229.993C317.444 230.755 316.903 231.689 316.24 232.069C315.568 232.45 315.027 232.139 315.027 231.377C315.027 230.607 315.568 229.682 316.232 229.301Z" fill="#95ADFB"/>
<path d="M284.051 225.14L297.785 233.047V235.677L284.059 227.762C283.675 227.545 283.475 227.251 283.475 226.957V224.327C283.475 224.621 283.658 224.907 284.051 225.132V225.14Z" fill="#0C1342"/>
<path d="M317.245 225.14C317.638 224.915 317.838 224.621 317.838 224.327V226.957C317.838 227.251 317.646 227.545 317.254 227.77L303.432 235.686V233.056L317.245 225.14Z" fill="#0C1342"/>
<path d="M284.059 223.522C284.835 223.072 286.101 223.072 286.877 223.522L300.612 231.429V231.983L285.874 223.496C285.647 223.366 285.289 223.366 285.062 223.496C284.844 223.626 284.835 223.833 285.062 223.963L299.792 232.45L297.785 233.047L284.05 225.14C283.274 224.69 283.274 223.972 284.059 223.522Z" fill="#0E1A68"/>
<path d="M316.241 223.497C316.015 223.367 315.648 223.367 315.43 223.497L300.596 231.983V231.43L314.426 223.514C315.212 223.064 316.477 223.073 317.245 223.514C318.022 223.964 318.022 224.682 317.236 225.14L303.414 233.056L301.399 232.45L316.241 223.964C316.46 223.834 316.46 223.626 316.241 223.497Z" fill="#0E1A68"/>
<path d="M285.053 223.497C284.835 223.627 284.827 223.834 285.053 223.964L299.783 232.451L284.949 240.946C284.731 241.076 284.731 241.283 284.949 241.404C285.167 241.534 285.533 241.534 285.76 241.404L300.595 232.918L315.324 241.404C315.551 241.534 315.909 241.534 316.136 241.404C316.354 241.283 316.362 241.067 316.136 240.946L301.397 232.451L316.24 223.964C316.458 223.834 316.458 223.627 316.24 223.497C316.013 223.367 315.647 223.367 315.429 223.497L300.595 231.983L285.865 223.497C285.638 223.367 285.28 223.367 285.053 223.497Z" fill="#293896"/>
<path d="M283.945 242.581C284.722 243.031 285.978 243.031 286.764 242.581L300.586 234.674V237.304L286.772 245.22C285.987 245.669 284.73 245.669 283.954 245.22C283.57 244.995 283.378 244.7 283.369 244.415V241.785C283.369 242.079 283.552 242.373 283.945 242.59V242.581Z" fill="#0C1342"/>
<path d="M283.954 240.963L297.776 233.047L299.783 232.45L284.949 240.946C284.731 241.075 284.731 241.283 284.949 241.404C285.167 241.534 285.534 241.534 285.761 241.404L300.595 232.917V234.682L286.764 242.589C285.979 243.039 284.722 243.039 283.946 242.589C283.169 242.148 283.169 241.421 283.946 240.972L283.954 240.963Z" fill="#0E1A68"/>
<path d="M300.596 232.909L315.325 241.395C315.552 241.525 315.91 241.525 316.137 241.395C316.355 241.274 316.363 241.058 316.137 240.937L301.398 232.441L303.414 233.047L317.14 240.954C317.925 241.404 317.917 242.131 317.14 242.572C316.355 243.022 315.098 243.022 314.313 242.572L300.578 234.665V232.9L300.596 232.909Z" fill="#0E1A68"/>
<path d="M314.321 242.581C315.106 243.031 316.363 243.031 317.148 242.581C317.541 242.356 317.733 242.062 317.733 241.768V244.398C317.741 244.692 317.541 244.986 317.157 245.211C316.38 245.661 315.115 245.661 314.338 245.211L300.604 237.304V234.674L314.33 242.581H314.321Z" fill="#0C1342"/>
<path d="M298.115 225.971C298.115 225.608 298.351 225.253 298.822 224.976C299.773 224.405 301.344 224.396 302.33 224.941C302.827 225.218 303.08 225.59 303.089 225.962L303.106 232.823C303.106 232.874 303.089 232.926 303.08 232.97C303.08 233.004 303.08 233.047 303.063 233.082C303.045 233.134 303.01 233.186 302.984 233.238C302.967 233.272 302.949 233.307 302.932 233.342C302.888 233.394 302.836 233.454 302.784 233.506C302.757 233.532 302.74 233.558 302.705 233.584C302.618 233.662 302.513 233.74 302.391 233.809C301.44 234.371 299.869 234.388 298.892 233.843C298.77 233.774 298.656 233.705 298.569 233.618C298.534 233.592 298.517 233.567 298.49 233.541C298.438 233.489 298.377 233.428 298.333 233.368C298.307 233.333 298.298 233.298 298.272 233.264C298.246 233.212 298.211 233.16 298.194 233.108C298.176 233.065 298.176 233.022 298.168 232.987C298.159 232.935 298.141 232.883 298.141 232.831C298.141 230.764 298.124 228.013 298.124 225.962L298.115 225.971Z" fill="#0E1A68"/>
<path d="M299.696 141.995C300.176 141.71 300.979 141.701 301.476 141.978C301.729 142.125 301.851 142.306 301.86 142.497V225.53C301.86 225.53 301.86 225.582 301.86 225.608C301.86 225.625 301.86 225.642 301.851 225.66C301.851 225.686 301.825 225.712 301.816 225.738C301.808 225.755 301.799 225.772 301.79 225.798C301.773 225.824 301.746 225.85 301.72 225.876C301.703 225.893 301.694 225.911 301.677 225.928C301.633 225.971 301.581 226.006 301.52 226.04C301.031 226.335 300.237 226.343 299.739 226.058C299.678 226.023 299.626 225.988 299.574 225.945C299.556 225.928 299.548 225.919 299.53 225.902C299.495 225.876 299.469 225.859 299.451 225.824C299.443 225.807 299.425 225.781 299.417 225.764C299.408 225.738 299.39 225.712 299.382 225.686C299.382 225.668 299.382 225.642 299.373 225.625C299.373 225.599 299.355 225.573 299.355 225.547C299.355 224.777 299.355 223.878 299.355 222.978V142.497C299.355 142.315 299.46 142.133 299.705 141.995H299.696Z" fill="#5B68B7"/>
<mask id="mask1_2067_298850" style="mask-type:luminance" maskUnits="userSpaceOnUse" x="312" y="126" width="3" height="2">
<path d="M312.444 126.025L314.39 127.149C314.311 127.106 314.207 127.115 314.085 127.184L312.139 126.059C312.261 125.99 312.366 125.981 312.444 126.033V126.025Z" fill="white"/>
</mask>
<g mask="url(#mask1_2067_298850)">
<path d="M314.092 127.175L312.146 126.051C312.269 125.981 312.373 125.973 312.452 126.025L314.398 127.149C314.319 127.106 314.215 127.115 314.092 127.184V127.175Z" fill="#0E1A68"/>
</g>
<mask id="mask2_2067_298850" style="mask-type:luminance" maskUnits="userSpaceOnUse" x="311" y="126" width="4" height="2">
<path d="M313.665 127.911L311.719 126.786C311.719 126.518 311.902 126.189 312.146 126.051L314.092 127.175C313.857 127.314 313.665 127.634 313.665 127.911Z" fill="white"/>
</mask>
<g mask="url(#mask2_2067_298850)">
<path d="M313.665 127.911L311.719 126.786C311.719 126.518 311.902 126.189 312.146 126.051L314.092 127.175C313.857 127.314 313.665 127.634 313.665 127.911Z" fill="#0E1A68"/>
</g>
<path d="M313.666 129.615V127.902L311.711 126.777V128.49C311.711 128.542 311.825 130.861 310.498 133.231C309.669 134.71 308.439 135.922 306.851 136.83L302.409 139.373L294.8 143.733L290.359 146.277C288.806 147.168 287.601 147.367 286.764 146.882L288.71 148.007C289.547 148.492 290.751 148.284 292.305 147.402L296.746 144.858L304.355 140.498L308.797 137.955C310.385 137.046 311.607 135.826 312.444 134.356C313.771 131.985 313.657 129.658 313.657 129.615H313.666Z" fill="#293896"/>
<path d="M288.036 149.002C286.439 147.99 286.561 145.222 286.57 145.101V143.422L284.615 142.298V143.976C284.615 144.097 284.493 146.866 286.09 147.878C286.116 147.895 286.151 147.912 286.177 147.93L288.123 149.054C288.123 149.054 288.062 149.02 288.036 149.002Z" fill="#0C1342"/>
<mask id="mask3_2067_298850" style="mask-type:luminance" maskUnits="userSpaceOnUse" x="284" y="141" width="4" height="3">
<path d="M285.34 141.536L287.286 142.661C287.208 142.618 287.103 142.618 286.981 142.687C286.745 142.825 286.553 143.145 286.553 143.422L284.607 142.298C284.607 142.029 284.791 141.701 285.035 141.562C285.149 141.493 285.262 141.484 285.34 141.536Z" fill="white"/>
</mask>
<g mask="url(#mask3_2067_298850)">
<path d="M286.561 143.422L284.615 142.298C284.615 142.029 284.798 141.701 285.043 141.562C285.156 141.493 285.27 141.484 285.348 141.536L287.294 142.661C287.216 142.618 287.111 142.618 286.989 142.687C286.753 142.825 286.561 143.145 286.561 143.422Z" fill="#0E1A68"/>
</g>
<path d="M314.092 127.176C314.327 127.037 314.519 127.15 314.519 127.418V129.096C314.519 129.209 314.668 131.839 313.079 134.668C312.085 136.45 310.645 137.886 308.813 138.941L304.371 141.485L296.762 145.845L292.32 148.388C290.479 149.444 289.039 149.651 288.036 149.011C286.439 147.999 286.561 145.23 286.57 145.109V143.431C286.57 143.163 286.753 142.834 286.989 142.696C287.224 142.566 287.416 142.67 287.416 142.938V144.651C287.416 144.703 287.32 147.142 288.655 147.99C289.493 148.509 290.724 148.328 292.312 147.411L296.753 144.867L304.362 140.507L308.804 137.964C310.392 137.055 311.614 135.835 312.451 134.365C313.778 131.994 313.664 129.667 313.664 129.624V127.911C313.664 127.643 313.847 127.314 314.083 127.176H314.092Z" fill="#0E1A68"/>
<path d="M290.035 175.508C290.035 176.192 289.476 176.745 288.787 176.745C288.097 176.745 287.539 176.192 287.539 175.508V172.688C287.539 172.515 287.574 172.351 287.635 172.204C287.827 171.762 288.272 171.442 288.787 171.442C289.476 171.442 290.035 171.996 290.035 172.679V175.5V175.508Z" fill="#293896"/>
<path opacity="0.58" d="M284.032 155.533C284.032 155.533 284.529 156.442 287.706 154.832C290.882 153.223 292.156 152.177 292.156 152.177L293.142 150.706C293.142 150.706 293.988 148.889 294.337 152.315C294.355 152.514 294.372 152.739 294.39 152.998C294.651 157.272 294.337 169.522 294.337 169.522C294.337 169.522 294.477 172.109 291.231 173.856C287.985 175.604 286.894 174.842 286.894 174.842C286.894 174.842 282.906 174.687 282.906 171.685C282.906 167.186 283.046 156.009 283.046 156.009C283.046 156.009 282.697 154.123 284.032 155.516V155.533Z" fill="#5B68B7"/>
<path d="M286.893 175.163C286.893 175.163 287.984 175.612 291.23 173.865C294.476 172.117 294.336 169.531 294.336 169.531C294.336 169.531 294.476 164.236 294.493 159.392C292.705 160.092 290.802 160.862 289.895 161.347C288.534 162.073 284.956 163.717 282.87 164.989C282.844 167.368 282.801 170.18 282.914 171.702C283.158 175.085 286.902 175.163 286.902 175.163H286.893Z" fill="#95ADFB"/>
<path d="M282.836 164.981C282.836 164.981 282.984 163.596 286.579 161.624C289.119 160.222 291.178 159.254 292.862 159.037C294.485 158.83 295.262 159.461 292.932 161.07C290.969 162.429 286.981 163.951 286.16 164.358C285.314 164.773 283.264 165.552 282.845 164.989L282.836 164.981Z" fill="#293896"/>
<path opacity="0.4" d="M294.336 169.531C294.336 169.531 294.598 159.175 294.441 154.184C293.935 154.556 292.626 155.447 290.244 156.658C287.068 158.267 286.57 157.359 286.57 157.359C285.226 155.957 285.584 157.852 285.584 157.852C285.584 157.852 285.759 168.89 285.933 173.38C285.977 174.418 287.975 175.621 291.221 173.873C294.467 172.126 294.328 169.539 294.328 169.539L294.336 169.531Z" fill="white"/>
<path d="M290.331 161.987C288.332 163.068 286.718 163.276 285.68 163.259C285.706 164.755 285.741 166.399 285.776 167.982C286.325 168.112 287.05 168.155 287.983 168.034C290.584 167.688 293.219 165.906 294.423 165.006C294.449 163.354 294.475 161.442 294.484 159.582C293.821 160.023 292.599 160.776 290.331 161.996V161.987Z" fill="white"/>
<path d="M293.535 152.445C293.421 152.515 293.273 152.471 293.203 152.368C292.924 151.97 292.191 150.975 290.699 149.271C289.468 147.869 288.822 147.436 288.535 147.307C288.412 147.255 288.316 147.151 288.282 147.03C288.238 146.9 288.343 146.77 288.473 146.796C288.849 146.874 289.608 147.298 291.056 148.959C292.575 150.689 293.308 151.693 293.587 152.099C293.665 152.212 293.648 152.368 293.535 152.437V152.445Z" fill="#C5CDFF"/>
<g opacity="0.29" style="mix-blend-mode:multiply">
<path d="M262.824 314.595L339.543 265.304C341.056 264.33 342.989 264.322 344.517 265.272L384.939 290.565C386.077 291.276 386.069 292.969 384.931 293.663L350.419 314.843L360.709 320.689L342.475 331.622L332.582 325.784L307.884 340.942C306.341 341.892 304.399 341.916 302.832 340.998L262.886 317.662C261.732 316.991 261.701 315.306 262.816 314.587L262.824 314.595Z" fill="#BBD2E9"/>
</g>
<path d="M340.145 325.001C339.841 324.818 339.568 324.802 339.365 324.921C339.287 324.969 339.217 325.009 339.139 325.057C339.03 325.121 338.929 325.185 338.82 325.249C338.695 325.321 338.578 325.393 338.461 325.465C338.656 325.345 338.936 325.361 339.241 325.544C339.365 325.616 339.49 325.72 339.607 325.84L339.241 326.055C339.607 326.271 339.903 326.79 339.895 327.221C339.895 327.437 339.817 327.589 339.7 327.661L340.309 327.293C340.309 327.357 340.324 327.421 340.324 327.477C340.324 327.828 340.199 328.076 340.005 328.196L340.917 327.653C341.112 327.533 341.236 327.285 341.236 326.934C341.236 326.223 340.753 325.353 340.145 325.001Z" fill="#3B3B3B"/>
<mask id="mask4_2067_298850" style="mask-type:luminance" maskUnits="userSpaceOnUse" x="338" y="325" width="2" height="2">
<path d="M339.669 325.465C339.553 325.537 339.475 325.688 339.475 325.904C339.171 326.08 338.867 326.263 338.562 326.447C338.562 326.232 338.633 326.08 338.757 326.016C339.03 325.856 339.397 325.641 339.669 325.473V325.465Z" fill="white"/>
</mask>
<g mask="url(#mask4_2067_298850)">
<path d="M338.758 326.008L339.67 325.465C339.553 325.537 339.475 325.688 339.475 325.904C339.475 326.335 339.771 326.854 340.13 327.07L339.217 327.613C338.851 327.398 338.555 326.87 338.563 326.447C338.563 326.232 338.633 326.08 338.758 326.016V326.008Z" fill="#4C4C4C"/>
</g>
<path d="M339.232 325.545C338.632 325.185 338.141 325.473 338.133 326.183C338.133 326.894 338.616 327.757 339.224 328.116C339.825 328.476 340.324 328.188 340.324 327.477C340.324 326.766 339.84 325.904 339.232 325.545ZM339.224 327.613C338.858 327.397 338.562 326.87 338.569 326.447C338.569 326.016 338.866 325.848 339.232 326.064C339.598 326.279 339.895 326.798 339.887 327.23C339.887 327.661 339.591 327.837 339.224 327.621V327.613Z" fill="#4C4C4C"/>
<path d="M339.233 326.055C338.867 325.84 338.57 326.015 338.57 326.439C338.57 326.87 338.859 327.389 339.225 327.605C339.592 327.82 339.888 327.645 339.888 327.213C339.888 326.782 339.592 326.263 339.233 326.047V326.055Z" fill="#7B7B7B"/>
<path d="M354.887 316.991C354.583 316.807 354.31 316.791 354.107 316.911C354.029 316.959 353.959 317.007 353.881 317.046C353.78 317.11 353.671 317.174 353.562 317.238C353.437 317.31 353.32 317.382 353.195 317.454C353.39 317.334 353.671 317.35 353.975 317.534C354.107 317.606 354.224 317.709 354.341 317.829L353.975 318.045C354.341 318.26 354.63 318.78 354.63 319.211C354.63 319.426 354.56 319.57 354.435 319.642L355.051 319.275C355.051 319.339 355.066 319.402 355.066 319.458C355.066 319.81 354.942 320.057 354.747 320.177L355.659 319.634C355.854 319.522 355.978 319.267 355.978 318.915C355.978 318.204 355.495 317.342 354.887 316.983V316.991Z" fill="#3B3B3B"/>
<path d="M353.974 317.534C353.374 317.174 352.875 317.462 352.875 318.173C352.875 318.884 353.358 319.754 353.966 320.105C354.575 320.465 355.066 320.177 355.066 319.466C355.066 318.756 354.582 317.893 353.974 317.534ZM353.966 319.594C353.6 319.379 353.312 318.852 353.312 318.428C353.312 317.997 353.608 317.821 353.974 318.045C354.341 318.261 354.629 318.78 354.629 319.211C354.629 319.642 354.333 319.81 353.966 319.602V319.594Z" fill="#4C4C4C"/>
<path d="M353.973 318.045C353.607 317.829 353.311 318.005 353.311 318.428C353.311 318.859 353.607 319.378 353.965 319.594C354.332 319.809 354.628 319.634 354.628 319.203C354.628 318.771 354.332 318.252 353.973 318.037V318.045Z" fill="#7B7B7B"/>
<path d="M347.916 212.348C347.916 211.213 348.314 210.407 348.945 210.032L351.448 208.538C350.816 208.913 350.418 209.72 350.418 210.854V212.419L347.908 213.913V212.34L347.916 212.348Z" fill="#0C1342"/>
<path d="M353.888 215.086L356.39 213.593L350.411 212.427L347.908 213.92L353.888 215.086Z" fill="#0E1A68"/>
<path d="M350.372 206.653C351.292 206.11 352.555 206.182 353.958 207.012L356.406 208.458L353.903 209.951L351.455 208.506C350.06 207.683 348.789 207.603 347.869 208.154L350.372 206.661V206.653Z" fill="#95ADFB"/>
<path d="M373.588 226.794L376.09 225.309L376.098 221.946L373.596 223.44L373.588 226.794Z" fill="#0C1342"/>
<path d="M379.575 233.191L382.078 231.698L376.09 225.309L373.588 226.794L379.575 233.191Z" fill="#0E1A68"/>
<path d="M373.604 221.652L376.106 220.166V219.895L373.604 221.388V221.652Z" fill="#5B68B7"/>
<path d="M356.579 207.811C356.688 207.747 356.828 207.755 356.984 207.851L375.538 218.888L373.036 220.381L354.481 209.344C354.326 209.248 354.185 209.24 354.076 209.304L356.579 207.811Z" fill="#95ADFB"/>
<path d="M373.604 221.387L376.107 219.894C376.107 219.527 375.857 219.071 375.538 218.888L373.035 220.381C373.355 220.565 373.604 221.02 373.604 221.387Z" fill="#5B68B7"/>
<path d="M346.404 211.453C346.404 208.178 348.681 206.853 351.464 208.498L353.912 209.943V209.672C353.912 209.304 354.169 209.153 354.481 209.336L373.035 220.373C373.355 220.557 373.604 221.012 373.604 221.38V221.651L376.068 223.113C378.843 224.758 381.104 228.759 381.096 232.033L381.073 250.473L381.049 260.552L346.357 239.972L346.404 213.617V211.453ZM373.588 226.794L379.576 233.183V231.131C379.584 228.839 378.017 226.044 376.06 224.893L373.596 223.432V226.794H373.588ZM347.909 213.92L353.888 215.086V211.724L351.456 210.279C349.507 209.129 347.917 210.055 347.917 212.347V213.92H347.909Z" fill="#293896"/>
<path d="M376.106 220.166L378.57 221.627C381.353 223.273 383.606 227.274 383.598 230.548L383.582 234.741L383.551 259.067L381.049 260.561L381.072 250.482L381.095 232.042C381.095 228.767 378.85 224.766 376.067 223.121L373.604 221.659L376.106 220.166Z" fill="#95ADFB"/>
<path d="M380.986 279.359L380.955 282.378L379.201 283.504L379.24 280.485L380.986 279.359Z" fill="#B59983"/>
<path d="M379.241 280.486L379.202 283.504L342.896 261.902L342.928 258.883L379.241 280.486Z" fill="#293896"/>
<path d="M380.987 279.36L379.241 280.486L342.928 258.883L344.674 257.757L380.987 279.36Z" fill="#0E1A68"/>
<path d="M304.945 322.917L304.984 325.936L306.731 327.07L306.692 324.043L304.945 322.917Z" fill="#0E1A68"/>
<path d="M306.691 324.043L306.73 327.07L383.824 281.284L383.785 278.266L306.691 324.043Z" fill="#5B68B7"/>
<path d="M304.945 322.917L306.692 324.043L383.785 278.266L382.039 277.132L304.945 322.917Z" fill="#0E1A68"/>
<path d="M264 288.887C264 289.614 264.468 290.34 265.396 290.891L298.645 310.617C300.508 311.719 303.517 311.719 305.365 310.617L384.073 263.53C384.993 262.987 385.453 262.269 385.453 261.55L385.437 267.364C385.437 268.083 384.977 268.793 384.057 269.344L305.35 316.431C303.502 317.533 300.493 317.533 298.63 316.431L265.38 296.705C264.444 296.154 263.977 295.428 263.984 294.701L264 288.887Z" fill="#5B68B7"/>
<path d="M384.048 259.546C385.911 260.648 385.919 262.437 384.072 263.531L305.364 310.618C303.516 311.72 300.507 311.72 298.644 310.618L265.395 290.892C263.539 289.798 263.531 288.009 265.379 286.907L344.086 239.82C345.934 238.718 348.943 238.718 350.799 239.82L384.048 259.546Z" fill="#293896"/>
<path d="M312.265 317.35C312.639 317.861 313.239 318.157 313.847 318.157C314.19 318.157 314.525 318.061 314.83 317.885L377.08 281.116C378.881 280.062 379.684 277.85 378.998 275.853L377.852 272.515C377.4 271.205 376.191 270.335 374.842 270.335C374.281 270.335 373.728 270.487 373.237 270.782L317.239 304.5C315.461 305.562 314.128 307.351 313.59 309.38L311.945 315.577C311.781 316.192 311.898 316.839 312.28 317.342L312.265 317.35ZM376.386 273.042L377.54 276.381C377.976 277.658 377.462 279.072 376.316 279.743L314.073 316.512C314.003 316.551 313.933 316.575 313.855 316.575C313.715 316.575 313.582 316.504 313.496 316.392C313.434 316.312 313.38 316.184 313.426 316.008L315.071 309.811C315.508 308.174 316.576 306.736 318.01 305.882L374.008 272.156C374.266 272.004 374.546 271.924 374.835 271.924C375.529 271.924 376.16 272.379 376.386 273.05V273.042Z" fill="#C5CDFF"/>
<path d="M350.699 231.179L381.485 249.922L374.484 256.87C371.545 259.738 367.039 265.703 367.881 269.776L337.095 251.033C335.715 244.38 339.426 242.16 350.699 231.179Z" fill="#5B68B7"/>
<path d="M374.485 256.871C371.803 259.482 367.001 265.528 367.882 269.777L381.493 260.92V249.923L374.485 256.871Z" fill="#0E1A68"/>
<path d="M303.417 334.611C303.744 333.86 304.189 333.141 304.711 332.534C305.147 332.023 305.646 331.584 306.169 331.28C307.096 330.729 307.931 330.681 308.539 331.041L309.926 331.895C309.318 331.528 308.484 331.584 307.556 332.135C307.034 332.438 306.543 332.878 306.099 333.389C305.576 334.004 305.14 334.714 304.812 335.473C304.446 336.32 304.228 337.214 304.235 338.045C304.235 339.123 304.61 339.882 305.21 340.233L303.822 339.386C303.222 339.027 302.848 338.268 302.848 337.19C302.848 336.368 303.058 335.473 303.425 334.619L303.417 334.611Z" fill="#0E1A68"/>
<path d="M307.55 332.127C305.71 333.213 304.221 335.857 304.229 338.029C304.229 340.193 305.733 341.072 307.573 339.978C309.421 338.883 310.902 336.248 310.902 334.084C310.902 331.911 309.405 331.033 307.557 332.127H307.55Z" fill="#293896"/>
<path d="M307.658 333.604C306.512 334.275 305.584 335.92 305.592 337.269C305.592 338.619 306.527 339.162 307.666 338.483C308.812 337.813 309.739 336.167 309.732 334.826C309.732 333.476 308.796 332.933 307.658 333.612V333.604Z" fill="#5B68B7"/>
<path d="M307.83 338.412V324.779L311.229 321.497L311.136 334.131C311.136 334.131 310.839 338.212 307.838 338.412H307.83Z" fill="#5B68B7"/>
<path d="M265.046 312.423C265.373 311.673 265.81 310.946 266.332 310.339C266.769 309.828 267.26 309.396 267.79 309.085C268.718 308.534 269.552 308.486 270.16 308.845L271.547 309.7C270.939 309.333 270.105 309.388 269.178 309.94C268.655 310.251 268.164 310.682 267.72 311.193C267.197 311.808 266.753 312.519 266.433 313.278C266.067 314.124 265.856 315.019 265.856 315.849C265.856 316.928 266.231 317.686 266.831 318.038L265.443 317.191C264.843 316.832 264.469 316.073 264.469 314.995C264.469 314.172 264.679 313.278 265.046 312.423Z" fill="#0E1A68"/>
<path d="M269.177 309.94C267.337 311.026 265.848 313.669 265.855 315.842C265.855 318.006 267.36 318.884 269.2 317.79C271.04 316.704 272.529 314.061 272.521 311.888C272.521 309.716 271.024 308.838 269.177 309.932V309.94Z" fill="#293896"/>
<path d="M269.287 311.417C268.141 312.088 267.213 313.733 267.221 315.083C267.221 316.433 268.156 316.976 269.302 316.297C270.448 315.626 271.368 313.981 271.368 312.631C271.368 311.282 270.44 310.739 269.294 311.417H269.287Z" fill="#5B68B7"/>
<path d="M269.451 316.224V302.592L272.85 299.31L272.757 311.952C272.757 311.952 272.468 316.033 269.451 316.232V316.224Z" fill="#5B68B7"/>
<path d="M336.245 269.864C336.572 269.113 337.017 268.394 337.531 267.787C337.968 267.276 338.467 266.837 338.989 266.533C339.917 265.982 340.751 265.934 341.359 266.294L342.747 267.14C342.139 266.781 341.297 266.829 340.377 267.38C339.854 267.691 339.363 268.123 338.919 268.634C338.397 269.241 337.952 269.959 337.633 270.718C337.266 271.565 337.056 272.459 337.056 273.29C337.056 274.368 337.43 275.126 338.03 275.478L336.642 274.631C336.042 274.272 335.668 273.513 335.668 272.435C335.668 271.613 335.879 270.718 336.245 269.871V269.864Z" fill="#93CCE5"/>
<path d="M340.376 267.38C338.528 268.466 337.047 271.11 337.055 273.282C337.055 275.446 338.559 276.325 340.399 275.23C342.247 274.144 343.728 271.501 343.728 269.337C343.728 267.164 342.223 266.286 340.384 267.38H340.376Z" fill="#83BDD2"/>
<path d="M340.478 268.849C339.332 269.52 338.412 271.165 338.412 272.515C338.412 273.864 339.34 274.408 340.486 273.729C341.632 273.05 342.56 271.413 342.552 270.063C342.552 268.713 341.616 268.17 340.47 268.849H340.478Z" fill="#A6DAE8"/>
<path d="M340.65 273.657V260.017L344.049 256.734L343.956 269.377C343.956 269.377 343.66 273.458 340.65 273.657Z" fill="#A6DAE8"/>
<path d="M267.604 300.891L267.643 303.909L269.389 305.035L269.358 302.017L267.604 300.891Z" fill="#0E1A68"/>
<path d="M269.357 302.017L269.389 305.035L346.482 259.258L346.451 256.231L269.357 302.017Z" fill="#5B68B7"/>
<path d="M267.604 300.891L269.358 302.017L346.451 256.232L344.697 255.105L267.604 300.891Z" fill="#0E1A68"/>
<path d="M310.176 320.736L310.145 323.755L308.391 324.881L308.43 321.862L310.176 320.736Z" fill="#0E1A68"/>
<path d="M308.43 321.863L308.391 324.881L272.086 303.279L272.117 300.26L308.43 321.863Z" fill="#5B68B7"/>
<path d="M310.177 320.737L308.431 321.863L272.117 300.26L273.863 299.134L310.177 320.737Z" fill="#0E1A68"/>
<path d="M316.242 279.208C318.456 278.162 326.111 271.158 328.91 271.381L334.476 273.218C333.33 278.034 330.29 279.088 326.174 280.134C321.332 281.372 314.714 287.09 313.957 288.376C312.827 290.309 307.323 295.108 304.322 297.033C300.658 299.397 298.007 304.205 298.007 304.205C298.007 304.205 297.516 304.987 296.744 305.323C294.421 306.353 288.519 307.583 288.067 305.243C287.942 304.588 288.738 303.797 290.998 303.326C292.144 303.087 294.016 302.424 294.616 302.2C296.385 301.505 298.03 299.253 298.03 299.253L309.256 284.958C309.256 284.958 311.549 281.436 316.242 279.208Z" fill="#E8C5AC"/>
<path d="M311.705 272.004C313.919 270.958 321.574 263.954 324.373 264.17L329.939 266.007C328.785 270.822 326.743 269.92 322.627 270.974C317.785 272.212 310.013 279.799 309.42 281.173C308.189 284.04 302.42 287.546 299.418 289.47C295.754 291.834 293.478 297.001 293.478 297.001C293.478 297.001 292.979 297.784 292.215 298.12C289.892 299.15 283.99 300.38 283.538 298.04C283.413 297.385 284.201 296.586 286.461 296.123C287.615 295.883 289.486 295.22 290.087 294.989C291.856 294.294 293.493 292.042 293.493 292.042L304.72 277.747C304.72 277.747 307.004 274.225 311.705 271.996V272.004Z" fill="#E8C5AC"/>
<path d="M339.474 268.762C339.474 268.762 338.133 277.962 327.889 281.06C317.653 284.159 314.8 286.819 313.483 289.278C311.495 292.984 298.959 302.663 298.959 302.663C298.959 302.663 298.164 302.663 297.532 301.905C296.869 301.106 297.041 300.299 297.041 300.299C297.041 300.299 307.659 286.148 309.421 284.055C311.183 281.963 321.925 274.727 324.28 272.803C326.642 270.886 327.515 270.742 326.642 270.886C325.761 271.03 318.511 275.286 315.174 277.251C311.838 279.224 312.602 278.88 308.493 283.193C304.377 287.505 293.681 296.634 293.681 296.634C293.681 296.634 291.264 296.107 291.584 294.102C291.724 293.2 302.288 280.278 305.453 276.716C308.618 273.154 321.536 264.305 324.623 263.251C327.702 262.197 330.111 261.279 330.174 260.376C330.228 259.474 338.476 266.398 340.433 266.302C340.823 266.286 339.466 268.754 339.466 268.754L339.474 268.762Z" fill="#A01F1F"/>
<path d="M338.118 245.458C338.118 245.458 333.931 240.099 345.571 232.879C350.287 229.948 353.593 225.668 360.313 228.798C361.271 229.246 364.702 230.955 373.425 238.757C374.766 239.955 375.928 240.123 376.739 240.618C377.214 240.906 378.064 241.904 376.684 243.062C375.125 244.38 373.885 247.207 373.503 249.411C373.269 250.761 372.279 257.022 366.783 260.696C363.135 263.131 361.209 263.539 357.389 261.518C353.211 259.306 342.273 250.234 342.273 250.234C342.273 250.234 338.211 246.384 338.11 245.45L338.118 245.458Z" fill="#5B68B7"/>
<path d="M376.683 243.07C378.063 241.904 377.205 240.914 376.737 240.627C375.927 240.123 374.765 239.964 373.424 238.766C373.229 238.59 373.042 238.43 372.855 238.263C375.264 241.266 375.397 242.136 373.985 242.711C371.693 243.645 370.29 245.243 370.688 246.776C371.101 248.365 371.179 250.609 369.542 253.317C367.905 256.024 365.371 258.332 360.156 260.033C358.012 260.736 356.523 260.648 356.133 260.8C356.351 260.936 356.554 261.055 356.741 261.175C356.772 261.191 356.803 261.207 356.834 261.231C357.029 261.343 357.217 261.455 357.388 261.543C358.667 262.213 359.968 262.629 361.247 262.812C362.993 262.916 364.576 262.19 366.782 260.712C372.278 257.038 373.268 250.777 373.502 249.427C373.884 247.223 375.124 244.404 376.683 243.078V243.07Z" fill="#293896"/>
<path d="M327.086 247.918C327.086 247.918 322.713 250.417 319.961 252.669C316.905 255.169 314.402 258.963 314.402 258.963L317.661 259.034C317.661 259.034 328.115 251.615 329.698 249.347C331.553 246.672 329.074 247.59 327.094 247.926L327.086 247.918Z" fill="white"/>
<path d="M317.568 256.192C317.568 256.192 317.458 254.619 314.823 256.783C312.048 259.067 311.011 263.076 313.046 264.018C313.56 264.258 316.616 262.685 317.209 260.968C317.474 260.201 318.971 256.775 318.971 256.775L317.568 256.192Z" fill="#E8C5AC"/>
<g opacity="0.29" style="mix-blend-mode:multiply">
<path d="M296.299 262.445L335.793 285.805C336.456 286.196 336.994 287.155 336.994 287.937L336.923 326.918L338.132 327.629L339.13 327.03L339.145 319.283L352.242 311.537L352.227 318.78L353.435 319.491L354.433 318.9L354.503 279.919C354.503 278.354 353.427 276.445 352.102 275.655L348.89 273.754V272.612C348.89 272.612 348.89 272.676 348.89 272.716C348.937 272.356 348.726 271.981 348.266 271.709L318.338 254.012C317.535 253.533 316.249 253.517 315.407 253.956L312.608 252.303L311.61 252.894V254.315L313.2 255.258L302.154 261.83C301.733 262.078 301.53 262.405 301.53 262.733V262.932L297.305 260.433L296.307 261.024V262.445H296.299ZM336.799 283.793L335.123 282.802L347.393 275.495L351.096 277.683C351.759 278.074 352.305 279.033 352.297 279.815L352.242 309.532L339.145 317.279L339.192 288.065C339.192 286.5 338.116 284.583 336.783 283.801L336.799 283.793ZM301.561 262.948C301.561 262.948 301.561 262.94 301.561 262.932C301.561 262.932 301.561 262.94 301.561 262.948ZM301.53 262.789C301.53 262.789 301.53 262.837 301.53 262.853C301.53 262.829 301.53 262.805 301.53 262.789ZM348.648 273.211C348.648 273.211 348.617 273.235 348.609 273.251C348.625 273.235 348.641 273.227 348.648 273.211ZM348.539 273.323C348.539 273.323 348.524 273.339 348.516 273.347C348.524 273.347 348.531 273.331 348.539 273.323ZM348.882 272.74C348.882 272.74 348.867 272.803 348.859 272.835C348.867 272.803 348.875 272.772 348.882 272.74ZM348.734 273.099C348.734 273.099 348.703 273.139 348.695 273.155C348.711 273.139 348.726 273.115 348.734 273.099ZM348.804 272.979C348.804 272.979 348.773 273.027 348.765 273.051C348.781 273.027 348.797 273.003 348.804 272.979ZM348.859 272.859C348.859 272.859 348.835 272.915 348.828 272.939C348.843 272.915 348.851 272.883 348.859 272.859Z" fill="#BBD2E9"/>
</g>
<g opacity="0.29" style="mix-blend-mode:multiply">
<path d="M347.971 234.828C347.971 234.828 360.827 240.61 357.709 243.006C354.598 245.394 355.183 245.793 355.572 252.174C355.791 255.696 351.877 266.326 351.877 266.326L347.402 260.744L347.971 234.828Z" fill="#0E1A68"/>
</g>
<path d="M327.492 253.141C334.504 247.95 348.128 244.851 344.44 241.569C341.135 238.63 336.964 241.744 336.964 241.744C336.964 241.744 324.872 248.541 322.853 250.889C319.828 254.403 326.642 253.452 327.492 253.141Z" fill="white"/>
<path d="M344.548 264.968C343.948 269.488 342.584 271.701 342.062 272.499C342.062 272.499 336.986 270.91 334.297 269.209C331.599 267.508 329.705 264.952 329.705 264.952C329.838 264.777 334.032 260.16 334.164 259.977C335.833 257.701 334.952 252.102 335.279 250.026C335.575 248.149 341.804 241.065 343.091 240.666C347.246 242.471 350.138 244.475 351.635 245.681C352.563 246.432 352.906 246.903 352.843 246.768C352.243 247.646 350.754 254.45 350.13 255.528C348.174 258.907 344.907 262.213 344.548 264.96V264.968Z" fill="#C5CDFF"/>
<path d="M340.003 264.769C340.003 264.769 337.048 263.164 335.661 263.227C334.273 263.283 333.228 263.938 333.228 263.938C333.228 263.938 332.706 265.008 333.228 264.944C333.751 264.889 335.598 264.537 335.598 264.537L337.282 265.064L340.003 264.769Z" fill="#E8C5AC"/>
<path d="M341.39 253.373C344.719 255.289 349.888 260.185 352.125 263.795C354.363 267.404 357.801 273.043 360.982 274.72C364.162 276.397 365.542 282.387 365.105 285.909C364.677 289.431 365.02 291.898 360.631 291.635C356.249 291.371 351.915 293.623 347.058 294.558C337.563 296.379 336.916 300.571 331.412 303.103C319.117 308.765 315.266 312.215 309.162 315.21C303.05 318.205 283.186 298.615 282.687 295.173C282.18 291.723 282.04 280.27 287.341 276.125C291.738 272.691 300.758 265.64 300.758 265.64L326.547 249.563C326.547 249.563 331.552 247.702 341.383 253.365L341.39 253.373Z" fill="#0E1A68"/>
<path d="M265.553 284.312C265.553 283.106 265.974 282.251 266.652 281.852L269.31 280.271C268.632 280.67 268.219 281.524 268.219 282.73V284.399L265.553 285.981V284.312Z" fill="#0C1342"/>
<path d="M271.906 287.219L274.565 285.637L268.211 284.392L265.553 285.981L271.906 287.219Z" fill="#0E1A68"/>
<path d="M268.172 278.258C269.147 277.675 270.495 277.763 271.984 278.633L274.58 280.175L271.922 281.764L269.326 280.223C267.837 279.344 266.488 279.264 265.514 279.847L268.172 278.266V278.258Z" fill="#95ADFB"/>
<path d="M292.527 299.477L295.186 297.896L295.201 294.326L292.543 295.907L292.527 299.477Z" fill="#0C1342"/>
<path d="M298.897 306.274L301.555 304.693L295.186 297.896L292.527 299.478L298.897 306.274Z" fill="#0E1A68"/>
<path d="M292.543 294.015L295.209 292.434V292.146L292.551 293.728L292.543 294.015Z" fill="#5B68B7"/>
<path d="M274.76 279.488C274.869 279.424 275.025 279.432 275.189 279.536L294.601 291.076L291.942 292.657L272.538 281.117C272.367 281.013 272.219 281.005 272.109 281.069L274.776 279.488H274.76Z" fill="#95ADFB"/>
<path d="M292.55 293.728L295.208 292.146C295.208 291.755 294.943 291.276 294.608 291.076L291.949 292.657C292.284 292.857 292.557 293.344 292.557 293.736L292.55 293.728Z" fill="#5B68B7"/>
<path d="M263.947 283.353C263.963 279.879 266.372 278.465 269.326 280.214L271.922 281.756V281.476C271.922 281.077 272.195 280.917 272.53 281.117L291.934 292.657C292.27 292.857 292.543 293.344 292.543 293.735V294.023L295.162 295.572C298.117 297.321 300.51 301.578 300.502 305.06L300.479 309.516L300.448 319.659L263.893 297.968L263.939 285.669V283.361L263.947 283.353ZM292.527 299.477L298.888 306.274V304.093C298.904 301.658 297.228 298.687 295.154 297.457L292.535 295.907L292.519 299.477H292.527ZM265.553 285.981L271.915 287.218V283.649L269.326 282.115C267.26 280.893 265.569 281.876 265.561 284.311V285.981H265.553Z" fill="#5B68B7"/>
<path d="M295.209 292.434L297.829 293.983C300.783 295.732 303.184 299.981 303.177 303.463L303.153 307.919L303.13 318.062L300.471 319.643L300.503 309.5L300.526 305.044C300.526 301.562 298.14 297.305 295.186 295.556L292.566 294.007L295.225 292.426L295.209 292.434Z" fill="#95ADFB"/>
<mask id="mask5_2067_298850" style="mask-type:luminance" maskUnits="userSpaceOnUse" x="285" y="303" width="4" height="7">
<path d="M285.939 309.06L286.984 308.438C288.224 307.695 288.988 306.13 288.995 303.901L287.959 304.524C287.951 306.76 287.179 308.326 285.939 309.068V309.06Z" fill="white"/>
</mask>
<g mask="url(#mask5_2067_298850)">
<path d="M285.939 309.06L286.984 308.438C288.224 307.695 288.988 306.13 288.995 303.901L287.959 304.524C287.951 306.76 287.179 308.326 285.939 309.068V309.06Z" fill="#0C1342"/>
</g>
<path d="M287.959 304.517L288.996 303.894L289.027 290.956L287.99 291.571L287.959 304.517Z" fill="#0C1342"/>
<path d="M287.99 291.571L289.027 290.956L275.228 282.794L274.184 283.409L287.99 291.571Z" fill="#0C1342"/>
<path d="M274.183 283.409L274.152 296.355C274.145 300.843 277.232 306.314 281.036 308.566C284.848 310.826 287.943 308.997 287.959 304.517L287.99 291.571L274.191 283.409H274.183Z" fill="#0E1A68"/>
<path d="M286.619 292.937L275.564 286.771L275.525 292.889L286.572 299.238L286.619 292.937Z" fill="#5B68B7"/>
<path d="M275.525 292.889L276.812 290.445L286.596 296.044L286.572 299.238L275.525 292.889Z" fill="#5B68B7"/>
<path d="M276.336 290.452V287.457L286.143 292.944L286.12 296.05L276.336 290.452Z" fill="#BDDAFC"/>
<path d="M276.383 292.314L276.897 291.348L280.211 293.153L279.61 294.127L276.383 292.314Z" fill="#95ADFB"/>
<path d="M280.555 294.39C280.555 294.717 280.804 294.981 281.116 294.981C281.428 294.981 281.677 294.717 281.677 294.39C281.677 294.063 281.428 293.791 281.116 293.791C280.804 293.791 280.555 294.055 280.555 294.39Z" fill="#C5CDFF"/>
<path d="M281.887 295.181C281.887 295.508 282.136 295.78 282.448 295.78C282.76 295.78 283.009 295.516 283.009 295.181C283.009 294.846 282.76 294.582 282.448 294.582C282.136 294.582 281.887 294.854 281.887 295.181Z" fill="#C5CDFF"/>
<path d="M283.221 295.98C283.221 296.307 283.47 296.571 283.782 296.571C284.094 296.571 284.335 296.307 284.335 295.98C284.335 295.652 284.086 295.381 283.782 295.381C283.478 295.381 283.221 295.644 283.221 295.98Z" fill="#9694FF"/>
<path d="M351.355 297.025C354.193 292.88 356.259 291.387 360.64 291.65C365.029 291.914 364.686 289.446 365.115 285.924C365.45 283.137 364.663 278.824 362.753 276.309C362.753 276.309 365.497 282.29 338.211 289.59C319.275 294.653 304.314 297.249 304.314 297.249C330.563 300.986 301.945 315.88 307.441 316.12C313.459 316.384 348.517 301.17 351.355 297.025Z" fill="#293896"/>
<path d="M354.9 318.005L355.898 317.406L355.961 278.433L354.963 279.024L354.9 318.005Z" fill="#0E1A68"/>
<path d="M352.562 274.759L353.56 274.168L314.066 250.809L313.068 251.4L352.562 274.759Z" fill="#95ADFB"/>
<mask id="mask6_2067_298850" style="mask-type:luminance" maskUnits="userSpaceOnUse" x="352" y="274" width="4" height="6">
<path d="M354.964 279.024L355.961 278.433C355.961 276.867 354.886 274.951 353.553 274.168L352.555 274.759C353.888 275.55 354.964 277.458 354.956 279.024H354.964Z" fill="white"/>
</mask>
<g mask="url(#mask6_2067_298850)">
<path d="M354.964 279.024L355.961 278.433C355.961 276.867 354.886 274.951 353.553 274.168L352.555 274.759C353.888 275.55 354.964 277.458 354.956 279.024H354.964Z" fill="#BBD2E9"/>
</g>
<path d="M313.068 251.4V252.821L352.562 276.181C353.225 276.572 353.771 277.531 353.763 278.313L353.693 317.286L354.901 317.997L354.971 279.016C354.971 277.451 353.896 275.542 352.57 274.751L313.076 251.392L313.068 251.4Z" fill="#5B68B7"/>
<path d="M340.183 317.214L339.178 316.623L339.186 317.454L340.183 318.045V317.214Z" fill="#A4A4A5"/>
<path d="M354.855 308.541L353.857 307.942L339.178 316.623L340.183 317.214L354.855 308.541Z" fill="#5B68B7"/>
<path d="M340.184 317.214V318.045L354.856 309.364V308.541L340.184 317.214Z" fill="#0E1A68"/>
<path d="M339.598 326.134L340.596 325.535L340.666 286.562L339.668 287.153L339.598 326.134Z" fill="#0E1A68"/>
<path d="M337.26 282.889L338.258 282.298L298.764 258.938L297.766 259.529L337.26 282.889Z" fill="#95ADFB"/>
<mask id="mask7_2067_298850" style="mask-type:luminance" maskUnits="userSpaceOnUse" x="337" y="282" width="4" height="6">
<path d="M339.669 287.154L340.667 286.555C340.667 284.989 339.591 283.081 338.265 282.29L337.268 282.881C338.601 283.664 339.676 285.58 339.676 287.146L339.669 287.154Z" fill="white"/>
</mask>
<g mask="url(#mask7_2067_298850)">
<path d="M339.669 287.154L340.667 286.555C340.667 284.989 339.591 283.081 338.265 282.29L337.268 282.881C338.601 283.664 339.676 285.58 339.676 287.146L339.669 287.154Z" fill="#BBD2E9"/>
</g>
<path d="M297.766 259.529V260.951L337.26 284.311C337.922 284.702 338.468 285.661 338.46 286.443L338.39 325.416L339.599 326.127L339.669 287.146C339.669 285.581 338.593 283.664 337.26 282.881L297.766 259.521V259.529Z" fill="#5B68B7"/>
<path d="M349.733 272.02L336.596 279.838C335.762 280.334 334.398 280.334 333.556 279.838L303.635 262.141C303.214 261.885 302.996 261.558 302.996 261.23C302.996 261.718 302.996 262.197 302.996 262.684C302.996 263.011 303.207 263.347 303.635 263.594L333.564 281.292C334.406 281.795 335.77 281.795 336.604 281.292L349.74 273.473C350.154 273.226 350.364 272.898 350.364 272.579V271.125C350.364 271.453 350.161 271.772 349.74 272.02H349.733Z" fill="#0E1A68"/>
<path d="M349.717 270.215C350.559 270.719 350.567 271.525 349.725 272.02L336.589 279.839C335.755 280.334 334.39 280.334 333.548 279.839L303.628 262.141C302.786 261.646 302.778 260.832 303.62 260.336L316.756 252.518C317.59 252.023 318.954 252.023 319.804 252.518L349.725 270.215H349.717Z" fill="#BDDAFC"/>
<path d="M351.877 246.408C351.877 246.408 354.247 245.993 353.67 252.358C353.421 255.089 353.21 259.857 352.033 264.521C350.996 268.642 340.643 267.221 340.643 267.221C340.643 267.221 339.061 267.181 338.881 266.677C338.554 265.775 338.281 264.737 338.281 264.737C338.281 264.737 348.003 262.597 348.135 262.229C348.517 261.231 348.393 254.722 348.393 254.722C348.393 254.722 348.135 252.007 348.174 250.242C348.237 246.632 351.885 246.4 351.885 246.4L351.877 246.408Z" fill="white"/>
<path d="M340.393 266.374C340.393 266.374 336.261 270.575 333.634 269.808C331.685 269.241 330.874 268.842 330.874 268.842C330.874 268.842 330.765 267.5 331.794 266.854C332.823 266.215 333.4 266.358 334.429 265.719C335.458 265.073 336.55 264.745 337.688 264.593C340.292 264.234 340.401 266.374 340.401 266.374H340.393Z" fill="white"/>
<path d="M352.774 229.861C352.774 229.861 353.265 230.764 353.46 238.303C353.569 242.336 354.146 243.63 354.146 243.63C354.146 243.63 349.227 244.141 347.675 242.823C346.833 242.112 346.498 239.309 346.498 239.309L352.774 229.869V229.861Z" fill="#6B3A05"/>
<path d="M341.227 246.248C340.697 249.746 346.918 248.349 349.226 244.148L349.358 235.866L343.995 234.349L343.55 242.966C343.55 242.966 341.407 244.994 341.219 246.248H341.227Z" fill="white"/>
<path d="M344.791 223.775C347.504 223.128 351.074 224.725 352.485 226.914C354.668 230.3 353.429 232.488 353.483 232.6C353.858 233.391 350.646 229.941 349.765 230.492C348.79 231.099 348.814 230.579 349.25 233.023C349.429 233.982 349.188 234.437 348.478 234.565C347.683 234.708 347.075 234.82 347.075 234.82C347.075 234.82 346.179 233.391 345.843 233.934C343.458 237.863 344.432 245.657 344.432 245.657C343.013 246.001 335.966 242.399 336.504 239.197C337.322 234.269 337.424 225.524 344.799 223.767L344.791 223.775Z" fill="#6B3A05"/>
<path d="M349.617 229.254C353.328 228.887 353.531 229.933 353.562 232.049C353.593 233.798 352.853 237.695 352.853 237.695C352.416 240.051 351.668 241.657 350.646 242.351C349.095 243.414 347.107 242.719 345.01 240.371C343.295 238.454 344.971 236.881 344.893 236.553C344.893 236.553 345.096 235.068 345.408 234.237C345.86 233.008 347.653 229.462 349.625 229.254H349.617Z" fill="white"/>
<path d="M349.118 227.68L351.028 226.634C351.028 226.634 351.574 228.598 351.402 230.116C350.708 236.417 344.947 235.962 344.947 235.962C349.812 234.9 349.126 227.672 349.126 227.672L349.118 227.68Z" fill="#6B3A05"/>
<path d="M343.412 234.269C344.651 233.99 345.166 235.763 345.166 235.763C345.166 235.763 344.947 237.496 345.041 238.438C345.103 239.013 343.895 238.59 343.466 237.871C343.443 237.823 342.882 236.976 342.85 236.913C342.359 235.994 342.25 234.549 343.419 234.269H343.412Z" fill="white"/>
<path d="M402.985 262.755C403.535 263.625 403.421 263.717 403.421 263.717C403.421 263.717 404.474 263.236 405.321 263.236C408.434 263.282 415.164 262.755 418.644 261.679C421.964 260.649 414.02 257.101 414.02 257.101L403.535 259.573C403.535 259.573 401.681 260.741 402.963 262.755H402.985Z" fill="white"/>
<path d="M407.263 263.948C410.01 262.689 407.424 258.202 407.424 258.202C407.424 258.202 407.08 257.767 406.416 258.431C406.004 258.843 403.074 258.363 402.685 258.134C402.296 257.882 399.663 258.477 399.068 258.569C398.496 258.66 397.008 257.264 396.115 258.66C395.771 259.164 397.236 261.018 397.534 262.506C397.832 263.994 405.707 264.681 407.263 263.971V263.948Z" fill="#5B68B7"/>
<path d="M415.39 262.914C415.39 262.914 415.939 262.868 416.786 262.731C419.602 262.296 420.357 261.975 421.502 261.128C424.295 259.068 424.638 248.789 424.638 248.789C424.638 248.789 426.493 241.875 423.494 238.762C421.296 236.473 417.542 240.113 416.878 243.02C416.214 245.95 414.428 253.299 414.314 255.519C414.314 255.931 414.016 256.252 413.627 256.389L411.933 257.122L415.39 262.891V262.914Z" fill="#F9F9F9"/>
<path d="M414.36 254.879C414.2 254.444 413.673 254.49 413.353 254.696L410.926 257.305C410.697 257.511 410.651 257.832 410.743 258.107C411.819 261.037 413.948 263.211 415.367 263.417L418.938 262.754C419.327 262.662 419.419 262.159 419.099 261.884C418.114 261.014 415.642 258.221 414.337 254.879H414.36Z" fill="#0E1A68"/>
<g opacity="0.21" style="mix-blend-mode:multiply">
<path d="M419.561 314.814C422.56 314.7 426.566 317.127 433.434 320.469C435.632 321.545 442.797 331.022 432.541 333.037C422.285 335.051 419.08 326.467 412.716 325.391C402.3 323.628 397.974 315.639 419.561 314.837V314.814Z" fill="#0E1A68"/>
</g>
<path d="M416.422 314.722L413.835 315.935C413.835 315.935 405.342 319.003 405.823 321.063C406.006 321.841 408.135 322.871 409.051 323.032C410.814 323.375 414.522 322.642 414.522 322.642C415.003 322.413 422.1 320.605 422.1 320.605C422.1 320.605 423.336 320.422 422.947 318.545L423.336 314.722H416.445H416.422Z" fill="#212121"/>
<path d="M428.805 322.162L426.356 326.694C426.356 326.694 423.769 330.655 427.088 331.113C427.752 331.204 431.095 331.41 431.095 331.41C431.896 331.456 433.681 331.616 434.826 330.311C435.536 329.487 435.811 325.252 435.811 324.703C435.788 322.642 435.673 321.772 435.673 321.772L428.805 322.139V322.162Z" fill="#0E1A68"/>
<path d="M415.46 268.569L414.429 314.263C414.223 315.82 414.864 316.026 414.979 316.14C416.307 317.422 422.305 319.803 423.083 317.972L427.387 270.103L415.483 268.569H415.46Z" fill="#0E1A68"/>
<path d="M426.976 277.749L428.052 321.909C427.617 322.893 427.182 324.221 428.349 323.763C432.058 322.344 435.79 324.679 435.79 324.679C436.385 324.427 436.453 322.962 436.43 319.642L437.277 296.819L426.953 277.749H426.976Z" fill="#0E1A68"/>
<path d="M439.334 242.333C439.334 242.333 433.84 239.541 429.902 238.717C423.012 237.229 421.089 238.167 421.089 238.167C421.089 238.167 418.8 240.639 417.403 245.973C417.289 246.385 412.825 269.621 414.038 294.506C414.13 296.52 420.448 299.427 426.468 299.611C431.711 299.771 438.808 298.008 438.808 298.008C438.808 298.008 436.77 271.934 437.068 263.303C437.319 255.84 439.334 242.333 439.334 242.333Z" fill="#EFEFEF"/>
<path d="M431.484 226.217C429.973 225.966 429.561 227.385 429.561 227.385L429.057 230.407C429.057 230.407 429.011 231.071 429.561 231.277C430.385 231.597 430.889 230.91 431.392 230.155C431.415 230.109 432.102 228.988 432.148 228.919C432.743 227.957 432.88 226.469 431.438 226.217H431.484Z" fill="#FFE8D9"/>
<path d="M425.854 243.847C426.014 251.264 432.676 243.366 432.608 238.261L433.02 229.013L425.786 230.936L425.854 239.452C425.854 239.452 425.808 241.901 425.854 243.824V243.847Z" fill="white"/>
<path d="M426.646 221.647L432.506 222.311L431.453 232.887C431.293 233.597 431.132 234.558 430.445 235.199C429.942 235.68 429.553 235.863 428.523 236.367C428.523 236.367 424.562 237.809 422.479 236.802C421.632 236.39 421.426 235.268 421.22 234.581C420.991 233.803 420.762 231.445 420.762 230.804L420.51 225.653C420.51 225.653 420.258 223.135 420.945 222.219C421.884 220.983 426.646 221.647 426.646 221.647Z" fill="white"/>
<path d="M420.669 222.859C420.669 222.859 420.898 222.012 422.775 222.195C424.972 222.424 427.193 224.003 427.582 224.301C428.704 225.125 428.979 227.643 428.841 228.559C428.841 228.559 430.558 228.215 431.863 228.559C432.985 228.834 431.634 230.299 431.565 230.413L431.291 231.398C431.336 231.924 432.298 234.259 432.619 233.618C433.145 232.565 434.335 230.253 434.702 229.612C438.868 222.24 433.374 216.334 425.774 217.616C424.286 217.868 422.019 218.807 420.875 220.135C420.623 220.432 420.875 221.302 420.646 222.836L420.669 222.859Z" fill="#5E3E0B"/>
<path d="M431.731 227.347C430.22 227.187 429.876 228.63 429.876 228.63L429.556 231.674C429.556 231.674 429.556 232.338 430.128 232.521C430.975 232.796 431.433 232.086 431.914 231.285C431.937 231.239 432.555 230.072 432.601 230.003C433.127 229.019 433.196 227.508 431.754 227.347H431.731Z" fill="white"/>
<path d="M437.341 215.942C435.304 216.125 435.67 222.169 435.67 222.169C433.747 222.626 430.199 221.138 428.345 219.879C425.529 217.979 422.324 218.964 422.324 218.964C422.324 218.964 423.102 213.973 421.523 212.485C421.523 212.485 417.768 208.433 421.66 204.793C421.66 204.793 424.522 202.298 427.406 204.473C427.406 204.473 429.856 201.062 433.564 202.252C433.999 202.39 437.456 203.855 436.38 207.632C436.38 207.632 439.814 206.167 441.714 209.349C442.538 210.722 442.675 215.438 437.319 215.942H437.341Z" fill="white"/>
<path d="M437.02 216.032C436.013 216.147 434.799 215.826 434.136 215.254C433.472 214.705 433.312 213.491 433.151 212.942C430.427 213.651 428.252 211.911 427.176 210.538C425.322 212.53 422.666 213.056 421.865 212.621C421.865 212.621 422.804 213.102 425.07 211.705C427.337 210.309 427.176 209.096 427.176 209.096C427.176 209.096 428.229 211.179 429.969 211.934C431.595 212.667 433.907 211.866 433.907 211.866C433.907 211.866 433.518 213.789 434.571 215.002C435.28 215.826 437.043 216.032 437.043 216.032H437.02Z" fill="#BAB6B5"/>
<path d="M419.121 298.193C419.373 298.284 419.647 298.376 419.922 298.467L422.074 251.973L421.273 252.522L419.144 298.193H419.121Z" fill="#0E1A68"/>
<path d="M424.553 254.741C424.553 255.382 424.141 255.908 423.637 255.908C423.133 255.908 422.721 255.382 422.721 254.741C422.721 254.1 423.133 253.573 423.637 253.573C424.141 253.573 424.553 254.1 424.553 254.741Z" fill="#0E1A68"/>
<path d="M424.068 264.998C424.068 265.639 423.656 266.165 423.153 266.165C422.649 266.165 422.214 265.639 422.214 264.998C422.214 264.357 422.626 263.83 423.153 263.83C423.679 263.83 424.068 264.357 424.068 264.998Z" fill="#0E1A68"/>
<path d="M423.541 275.004C423.541 275.645 423.129 276.172 422.603 276.172C422.076 276.172 421.687 275.645 421.687 275.004C421.687 274.363 422.099 273.837 422.603 273.837C423.106 273.837 423.541 274.363 423.541 275.004Z" fill="#0E1A68"/>
<path d="M423.059 286.768C423.059 287.409 422.646 287.936 422.143 287.936C421.639 287.936 421.227 287.409 421.227 286.768C421.227 286.127 421.639 285.601 422.143 285.601C422.646 285.601 423.059 286.127 423.059 286.768Z" fill="#0E1A68"/>
<path d="M425.579 237.415C425.808 237.415 425.991 237.575 425.991 237.781L426.197 245.863L424.046 248.793L422.626 238.102C422.603 237.873 422.763 237.69 422.969 237.667L425.556 237.415H425.579Z" fill="#0E1A68"/>
<path d="M432.535 236.819C432.695 236.613 432.993 236.59 433.176 236.774L437.25 240.986C437.434 241.169 437.388 241.467 437.182 241.627L421.272 252.547L432.558 236.819H432.535Z" fill="#0E1A68"/>
<path d="M425.555 270.402L423.884 268.364L414.178 273.79C413.972 275.209 419.283 274.454 420.519 274.637C422.236 274.889 423.175 274.431 423.175 274.431L424.731 273.172C425.601 272.485 426.311 271.317 425.555 270.402Z" fill="#FFE8D9"/>
<path d="M423.405 271.227C423.954 272.097 424.092 272.761 424.092 272.761C424.092 272.761 425.534 271.639 426.312 271.273C430.525 269.281 433.043 268.113 435.629 267.06C437.415 266.351 432.699 261.841 432.699 261.841L422.924 268.663C422.924 268.663 422.123 269.235 423.405 271.25V271.227Z" fill="white"/>
<path d="M429.952 263.398L434.622 259.85C434.965 259.575 435.171 259.163 435.171 258.728C435.217 256.279 435.446 248.243 436.316 246.206C437.346 243.779 438.926 242.154 438.926 242.154C438.926 242.154 441.947 242.589 442.794 246.206C443.481 249.113 442.268 258.11 441.787 261.498C441.673 262.368 441.192 263.147 440.528 263.696C438.582 265.253 436.865 266.672 436.362 266.809L429.975 263.375L429.952 263.398Z" fill="#F9F9F9"/>
<path d="M430.093 262.688C429.841 262.871 429.795 263.237 429.955 263.489L433.046 268.342C433.229 268.617 433.549 268.708 433.847 268.594L438.265 266.808C438.517 266.694 438.586 266.396 438.425 266.168L433.801 260.467C433.618 260.238 433.275 260.193 433.023 260.376L430.07 262.688H430.093Z" fill="#0E1A68"/>
<path d="M424.527 270.721C423.909 271.499 422.421 271.156 421.712 270.583C421.46 270.377 418.873 272.736 418.575 271.064C418.575 271.064 418.988 270.561 419.743 269.691C419.812 269.622 420.315 268.775 421.208 268.615C423.589 268.203 423.955 268.042 424.642 268.615C425.352 269.187 425.146 269.943 424.505 270.721H424.527Z" fill="#FFE8D9"/>
<path d="M421.508 270.653L409.054 277.887C408.184 278.391 406.765 278.391 405.895 277.887L387.672 267.379C387.238 267.128 387.009 266.784 387.009 266.464V267.746C387.009 268.089 387.215 268.41 387.672 268.661L405.895 279.169C406.765 279.673 408.184 279.673 409.054 279.169L421.508 271.935C421.943 271.683 422.148 271.363 422.148 271.019V269.737C422.148 270.058 421.943 270.401 421.508 270.653Z" fill="white"/>
<path d="M421.486 268.823C422.356 269.326 422.356 270.151 421.486 270.654L409.033 277.888C408.163 278.392 406.743 278.392 405.873 277.888L387.651 267.381C386.781 266.877 386.781 266.053 387.651 265.549L400.104 258.315C400.974 257.812 402.394 257.812 403.264 258.315L421.486 268.823Z" fill="#293896"/>
<path d="M420.567 270.174L403.283 260.147C402.413 259.644 400.994 259.644 400.124 260.147L388.266 266.969L387.694 266.534C387.51 266.259 387.922 265.87 388.357 265.618L400.124 258.865C400.994 258.361 402.413 258.361 403.283 258.865L420.453 268.846C421.116 269.19 421.391 269.51 421.208 269.739C421.208 269.739 420.59 270.151 420.567 270.151V270.174Z" fill="#0E1A68"/>
<path d="M426.791 264.885C426.471 265.045 424.8 266.396 423.953 266.396C423.358 266.396 422.281 266.739 420.954 266.808C419.42 266.899 419.74 268.983 417.84 270.287C416.581 271.134 417.634 272.668 419.145 271.981C420.862 271.203 421.389 269.944 421.595 270.379C421.801 270.791 421.709 271.982 420.175 272.668C418.642 273.355 416.101 275.026 416.101 275.026C416.101 275.026 415.986 275.942 417.039 275.873C418.092 275.805 421.755 275.438 422.579 275.461C423.403 275.461 425.876 273.813 426.654 271.867C426.998 271.02 429.516 271.707 429.859 270.448C430.202 269.189 427.661 264.473 426.814 264.885H426.791Z" fill="#5B68B7"/>
<path d="M404.609 258.591C404.609 258.591 403.442 257.698 402.068 256.988C401.542 256.713 399.916 256.026 399.046 257.629C397.764 260.01 397.467 260.399 398.199 260.811C398.955 261.223 400.374 260.513 400.717 259.14C401.107 257.652 404.586 259.14 404.586 258.591H404.609Z" fill="#5B68B7"/>
<path d="M399.642 266.275C401.2 267.155 403.69 267.13 405.204 266.218C406.718 265.307 406.682 263.855 405.125 262.975C403.568 262.095 401.078 262.12 399.564 263.031C398.05 263.942 398.084 265.395 399.642 266.275Z" fill="#C5CDFF"/>
<path d="M397.018 263.27C396.986 263.334 396.953 263.399 396.921 263.462C396.343 264.608 396.845 265.896 398.414 266.782L398.484 266.53C396.943 265.661 396.45 264.395 397.018 263.27Z" fill="#C5CDFF"/>
<path d="M407.84 263.432C407.808 263.369 407.775 263.304 407.741 263.239C408.301 264.334 407.855 265.569 406.393 266.45C404.24 267.746 400.699 267.782 398.484 266.531L398.414 266.783C400.669 268.057 404.275 268.021 406.467 266.702C407.957 265.805 408.411 264.547 407.84 263.432Z" fill="#C5CDFF"/>
<path d="M398.483 266.531L399.641 266.275C398.083 265.395 398.048 263.943 399.563 263.032C401.077 262.121 403.567 262.095 405.124 262.975C406.682 263.855 406.718 265.308 405.203 266.219C403.689 267.13 401.199 267.155 399.641 266.275L398.483 266.531C400.698 267.783 404.238 267.747 406.392 266.451C408.546 265.156 408.494 263.09 406.28 261.839C404.065 260.588 400.525 260.624 398.371 261.919C396.218 263.215 396.268 265.28 398.483 266.531Z" fill="white"/>
<path d="M403.54 262.998C403.902 262.774 404.507 262.628 405.121 262.886C405.324 262.971 405.988 263.306 406.029 264.043C406.03 264.277 405.881 264.51 405.58 264.691C404.969 265.059 403.963 265.069 403.333 264.714C403.014 264.533 402.853 264.292 402.852 264.052C402.867 263.496 403.29 263.153 403.54 262.998Z" fill="#9694FF"/>
<path d="M399.424 262.869C399.786 262.646 400.391 262.499 401.005 262.756C401.207 262.841 401.872 263.177 401.912 263.914C401.913 264.148 401.763 264.381 401.463 264.562C400.851 264.929 399.845 264.94 399.216 264.585C398.896 264.404 398.736 264.163 398.735 263.923C398.75 263.366 399.173 263.023 399.424 262.869Z" fill="#9694FF"/>
<path d="M401.395 264.484C401.757 264.261 402.362 264.114 402.975 264.372C403.178 264.457 403.842 264.792 403.883 265.529C403.884 265.763 403.734 265.996 403.433 266.177C402.822 266.545 401.816 266.555 401.187 266.2C400.867 266.019 400.707 265.778 400.705 265.538C400.721 264.981 401.144 264.639 401.395 264.484Z" fill="#9694FF"/>
<path d="M404.694 263.293C404.694 263.516 404.874 263.698 405.097 263.698C405.319 263.698 405.5 263.516 405.5 263.293C405.5 263.069 405.319 262.887 405.097 262.887C404.874 262.887 404.694 263.069 404.694 263.293Z" fill="#0E1A68"/>
<path d="M403.481 263.657C403.481 263.881 403.662 264.063 403.884 264.063C404.106 264.063 404.287 263.881 404.287 263.657C404.287 263.433 404.106 263.251 403.884 263.251C403.662 263.251 403.481 263.433 403.481 263.657Z" fill="#0E1A68"/>
<path d="M401.508 265.128C401.508 265.351 401.689 265.533 401.911 265.533C402.134 265.533 402.314 265.351 402.314 265.128C402.314 264.904 402.134 264.722 401.911 264.722C401.689 264.722 401.508 264.904 401.508 265.128Z" fill="#0E1A68"/>
<path d="M402.719 265.455C402.719 265.679 402.9 265.861 403.122 265.861C403.345 265.861 403.525 265.679 403.525 265.455C403.525 265.231 403.345 265.049 403.122 265.049C402.9 265.049 402.719 265.231 402.719 265.455Z" fill="#0E1A68"/>
<path d="M400.303 263.293C400.303 263.516 400.484 263.698 400.706 263.698C400.929 263.698 401.109 263.516 401.109 263.293C401.109 263.069 400.929 262.887 400.706 262.887C400.484 262.887 400.303 263.069 400.303 263.293Z" fill="#0E1A68"/>
<path d="M399.104 263.862C399.104 264.086 399.285 264.268 399.507 264.268C399.729 264.268 399.91 264.086 399.91 263.862C399.91 263.638 399.729 263.456 399.507 263.456C399.285 263.456 399.104 263.638 399.104 263.862Z" fill="#0E1A68"/>
<path d="M404.464 273.064C406.022 273.944 408.512 273.919 410.026 273.007C411.54 272.096 411.504 270.644 409.948 269.764C408.39 268.884 405.9 268.909 404.386 269.82C402.871 270.733 402.907 272.184 404.464 273.064Z" fill="#C5CDFF"/>
<path d="M401.84 270.06C401.808 270.124 401.775 270.189 401.743 270.252C401.165 271.398 401.667 272.686 403.236 273.572L403.307 273.32C401.766 272.449 401.272 271.185 401.84 270.06Z" fill="#C5CDFF"/>
<path d="M412.662 270.221C412.63 270.158 412.597 270.093 412.563 270.028C413.123 271.123 412.678 272.358 411.215 273.239C409.063 274.535 405.521 274.571 403.306 273.32L403.236 273.572C405.491 274.846 409.097 274.81 411.289 273.491C412.78 272.594 413.233 271.336 412.662 270.221Z" fill="#C5CDFF"/>
<path d="M403.307 273.32L404.465 273.063C402.908 272.183 402.872 270.731 404.387 269.82C405.901 268.909 408.391 268.884 409.949 269.764C411.506 270.644 411.541 272.096 410.027 273.007C408.513 273.918 406.023 273.943 404.465 273.063L403.307 273.32C405.523 274.571 409.063 274.535 411.216 273.239C413.37 271.944 413.319 269.878 411.104 268.627C408.889 267.376 405.349 267.412 403.195 268.708C401.042 270.004 401.092 272.068 403.307 273.32Z" fill="white"/>
<path d="M406.231 268.331C405.978 268.478 405.847 268.659 405.664 268.836C405.462 269.033 405.21 269.209 405.09 269.439C404.963 269.681 404.999 269.966 405.286 270.156C405.505 270.306 405.862 270.376 406.055 270.541C406.424 270.845 406.089 271.324 406.495 271.605C406.701 271.748 407.028 271.799 407.335 271.839C407.705 271.894 408.081 271.945 408.457 271.995C408.883 272.054 409.329 272.116 409.768 272.072C410.295 272.021 410.754 271.827 411.188 271.64C411.329 271.579 411.473 271.519 411.597 271.447C411.649 271.416 411.698 271.384 411.742 271.348C411.887 271.234 411.982 271.084 411.92 270.945C411.87 270.821 411.72 270.726 411.571 270.631C410.408 269.906 409.245 269.182 408.076 268.461C407.832 268.304 407.557 268.143 407.199 268.11C406.855 268.077 406.503 268.172 406.258 268.315C406.248 268.321 406.24 268.326 406.231 268.331Z" fill="#5B68B7"/>
<path d="M404.946 269.078C404.693 269.225 404.562 269.406 404.379 269.583C404.177 269.781 403.925 269.957 403.805 270.187C403.677 270.429 403.714 270.714 404.001 270.904C404.22 271.054 404.576 271.123 404.77 271.288C405.139 271.592 404.804 272.071 405.21 272.353C405.416 272.495 405.743 272.547 406.05 272.587C406.42 272.642 406.795 272.694 407.172 272.744C407.598 272.803 408.044 272.865 408.483 272.821C409.01 272.769 409.469 272.575 409.903 272.389C410.044 272.327 410.188 272.268 410.312 272.196C410.364 272.165 410.413 272.132 410.457 272.096C410.602 271.983 410.697 271.833 410.635 271.694C410.585 271.57 410.435 271.475 410.285 271.379C409.123 270.655 407.96 269.93 406.791 269.21C406.547 269.053 406.272 268.891 405.914 268.859C405.569 268.827 405.217 268.921 404.972 269.064C404.963 269.068 404.955 269.073 404.946 269.078Z" fill="#95ADFB"/>
<path d="M403.661 269.825C403.408 269.972 403.277 270.153 403.094 270.33C402.892 270.528 402.64 270.704 402.519 270.934C402.392 271.176 402.429 271.461 402.716 271.651C402.934 271.801 403.291 271.87 403.485 272.035C403.854 272.339 403.518 272.818 403.925 273.1C404.131 273.242 404.458 273.294 404.765 273.334C405.134 273.389 405.51 273.441 405.887 273.491C406.313 273.55 406.759 273.612 407.198 273.568C407.724 273.516 408.183 273.322 408.617 273.136C408.759 273.075 408.903 273.015 409.027 272.943C409.079 272.912 409.129 272.879 409.172 272.843C409.317 272.73 409.412 272.58 409.35 272.441C409.3 272.317 409.15 272.222 409 272.126C407.837 271.402 406.674 270.678 405.505 269.957C405.262 269.8 404.987 269.638 404.629 269.606C404.284 269.574 403.932 269.668 403.687 269.811C403.678 269.815 403.669 269.82 403.661 269.825Z" fill="#5B68B7"/>
<path d="M405.212 268.822C405.212 269.209 405.524 269.523 405.908 269.523C406.292 269.523 406.604 269.209 406.604 268.822C406.604 268.436 406.292 268.122 405.908 268.122C405.524 268.122 405.212 268.436 405.212 268.822Z" fill="#9694FF"/>
<path d="M407.988 272.05C407.988 272.437 408.299 272.75 408.683 272.75C409.067 272.75 409.379 272.437 409.379 272.05C409.379 271.663 409.067 271.35 408.683 271.35C408.298 271.35 407.988 271.663 407.988 272.05Z" fill="#9694FF"/>
<path d="M403.644 270.64C403.644 271.027 403.955 271.34 404.34 271.34C404.724 271.34 405.035 271.027 405.035 270.64C405.035 270.253 404.724 269.939 404.34 269.939C403.955 269.939 403.644 270.253 403.644 270.64Z" fill="#9694FF"/>
<path d="M404.445 272.387C404.445 272.774 404.756 273.087 405.14 273.087C405.524 273.087 405.836 272.774 405.836 272.387C405.836 272 405.524 271.687 405.14 271.687C404.755 271.687 404.445 272 404.445 272.387Z" fill="#9694FF"/>
<path d="M409.115 269.677C409.115 270.064 409.426 270.377 409.81 270.377C410.194 270.377 410.506 270.064 410.506 269.677C410.506 269.29 410.194 268.977 409.81 268.977C409.426 268.977 409.115 269.29 409.115 269.677Z" fill="#9694FF"/>
</svg>
