<svg width="705" height="468" viewBox="0 0 705 468" fill="none" xmlns="http://www.w3.org/2000/svg">
<rect width="705" height="468" fill="#E0E6F9"/>
<g opacity="0.29" style="mix-blend-mode:multiply">
<path d="M337.91 205.844L422.679 150.839C424.35 149.752 426.486 149.743 428.175 150.803L472.837 179.028C474.095 179.821 474.086 181.71 472.829 182.486L434.695 206.12L446.065 212.644L425.918 224.845L414.987 218.33L387.698 235.245C385.993 236.306 383.848 236.332 382.116 235.307L337.979 209.266C336.704 208.518 336.67 206.637 337.902 205.835L337.91 205.844Z" fill="#BBD2E9"/>
</g>
<path d="M431.93 91.7432C431.93 90.4777 432.369 89.5776 433.066 89.1587L435.832 87.4922C435.134 87.9111 434.695 88.8112 434.695 90.0767V91.8234L431.921 93.49V91.7343L431.93 91.7432Z" fill="#0C1342"/>
<path d="M438.528 94.7997L441.293 93.1332L434.686 91.832L431.921 93.4986L438.528 94.7997Z" fill="#0E1A68"/>
<path d="M434.643 85.3885C435.659 84.7825 437.055 84.8627 438.605 85.7896L441.31 87.4027L438.545 89.0692L435.84 87.4561C434.298 86.5382 432.894 86.4491 431.878 87.064L434.643 85.3975V85.3885Z" fill="#95ADFB"/>
<path d="M460.295 107.865L463.06 106.207L463.069 102.455L460.304 104.122L460.295 107.865Z" fill="#0C1342"/>
<path d="M466.91 115.003L469.675 113.337L463.06 106.207L460.295 107.865L466.91 115.003Z" fill="#0E1A68"/>
<path d="M460.312 102.126L463.078 100.468V100.165L460.312 101.832V102.126Z" fill="#5B68B7"/>
<path d="M441.499 86.6808C441.62 86.6095 441.775 86.6185 441.947 86.7254L462.448 99.0419L459.683 100.708L439.182 88.392C439.01 88.285 438.855 88.2761 438.734 88.3474L441.499 86.6808Z" fill="#95ADFB"/>
<path d="M460.312 101.831L463.077 100.165C463.077 99.755 462.802 99.247 462.449 99.042L459.684 100.709C460.037 100.914 460.312 101.422 460.312 101.831Z" fill="#5B68B7"/>
<path d="M430.259 90.7443C430.259 87.0903 432.774 85.6109 435.849 87.4468L438.554 89.0599V88.7569C438.554 88.3469 438.838 88.1776 439.183 88.3826L459.683 100.699C460.037 100.904 460.312 101.412 460.312 101.822V102.125L463.034 103.756C466.101 105.592 468.599 110.057 468.59 113.711L468.564 134.289L468.539 145.536L430.207 122.569L430.259 93.1594V90.7443ZM460.295 107.864L466.91 114.994V112.704C466.919 110.146 465.188 107.027 463.026 105.743L460.304 104.112V107.864H460.295ZM431.921 93.4981L438.528 94.7993V91.0473L435.84 89.4342C433.687 88.1509 431.93 89.1847 431.93 91.7424V93.4981H431.921Z" fill="#293896"/>
<path d="M463.078 100.468L465.799 102.099C468.875 103.935 471.364 108.4 471.355 112.053L471.338 116.732L471.304 143.878L468.539 145.545L468.565 134.298L468.59 113.72C468.59 110.066 466.11 105.601 463.034 103.765L460.312 102.134L463.078 100.468Z" fill="#95ADFB"/>
<path d="M468.47 166.524L468.435 169.893L466.497 171.15L466.54 167.781L468.47 166.524Z" fill="#B59983"/>
<path d="M466.54 167.781L466.497 171.15L426.383 147.043L426.417 143.674L466.54 167.781Z" fill="#293896"/>
<path d="M468.471 166.524L466.541 167.781L426.418 143.674L428.347 142.417L468.471 166.524Z" fill="#0E1A68"/>
<path d="M384.451 215.13L384.494 218.499L386.424 219.764L386.381 216.386L384.451 215.13Z" fill="#0E1A68"/>
<path d="M386.381 216.387L386.424 219.764L471.606 168.671L471.563 165.303L386.381 216.387Z" fill="#5B68B7"/>
<path d="M384.451 215.13L386.381 216.387L471.563 165.303L469.633 164.037L384.451 215.13Z" fill="#0E1A68"/>
<path d="M339.211 177.156C339.211 177.967 339.728 178.778 340.753 179.393L377.49 201.406C379.549 202.636 382.874 202.636 384.916 201.406L471.881 148.861C472.897 148.255 473.405 147.452 473.405 146.65L473.388 153.138C473.388 153.94 472.88 154.734 471.864 155.349L384.898 207.894C382.857 209.124 379.532 209.124 377.473 207.894L340.735 185.881C339.702 185.266 339.185 184.455 339.193 183.644L339.211 177.156Z" fill="#5B68B7"/>
<path d="M471.855 144.414C473.914 145.644 473.923 147.64 471.881 148.861L384.916 201.406C382.874 202.636 379.549 202.636 377.491 201.406L340.753 179.393C338.703 178.173 338.694 176.176 340.736 174.946L427.701 122.401C429.742 121.171 433.067 121.171 435.117 122.401L471.855 144.414Z" fill="#293896"/>
<path d="M392.539 208.918C392.953 209.489 393.616 209.819 394.288 209.819C394.667 209.819 395.037 209.712 395.373 209.515L464.154 168.484C466.144 167.308 467.032 164.839 466.273 162.611L465.007 158.886C464.508 157.425 463.172 156.453 461.682 156.453C461.062 156.453 460.451 156.622 459.908 156.952L398.035 194.579C396.071 195.764 394.598 197.76 394.004 200.024L392.186 206.94C392.005 207.626 392.134 208.348 392.556 208.909L392.539 208.918ZM463.388 159.474L464.663 163.2C465.145 164.625 464.577 166.203 463.31 166.952L394.538 207.983C394.46 208.027 394.383 208.054 394.296 208.054C394.141 208.054 393.995 207.974 393.9 207.849C393.831 207.76 393.771 207.617 393.823 207.421L395.64 200.505C396.123 198.678 397.303 197.074 398.888 196.121L460.761 158.485C461.045 158.316 461.355 158.227 461.674 158.227C462.44 158.227 463.138 158.735 463.388 159.483V159.474Z" fill="#C5CDFF"/>
<path d="M435.005 112.758L469.021 133.674L461.286 141.428C458.039 144.627 453.06 151.285 453.99 155.83L419.974 134.913C418.45 127.489 422.55 125.012 435.005 112.758Z" fill="#5B68B7"/>
<path d="M461.286 141.428C458.323 144.343 453.017 151.089 453.991 155.83L469.03 145.947V133.675L461.286 141.428Z" fill="#0E1A68"/>
<path d="M382.763 228.179C383.124 227.341 383.615 226.539 384.193 225.862C384.675 225.292 385.226 224.801 385.803 224.463C386.828 223.848 387.75 223.794 388.422 224.195L389.955 225.149C389.283 224.739 388.362 224.801 387.337 225.416C386.759 225.755 386.217 226.245 385.726 226.815C385.149 227.502 384.666 228.295 384.304 229.142C383.9 230.086 383.658 231.084 383.667 232.011C383.667 233.214 384.081 234.061 384.744 234.453L383.211 233.508C382.547 233.107 382.134 232.261 382.134 231.058C382.134 230.14 382.366 229.142 382.771 228.188L382.763 228.179Z" fill="#0E1A68"/>
<path d="M387.328 225.407C385.295 226.619 383.65 229.569 383.658 231.993C383.658 234.408 385.321 235.389 387.354 234.168C389.395 232.947 391.032 230.006 391.032 227.591C391.032 225.167 389.378 224.186 387.336 225.407H387.328Z" fill="#293896"/>
<path d="M387.449 227.056C386.183 227.804 385.157 229.64 385.166 231.146C385.166 232.652 386.2 233.258 387.457 232.501C388.724 231.752 389.749 229.916 389.74 228.419C389.74 226.913 388.706 226.307 387.449 227.065V227.056Z" fill="#5B68B7"/>
<path d="M387.638 232.422V217.209L391.393 213.546L391.29 227.645C391.29 227.645 390.963 232.199 387.646 232.422H387.638Z" fill="#5B68B7"/>
<path d="M340.365 203.419C340.727 202.582 341.209 201.771 341.786 201.093C342.269 200.523 342.811 200.042 343.397 199.694C344.422 199.079 345.344 199.026 346.016 199.427L347.549 200.38C346.877 199.97 345.955 200.033 344.93 200.648C344.353 200.995 343.811 201.477 343.32 202.047C342.742 202.733 342.251 203.526 341.898 204.373C341.493 205.318 341.261 206.316 341.261 207.243C341.261 208.446 341.674 209.292 342.338 209.685L340.804 208.74C340.141 208.339 339.728 207.492 339.728 206.289C339.728 205.371 339.96 204.373 340.365 203.419Z" fill="#0E1A68"/>
<path d="M344.93 200.648C342.897 201.86 341.252 204.809 341.261 207.234C341.261 209.649 342.923 210.629 344.956 209.408C346.989 208.196 348.634 205.246 348.626 202.822C348.626 200.398 346.972 199.418 344.93 200.639V200.648Z" fill="#293896"/>
<path d="M345.051 202.296C343.785 203.045 342.76 204.881 342.769 206.387C342.769 207.893 343.802 208.499 345.068 207.741C346.335 206.993 347.351 205.157 347.351 203.651C347.351 202.145 346.326 201.539 345.06 202.296H345.051Z" fill="#5B68B7"/>
<path d="M345.231 207.662V192.449L348.987 188.786L348.884 202.894C348.884 202.894 348.565 207.448 345.231 207.671V207.662Z" fill="#5B68B7"/>
<path d="M419.035 155.928C419.397 155.09 419.888 154.288 420.456 153.611C420.939 153.041 421.49 152.55 422.067 152.212C423.092 151.597 424.014 151.543 424.686 151.944L426.219 152.889C425.547 152.488 424.617 152.541 423.6 153.156C423.023 153.504 422.48 153.985 421.989 154.556C421.412 155.233 420.921 156.035 420.568 156.882C420.163 157.826 419.931 158.824 419.931 159.751C419.931 160.954 420.344 161.801 421.007 162.193L419.474 161.249C418.811 160.848 418.397 160.001 418.397 158.798C418.397 157.88 418.63 156.882 419.035 155.937V155.928Z" fill="#93CCE5"/>
<path d="M423.6 153.156C421.559 154.368 419.922 157.318 419.931 159.742C419.931 162.157 421.593 163.138 423.626 161.917C425.668 160.705 427.304 157.755 427.304 155.34C427.304 152.916 425.642 151.935 423.609 153.156H423.6Z" fill="#83BDD2"/>
<path d="M423.712 154.796C422.446 155.545 421.43 157.381 421.43 158.887C421.43 160.393 422.455 160.999 423.721 160.241C424.987 159.484 426.012 157.657 426.004 156.151C426.004 154.645 424.97 154.039 423.704 154.796H423.712Z" fill="#A6DAE8"/>
<path d="M423.901 160.161V144.939L427.657 141.276L427.554 155.384C427.554 155.384 427.226 159.938 423.901 160.161Z" fill="#A6DAE8"/>
<path d="M343.19 190.551L343.234 193.92L345.163 195.176L345.129 191.807L343.19 190.551Z" fill="#0E1A68"/>
<path d="M345.129 191.808L345.163 195.176L430.345 144.093L430.311 140.715L345.129 191.808Z" fill="#5B68B7"/>
<path d="M343.19 190.551L345.129 191.807L430.311 140.715L428.372 139.458L343.19 190.551Z" fill="#0E1A68"/>
<path d="M390.23 212.697L390.196 216.066L388.258 217.323L388.301 213.954L390.23 212.697Z" fill="#0E1A68"/>
<path d="M388.301 213.954L388.258 217.323L348.144 193.215L348.178 189.847L388.301 213.954Z" fill="#5B68B7"/>
<path d="M390.231 212.697L388.302 213.954L348.179 189.846L350.108 188.59L390.231 212.697Z" fill="#0E1A68"/>
<path d="M396.932 166.355C399.379 165.187 407.837 157.372 410.93 157.621L417.08 159.671C415.814 165.045 412.454 166.221 407.906 167.389C402.557 168.77 395.244 175.151 394.408 176.586C393.159 178.743 387.078 184.099 383.762 186.247C379.713 188.885 376.785 194.25 376.785 194.25C376.785 194.25 376.242 195.123 375.389 195.497C372.822 196.647 366.302 198.019 365.802 195.408C365.664 194.677 366.543 193.795 369.041 193.269C370.307 193.002 372.374 192.262 373.038 192.013C374.993 191.237 376.81 188.724 376.81 188.724L389.214 172.772C389.214 172.772 391.747 168.841 396.932 166.355Z" fill="#E8C5AC"/>
<path d="M391.919 158.316C394.365 157.148 402.824 149.332 405.916 149.573L412.067 151.623C410.792 156.997 408.535 155.99 403.987 157.166C398.638 158.547 390.05 167.014 389.395 168.547C388.034 171.746 381.66 175.658 378.343 177.806C374.295 180.444 371.78 186.21 371.78 186.21C371.78 186.21 371.228 187.084 370.384 187.458C367.817 188.608 361.297 189.98 360.797 187.369C360.659 186.638 361.529 185.747 364.027 185.23C365.302 184.963 367.37 184.223 368.033 183.964C369.988 183.189 371.797 180.676 371.797 180.676L384.201 164.723C384.201 164.723 386.725 160.793 391.919 158.307V158.316Z" fill="#E8C5AC"/>
<path d="M422.601 154.697C422.601 154.697 421.12 164.964 409.801 168.422C398.491 171.88 395.338 174.847 393.883 177.592C391.686 181.728 377.835 192.529 377.835 192.529C377.835 192.529 376.957 192.529 376.259 191.682C375.527 190.791 375.716 189.891 375.716 189.891C375.716 189.891 387.448 174.099 389.395 171.764C391.342 169.429 403.211 161.355 405.813 159.207C408.423 157.068 409.388 156.907 408.423 157.068C407.449 157.228 399.439 161.978 395.752 164.171C392.065 166.372 392.909 165.989 388.37 170.801C383.822 175.614 372.004 185.8 372.004 185.8C372.004 185.8 369.333 185.212 369.686 182.975C369.842 181.968 381.513 167.548 385.01 163.574C388.508 159.599 402.781 149.724 406.192 148.548C409.594 147.372 412.256 146.347 412.325 145.34C412.385 144.333 421.499 152.059 423.661 151.952C424.091 151.935 422.592 154.688 422.592 154.688L422.601 154.697Z" fill="#A01F1F"/>
<path d="M421.103 128.693C421.103 128.693 416.477 122.713 429.338 114.656C434.549 111.386 438.201 106.609 445.626 110.102C446.686 110.601 450.476 112.508 460.115 121.216C461.596 122.552 462.88 122.74 463.776 123.292C464.301 123.613 465.24 124.727 463.715 126.019C461.993 127.49 460.623 130.644 460.201 133.104C459.942 134.61 458.848 141.597 452.776 145.697C448.744 148.415 446.617 148.87 442.396 146.615C437.779 144.146 425.694 134.022 425.694 134.022C425.694 134.022 421.206 129.727 421.094 128.684L421.103 128.693Z" fill="#5B68B7"/>
<path d="M463.715 126.028C465.24 124.727 464.292 123.622 463.775 123.301C462.879 122.74 461.596 122.561 460.114 121.225C459.899 121.028 459.692 120.85 459.485 120.663C462.147 124.014 462.294 124.985 460.734 125.627C458.202 126.67 456.652 128.452 457.091 130.163C457.547 131.937 457.634 134.441 455.825 137.462C454.016 140.483 451.216 143.059 445.454 144.957C443.085 145.742 441.439 145.644 441.009 145.813C441.25 145.964 441.474 146.098 441.681 146.232C441.715 146.25 441.75 146.267 441.784 146.294C441.999 146.419 442.206 146.544 442.396 146.642C443.808 147.39 445.247 147.854 446.66 148.059C448.589 148.175 450.338 147.364 452.775 145.715C458.848 141.615 459.942 134.628 460.2 133.122C460.622 130.662 461.992 127.516 463.715 126.037V126.028Z" fill="#293896"/>
<path d="M423.187 150.242C423.187 150.242 419.923 148.45 418.389 148.522C416.856 148.584 415.702 149.315 415.702 149.315C415.702 149.315 415.125 150.509 415.702 150.438C416.279 150.375 418.32 149.983 418.32 149.983L420.181 150.571L423.187 150.242Z" fill="#E8C5AC"/>
<path d="M424.72 137.524C428.398 139.663 434.109 145.126 436.581 149.154C439.053 153.182 442.852 159.474 446.367 161.346C449.881 163.217 451.406 169.901 450.923 173.832C450.449 177.762 450.828 180.516 445.979 180.222C441.138 179.927 436.349 182.441 430.982 183.483C420.491 185.515 419.776 190.194 413.694 193.019C400.11 199.338 395.855 203.188 389.11 206.53C382.357 209.872 360.409 188.011 359.858 184.17C359.298 180.32 359.143 167.54 365 162.914C369.859 159.082 379.825 151.213 379.825 151.213L408.319 133.273C408.319 133.273 413.849 131.196 424.711 137.515L424.72 137.524Z" fill="#0E1A68"/>
<path d="M340.926 172.05C340.926 170.704 341.391 169.75 342.14 169.305L345.078 167.54C344.328 167.986 343.872 168.939 343.872 170.285V172.148L340.926 173.912V172.05Z" fill="#0C1342"/>
<path d="M347.946 175.294L350.883 173.529L343.863 172.139L340.926 173.912L347.946 175.294Z" fill="#0E1A68"/>
<path d="M343.82 165.294C344.897 164.644 346.387 164.742 348.032 165.713L350.901 167.433L347.963 169.207L345.095 167.487C343.45 166.506 341.96 166.417 340.883 167.068L343.82 165.303V165.294Z" fill="#95ADFB"/>
<path d="M370.729 188.974L373.667 187.209L373.684 183.226L370.747 184.99L370.729 188.974Z" fill="#0C1342"/>
<path d="M377.767 196.558L380.704 194.793L373.667 187.209L370.729 188.974L377.767 196.558Z" fill="#0E1A68"/>
<path d="M370.747 182.877L373.693 181.113V180.792L370.756 182.557L370.747 182.877Z" fill="#5B68B7"/>
<path d="M351.099 166.667C351.219 166.595 351.391 166.604 351.572 166.72L373.021 179.598L370.083 181.362L348.644 168.485C348.454 168.369 348.291 168.36 348.17 168.431L351.116 166.667H351.099Z" fill="#95ADFB"/>
<path d="M370.755 182.556L373.692 180.792C373.692 180.355 373.4 179.82 373.029 179.598L370.092 181.362C370.462 181.585 370.764 182.129 370.764 182.565L370.755 182.556Z" fill="#5B68B7"/>
<path d="M339.151 170.98C339.168 167.103 341.83 165.526 345.095 167.477L347.963 169.197V168.885C347.963 168.44 348.264 168.262 348.635 168.484L370.075 181.362C370.445 181.585 370.747 182.129 370.747 182.565V182.886L373.641 184.615C376.905 186.567 379.55 191.317 379.541 195.203L379.516 200.176L379.481 211.494L339.091 187.289L339.143 173.564V170.989L339.151 170.98ZM370.729 188.973L377.758 196.557V194.124C377.775 191.406 375.923 188.091 373.632 186.718L370.738 184.989L370.721 188.973H370.729ZM340.926 173.912L347.954 175.293V171.309L345.095 169.598C342.812 168.235 340.943 169.331 340.934 172.049V173.912H340.926Z" fill="#5B68B7"/>
<path d="M373.693 181.113L376.587 182.842C379.851 184.794 382.504 189.535 382.496 193.421L382.47 198.394L382.444 209.712L379.507 211.477L379.541 200.158L379.567 195.186C379.567 191.3 376.931 186.55 373.667 184.598L370.772 182.869L373.71 181.104L373.693 181.113Z" fill="#95ADFB"/>
<mask id="mask0_2067_297676" style="mask-type:luminance" maskUnits="userSpaceOnUse" x="363" y="193" width="4" height="7">
<path d="M363.451 199.668L364.605 198.973C365.975 198.144 366.819 196.398 366.828 193.911L365.682 194.606C365.674 197.102 364.821 198.848 363.451 199.677V199.668Z" fill="white"/>
</mask>
<g mask="url(#mask0_2067_297676)">
<path d="M363.451 199.668L364.605 198.973C365.975 198.144 366.819 196.398 366.828 193.911L365.682 194.606C365.674 197.102 364.821 198.848 363.451 199.677V199.668Z" fill="#0C1342"/>
</g>
<path d="M365.682 194.598L366.827 193.902L366.862 179.465L365.716 180.151L365.682 194.598Z" fill="#0C1342"/>
<path d="M365.716 180.151L366.862 179.465L351.615 170.356L350.461 171.043L365.716 180.151Z" fill="#0C1342"/>
<path d="M350.461 171.043L350.427 185.489C350.418 190.498 353.829 196.603 358.033 199.116C362.245 201.638 365.665 199.597 365.682 194.598L365.716 180.151L350.47 171.043H350.461Z" fill="#0E1A68"/>
<path d="M364.2 181.675L351.985 174.795L351.942 181.622L364.148 188.707L364.2 181.675Z" fill="#5B68B7"/>
<path d="M351.942 181.622L353.364 178.895L364.174 185.142L364.148 188.707L351.942 181.622Z" fill="#5B68B7"/>
<path d="M352.839 178.903V175.561L363.675 181.683L363.649 185.15L352.839 178.903Z" fill="#BDDAFC"/>
<path d="M352.89 180.98L353.458 179.901L357.119 181.915L356.456 183.003L352.89 180.98Z" fill="#95ADFB"/>
<path d="M357.498 183.297C357.498 183.663 357.774 183.957 358.118 183.957C358.463 183.957 358.738 183.663 358.738 183.297C358.738 182.932 358.463 182.629 358.118 182.629C357.774 182.629 357.498 182.923 357.498 183.297Z" fill="#C5CDFF"/>
<path d="M358.971 184.179C358.971 184.545 359.246 184.848 359.591 184.848C359.936 184.848 360.211 184.553 360.211 184.179C360.211 183.805 359.936 183.511 359.591 183.511C359.246 183.511 358.971 183.814 358.971 184.179Z" fill="#C5CDFF"/>
<path d="M360.444 185.071C360.444 185.436 360.72 185.73 361.065 185.73C361.409 185.73 361.676 185.436 361.676 185.071C361.676 184.705 361.4 184.402 361.065 184.402C360.729 184.402 360.444 184.696 360.444 185.071Z" fill="#9694FF"/>
<path d="M435.729 186.237C438.864 181.612 441.147 179.945 445.988 180.239C450.837 180.533 450.458 177.779 450.932 173.849C451.302 170.739 450.433 165.926 448.322 163.119C448.322 163.119 451.354 169.794 421.206 177.94C400.283 183.59 383.753 186.487 383.753 186.487C412.756 190.657 381.134 207.278 387.207 207.546C393.857 207.84 432.593 190.862 435.729 186.237Z" fill="#293896"/>
<path d="M411.513 142.323C412.278 141.409 414.211 136.767 409.962 133.537C407.954 136.087 408.464 137.744 408.475 137.935C408.475 138.116 411.513 142.333 411.513 142.333V142.323Z" fill="#C6C6C6"/>
<path d="M424.771 199.529C424.59 200.485 422.837 202.621 419.969 202.599C417.09 202.578 415.783 202.514 412.862 202.568C409.941 202.61 408.538 202.578 407.338 201.973C406.212 201.399 406.562 200.422 406.562 200.422L410.068 200.464L424.771 199.529Z" fill="#C5CDFF"/>
<path d="M409.579 168.807C410.642 169.466 413.563 167.575 413.181 165.195C412.257 164.982 411.269 165.078 411.269 165.078L409.346 167.235L409.59 168.807H409.579Z" fill="#911C1C"/>
<path d="M422.434 208.464C422.434 208.464 420.649 205.542 420.298 204.926C419.279 203.141 419.927 199.997 419.927 199.997L422.646 187.578C422.912 186.845 423.23 184.327 423.22 183.392C423.156 180.131 420.139 178.92 419.47 178.707L414.87 177.167L401.367 178.495C398.765 180.885 409.399 180.471 409.208 182.107C409.208 182.192 415.072 187.514 416.506 188.853C416.686 189.023 417.101 189.841 417.037 190.074C416.676 191.519 415.539 198.467 414.955 201.25L414.551 203.556C414.477 204.15 414.583 204.395 414.912 205.149C415.284 205.988 418.089 208.857 418.089 208.857C418.089 208.857 419.863 210.843 421.892 210.291C422.944 210.015 422.975 209.186 422.529 208.591C422.497 208.549 422.476 208.517 422.434 208.474V208.464Z" fill="white"/>
<path d="M423.135 211.852C423.931 211.491 423.729 210.535 423.698 210.429C423.379 209.515 422.667 209.568 422.667 209.568C422.986 210.11 419.108 210.535 420.723 210.418C421.722 210.344 418.768 209.515 417.706 208.729C416.952 208.177 416.251 207.061 415.804 206.498C414.413 204.777 414.487 203.438 414.487 203.438C414.487 203.438 414.296 203.927 414.2 204.745C414.062 205.935 414.53 206.201 414.53 206.201C414.53 206.201 414.052 206.572 414.88 207.412C415.794 208.346 417.292 210.121 418.779 211.098C420.011 211.916 421.977 212.362 423.135 211.831V211.852Z" fill="#0C1342"/>
<path d="M423.124 211.46C424.006 211.056 423.953 210.355 422.806 208.899C422.753 208.836 422.498 208.528 422.498 208.528C422.816 209.069 422.636 209.802 421.297 209.866C420.203 209.909 419.173 209.346 417.951 208.315C417.239 207.72 416.379 207.019 415.518 205.638C414.424 203.885 414.817 202.26 414.817 202.26C414.817 202.26 413.808 202.759 413.84 204.278C413.871 205.479 414.243 206.265 414.243 206.265L415.327 207.359C416.113 208.188 417.228 209.558 419.024 210.674C420.862 211.81 422.317 211.831 423.146 211.449L423.124 211.46Z" fill="#0E1A68"/>
<path d="M419.831 210.864C419.831 210.864 416.4 207.518 415.879 207.029C414.827 206.041 415.22 202.111 415.22 202.111L416.4 190.574C416.548 189.565 417.122 187.493 414.891 184.869L406.69 176.933C406.69 176.933 400.518 174.618 398.648 177.518C396.736 180.482 394.749 180.524 396.523 182.564C396.576 182.628 407.795 188.555 409.186 189.936C410.164 190.892 409.579 193.091 409.547 193.336C408.963 197.5 411.067 205.542 411.077 206.041V206.254L411.099 207.667C411.152 208.272 411.3 208.485 411.778 209.154C412.31 209.908 415.645 212.129 415.645 212.129C415.645 212.129 417.781 213.711 419.661 212.755C420.628 212.267 420.5 211.459 419.927 210.96C419.895 210.928 419.852 210.896 419.82 210.864H419.831Z" fill="white"/>
<path d="M421.213 214.041C421.914 213.531 421.531 212.628 421.468 212.532C420.968 211.714 420.288 211.906 420.288 211.906C420.713 212.373 416.995 213.573 418.557 213.127C419.524 212.851 416.453 212.639 415.253 212.086C414.403 211.704 413.489 210.758 412.937 210.302C411.227 208.899 411.025 207.571 411.025 207.571C411.025 207.571 410.419 207.433 410.494 208.251C410.6 209.452 410.855 209.983 410.855 209.983C410.855 209.983 411.195 211.013 411.758 211.353C413.128 212.182 415.136 213.542 416.804 214.2C418.185 214.742 420.193 214.785 421.213 214.03V214.041Z" fill="#0C1342"/>
<path d="M421.127 213.658C421.903 213.085 421.712 212.416 420.288 211.226C420.224 211.173 419.906 210.918 419.906 210.918C420.331 211.385 420.299 212.139 419.003 212.479C417.94 212.755 416.772 212.564 415.55 211.768C414.764 211.258 413.563 210.716 412.469 209.515C410.918 207.805 411.088 206.254 411.088 206.254C411.088 206.254 410.196 207.051 410.546 208.527C410.929 210.131 412.809 211.396 412.809 211.396C413.818 212.256 415.338 213.276 416.782 213.796C418.822 214.54 420.394 214.2 421.127 213.658Z" fill="#0E1A68"/>
<path d="M403.821 187.908C401.474 187.398 394.515 185.252 394.005 179.59C393.857 178.007 394.048 176.041 394.526 172.982C394.526 172.982 397.139 176.711 403.418 175.266C408.156 174.172 408.379 172.068 408.379 172.068C408.379 172.313 410.663 175.075 419.905 178.453C422.646 179.452 424.006 182.267 422.827 189.693C421.934 195.344 421.626 195.737 424.771 199.551C421.584 202.515 415.528 199.509 414.062 202.621C412.862 205.16 409.749 200.337 406.562 200.443C407.476 198.744 409.303 197.83 408.793 195.472C408.379 193.559 409.324 192.88 409.452 191.137C409.569 189.395 406.307 188.481 403.821 187.94V187.908Z" fill="#95ADFB"/>
<path d="M421.084 170.475L418.035 172.376C412.522 170.315 412.022 170.167 410.078 168.945C409.207 168.403 408.336 167.128 408.092 166.13L405.436 154.582C404.182 152.649 403.672 147.73 406.116 147.401C409.855 146.901 410.514 152.84 410.758 154.773C411.034 157.1 411.512 162.603 411.64 164.111C411.661 164.356 411.799 164.579 412.012 164.717L421.095 170.475H421.084Z" fill="white"/>
<path d="M413.18 165.206C412.989 165.163 411.916 164.929 411.863 164.048C411.81 163.166 411.608 159.936 411.746 158.449C411.874 156.962 410.694 150.907 410.025 149.876C409.356 148.846 409.451 147.295 408.198 147.103C406.955 146.923 406.158 148.899 406.158 148.899L406.732 166.321C406.732 166.321 408.495 168.541 409.579 168.818C409.579 166.395 411.268 164.887 413.18 165.206Z" fill="#5B68B7"/>
<path d="M407.89 147.772L410.004 156.844C410.004 156.844 410.461 158.65 410.291 159.66C410.057 161.073 409.484 162.432 409.431 162.549C408.814 163.856 408.549 164.748 408.793 166.979L409.558 173.268C409.558 173.268 409.069 174.957 405.107 176.062C396.215 178.548 394.197 175.255 394.197 175.255C394.112 175.117 393.995 174.501 394.09 174.065C394.345 172.843 394.547 172.036 394.802 171.122L395.833 166.48C396.035 165.811 396.141 165.109 396.151 164.419L394.93 158.449C394.93 158.449 393.23 154.316 394.675 152.521C396.066 150.8 399.647 148.133 401.006 147.432C401.346 147.252 402.101 146.997 402.982 146.827C402.982 146.827 406.169 146.423 407.901 147.762L407.89 147.772Z" fill="#293896"/>
<path d="M405.893 150.524C407.667 153.371 406.095 156.431 402.058 152.245C398.488 148.548 401.75 147.699 402.78 148.028C403.811 148.357 405.893 150.514 405.893 150.514V150.524Z" fill="white"/>
<path d="M405.893 150.524C403.428 152.437 402.419 150.195 401.197 148.325L401.643 141.622L406.785 142.631L405.903 150.524H405.893Z" fill="white"/>
<path d="M409.027 137.33C411.566 137.235 412.012 138.892 411.81 140.751C411.64 142.291 410.174 146.307 410.174 146.307C409.526 148.325 407.943 149.25 406.647 149.165C405.797 149.111 405.107 148.91 404.14 148.028C403.503 147.444 402.759 146.881 402.324 146.084C402.313 146.052 401.973 142.812 402.069 141.781C402.26 139.827 404.82 137.489 409.016 137.33H409.027Z" fill="white"/>
<path d="M428.68 168.754C428.574 168.818 416.187 166.311 416.187 166.311L410.737 173.088L411.789 173.301L416.601 167.373L428.043 169.869L428.68 168.743V168.754Z" fill="#7A7A7A"/>
<path d="M412.915 169.848C412.968 169.997 413.138 170.071 413.276 170.018C413.424 169.965 413.499 169.795 413.446 169.657C413.393 169.508 413.223 169.434 413.085 169.487C412.936 169.54 412.861 169.699 412.915 169.848Z" fill="#868787"/>
<path d="M412.978 169.827C412.904 169.912 412.936 169.996 413.053 170.018C413.159 170.039 413.318 169.986 413.393 169.89C413.467 169.805 413.435 169.72 413.318 169.699C413.202 169.678 413.053 169.731 412.978 169.827Z" fill="#6D6D6D"/>
<path d="M411.269 173.205L423.326 175.329L428.532 169.104L416.463 166.979L411.269 173.205Z" fill="#DFEAEA"/>
<path d="M415.507 166.14C415.73 165.875 416.197 165.705 416.537 165.758L429.785 168.095C430.125 168.159 430.22 168.424 429.997 168.69L424.048 175.818C423.825 176.084 423.358 176.254 423.018 176.201L409.77 173.863C409.43 173.8 409.324 173.534 409.558 173.269L415.507 166.14ZM423.273 175.17L428.467 168.945L416.41 166.82L411.215 173.045L423.273 175.17ZM426.831 172.227C426.98 172.057 426.916 171.877 426.693 171.845C426.47 171.802 426.183 171.909 426.035 172.089C425.897 172.259 425.95 172.429 426.173 172.472C426.396 172.514 426.683 172.397 426.831 172.227ZM412.979 169.752C412.904 169.837 412.936 169.922 413.042 169.943C413.159 169.965 413.308 169.912 413.382 169.816C413.457 169.731 413.425 169.646 413.308 169.625C413.191 169.603 413.042 169.657 412.979 169.742V169.752Z" fill="#A7A9AA"/>
<path d="M430.103 168.318C430.146 168.425 430.103 168.563 429.997 168.701L424.048 175.829C423.825 176.095 423.357 176.265 423.017 176.211L409.77 173.874C409.6 173.842 409.483 173.758 409.451 173.651C409.568 173.97 409.685 174.278 409.802 174.597C409.844 174.703 409.95 174.788 410.12 174.82L423.368 177.157C423.718 177.221 424.175 177.051 424.398 176.775L430.347 169.646C430.464 169.508 430.496 169.37 430.454 169.264L430.103 168.318Z" fill="#BFC1C1"/>
<mask id="mask1_2067_297676" style="mask-type:luminance" maskUnits="userSpaceOnUse" x="425" y="171" width="2" height="2">
<path d="M425.887 172.354L425.908 172.418C425.94 172.492 426.014 172.556 426.142 172.577C426.397 172.62 426.737 172.492 426.896 172.301C426.981 172.205 427.002 172.099 426.97 172.025L426.949 171.961C426.981 172.046 426.949 172.142 426.875 172.237C426.705 172.439 426.365 172.556 426.12 172.513C425.993 172.492 425.919 172.428 425.887 172.354Z" fill="white"/>
</mask>
<g mask="url(#mask1_2067_297676)">
<path d="M425.887 172.354L425.908 172.418C425.94 172.492 426.014 172.556 426.142 172.577C426.397 172.62 426.737 172.492 426.896 172.301C426.981 172.205 427.002 172.099 426.97 172.025L426.949 171.961C426.981 172.046 426.949 172.142 426.875 172.237C426.705 172.439 426.365 172.556 426.12 172.513C425.993 172.492 425.919 172.428 425.887 172.354Z" fill="#D1D1D1"/>
</g>
<path d="M425.961 172.078C425.791 172.28 425.865 172.471 426.12 172.524C426.375 172.567 426.715 172.439 426.874 172.248C427.044 172.046 426.97 171.855 426.715 171.802C426.46 171.76 426.12 171.887 425.961 172.078Z" fill="#C1C7C8"/>
<path d="M428.063 172.026L427.915 171.696L426.661 173.194L426.799 173.534L428.063 172.026Z" fill="#4F4F4F"/>
<path d="M428.063 172.025L427.723 171.93L426.661 173.194L426.799 173.534L428.063 172.025Z" fill="#5B5B5B"/>
<path d="M411.406 174.288L411.852 174.373C411.852 174.373 411.874 174.384 411.884 174.394L412.076 174.957C412.076 174.957 412.076 174.979 412.054 174.979L411.629 174.915L411.406 174.288Z" fill="#505151"/>
<path d="M411.874 174.394C411.874 174.394 411.863 174.373 411.842 174.373L411.428 174.299L411.64 174.894L412.054 174.957L411.863 174.394H411.874Z" fill="#5E6060"/>
<path d="M411.47 174.31C411.47 174.31 411.438 174.31 411.427 174.31L411.321 174.448C411.321 174.448 411.343 174.437 411.364 174.448C411.396 174.448 411.438 174.49 411.449 174.522L411.629 175.011C411.629 175.011 411.629 175.043 411.629 175.053L411.736 174.926C411.736 174.926 411.736 174.904 411.736 174.883L411.555 174.395C411.555 174.395 411.502 174.331 411.47 174.32V174.31Z" fill="#A7A9AA"/>
<path d="M411.364 174.447C411.364 174.447 411.438 174.49 411.449 174.522L411.629 175.01C411.629 175.01 411.629 175.063 411.587 175.063C411.555 175.063 411.512 175.021 411.502 174.989L411.321 174.5C411.321 174.5 411.321 174.447 411.364 174.447Z" fill="#E5E5E5"/>
<path d="M411.672 174.342L411.873 174.926L412.054 174.958L411.863 174.395C411.863 174.395 411.852 174.374 411.831 174.374L411.65 174.342H411.672Z" fill="#00D1C7"/>
<path d="M412.596 169.922C412.596 169.922 415.061 169.179 415.942 169.179C416.814 169.179 420.426 170.432 420.426 170.432C420.426 170.432 420.776 170.921 420.224 170.995C419.671 171.07 417.823 170.9 417.823 170.9C417.823 170.9 417.6 171.856 417.366 172.27C417.132 172.684 416.962 173.12 416.155 173.131C415.348 173.141 415.029 172.461 415.029 172.461C415.029 172.461 413.148 172.61 412.267 172.345C411.385 172.068 411.693 170.581 412.596 169.922Z" fill="white"/>
<path d="M413.456 169.657C413.456 169.657 412.585 170.199 412.405 170.9C412.203 171.686 412.67 172.345 412.67 172.345C412.67 172.345 402.971 174.119 397.978 172.217C396.002 171.463 395.747 169.986 395.747 169.986L393.389 156.941C392.996 152.936 394.77 151.789 396.969 152.129C399.221 152.479 399.752 157.525 399.88 159.756C399.965 161.137 400.581 164.951 400.931 166.704C401.197 168.021 401.505 168.011 402.312 168.149L413.456 169.657Z" fill="white"/>
<path d="M402.961 173.067C402.504 173.471 399.498 173.566 398.18 172.929C396.874 172.291 395.588 172.398 394.834 167.15C394.409 164.175 394.133 160.34 393.325 158.215C392.518 156.08 392.539 151.395 395.864 151.725C397.777 151.916 399.264 151.618 400.209 159.596C400.666 163.41 400.804 164.898 401.176 165.939C401.548 166.969 401.272 168.063 402.95 167.946C403.588 169.009 403.492 169.487 403.513 170.634C403.534 171.781 402.95 173.077 402.95 173.077L402.961 173.067Z" fill="#5B68B7"/>
<path d="M413.818 181.48C415.529 182.819 419.056 183.977 418.514 189.395C417.961 194.813 417.112 196.789 417.175 197.957C416.57 195.843 417.664 190.372 417.239 188.354C416.814 186.346 413.818 181.48 413.818 181.48Z" fill="#C5CDFF"/>
<path d="M411.747 135.694C410.822 133.559 407.805 131.827 405.277 131.976C401.899 132.178 399.285 133.293 398.829 137.457C398.435 141.059 400.316 143.81 401.41 145.021C401.474 143.789 401.718 142.1 402.069 141.983C402.77 142.822 403.248 142.865 403.375 142.323C403.8 140.443 405.585 138.35 408.931 138.074C411.099 137.893 411.842 139.975 411.863 140.081C411.895 140.294 412.777 138.042 411.757 135.704L411.747 135.694Z" fill="#C6C6C6"/>
<path d="M403.588 157.631C403.354 156.717 403.407 156.324 402.685 155.729C401.941 155.124 401.846 153.976 401.952 153.594C402.143 152.829 400.528 152.85 400.985 152.064C401.442 151.278 401.091 150.927 401.707 150.322C402.324 149.706 400.826 149.398 400.943 149.175C401.314 148.495 400.581 148.548 401.198 148.218C401.569 148.017 402.642 147.082 401.994 146.434C401.421 145.86 401.357 145.478 401.867 144.883C402.494 144.139 401.516 142.524 401.516 142.524C401.516 142.524 399.625 140.134 399.604 139.985C399.572 139.837 399.147 135.927 398.839 137.457C398.531 138.987 399.02 140.867 398.446 141.621C397.872 142.376 397.586 143.64 397.756 144.32C397.915 145 398.552 145.106 398.223 145.796C397.894 146.497 397.469 147.209 398 147.624C398.531 148.038 398.669 148.272 398.51 149.111C398.297 150.226 399.115 149.907 398.446 150.725C397.49 151.883 399.498 152.053 399.253 153.073C398.999 154.093 400.38 153.987 400.252 154.985C400.135 155.973 400.889 155.91 401.166 157.248C401.442 158.597 402.324 158.757 402.356 159.086C402.398 159.734 403.588 159.214 403.811 158.895C404.034 158.576 403.715 158.077 403.609 157.641L403.588 157.631Z" fill="#C6C6C6"/>
<path d="M404.225 159.724C404.575 159.873 405.138 160.244 405 161.105C404.82 162.21 403.874 162.04 404.703 162.943C403.874 162.996 402.589 162.603 402.833 161.052C403.077 159.501 403.184 159.915 402.897 159.724C402.61 159.543 404.225 159.724 404.225 159.724Z" fill="#C6C6C6"/>
<path d="M402.451 159.235C402.355 159.416 402.387 160.255 402.844 160.319C403.301 160.382 404.618 160 404.395 159.447C404.172 158.895 404.002 158.768 403.726 158.768C403.45 158.768 402.621 158.916 402.451 159.235Z" fill="#00D1C7"/>
<g opacity="0.26">
<path d="M404.693 142.164C404.416 142.207 403.822 142.047 403.715 142.408C403.673 142.568 403.949 143.545 404.055 143.673C404.268 143.959 404.682 144.119 404.693 144.119C404.735 144.119 404.82 144.384 405.553 144.31L406.138 144.098C406.902 143.991 407.136 143.163 407.147 143.163C407.147 143.163 407.274 143.003 407.402 142.6C407.476 142.366 407.476 142.185 407.402 142.1C407.317 142.005 407.115 141.994 407.051 141.994L404.693 142.175V142.164Z" fill="#859393"/>
</g>
<g opacity="0.26">
<path d="M409.579 141.973C409.324 142.005 408.75 141.856 408.644 142.207C408.602 142.366 408.867 143.29 408.974 143.418C409.175 143.683 409.579 143.832 409.579 143.832C409.622 143.832 409.707 144.087 410.408 144.013L410.96 143.811C411.693 143.715 411.916 142.919 411.927 142.919C411.927 142.919 412.044 142.77 412.171 142.377C412.235 142.154 412.246 141.984 412.171 141.899C412.086 141.803 411.906 141.793 411.842 141.803L409.59 141.973H409.579Z" fill="#859393"/>
</g>
<path d="M412.363 141.76C412.14 141.484 411.576 141.527 411.545 141.527L409.739 141.665L409.101 141.771C408.825 141.813 408.549 142.026 408.474 142.462C408.4 142.419 408.294 142.398 408.135 142.408C407.986 142.408 407.869 142.451 407.773 142.493C407.784 142.27 407.72 142.09 407.603 141.941C407.38 141.654 406.775 141.697 406.743 141.697L404.852 141.845L403.821 141.941C403.736 141.952 403.683 141.973 403.641 141.994L401.463 140.9C401.261 140.815 400.889 140.73 400.656 140.868L399.859 141.835C399.859 141.835 399.774 142.005 399.827 142.026L400.071 142.132C400.146 142.164 400.241 142.153 400.326 142.1L400.921 141.261C401.027 141.187 401.155 141.176 401.251 141.219L403.503 142.398C403.503 142.472 403.503 142.546 403.492 142.642C403.492 142.865 403.705 143.641 403.959 143.991C404.268 144.406 404.841 144.448 404.852 144.448C404.894 144.448 405.117 144.501 405.85 144.416H405.893C406.753 144.289 407.168 143.683 407.189 143.651C407.2 143.63 407.455 143.322 407.614 143.003C407.71 142.929 407.837 142.812 408.145 142.78C408.347 142.759 408.421 142.897 408.496 142.918C408.57 143.173 408.708 143.503 408.867 143.726C409.154 144.129 409.707 144.172 409.728 144.161C409.771 144.161 409.972 144.214 410.684 144.129H410.727C411.545 144.002 411.948 143.428 411.97 143.396C411.991 143.375 412.341 142.95 412.458 142.568C412.575 142.207 412.501 141.962 412.352 141.771L412.363 141.76ZM407.327 142.642C407.21 143.035 406.998 143.354 406.987 143.354C406.987 143.354 406.668 143.874 406.084 144.034C405.436 144.214 404.533 144.321 404.193 143.768C403.97 143.407 403.928 142.95 403.938 142.791C403.949 142.398 404.512 142.249 404.767 142.207L407.019 142.079C407.083 142.079 407.253 142.079 407.338 142.175C407.402 142.26 407.402 142.43 407.338 142.653L407.327 142.642ZM412.097 142.44C411.991 142.823 411.778 143.12 411.778 143.12C411.778 143.12 411.481 143.609 410.918 143.768C410.302 143.938 409.441 144.044 409.112 143.513C408.899 143.163 408.857 142.727 408.867 142.578C408.878 142.207 409.42 142.058 409.654 142.026L411.8 141.898C411.853 141.898 412.023 141.898 412.097 141.994C412.161 142.079 412.161 142.238 412.097 142.451V142.44Z" fill="#2D3E50"/>
<path d="M401.664 140.867C402.684 140.761 402.897 141.728 402.897 141.728L403.109 143.767C403.109 143.767 403.109 144.213 402.737 144.33C402.164 144.511 401.866 144.033 401.547 143.502C401.526 143.47 401.112 142.684 401.091 142.63C400.74 141.972 400.708 140.963 401.675 140.856L401.664 140.867Z" fill="white"/>
<g style="mix-blend-mode:multiply" opacity="0.27">
<path d="M477.141 225.27C478.203 225.291 485.3 229.806 482.24 232.292C479.765 234.31 478.618 235.575 476.578 238.188C474.538 240.801 468.302 241.927 463.883 241.364C459.464 240.801 459.24 236.945 459.463 233.885C459.687 230.826 463.66 224.93 477.141 225.27Z" fill="#BBD2E9"/>
</g>
<path d="M440.107 175.053L439.895 174.713L439.268 173.13L434.998 173.629C434.998 173.629 432.214 174.968 432.193 176.604C432.161 178.718 433.053 178.367 433.053 178.367C433.415 178.516 435.019 177.539 435.476 177.454C435.699 177.411 438.047 176.806 438.047 176.806C439.215 176.466 439.969 176.009 440.107 175.053Z" fill="white"/>
<path d="M438.949 172.748C438.418 172.567 437.579 176.413 439.289 176.487C449.265 176.88 455.819 172.259 455.819 172.259L463.139 163.622C464.86 161.742 466.347 158.48 464.669 157.153C462.618 155.527 459.665 157.971 458.581 159.83C457.413 161.859 453.567 166.597 452.388 168.945C452.388 168.945 440.224 173.162 438.949 172.748Z" fill="#C5CDFF"/>
<path d="M471.383 226.364C471.383 226.364 472.074 228.892 472.095 230.358C472.106 231.399 470.608 232.536 470.608 232.536C470.608 232.536 470.077 234.182 470.799 234.82C471.532 235.457 473.391 235.011 474.528 234.639C475.718 234.246 476.419 233.131 476.546 232.844C477.046 231.654 477.046 230.571 477.046 230.571L477.269 229.2L479.478 231.293C479.478 231.293 480.551 230.432 480.626 230.379C480.721 230.305 477.619 226.257 477.619 226.257C477.619 226.257 476.334 224.228 474.411 223.336C472.478 222.433 471.383 226.364 471.383 226.364Z" fill="#0E1A68"/>
<path d="M469.492 191.923C469.513 192.496 460.866 208.644 462.342 209.77C469.046 214.89 469.449 218.205 473.592 222.741C474.91 224.175 475.494 226.215 474.75 228.021C473.709 230.528 472.243 233.301 471.712 230.613C471.075 227.405 468.323 224.059 468.323 224.059C463.596 218.789 454.279 214.126 455.352 207.507C456.68 199.327 459.187 189.681 459.187 189.681L462.024 179.43C462.024 179.43 469.216 184.508 469.481 191.933L469.492 191.923Z" fill="white"/>
<path d="M468.547 229.306C468.547 229.306 466.486 231.718 465.572 232.876C464.935 233.694 462.173 236.35 462.173 236.35C462.173 236.35 461.397 237.019 461.567 237.964C461.737 238.921 462.279 239.101 463.49 239.122C465.147 239.165 466.135 238.857 467.59 238.304C468.355 238.018 468.961 237.146 468.961 237.146L470.289 235.415L470.767 238.188H472.222C472.35 238.188 472.445 233.088 472.445 233.088C472.445 233.088 472.573 230.719 471.627 228.807C470.682 226.906 468.536 229.285 468.536 229.285L468.547 229.306Z" fill="#293896"/>
<path d="M473.062 184.274C473.848 186.877 475.048 207.954 472.297 228.924C472.031 230.964 471.011 232.876 469.312 234.045C468.026 234.926 466.571 235.723 465.753 235.521C463.341 234.937 466.762 231.761 466.762 231.761C466.688 231.123 466.316 191.796 466.316 191.796C466.316 191.796 468.334 186.813 468.302 186.516L469.545 183.127L473.051 184.274H473.062Z" fill="white"/>
<path d="M462.034 157.036L460.271 165.333C460.271 165.333 459.347 168.265 459.463 169.38C459.623 170.952 461.291 174.054 461.354 174.182C462.332 176.232 455.214 204.437 455.214 204.437C455.214 204.437 458.592 207.55 461.631 208.655C468.897 211.289 476.482 209.207 476.482 209.207C476.758 208.952 476.121 186.824 474.836 182.288L473.816 177.889C473.646 177.146 473.582 175.924 473.933 174.851L475.76 168.998C475.76 168.998 477.64 163.293 476.004 161.349C473.752 158.672 471.319 157.333 469.885 156.462C469.524 156.239 468.536 156.292 467.58 156.048C467.58 156.048 462.619 156.048 462.034 157.036Z" fill="#C5CDFF"/>
<path d="M464.106 157.482C463.426 158.279 463.692 159.192 465.976 160.085C467.42 160.648 470.682 158.959 472.063 158.459C472.456 158.321 472.807 158.449 471.808 156.855L469.598 150.024L463.883 150.768C463.883 150.768 465.115 154.529 464.68 156.228C464.563 156.675 464.935 156.526 464.106 157.493V157.482Z" fill="white"/>
<path d="M465.763 159.691C466.135 160.031 465.816 160.446 465.583 160.732L464.148 162.506C463.692 163.038 463.543 162.4 463.564 161.816L463.639 157.598C463.851 155.389 464.807 155.219 464.807 155.219C464.807 155.219 464.754 155.75 464.775 156.43C464.796 157.343 464.69 158.714 465.763 159.691Z" fill="#5B68B7"/>
<path d="M472.053 154.879C472.053 154.879 471.713 155.569 471.447 156.196C470.14 159.277 466.305 159.819 466.305 159.819C465.859 159.957 465.859 160.169 465.891 160.923L466.167 163.685C466.199 164.408 466.571 164.355 466.879 164.079C466.879 164.079 469.907 161.763 470.767 160.966C472.786 159.107 473.2 158.969 472.647 156.43C472.456 155.548 472.053 154.868 472.053 154.868V154.879Z" fill="#5B68B7"/>
<path d="M473.826 176.902C473.826 176.902 474.103 177.454 474.166 178.209C474.241 178.963 467.495 180.748 465.094 180.482C462.842 180.227 461.174 177.454 461.174 177.454L461.312 176.424C461.312 176.424 464.063 178.835 464.818 179.112C465.572 179.388 468.122 179.526 473.826 176.913V176.902Z" fill="white"/>
<path d="M465.508 178.76C465.848 178.654 466.337 178.824 466.294 179.143C466.262 179.451 464.988 180.895 464.509 180.832C464.031 180.768 464.159 179.185 465.508 178.771V178.76Z" fill="white"/>
<path d="M465.37 180.407C465.37 180.407 465.03 181.512 465.232 183.679C465.444 185.847 465.402 189.246 465.03 189.862C464.648 190.478 464.138 189.692 464.138 189.692C464.138 189.692 464.52 185.974 464.276 184.221C464.032 182.468 464.924 180.333 464.924 180.333L465.37 180.407Z" fill="white"/>
<path d="M464.935 180.237C464.935 180.237 464.244 181.416 463.893 183.976C463.543 186.537 462.587 190.467 461.981 191.084C461.376 191.7 460.993 190.648 460.993 190.648C460.993 190.648 462.438 186.452 462.629 184.359C462.821 182.266 464.435 180.046 464.435 180.046L464.935 180.248V180.237Z" fill="white"/>
<path d="M474.305 185.825C474.305 185.825 469.843 187.227 467.846 186.579C467.846 186.579 468.026 193.336 468.993 193.612C469.97 193.888 473.317 192.922 473.317 192.922C473.317 192.922 469.8 193.516 469.237 193.038C468.441 192.358 468.472 187.45 468.472 187.45C468.472 187.45 472.945 187.376 474.305 185.825Z" fill="white"/>
<path d="M464.711 165.429C464.711 165.429 461.535 163.952 461.28 163.612C461.014 163.272 460.748 166.48 460.717 166.746C460.674 167.012 463.819 168.637 463.819 168.637C463.819 168.637 464.796 166.374 464.722 165.429H464.711Z" fill="white"/>
<path d="M463.861 168.796L463.914 168.679C463.957 168.584 464.902 166.374 464.828 165.418V165.354L464.764 165.322C463.543 164.759 461.545 163.771 461.365 163.537C461.322 163.484 461.269 163.474 461.237 163.474C461.046 163.474 460.908 163.675 460.632 166.406C460.61 166.576 460.6 166.692 460.6 166.735C460.589 166.82 460.547 167.075 463.755 168.743L463.861 168.796ZM464.605 165.503C464.626 166.321 463.935 168.031 463.755 168.477C462.395 167.765 460.972 166.947 460.833 166.735C460.833 166.682 460.855 166.565 460.865 166.427C461.014 164.897 461.152 163.994 461.258 163.75C461.736 164.154 464.116 165.269 464.615 165.503H464.605Z" fill="#D1E5DF"/>
<path d="M466.867 138.073C466.867 138.073 464.296 137.998 462.182 140.293C460.366 142.269 460.068 144.468 459.803 148.09C459.367 153.955 458.538 154.167 458.538 154.167C458.538 154.167 460.525 155.442 462.066 155.24C463.67 155.027 466.24 154.39 466.24 154.39C466.24 154.39 466.177 148.515 466.219 148.005C466.262 147.495 466.878 138.073 466.878 138.073H466.867Z" fill="#5B4238"/>
<path d="M465.709 141.335C461.821 141.228 461.662 144.458 461.503 146.604C461.396 148.112 461.513 150.938 461.513 150.938C461.811 153.743 462.608 155.761 464.063 156.314C465.88 156.993 468.535 155.464 470.734 153.105C472.689 151.012 472.997 149.6 473.05 149.26L473.964 141.866C473.964 141.866 467.77 141.388 465.709 141.335Z" fill="white"/>
<path d="M466.868 138.062C466.868 138.062 476.057 137.372 476.121 146.306C476.142 148.611 476.408 150.853 475.759 153.636C475.451 154.985 470.023 156.536 467.633 156.419C467.633 156.419 468.026 156.334 468.759 153.062C469.683 148.972 469.524 147.591 468.61 145.934C467.834 144.521 466.464 143.767 465.763 143.034C464.881 142.11 463.107 140.941 465.242 138.785C465.773 138.253 467.091 138.094 466.868 138.062Z" fill="#5B4238"/>
<path d="M468.249 141.589L470.268 147.474C470.268 147.474 468.005 148.165 467.091 147.974C467.091 147.974 467.07 147.039 466.783 145.721C466.751 145.562 466.316 147.209 466.539 147.899C466.581 148.037 464.797 148.016 462.513 147.124C462.035 146.932 460.643 146.21 460.696 145.658C461.015 142.269 464.191 140.548 464.191 140.548L468.26 141.6L468.249 141.589Z" fill="#5B4238"/>
<path d="M472.435 143.672C472.435 143.672 467.686 141.834 467.123 139.252C466.454 136.182 464.159 135.8 462.767 136.798C461.588 137.638 461.036 141.154 461.036 141.154C461.036 141.154 461.652 141.94 464.945 142.556C468.238 143.172 472.105 143.895 472.435 143.672Z" fill="#FDFFFE"/>
<path d="M463.68 137.542L463.542 138.233L463.022 138.073L462.873 138.817L463.394 138.987L463.256 139.688L463.819 139.858L463.946 139.157L464.477 139.327L464.626 138.572L464.105 138.413L464.243 137.712L463.68 137.542Z" fill="#FDFFFE"/>
<path d="M464.095 136.958C463.383 136.735 462.639 137.33 462.448 138.286C462.257 139.242 462.682 140.209 463.394 140.432C464.105 140.655 464.849 140.06 465.04 139.104C465.231 138.148 464.807 137.181 464.095 136.958ZM462.873 138.817L463.022 138.073L463.542 138.233L463.68 137.532L464.233 137.712L464.095 138.413L464.615 138.573L464.467 139.316L463.946 139.157L463.808 139.858L463.255 139.688L463.394 138.987L462.873 138.828V138.817Z" fill="#00D1C7"/>
<path d="M459.496 186.93L459.156 186.707L457.902 185.56L454.28 187.886C454.28 187.886 452.367 190.319 453.069 191.785C453.961 193.686 454.609 192.985 454.609 192.985C455.002 192.964 456.011 191.381 456.383 191.105C456.574 190.967 458.401 189.384 458.401 189.384C459.304 188.566 459.782 187.822 459.485 186.909L459.496 186.93Z" fill="white"/>
<path d="M457.403 185.273C456.84 185.305 457.881 189.14 459.506 188.64C469.556 185.602 472.923 178.665 472.923 178.665L476.589 167.957C477.513 165.577 477.693 162.008 475.654 161.37C473.147 160.605 471.287 163.952 470.969 166.087C470.618 168.403 468.759 174.224 468.525 176.827C468.525 176.827 458.731 185.198 457.392 185.262L457.403 185.273Z" fill="#C5CDFF"/>
<path fill-rule="evenodd" clip-rule="evenodd" d="M206.409 331.086L266.738 383.979H286.02L411.643 314.159L360.578 285.77H341.296L323.872 295.456L357.514 314.159L276.379 359.252L225.691 331.086H206.409Z" fill="#293896"/>
<path fill-rule="evenodd" clip-rule="evenodd" d="M257.882 312.9L263.805 298.517H260.785L256.415 312.9H257.882Z" fill="#0E1A68"/>
<path fill-rule="evenodd" clip-rule="evenodd" d="M270.876 279.885L273.344 286.356L269.337 290.2L256.676 295.61L254.222 289.152L252.741 281.813L253.424 259.057L265.925 252.11L270.876 279.885Z" fill="#5B68B7"/>
<path fill-rule="evenodd" clip-rule="evenodd" d="M273.344 286.355L278.324 289.123L272.643 305L259.986 299.648L256.676 295.609L273.344 286.355Z" fill="#0E1A68"/>
<path fill-rule="evenodd" clip-rule="evenodd" d="M253.423 259.057L254.222 289.152L256.676 295.61L271.892 304.066V307.169L255.238 297.916L252.044 287.936L252.494 258.54L253.423 259.057Z" fill="#293896"/>
<path fill-rule="evenodd" clip-rule="evenodd" d="M261.656 298.377L271.893 304.066V307.169L262.426 301.857L261.656 298.377Z" fill="#293896"/>
<path fill-rule="evenodd" clip-rule="evenodd" d="M181 299.201L219.578 312.676L266.738 346.852L275.232 354.414L266.738 383.977L182.118 336.942L185.37 331.756L181 299.201Z" fill="#BBD2E9"/>
<path fill-rule="evenodd" clip-rule="evenodd" d="M323.872 258.33L355.496 265.585L357.514 277.033V314.158L323.872 295.455V258.33Z" fill="white"/>
<path fill-rule="evenodd" clip-rule="evenodd" d="M392.361 277.033L266.738 346.853V383.978L392.361 314.159V277.033Z" fill="#5B68B7"/>
<mask id="mask2_2067_297676" style="mask-type:luminance" maskUnits="userSpaceOnUse" x="270" y="286" width="3" height="2">
<path d="M270.861 286.44L270.149 286.888C270.149 286.888 270.28 286.818 270.353 286.776C270.89 286.594 271.5 286.818 271.834 286.985C271.921 287.027 271.993 287.069 272.022 287.083L272.734 286.636C272.734 286.636 272.632 286.58 272.545 286.538C272.211 286.384 271.601 286.147 271.064 286.342C270.992 286.37 270.919 286.398 270.846 286.44H270.861Z" fill="white"/>
</mask>
<g mask="url(#mask2_2067_297676)">
<path d="M272.022 287.097L272.734 286.65C272.734 286.65 272.632 286.594 272.545 286.552C272.211 286.398 271.601 286.16 271.064 286.356C270.991 286.384 270.919 286.412 270.846 286.454L270.135 286.901C270.135 286.901 270.265 286.831 270.338 286.789C270.875 286.608 271.485 286.831 271.819 286.999C271.906 287.041 271.979 287.083 272.008 287.097H272.022Z" fill="#95ADFB"/>
</g>
<path d="M284.35 249.665C284.35 249.665 282.636 255.27 283.784 258.107C285.221 261.672 285.221 260.959 285.221 260.959C285.221 260.959 283.043 261.224 281.504 260.959C279.413 260.595 277.221 259.757 277.221 259.757L282.085 249.021L284.379 249.665H284.35Z" fill="#8D5114"/>
<path d="M289.068 300.893C289.068 300.893 285.555 304.89 284.611 305.631C283.667 306.372 280.197 307.085 279.311 307.225C278.338 307.379 277.395 307.756 276.843 306.596C276.102 305.016 280.328 294.952 280.328 294.952L289.083 295.455V300.893H289.068Z" fill="#5B68B7"/>
<path d="M293.149 321.832C293.149 321.832 290.695 318.827 290.201 318.184C288.778 316.339 289.432 314.242 289.432 314.242L292.655 300.879C292.858 300.027 292.931 298.825 292.466 297.776C292.321 297.455 292.132 297.147 291.857 296.868L277.947 287.125L275.609 288.089C272.938 291.095 274.273 292.465 274.273 294.31C274.273 294.408 281.795 299.537 283.624 300.837C283.856 301.005 284.437 301.858 284.408 302.123C284.19 303.787 283.784 312.789 283.493 315.975L283.377 317.443C283.377 318.114 283.522 318.366 284.016 319.162C284.553 320.043 288.183 322.853 288.183 322.853C288.183 322.853 290.506 324.823 292.771 323.943C293.947 323.496 293.875 322.587 293.265 321.972C293.221 321.944 293.192 321.902 293.149 321.86V321.832Z" fill="#5B68B7"/>
<path d="M284.887 322.713L286.746 321.916L285.468 320.49H284.423L284.887 322.713Z" fill="#293896"/>
<path d="M283.261 320.253L283.653 322.028C283.653 322.028 283.696 322.35 284.437 322.587C284.626 322.657 284.901 322.713 284.901 322.713L285.061 320.7L283.261 320.253Z" fill="#293896"/>
<path d="M294.426 325.509C295.297 325.006 294.934 323.971 294.876 323.859C294.383 322.895 293.57 323.049 293.57 323.049C294.02 323.608 289.591 324.586 291.45 324.237C292.597 324.027 289.069 323.496 287.733 322.755C286.789 322.252 285.831 321.092 285.235 320.533C283.406 318.813 283.304 317.304 283.304 317.304C283.304 317.304 283.145 317.877 283.145 318.799C283.145 320.141 283.725 320.379 283.725 320.379C283.725 320.379 283.798 320.854 285.061 321.385C286.484 321.986 287.457 324.377 289.301 325.271C290.84 325.998 293.163 326.25 294.426 325.509Z" fill="#293896"/>
<path d="M294.368 325.075C295.327 324.516 295.167 323.747 293.657 322.28C293.584 322.224 293.236 321.916 293.236 321.916C293.686 322.475 293.57 323.314 292.031 323.566C290.782 323.761 289.446 323.44 288.096 322.447C287.239 321.804 285.947 321.064 284.756 319.638C283.246 317.849 283.479 315.976 283.479 315.976C283.479 315.976 282.375 316.674 282.622 318.352C282.825 319.68 283.362 320.518 283.362 320.518L285.424 321.455C286.804 322.084 287.079 323.831 289.301 324.838C291.58 325.858 293.439 325.634 294.354 325.103L294.368 325.075Z" fill="#293896"/>
<path d="M287.399 324.907C287.399 324.907 284.829 321.566 284.35 320.923C282.855 318.91 283.668 316.408 283.668 316.408L286.906 303.94C287.167 302.836 287.719 300.767 286.092 299.118L274.869 288.243C274.869 288.243 270.252 286.16 267.783 289.221C265.271 292.338 265.141 294.197 266.999 296.643C267.057 296.727 276.306 302.528 278.266 303.646C278.934 304.024 278.717 304.904 278.658 305.17C277.555 309.755 277.918 314.885 277.758 318.673V318.91L277.628 320.49C277.628 321.161 277.773 321.412 278.266 322.209C278.804 323.104 282.448 325.899 282.448 325.899C282.448 325.899 284.771 327.87 287.036 326.99C288.212 326.542 288.14 325.62 287.53 325.019C287.501 324.977 287.457 324.949 287.414 324.907H287.399Z" fill="white"/>
<path d="M279.137 325.787L280.996 324.99L279.718 323.564H278.673L279.137 325.787Z" fill="#293896"/>
<path d="M277.511 323.327L277.888 325.102C277.888 325.102 277.932 325.424 278.672 325.661C278.861 325.717 279.137 325.773 279.137 325.773L279.311 323.774L277.511 323.327Z" fill="#293896"/>
<path d="M288.676 328.583C289.547 328.08 289.184 327.045 289.126 326.934C288.633 325.969 287.82 326.123 287.82 326.123C288.27 326.682 283.841 327.66 285.7 327.311C286.847 327.101 283.318 326.556 281.983 325.829C281.039 325.326 280.081 324.18 279.485 323.607C277.656 321.874 277.54 320.378 277.54 320.378C277.54 320.378 277.395 320.937 277.395 321.86C277.395 323.201 277.975 323.439 277.975 323.439C277.975 323.439 278.048 323.914 279.311 324.446C280.72 325.047 281.692 327.437 283.551 328.331C285.09 329.072 287.413 329.31 288.676 328.569V328.583Z" fill="#293896"/>
<path d="M288.604 328.15C289.562 327.59 289.403 326.822 287.893 325.354C287.82 325.284 287.486 324.977 287.486 324.977C287.936 325.55 287.82 326.374 286.281 326.626C285.032 326.822 283.696 326.5 282.361 325.494C281.504 324.851 280.168 324.138 279.021 322.684C277.395 320.629 277.758 318.91 277.758 318.91C277.758 318.91 276.654 319.707 276.901 321.398C277.105 322.726 277.642 323.565 277.642 323.565L279.704 324.501C281.083 325.13 281.359 326.892 283.58 327.884C285.86 328.904 287.718 328.681 288.633 328.15H288.604Z" fill="#293896"/>
<path d="M282.274 288.313C283.566 289.361 291.45 295.442 291.566 295.554C293.279 296.909 292.466 297.776 292.466 297.776C292.466 297.72 291.813 296.448 290.666 296.574C287.777 296.895 284.597 298.335 282.651 299.216C278.194 301.256 276.829 306.61 276.829 306.61C276.713 306.722 275.217 304.835 274.825 304.374C273.939 303.297 264.153 300.614 263.558 294.268C263.398 292.492 263.616 290.298 264.168 286.873C264.168 286.873 267.202 291.039 274.506 289.417C280.023 288.201 280.27 285.839 280.27 285.839C280.27 286.118 280.851 287.181 282.259 288.313H282.274Z" fill="#293896"/>
<path d="M295.051 284.064L291.508 286.188C285.105 283.882 284.524 283.714 282.259 282.358C281.243 281.743 280.226 280.332 279.95 279.213L276.858 266.284C275.406 264.117 274.68 259.071 277.511 258.694C281.867 258.135 282.767 264.327 283.029 266.493C283.348 269.107 283.9 275.258 284.045 276.949C284.059 277.214 284.234 277.466 284.481 277.62L295.036 284.064H295.051Z" fill="#0E1A68"/>
<path d="M279.719 258.652L282.172 268.814C282.172 268.814 282.71 270.841 282.506 271.959C282.23 273.539 280.996 274.894 280.924 275.006C280.023 276.18 279.501 277.704 279.791 280.206L280.328 286.3C280.328 286.3 280.677 287.95 276.118 289.599C266.085 293.247 263.805 289.403 263.805 289.403C263.703 289.236 263.573 288.565 263.674 288.076C263.965 286.72 264.212 285.811 264.502 284.791L265.707 279.605C265.94 278.85 266.07 278.067 266.085 277.285L264.662 270.603C264.662 270.603 262.673 265.976 264.357 263.978C265.969 262.035 270.136 259.057 271.718 258.275C272.125 258.079 272.996 257.785 274.012 257.604C274.012 257.604 277.729 257.156 279.733 258.652H279.719Z" fill="#293896"/>
<path d="M277.395 261.727C274.535 263.866 273.358 261.154 271.936 259.057L272.458 251.761L278.426 252.893L277.395 261.727Z" fill="white"/>
<path d="M272.124 256.765C272.124 256.765 272.008 257.687 272.023 257.855C272.328 260.692 275.754 262.132 275.754 262.132C276.175 262.384 276.103 262.901 275.972 263.558L275.536 265.501C275.406 266.144 275.072 266.046 274.825 265.752C274.825 265.752 272.357 263.292 271.674 262.496C270.077 260.581 270.266 260.189 271.152 258.051C271.674 256.751 272.124 256.779 272.124 256.779V256.765Z" fill="white"/>
<path d="M276.32 261.741C276.001 262.077 275.87 262.342 276.044 262.622L277.366 264.481C277.917 265.208 278.106 264.705 278.164 264.174L278.513 260.399C278.513 258.023 277.859 257.855 277.859 257.855C277.859 257.855 277.845 258.037 277.787 258.526C277.685 259.351 277.308 260.763 276.32 261.741Z" fill="white"/>
<path d="M276.727 241.012C279.66 241.151 282.956 243.374 283.9 245.806C285.352 249.58 283.566 251.397 283.595 251.523C283.798 252.376 281.301 248.308 280.27 248.644C279.123 249.007 274.695 251.299 274.52 251.901C272.168 260.637 273.33 263.935 273.33 263.935C272.284 263.935 268.03 260.777 267.13 257.883C266.723 256.569 267.624 249.902 267.943 248.518C269.09 243.416 271.979 240.802 276.727 241.012Z" fill="#8D5114"/>
<path d="M280.415 247.428C284.35 247.498 283.856 249.902 283.406 251.957C283.028 253.648 281.78 256.304 281.78 256.304C280.778 258.485 279.645 259.854 278.426 260.288C276.582 260.945 275.609 260.078 273.286 257.856C273.257 257.828 273.678 254.752 273.91 253.606C274.36 251.454 275.522 247.316 280.415 247.428Z" fill="white"/>
<path d="M274.534 244.981L282.477 245.219C282.477 245.219 282.593 246.589 282.07 248.015C279.892 253.941 272.923 253.34 272.923 253.34C272.255 252.39 274.549 244.995 274.549 244.995L274.534 244.981Z" fill="#8D5114"/>
<path d="M281.315 284.26C281.315 284.26 282.375 284.456 282.302 284.931C282.201 285.756 281.344 286.86 280.821 287.643C280.589 288.006 280.168 288.3 279.776 288.146C279.384 287.992 278.077 286.511 278.716 285.532C279.355 284.554 280.908 283.995 281.301 284.26H281.315Z" fill="#293896"/>
<path d="M279.558 286.608L279.587 286.356L280.241 284.26L285.889 284.959L288.938 286.804C288.938 286.804 289.373 287.195 289.054 287.559C288.923 287.698 288.56 287.586 288.357 287.503C287.849 287.293 287.007 286.888 286.861 286.804C286.44 286.552 286.223 287.055 286.223 287.055C286.15 287.237 285.569 288.146 285.337 288.551C285.061 289.026 284.625 289.152 283.987 289.32C283.13 289.543 283.072 289.292 282.869 289.096C282.811 289.04 282.927 288.803 282.927 288.803C281.33 288.607 279.427 287.782 279.558 286.622V286.608Z" fill="white"/>
<path d="M282.041 284.442C282.041 284.442 280.88 284.274 279.965 285.755C278.789 287.67 279.776 288.104 279.776 288.104C279.776 288.104 274.172 286.818 272.516 286.119C270.266 285.168 269.947 284.805 269.177 284.344C267.885 283.575 267.623 282.121 267.623 282.121L264.632 268.954C263.819 265.334 264.937 263.069 267.522 262.916C271.094 262.692 271.253 267.053 271.442 269.164C271.573 270.645 272.153 277.746 272.502 279.717C272.546 279.969 272.618 280.514 273.359 280.877L282.041 284.442Z" fill="#5B68B7"/>
<path fill-rule="evenodd" clip-rule="evenodd" d="M328.184 272.267L239.717 321.441L264.4 335.153L352.853 285.993L328.184 272.267Z" fill="#BBD2E9"/>
<path fill-rule="evenodd" clip-rule="evenodd" d="M307.974 297.874V297.888V297.901V297.915V297.929V297.943V297.957V297.971V297.985L291.596 307.085H291.044C290.841 306.973 290.637 306.861 290.449 306.75L290.536 306.694V306.666C290.144 306.456 289.752 306.232 289.374 306.023C287.98 305.282 286.601 304.555 285.207 303.828L301.585 294.729H301.745L302.079 294.896L302.413 295.064L302.747 295.232L303.081 295.399L303.415 295.567L303.748 295.735L304.082 295.903L304.416 296.07L304.75 296.238L305.099 296.406L305.433 296.574L305.781 296.741L306.115 296.909L306.464 297.077L306.798 297.245L307.146 297.412L307.233 297.454L307.32 297.496L307.407 297.538L307.495 297.58L307.582 297.622L307.669 297.664L307.756 297.706L307.843 297.748L307.974 297.874Z" fill="#BBD2E9"/>
<path fill-rule="evenodd" clip-rule="evenodd" d="M301.687 294.449L306.623 296.183L307.277 296.546L307.393 296.742L307.523 296.951V298L306.928 297.664V297.413L306.797 297.189L305.65 296.546L301.687 294.757V294.449Z" fill="white"/>
<path fill-rule="evenodd" clip-rule="evenodd" d="M290.245 305.282L293.991 302.515L306.623 296.183L307.277 296.546L307.393 296.742L307.523 296.951L296.126 303.856L291.145 306.051L290.753 305.995L290.536 305.646L290.245 305.282Z" fill="white"/>
<path fill-rule="evenodd" clip-rule="evenodd" d="M285.323 303.549L301.687 294.449L306.623 296.183L290.245 305.282L289.447 305.366L285.323 303.549Z" fill="white"/>
<path fill-rule="evenodd" clip-rule="evenodd" d="M291.146 306.051L307.524 296.951V298L291.146 307.099V306.051Z" fill="#BBD2E9"/>
<path fill-rule="evenodd" clip-rule="evenodd" d="M285.323 303.549L290.245 305.282L290.913 305.646L291.015 305.841L291.146 306.051V307.099L290.55 306.764V306.512L290.42 306.288L289.273 305.66L285.323 303.856V303.549Z" fill="white"/>
<path fill-rule="evenodd" clip-rule="evenodd" d="M301.513 294.743C300.656 295.218 289.926 301.187 289.07 301.662C289.767 301.9 290.449 302.151 291.146 302.389C291.828 302.627 292.525 302.878 293.222 303.116H293.353C294.21 302.641 304.94 296.672 305.796 296.197C305.114 295.959 304.417 295.708 303.72 295.47C303.037 295.232 302.341 294.981 301.644 294.743H301.513ZM288.605 301.984C289.302 302.221 289.984 302.473 290.681 302.711C291.364 302.948 292.061 303.2 292.758 303.437C288.605 305.744 294.355 302.557 290.202 304.863H290.072C289.389 304.626 288.692 304.374 287.995 304.136C287.313 303.899 286.616 303.647 285.919 303.409C290.072 301.103 284.322 304.29 288.474 301.984H288.605Z" fill="#293896"/>
<path fill-rule="evenodd" clip-rule="evenodd" d="M301.513 294.491C300.656 294.966 289.926 300.935 289.07 301.41C289.767 301.648 290.449 301.9 291.146 302.137C291.843 302.375 292.525 302.626 293.222 302.864C294.079 302.389 304.809 296.42 305.666 295.945C304.969 295.707 304.286 295.456 303.589 295.218C302.907 294.98 302.21 294.729 301.513 294.491ZM288.474 301.732C289.171 301.969 289.854 302.221 290.551 302.459C291.233 302.696 291.93 302.948 292.627 303.185C288.474 305.492 294.224 302.305 290.072 304.611C289.389 304.374 288.692 304.122 287.995 303.884C287.313 303.647 286.616 303.395 285.919 303.158C290.072 300.851 284.322 304.038 288.474 301.746V301.732Z" fill="white"/>
<path fill-rule="evenodd" clip-rule="evenodd" d="M305.651 296.197L293.207 303.116V302.864L305.651 295.945V296.197ZM292.612 303.438L290.057 304.863V304.612L292.612 303.186V303.438Z" fill="#BBD2E9"/>
<path fill-rule="evenodd" clip-rule="evenodd" d="M289.07 301.662L293.208 303.115V302.864L289.07 301.41V301.662ZM285.919 303.409L290.057 304.863V304.611L285.919 303.157V303.409Z" fill="white"/>
<path fill-rule="evenodd" clip-rule="evenodd" d="M319.473 280.974L319.066 280.149L277.265 286.37L277.657 306.344L319.473 280.974Z" fill="#5B68B7"/>
<path fill-rule="evenodd" clip-rule="evenodd" d="M319.473 300.11V280.975L277.671 287.195L277.656 306.345L319.473 300.11Z" fill="#293896"/>
<path fill-rule="evenodd" clip-rule="evenodd" d="M274.361 316.605L265.997 323.329H265.039L259.101 320.309L266.491 313.586L274.361 316.605Z" fill="#BBD2E9"/>
<path fill-rule="evenodd" clip-rule="evenodd" d="M265.039 323.328L266.694 320.043L255.137 317.667V319.526L265.039 323.328Z" fill="white"/>
<path fill-rule="evenodd" clip-rule="evenodd" d="M273.388 314.76L265.039 321.469L255.137 317.667L263.5 310.958L273.388 314.76Z" fill="#293896"/>
<path fill-rule="evenodd" clip-rule="evenodd" d="M265.039 323.328V321.469L273.388 314.76V316.605L265.039 323.328Z" fill="#BBD2E9"/>
<path fill-rule="evenodd" clip-rule="evenodd" d="M265.039 321.665V321.469L255.137 317.667V317.863L265.039 321.665ZM265.039 323.328L255.137 319.526V319.33L265.039 323.132V323.328Z" fill="#0E1A68"/>
<path fill-rule="evenodd" clip-rule="evenodd" d="M340.293 283.365L333.004 287.419H331.785L323.596 282.429L331.306 278.375L340.293 283.365Z" fill="#BBD2E9"/>
<path fill-rule="evenodd" clip-rule="evenodd" d="M339.683 283.519L331.988 287.796H331.146L322.507 282.526L330.202 278.249L339.683 283.519Z" fill="#BBD2E9"/>
<path fill-rule="evenodd" clip-rule="evenodd" d="M331.146 287.796V286.985L338.842 282.708V283.519L331.146 287.796Z" fill="#BBD2E9"/>
<path fill-rule="evenodd" clip-rule="evenodd" d="M338.842 282.708L331.146 286.985L327.473 285.448L321.65 281.716L329.346 277.438L338.842 282.708Z" fill="white"/>
<path fill-rule="evenodd" clip-rule="evenodd" d="M331.828 286.608H330.928L322.739 281.604L329.999 277.802L338.841 282.708L331.828 286.608Z" fill="#BBD2E9"/>
<path fill-rule="evenodd" clip-rule="evenodd" d="M338.217 280.961L330.928 285.014L327.458 283.561L321.94 280.024L329.229 275.971L338.217 280.961Z" fill="#293896"/>
<path fill-rule="evenodd" clip-rule="evenodd" d="M330.929 286.608V285.015L338.218 280.961V282.554L330.929 286.608Z" fill="#BBD2E9"/>
<path fill-rule="evenodd" clip-rule="evenodd" d="M331.146 287.796V286.985L328.083 285.28L321.65 281.716L321.665 282.527L331.146 287.796Z" fill="white"/>
<path fill-rule="evenodd" clip-rule="evenodd" d="M330.928 286.608V285.015L328.024 283.407L321.94 280.024V281.604L330.928 286.608Z" fill="white"/>
<path fill-rule="evenodd" clip-rule="evenodd" d="M198.423 289.515L181 299.201L186.997 302.542H214.787L218.315 300.571L198.423 289.515Z" fill="#BBD2E9"/>
<path fill-rule="evenodd" clip-rule="evenodd" d="M297.476 298.042V296.784L296.256 294.24L296.648 296.309L297.476 298.042Z" fill="#BBD2E9"/>
<path fill-rule="evenodd" clip-rule="evenodd" d="M296.604 294.953L296.256 294.24V295.498L296.648 296.309L296.604 294.953Z" fill="#BBD2E9"/>
<path fill-rule="evenodd" clip-rule="evenodd" d="M297.258 296.322L297.476 296.784L298.231 302.221L297.476 312.844L297.258 312.383V296.322Z" fill="#BBD2E9"/>
<path fill-rule="evenodd" clip-rule="evenodd" d="M302.078 296.099L299.653 296.462L297.476 296.784L296.256 294.24L298.492 293.918L300.859 293.555L302.078 296.099Z" fill="#5B68B7"/>
<path fill-rule="evenodd" clip-rule="evenodd" d="M302.093 296.099L297.476 296.784V312.844L302.093 312.159V296.099Z" fill="#0E1A68"/>
<path fill-rule="evenodd" clip-rule="evenodd" d="M218.315 300.572L181 299.202L266.738 346.853L392.361 277.033L341.296 248.644L323.872 258.33L357.514 277.033L266.738 327.493L218.315 300.572Z" fill="white"/>
<path d="M370.407 281.17C370.407 281.17 376.477 289.725 377.958 295.148C378.35 296.602 378.262 298.852 376.622 300.991C374.095 304.318 368.476 309.839 368.476 309.839L368.331 303.13C368.331 303.13 372.179 298 372.034 296.714C371.801 294.687 368.781 290.717 368.781 290.717L370.407 281.156V281.17Z" fill="#0E1A68"/>
<path d="M347.118 347.873C347.118 347.873 346.61 348.67 345.245 349.061C344.199 349.355 341.499 349.327 341.499 349.327C340.076 349.369 338.188 349.369 337.796 350.669C337.796 350.669 337.637 351.326 337.666 351.535C337.767 352.29 338.493 352.654 339.364 353.045C339.364 353.045 340.962 353.758 342.355 354.121C344.156 354.61 345.172 354.652 346.508 354.569C346.508 354.569 348.192 354.443 348.86 354.499C349.601 354.554 349.426 355.072 349.455 355.743L351.764 356.553C354.102 357.043 355.859 355.128 355.844 354.61L355.67 349.55L347.103 347.887L347.118 347.873Z" fill="#5B68B7"/>
<path d="M348.047 354.303C347.409 354.303 345.536 354.471 343.677 354.094C341.92 353.744 339.147 352.486 339.147 352.486C338.363 352.137 337.724 351.605 337.71 351.158C337.681 351.326 337.666 351.508 337.666 351.592C337.768 352.346 338.494 352.71 339.365 353.101C339.365 353.101 340.962 353.814 342.356 354.177C344.156 354.667 345.173 354.695 346.508 354.611C346.508 354.611 348.44 354.513 348.512 354.513C348.962 354.485 349.383 354.639 349.383 354.709C349.383 354.681 349.224 354.275 348.047 354.289V354.303Z" fill="#0E1A68"/>
<path d="M351.735 355.645L349.441 354.862C349.441 355.086 349.441 355.603 349.456 355.827L351.765 356.637C354.102 357.126 355.859 355.225 355.845 354.694L355.801 353.716C355.815 354.247 354.059 356.148 351.721 355.659L351.735 355.645Z" fill="#0E1A68"/>
<path d="M363.771 342.883C363.771 342.883 363.583 344.211 362.247 344.323C361.419 344.393 360.229 344.421 360.229 344.421C358.82 344.169 357.049 344.197 356.729 345.204C356.729 345.204 356.584 345.595 356.599 345.805C356.671 346.56 356.395 345.931 357.455 346.839C357.455 346.839 359.43 348.363 360.708 348.866C362.087 349.411 363.016 349.383 363.525 349.327C363.525 349.327 364.599 349.355 365.223 349.425C365.92 349.509 365.746 350.348 365.746 351.019L367.895 351.871C370.087 352.43 371.801 350.599 371.801 350.082V344.756L363.771 342.855V342.883Z" fill="#5B68B7"/>
<path d="M364.453 349.229C363.844 349.229 363.147 349.117 361.332 348.642C359.822 348.237 357.6 346.741 357.6 346.741C357.078 346.364 356.642 345.902 356.642 345.455C356.613 345.623 356.598 345.791 356.584 345.888C356.526 346.559 357.15 346.937 357.658 347.286C357.658 347.286 359.386 348.53 360.693 348.936C362.377 349.467 362.639 349.425 363.394 349.439C363.394 349.439 364.352 349.481 364.991 349.509C365.267 349.509 365.673 349.676 365.673 349.76C365.673 349.718 365.571 349.257 364.453 349.229Z" fill="#0E1A68"/>
<path d="M367.895 351.284L365.761 350.446C365.761 350.669 365.746 350.893 365.746 351.103L367.895 351.955C370.087 352.514 371.801 350.683 371.801 350.166V349.495C371.801 350.012 370.087 351.829 367.895 351.27V351.284Z" fill="#0E1A68"/>
<path d="M357.688 264.271L353.013 264.816L354.973 276.376C355.467 279.703 356.977 280.094 358.022 280.01C360.214 279.857 362.378 279.214 363.539 278.431C365.79 276.893 365.558 272.267 365.543 271.945L365.645 264.104L357.688 264.257V264.271Z" fill="white"/>
<path d="M366.908 286.104V279.842L365.993 272.825L359.169 274.335L359.953 281.1C359.953 282.065 359.242 282.33 358.719 283.155L355.83 287.586C355.133 288.648 353.695 290.354 353.695 293.345V309.825L367.663 311.698V289.836C367.663 288.564 367.402 287.292 366.908 286.104Z" fill="white"/>
<path d="M358.269 305.968V309.029C358.269 311.307 358.835 315.165 358.835 315.165L369.71 315.557C371.075 315.291 371.597 313.502 371.597 311.685V305.968H358.269Z" fill="#293896"/>
<path d="M353.956 263.181C352.04 264.103 352.678 266.927 352.678 266.927C352.678 266.857 354.609 268.898 354.609 268.996C354.609 269.052 355.873 272.952 355.873 272.952C355.902 273.399 356.57 274 356.845 273.329C357.165 272.574 356.555 272.057 356.875 271.666C357.194 271.26 358.138 271.064 359.241 273.483L359.866 275.37C360.896 277.494 362.784 277.494 364.12 277.117C364.12 277.117 365.906 276.544 366.53 275.859C366.835 275.523 367.692 271.777 368.055 270.659C369.39 266.494 367.503 258.694 358.617 261.266C356.221 261.965 353.971 263.181 353.971 263.181H353.956Z" fill="#895B13"/>
<path d="M360.186 308.847C360.186 308.847 361.899 325.327 362.596 330.806C363.307 336.369 362.712 344.071 362.712 344.071C362.712 344.071 363.452 347.496 367.3 348.362C369.551 348.852 371.293 349.075 372.193 347.51C372.193 347.51 373.166 336.914 372.338 327.954C371.743 321.539 371.787 311.055 371.787 311.055L360.186 308.847Z" fill="#0E1A68"/>
<path d="M355.451 314.69C355.451 314.69 351.749 325.816 349.818 334.231C347.959 342.352 348.032 342.646 347.03 346.504C346.435 348.782 345.462 349.076 345.665 349.076C345.97 349.076 350.849 355.492 355.887 352.36C355.887 352.36 358.704 341.276 360.185 336.244C361.753 330.932 363.742 326.837 366.414 321.553C368.054 318.296 369.666 312.705 369.666 312.705L355.437 314.704L355.451 314.69Z" fill="#293896"/>
<path d="M365.862 277.872C366.675 277.69 366.893 277.83 367.052 278.305C367.212 278.78 367.198 278.808 367.386 279.269C367.546 279.647 367.357 279.675 367.357 279.675C367.357 279.675 363.263 280.765 360.214 282.764C358.05 284.176 357.891 284.315 357.891 284.315L358.399 282.722C358.791 281.366 360.432 280.01 362.871 278.976C362.871 278.976 364.875 278.123 365.862 277.886V277.872Z" fill="#BBD2E9"/>
<path d="M356.846 271.274C356.846 271.274 357.906 271.372 358.283 272.463C358.544 273.231 358.283 273.888 358.138 274.084C357.746 274.601 357.31 274.727 357.31 274.727C357.31 274.727 357.252 272.868 357.223 272.532C357.194 272.197 356.86 271.288 356.86 271.288L356.846 271.274Z" fill="white"/>
<path d="M356.439 271.134C356.439 271.134 355.873 271.135 356.308 271.889C356.744 272.658 356.845 273.119 356.875 273.553C356.904 273.958 356.845 275.16 356.845 275.16C356.845 275.16 357.208 275.649 357.528 274.895C357.688 274.531 357.76 273.874 357.702 273.022C357.688 272.672 357.034 270.939 356.424 271.134H356.439Z" fill="white"/>
<path d="M359.401 319.358C359.401 319.358 360.649 320.714 363.96 319.595C367.27 318.477 370.682 315.724 370.682 315.724L370.261 313.809C370.261 313.809 361.709 317.541 360.141 317.037C358.573 316.52 359.415 319.372 359.415 319.372L359.401 319.358Z" fill="#0E1A68"/>
<path d="M355.408 286.329C353.52 287.741 352.954 289.04 352.954 293.737L353.419 315.109C353.419 315.92 353.375 318.101 357.717 318.744C359.081 318.953 361.041 319.526 364.12 318.548C365.383 318.143 371.989 315.207 371.989 313.488L372.192 290.117C372.091 287.349 371.917 283.952 371.467 282.485C370.421 279.158 367.372 279.563 367.372 279.563C367.372 279.563 362.261 281.213 359.56 283.198C358.254 284.162 358.094 284.26 355.408 286.329Z" fill="#293896"/>
<path d="M331.248 303.996L326.529 305.324C326.529 305.324 324.061 307.56 323.044 308.189C322.028 308.818 323.77 310.146 325.295 310.077C326.819 310.007 328.779 308.539 328.779 308.539L332.917 307.281L331.248 303.996Z" fill="white"/>
<path d="M330.813 306.931C331.19 307.812 331.785 308.231 331.785 308.231C331.785 308.231 332.526 308.832 333.266 308.553C335.488 307.714 344.882 303.353 347.437 301.885C350.24 300.278 356.89 294.966 356.89 294.966C356.89 294.966 361.986 291.542 360.055 288.55C358.443 286.062 355.83 287.041 353.623 288.383C351.88 289.431 343.169 296.504 343.169 296.504L330.595 303.549C330.595 303.549 329.912 304.891 330.798 306.931H330.813Z" fill="#5B68B7"/>
<path d="M232.849 320.324L235.071 319.08L235.056 323.553L232.835 324.797L232.849 320.324Z" fill="#5B68B7"/>
<path d="M223.311 315.012L225.518 313.782L235.071 319.08L232.85 320.324L223.311 315.012Z" fill="#BDDAFC"/>
<path d="M232.85 320.324L232.835 324.797L223.296 319.486L223.31 315.013L232.85 320.324Z" fill="#BBD2E9"/>
<path d="M242.273 300.321L229.321 293.15C228.929 292.927 228.523 292.857 228.145 292.913C227.361 293.025 226.562 293.151 225.778 293.262C226.156 293.206 226.562 293.276 226.94 293.5L239.891 300.671C241.053 301.314 241.663 302.977 241.256 304.403L236.958 319.667C236.697 320.603 236.058 321.204 235.318 321.316L237.684 320.967C238.425 320.855 239.064 320.254 239.325 319.317L243.623 304.053C244.015 302.628 243.405 300.964 242.258 300.321H242.273Z" fill="#5B68B7"/>
<path d="M239.906 300.684C241.067 301.327 241.677 302.991 241.271 304.417L236.973 319.68C236.581 321.106 235.318 321.735 234.156 321.092L221.205 313.922C220.043 313.279 219.433 311.615 219.84 310.189L224.138 294.926C224.544 293.5 225.793 292.871 226.954 293.514L239.906 300.684Z" fill="#BBD2E9"/>
<path d="M226.257 295.191L221.03 311.923L234.519 319.415L239.746 302.684L226.257 295.191Z" fill="#5B68B7"/>
<path d="M221.757 311.727L234.665 318.912L239.747 302.683L226.839 295.513L221.757 311.727Z" fill="white"/>
<path d="M234.635 318.912L221.727 311.727L226.794 295.513L226.228 295.191L221.001 311.923L234.475 319.415L234.635 318.912Z" fill="#293896"/>
<path d="M228.218 312.482C228.45 312.607 228.567 312.943 228.479 313.236L228.349 313.67C228.262 313.963 228 314.089 227.768 313.949L225.256 312.552C225.024 312.426 224.908 312.09 224.995 311.811L225.125 311.377C225.213 311.098 225.474 310.958 225.706 311.098L228.218 312.496V312.482Z" fill="#BBD2E9"/>
<path d="M232.4 314.802C232.632 314.928 232.748 315.264 232.661 315.543L232.53 315.977C232.443 316.27 232.182 316.396 231.95 316.256L229.438 314.858C229.205 314.732 229.089 314.397 229.176 314.104L229.307 313.67C229.394 313.391 229.656 313.265 229.888 313.391L232.4 314.788V314.802Z" fill="#293896"/>
<path d="M228.682 308.401C228.799 308.47 228.857 308.638 228.813 308.778L228.334 310.288C228.29 310.427 228.16 310.497 228.043 310.427L226.824 309.742C226.708 309.673 226.65 309.505 226.693 309.365L227.158 307.869C227.201 307.73 227.332 307.66 227.448 307.73L228.668 308.401H228.682Z" fill="#293896"/>
<path d="M229.524 305.702C229.64 305.758 229.699 305.94 229.655 306.08L229.19 307.589C229.147 307.729 229.016 307.799 228.9 307.729L227.68 307.058C227.564 306.988 227.506 306.82 227.55 306.681L228.014 305.171C228.058 305.031 228.188 304.961 228.305 305.031L229.524 305.702Z" fill="#293896"/>
<path d="M230.846 309.603C230.962 309.673 231.02 309.84 230.976 309.98L230.512 311.476C230.468 311.615 230.337 311.685 230.221 311.615L229.002 310.945C228.885 310.875 228.827 310.707 228.871 310.567L229.336 309.072C229.379 308.932 229.51 308.862 229.626 308.932L230.846 309.603Z" fill="#293896"/>
<path d="M230.352 303.019C230.469 303.075 230.527 303.256 230.483 303.396L230.018 304.892C229.975 305.031 229.844 305.101 229.728 305.031L228.508 304.361C228.392 304.291 228.334 304.123 228.378 303.983L228.842 302.487C228.886 302.348 229.017 302.278 229.133 302.348L230.352 303.019Z" fill="#293896"/>
<path d="M230.076 299.86C230.381 300.027 230.526 300.475 230.41 300.838C230.294 301.216 229.946 301.383 229.655 301.216L227.347 299.93C227.042 299.762 226.896 299.315 227.013 298.951C227.129 298.574 227.477 298.42 227.768 298.574L230.062 299.86H230.076Z" fill="#293896"/>
<path d="M231.702 306.918C231.818 306.988 231.876 307.156 231.833 307.296L231.368 308.805C231.325 308.945 231.194 309.015 231.078 308.945L229.858 308.26C229.742 308.19 229.684 308.037 229.727 307.883L230.192 306.373C230.236 306.233 230.366 306.164 230.482 306.233L231.702 306.904V306.918Z" fill="#293896"/>
<path d="M233.038 310.818C233.154 310.888 233.212 311.056 233.169 311.196L232.704 312.706C232.66 312.845 232.53 312.915 232.414 312.845L231.194 312.174C231.078 312.104 231.02 311.937 231.063 311.797L231.528 310.287C231.571 310.148 231.702 310.078 231.818 310.148L233.038 310.818Z" fill="#293896"/>
<path d="M232.53 304.221C232.646 304.291 232.704 304.458 232.661 304.598L232.196 306.108C232.153 306.248 232.022 306.317 231.906 306.248L230.686 305.577C230.57 305.507 230.512 305.339 230.555 305.199L231.02 303.69C231.064 303.55 231.194 303.48 231.31 303.55L232.53 304.221Z" fill="#293896"/>
<path d="M233.881 308.121C233.997 308.191 234.055 308.359 234.011 308.499L233.547 309.994C233.503 310.134 233.373 310.204 233.256 310.134L232.037 309.463C231.921 309.407 231.863 309.225 231.906 309.086L232.371 307.59C232.414 307.45 232.545 307.38 232.661 307.45L233.881 308.135V308.121Z" fill="#293896"/>
<path d="M234.723 305.437C234.839 305.507 234.897 305.675 234.853 305.814L234.389 307.324C234.345 307.464 234.214 307.534 234.098 307.464L232.879 306.779C232.762 306.709 232.704 306.555 232.748 306.401L233.212 304.892C233.256 304.752 233.387 304.682 233.503 304.752L234.723 305.423V305.437Z" fill="#293896"/>
<path d="M237.598 304.04C237.903 304.207 238.048 304.641 237.932 305.018C237.815 305.395 237.481 305.563 237.177 305.395L231.107 302.027C230.802 301.859 230.643 301.412 230.773 301.048C230.89 300.671 231.224 300.503 231.543 300.685L237.612 304.054L237.598 304.04Z" fill="#293896"/>
</svg>
