<svg width="705" height="468" viewBox="0 0 705 468" fill="none" xmlns="http://www.w3.org/2000/svg">
<rect width="705" height="468" fill="#E0E6F9"/>
<path d="M489.443 355.25L578.978 301.375C585.278 297.579 584.494 290.964 577.21 286.582L455.87 213.569C448.598 209.187 437.59 208.711 431.29 212.507L341.755 266.382C335.455 270.178 336.239 276.793 343.523 281.175L464.863 354.188C472.135 358.57 483.143 359.046 489.443 355.25Z" fill="#CAE5FF"/>
<g opacity="0.13" style="mix-blend-mode:multiply">
<path d="M476.098 171.467L465.754 171.29L459.413 180.942C459.413 180.942 456.735 183.099 457.998 184.593C459.162 185.983 464.258 185.899 464.258 185.899L460.505 194.161C460.505 194.161 460.344 196.252 462.422 195.207C464.509 194.161 466.596 189.465 466.596 189.465C466.596 189.465 476.027 189.988 480.281 188.765C483.174 187.934 485.959 183.024 485.959 183.024C485.959 183.024 488.126 182.595 488.458 183.631C488.789 184.677 489.541 185.629 492.291 185.283C495.05 184.938 496.483 184.35 497.719 182.931C498.56 181.979 498.972 175.108 476.107 171.458L476.098 171.467Z" fill="#231F20"/>
</g>
<g style="mix-blend-mode:multiply" opacity="0.46">
<path d="M615.654 262.886C619.416 265.117 619.434 269.197 615.278 271.717L577.778 294.243C573.623 296.763 566.861 296.763 562.678 294.243L439.171 220.85C434.989 218.33 434.962 214.241 439.118 211.73L476.617 189.204C480.773 186.684 487.535 186.684 492.139 189.494L615.636 262.886H615.654Z" fill="#5E6670"/>
</g>
<path d="M536.635 186.563L547.848 179.729L550.965 213.663L536.536 222.391L536.635 186.563Z" fill="#B7B060"/>
<path d="M546.513 177.078C542.053 174.389 537.288 171.486 532.47 168.592C513.599 157.231 504.105 155.299 493.035 153.376C484.339 151.864 478.544 155.402 478.544 155.402C482.825 152.807 502.394 164.065 521.265 175.416C526.084 178.319 530.848 181.223 535.309 183.902C535.497 184.014 535.667 184.173 535.819 184.35L547.023 177.517C546.871 177.33 546.701 177.18 546.513 177.068V177.078Z" fill="#A3BAFF"/>
<path d="M535.819 184.36L547.023 177.526C547.238 177.778 547.417 178.087 547.551 178.413L536.338 185.247C536.204 184.92 536.016 184.612 535.81 184.36H535.819Z" fill="#8096D8"/>
<path d="M536.348 185.246L547.561 178.413C547.749 178.852 547.856 179.328 547.848 179.739L536.634 186.572C536.634 186.161 536.527 185.694 536.348 185.256V185.246Z" fill="#8096D8"/>
<path d="M521.257 175.416C526.076 178.319 530.84 181.223 535.3 183.902C536.08 184.378 536.644 185.629 536.635 186.562L536.536 222.39L475.258 185.507C475.258 184.49 475.401 165.241 477.766 156.447C479.288 150.781 500.685 163.038 521.266 175.416H521.257Z" fill="#778ED3"/>
<path d="M563.297 187.141C558.488 184.247 553.705 181.409 549.254 178.721C548.914 178.515 548.609 178.515 548.385 178.646L537.172 185.479C537.405 185.339 537.7 185.339 538.05 185.554C542.51 188.233 547.283 191.071 552.093 193.974C568.967 204.131 586.395 215.034 592.942 222.754L601.594 217.993C595.047 210.273 580.18 197.297 563.306 187.141H563.297Z" fill="#A3BAFF"/>
<path d="M592.934 222.745L601.585 217.984C602.624 219.207 603.395 220.355 603.833 221.41L595.182 226.171C594.734 225.126 593.973 223.977 592.934 222.745Z" fill="#8096D8"/>
<path d="M595.173 226.171L603.825 221.41C603.995 221.812 604.12 222.194 604.192 222.568C606.503 234.181 608.365 244.627 606.117 249.21C604.21 253.075 597.878 259.311 597.878 259.311C597.878 258.293 597.851 238.942 595.54 227.338C595.468 226.965 595.343 226.572 595.173 226.18V226.171Z" fill="#6477B1"/>
<path d="M552.084 193.974C572.656 206.352 594.062 219.86 595.54 227.338C597.85 238.95 597.877 258.293 597.877 259.31L536.599 222.427L536.697 186.599C536.697 185.666 537.261 185.087 538.041 185.554C542.501 188.233 547.274 191.071 552.084 193.974Z" fill="#778ED3"/>
<path d="M544.999 268.068L546.441 267.199C546.531 267.143 546.647 267.153 546.781 267.237L545.339 268.114C545.205 268.03 545.08 268.021 544.999 268.077V268.068Z" fill="#A6A38B"/>
<path d="M564.953 291.471L566.395 290.603C566.476 290.873 566.422 291.097 566.288 291.181L564.846 292.059C564.98 291.975 565.034 291.751 564.953 291.48V291.471Z" fill="#1E309B"/>
<path d="M545.348 268.105L546.79 267.228L561.953 276.357L560.511 277.225L545.348 268.105Z" fill="#999782"/>
<path d="M560.949 277.842L562.391 276.974L566.395 290.603L564.953 291.471L560.949 277.842Z" fill="#1B4089"/>
<path d="M560.511 277.225L561.953 276.348C562.024 276.385 562.096 276.45 562.168 276.534L560.726 277.403C560.663 277.328 560.591 277.262 560.511 277.216V277.225Z" fill="#A6A38B"/>
<path d="M560.717 277.412L562.159 276.544C562.23 276.628 562.302 276.74 562.347 276.852L560.905 277.72C560.86 277.608 560.797 277.505 560.717 277.412Z" fill="#DCDBD1"/>
<path d="M560.904 277.72L562.346 276.852C562.346 276.852 562.373 276.936 562.382 276.973L560.94 277.841C560.94 277.841 560.913 277.757 560.896 277.72H560.904Z" fill="#A6A38B"/>
<path d="M560.511 277.225C560.699 277.337 560.878 277.58 560.958 277.841L564.962 291.47C565.069 291.825 564.953 292.096 564.702 292.077C564.639 292.077 564.577 292.049 564.514 292.012C564.326 291.9 564.156 291.657 564.075 291.396L560.197 278.196L545.357 269.262C545.088 269.103 544.873 268.711 544.873 268.394C544.873 268.067 545.088 267.946 545.357 268.104L560.52 277.225H560.511Z" fill="#0A1B3D"/>
<path d="M439.314 216.332L440.756 215.454C440.738 215.51 440.703 215.547 440.658 215.575L439.216 216.453C439.216 216.453 439.296 216.388 439.314 216.332Z" fill="#1E309B"/>
<path d="M443.256 207.828L444.698 206.95L440.757 215.454L439.315 216.332L443.256 207.828Z" fill="#030A19"/>
<path d="M442.593 206.437L444.035 205.568C444.124 205.512 444.25 205.522 444.375 205.606L442.933 206.483C442.799 206.399 442.674 206.39 442.584 206.446L442.593 206.437Z" fill="#A6A38B"/>
<path d="M442.941 206.475L444.374 205.606L459.537 214.727L458.095 215.595L442.941 206.475Z" fill="#999782"/>
<path d="M458.096 215.595L459.538 214.727C459.618 214.773 459.681 214.839 459.753 214.913L458.311 215.791C458.248 215.716 458.176 215.651 458.096 215.604V215.595Z" fill="#A6A38B"/>
<path d="M458.312 215.791L459.754 214.913C459.825 215.006 459.888 215.109 459.942 215.212L458.5 216.089C458.455 215.977 458.392 215.875 458.312 215.791Z" fill="#DCDBD1"/>
<path d="M458.49 216.089L459.932 215.212C459.986 215.333 460.013 215.464 460.013 215.595C460.013 215.753 459.959 215.865 459.87 215.921L458.428 216.79C458.517 216.734 458.571 216.622 458.571 216.463C458.571 216.342 458.535 216.211 458.481 216.08L458.49 216.089Z" fill="#A6A38B"/>
<path d="M458.096 215.594C458.374 215.762 458.58 216.145 458.58 216.462C458.58 216.78 458.356 216.911 458.087 216.752L443.246 207.828L439.315 216.332C439.234 216.5 439.055 216.528 438.867 216.416C438.804 216.378 438.732 216.322 438.679 216.257C438.437 215.977 438.329 215.576 438.428 215.342L442.494 206.567C442.566 206.399 442.745 206.371 442.942 206.483L458.096 215.604V215.594Z" fill="#0A1B3D"/>
<path d="M579.22 248.286L580.662 247.408C580.751 247.352 580.877 247.362 581.002 247.446L579.56 248.323C579.426 248.249 579.3 248.239 579.22 248.286Z" fill="#A6A38B"/>
<path d="M599.165 271.689L600.607 270.812C600.688 271.082 600.634 271.306 600.5 271.39L599.058 272.259C599.192 272.174 599.237 271.96 599.165 271.68V271.689Z" fill="#1E309B"/>
<path d="M579.561 248.314L581.002 247.445L596.165 256.566L594.723 257.443L579.561 248.314Z" fill="#999782"/>
<path d="M595.162 258.06L596.604 257.183L600.607 270.812L599.166 271.689L595.162 258.06Z" fill="#1B4089"/>
<path d="M594.723 257.444L596.165 256.566C596.236 256.613 596.317 256.678 596.38 256.753L594.938 257.631C594.875 257.556 594.803 257.491 594.723 257.444Z" fill="#A6A38B"/>
<path d="M594.929 257.63L596.371 256.753C596.451 256.846 596.514 256.949 596.559 257.061L595.108 257.939C595.063 257.826 595.001 257.724 594.92 257.63H594.929Z" fill="#DCDBD1"/>
<path d="M595.116 257.929L596.567 257.052C596.567 257.052 596.594 257.136 596.603 257.173L595.161 258.051C595.161 258.051 595.134 257.967 595.116 257.929Z" fill="#A6A38B"/>
<path d="M594.723 257.444C594.911 257.556 595.09 257.798 595.162 258.06L599.165 271.689C599.264 272.044 599.156 272.315 598.906 272.296C598.843 272.296 598.78 272.268 598.718 272.231C598.529 272.119 598.35 271.876 598.27 271.614L594.392 258.415L579.542 249.481C579.274 249.322 579.059 248.93 579.059 248.613C579.059 248.295 579.283 248.165 579.542 248.323L594.705 257.453L594.723 257.444Z" fill="#0A1B3D"/>
<path d="M473.527 196.542L474.969 195.664C474.942 195.72 474.906 195.757 474.871 195.776L473.429 196.654C473.429 196.654 473.5 196.588 473.527 196.532V196.542Z" fill="#A6A38B"/>
<path d="M477.468 188.037L478.91 187.169L474.978 195.673L473.527 196.541L477.468 188.037Z" fill="#7F7D70"/>
<path d="M476.806 186.656L478.248 185.778C478.337 185.722 478.463 185.732 478.597 185.816L477.155 186.684C477.021 186.609 476.895 186.591 476.815 186.647L476.806 186.656Z" fill="#A6A38B"/>
<path d="M477.154 186.693L478.596 185.815L493.75 194.936L492.317 195.813L477.154 186.693Z" fill="#999782"/>
<path d="M492.319 195.814L493.752 194.937C493.832 194.983 493.904 195.049 493.966 195.123L492.525 196.001C492.462 195.926 492.381 195.861 492.31 195.814H492.319Z" fill="#A6A38B"/>
<path d="M492.524 196L493.966 195.123C494.047 195.216 494.101 195.319 494.154 195.422L492.713 196.299C492.668 196.187 492.596 196.085 492.524 196Z" fill="#DCDBD1"/>
<path d="M492.712 196.299L494.154 195.422C494.208 195.543 494.235 195.683 494.235 195.805C494.235 195.963 494.181 196.075 494.091 196.131L492.649 197C492.73 196.944 492.784 196.831 492.784 196.673C492.784 196.551 492.748 196.421 492.703 196.29L492.712 196.299Z" fill="#A6A38B"/>
<path d="M492.317 195.814C492.586 195.972 492.801 196.355 492.792 196.682C492.792 196.999 492.577 197.13 492.309 196.971L477.468 188.037L473.536 196.542C473.456 196.71 473.276 196.738 473.088 196.626C473.026 196.588 472.954 196.532 472.9 196.467C472.659 196.187 472.542 195.786 472.65 195.552L476.716 186.777C476.787 186.609 476.966 186.581 477.164 186.703L492.326 195.823L492.317 195.814Z" fill="#7C7A6D"/>
<path d="M440.829 199.519L474.478 179.141C477.039 181.876 477.353 183.229 477.899 184.508L444.25 204.887C443.713 203.599 443.391 202.254 443.391 201.013L440.829 199.519Z" fill="#989547"/>
<path d="M444.25 204.886L477.899 184.508C478.383 185.647 479.045 186.739 477.254 186.16L443.605 206.539C445.388 207.117 444.734 206.025 444.25 204.886Z" fill="#989547"/>
<path d="M443.614 206.539L477.263 186.16C480.478 188.429 481.213 189.091 481.992 189.558L448.343 209.937C447.564 209.47 446.83 208.816 446.176 208.042L443.614 206.548V206.539Z" fill="#989547"/>
<path d="M443.4 198.698L477.048 178.311L474.478 179.141L440.829 199.52L443.4 198.698Z" fill="#989547"/>
<path d="M444.849 195.384L478.498 175.006C477.611 175.547 477.056 176.686 477.047 178.32L443.398 198.698C443.398 197.065 443.954 195.926 444.849 195.384Z" fill="#989547"/>
<path d="M438.5 181.942L472.149 161.563C472.364 161.432 472.668 161.451 472.999 161.647L439.351 182.026C439.019 181.83 438.715 181.811 438.5 181.942Z" fill="#8096D8"/>
<path d="M448.343 209.937L481.991 189.559L587.523 253.065L553.874 273.444L448.343 209.937Z" fill="#D2DDFF"/>
<path d="M445.118 195.869L478.758 175.491C479.618 174.977 480.8 175.043 482.116 175.836C485.627 177.946 525.268 201.788 533.122 206.511L499.474 226.89C491.619 222.157 451.979 198.324 448.468 196.215C447.16 195.43 445.969 195.356 445.118 195.869Z" fill="#A3BAFF"/>
<path d="M455.418 198.381L489.066 178.002C489.066 178.45 488.914 178.768 488.663 178.917L455.015 199.295C455.265 199.146 455.418 198.829 455.418 198.381Z" fill="#D2DDFF"/>
<path d="M455.427 193.181L489.076 172.803L489.067 177.993L455.418 198.381L455.427 193.181Z" fill="#7085C6"/>
<path d="M439.351 182.026L472.999 161.647L487.893 170.656L454.245 191.034L439.351 182.026Z" fill="#A3BAFF"/>
<path d="M488.87 171.869C488.754 171.589 488.592 171.337 488.413 171.113C488.261 170.926 488.082 170.767 487.894 170.655L454.245 191.034C454.433 191.146 454.612 191.305 454.765 191.491C454.953 191.715 455.114 191.977 455.221 192.247C455.347 192.555 455.427 192.882 455.427 193.181L489.076 172.802C489.076 172.504 489.004 172.177 488.87 171.869Z" fill="#7085C6"/>
<path d="M500.862 239.604L534.511 219.226C534.511 219.459 534.466 219.655 534.394 219.814C534.323 219.963 534.224 220.075 534.099 220.15L500.45 240.528C500.576 240.454 500.674 240.342 500.746 240.192C500.817 240.033 500.862 239.837 500.862 239.604Z" fill="#304A7C"/>
<path d="M500.889 229.411L534.538 209.032L534.511 219.226L500.862 239.605L500.889 229.411Z" fill="#304A7C"/>
<path d="M498.567 226.89C499.346 227.357 499.973 228.477 499.982 229.411L499.955 239.605C499.955 239.838 499.91 240.034 499.839 240.193C499.615 240.659 499.113 240.771 498.54 240.426L447.534 209.714C444.928 208.145 442.823 204.346 442.832 201.228V199.016C442.85 195.898 444.964 194.637 447.57 196.206C451.081 198.315 490.721 222.157 498.576 226.881L498.567 226.89Z" fill="#A3BAFF"/>
<path d="M499.475 226.89L533.123 206.512C533.338 206.642 533.553 206.829 533.741 207.053L500.093 227.432C499.905 227.208 499.699 227.021 499.475 226.89Z" fill="#8096D8"/>
<path d="M500.102 227.431L533.75 207.053C533.974 207.314 534.162 207.632 534.297 207.949L500.648 228.327C500.505 228.001 500.317 227.693 500.102 227.431Z" fill="#8096D8"/>
<path d="M500.647 228.328L534.296 207.949C534.448 208.304 534.538 208.687 534.538 209.032L500.889 229.411C500.889 229.056 500.8 228.682 500.647 228.328Z" fill="#8096D8"/>
<path d="M501.462 228.58L535.111 208.201C535.37 208.043 535.72 208.071 536.114 208.304L502.465 228.682C502.071 228.449 501.722 228.421 501.462 228.58Z" fill="#D2DDFF"/>
<path d="M553.874 273.444L587.514 253.065C588.893 253.896 590.147 253.971 591.043 253.42L557.394 273.799C556.498 274.349 555.244 274.275 553.865 273.444H553.874Z" fill="#EEEF8C"/>
<path d="M553.874 273.444L587.514 253.065C588.893 253.896 590.147 253.971 591.043 253.42L557.394 273.799C556.498 274.349 555.244 274.275 553.865 273.444H553.874Z" fill="#EEEF8C"/>
<path d="M553.874 273.444L587.514 253.065C588.893 253.896 590.147 253.971 591.043 253.42L557.394 273.799C556.498 274.349 555.244 274.275 553.865 273.444H553.874Z" fill="#989547"/>
<path d="M558.648 270.382L592.296 250.004C592.296 251.554 591.768 252.636 590.917 253.159L557.269 273.538C558.11 273.024 558.639 271.932 558.639 270.382H558.648Z" fill="#C9CA7D"/>
<path d="M564.255 279.67L597.903 259.292C597.903 259.684 597.769 259.955 597.554 260.095L563.905 280.473C564.12 280.343 564.255 280.063 564.255 279.67Z" fill="#536290"/>
<path d="M502.465 228.682L536.113 208.304C541.424 211.496 581.557 235.665 587.603 239.306C588.346 239.754 589.036 240.379 589.663 241.116L556.014 261.495C555.396 260.758 554.689 260.132 553.954 259.684C547.909 256.043 507.776 231.884 502.465 228.682Z" fill="#A3BAFF"/>
<path d="M556.015 261.495L589.663 241.116C590.398 241.994 591.025 243.021 591.49 244.104L557.842 264.482C557.385 263.399 556.758 262.363 556.015 261.495Z" fill="#F0F18D"/>
<path d="M557.842 264.482L591.49 244.104C592.01 245.326 592.305 246.605 592.305 247.791L558.657 268.169C558.657 266.984 558.361 265.705 557.842 264.482Z" fill="#F0F18D"/>
<path d="M550.408 249.164L584.075 228.524C584.29 228.393 584.567 228.673 584.908 228.869L551.259 249.248C550.928 249.052 550.632 249.033 550.408 249.164Z" fill="#8096D8"/>
<path d="M558.657 268.17L592.306 247.791L592.297 250.003L558.648 270.382L558.657 268.17Z" fill="#C9CA7D"/>
<path d="M502.981 229.302C508.292 232.494 548.425 256.663 554.471 260.304C557.077 261.872 559.182 265.671 559.173 268.789V271.002C559.155 274.12 557.041 275.38 554.435 273.812L502.945 242.847C502.363 242.502 501.862 241.773 501.647 241.045C501.575 240.803 501.53 240.551 501.53 240.317L501.548 230.245C501.557 229.292 502.211 228.844 502.981 229.311V229.302Z" fill="#A3BAFF"/>
<path d="M564.3 258.62L597.948 238.241L597.895 259.264L564.246 279.642L564.3 258.62Z" fill="#6477B0"/>
<path d="M551.26 249.248L584.908 228.869L596.766 236.123L563.118 256.51L551.26 249.248Z" fill="#A3BAFF"/>
<path d="M563.117 256.51C563.78 256.902 564.317 257.864 564.308 258.657L564.254 279.68C564.254 280.474 563.717 280.791 563.054 280.39L562.678 280.165L439.288 205.905C438.625 205.513 438.097 204.542 438.097 203.758L438.15 182.735C438.15 181.951 438.688 181.624 439.351 182.026L454.236 191.034C454.899 191.435 455.427 192.397 455.427 193.181V198.381C455.409 199.286 454.791 199.65 454.03 199.193L448.37 195.739C445.629 194.087 443.408 195.412 443.39 198.698V201.013C443.372 204.29 445.584 208.295 448.325 209.938L553.856 273.444C556.597 275.096 558.818 273.771 558.827 270.485V268.161C558.845 264.884 556.633 260.888 553.892 259.236L551.393 257.612C550.65 257.164 550.023 256.09 550.023 255.194C550.023 253.178 550.041 250.116 550.041 249.957C550.041 249.173 550.578 248.846 551.232 249.248L563.09 256.51H563.117Z" fill="#A3BAFF"/>
<path d="M563.117 256.51L596.766 236.132C596.954 236.244 597.133 236.403 597.285 236.589L563.637 256.968C563.476 256.781 563.296 256.622 563.108 256.51H563.117Z" fill="#8096D8"/>
<path d="M563.646 256.967L597.295 236.589C597.483 236.813 597.635 237.074 597.752 237.345L564.103 257.724C563.987 257.453 563.826 257.191 563.646 256.967Z" fill="#8096D8"/>
<path d="M564.103 257.724L597.751 237.346C597.886 237.654 597.957 237.98 597.957 238.279L564.309 258.658C564.309 258.359 564.228 258.032 564.103 257.724Z" fill="#8096D8"/>
<path d="M526.432 179.412C518.416 171.122 509.361 168.107 501.551 163.411C495.156 159.565 494.216 156.886 487.678 156.139C484.776 155.813 476.841 161.162 476.841 161.162C481.014 162.721 487.275 165.166 493.67 169.012C501.479 173.708 511.063 180.149 517.762 185.536C517.887 185.638 517.95 185.872 518.129 185.9C521.004 186.394 526.79 179.785 526.79 179.785C526.673 179.645 526.539 179.542 526.423 179.421L526.432 179.412Z" fill="#D2DDFF"/>
<path d="M516.624 185.927C516.624 182.884 526.799 179.775 526.799 179.775C527.067 180.102 527.309 180.522 527.515 181.026C527.515 181.026 519.275 190.352 516.499 189.409C516.006 189.241 516.615 185.927 516.615 185.927H516.624Z" fill="#A3BAFF"/>
<path d="M516.867 187.542C516.867 184.499 527.516 181.026 527.516 181.026C529.835 186.581 528.483 201.862 526.109 203.132L516.016 209.246C518.389 207.977 515.908 196.868 515.908 190.025L516.867 187.542Z" fill="#6477B0"/>
<path d="M493.947 168.536C487.553 164.69 480.827 159.052 476.85 161.152C475.82 161.768 475.166 164.074 474.844 167.052C475.211 165.232 475.757 163.906 476.501 163.458C480.477 161.367 487.212 166.996 493.598 170.842C501.399 175.538 516.884 181.568 516.257 187.076C515.559 193.256 517.09 203.151 516.759 208.304C518.344 204.756 517.135 193.069 517.959 186.049C518.613 180.541 501.739 173.223 493.938 168.527L493.947 168.536Z" fill="#A3BAFF"/>
<path d="M516.267 187.086C516.894 181.578 501.418 175.547 493.608 170.852C487.213 167.006 480.487 161.367 476.51 163.468C475.767 163.906 475.212 165.232 474.853 167.062C474.441 170.973 474.603 176.042 475.229 180C475.597 182.325 476.707 185.246 480.2 187.543C488.565 193.032 495.775 197.681 502.725 201.863C507.159 204.523 511.493 206.979 516.025 209.266C516.321 209.098 516.572 208.771 516.769 208.323C517.1 203.17 515.568 193.265 516.267 187.095V187.086Z" fill="#778ED3"/>
<path d="M554.583 258.91C548.537 255.269 508.413 231.11 503.093 227.908C502.323 227.441 501.213 227.945 501.06 228.944L501.016 229.467C501.24 229.131 501.929 229.243 502.064 229.327C507.384 232.52 547.508 256.688 553.553 260.329C556.159 261.897 558.264 265.696 558.255 268.814V271.027C558.255 271.662 558.201 272.315 558.031 272.791C558.819 272.259 558.882 271.176 558.882 269.692L558.819 267.358C558.819 264.24 557.18 260.478 554.574 258.91H554.583Z" fill="#D2DDFF"/>
<path d="M501.006 229.644V229.102C501.006 228.169 500.361 227.021 499.582 226.554C494.271 223.352 454.622 199.51 448.576 195.87C447.743 195.365 447.352 194.771 446.703 194.688C445.726 194.688 444.361 194.945 443.984 196.047C444.844 195.459 446.194 196.467 447.555 197.288C453.601 200.929 493.259 224.752 498.561 227.964C500.738 229.28 500.908 231.754 500.917 232.687C500.917 232.687 501.051 229.653 501.015 229.635L501.006 229.644Z" fill="#D2DDFF"/>
<path d="M453.188 192.416C453.851 192.817 454.379 193.779 454.379 194.563V199.305C454.952 199.473 455.391 199.1 455.391 198.334L455.409 193.144C455.409 192.35 454.881 191.389 454.218 190.997L439.342 182.054C438.679 181.662 438.142 181.979 438.142 182.763V183.389C438.195 183.417 438.258 183.435 438.312 183.473L453.188 192.416Z" fill="#D2DDFF"/>
<path d="M563.117 256.492L551.259 249.239C550.596 248.837 550.067 249.164 550.067 249.948C550.067 249.985 550.067 250.219 550.067 250.573C550.13 250.601 550.184 250.62 550.247 250.657L562.105 257.911C562.767 258.312 563.296 259.274 563.296 260.058L563.242 280.455C563.815 280.698 564.263 280.38 564.263 279.662L564.317 258.639C564.317 257.855 563.788 256.884 563.126 256.492H563.117Z" fill="#D2DDFF"/>
<mask id="mask0_2067_297522" style="mask-type:luminance" maskUnits="userSpaceOnUse" x="515" y="179" width="78" height="68">
<path d="M592.001 207.959C591.732 208.332 588.186 226.022 588.186 226.022L554.376 246.587C554.376 246.587 554.295 239.548 553.848 239.455C553.409 239.362 515.452 203.543 515.452 203.543L542.213 179.851L592.001 207.968V207.959Z" fill="white"/>
</mask>
<g mask="url(#mask0_2067_297522)">
<path d="M582.508 213.691C574.492 205.401 565.437 202.386 557.636 197.69C551.241 193.844 550.292 191.156 543.763 190.409C540.861 190.073 532.926 195.431 532.926 195.431C537.099 196.981 543.36 199.436 549.755 203.282C557.555 207.977 567.157 214.419 573.847 219.796C573.972 219.898 574.035 220.132 574.214 220.16C577.098 220.654 582.875 214.045 582.875 214.045C582.758 213.905 582.624 213.803 582.508 213.691Z" fill="#D2DDFF"/>
<path d="M572.7 220.197C572.7 217.154 582.875 214.045 582.875 214.045C583.143 214.372 583.385 214.792 583.591 215.296C583.591 215.296 575.351 224.622 572.575 223.679C572.082 223.511 574.474 220.486 574.205 220.159L572.7 220.197Z" fill="#A3BAFF"/>
<path d="M572.933 221.812C572.933 218.769 583.591 215.296 583.591 215.296C585.91 220.85 584.558 236.141 582.185 237.411L572.091 243.525C574.464 242.256 571.983 231.147 571.983 224.304L572.942 221.812H572.933Z" fill="#6477B0"/>
<path d="M550.023 202.815C543.628 198.969 536.902 193.33 532.925 195.431C531.886 196.047 531.241 198.352 530.919 201.33C531.286 199.51 531.833 198.184 532.576 197.736C536.552 195.636 543.279 201.274 549.682 205.13C557.483 209.825 572.969 215.846 572.342 221.354C571.634 227.534 573.175 237.429 572.843 242.582C574.437 239.035 573.219 227.347 574.052 220.337C574.706 214.829 557.832 207.51 550.032 202.815H550.023Z" fill="#A3BAFF"/>
<path d="M572.342 221.354C572.969 215.847 557.493 209.816 549.683 205.13C543.288 201.284 536.553 195.645 532.577 197.737C531.824 198.175 531.287 199.501 530.92 201.331C530.508 205.242 530.669 210.311 531.296 214.269C531.663 216.594 532.783 219.515 536.267 221.812C544.632 227.301 551.842 231.95 558.792 236.132C563.225 238.792 567.56 241.247 572.083 243.535C572.387 243.376 572.629 243.049 572.826 242.592C573.157 237.439 571.626 227.544 572.325 221.364L572.342 221.354Z" fill="#778ED3"/>
</g>
<path d="M304.381 257.047L324.038 268.29V263.56L304.381 252.306V257.047Z" fill="#111A53"/>
<path d="M330.264 264.691L324.039 268.289V263.559L330.264 259.961V264.691Z" fill="#2234A4"/>
<path d="M378.452 236.866L372.227 240.464V235.734L378.452 232.136V236.866Z" fill="#2234A4"/>
<path d="M352.569 229.22L372.227 240.464V235.734L352.569 224.479V229.22Z" fill="#111A53"/>
<path d="M357.172 244.425L345.33 251.259V247.97L357.172 241.137V244.425Z" fill="#A9BFD4"/>
<path d="M325.672 236.717L337.513 229.883L357.171 241.137L345.329 247.971L325.672 236.717Z" fill="#BBD2E9"/>
<path d="M345.33 251.259L333.488 258.093V254.804L345.33 247.971V251.259Z" fill="#A9BFD4"/>
<path d="M313.831 243.549L325.672 236.716L345.33 247.97L333.489 254.804L313.831 243.549Z" fill="#BBD2E9"/>
<path d="M369.002 237.591L357.171 244.425V241.136L369.002 234.303V237.591Z" fill="#A9BFD4"/>
<path d="M337.514 229.882L349.344 223.049L369.002 234.303L357.171 241.137L337.514 229.882Z" fill="#BBD2E9"/>
<path d="M333.489 258.092L321.658 264.937V261.637L333.489 254.804V258.092Z" fill="#A9BFD4"/>
<path d="M302 253.683L321.658 264.937V261.638L302 250.384V253.683Z" fill="#4456CB"/>
<path d="M333.488 254.804L324.039 260.26L321.647 261.638L319.287 260.282L302 250.384L303.837 249.316L304.381 249.006L313.841 243.561L333.488 254.804Z" fill="#BBD2E9"/>
<path d="M380.843 230.757L369.002 237.591V234.302L380.843 227.469V230.757Z" fill="#A9BFD4"/>
<path d="M349.345 223.049L361.186 216.215L380.844 227.469L369.002 234.303L349.345 223.049Z" fill="#BBD2E9"/>
<path d="M372.227 232.434L352.569 221.19L343.974 226.113L332.933 232.434H333.072L330.264 234.068V243.549L335.613 240.474L348.287 240.453L358.453 232.498L372.227 232.434Z" fill="#3247B9"/>
<path d="M352.569 221.191L372.227 232.434V196.173L352.569 184.93V221.191Z" fill="#293896"/>
<path d="M324.039 260.26L319.287 260.281L302 250.383L303.837 249.316L304.381 249.006L324.039 260.26Z" fill="#4456CB"/>
<path d="M304.381 249.017L324.038 260.261V223.999L304.381 212.756V249.017Z" fill="#293896"/>
<path d="M330.264 256.672L324.039 260.26V223.999L330.264 220.411V256.672Z" fill="#3750E8"/>
<path d="M378.452 228.847L372.227 232.435V196.174L378.452 192.586V228.847Z" fill="#3750E8"/>
<path d="M357.172 204.876L345.33 211.709V208.41L357.172 201.576V204.876Z" fill="#A9BFD4"/>
<path d="M325.672 197.167L337.513 190.333L357.171 201.577L345.329 208.41L325.672 197.167Z" fill="#BBD2E9"/>
<path d="M345.33 211.71L333.488 218.543V215.255L345.33 208.41V211.71Z" fill="#A9BFD4"/>
<path d="M313.831 204L325.672 197.166L345.33 208.41L333.489 215.254L313.831 204Z" fill="#BBD2E9"/>
<path d="M369.002 198.042L357.171 204.875V201.576L369.002 194.742V198.042Z" fill="#A9BFD4"/>
<path d="M337.514 190.333L349.344 183.499L369.002 194.743L357.171 201.576L337.514 190.333Z" fill="#BBD2E9"/>
<path d="M333.489 218.543L321.658 225.376V222.088L333.489 215.254V218.543Z" fill="#A9BFD4"/>
<path d="M302 214.133L321.658 225.377V222.088L302 210.834V214.133Z" fill="#4456CB"/>
<path d="M302 210.834L313.831 204L333.488 215.254L321.658 222.088L302 210.834Z" fill="#BBD2E9"/>
<path d="M380.843 191.209L369.002 198.042V194.743L380.843 187.909V191.209Z" fill="#A9BFD4"/>
<path d="M349.345 183.499L361.186 176.654L380.844 187.908L369.002 194.742L349.345 183.499Z" fill="#BBD2E9"/>
<path d="M372.227 192.756L352.569 181.513L343.974 186.435L332.933 192.756H333.072L330.264 194.39V203.872L345.405 195.607L360.417 194.881L363.685 192.831L372.227 192.756Z" fill="#3247B9"/>
<path d="M352.569 181.513L372.227 192.756V161.642L352.569 150.388V181.513Z" fill="#293896"/>
<path d="M323.634 202.581L322.844 201.716L332.229 196.58L346.132 199.602L337.536 205.603L323.634 202.581Z" fill="#03062E"/>
<path d="M340.153 194.519L334.365 196.537L332.764 197.668L339.715 200.018L340.153 194.519Z" fill="#6E82FF"/>
<path d="M338.562 195.65L332.764 197.668L338.113 201.139L338.562 195.65Z" fill="#141A46"/>
<path d="M346.302 183.094L347.199 183.617L336.639 205.079L335.368 189.404L346.302 183.094Z" fill="#6E82FF"/>
<path d="M347.199 183.617L348.481 199.303L337.536 205.602L336.266 189.917L347.199 183.617Z" fill="#B4BEFF"/>
<path d="M337.632 190.664L346.003 185.827L347.114 198.555L338.732 203.392L337.632 190.664Z" fill="white"/>
<path d="M339.33 192.266L343.751 189.714L344.338 196.43L339.917 199.089L339.33 192.266Z" fill="#253AA9"/>
<path d="M345.342 186.212L346.409 198.267L338.7 202.719L338.732 203.392L347.114 198.555L346.004 185.827L345.342 186.212Z" fill="#6E82FF"/>
<path d="M335.368 189.404L336.265 189.917L337.536 205.602L336.639 205.079L335.368 189.404Z" fill="#3750E8"/>
<path d="M346.003 185.827L347.113 198.555L346.409 198.267L345.341 186.212L346.003 185.827Z" fill="#3750E8"/>
<path d="M324.039 220.615L319.287 220.636L302 210.738L303.837 209.681L304.381 209.371L324.039 220.615Z" fill="#4456CB"/>
<path d="M304.381 209.371L324.038 220.615V189.5L304.381 178.246V209.371Z" fill="#293896"/>
<path d="M330.264 216.995L324.039 220.614V189.404L330.264 185.773V216.995Z" fill="#3750E8"/>
<path d="M378.452 189.222L372.227 192.853V161.642L378.452 158.012V189.222Z" fill="#3750E8"/>
<path d="M357.172 170.344L345.33 177.178V173.879L357.172 167.045V170.344Z" fill="#A9BFD4"/>
<path d="M325.672 162.625L337.513 155.791L357.171 167.045L345.329 173.879L325.672 162.625Z" fill="#BBD2E9"/>
<path d="M345.33 177.178L333.488 184.012V180.713L345.33 173.879V177.178Z" fill="#A9BFD4"/>
<path d="M313.831 169.469L325.672 162.625L345.33 173.879L333.489 180.713L313.831 169.469Z" fill="#BBD2E9"/>
<path d="M369.002 163.501L357.171 170.345V167.046L369.002 160.212V163.501Z" fill="#A9BFD4"/>
<path d="M337.514 155.791L349.344 148.957L369.002 160.211L357.171 167.045L337.514 155.791Z" fill="#BBD2E9"/>
<path d="M333.489 184.012L321.658 190.846V187.547L333.489 180.713V184.012Z" fill="#A9BFD4"/>
<path d="M302 179.591L321.658 190.846V187.546L302 176.303V179.591Z" fill="#4456CB"/>
<path d="M302 176.302L313.831 169.469L333.488 180.712L321.658 187.546L302 176.302Z" fill="#BBD2E9"/>
<path d="M380.843 156.667L369.002 163.5V160.212L380.843 153.378V156.667Z" fill="#A9BFD4"/>
<path d="M349.345 148.958L361.186 142.124L380.844 153.378L369.002 160.212L349.345 148.958Z" fill="#BBD2E9"/>
<path d="M372.227 158.343L352.569 147.1L343.974 152.022L332.933 158.343H333.072L330.264 159.977V169.469L339.457 168.199L349.003 162.988L356.435 162.956L362.275 158.386L372.227 158.343Z" fill="#3247B9"/>
<path d="M352.569 147.1L372.227 158.343V116.519L352.569 105.275V147.1Z" fill="#293896"/>
<path d="M304.381 174.926L324.038 186.169V144.345L304.381 133.102V174.926Z" fill="#293896"/>
<path d="M330.264 182.55L324.039 186.169V144.345L330.264 140.715V182.55Z" fill="#3750E8"/>
<path d="M378.452 154.724L372.227 158.343V116.519L378.452 112.889V154.724Z" fill="#3750E8"/>
<path d="M324.039 186.169L319.287 186.191L302 176.293L303.837 175.235L304.381 174.926L324.039 186.169Z" fill="#4456CB"/>
<path d="M357.172 125.221L345.33 132.055V128.756L357.172 121.922V125.221Z" fill="#A9BFD4"/>
<path d="M325.672 117.511L337.513 110.678L357.171 121.921L345.329 128.755L325.672 117.511Z" fill="white"/>
<path d="M345.33 132.054L333.488 138.888V135.589L345.33 128.755V132.054Z" fill="#A9BFD4"/>
<path d="M313.831 124.345L325.672 117.512L345.33 128.755L333.489 135.589L313.831 124.345Z" fill="white"/>
<path d="M369.002 118.387L357.171 125.221V121.922L369.002 115.088V118.387Z" fill="#A9BFD4"/>
<path d="M337.514 110.678L349.344 103.845L369.002 115.088L357.171 121.922L337.514 110.678Z" fill="white"/>
<path d="M333.489 138.888L321.658 145.722V142.433L333.489 135.589V138.888Z" fill="#A9BFD4"/>
<path d="M302 134.467L321.658 145.722V142.433L302 131.179V134.467Z" fill="#4456CB"/>
<path d="M302 131.179L313.831 124.346L333.488 135.589L321.658 142.434L302 131.179Z" fill="white"/>
<path d="M380.843 111.553L369.002 118.387V115.088L380.843 108.254V111.553Z" fill="#A9BFD4"/>
<path d="M349.345 103.844L361.186 97L380.844 108.254L369.002 115.088L349.345 103.844Z" fill="white"/>
<path d="M378.452 109.632L357.396 99.1889L361.186 97L380.844 108.254L378.452 109.632Z" fill="white"/>
<g opacity="0.46" style="mix-blend-mode:multiply">
<path d="M503.011 177.412C498.796 175.207 498.453 169.784 490.655 171.524C489.272 172.356 485.745 182.129 485.903 184.421C485.986 185.581 487.156 186.876 487.369 188.848C487.62 191.197 487.481 193.479 485.169 194.803C485.058 194.871 483.09 195.287 482.821 195.412C484.371 197.22 485.884 199.434 487.425 201.387C482.886 201.59 476.898 201.938 473.612 201.967C473.612 201.919 473.631 201.88 473.649 201.832C474.605 198.409 464.747 191.971 463.095 198.593C462.25 201.957 461.684 205.157 461.164 208.406L452.967 229.403C452.967 229.403 451.064 232.4 448.874 233.415C448.549 233.56 447.509 233.899 446.321 234.256C445.337 234.411 442.459 234.885 440.324 235.494C438.282 236.083 437.4 237.359 437.4 237.359C437.261 237.62 437.103 238.094 437.14 238.616C437.113 238.742 437.094 238.868 437.075 238.984C436.899 240.298 437.874 240.975 439.034 241.555C440.853 242.464 447.834 241.787 450.999 241.197C452.29 240.956 452.652 240.366 452.902 239.747C452.902 239.747 452.902 239.747 452.902 239.738C452.921 239.689 452.94 239.641 452.958 239.583C455.418 238.79 458.296 237.418 460.375 236.219C462.027 235.271 461.972 234.295 462.027 233.328C462.055 232.913 461.879 232.642 461.665 232.448C462.213 231.375 462.575 229.587 462.575 229.587C462.575 229.587 465.601 224.202 468.265 218.189C469.24 216.536 470.011 215.028 470.4 213.935C471.059 212.137 473.733 210.726 474.457 210.668C476.889 210.474 483.424 211.876 485.735 212.031C490.321 212.34 497.636 214.138 499.502 205.998C499.613 205.969 501.349 198.699 501.451 198.67C501.516 198.158 504.969 197.066 509.583 195.461C514.948 193.595 507.68 185.803 504.524 181.259C498.806 173.013 505.22 179.007 502.983 177.363L503.011 177.412Z" fill="#5E6670"/>
</g>
<path d="M474.726 189.806C477.835 191.488 482.198 185.572 482.198 185.572C482.198 185.572 493.931 170.365 491.908 169.679C489.773 168.953 486.227 169.466 484.064 172.134C479.97 177.171 476.183 182.778 473.992 185.649L474.716 189.797L474.726 189.806Z" fill="white"/>
<path d="M483.637 194.088C471.987 192.889 462.157 190.453 460.551 195.789L471.616 207.323C474.169 205.757 478.272 204.983 480.991 204.219C484.547 203.214 489.485 203.224 489.485 203.224C489.216 198.429 487.081 194.446 483.637 194.098V194.088Z" fill="#00117C"/>
<path d="M449.439 236.528C449.56 236.567 450.284 237.04 449.987 237.785C449.699 238.539 449.486 239.322 447.936 239.612C444.78 240.202 437.79 240.869 435.98 239.97C434.81 239.39 433.845 238.713 434.021 237.398C434.086 236.915 434.262 236.228 434.262 236.228L445.569 235.532L448.725 235.938L449.439 236.528Z" fill="#0C1F43"/>
<path d="M448.966 235.358H448.4L445.559 235.532H445.392L436.221 236.982L437.288 239.622C437.288 239.622 447.081 239.158 448.604 238.732C449.272 238.549 449.634 238.375 449.838 238.162C449.894 238.036 449.931 237.911 449.987 237.785C450.275 237.031 449.402 235.987 448.966 235.358Z" fill="#16397D"/>
<path d="M489.55 199.637C486.004 199.56 471.746 200.585 468.692 200.324C463.169 199.831 458.926 204.655 458.926 204.655L449.885 227.808C449.885 227.808 447.982 230.805 445.791 231.82C445.086 232.149 440.853 233.386 439.405 233.792C439.368 233.792 437.075 234.237 435.627 234.817C434.466 235.281 434.216 236.258 434.216 236.905C434.216 237.998 435.97 238.858 437.845 239.032C440.277 239.264 443.953 238.336 443.953 238.336L446.098 237.804C446.098 237.804 448.901 238.317 449.579 234.759C449.644 234.663 450.182 234.121 450.182 234.121C450.182 234.121 452.893 232.275 457.005 228.002C460.161 224.715 465.972 216.101 467.327 212.36C467.986 210.562 470.66 209.14 471.384 209.082C473.816 208.889 480.351 210.291 482.662 210.446C488 210.803 497.032 213.191 496.883 199.608L489.532 199.637H489.55Z" fill="#00117C"/>
<path d="M434.337 235.774C434.337 235.774 435.219 234.489 437.261 233.899C439.878 233.145 443.61 232.604 443.61 232.604C443.61 232.604 444.743 233.851 445.123 234.953C445.894 237.186 445.513 239.061 445.513 239.061C445.513 239.061 440.742 239.477 438.848 239.583C436.49 239.719 435.534 239.293 434.652 238.336C433.77 237.379 434.095 236.248 434.337 235.765V235.774Z" fill="#5468E1"/>
<path d="M502.147 173.091C497.924 170.887 495.38 168.17 487.583 169.92C486.2 170.751 482.672 180.525 482.83 182.816C482.913 183.976 484.083 185.272 484.297 187.244C484.547 189.593 484.417 191.865 482.097 193.199C481.985 193.267 480.017 193.683 479.748 193.808C483.118 197.733 486.283 203.582 490.005 204.491C492.493 205.1 495.352 204.742 496.754 204.336C496.828 203.824 496.754 204.645 498.221 199.609C499.864 193.963 500.736 190.154 502.324 184.798C504.449 177.654 504.375 174.725 502.147 173.081V173.091Z" fill="#5468E1"/>
<path d="M500.299 172.066C497.951 170.597 494.618 168.944 492.752 169.244C491.323 169.466 491.88 169.137 491.119 169.301C490.19 170.384 488.464 173.845 488.371 175.373C488.26 177.2 489.364 178.766 490.673 178.805C496.976 179.027 498.591 174.909 500.299 172.057V172.066Z" fill="white"/>
<path d="M497.292 173.081C497.292 173.081 499.028 165.869 500.216 164.071C501.153 162.669 494.024 162.756 494.024 162.756L491.898 170.983L497.282 173.081H497.292Z" fill="white"/>
<path d="M497.115 149.841C493.235 148.333 490.979 152.586 490.079 154.791C489.448 156.337 488.176 159.74 488.176 159.74C487.341 162.206 487.183 163.588 488.455 164.69C490.051 166.063 495.305 166.595 497.654 165.734C500.541 164.69 500.318 161.906 500.494 161.577L499.575 157.236C499.575 157.236 499.185 150.634 497.125 149.841H497.115Z" fill="white"/>
<path d="M495.175 162.515C493.978 168.267 492.613 169.33 491.611 170.306C491.332 170.577 493.56 170.964 495.519 170.993C498.795 171.031 501.933 169.765 501.933 169.765C501.933 169.765 505.693 166.42 506.649 160.842C507.558 155.525 504.866 150.624 498.777 149.251C494.72 148.332 491.917 150.111 492.604 151.764C493.681 154.346 496.326 156.975 495.175 162.515Z" fill="#2D2117"/>
<path d="M492.836 193.799C492.836 193.799 487.796 196.428 486.97 199.696C486.385 202.026 486.533 202.993 486.533 202.993C486.533 202.993 486.348 203.776 487.341 203.892C487.972 203.969 488.919 204.027 489.467 203.341C490.479 202.093 490.284 201.803 491.509 200.672C492.539 199.725 493.913 199.184 494.452 197.907C495.695 194.988 492.836 193.799 492.836 193.799Z" fill="white"/>
<path d="M501.246 174.038C502.908 173.245 504.513 173.081 506.639 179.142C507.725 182.236 508.941 185.967 510.389 191.546C510.881 193.45 509.461 194.794 507.168 195.471C502.369 196.872 495.778 195.983 494.108 196.592C493.049 196.979 492.251 194.127 492.251 194.127C492.251 194.127 493.681 193.189 495.138 192.725C498.758 191.555 504.634 190.115 504.616 190.008C504.523 189.631 502.629 186.432 502.629 186.432C502.629 186.432 500.875 183.203 499.779 180.148C498.331 176.078 499.881 174.695 501.255 174.038H501.246Z" fill="white"/>
<path d="M457.888 230.544C458.045 230.544 459.029 230.786 458.974 231.753C458.918 232.719 458.974 233.696 457.321 234.643C453.961 236.577 448.521 238.955 446.136 238.665C444.595 238.471 443.258 238.094 442.97 236.538C442.868 235.968 442.812 235.117 442.812 235.117L453.135 230.979L456.848 230.177L457.878 230.554L457.888 230.544Z" fill="#0C1F43"/>
<path d="M457.887 230.544L456.857 230.167L453.144 230.969L452.949 231.047L445.318 235.175L449.523 237.437C449.523 237.437 456.198 234.459 457.766 233.367C458.453 232.893 458.806 232.545 458.955 232.226C458.964 232.062 458.973 231.897 458.983 231.743C459.038 230.776 458.054 230.534 457.896 230.534L457.887 230.544Z" fill="#16397D"/>
<path d="M470.567 200.237C469.926 202.519 470.288 204.143 466.566 213.414C463.698 220.558 459.511 228.022 459.511 228.022C459.511 228.022 459.14 229.907 458.564 230.97C458.072 231.869 456.327 231.84 451.612 234.518C449.235 235.862 445.216 233.203 445.216 233.203C445.216 233.203 450.275 229.607 452.354 228.128C454.174 226.833 454.935 223.826 454.935 223.826C457.525 213.453 457.812 205.815 460.022 197.008C461.683 190.386 471.532 196.825 470.576 200.247L470.567 200.237Z" fill="#00117C"/>
<path d="M455.055 223.284C455.018 223.458 454.972 223.632 454.935 223.806C454.935 223.806 454.174 226.813 452.354 228.108C450.266 229.587 445.216 233.184 445.216 233.184C445.216 233.184 449.235 235.842 451.612 234.498C456.327 231.82 458.072 231.859 458.564 230.95C459.14 229.887 459.511 228.002 459.511 228.002C459.511 228.002 460.384 226.445 461.6 224.086C459.613 223.903 457.339 223.642 455.055 223.274V223.284Z" fill="white"/>
<path d="M444.408 232.632C445.671 231.492 449.105 229.249 449.987 228.814C450.86 228.388 451.974 228.553 453.032 229.626C455.093 231.724 455.501 234.633 455.501 234.633C455.501 234.633 452.958 236.064 449.737 237.36C447.026 238.452 443.294 237.698 442.858 235.736C442.673 234.895 443.09 233.85 444.427 232.623L444.408 232.632Z" fill="#5468E1"/>
<path d="M474.058 189.622C474.058 189.622 471.821 187.428 473.835 183.928C475.849 180.428 479.47 176.088 479.47 176.088L478.718 173.187C478.718 173.187 478.152 171.96 479.312 170.906C480.472 169.852 482.106 169.475 482.106 169.475C482.106 169.475 483.201 169.262 483.721 170.104C484.25 170.954 484.547 171.708 484.547 171.708L481.763 172.975C481.763 172.975 482.719 174.696 482.134 175.807C481.549 176.919 480.806 184.576 479.08 186.857C477.353 189.148 475.422 190.676 474.058 189.622Z" fill="white"/>
<path d="M238.785 266.577L232.087 282.417C232.087 282.417 230.206 286.775 234.296 291.533C238.557 296.486 250.064 303.393 250.064 303.393L251.991 297.505L243.039 287.207C243.039 287.207 241.164 285.56 243.288 283.005C246.195 279.502 250.946 270.361 250.946 270.361L245.379 261.604L238.792 266.577H238.785Z" fill="#0E1A68"/>
<path d="M245.398 301.413L247.254 302.707C247.254 302.707 246.281 308.986 246.3 310.13C246.307 310.757 246.758 311.319 247.104 311.6C247.326 311.783 248.006 312.169 248.287 312.136C248.999 312.044 250.031 311.561 250.574 310.901C251.619 309.62 252.711 306.294 252.711 306.294C252.743 305.804 254.566 297.897 254.566 297.897C254.566 297.897 253.946 297.264 253.527 296.956L250.234 294.722C250.234 294.722 248.783 294.846 249.522 296.015C251.142 298.597 249.711 301.106 249.711 301.106C249.711 301.106 247.94 299.25 246.98 299.374C246.3 299.459 245.398 301.42 245.398 301.42V301.413Z" fill="#293896"/>
<path d="M250.502 303.576C250.581 303.57 250.652 303.498 250.646 303.419C250.646 303.354 250.607 303.282 250.541 303.282C250.182 303.321 248.888 303.504 248.026 304.007C247.274 304.445 246.941 305.033 246.817 305.308C246.784 305.386 246.804 305.484 246.889 305.51C246.967 305.53 247.045 305.491 247.078 305.419C247.189 305.177 247.496 304.648 248.169 304.249C248.921 303.812 250.084 303.628 250.496 303.576H250.502Z" fill="white"/>
<path d="M250.319 304.465C250.404 304.451 250.469 304.386 250.463 304.301C250.463 304.236 250.424 304.164 250.358 304.17C250.006 304.21 248.705 304.393 247.849 304.889C247.098 305.327 246.758 305.909 246.634 306.196C246.601 306.274 246.627 306.373 246.712 306.399C246.784 306.425 246.869 306.379 246.902 306.307C247.013 306.065 247.32 305.536 247.993 305.137C248.744 304.7 249.908 304.517 250.326 304.465H250.319Z" fill="white"/>
<path d="M250.293 305.386C250.371 305.373 250.443 305.307 250.43 305.229C250.43 305.164 250.391 305.085 250.326 305.098C249.973 305.137 248.672 305.314 247.816 305.817C247.065 306.255 246.732 306.843 246.608 307.124C246.575 307.202 246.601 307.307 246.679 307.326C246.758 307.353 246.836 307.313 246.875 307.242C246.986 306.993 247.287 306.464 247.967 306.072C248.718 305.634 249.881 305.451 250.293 305.399V305.386Z" fill="white"/>
<path d="M246.3 310.123C246.3 309.953 246.28 309.992 246.313 309.685C246.561 309.385 247.012 308.908 248.012 308.391C249.959 307.392 251.723 308.032 251.723 308.032C251.723 308.032 251.684 308.849 249.534 311.646C249.508 311.678 249.482 311.704 249.456 311.73C249.051 311.94 248.633 312.077 248.286 312.123C248.005 312.155 247.326 311.77 247.104 311.587C246.764 311.306 246.313 310.744 246.3 310.117V310.123Z" fill="white"/>
<path d="M247.045 311.574C247.653 311.855 248.966 311.097 249.581 310.496C251.691 308.444 253.893 298.93 253.965 298.511C254.129 297.531 253.926 297.257 253.926 297.257C253.926 297.257 254.671 297.891 254.638 297.91C254.638 297.91 255.383 298.531 255.324 299.119C255.279 299.596 253.874 303.641 253.619 304.497C253.619 304.497 252.149 309.424 250.45 311.195C249.855 311.816 249.117 312.43 248.189 312.365C247.901 312.338 246.954 311.541 247.045 311.574Z" fill="white"/>
<path d="M244.935 269.139L246.816 288.396C246.888 291.206 248.136 294.662 250.326 297.753C253.638 302.432 261.833 311.796 261.833 311.796L266.119 307.699C266.119 307.699 261.441 298.531 257.932 294.44C257.206 293.597 255.651 291.036 255.677 289.454C255.743 284.495 256.533 275.386 255.984 270.459C255.396 265.192 253.841 260.121 253.841 260.121L244.935 269.139Z" fill="#0E1A68"/>
<path d="M233.362 190.223C233.362 190.223 234.401 230.096 235.44 233.997C236.041 236.238 236.093 244.021 240.119 244.138C244.144 244.256 244.314 234.213 242.589 220.216C240.864 206.225 237.662 190.288 237.662 190.288L233.355 190.223H233.362Z" fill="white"/>
<path d="M252.449 236.943C252.449 236.943 249.724 233.232 247.849 232.826C246.326 232.5 241.707 232.715 241.707 232.715C241.707 232.715 239.38 238.224 239.367 238.596C239.354 238.969 240.838 248.705 240.838 248.705L248.378 244.399L252.449 236.95V236.943Z" fill="white"/>
<path d="M239.439 232.494C240.387 231.507 240.655 232.075 241.674 232.154C241.511 232.402 242.092 234.48 241.837 234.813C241.21 235.656 240.759 236.643 240.922 238.054C241.171 240.191 242.87 240.622 243.497 240.714C244.66 240.877 246.581 239.675 247.816 237.891C249.313 235.735 249.541 233.781 249.496 233.781C249.143 233.487 257.644 236.996 257.415 238.29L256.115 266.891C256.161 266.63 254.462 270.315 250.914 271.831C250.914 271.831 248.62 272.975 244.758 273.282C239.086 273.739 237.191 271.988 237.191 271.988C236.897 271.674 237.368 268.42 237.394 267.669L237.002 257.266L236.022 243.275C235.701 237.656 236.897 235.14 239.433 232.5L239.439 232.494Z" fill="#293896"/>
<path d="M242.576 235.336C245.052 237.44 247.392 235.774 248.751 233.885L247.679 226.148L242.21 228.631L242.582 235.336H242.576Z" fill="white"/>
<path d="M238.838 219.594L243.994 218.875L245.176 227.011C245.196 227.657 245.412 229.86 245.386 230.415C245.353 231.023 245.301 231.683 244.458 232.46C244.458 232.46 242.393 234.617 241.465 235.048C240.857 235.329 239.459 234.95 239.459 234.95C238.596 234.577 238.165 233.787 237.303 231.833L233.924 224.586L233.401 219.437L238.838 219.594Z" fill="white"/>
<path d="M232.297 220.555C232.343 220.529 233.512 220.731 233.081 221.13C232.107 222.012 231.768 222.888 231.937 222.724C232.231 222.43 234.29 222.555 234.421 223.352C234.466 223.639 234.976 224.698 237.792 222.587C238.596 221.986 240.419 220.176 241.837 224.306C242.19 225.332 242.68 226.58 242.955 227.285C242.987 227.37 243.523 226.907 243.582 226.273C243.601 226.077 243.726 226.188 243.882 225.404C243.882 225.404 243.974 224.378 244.823 224.378C245.836 224.378 245.425 226.802 245.385 226.926L247.914 228.939C247.94 228.658 247.718 224.077 247.725 222.548C247.738 219.934 247.339 217.608 245.261 216.171C244.176 215.419 242.706 215.393 242.014 215.308C240.674 215.151 237.969 215.269 238.106 215.308C238.537 215.419 238.884 215.791 238.439 215.889C238.322 215.916 237.897 215.889 237.453 215.935C237.119 215.974 235.714 216.177 235.832 216.216C236.479 216.412 236.603 216.687 236.218 216.883C236.08 216.955 234.447 216.994 233.937 217.393C233.865 217.445 235.179 218.065 234.956 218.124C233.525 218.523 232.329 219.111 232.101 219.667C232.062 219.758 232.643 219.085 233.395 219.523C233.649 219.673 233.225 219.647 232.715 220.091C232.441 220.333 232.277 220.555 232.277 220.555H232.297Z" fill="#935006"/>
<path d="M244.601 224.194C243.327 224.037 243.418 226.057 243.418 226.057L243.647 228.304C243.647 228.304 243.83 229.121 244.346 229.102C244.947 229.076 245.313 228.599 245.549 227.821C245.562 227.775 245.921 226.671 245.934 226.605C246.176 225.638 245.869 224.358 244.601 224.194Z" fill="white"/>
<path d="M234.838 220.862C234.838 220.862 234.048 221.065 233.512 222.908C233.303 223.627 233.512 225.482 233.512 225.482C233.512 225.482 233.414 223.705 235.838 222.79C238.014 221.96 240.17 220.902 240.17 220.902L234.832 220.869L234.838 220.862Z" fill="#935006"/>
<path d="M237.322 221.012C235.878 222.071 235.754 224.273 235.754 224.273C235.754 224.273 237.087 223.123 237.675 222.744C238.27 222.371 240.341 221.313 240.341 221.313C240.341 221.313 237.982 220.528 237.322 221.012Z" fill="#935006"/>
<path d="M256.023 204.546C256.023 204.546 252.122 232.258 251.56 234.513C250.998 236.767 249.182 246.02 253.122 246.863C257.062 247.706 258.454 243.746 259.101 235.552C260.218 221.496 260.244 205.389 260.244 205.389L256.023 204.546Z" fill="white"/>
<path d="M236.309 193.672C235.538 193.927 234.133 193.816 233.251 193.358C232.336 192.888 231.48 192.881 231.212 189.817C231.147 189.072 230.833 186.641 230.833 186.641C230.833 186.641 231.689 184.576 235.44 184.994C235.78 185.034 236.825 185.517 236.825 185.517C237.524 185.935 238.929 187.66 238.583 188.778C238.465 189.15 238.622 189.849 238.622 189.849C238.217 191.352 237.838 193.169 236.309 193.672Z" fill="#0E1A68"/>
<path d="M196.363 281.875L198.37 280.705L190.097 308.078L188.091 309.241L196.363 281.875Z" fill="white"/>
<mask id="mask1_2067_297522" style="mask-type:luminance" maskUnits="userSpaceOnUse" x="196" y="277" width="5" height="5">
<path d="M198.965 278.98L200.971 277.811C199.318 278.771 198.383 280.686 198.37 280.705L196.364 281.875C196.364 281.875 197.312 279.947 198.965 278.98Z" fill="white"/>
</mask>
<g mask="url(#mask1_2067_297522)">
<path d="M198.965 278.98L200.971 277.811C199.318 278.771 198.383 280.686 198.37 280.705L196.364 281.875C196.364 281.875 197.312 279.947 198.965 278.98Z" fill="#293896"/>
</g>
<path d="M205.597 279.62L207.603 278.45V279.371L205.597 280.541V279.62Z" fill="#BBD2E9"/>
<mask id="mask2_2067_297522" style="mask-type:luminance" maskUnits="userSpaceOnUse" x="198" y="276" width="10" height="4">
<path d="M198.462 277.921C199.135 277.529 199.802 277.144 200.468 276.752C201.605 276.092 203.095 275.856 204.911 276.908C205.885 277.47 206.78 277.98 207.604 278.451L205.598 279.62C204.768 279.15 203.879 278.64 202.905 278.078C201.089 277.026 199.605 277.261 198.462 277.921Z" fill="white"/>
</mask>
<g mask="url(#mask2_2067_297522)">
<path d="M198.462 277.921L200.468 276.752C201.605 276.092 203.095 275.856 204.911 276.908C205.885 277.47 206.78 277.98 207.604 278.451L205.598 279.62C204.768 279.15 203.879 278.64 202.905 278.078C201.089 277.026 199.605 277.261 198.462 277.921Z" fill="#293896"/>
</g>
<path d="M205.597 279.62V280.541C204.166 279.744 203.055 279.097 202.944 279.038C198.86 276.751 196.39 281.855 196.364 281.881L188.091 309.254L187 308.62L195.724 280.953C195.933 280.744 198.409 275.484 202.905 278.091C203.879 278.653 204.774 279.163 205.597 279.633V279.62Z" fill="#0E1A68"/>
<path d="M203.637 319.055C203.049 318.716 202.755 318.271 202.755 317.827C202.761 307.803 202.774 179.741 202.781 169.717C202.781 171.265 206.022 172.017 207.871 170.939C208.446 170.599 208.734 170.161 208.734 169.723L208.708 317.834C208.708 319.395 205.467 320.107 203.63 319.055H203.637Z" fill="#293896"/>
<path d="M203.663 170.945C204.833 171.619 206.715 171.612 207.872 170.939C209.028 170.259 209.022 169.168 207.852 168.501C206.682 167.828 204.8 167.835 203.644 168.508C202.487 169.181 202.494 170.279 203.663 170.945Z" fill="white"/>
<path d="M208.734 169.724V171.697C208.636 172.044 208.368 172.377 207.904 172.645C206.054 173.723 202.807 172.972 202.807 171.423C202.807 171.423 202.794 171.397 202.768 171.351C202.768 170.802 202.768 170.26 202.768 169.711C202.768 171.26 206.009 172.011 207.858 170.933C208.433 170.593 208.72 170.155 208.72 169.717L208.734 169.724Z" fill="#0E1A68"/>
<g opacity="0.29" style="mix-blend-mode:multiply">
<path d="M233.565 331.092C243.02 332.517 240.197 332.255 240.197 334.863C240.197 338.561 244.157 338.744 250.13 338.744C260.774 338.744 264.669 335.353 264.669 332.203C264.669 327.453 257.729 323.891 247.085 323.891C235.865 323.891 229.834 323.715 228.069 326.838C226.762 329.158 231.774 330.837 233.565 331.105V331.092Z" fill="#5B68B7"/>
</g>
<path d="M258.115 308.75C257.69 309.143 259.912 310.894 259.912 310.894C259.912 310.894 258.05 316.291 257.736 317.382C257.566 317.977 257.827 318.644 258.069 319.016C258.226 319.251 258.762 319.82 259.036 319.866C259.742 319.983 260.794 319.702 261.572 319.356C263.878 318.317 264.95 315.585 264.95 315.585C265.12 315.128 268.57 308.737 268.57 308.737C268.57 308.737 268.171 307.953 267.864 307.548L265.806 304.83C265.806 304.83 264.179 304.614 265.048 306.862C265.231 307.339 264.649 308.829 264.101 308.829C263.454 308.829 262.663 306.993 262.068 307.235C259.912 308.123 258.821 308.11 258.115 308.757V308.75Z" fill="#293896"/>
<path d="M263.401 312.311C263.486 312.331 263.577 312.285 263.597 312.207C263.617 312.135 263.61 312.057 263.545 312.037C263.179 311.945 261.846 311.638 260.82 311.808C259.925 311.958 259.376 312.409 259.154 312.638C259.088 312.703 259.075 312.815 259.154 312.867C259.219 312.919 259.31 312.906 259.369 312.841C259.572 312.651 260.062 312.24 260.866 312.102C261.767 311.952 262.97 312.207 263.394 312.305L263.401 312.311Z" fill="white"/>
<path d="M262.97 313.351C263.055 313.37 263.147 313.331 263.166 313.247C263.179 313.181 263.18 313.103 263.108 313.076C262.742 312.992 261.402 312.704 260.383 312.887C259.481 313.044 258.945 313.508 258.723 313.737C258.664 313.802 258.651 313.913 258.723 313.965C258.788 314.011 258.88 313.998 258.939 313.939C259.135 313.737 259.625 313.325 260.428 313.174C261.324 313.018 262.526 313.253 262.957 313.344L262.97 313.351Z" fill="white"/>
<path d="M262.617 314.24C262.702 314.253 262.793 314.207 262.806 314.122C262.819 314.05 262.806 313.965 262.741 313.952C262.375 313.886 261.022 313.671 260.01 313.906C259.121 314.115 258.611 314.599 258.396 314.841C258.343 314.913 258.337 315.017 258.409 315.063C258.48 315.108 258.572 315.089 258.631 315.03C258.814 314.815 259.284 314.377 260.081 314.194C260.97 313.984 262.186 314.155 262.617 314.226V314.24Z" fill="white"/>
<path d="M257.736 317.376C257.788 317.2 257.847 316.997 257.912 316.781C258.141 316.546 258.716 316.18 260.16 315.919C262.297 315.533 264.055 316.37 264.055 316.37C264.055 316.37 263.382 317.624 260.52 319.663C260.474 319.696 260.435 319.722 260.389 319.755C259.905 319.872 259.422 319.924 259.036 319.859C258.762 319.807 258.226 319.238 258.069 319.01C257.827 318.637 257.566 317.971 257.736 317.376Z" fill="white"/>
<path d="M258.024 318.977C258.52 319.421 260.356 318.977 261.147 318.65C265.068 317.029 267.636 309.534 267.825 309.155C268.263 308.273 268.145 307.946 268.145 307.946C268.145 307.946 268.681 308.77 268.642 308.776C268.642 308.776 269.165 309.587 268.943 310.129C268.76 310.567 266.688 314.566 266.192 315.304C266.192 315.304 264.277 318.715 261.624 319.689C260.82 319.983 259.742 320.388 258.88 320.055C258.618 319.95 257.945 318.911 258.017 318.977H258.024Z" fill="white"/>
<path d="M257.186 207.388C256.383 207.297 255.154 206.61 254.54 205.826C253.906 205.016 253.129 204.656 254.168 201.762C254.422 201.056 255.148 198.717 255.148 198.717C255.148 198.717 256.788 197.194 260.016 199.142C260.31 199.318 261.055 200.194 261.055 200.194C261.519 200.867 262.074 203.016 261.297 203.885C261.035 204.173 260.885 204.879 260.885 204.879C259.892 206.074 258.787 207.571 257.186 207.394V207.388Z" fill="#0E1A68"/>
<path d="M283.848 218.87L285.801 217.739L285.808 215.289L283.854 216.42L283.848 218.87Z" fill="#BBD2E9"/>
<path d="M283.854 216.419L285.808 215.289L208.734 173.011L206.78 174.141L283.854 216.419Z" fill="white"/>
<path d="M206.78 174.142L206.773 176.592L283.847 218.87L283.854 216.42L206.78 174.142Z" fill="#293896"/>
<path d="M281.214 361.183C280.626 360.844 280.332 360.399 280.332 359.955C280.339 349.931 280.352 221.869 280.358 211.845C280.358 213.393 283.599 214.145 285.448 213.067C286.024 212.727 286.311 212.289 286.311 211.851L286.285 359.961C286.285 361.523 283.044 362.235 281.214 361.183Z" fill="#293896"/>
<path d="M281.241 213.073C282.41 213.746 284.292 213.74 285.449 213.067C286.605 212.387 286.599 211.296 285.429 210.63C284.259 209.956 282.378 209.963 281.221 210.636C280.064 211.309 280.071 212.407 281.241 213.073Z" fill="white"/>
<path d="M286.317 211.851V213.825C286.226 214.171 285.952 214.504 285.488 214.779C283.638 215.857 280.391 215.105 280.391 213.557C280.391 213.557 280.378 213.524 280.352 213.485C280.352 212.936 280.352 212.394 280.352 211.845C280.352 213.393 283.593 214.145 285.442 213.067C286.017 212.727 286.304 212.289 286.304 211.851H286.317Z" fill="#0E1A68"/>
<path d="M293.224 334.556L295.563 333.196L301.999 369.005L299.667 370.358L293.224 334.556Z" fill="#293896"/>
<path d="M283.142 319.395L285.481 318.036C286.442 318.605 287.48 319.213 288.617 319.866C293.852 322.885 295.322 332.673 295.564 333.196L293.224 334.555C292.983 334.033 291.512 324.251 286.278 321.225C285.141 320.572 284.102 319.964 283.142 319.395Z" fill="#293896"/>
<path d="M283.141 319.396C284.102 319.964 285.141 320.572 286.278 321.225C291.512 324.251 292.982 334.033 293.224 334.556L299.66 370.358L298.386 369.626L292.466 334.771C292.44 334.706 290.976 325.107 286.219 322.277C286.088 322.199 284.795 321.454 283.135 320.467V319.396H283.141Z" fill="#0E1A68"/>
<path d="M255.978 196.449C254.965 196.319 252.345 197.005 252.064 198.37C251.79 199.73 253.868 200.324 253.868 200.324C253.868 200.324 255.691 201.259 256.422 201.331C257.292 201.416 260.938 201.376 261.042 200.755C261.147 200.128 258.389 196.756 255.978 196.449Z" fill="#0E1A68"/>
<path d="M233.238 183.753C232.225 183.622 229.605 184.309 229.324 185.674C229.049 187.034 231.127 187.628 231.127 187.628C231.127 187.628 232.95 188.563 233.689 188.634C234.558 188.719 238.204 188.687 238.309 188.059C238.413 187.432 235.656 184.06 233.244 183.753H233.238Z" fill="#0E1A68"/>
<g opacity="0.29" style="mix-blend-mode:multiply">
<path d="M164.832 261.86L111.738 231.207L87 245.585L140.094 276.239L164.832 261.86Z" fill="#BBD2E9"/>
</g>
<path d="M161.499 212.075C160.204 212.827 158.098 212.827 156.795 212.075C156.143 211.699 155.809 211.198 155.817 210.705L155.801 219.26C155.801 219.753 156.127 220.255 156.778 220.631C158.082 221.383 160.187 221.383 161.482 220.631C162.125 220.255 162.443 219.77 162.451 219.277L162.468 210.722C162.468 211.215 162.142 211.699 161.499 212.075Z" fill="#BBD2E9"/>
<path d="M156.277 213.729V215.943C156.277 215.943 157.38 217.071 159.343 216.779C161.298 216.495 159.118 214.624 159.118 214.624C159.118 214.624 157.564 214.732 156.277 213.729Z" fill="#0E1A68"/>
<path d="M156.803 213.17C156.803 213.17 157.229 213.738 158.741 213.947C159.084 213.997 159.009 214.615 159.009 214.615C159.009 214.615 157.797 214.866 156.285 213.746L156.803 213.178V213.17Z" fill="#293896"/>
<path d="M161.481 220.631C160.187 221.383 158.073 221.383 156.778 220.631C156.385 220.405 156.109 220.129 155.951 219.837L156.636 221.099C156.761 221.324 156.978 221.541 157.287 221.717C158.307 222.302 159.961 222.302 160.98 221.717C161.281 221.541 161.498 221.332 161.615 221.115L162.309 219.862C162.15 220.146 161.883 220.405 161.498 220.631H161.481Z" fill="#293896"/>
<path d="M156.795 212.075C158.098 212.827 160.204 212.827 161.499 212.075C162.267 211.624 162.568 211.022 162.426 210.438C162.426 210.421 162.426 210.404 162.418 210.387C162.401 210.337 162.376 210.279 162.351 210.221C162.334 210.187 162.326 210.162 162.317 210.128L161.632 208.867C161.916 209.385 161.699 209.978 160.997 210.387C159.978 210.981 158.324 210.981 157.304 210.387C156.586 209.97 156.369 209.376 156.661 208.858L156.302 209.51C156.193 209.711 156.076 209.911 155.968 210.12C155.817 210.388 155.784 210.68 155.842 210.956C155.934 211.365 156.243 211.758 156.787 212.075H156.795Z" fill="white"/>
<path d="M160.98 208.257C162 208.85 162.008 209.803 160.997 210.387C159.978 210.981 158.324 210.981 157.304 210.387C156.285 209.794 156.277 208.842 157.296 208.249C158.307 207.655 159.961 207.655 160.98 208.249V208.257Z" fill="#BBD2E9"/>
<mask id="mask3_2067_297522" style="mask-type:luminance" maskUnits="userSpaceOnUse" x="157" y="207" width="4" height="3">
<path d="M160.68 207.998V209.017C160.68 209.251 160.521 209.477 160.22 209.652C159.61 210.003 158.633 210.003 158.015 209.652C157.705 209.477 157.555 209.243 157.555 209.009V207.989C157.555 208.223 157.714 208.457 158.023 208.633C158.633 208.983 159.619 208.983 160.229 208.633C160.529 208.457 160.68 208.223 160.68 207.998Z" fill="white"/>
</mask>
<g mask="url(#mask3_2067_297522)">
<path d="M160.68 207.998V209.017C160.68 209.251 160.521 209.477 160.22 209.652C159.61 210.003 158.633 210.003 158.015 209.652C157.705 209.477 157.555 209.243 157.555 209.009V207.989C157.555 208.223 157.714 208.457 158.023 208.633C158.633 208.983 159.619 208.983 160.229 208.633C160.529 208.457 160.68 208.223 160.68 207.998Z" fill="#293896"/>
</g>
<path d="M160.22 207.355C160.83 207.706 160.83 208.282 160.22 208.633C159.61 208.984 158.633 208.984 158.015 208.633C157.405 208.274 157.396 207.706 158.006 207.355C158.616 207.004 159.602 207.004 160.212 207.355H160.22Z" fill="#0E1A68"/>
<mask id="mask4_2067_297522" style="mask-type:luminance" maskUnits="userSpaceOnUse" x="158" y="206" width="2" height="3">
<path d="M159.995 206.661V207.831C159.995 207.956 159.903 208.09 159.736 208.19C159.394 208.391 158.842 208.391 158.5 208.19C158.324 208.09 158.241 207.956 158.241 207.831V206.661C158.241 206.795 158.333 206.92 158.5 207.021C158.842 207.221 159.394 207.221 159.736 207.021C159.903 206.92 159.987 206.795 159.987 206.67L159.995 206.661Z" fill="white"/>
</mask>
<g mask="url(#mask4_2067_297522)">
<path d="M159.995 206.661V207.831C159.995 207.956 159.903 208.09 159.736 208.19C159.394 208.391 158.842 208.391 158.5 208.19C158.324 208.09 158.241 207.956 158.241 207.831V206.661C158.241 206.795 158.333 206.92 158.5 207.021C158.842 207.221 159.394 207.221 159.736 207.021C159.903 206.92 159.987 206.795 159.987 206.67L159.995 206.661Z" fill="#293896"/>
</g>
<path d="M159.736 206.302C160.079 206.503 160.079 206.821 159.736 207.021C159.394 207.222 158.842 207.222 158.5 207.021C158.157 206.821 158.157 206.503 158.5 206.302C158.842 206.11 159.394 206.11 159.736 206.302Z" fill="#0E1A68"/>
<path d="M166.779 259.555C166.57 259.68 166.311 259.713 166.027 259.647C165.918 259.621 163.863 259.43 162.259 259.254L117.302 233.296L111.295 236.956L157.873 263.841C158.382 264.133 158.842 264.158 159.176 263.966L166.787 259.546L166.779 259.555Z" fill="#0E1A68"/>
<path d="M158.516 248.927C157.889 248.568 157.313 248.526 156.904 248.769C147.605 254.174 138.306 259.58 129.007 264.985C130.444 264.15 132.884 266.757 132.884 269.054C132.884 269.773 132.633 270.274 132.224 270.508L160.12 254.3C161.565 253.456 160.488 250.064 158.524 248.936L158.516 248.927Z" fill="#293896"/>
<path d="M130.62 265.137C131.873 265.863 132.884 267.609 132.884 269.055C132.884 270.492 131.864 271.077 130.611 270.35C129.358 269.623 128.347 267.877 128.356 266.44C128.356 265.003 129.375 264.418 130.628 265.145L130.62 265.137Z" fill="white"/>
<path d="M120.87 227.532C120.244 227.164 119.667 227.131 119.258 227.373C109.959 232.778 100.66 238.184 91.3616 243.581C92.7902 242.745 95.2381 245.36 95.2298 247.65C95.2298 248.368 94.9791 248.869 94.5697 249.103L122.466 232.895C123.92 232.051 122.834 228.659 120.87 227.532Z" fill="#293896"/>
<path d="M92.9737 243.748C94.2269 244.467 95.2378 246.221 95.2294 247.658C95.2294 249.095 94.2101 249.68 92.9569 248.953C91.7037 248.235 90.6929 246.48 90.7012 245.043C90.7012 243.606 91.7205 243.021 92.9737 243.748Z" fill="white"/>
<path d="M158.908 251.351C111.93 224.231 115.046 226.194 114.386 225.292C113.559 224.139 113.384 222.627 114.152 222.176C107.385 226.111 100.626 230.038 93.8589 233.973C93.1655 234.374 93.3075 235.535 93.6584 236.337C93.9425 236.972 94.4521 237.649 95.062 238L138.606 263.147C139.083 263.423 139.509 263.448 139.818 263.264C146.585 259.329 153.352 255.402 160.111 251.467C159.802 251.643 159.376 251.618 158.9 251.351H158.908Z" fill="#293896"/>
<path d="M112.816 225.844C112.44 225.627 112.106 225.61 111.864 225.752C106.383 228.935 100.902 232.118 95.4217 235.31C96.2655 234.817 97.7025 236.354 97.7025 237.708C97.7025 238.134 97.5521 238.426 97.3098 238.568L113.752 229.01C114.604 228.517 113.969 226.521 112.808 225.844H112.816Z" fill="#BBD2E9"/>
<path d="M96.3658 235.393C97.101 235.819 97.7026 236.855 97.6942 237.699C97.6942 238.551 97.0927 238.893 96.3575 238.467C95.6223 238.041 95.0208 237.005 95.0291 236.161C95.0291 235.318 95.6306 234.975 96.3658 235.401V235.393Z" fill="#BBD2E9"/>
<path d="M152.517 248.803C152.15 248.586 151.807 248.569 151.565 248.711C146.084 251.894 140.604 255.077 135.123 258.269C135.967 257.776 137.412 259.313 137.404 260.667C137.404 261.093 137.253 261.385 137.011 261.527L153.453 251.969C154.305 251.476 153.67 249.48 152.509 248.811L152.517 248.803Z" fill="#BBD2E9"/>
<path d="M136.075 258.361C136.81 258.787 137.403 259.823 137.403 260.667C137.403 261.519 136.802 261.853 136.067 261.427C135.331 261.001 134.73 259.973 134.738 259.121C134.738 258.269 135.34 257.934 136.083 258.361H136.075Z" fill="#BBD2E9"/>
<path d="M132.232 237.122C131.864 236.905 131.522 236.888 131.28 237.03C125.799 240.214 120.318 243.397 114.838 246.588C115.682 246.095 117.127 247.632 117.119 248.986C117.119 249.404 116.968 249.704 116.726 249.846L133.168 240.289C134.02 239.787 133.385 237.791 132.224 237.122H132.232Z" fill="#BBD2E9"/>
<path d="M115.79 246.679C116.525 247.105 117.126 248.133 117.118 248.985C117.118 249.829 116.517 250.172 115.781 249.745C115.046 249.319 114.445 248.284 114.453 247.44C114.453 246.596 115.054 246.253 115.79 246.679Z" fill="#BBD2E9"/>
<path d="M163.286 248.493C162.409 246.505 160.822 244.424 158.933 243.338L115.389 218.199C113.927 217.356 112.599 217.272 111.638 217.832C104.87 221.758 98.1115 225.693 91.3442 229.62C92.305 229.069 93.6334 229.144 95.1038 229.988L138.648 255.127C143.26 257.784 145.7 265.687 142.366 267.617C149.133 263.69 155.892 259.755 162.66 255.82C164.648 254.667 164.539 251.292 163.286 248.485V248.493Z" fill="#293896"/>
<path d="M95.0954 229.988C92.1796 228.309 89.8069 229.662 89.7985 233.004C89.7902 236.346 92.1462 240.431 95.062 242.119L138.606 267.258C141.514 268.938 143.895 267.584 143.903 264.242C143.912 260.9 141.556 256.815 138.64 255.135L95.0954 229.996V229.988ZM138.615 263.147L95.0703 238C94.1346 237.457 93.3743 236.137 93.3743 235.059C93.3743 233.982 94.143 233.547 95.087 234.09L138.632 259.238C139.576 259.781 140.336 261.092 140.327 262.179C140.319 263.265 139.559 263.691 138.623 263.156L138.615 263.147Z" fill="#0E1A68"/>
<path d="M178.984 183.043C176.603 179.91 176.762 179.976 176.403 180.085C175.977 180.21 176.921 179.701 157.17 191.105C156.786 191.33 156.31 191.648 155.951 191.924C155.951 191.924 154.839 192.751 154.271 193.453L147.379 202.066C147.161 202.342 147.086 202.517 147.145 202.592L149.401 205.55C149.342 205.475 149.409 205.3 149.634 205.024L156.527 196.41C157.154 195.625 158.549 194.564 159.426 194.062C177.698 183.51 178.742 182.725 178.984 183.051V183.043Z" fill="#293896"/>
<path d="M177.857 183.41C178.91 182.808 179.302 182.875 178.751 183.569L171.858 192.182C171.307 192.876 170.004 193.929 168.959 194.53L150.521 205.174C149.476 205.776 149.075 205.709 149.627 205.015L156.519 196.402C157.071 195.708 158.374 194.656 159.418 194.054L177.857 183.41Z" fill="#0E1A68"/>
<path d="M163.445 195.241L163.269 264.877C163.269 266.573 162.659 267.776 161.69 268.335C162.96 267.6 163.478 267.258 164.005 266.924L166.319 265.512C167.288 264.944 167.889 263.749 167.898 262.045L168.073 192.417L163.445 195.241Z" fill="#293896"/>
<path d="M163.445 195.24L163.27 264.876C163.262 268.302 160.83 269.688 157.848 267.967L149.735 263.281L153.286 261.217L157.856 263.857C158.867 264.442 159.694 263.974 159.694 262.813L159.861 197.354L163.437 195.24H163.445Z" fill="white"/>
<path d="M161.298 215.71L162.059 215.267L162.05 218.492L161.29 218.934L161.298 215.71Z" fill="#293896"/>
<path d="M158.491 214.089L159.82 213.278V213.972L162.059 215.267L161.298 215.71L158.491 214.089Z" fill="#293896"/>
<path d="M161.298 215.71L161.289 218.934L158.482 217.314L158.491 214.089L161.298 215.71Z" fill="#0E1A68"/>
<path d="M94.5699 249.111L96.3995 248.05C96.6752 247.775 96.834 247.349 96.834 246.772C96.834 244.475 94.3944 241.868 92.9658 242.704C92.9658 242.704 92.9324 242.704 92.8822 242.704C92.3726 242.996 91.8713 243.297 91.3617 243.581C92.7903 242.745 95.2383 245.36 95.2299 247.649C95.2299 248.368 94.9792 248.869 94.5699 249.103V249.111Z" fill="#0E1A68"/>
<path d="M132.215 270.508L134.045 269.447C134.321 269.18 134.479 268.745 134.479 268.169C134.479 265.871 132.04 263.265 130.611 264.1C130.611 264.1 130.578 264.1 130.528 264.1C130.018 264.392 129.517 264.693 129.007 264.986C130.444 264.15 132.884 266.757 132.884 269.054C132.884 269.773 132.633 270.274 132.224 270.508H132.215Z" fill="#0E1A68"/>
<g opacity="0.29" style="mix-blend-mode:multiply">
<path d="M130.126 230.731C138.489 234.014 139.759 235.301 142.266 236.604C146.769 238.952 154.814 243.948 148.924 245.418C141.096 247.382 129.541 240.523 128.363 242.093C127.185 243.664 121.73 243.722 118.38 242.093C110.743 238.375 111.203 238.35 105.455 235.042C98.9968 231.324 97.5348 227.397 101.545 226.955C103.617 226.729 107.41 227.798 115.046 229.762C116.542 230.146 118.371 230.305 119.942 229.962C121.655 229.586 124.637 228.592 130.126 230.748V230.731Z" fill="#0E1A68"/>
</g>
<path d="M145.85 185.766C146.527 186.861 146.803 188.473 145.123 188.674C143.611 188.866 144.798 188.632 143.11 187.947C138.632 186.134 132.875 182.332 131.004 180.193C130.369 179.466 135.298 175.105 135.298 175.105L137.086 159.608C138.456 157.369 142.35 156.149 144.346 156.959C147.446 158.213 146.819 161.421 146.26 163.66C145.048 168.455 142.492 175.782 142.408 176.743C142.408 176.743 145.107 184.538 145.859 185.766H145.85Z" fill="white"/>
<path d="M143.41 185.157L143.093 185.474L141.58 185.833L143.026 189.919C143.026 189.919 144.596 193.687 147.42 192.726C149.701 191.949 149.267 191.256 149.267 191.256C149.375 190.27 147.796 189.618 147.562 189.175C147.445 188.95 146.008 186.736 146.008 186.736C145.248 185.633 144.505 185.006 143.41 185.165V185.157Z" fill="white"/>
<path d="M143.569 185.415L147.662 186.259C147.662 186.259 148.498 186.635 148.749 187.704C148.999 188.774 148.464 190.988 148.464 190.988L145.373 188.849L143.577 185.415H143.569Z" fill="white"/>
<path d="M111.529 219.519C111.529 219.519 113.451 218.433 114.486 217.063C115.297 215.994 114.712 214.13 113.509 213.663C112.298 213.195 110.117 213.663 109.85 213.913C109.582 214.164 111.529 219.528 111.529 219.528V219.519Z" fill="#0E1A68"/>
<path d="M141.046 235.635C141.046 235.635 140.795 233.505 139.2 232.594C137.595 231.684 137.103 231.416 136.351 232.561C135.607 233.714 136.025 236.404 136.242 236.721C136.459 237.039 141.046 235.627 141.046 235.627V235.635Z" fill="#0E1A68"/>
<path d="M141.004 180.486L145.8 209.092C145.8 209.092 146.084 211.056 145.457 214.623C144.062 222.485 142.35 238.283 142.35 238.283L137.437 236.938C137.437 236.938 135.156 220.346 136.994 213.93C137.913 210.696 137.136 208.942 137.136 208.942L130.068 188.372L135.916 179.441L141.013 180.486H141.004Z" fill="white"/>
<path d="M144.338 233.856L144.304 236.246C144.304 236.246 149.459 239.287 150.445 240.005C150.988 240.398 151.205 241.133 151.23 241.601C151.247 241.893 151.164 242.721 150.955 242.938C150.42 243.489 149.351 244.074 148.415 244.133C146.627 244.241 143.009 243.122 143.009 243.122C142.558 242.846 135.432 239.538 135.432 239.538C135.432 239.538 135.223 238.619 135.265 238.075C135.34 236.998 135.866 233.781 135.866 233.781C135.866 233.781 136.409 232.712 136.977 234.065C138.222 237.039 141.338 237.357 141.338 237.357C141.338 237.357 140.82 234.7 141.539 233.956C142.049 233.43 144.338 233.856 144.338 233.856Z" fill="#293896"/>
<path d="M142.032 239.571C141.974 239.638 141.873 239.646 141.798 239.596C141.748 239.554 141.698 239.479 141.748 239.429C142.007 239.153 142.985 238.151 143.97 237.724C144.831 237.348 145.558 237.423 145.884 237.49C145.976 237.507 146.051 237.591 146.017 237.682C145.992 237.758 145.9 237.799 145.817 237.783C145.533 237.733 144.873 237.658 144.096 238C143.235 238.376 142.333 239.253 142.032 239.579V239.571Z" fill="white"/>
<path d="M142.926 239.955C142.859 240.022 142.767 240.03 142.692 239.98C142.641 239.93 142.591 239.863 142.641 239.805C142.9 239.529 143.878 238.526 144.864 238.1C145.724 237.724 146.451 237.8 146.777 237.866C146.869 237.883 146.936 237.966 146.911 238.05C146.886 238.134 146.794 238.176 146.71 238.159C146.426 238.1 145.766 238.042 144.989 238.368C144.129 238.744 143.235 239.621 142.926 239.946V239.955Z" fill="white"/>
<path d="M143.753 240.498C143.695 240.557 143.595 240.582 143.528 240.524C143.469 240.482 143.427 240.406 143.478 240.356C143.737 240.081 144.714 239.078 145.7 238.652C146.56 238.276 147.287 238.351 147.613 238.418C147.705 238.435 147.78 238.518 147.747 238.602C147.722 238.685 147.63 238.727 147.546 238.71C147.262 238.652 146.602 238.585 145.825 238.928C144.965 239.304 144.071 240.181 143.753 240.507V240.498Z" fill="white"/>
<path d="M150.445 239.996C150.303 239.896 150.336 239.904 150.052 239.737C149.635 239.762 148.925 239.854 147.838 240.397C145.725 241.442 145.173 243.355 145.173 243.355C145.173 243.355 145.917 243.831 149.735 243.706C149.777 243.706 149.819 243.706 149.86 243.698C150.295 243.48 150.687 243.205 150.938 242.937C151.147 242.72 151.23 241.893 151.214 241.6C151.18 241.133 150.971 240.406 150.428 240.005L150.445 239.996Z" fill="white"/>
<path d="M151.255 241.526C151.113 242.219 149.618 242.88 148.699 243.03C145.557 243.573 136.777 239.596 136.367 239.396C135.407 238.928 135.29 238.585 135.29 238.585C135.29 238.585 135.373 239.613 135.415 239.596C135.415 239.596 135.49 240.615 136.041 240.933C136.484 241.183 139.951 242.478 140.87 242.788C140.87 242.788 146.134 244.559 148.766 244.199C149.685 244.074 150.696 243.815 151.222 242.98C151.381 242.721 151.28 241.417 151.255 241.518V241.526Z" fill="white"/>
<path d="M132.366 188.265L136.978 181.222L138.239 180.177L141.898 180.019L145.691 208.341C145.616 208.383 145.157 208.391 145.04 208.424C143.411 208.926 139.392 209.185 137.153 209.151C137.145 209.026 137.136 208.942 137.136 208.942L134.613 201.591L132.374 188.265H132.366Z" fill="#0E1A68"/>
<path d="M139.216 184.488L134.087 210.63C134.087 210.63 133.569 215.585 130.009 216.178C125.13 216.98 110.184 219.753 110.184 219.753L109.616 215.551C109.616 215.551 119.934 209.845 125.339 209.845C126.668 209.845 126.484 207.998 126.484 207.998L125.515 191.866C125.515 191.866 127.152 185.608 130.335 182.333C132.081 180.537 133.652 179.158 133.652 179.158L139.225 184.488H139.216Z" fill="white"/>
<path d="M114.16 220.831L111.712 221.299C111.712 221.299 110.668 227.389 110.25 228.434C110.025 229.002 109.407 229.361 108.989 229.495C108.721 229.587 107.953 229.695 107.702 229.562C107.076 229.219 106.282 228.4 106.015 227.598C105.488 226.044 105.405 223.246 105.405 223.246C105.547 222.786 106.9 214.122 106.9 214.122C106.9 214.122 107.702 213.763 108.195 213.638L111.788 213.504C111.788 213.504 112.072 214.081 111.161 215.1C109.699 216.746 110.016 219.57 110.016 219.57C110.016 219.57 112.306 218.525 113.166 218.96C114.386 219.578 114.16 220.831 114.16 220.831Z" fill="#293896"/>
<path d="M109.031 220.806C109.365 220.973 110.593 221.582 111.286 222.376C111.353 222.451 111.403 222.518 111.462 222.593C111.437 222.718 111.412 222.861 111.378 223.003C111.295 222.861 111.195 222.719 111.069 222.568C110.459 221.875 109.373 221.298 108.981 221.106C108.905 221.073 108.855 220.981 108.889 220.897C108.914 220.83 108.972 220.764 109.031 220.797V220.806Z" fill="white"/>
<path d="M108.948 221.767C109.282 221.925 110.51 222.543 111.195 223.337C111.229 223.379 111.254 223.412 111.287 223.454C111.262 223.588 111.237 223.722 111.204 223.855C111.137 223.755 111.07 223.646 110.978 223.546C110.368 222.853 109.282 222.276 108.889 222.084C108.814 222.042 108.772 221.959 108.797 221.875C108.823 221.808 108.873 221.75 108.939 221.775L108.948 221.767Z" fill="white"/>
<path d="M108.688 222.71C109.031 222.869 110.25 223.487 110.944 224.281C110.994 224.339 111.044 224.398 111.086 224.465C111.061 224.599 111.027 224.732 111.002 224.874C110.919 224.749 110.835 224.615 110.727 224.49C110.117 223.788 109.031 223.22 108.638 223.028C108.563 222.994 108.513 222.902 108.546 222.819C108.571 222.752 108.63 222.685 108.688 222.719V222.71Z" fill="white"/>
<path d="M110.251 228.433C110.309 228.283 110.309 228.316 110.393 228.032C110.267 227.665 110.017 227.063 109.273 226.228C107.819 224.607 105.948 224.557 105.948 224.557C105.948 224.557 105.689 225.325 106.708 228.676C106.725 228.717 106.733 228.751 106.75 228.784C107.051 229.118 107.393 229.394 107.702 229.561C107.953 229.695 108.722 229.586 108.989 229.494C109.407 229.361 110.025 229.001 110.251 228.433Z" fill="white"/>
<path d="M109.048 229.503C108.379 229.536 107.427 228.367 107.068 227.59C105.831 224.941 107.151 215.317 107.235 214.908C107.427 213.955 107.719 213.771 107.719 213.771C107.719 213.771 106.8 214.08 106.825 214.114C106.825 214.114 105.915 214.423 105.756 214.975C105.631 215.426 105.255 220.388 105.188 221.274C105.188 221.274 105.062 225.685 106.015 227.916C106.349 228.701 106.817 229.537 107.702 229.804C107.978 229.888 109.139 229.486 109.048 229.495V229.503Z" fill="white"/>
<path d="M132.716 210.187C129.516 209.937 127.62 209.226 126.4 208.491C126.467 208.199 126.483 207.99 126.483 207.99L125.514 191.857C125.514 191.857 125.706 186.627 127.929 183.561C128.864 182.274 130.017 179.943 131.028 178.924L134.855 180.311L139.216 184.488L134.195 210.078C133.735 210.179 133.242 210.229 132.716 210.187Z" fill="#293896"/>
<path d="M124.922 141.152C127.595 131.511 130.912 130.275 133.109 130.024C135.315 129.782 137.312 131.386 137.546 133.575L137.805 135.814C136.994 135.898 133.318 134.644 132.817 143.166C132.516 148.271 131.129 159.767 131.43 162.223C130.712 162.616 129.3 163.025 126.668 162.532C124.487 162.123 121.288 159.917 121.906 155.005L124.922 141.161V141.152Z" fill="#E5D285"/>
<path d="M134.304 134.97C134.228 136.022 135.022 136.924 136.075 136.991C137.119 137.058 138.03 136.265 138.097 135.212C138.163 134.168 137.37 133.265 136.325 133.198C135.273 133.131 134.37 133.925 134.304 134.97Z" fill="#293896"/>
<path d="M139.191 134.093C142.199 133.5 146.092 134.953 147.654 137.209C150.069 140.701 148.724 143.024 148.782 143.141C149.191 143.96 145.649 140.417 144.688 141.019C143.619 141.679 143.644 141.119 144.145 143.684C144.337 144.678 144.078 145.154 143.301 145.313C142.424 145.488 141.764 145.605 141.764 145.605C141.764 145.605 140.244 144.068 140.411 144.712C141.99 150.786 140.478 151.47 140.478 151.47C138.932 151.863 133.919 148.329 133.009 143.651C132.09 138.914 134.337 135.062 139.183 134.093H139.191Z" fill="#F9E9A7"/>
<path d="M142.809 160.644C143.101 161.68 144.806 164.036 142.4 164.838C140.871 165.348 137.094 161.613 135.24 159.55C134.947 159.232 134.204 157.946 136.627 155.832L138.064 149.157L144.413 147.887C144.413 147.887 142.918 154.404 142.5 155.832C142.383 156.217 142.525 159.675 142.801 160.644H142.809Z" fill="white"/>
<path d="M144.446 139.464C148.523 139.005 148.757 140.133 148.824 142.397C148.874 144.269 148.155 148.404 148.155 148.404C147.713 150.936 146.869 152.724 145.758 153.484C144.062 154.637 141.881 153.926 139.533 151.437C137.628 149.407 139.433 147.702 139.35 147.352C139.35 147.352 139.558 145.747 139.893 144.853C140.377 143.533 142.282 139.698 144.454 139.464H144.446Z" fill="white"/>
<path d="M143.87 137.777L145.95 136.633C145.95 136.633 146.568 138.73 146.409 140.359C145.733 147.135 139.392 146.725 139.392 146.725C144.73 145.514 143.87 137.777 143.87 137.777Z" fill="#F9E9A7"/>
<path d="M137.545 144.277C138.898 143.675 139.884 145.538 139.884 145.538C139.884 145.538 140.026 147.518 140.344 148.546C140.544 149.164 139.066 148.981 138.414 148.279C138.372 148.229 137.545 147.418 137.495 147.352C136.726 146.441 136.275 144.861 137.553 144.285L137.545 144.277Z" fill="white"/>
<path d="M126.742 185.39C126.976 184.095 131.68 175.114 130.861 169.834C130.443 167.119 130.042 163.301 130.786 158.781C130.945 157.812 134.746 156.951 136.334 156.099C136.367 156.082 136.492 156.667 136.576 156.659C137.829 159.608 139.132 161.722 141.087 162.19C142.867 162.616 143.636 161.454 143.694 160.36C143.736 159.566 143.243 157.502 142.524 156.642C142.925 156.734 143.493 156.667 143.778 156.759C143.778 156.759 145.691 157.737 146.067 160.92L146.969 165.999C146.969 165.999 147.788 169.182 147.604 170.369C147.345 172.048 144.028 174.847 144.011 174.997C143.978 175.332 143.485 177.395 143.26 178.999C143.001 180.829 143.084 187.011 143.084 186.928C143.084 186.928 141.614 189.96 136.576 189.367C130.636 188.665 126.742 185.39 126.742 185.39Z" fill="#293896"/>
<path d="M146.017 179.55C146.61 179.608 148.882 179.826 147.429 180.686C146.117 181.463 147.362 182.416 145.532 182.466C140.703 182.608 132.674 180.854 129.951 180.06C127.419 179.325 127.695 176.751 127.695 176.751L128.48 163.258C128.622 160.785 129.967 157.77 132.023 158.438C134.696 159.307 134.78 162.715 134.462 165.013C133.994 168.405 133.109 174.663 133.109 175.883C133.109 175.883 144.58 179.408 146.017 179.55Z" fill="white"/>
<path d="M142.976 180.052L143.001 180.495L142.241 181.848L146.226 183.553C146.226 183.553 150.061 184.948 151.264 182.224C152.241 180.019 151.431 179.877 151.431 179.877C150.779 179.133 149.225 179.843 148.749 179.718C148.507 179.651 145.9 179.208 145.9 179.208C144.572 179.025 143.602 179.142 142.984 180.061L142.976 180.052Z" fill="white"/>
<path d="M143.276 180.111L146.668 177.671C146.668 177.671 147.512 177.312 148.473 177.855C149.434 178.39 150.695 180.286 150.695 180.286L147.028 181.113L143.285 180.111H143.276Z" fill="white"/>
<path d="M619.718 294.619L594.932 308.953L619.758 323.287L644.584 308.953L619.718 294.619Z" fill="#BEC1C1"/>
<path d="M637.008 302.343L619.772 312.285L602.536 302.343L619.745 292.389L637.008 302.343Z" fill="#F4DBAB"/>
<path d="M619.772 318.357L602.536 308.416V302.344L619.772 312.285V318.357Z" fill="#2D3B8B"/>
<path d="M637.007 308.416L619.771 318.357V312.285L637.007 302.344V308.416Z" fill="#C6CEFF"/>
<path d="M638.136 296.93L619.772 307.529L601.407 296.93L619.745 286.33L638.136 296.93Z" fill="#F5F5F5"/>
<path d="M619.772 306.454L602.536 296.513V290.44L619.772 300.382V306.454Z" fill="#2D3B8B"/>
<path d="M637.007 296.513L619.771 306.454V300.382L637.007 290.44V296.513Z" fill="#C6CEFF"/>
<path d="M619.772 314.004L601.407 303.405V296.93L619.772 307.529V314.004Z" fill="#5468E1"/>
<path d="M638.136 303.405L619.771 314.004V307.529L638.136 296.93V303.405Z" fill="#E9ECFF"/>
<path d="M639.479 283.24L619.771 294.619L600.063 283.24L619.744 271.861L639.479 283.24Z" fill="white"/>
<path d="M619.637 275.583L619.758 275.502L633.192 283.227L631.029 284.476L619.758 290.991L619.637 290.924L608.487 284.489L606.364 283.253L619.194 275.838L619.637 275.583Z" fill="#2D3B8B"/>
<path d="M619.771 301.564L600.063 290.186V283.24L619.771 294.619V301.564Z" fill="#5468E1"/>
<path d="M639.479 290.186L619.771 301.564V294.619L639.479 283.24V290.186Z" fill="#E9ECFF"/>
<path d="M619.637 275.583V290.925L606.364 283.254L619.194 275.838L619.637 275.583Z" fill="#C6CEFF"/>
<path d="M631.029 284.476L619.758 290.991L619.637 290.924L608.486 284.489L619.744 277.974L631.029 284.476Z" fill="#5468E1"/>
<path d="M619.542 285.994C619.542 285.994 615.203 259.287 626.609 245.49C638.014 231.707 645 226.172 645 226.172C645 226.172 626.797 230.269 619.704 249.399C612.61 268.53 619.542 285.98 619.542 285.98V285.994Z" fill="#616DBA"/>
<path d="M618.818 264.957C618.818 264.957 623.197 243.287 621.384 230.404C619.57 217.521 607.076 205.014 607.076 205.014C607.076 205.014 612.745 228.496 613.847 238.384C614.572 244.886 616.453 261.074 616.453 261.074L618.818 264.957Z" fill="#616DBA"/>
<path d="M607.089 205.013C607.089 205.013 617.393 230.659 617.97 238.128C618.548 245.598 619.73 259.878 619.73 259.878L618.723 266.703L615.431 252.06L613.295 234.353L607.102 205L607.089 205.013Z" fill="#30365F"/>
<path d="M619.542 285.994C619.542 285.994 617.756 258.428 610.407 251.711C603.059 244.994 581 241.931 581 241.931C581 241.931 590.122 239.419 601.151 242.898C612.181 246.377 617.46 252.651 618.333 259.153C619.207 265.655 619.556 286.008 619.556 286.008L619.542 285.994Z" fill="#2D3B8B"/>
</svg>
