<svg width="705" height="468" viewBox="0 0 705 468" fill="none" xmlns="http://www.w3.org/2000/svg">
<rect width="705" height="468" fill="#E0E6F9"/>
<g opacity="0.15" style="mix-blend-mode:multiply">
<path d="M259.709 299.316C262.054 300.231 263.167 300.485 262.766 301.45C262.287 302.584 263.921 303.027 266.428 303.027C270.9 303.027 272.577 301.098 272.577 299.774C272.577 298.562 269.027 296.421 265.189 296.28C263.266 296.21 260.315 296.921 259.66 297.689C258.927 298.534 259.005 299.041 259.709 299.316Z" fill="#293896"/>
</g>
<path d="M245.061 310.719L244.448 309.493L243.391 309.535C243.391 309.535 242.919 309.719 242.835 310.289C242.75 310.86 242.87 311.064 242.87 311.064L245.068 310.712L245.061 310.719Z" fill="#0E1A68"/>
<g opacity="0.11" style="mix-blend-mode:multiply">
<path d="M201.452 322.995C201.452 322.995 213.524 314.945 217.13 313.508C224.335 310.627 226.821 312.437 226.511 314.959C226.349 316.269 227.793 317.029 229.363 317.121C234.758 317.445 243.774 312.867 247.704 311.557C250.739 310.543 254.092 313.353 246.95 317.776C233.709 325.974 220.398 328.601 214.446 329.693C207.227 331.01 192.584 329.812 201.452 323.002V322.995Z" fill="#293896"/>
</g>
<path d="M236.664 315.515C236.664 315.515 235.411 316.361 235.911 317.114C236.404 317.875 238.094 318.544 239.7 317.931C241.299 317.319 249.384 313.572 249.384 313.572C249.384 313.572 251.053 312.621 251.075 311.86C251.075 311.783 251.089 311.536 251.075 311.515C250.941 310.987 249.765 310.494 248.497 310.797C246.525 311.269 244.595 312.339 240.954 313.741C237.312 315.142 236.671 315.515 236.671 315.515H236.664Z" fill="#0E1A68"/>
<path d="M236.664 314.958C236.664 314.958 235.411 315.803 235.911 316.564C236.404 317.325 238.094 317.994 239.7 317.381C241.306 316.768 249.448 312.874 249.448 312.874C249.448 312.874 251.096 311.571 251.075 311.514C250.941 311.028 250.328 309.803 248.497 310.246C246.525 310.718 244.595 311.789 240.954 313.191C237.312 314.592 236.671 314.965 236.671 314.965L236.664 314.958Z" fill="#5B68B7"/>
<path d="M266.741 263.6C266.741 263.6 268.121 262.044 267.205 261.107C266.677 260.565 265.684 260.804 265.205 261.1C264.663 261.431 263.473 262.473 263.473 262.473C263.473 262.473 265.191 262.114 265.698 262.875C266.198 263.635 265.973 263.706 265.973 263.706L266.741 263.6Z" fill="#934F22"/>
<path d="M267.197 264.129C267.162 264.53 266.817 264.826 266.444 264.791C266.071 264.756 265.796 264.396 265.831 263.995C265.873 263.594 266.211 263.298 266.585 263.333C266.965 263.368 267.24 263.727 267.197 264.129Z" fill="#5B68B7"/>
<path d="M263.556 282.927L263.176 284.511C263.176 284.511 263.62 297.576 263.655 297.745C263.887 298.9 265.754 297.281 265.754 297.281C266.747 294.604 266.676 293.858 266.747 293.174C266.951 291.167 266.613 291.477 267.021 290.012C267.521 288.202 268.099 283.709 268.099 283.709L263.556 282.927Z" fill="white"/>
<path d="M266.973 283.131C266.973 283.131 269.248 298.598 269.283 298.647C270.093 299.788 271.29 298.393 271.29 298.393C271.29 298.393 271.762 296.738 271.896 295.182C272.044 293.421 271.67 291.59 271.67 291.59C271.67 291.59 272.023 288.258 272.1 285.589C272.192 282.455 271.727 281.962 271.727 281.962L266.98 283.124L266.973 283.131Z" fill="white"/>
<path d="M256.668 277.595C256.64 277.644 258.176 279.236 259.972 279.764C261.035 280.074 261.606 279.863 262.127 279.722C263.754 279.285 265.113 278.581 266.022 277.912C267.275 276.996 266.937 275.426 265.289 275.285C264.902 275.25 263.592 276.391 262.19 277.032C261.401 277.391 261.31 277.454 261.056 277.384C260.831 277.32 256.894 276.285 256.894 276.285C256.894 276.285 256.753 277.468 256.668 277.595Z" fill="white"/>
<path d="M264.234 275.94C263.712 277.046 263.614 278.539 263.431 279.61C263.431 279.61 261.938 287.167 261.663 287.864C261.459 288.364 262.973 288.928 265.494 289.301C271.227 290.146 274.721 287.491 274.721 287.491C274.798 287.392 272.382 284.885 272.058 280.356C271.904 278.145 271.544 277.419 271.544 277.419C271.312 276.919 270.241 275.757 269.678 275.447C269.657 275.433 269.234 275.102 269.03 274.996C267.586 274.229 266.706 274.834 266.706 274.834C266.706 274.834 264.635 275.081 264.227 275.94H264.234Z" fill="#0E1A68"/>
<path d="M260.492 282.406C260.492 282.406 262.154 283.378 262.267 283.476C262.387 283.589 265.162 283.152 266.465 282.913C268.282 282.589 268.796 281.892 268.796 281.892C268.796 281.892 270.944 280.117 271.444 278.384C271.951 276.63 270.169 276.222 269.282 277.377C268.141 278.863 266.753 280.244 266.324 280.49C265.619 280.906 262.422 281.8 261.337 282.124C261.049 282.209 260.499 282.406 260.499 282.406H260.492Z" fill="white"/>
<path d="M269.133 274.468C268.943 273.651 269.739 271.714 269.739 271.714L266.809 272.348C266.725 272.503 266.69 273.461 266.654 273.961C266.591 275.052 266.133 275.13 266.133 275.13C265.436 275.89 265.175 277.348 265.527 277.834C266.049 278.553 267.204 277.806 268.049 277.024C268.655 276.461 269.246 275.813 269.676 275.447C269.345 275.186 269.281 274.975 269.133 274.468Z" fill="white"/>
<path d="M265.825 265.087L267.952 265.728L270.614 268.714L269.368 272.905C269.213 273.109 268.339 273.63 267.417 273.891C267.417 273.891 265.593 274.482 264.05 273.412C262.585 272.391 262.12 270.299 262.698 269.13C263.226 268.045 263.254 268.129 263.36 267.348C263.508 266.291 264.395 265.58 264.395 265.58L265.825 265.101V265.087Z" fill="white"/>
<path d="M269.64 264.248C269.034 263.776 267.302 263.474 265.844 264.079C264.921 264.467 264.231 265.143 263.872 266.087C263.844 266.15 264.724 265.051 266.421 265.509C267.358 265.763 269.823 267.573 269.732 269.643C269.675 270.996 269.337 271.101 269.161 271.58C269.077 271.798 269.436 272.425 269.379 272.482C269.379 272.482 269.253 273.172 269.175 273.468C269.175 273.482 269.95 273.376 270.704 272.982C272.197 272.207 272.901 270.228 273.042 269.031C273.176 267.911 272.669 266.516 272.584 266.354C271.915 265.016 269.823 264.396 269.633 264.241L269.64 264.248Z" fill="#934F22"/>
<path d="M270.437 270.376C269.501 269.996 268.902 271.425 268.902 271.425C268.902 271.425 268.726 272.306 268.986 272.503C269.177 272.644 269.536 272.7 270.036 272.461C270.325 272.327 270.853 271.989 270.888 271.961C271.487 271.376 271.184 270.686 270.43 270.376H270.437Z" fill="white"/>
<path d="M273.035 266.396C272.999 266.798 272.654 267.094 272.281 267.058C271.901 267.023 271.626 266.664 271.668 266.263C271.711 265.861 272.049 265.565 272.422 265.601C272.802 265.636 273.077 265.995 273.035 266.396Z" fill="#5B68B7"/>
<path d="M272.332 266.347C272.332 266.347 272.206 265.403 273.319 264.501C274.15 263.825 275.727 264.135 275.882 264.53C276.037 264.917 276.22 266.051 275.741 266.882C275.382 267.509 274.798 268.009 274.798 268.009C274.798 268.009 274.671 266.776 273.854 266.516C273.037 266.255 272.804 266.762 272.804 266.762C272.804 266.762 272.368 266.833 272.332 266.347Z" fill="#934F22"/>
<path d="M262.251 282.384C262.251 282.384 261.941 281.821 261.406 281.785C260.356 281.715 260.159 281.504 260.159 281.504C260.159 281.504 259.687 281.419 259.786 281.849C259.814 281.976 259.892 282.159 260.131 282.271C260.392 282.391 260.511 282.539 260.511 282.539C260.511 282.539 259.518 283.004 259.011 282.99C258.504 282.976 257.764 283.412 258.405 283.758C259.046 284.103 260.265 284.314 261.152 283.99C262.033 283.666 262.441 283.427 262.441 283.427L262.258 282.384H262.251Z" fill="white"/>
<path d="M257.648 276.771C257.648 276.771 257.817 276.088 257.388 275.362C257.12 274.926 256.951 274.264 256.951 274.264C256.951 274.264 256.493 274.228 256.38 274.574C256.296 274.841 256.514 275.412 256.423 275.538C256.338 275.672 255.634 274.792 254.401 275.144C254.077 275.236 253.514 276.003 254.134 276.553C254.486 276.863 254.662 277.271 255.641 277.708C256.627 278.144 256.993 277.771 257.338 277.391C257.775 276.912 257.648 276.778 257.648 276.778V276.771Z" fill="white"/>
<path d="M263.62 296.238C263.62 296.238 263.683 297.147 263.12 297.555C262.81 297.781 262.275 298.154 261.803 298.401C260.767 298.943 260.979 299.225 260.979 299.225C260.979 299.225 261.021 299.534 261.803 299.718C262.254 299.823 262.387 299.978 263.634 299.584C264.211 299.408 264.719 299.203 265.036 299.133C265.62 299.006 266.345 298.598 266.331 298.182C266.31 297.471 265.902 296.802 265.902 296.802L263.613 296.238H263.62Z" fill="white"/>
<path d="M269.212 298.168C269.212 298.168 269.092 299.295 268.24 299.992C267.662 300.471 268.113 300.9 268.113 300.9C268.113 300.9 268.401 301.09 268.796 301.09C269.19 301.09 269.881 301.09 270.331 301.006C270.768 300.921 270.916 300.795 271.078 300.633C271.493 300.217 271.501 299.773 271.493 299.428C271.479 298.844 271.388 297.815 271.388 297.815L269.204 298.168H269.212Z" fill="white"/>
<path d="M267.219 265.544C266.761 265.594 265.789 266.7 265.789 266.7L266.275 267.031C266.275 267.031 267.162 265.967 267.585 265.967C267.705 265.967 266.867 266.685 266.916 267.059C266.93 267.178 267.677 267.545 267.677 267.545L267.98 265.995C267.98 265.995 267.36 265.523 267.219 265.537V265.544Z" fill="#934F22"/>
<path d="M210.949 319.783C210.949 318.995 210.928 317.811 210.977 317.713C211.048 317.565 209.836 314.332 208.935 313.283C208.766 313.085 208.583 312.966 208.393 312.902C207.836 313.177 207.421 313.409 207.216 313.586C207.055 313.726 205.822 314.529 205.906 318.171C205.963 320.678 207.287 321.03 208.379 320.854C208.836 320.784 209.667 320.389 209.667 320.389C209.667 320.389 210.16 320.157 210.942 319.783H210.949Z" fill="#0E1A68"/>
<path d="M207.52 320.002C207.52 320.002 208.041 320.213 208.189 320.742C208.238 320.918 208.147 321.207 208.147 321.207L206.914 321.46L207.513 319.995L207.52 320.002Z" fill="#0E1A68"/>
<path d="M217.199 269.862L218.861 281.92C218.861 281.92 219.826 285.244 222.791 284.808C225.764 284.371 237.652 277.293 237.652 277.293L236.955 274.673L224.369 278.694L221.658 272.229L217.199 269.869V269.862Z" fill="white"/>
<path d="M216.409 269.052C215.986 269.721 214.86 272.003 213.789 275.369C213.923 275.637 214.662 277.116 216.747 278.039C219.156 279.102 221.607 277.349 221.86 277.165L225.206 269.65C225.206 269.65 224.706 267.904 224.361 267.418C222.875 265.319 220.374 266.502 220.374 266.502C219.698 266.854 218.029 266.699 216.402 269.059L216.409 269.052Z" fill="#5B68B7"/>
<path d="M235.277 277.863C235.277 277.863 238.805 277.56 239.319 277.638C240.425 277.814 241.496 277.342 241.883 277.328C242.94 277.293 239.657 274.236 240.439 273.701C241.27 273.13 241.82 272.524 242.101 271.954C242.214 271.722 242.094 270.39 241.313 271.341C240.348 272.524 239.171 272.827 239.171 272.827C239.171 272.827 238.594 272.891 237.425 273.785C236.488 274.504 236.023 275.447 235.854 275.532C234.819 276.053 235.277 277.856 235.277 277.856V277.863Z" fill="white"/>
<path d="M242.714 309.282C242.714 309.282 243.369 309.867 244.545 309.782C245.271 309.726 247.595 309.36 247.595 309.36C248.75 309.17 250.264 309.86 250.785 310.613C250.785 310.613 250.94 310.86 250.947 311.05C250.99 311.705 250.497 311.959 249.842 312.423C249.842 312.423 248.975 312.945 247.905 313.473C246.524 314.163 245.39 314.684 244.292 314.825C244.292 314.825 243.749 314.825 243.207 314.987C242.615 315.156 240.178 316.677 240.178 316.677C238.361 317.466 236.481 317.023 236.234 315.403L236.551 311.388L242.707 309.282H242.714Z" fill="white"/>
<path d="M225.162 308.134C225.162 308.134 225.726 310.092 225.211 311.641C224.944 312.444 224.282 313.289 222.12 314.423C220.697 315.17 209.287 320.6 209.287 320.6C209.287 320.6 208.548 320.516 208.195 320.424C207.125 320.156 205.836 318.853 205.836 317.712C205.836 314.071 206.097 314.156 206.259 314.015C207.526 312.93 217.091 309.451 217.323 309.007C217.704 308.275 216.527 303.887 214.837 300.217C212.886 295.97 214.02 292.174 214.02 292.174L221.225 288.343L225.169 308.127L225.162 308.134Z" fill="#0E1A68"/>
<path d="M237.975 288.237C237.975 288.237 244.772 287.385 243.546 294.942C243.095 297.696 242.666 306.746 242.666 306.746C242.68 306.732 242.553 308.169 243.074 308.789C243.426 309.218 242.377 312.845 239.003 313.05C236.383 313.212 235.982 312.451 235.947 311.951C235.742 309.134 236.031 304.859 236.637 298.386C236.841 296.189 236.017 296.498 236.017 296.498L225.706 300.316C225.706 300.316 219.515 302.584 217.353 298.358C215.015 293.787 217.973 292.378 217.973 292.378L237.982 288.251L237.975 288.237Z" fill="#0E1A68"/>
<path d="M223.953 274.651L225.827 273.757L227.158 274.665L225.326 275.56L223.953 274.651Z" fill="#985924"/>
<path d="M231.835 254.641L235.308 255.149L234.124 264.312C233.695 266.875 232.089 266.918 231.307 266.84C229.68 266.678 227.976 265.579 227.124 264.938C225.475 263.713 225.828 260.699 225.842 260.452L225.912 254.381L231.842 254.641H231.835Z" fill="white"/>
<path d="M222.614 266.094C222.614 266.094 224.417 264.418 224.776 263.904C225.347 263.087 226.051 260.938 226.051 260.938L230.157 263.009C230.157 263.009 229.826 265.038 229.347 265.932C229.044 266.488 227.283 269.545 227.283 269.545C227.107 270.263 229.418 275.461 228.882 277.68L221.297 273.039C221.529 272.088 222.614 266.094 222.614 266.094Z" fill="white"/>
<path d="M235.649 253.74C236.234 254.261 235.769 255.614 235.269 255.938C235.051 256.071 234.213 256.184 234.1 256.501C233.191 259.058 232.36 260.988 232.311 261.037C232.311 261.037 231.846 261.347 232.332 259.565C232.438 259.192 231.078 260.107 229.966 261.664C229.966 261.664 229.332 262.6 228.289 263.27C226.402 264.481 225.014 263.523 225.035 263.629C225.057 263.706 224.69 262.565 224.282 260.945C223.254 256.917 223.775 254.811 225.007 253.451C225.374 253.043 226.824 251.458 231.029 252.191C232.818 252.501 235.642 253.74 235.642 253.74H235.649Z" fill="#6E4219"/>
<path d="M232.269 259.375C232.269 259.375 231.53 259.446 231.234 260.277C231.023 260.868 231.206 261.375 231.311 261.53C231.6 261.939 231.917 262.045 231.917 262.045C231.917 262.045 231.995 260.608 232.023 260.34C232.051 260.08 232.269 259.368 232.269 259.368V259.375Z" fill="white"/>
<path d="M232.639 259.086C232.639 259.086 233.061 259.086 232.723 259.678C232.385 260.262 232.293 260.614 232.265 260.959C232.237 261.269 232.258 262.199 232.258 262.199C232.258 262.199 231.969 262.565 231.751 261.988C231.645 261.713 231.596 261.192 231.652 260.53C231.674 260.262 232.195 258.924 232.639 259.086Z" fill="white"/>
<path d="M229.448 273.573C230.187 274.827 228.06 282.272 227.652 287.329C227.617 287.744 227.3 290.427 228.391 290.251C229.032 290.146 224.722 300.077 217.447 299.851C214.439 299.76 213.495 298.295 213.439 296.661C213.439 296.661 212.622 287.237 213.383 281.976C214.467 274.44 215.989 270.784 217.552 268.629C218.954 266.706 223.039 265.664 223.039 265.664C223.039 265.664 226.187 267.925 226.983 268.763C228.913 270.798 229.455 273.573 229.455 273.573H229.448Z" fill="#293896"/>
<path d="M239.299 275.771C239.299 275.771 239.771 273.109 239.982 273.665C240.264 274.405 243.384 274.405 243.384 274.405C243.384 274.405 245.251 273.989 245.701 274.447C246.004 274.757 245.905 275.18 245.8 275.637C245.687 276.116 245.391 276.743 244.603 277.222C243.884 277.659 242.476 277.856 242.314 277.856C240.764 277.856 238.891 277.476 238.891 277.476L239.313 275.771H239.299Z" fill="white"/>
<path d="M248.703 280.398C248.703 280.398 248.753 279.609 250.654 278.954C251.38 278.708 252.774 277.961 252.95 277.82C253.127 277.672 254.091 278.391 252.81 279.123C251.957 279.609 251.563 280.046 251.633 280.335C251.774 280.926 252.331 281.243 253.774 281.673C254.465 281.877 256.021 281.652 256.31 281.567C257.092 281.335 256.831 282.286 256.831 282.286C256.831 282.286 256.599 283.321 255.246 284.244C254.937 284.455 252.317 284.913 250.992 284.434C249.957 284.068 247.541 282.617 247.541 282.617C247.541 282.617 246.231 282.286 246.182 282.18C245.759 281.349 248.71 280.391 248.71 280.391L248.703 280.398Z" fill="white"/>
<path d="M248.879 283.074C248.879 283.074 239.709 283.095 237.892 282.856C236.631 282.694 235.687 282.3 234.821 281.814C232.624 280.574 229.525 278.475 226.869 276.56C224.968 275.186 223.679 273.376 223.644 272.538C223.559 270.228 223.954 269.657 225.397 269.84C226.947 270.038 231.821 274.101 232.793 274.834C233.483 275.348 236.497 277.06 237.61 277.426L249.626 280.271C249.837 279.82 248.879 283.081 248.879 283.081V283.074Z" fill="white"/>
<path d="M232.199 274.313C231.227 273.587 226.586 269.115 225.036 268.918C223.592 268.728 222.515 269.932 222.465 272.242C222.43 273.961 224.466 276.257 225.564 277.313C226.874 278.581 227.825 279.546 228.079 279.75C229.593 278.588 232.023 275.912 232.213 274.327C232.213 274.327 232.199 274.32 232.199 274.313Z" fill="#5B68B7"/>
<path d="M205.225 314.698C205.225 314.698 206.902 312.93 208.064 314.614C208.24 314.874 211.381 312.775 211.43 312.775C213.036 312.775 212.402 317.508 211.388 317.537C210.078 317.579 208.43 319.156 208.12 319.833C207.712 320.727 207.021 322.777 205.599 324.749C204.676 326.03 201.901 327.538 200.119 327.249C198.957 327.059 202.458 322.481 202.458 322.481L205.225 314.698Z" fill="white"/>
<path d="M212.809 313.782C212.084 312.909 210.739 312.05 210.225 312.155C208.668 312.867 208.105 313.17 208.105 313.17C208.062 313.184 207.816 313.289 207.668 313.388C207.992 313.24 209.133 313.747 209.619 315.635C209.964 316.959 210.182 319.635 209.217 320.621C209.281 320.621 209.886 320.389 209.886 320.389C209.886 320.389 212.415 319.043 214.655 317.987C214.612 316.909 213.711 314.888 212.802 313.789L212.809 313.782Z" fill="#0E1A68"/>
<path d="M203.519 319.727L202.456 322.487C202.456 322.487 199.082 327.326 200.237 327.509C202.019 327.798 204.392 326.34 205.526 325.234C206.329 324.453 207.667 322.959 208.146 321.213C207.097 321.389 204.695 320.558 203.512 319.727H203.519Z" fill="#0E1A68"/>
<path d="M204.071 315.17C204.987 313.712 206.762 314.008 206.952 316.205C207.037 317.142 206.255 321.46 204.29 324.446C202.247 327.559 200.409 327.939 199.155 327.094C197.895 326.256 198.423 324.728 199.507 323.566C201.24 321.713 203.635 315.86 204.071 315.17Z" fill="#0E1A68"/>
<path d="M203.647 315.17C204.563 313.712 206.338 314.008 206.528 316.205C206.613 317.142 205.831 321.46 203.866 324.446C201.823 327.559 199.985 327.939 198.731 327.094C197.471 326.256 198.006 324.728 199.084 323.566C200.816 321.713 203.211 315.86 203.647 315.17Z" fill="#5B68B7"/>
<path d="M243.391 309.542C243.391 309.542 244.588 309.366 244.764 310.507C244.94 311.641 244.447 315.282 244.447 315.282C244.447 315.282 247.708 313.853 249.018 313.212C250.328 312.571 251.075 311.514 251.075 311.514C251.075 311.514 251.201 310.275 249.807 309.606C248.405 308.937 243.398 309.549 243.398 309.549L243.391 309.542Z" fill="#0E1A68"/>
<path d="M336.037 239.104C335.052 246.546 335.5 248.346 335.975 252.726C336.449 257.105 338.424 267.479 338.908 269.24C339.391 271.001 346.844 274.118 347.397 271.231C347.95 268.344 346.831 253.009 346.551 248.812C346.27 244.616 336.037 239.104 336.037 239.104Z" fill="#0E1A68"/>
<path d="M342.313 246.184C341.933 250.741 342.271 252.682 342.724 253.713C343.18 254.744 345.685 255.503 345.685 255.503C345.685 255.503 346.107 268.749 347.409 273.24C348.712 277.729 354.483 275.882 354.753 273.621C355.023 271.36 355.821 265.142 356.545 259.595C357.269 254.047 357.88 249.037 356.21 243.141C354.539 237.247 342.313 246.184 342.313 246.184Z" fill="#0E1A68"/>
<path d="M346.273 294.039C346.273 294.039 345.986 295.089 345.548 297.328C345.405 298.058 344.393 297.573 344.393 297.573C344.393 297.573 344.358 295.088 344.009 294.633C343.658 294.179 346.273 294.039 346.273 294.039Z" fill="#293896"/>
<path d="M341.292 288.211C341.295 289.611 341.202 290.009 341.131 290.605C340.959 292.045 338.596 293.177 338.191 293.716C337.785 294.255 335.214 297.253 335.214 297.253C335.214 297.253 335.17 298.018 335.424 298.325C335.679 298.633 335.608 299.59 337.203 299.02C338.797 298.451 339.986 295.754 342.898 295.657C343.888 295.625 346.458 295.208 346.266 293.359C346.075 291.509 345.42 288.096 345.42 288.096L343.83 286.25L341.292 288.211Z" fill="white"/>
<path d="M340.467 291.887C340.467 291.887 338.111 294.022 337.578 294.634C337.046 295.247 337.208 295.582 338.059 295.807C338.94 296.04 340.016 295.308 342.101 294.083C343.256 293.404 343.259 293.497 344.576 292.884C345.895 292.272 346.115 292.165 346.009 291.495C345.903 290.824 345.827 290.382 345.827 290.382C345.827 290.382 346.405 291.17 346.527 292.691C346.649 294.215 346.598 295.019 344.533 295.561C341.908 296.249 343.767 295.656 342.87 295.992C342.356 296.185 341.628 297.346 339.931 298.641C338.234 299.935 335.23 299.964 334.699 299.935C333.404 299.865 332.798 298.681 334.262 297.346C335.804 295.94 338.611 293.19 340.467 291.887Z" fill="#293896"/>
<path d="M344.529 265.127C345.673 266.536 346.576 267.446 346.971 269.886C347.365 272.326 347.361 275.816 346.971 280.963C346.58 286.111 346.58 290.037 346.535 291.259C346.491 292.48 342.958 292.831 341.822 292.525C340.688 292.219 340.47 291.957 340.296 291.129C340.121 290.301 339.119 269.944 338.908 269.239C338.697 268.533 344.529 265.127 344.529 265.127Z" fill="#0E1A68"/>
<path d="M351.521 295.936C351.233 297.296 349.361 299.316 348.771 301.047C348.454 301.975 347.833 304.371 348.784 304.608C348.795 304.611 348.806 304.613 348.816 304.616C349.908 304.865 351.507 304.728 352.366 304.145C353.224 303.561 355.563 299.506 355.938 299.093C356.311 298.679 356.156 298.208 356.218 297.787C356.436 296.254 355.486 295.357 355.571 294.654C355.656 293.951 355.941 291.583 355.941 291.583L353.512 291.125C353.512 291.125 351.814 293.028 351.836 293.796C351.857 294.567 351.521 295.936 351.521 295.936Z" fill="white"/>
<path d="M351.169 296.952C351.169 296.952 349.06 300.167 348.737 301.489C348.414 302.811 350.463 303.029 351.553 302.311C352.66 301.584 353.319 300.077 354.37 298.911C355.288 297.89 356.07 297.263 356.124 296.896C356.221 296.248 355.753 295.604 355.753 295.604C355.753 295.604 356.536 296.064 356.618 297.766C356.702 299.51 356.626 299.51 355.939 300.23C355.335 300.865 354.358 303.387 352.393 305.123C351.253 306.129 349.143 306.858 347.664 306.879C345.907 306.622 345.537 305.826 346.077 304.79C346.402 304.169 347.423 303.059 348.543 301.083C349.324 299.704 351.169 296.952 351.169 296.952Z" fill="#293896"/>
<path d="M356.476 299.305C356.476 299.305 356.299 301.473 356.194 302.509C356.136 303.07 356.125 303.093 356.125 303.093C356.125 303.093 356.138 303.07 355.696 303.229C355.477 303.308 355.266 302.975 355.266 302.975L354.887 299.242L356.476 299.305Z" fill="#293896"/>
<path d="M354.867 269.402C356.961 274.594 357.529 276.95 357.746 280.963C357.965 284.976 356.307 294.182 356.307 295.884C356.307 297.585 351.334 297.848 351.159 295.884C350.985 293.92 349.343 281.648 348.632 278.435C347.921 275.221 347.406 273.241 347.406 273.241L354.867 269.402Z" fill="#0E1A68"/>
<path d="M354.383 213.818C353.764 213.601 348.881 212.702 345.142 212.451C341.402 212.2 343.602 209.604 339.118 211.751C334.636 213.899 332.765 214.367 331.923 215.877C331.08 217.387 335.348 229.213 335.308 232.477C335.27 235.738 335.533 240.193 335.363 242.244C335.192 244.295 336.783 246.218 341.894 247.413C349.613 249.215 355.671 245.372 355.721 243.32C355.771 241.266 354.916 235.446 354.983 232.628C355.052 229.81 355.203 229.713 355.379 225.81C355.554 221.907 354.383 213.818 354.383 213.818Z" fill="#293896"/>
<path d="M345.539 211.54C346.189 213.544 347.038 215.094 348.699 216.344C349.857 215.136 351.109 214.494 351.21 213.709C351.408 212.186 349.544 210.348 349.227 207.897C348.91 205.446 346.789 204.373 346.789 204.373L345.539 211.54Z" fill="#632100"/>
<path d="M338.945 206.012C339.418 207.292 339.675 212.935 339.759 214.508C339.841 216.081 341.126 217.119 342.826 217.584C344.526 218.048 346.72 217.296 346.902 216.474C347.084 215.652 346.574 212.545 346.739 211.568C346.903 210.592 347.029 207.937 345.988 206.804C344.948 205.672 338.945 206.012 338.945 206.012Z" fill="white"/>
<path d="M340.621 203.774C340.505 205.221 340.156 208.818 340.463 210.236C340.77 211.653 341.697 212.502 342.052 212.832C342.406 213.163 346.321 214.363 346.855 214.458C347.389 214.553 348.402 214.296 348.714 213.9C349.026 213.504 349.922 209.739 350.036 207.587C350.149 205.435 350.199 204.107 349.85 202.729C349.502 201.35 348.905 200.187 347.789 199.739C346.673 199.288 343.223 199.488 341.89 200.522C340.553 201.556 340.621 203.774 340.621 203.774Z" fill="white"/>
<path d="M348.195 201.323C347.936 201.759 346.801 202.251 344.954 202.791C343.108 203.332 342.489 204.766 342.008 205.54C341.525 206.314 341.276 208.323 341.276 208.323L341.12 209.768C341.12 209.768 340.977 208.133 340.361 207.393C339.745 206.653 338.939 207.48 338.939 207.48C338.939 207.48 340.177 209.543 340.173 209.746C340.168 209.947 340.05 210.407 340.05 210.407C340.05 210.407 336.935 208.572 336.295 206.783C335.653 204.995 335.547 201.931 336.243 199.793C336.94 197.656 339.288 196.889 339.795 196.781C340.301 196.672 340.538 196.054 342.513 196.001C344.488 195.948 347.704 198.031 348.795 199.28C349.885 200.53 350.447 201.728 349.972 203.303C349.22 201.072 349.541 201.403 348.887 200.997C348.822 200.955 348.195 201.323 348.195 201.323Z" fill="#632100"/>
<path d="M336.298 206.622C336.6 208.448 334.902 211.132 334.387 213.511C333.873 215.888 336.676 217.898 336.676 217.898C336.676 217.898 338.41 218.326 339.534 218.326C340.528 218.328 342.011 218.344 342.011 218.344C342.011 218.344 340.874 213.715 340.554 211.418C340.234 209.122 339.236 207.045 339.236 207.045L338.743 205.279L336.298 206.622Z" fill="#632100"/>
<path d="M350.246 235.408C350.529 235.334 352.155 234.748 352.155 234.748C352.155 234.748 352.84 233.899 353.754 233.619C354.668 233.339 356.223 233.116 356.223 233.116C356.223 233.116 357.146 232.394 357.672 232.345C358.196 232.297 358.265 232.762 358.216 233.164C358.166 233.566 357.08 234.285 356.959 234.301C356.839 234.319 355.559 234.771 355.559 234.771L355.118 235.525L357.362 235.216C357.362 235.216 361.44 233.965 361.886 233.896C362.331 233.827 362.951 234.002 362.951 234.002C362.951 234.002 363.62 233.791 363.975 234.114C364.329 234.438 363.957 234.851 363.957 234.851L363.682 235.369C363.682 235.369 358.74 237.363 357.826 237.624C356.914 237.883 355.026 237.656 353.527 238.003C352.028 238.349 350.661 238.277 350.179 238.204C349.696 238.134 350.246 235.408 350.246 235.408Z" fill="white"/>
<path d="M354.481 213.806C362.172 218.583 363.641 219.526 365.704 220.824C367.768 222.122 369.427 223.452 369.427 223.452C369.427 223.452 370.528 229.787 368.961 229.628C367.395 229.468 357.725 226.406 355.774 225.433C355.099 224.967 353.917 223.743 353.64 221.986C353.026 218.093 353.551 213.173 354.481 213.806Z" fill="#293896"/>
<path d="M376.612 219.25C375.577 218.769 374.325 219.464 373.182 220.107C372.038 220.751 368.994 222.33 368.481 222.928C367.968 223.527 366.502 228.62 367.974 229.434C369.444 230.248 370.731 229.259 372.17 228.623C373.61 227.987 379.691 224.164 379.792 222.177C379.892 220.189 376.612 219.25 376.612 219.25Z" fill="#293896"/>
<path d="M382.213 215.758C382.134 215.7 381.598 215.634 380.784 215.937C379.971 216.239 378.359 216.363 377.609 216.686C376.907 216.989 375.403 218.282 375.157 218.518C374.819 218.84 374.324 219.322 374.155 219.758C373.814 220.64 374.814 221.79 375.507 222.192C376.13 222.554 376.87 222.689 377.587 222.644C377.767 222.632 377.954 222.608 378.11 222.515C378.267 222.422 378.381 222.264 378.546 222.184C378.817 222.05 379.139 222.16 379.427 222.258C380.202 222.521 381.01 222.685 381.825 222.748C382.648 222.811 383.425 222.676 384.242 222.583L389.342 222.573L389.661 220.755C389.751 220.236 389.523 219.713 389.08 219.427L382.213 215.758Z" fill="white"/>
<path d="M380.905 216.239C381.801 216.771 383.011 218.217 383.311 218.737C383.612 219.256 383.967 220.084 383.461 220.261C381.984 220.776 380.865 219.314 380.865 219.314C380.865 219.314 379.712 217.664 379.019 217.534C378.325 217.403 376.619 217.127 377.611 216.686C378.602 216.244 380.189 215.814 380.905 216.239Z" fill="white"/>
<path d="M332.502 215.166C331.224 215.998 330.995 217.71 331 219.698C331.005 221.686 331.814 229.861 332.441 232.699C333.068 235.537 333.413 239.172 334.384 239.708C335.355 240.242 337.736 235.465 337.766 234.217C337.797 232.969 336.763 225.693 336.279 223.478C335.795 221.265 335.294 218.701 334.651 217.503C334.011 216.308 332.502 215.166 332.502 215.166Z" fill="#0E1A68"/>
<path d="M340.886 234.039C337.676 233.584 337.455 233.74 336.881 234.196C336.307 234.653 334.01 238.491 334.385 239.708C334.758 240.926 351.289 239.205 351.708 238.544C352.128 237.883 351.382 235.367 351.07 234.957C350.756 234.547 340.886 234.039 340.886 234.039Z" fill="#0E1A68"/>
<path d="M340.253 208.195C340.138 207.193 339.704 206.691 339.225 206.579C338.744 206.466 338.282 207.073 338.585 208.034C338.887 208.995 339.424 209.445 339.86 209.636C340.295 209.828 340.23 209.122 340.23 209.122L340.253 208.195Z" fill="white"/>
<path fill-rule="evenodd" clip-rule="evenodd" d="M508 183.158L507.567 339L504.139 337.015L504.559 185.577L455.74 157.364L455.32 308.802L452.22 307.027L452.654 155.576L403.848 127.376L403.428 278.814L400 276.829L400.433 121L508 183.158Z" fill="#0E1A68"/>
<path d="M355.221 294.796C355.236 294.531 355.221 294.251 355.191 293.986C355.191 293.971 355.191 293.956 355.191 293.942C355.118 293.397 354.941 292.778 354.44 292.557C354.204 292.454 353.924 292.454 353.674 292.498C353.364 292.557 353.025 292.704 352.76 292.881C352.51 293.058 352.407 293.338 352.274 293.603C351.906 294.295 351.493 294.958 351.081 295.607C350.344 296.785 349.533 297.964 349.033 299.261C348.812 299.865 348.635 300.587 348.9 301.206C349.121 301.721 349.622 302.09 350.197 302.163C351.567 302.325 351.906 301.279 352.009 301.132C352.804 300.042 353.379 298.804 353.998 297.61C354.248 297.109 354.528 296.623 354.808 296.137C355.059 295.71 355.177 295.253 355.206 294.782L355.221 294.796Z" fill="white"/>
<path d="M357.05 294.516C356.756 294.84 356.903 294.605 355.106 296.373C354.737 296.726 354.472 297.316 353.897 297.271C353.47 297.242 351.997 296.608 351.393 295.96C350.376 294.84 351.289 294.015 352.218 292.778C353.19 291.481 354.546 289.757 356.166 290.14C356.697 290.273 357.183 290.582 357.507 291.024C358.347 292.144 357.92 293.573 357.05 294.531V294.516Z" fill="white"/>
<path d="M355.576 306.555C354.589 305.759 354.014 305.508 352.983 304.772C350.596 303.077 348.813 302.606 348.784 300.352C348.784 299.571 349.432 298.834 350.051 298.804C352.128 298.716 352.688 300.779 356.298 303.829C356.71 304.182 357.167 304.551 357.668 304.757C358.567 305.096 356.033 306.923 355.561 306.555H355.576Z" fill="white"/>
<path d="M365.196 324.412C366.139 323.395 367.656 322.01 368.968 323.145C370.279 324.264 368.732 326.371 367.17 327.344C365.77 328.213 365.962 328.994 365.137 329.421C364.43 329.79 363.457 329.274 363.089 328.832C362.75 328.419 362.691 327.786 362.853 327.255C362.986 326.784 363.295 326.253 363.649 325.959C364.017 325.664 364.327 325.296 364.695 324.986C364.886 324.824 365.019 324.603 365.196 324.412Z" fill="#0E1A68"/>
<path d="M355.368 312.639C354.764 313.789 354.97 313.671 356.281 315.675C356.517 316.028 356.753 316.382 356.974 316.75C357.003 316.794 360.937 327.093 364.179 327.638C365.564 327.874 365.593 326.504 365.387 325.679C365.019 324.235 359.582 311.372 359.523 311.313C358.698 310.385 356.782 309.928 355.338 312.654L355.368 312.639Z" fill="white"/>
<path d="M360.409 310.517C359.746 309.987 358.921 309.707 358.125 309.869C357.683 309.957 357.271 310.178 356.902 310.458C356.608 310.665 356.033 311.048 355.9 311.416C355.856 311.549 355.9 311.696 355.9 311.843C355.886 312.123 355.783 312.418 355.724 312.683C355.606 313.258 355.473 313.847 355.37 314.422C354.898 316.75 354.486 319.093 354.147 321.45C354.103 321.774 354.059 322.113 354.014 322.437C353.823 323.866 354.736 325.796 355.886 326.548C357.875 327.844 359.54 322.481 359.702 322.098C359.893 321.671 360.07 321.229 360.262 320.802C361.072 319.004 362.118 317.251 362.133 315.173C362.133 313.847 361.897 312.492 361.205 311.416C360.984 311.077 360.718 310.783 360.409 310.532V310.517Z" fill="white"/>
<path d="M351.996 306.966C352.069 306.568 352.158 306.171 352.246 305.773C352.585 304.285 353.174 302.811 353.395 301.308C354.073 296.741 353.16 291.525 354.81 289.919C355.944 288.814 358.67 290.081 359.805 290.494C362.766 291.569 362.427 291.393 364.519 293.691C365.536 294.811 366.081 295.636 365.61 298.288C362.81 314.318 365.33 314.76 362.825 316.602C361.027 317.928 358.007 317.015 356.165 316.308C354.913 315.836 353.705 315.202 352.644 314.377C351.436 313.434 351.215 312.491 351.377 310.959C351.524 309.618 351.73 308.278 351.996 306.951V306.966Z" fill="#0E1A68"/>
<path d="M364.282 289.33C364.724 288.815 359.508 285.131 359.287 286.118C358.683 289.006 358.153 288.859 357.858 289.905C357.578 290.863 358.167 292.469 361.424 292.734C363.884 292.94 362.573 291.29 364.282 289.33Z" fill="white"/>
<path d="M366.848 282.641C367.069 283.068 367.201 283.54 367.172 284.026C367.128 284.615 366.995 285.204 366.936 285.794C366.877 286.442 366.818 287.09 366.656 287.709C366.243 289.3 364.932 290.582 363.238 290.7C362.147 290.774 360.203 289.949 359.613 289.492C358.832 288.873 358.449 287.901 358.125 286.958C355.414 279.267 364.77 278.486 366.848 282.626V282.641Z" fill="white"/>
<path d="M359.878 278.707C359.878 278.707 359.922 278.678 359.937 278.663C360.084 278.516 360.246 278.398 360.438 278.309C361.69 277.735 363.37 278.044 364.593 278.56C366.199 279.223 367.495 280.534 367.79 282.302C367.849 282.641 367.79 282.965 367.819 283.304C367.864 284.277 366.375 283.687 366.125 286.089C365.904 288.24 365.58 287.813 364.622 288.726C363.458 289.846 361.425 290.479 359.834 290.126C358.846 289.905 357.977 289.301 357.255 288.594C356.887 288.24 356.548 287.857 356.297 287.415C355.973 286.811 355.826 286.133 355.767 285.455C355.649 284.129 355.811 282.774 356.386 281.58C356.872 280.564 357.682 279.68 358.684 279.149C359.112 278.928 359.509 279.031 359.878 278.722V278.707Z" fill="#E4AF6A"/>
<path d="M365.387 286.633C364.635 286.28 364.061 287.164 364.296 288.121C364.414 288.563 364.621 289.094 365.136 288.888C365.328 288.814 365.519 288.74 365.711 288.667C366.138 288.504 365.917 287.841 365.902 287.473C365.902 287.061 365.77 286.81 365.387 286.619V286.633Z" fill="white"/>
<path d="M368.116 294.369C369.294 294.708 372.978 295.312 374.304 296.167C374.805 296.491 374.864 296.535 374.908 297.139C374.952 297.787 374.761 299.069 374.274 299.276C373.803 299.482 370.473 299.482 367.541 298.406L368.13 294.369H368.116Z" fill="white"/>
<path d="M367.834 293.809C368.468 294.103 369.219 294.236 369.529 294.56C369.956 295.002 369.823 295.695 369.632 296.697C369.381 298.052 369.043 298.656 368.527 298.833C367.687 299.142 361.307 298.023 361.793 294.825C362.029 293.249 363.974 292.026 367.834 293.809Z" fill="white"/>
<path d="M353.942 285.352C353.456 286.958 353.47 288.712 353.573 290.377C353.677 292.042 354.457 293.559 354.384 295.239C354.325 296.83 353.735 298.407 352.675 299.6C352.513 299.777 352.351 299.954 352.277 300.175C352.203 300.396 352.277 300.69 352.483 300.779C352.557 300.808 352.645 300.823 352.719 300.823C353.647 300.867 354.561 300.469 355.268 299.865C355.975 299.261 356.491 298.451 356.889 297.626C357.065 297.257 357.227 296.874 357.301 296.462C357.375 296.035 357.331 295.592 357.301 295.165C357.168 293.765 356.962 292.366 357.065 290.966C357.168 289.566 357.61 288.137 358.583 287.135C359.054 286.649 359.629 286.281 360.042 285.736C361.264 284.1 359.467 281.551 357.552 281.89C355.901 282.17 354.428 283.791 353.956 285.338L353.942 285.352Z" fill="#FED182"/>
<path d="M357.228 281.993C357.331 281.963 357.419 281.934 357.522 281.904C359.453 281.58 361.235 284.114 360.012 285.75C359.939 285.853 359.85 285.941 359.762 286.045C359.718 284.291 358.775 282.582 357.228 281.993Z" fill="#0E1A68"/>
<path d="M346.145 319.005C345.01 318.003 346.661 315.822 347.279 316.22C351.066 318.607 354.823 319.24 356.532 321.878C357.77 323.793 357.534 326.858 356.385 326.755C355.265 326.651 350.123 322.511 346.145 319.005Z" fill="white"/>
<path d="M346.882 319.107C346.41 319.874 345.909 320.596 345.379 321.303C345.099 321.686 344.79 322.054 344.421 322.334C344.053 322.599 343.581 322.761 343.154 322.658C342.653 322.54 342.255 322.098 342.093 321.553C341.858 320.772 342.093 320.183 342.521 319.594C342.977 318.931 343.611 318.474 344.127 317.885C344.289 317.693 344.348 317.472 344.436 317.236C344.51 317.03 344.628 316.824 344.731 316.618C344.952 316.146 345.202 315.689 345.6 315.38C345.821 315.203 346.071 315.1 346.322 315.026C346.572 314.967 346.852 314.938 347.103 315.011C347.722 315.159 348.208 315.837 348.223 316.559C348.223 316.912 347.899 317.398 347.736 317.693C347.471 318.179 347.191 318.651 346.897 319.122L346.882 319.107Z" fill="#0E1A68"/>
<path d="M372.667 297.39C372.933 296.388 376.704 293.279 377.588 292.675C378.031 292.366 377.986 292.542 377.913 291.894C377.78 290.76 378.001 290.804 378.178 289.993C378.252 289.669 378.252 289.242 378.546 288.992C378.635 288.918 378.752 288.874 378.841 288.933C379.312 289.168 378.178 290.966 379.474 290.539C380.403 290.229 380.683 289.566 381.051 289.109C381.375 288.712 382.289 287.886 382.274 288.432C382.274 289.065 381.346 289.817 381.242 290.023C381.154 290.17 381.139 290.377 381.257 290.509C381.257 290.509 381.287 290.539 381.301 290.539C381.434 290.583 382.539 289.581 382.701 289.404C382.804 289.301 382.907 289.183 383.055 289.124C383.202 289.065 383.379 289.095 383.453 289.242C383.556 289.448 383.217 289.993 383.084 290.17C382.893 290.435 381.891 291.01 381.876 291.305C381.876 291.364 381.906 291.437 381.979 291.437C382.127 291.437 383.674 289.949 383.644 290.612C383.615 291.393 382.303 291.835 382.171 292.13C382.009 292.542 383.29 291.776 383.453 291.879C383.482 291.894 383.482 291.924 383.497 291.953C383.541 292.1 383.467 292.277 383.349 292.395C383.232 292.513 383.084 292.572 382.937 292.645C381.832 293.235 381.685 293.809 380.034 294.119C379.872 294.148 379.695 294.178 379.578 294.31C378.708 295.298 374.789 299.585 374.038 299.305C373.227 298.996 372.476 298.097 372.667 297.405V297.39Z" fill="white"/>
<path d="M316.422 324.02L314.454 331.102C314.454 331.102 314.226 332.779 313.255 333.589C310.591 335.809 306.001 339.94 305.894 339.921C303.629 339.547 305.688 336.179 305.688 336.179C305.688 336.179 306.53 333.739 308.524 331.907C309.439 331.064 309.834 330.854 309.834 330.854L311.983 322.512L316.418 324.015L316.422 324.02Z" fill="white"/>
<path d="M305.488 343.298C305.381 341.828 307.233 337.701 306.971 336.409C306.807 335.584 306.275 334.924 305.862 335.041C305.406 335.074 304.753 335.331 304.233 335.519C304.379 335.589 304.676 335.631 304.792 335.743C305.26 336.184 305.54 336.722 305.475 337.697C305.411 338.676 305.174 339.444 304.813 340.54C304.452 341.636 303.894 343.753 304.238 344.638C304.47 345.242 304.646 345.373 304.908 345.495C305.256 345.336 305.583 344.572 305.488 343.298Z" fill="#293896"/>
<path d="M304.792 335.683C306.017 336.699 305.325 339.092 305.321 339.102C304.681 340.872 304.148 342.507 304.23 343.762C304.251 344.09 304.328 345.186 304.926 345.481C304.926 345.481 304.711 345.528 304.053 345.223C303.125 344.792 302.459 344.067 302.257 343.64C301.716 342.493 302.171 341.092 302.287 340.689C302.597 339.598 302.799 338.661 303.001 337.954C303.022 337.874 303.615 334.704 304.797 335.683H304.792Z" fill="#0E1A68"/>
<path d="M313.447 343.617C312.369 344.23 312.489 346.708 312.889 347.228C313.001 347.373 313.245 347.551 313.465 347.645C314.148 347.945 314.578 347.916 315.587 347.345C317.831 346.076 318.484 345.486 319.524 344.586C320.533 343.71 320.989 342.905 320.349 342.352C319.236 341.387 316.137 342.338 315.759 342.867C314.088 345.191 313.924 343.34 313.447 343.612V343.617Z" fill="#293896"/>
<path d="M319.133 319.421C319.133 319.421 319 327.983 318.905 332.109C318.866 333.725 318.037 336.39 318.037 336.39L315.85 343.973C315.85 343.973 315.858 345.393 314.109 343.631C313.787 343.304 313.555 342.938 313.512 342.512C312.868 336.578 314.965 332.292 314.965 332.292L312.816 322.189L319.133 319.421Z" fill="white"/>
<path d="M313.5 342.104C313.5 342.104 313.556 343.285 312.972 344.32C312.538 345.083 314.218 345.912 315.833 345.14C318.614 343.805 319.366 343.14 318.39 342.381C317.419 341.622 315.107 343.35 315.026 343.411C314.944 343.472 313.496 342.109 313.496 342.109L313.5 342.104Z" fill="white"/>
<path d="M316.55 292.657C316.58 293.266 316.078 295.046 316.28 295.88C316.482 296.709 315.747 297.055 315.906 298.058C316.069 299.06 315.648 299.486 315.691 300.278C315.738 301.069 314.337 300.943 314.41 301.861C314.483 302.774 313.783 302.952 313.671 303.463C313.559 303.973 312.627 304.207 312.812 304.615C312.997 305.022 313.65 305.556 313.809 304.816C313.972 304.081 314.273 304.222 314.715 303.2C315.162 302.179 315.906 302.793 316.207 301.674C316.507 300.554 317.221 299.065 316.946 298.573C316.671 298.081 317.173 298.034 317.139 296.709C317.105 295.383 317.887 296.067 317.784 294.784C317.68 293.5 316.55 292.662 316.55 292.662V292.657Z" fill="black"/>
<path d="M313.125 304.512C313.125 304.512 313.628 304.802 313.504 305.289C313.379 305.776 313.267 306.605 312.197 306.722C311.127 306.84 310.801 306.704 310.715 307.13C310.508 308.151 309.868 306.886 310.706 306.17C311.196 305.748 311.841 305.687 312.292 305.13C312.743 304.568 313.125 304.512 313.125 304.512Z" fill="black"/>
<path d="M312.976 304.845C312.976 304.845 312.899 304.835 312.822 304.835C312.418 304.826 311.399 304.821 311.584 304.432C311.808 303.969 312.882 302.896 313.127 303.791C313.368 304.685 313.789 304.226 314.313 304.756C314.833 305.285 313.948 306.578 313.591 306.4C313.23 306.217 312.856 305.205 312.976 304.845Z" fill="#293896"/>
<path d="M315.52 303.828C315.52 303.828 314.445 303.397 313.775 304.924C313.358 305.87 313.285 313.022 314.372 313.355C316.031 313.861 319.258 310.263 320.053 309.083C321.037 307.622 323.031 303.378 323.031 303.378L321.338 302.924L316.8 307.355C316.8 307.355 317.226 305.411 316.762 304.774C316.293 304.142 316.207 303.444 315.524 303.828H315.52Z" fill="white"/>
<path d="M321.474 302.995C321.474 302.995 322.506 301.903 323.111 301.248C323.816 300.484 324.989 301.276 325.355 301.575C325.638 301.81 325.909 302.109 325.638 302.311C325.561 302.372 325.303 302.292 325.024 302.236C324.603 302.152 324.254 302.32 324.027 302.713C323.636 303.383 323.318 303.781 322.682 303.852C322.574 303.866 321.427 304.198 321.474 302.995Z" fill="white"/>
<path d="M330.216 305.819C330.216 305.819 331.024 303.739 331.359 302.877C331.621 302.203 332.846 302.072 333.22 302.039C333.881 301.978 334.569 302.681 334.814 302.91C335.033 303.116 334.994 303.332 334.784 303.36C334.59 303.388 334.126 303.294 333.714 304.297C333.482 304.859 332.734 306.296 331.879 306.376C331.771 306.385 330.34 306.798 330.216 305.823V305.819Z" fill="white"/>
<path d="M319.289 304.681C318.069 306.212 315.28 304.615 316.122 303.5C317.407 301.805 316.483 298.086 316.483 298.086L320.32 300.151L319.289 304.676V304.681Z" fill="white"/>
<path d="M320.131 293.407L316.809 293.768L317.097 299.889C317.183 300.334 317.26 301.327 318.472 302.325C318.472 302.325 319.074 302.91 319.851 303.28C321.016 303.833 322.009 303.304 322.391 302.854C322.761 302.423 323.302 301.931 323.594 300.142C323.594 300.142 324.617 296.742 324.785 295.5C324.987 294.011 324.028 292.962 324.028 292.962L320.131 293.407Z" fill="white"/>
<path d="M322.423 290.676C326.054 292.376 325.874 294.451 325.874 294.493C325.886 295.304 324.67 296.062 324.692 296.081C324.709 296.095 324.335 294.498 324.296 294.634C323.639 296.99 323.321 297.191 322.878 297.678C322.479 298.119 321.392 299.013 321.727 297.885C321.727 297.885 320.867 296.948 319.269 300.315C318.379 302.184 316.824 301.608 316.824 301.608C316.802 301.706 316.656 301.079 316.067 300.048C315.44 298.948 315.058 298.264 314.838 297.88C312.492 293.782 316.024 289.575 319.978 290.034C320.734 290.119 322.427 290.681 322.427 290.681L322.423 290.676Z" fill="black"/>
<path d="M321.535 297.838C321.535 297.838 320.964 297.796 320.637 298.447C320.405 298.906 320.478 299.355 320.543 299.496C320.71 299.875 320.942 300.002 320.942 300.002C320.942 300.002 321.174 298.821 321.23 298.606C321.286 298.39 321.535 297.833 321.535 297.833V297.838Z" fill="white"/>
<path d="M321.85 297.646C321.85 297.646 322.172 297.707 321.846 298.147C321.519 298.587 321.403 298.873 321.339 299.149C321.279 299.402 321.18 300.18 321.18 300.18C321.18 300.18 320.918 300.447 320.819 299.931C320.772 299.688 320.797 299.252 320.922 298.709C320.974 298.489 321.528 297.449 321.85 297.646Z" fill="white"/>
<path d="M321.804 306.062C324.086 308.962 319.695 315.074 320.047 320.835C320.154 322.549 321.594 326.165 321.456 326.47C321.456 326.47 320.391 328.83 316.347 329.837C310.726 331.233 307.525 325.214 307.525 325.214C307.731 324.807 309.678 321.032 311.444 317.453C313.124 314.053 313.103 307.486 313.244 307.074C314.744 302.821 316.313 303.144 316.313 303.144C316.313 303.144 317.911 303.201 319.63 304.212C320.365 304.648 321.125 305.2 321.8 306.058L321.804 306.062Z" fill="#293896"/>
<path d="M331.104 304.629C331.104 304.629 332.23 305.331 332.17 305.575C331.632 307.842 329.574 312.381 327.168 313.336C326.514 313.594 325.608 313.004 325.608 313.004C325.608 313.004 320.7 310.737 319.407 309.458C317.237 307.308 319.824 305.13 321.929 306.17C322.763 306.582 325.341 308.905 326.841 309.584C327.189 309.739 331.1 304.629 331.1 304.629H331.104Z" fill="white"/>
<path d="M324.293 294.629C324.293 294.629 322.746 294.952 320.993 295.065C319.519 295.158 323.88 295.945 323.88 295.945L324.293 294.629Z" fill="#020202"/>
<path d="M322.914 292.071C322.914 292.071 322.652 295.032 320.782 295.078C320.782 295.078 321.99 295.448 324.125 293.444C324.439 293.149 322.914 292.071 322.914 292.071Z" fill="#020202"/>
<path d="M323.438 296.957C323.438 296.957 321.783 294.423 321.259 295.927C321.259 295.927 321.817 295.271 322.187 298.25C322.191 298.302 322.574 297.983 322.905 297.641C323.184 297.355 323.425 297.042 323.438 296.957Z" fill="#020202"/>
<path d="M321.479 294.976C323.507 292.639 321.144 290.784 321.144 290.784C321.144 290.784 319.438 289.468 316.322 291.557C315.579 292.053 316.919 291.103 318.879 290.915C322.029 290.615 322.381 293.782 320.847 294.99C319.313 296.194 321.483 294.976 321.483 294.976H321.479Z" fill="#020202"/>
<path d="M320.077 304.77C320.163 304.714 320.232 304.667 320.305 304.615C320.081 304.447 319.853 304.297 319.634 304.166C317.915 303.149 316.334 303.103 316.334 303.103C316.334 303.103 315.87 303.028 315.204 303.627C315.152 303.843 315.178 304.096 315.35 304.372C315.909 305.266 318.105 306.044 320.077 304.775V304.77Z" fill="white"/>
<path d="M316.012 305.219C316.012 305.219 316.48 305.57 316.304 306.038C316.128 306.507 315.926 307.312 314.852 307.294C313.777 307.275 313.468 307.102 313.335 307.509C313.017 308.497 312.523 307.163 313.429 306.554C313.962 306.198 314.607 306.221 315.118 305.725C315.629 305.228 316.012 305.219 316.012 305.219Z" fill="black"/>
<path d="M315.83 305.524C315.83 305.524 315.757 305.505 315.68 305.496C315.276 305.435 314.266 305.299 314.494 304.938C314.764 304.507 315.95 303.58 316.092 304.498C316.238 305.416 316.707 305.018 317.166 305.608C317.63 306.203 316.608 307.374 316.273 307.149C315.937 306.924 315.671 305.866 315.83 305.524Z" fill="#293896"/>
<path d="M321.298 294.722C320.447 294.544 319.966 296.193 320.074 297.045C320.181 297.893 319.416 298.146 319.468 299.158C319.524 300.174 319.055 300.544 319.012 301.336C318.974 302.127 317.598 301.818 317.568 302.741C317.538 303.659 316.829 303.748 316.662 304.24C316.494 304.732 315.544 304.844 315.682 305.275C315.824 305.706 316.412 306.315 316.653 305.603C316.894 304.896 317.173 305.069 317.727 304.113C318.282 303.158 318.952 303.86 319.373 302.792C319.794 301.72 320.662 300.333 320.443 299.809C320.22 299.284 320.727 299.303 320.834 297.982C320.942 296.661 321.642 297.439 321.685 296.151C321.724 294.863 321.294 294.727 321.294 294.727L321.298 294.722Z" fill="black"/>
</svg>
