<svg width="705" height="468" viewBox="0 0 705 468" fill="none" xmlns="http://www.w3.org/2000/svg">
<rect width="705" height="468" fill="#E0E6F9"/>
<g style="mix-blend-mode:multiply" opacity="0.29">
<path d="M338.139 219.209L367.97 236.449L396.873 219.242L394.118 217.67L359.114 207.749L338.139 219.209Z" fill="#231F20"/>
</g>
<path d="M367.564 234.877L395.537 218.465L395.74 145.584L367.784 181.331L367.564 234.877Z" fill="#0E1A68"/>
<path d="M340.521 219.293L368.477 202.83L368.697 130L340.741 165.747L340.521 219.293Z" fill="#0E1A68"/>
<path d="M340.725 165.747L340.521 219.275L367.565 234.876L367.785 181.331L340.725 165.747Z" fill="#5B68B7"/>
<path d="M342.99 170.92L342.922 199.214L349.886 203.219L349.936 174.925L342.99 170.92Z" fill="#293896"/>
<path d="M349.903 203.523L342.686 199.366V199.213L342.736 170.784L343.227 171.038L343.176 199.078L349.903 202.949V203.523Z" fill="#0E1A68"/>
<path d="M368.697 130L395.74 145.584L367.785 181.331L340.725 165.747L368.697 130Z" fill="white"/>
<path d="M368.124 135.459L389.403 147.73L374.31 167.116L353.014 154.845L368.124 135.459Z" fill="#BBDAF9"/>
<path d="M358.201 164.192C358.674 163.567 359.536 163.398 360.212 163.787L370.269 169.584C370.895 169.939 371.064 170.767 370.624 171.342L367.21 175.77C366.737 176.395 365.875 176.564 365.199 176.176L355.142 170.378C354.516 170.023 354.347 169.178 354.787 168.621L358.201 164.209V164.192Z" fill="#293896"/>
<path d="M357.391 151.889L361.025 153.883L359.419 155.945L355.785 153.968L357.391 151.889Z" fill="#0E1A68"/>
<path d="M365.875 141.104L369.492 143.082L367.886 145.144L364.27 143.167L365.875 141.104Z" fill="#0E1A68"/>
<path d="M363.762 143.792L367.379 145.786L365.773 147.848L362.156 145.854L363.762 143.792Z" fill="#0E1A68"/>
<path d="M361.633 146.496L365.267 148.473L363.644 150.535L360.027 148.558L361.633 146.496Z" fill="#0E1A68"/>
<path d="M359.52 149.2L363.137 151.178L361.531 153.24L357.914 151.262L359.52 149.2Z" fill="#0E1A68"/>
<path d="M368.005 138.4L371.622 140.378L370.017 142.44L366.383 140.462L368.005 138.4Z" fill="#0E1A68"/>
<path d="M353.232 154.964L352.793 154.727L368.055 135.154L389.555 147.527L389.251 147.915L368.174 135.78L353.232 154.964Z" fill="#0E1A68"/>
<path d="M346.473 164.547C346.473 163.787 347.301 163.161 348.349 163.161C349.397 163.161 350.225 163.787 350.225 164.547C350.225 165.308 349.38 165.933 348.349 165.933C347.318 165.933 346.473 165.308 346.473 164.547Z" fill="#293896"/>
<path d="M349.209 161.117C349.209 160.356 350.054 159.73 351.085 159.73C352.116 159.73 352.961 160.356 352.961 161.117C352.961 161.877 352.133 162.503 351.085 162.503C350.037 162.503 349.209 161.877 349.209 161.117Z" fill="#293896"/>
<path d="M350.326 166.39C350.326 165.629 351.171 165.004 352.202 165.004C353.233 165.004 354.078 165.629 354.078 166.39C354.078 167.151 353.25 167.776 352.202 167.776C351.154 167.776 350.326 167.151 350.326 166.39Z" fill="#293896"/>
<path d="M353.08 162.959C353.08 162.199 353.925 161.573 354.956 161.573C355.987 161.573 356.832 162.199 356.832 162.959C356.832 163.72 355.987 164.345 354.956 164.345C353.925 164.345 353.08 163.72 353.08 162.959Z" fill="#293896"/>
<path d="M380.646 173.151L381.982 172.44L430.372 200.329L430.237 247.198L428.919 247.908L429.054 201.039L380.646 173.151Z" fill="#5B68B7"/>
<g opacity="0.46">
<path d="M380.647 173.15L380.512 220.019L428.919 247.908L429.055 201.039L380.647 173.15Z" fill="#BBDAF9"/>
</g>
<g style="mix-blend-mode:multiply" opacity="0.29">
<path d="M410.885 263.377L440.717 280.616L469.619 263.41L466.864 261.838L431.86 251.917L410.885 263.377Z" fill="#231F20"/>
</g>
<path d="M440.311 279.044L468.283 262.632L468.486 189.751L440.53 225.498L440.311 279.044Z" fill="#0E1A68"/>
<path d="M413.268 263.461L441.223 246.998L441.443 174.168L413.488 209.915L413.268 263.461Z" fill="#0E1A68"/>
<path d="M413.471 209.915L413.268 263.443L440.311 279.044L440.531 225.499L413.471 209.915Z" fill="#5B68B7"/>
<path d="M415.734 215.088L415.666 243.382L422.63 247.387L422.681 219.093L415.734 215.088Z" fill="#293896"/>
<path d="M422.649 247.691L415.432 243.534V243.381L415.482 214.952L415.973 215.206L415.922 243.246L422.649 247.117V247.691Z" fill="#0E1A68"/>
<path d="M441.443 174.168L468.486 189.752L440.531 225.499L413.471 209.915L441.443 174.168Z" fill="white"/>
<path d="M440.868 179.627L462.147 191.898L447.054 211.284L425.758 199.013L440.868 179.627Z" fill="#BBDAF9"/>
<path d="M430.947 208.36C431.42 207.735 432.282 207.566 432.958 207.955L443.015 213.752C443.641 214.107 443.81 214.935 443.37 215.51L439.956 219.938C439.483 220.563 438.621 220.732 437.945 220.344L427.888 214.546C427.262 214.191 427.093 213.346 427.533 212.789L430.947 208.377V208.36Z" fill="#293896"/>
<path d="M430.137 196.057L433.771 198.051L432.165 200.113L428.531 198.136L430.137 196.057Z" fill="#0E1A68"/>
<path d="M438.621 185.272L442.238 187.25L440.632 189.312L437.016 187.335L438.621 185.272Z" fill="#0E1A68"/>
<path d="M436.508 187.96L440.125 189.954L438.519 192.016L434.902 190.022L436.508 187.96Z" fill="#0E1A68"/>
<path d="M434.379 190.664L438.013 192.641L436.39 194.703L432.773 192.726L434.379 190.664Z" fill="#0E1A68"/>
<path d="M432.266 193.368L435.883 195.346L434.277 197.408L430.66 195.43L432.266 193.368Z" fill="#0E1A68"/>
<path d="M440.749 182.568L444.366 184.546L442.761 186.608L439.127 184.63L440.749 182.568Z" fill="#0E1A68"/>
<path d="M425.979 199.132L425.539 198.895L440.802 179.322L462.301 191.695L461.997 192.083L440.92 179.948L425.979 199.132Z" fill="#0E1A68"/>
<path d="M419.217 208.715C419.217 207.955 420.045 207.329 421.093 207.329C422.141 207.329 422.969 207.955 422.969 208.715C422.969 209.476 422.124 210.101 421.093 210.101C420.062 210.101 419.217 209.476 419.217 208.715Z" fill="#293896"/>
<path d="M421.955 205.285C421.955 204.524 422.8 203.898 423.831 203.898C424.862 203.898 425.707 204.524 425.707 205.285C425.707 206.045 424.879 206.671 423.831 206.671C422.783 206.671 421.955 206.045 421.955 205.285Z" fill="#293896"/>
<path d="M423.07 210.558C423.07 209.797 423.915 209.172 424.946 209.172C425.977 209.172 426.822 209.797 426.822 210.558C426.822 211.319 425.994 211.944 424.946 211.944C423.898 211.944 423.07 211.319 423.07 210.558Z" fill="#293896"/>
<path d="M425.826 207.126C425.826 206.366 426.671 205.74 427.702 205.74C428.733 205.74 429.578 206.366 429.578 207.126C429.578 207.887 428.733 208.512 427.702 208.512C426.671 208.512 425.826 207.887 425.826 207.126Z" fill="#293896"/>
<path d="M453.393 217.319L454.728 216.608L503.118 244.497L502.983 291.366L501.665 292.076L501.8 245.207L453.393 217.319Z" fill="#5B68B7"/>
<g opacity="0.46">
<path d="M453.393 217.318L453.258 264.187L501.665 292.076L501.801 245.207L453.393 217.318Z" fill="#BBDAF9"/>
</g>
<mask id="mask0_2067_305199" style="mask-type:luminance" maskUnits="userSpaceOnUse" x="501" y="240" width="12" height="64">
<path d="M512.938 240.811V300.767C512.938 301.527 512.296 302.287 511.227 302.857C509.089 304.013 505.603 304.013 503.448 302.857C502.363 302.272 501.82 301.512 501.82 300.736L502.001 240.779C502.001 241.539 502.544 242.315 503.629 242.901C505.784 244.072 509.27 244.057 511.408 242.901C512.477 242.315 512.938 241.571 512.938 240.811Z" fill="white"/>
</mask>
<g mask="url(#mask0_2067_305199)">
<path d="M512.938 240.811V300.767C512.938 301.527 512.297 302.287 511.228 302.857C509.09 304.013 505.603 304.013 503.449 302.857C502.363 302.272 502.002 301.512 502.018 300.736V240.779C502.018 241.539 502.561 242.315 503.646 242.901C505.801 244.072 509.287 244.057 511.425 242.901C512.494 242.315 512.954 241.571 512.954 240.811H512.938Z" fill="#293896"/>
</g>
<path d="M511.376 238.689C513.531 239.861 513.547 241.745 511.393 242.916C509.255 244.072 505.768 244.088 503.614 242.916C501.46 241.745 501.46 239.861 503.581 238.689C505.719 237.533 509.206 237.533 511.36 238.689H511.376Z" fill="#BBDAF9"/>
<path d="M277.789 271.119C277.789 271.119 276.48 272.983 276.609 275.297C276.609 275.297 276.736 276.584 278.152 277.291C279.567 277.998 280.982 278.578 281.946 279.799C282.911 281.021 285.233 282.951 287.513 283.659C289.793 284.366 292.686 283.724 292.558 282.244C292.43 280.765 291.015 280.09 289.214 277.533C287.413 274.975 284.578 272.79 284.581 271.021C284.583 269.253 277.789 271.119 277.789 271.119Z" fill="#1F232D"/>
<path d="M262.411 257.325C262.411 257.325 261.528 259.09 262.411 261.92C263.295 264.75 265.482 270.151 263.038 270.86C260.595 271.568 256.478 266.872 256.478 263.786C256.478 260.698 255.707 259.927 254.871 258.64C254.035 257.354 253.713 256.131 254.292 255.552C254.871 254.974 256.394 253.675 257.122 253.43C257.85 253.185 258.28 252.337 258.28 252.337L262.411 257.325Z" fill="#1F232D"/>
<path d="M285.488 273.073C285.488 273.073 283.27 273.965 282.615 274.543L282.846 275.931L281.767 274.502C281.767 274.502 278.046 274 277.496 271.611L278.219 270.26L284.582 271.021C284.582 271.021 284.436 271.798 285.488 273.073Z" fill="white"/>
<path d="M262.024 259.726C262.024 259.726 260.297 259.87 259.198 259.523L258.533 260.246L258.793 258.829C258.793 258.829 255.365 255.146 257.122 253.43C257.122 253.43 257.453 253.27 257.752 253.032C258.052 252.794 258.321 252.939 258.321 252.939L262.412 257.326C262.412 257.326 261.988 258.404 262.024 259.726Z" fill="white"/>
<path d="M289.215 214.039C289.215 214.039 286.835 237.159 283.234 240.889C279.633 244.62 263.167 257.74 263.167 257.74C263.167 257.74 258.151 255.296 257.122 251.567L270.081 236.775L275.715 224.426L276.641 214.04L289.215 214.039Z" fill="#0E1A68"/>
<path d="M274.241 248.741L273.051 249.726C273.051 249.726 273.822 248.669 271.586 245.622C269.35 242.575 268.003 239.147 268.003 239.147L270.081 236.775L270.815 235.249L274.902 245.699L274.241 248.741Z" fill="#030C43"/>
<path d="M291.722 193.106C291.722 193.106 293.749 203.621 294.037 204.972C294.326 206.322 296.448 213.461 296.834 216.451L293.843 217.513C293.843 217.513 289.116 206.901 288.827 205.309C288.537 203.718 287.895 200.808 287.895 200.808L286.319 190.114L291.722 193.106Z" fill="white"/>
<path d="M293.844 217.512C293.844 217.512 293.507 218.958 293.844 220.069C294.182 221.178 295.822 221.71 296.16 224.024C296.497 226.339 297.124 227.256 298.427 226.05C299.729 224.845 301.08 222.095 299.489 219.682C297.898 217.271 296.836 216.45 296.836 216.45L294.618 215.342L293.844 217.512Z" fill="white"/>
<path d="M266.368 218.124C266.368 218.124 265.543 223.011 268.665 231.628C271.786 240.245 274.231 247.191 274.231 247.191C274.231 247.191 274.231 256.71 275.003 260.311C275.775 263.912 276.642 270.859 276.642 270.859C276.642 270.859 281.047 272.146 285.164 270.859C285.164 270.859 282.849 249.506 283.235 240.888C283.621 232.272 281.47 220.115 281.47 220.115L266.368 218.124Z" fill="#0E1A68"/>
<path d="M284.971 177.784C284.971 177.784 288.347 181.722 289.89 186.933C291.433 192.141 291.723 193.107 291.723 193.107L287.805 193.777L284.971 177.784Z" fill="#5B68B7"/>
<path d="M282.61 176.644C282.61 176.644 283.909 177.125 284.97 177.784C286.031 178.442 289.119 186.739 288.153 190.404C287.189 194.071 288.25 210.085 289.215 214.04C289.215 214.04 282.077 221.95 273.925 222.626C265.772 223.301 266.158 217.61 266.448 216.355C266.738 215.101 268.956 207.383 268.088 203.91C267.22 200.438 264.068 190.34 264.068 190.34L267.284 181.4L273.961 177.492L282.61 176.644Z" fill="#5B68B7"/>
<path d="M273.961 173.797C273.961 173.797 274.304 176.607 273.961 177.491C273.619 178.376 275.742 180.724 276.739 181.045C277.735 181.366 282.14 182.718 282.751 181.141C283.361 179.566 282.493 179.099 282.622 175.995C282.751 172.895 273.961 173.797 273.961 173.797Z" fill="white"/>
<path d="M281.369 175.676C281.369 175.676 282.848 176.705 284.005 176.64C285.163 176.575 285.748 174.84 285.519 172.331C285.291 169.822 285.137 168.022 285.569 166.929C285.999 165.835 284.905 159.662 280.082 159.662C275.259 159.662 268.781 161.453 273.178 170.334L281.369 175.676Z" fill="white"/>
<path d="M273.633 185.58C273.633 185.58 271.013 189.826 271.463 192.527C271.913 195.228 272.941 195.935 272.941 195.935C272.941 195.935 265.03 192.527 264.066 190.34C263.102 188.154 263.937 183.459 267.281 181.4C267.281 181.4 271.816 183.073 273.633 185.58Z" fill="#5B68B7"/>
<path d="M277.607 168.809C277.607 168.809 277.281 165.76 276.641 165.008C276.641 165.008 278.72 165.818 280.571 165.008C282.423 164.2 285.185 164.892 285.654 163.389C286.124 161.886 285.654 160.728 285.654 160.728C285.654 160.728 285.199 161.654 284.562 160.728C283.926 159.802 280.34 156.794 274.672 158.529C274.672 158.529 271.018 159.802 271.718 162.406C271.718 162.406 269.698 164.758 271.009 167.226C272.32 169.692 273.078 170.52 273.078 170.52L274.455 167.925L275.415 168.496C275.415 168.496 275.988 167.761 277.607 168.809Z" fill="#613722"/>
<path d="M280.466 177.492L281.369 175.677C281.369 175.677 282.051 176.051 282.612 176.342C282.612 176.342 282.644 177.593 282.664 177.783C282.684 177.972 282.684 177.972 282.684 177.972C282.684 177.972 281.207 179.083 281.497 179.99C281.786 180.895 281.793 181.817 281.793 181.817L281.509 181.864C281.509 181.864 281.361 181.455 281.1 180.164C280.841 178.871 280.588 178.032 280.466 177.492Z" fill="#DEDEDE"/>
<path d="M274.095 175.421L273.96 173.797L274.64 174.182C274.64 174.182 275.642 176.441 276.131 178.278C276.131 178.278 276.868 180.568 276.739 181.045C276.739 181.045 276.283 180.97 275.623 180.291C274.962 179.614 276.377 180.119 275.726 178.571C275.075 177.025 274.095 175.421 274.095 175.421Z" fill="#DEDEDE"/>
<path d="M277.607 168.809C277.607 168.809 280.605 170.494 280.739 171.055C280.874 171.618 281.109 171.881 281.109 171.881C281.109 171.881 281.013 171.564 281.013 170.909C281.013 170.252 277.501 168.656 277.435 167.595L277.607 168.809Z" fill="#DEDEDE"/>
<path d="M287.804 193.776C287.804 193.776 287.796 191.935 288.125 190.512C288.125 190.512 288.416 189.222 288.321 188.16C288.226 187.098 287.98 185.195 287.526 183.688C287.526 183.688 288.532 186.565 288.744 189.284C288.956 192.001 288.286 193.473 289.865 193.422L287.804 193.776Z" fill="#383F6F"/>
<path d="M272.137 184.069L274.82 186.702L276.893 188.668L276.839 187.191C276.839 187.191 276.398 187.715 272.137 184.069Z" fill="#383F6F"/>
<path d="M265.894 192.16C265.894 192.16 271.681 195.707 273.407 196.077C275.133 196.446 278.549 197.651 278.549 197.651C278.549 197.651 272.512 199.502 272.665 202.664C272.82 205.826 272.289 209.297 271.358 212.537C270.428 215.776 266.843 221.399 270.719 222.521C270.719 222.521 266.569 222.105 266.339 217.842C266.339 217.842 266.187 217.01 266.765 214.986C267.344 212.96 268.115 208.7 268.172 208.121C268.23 207.544 268.366 205.021 268.087 203.91C267.807 202.8 266.461 198.184 266.461 198.184L264.067 190.34C264.067 190.34 264.272 191.007 265.894 192.16Z" fill="#383F6F"/>
<path d="M287.804 193.776C287.804 193.776 289.757 192.53 291.44 192.16L291.852 193.776H287.804Z" fill="#DEDEDE"/>
<path d="M281.785 222.064C281.785 222.064 282.95 231.707 282.974 231.998C282.997 232.29 283.233 240.89 283.233 240.89C283.233 240.89 284.388 239.279 284.331 237.082C284.273 234.883 282.827 225.171 284.504 222.681C286.182 220.192 286.32 218.688 286.32 218.688C286.32 218.688 284.967 221.738 281.785 222.064Z" fill="#030C43"/>
<path d="M280.594 171.441L282.234 172.453L279.949 177.05L271.429 172.212L273.938 167.483L280.594 171.441Z" fill="#776962"/>
<path d="M279.756 172.009L281.396 173.021L279.111 177.619L270.592 172.781L273.1 168.054L279.756 172.009Z" fill="#564C47"/>
<path d="M281.397 173.021L282.234 172.453L279.949 177.05L279.111 177.62L281.397 173.021Z" fill="#776962"/>
<path d="M282.234 172.453L281.397 173.021L273.1 168.054L273.938 167.483L282.234 172.453Z" fill="#89807C"/>
<path d="M273.634 185.58L276.89 188.668L282.107 198.741L272.943 195.934C272.943 195.934 268.956 192.719 273.634 185.58Z" fill="white"/>
<path d="M281.112 171.882C281.112 171.882 281.048 171.045 279.954 170.339C278.861 169.631 277.447 168.601 276.674 168.346C275.902 168.088 275.645 168.152 274.745 169.181C273.845 170.21 273.267 171.69 273.91 172.654C274.553 173.619 276.868 179.664 276.74 181.209C276.612 182.751 277.061 192.785 277.061 192.785C277.061 192.785 277.961 197.673 281.949 198.702C285.936 199.731 285.614 196.323 285.422 194.651C285.229 192.977 281.434 182.11 281.241 180.823C281.048 179.535 279.287 173.755 279.954 172.333C280.622 170.909 281.112 171.882 281.112 171.882Z" fill="white"/>
<path d="M276.89 188.667C276.89 188.667 276.746 192.717 277.507 194.264C278.268 195.811 275.673 192.838 275.595 191.464C275.519 190.092 275.29 187.15 274.817 186.702L276.89 188.667Z" fill="#DEDEDE"/>
<path d="M237.067 273.438C236.963 273.334 236.793 273.126 236.559 272.826L233.148 273.087C233.903 273.776 233.643 274.623 233.669 274.688C233.982 275.638 233.591 276.692 235.01 277.564C236.676 278.58 235.531 282.55 236.884 282.55C237.353 282.55 238.043 282.069 238.46 281.86C239.527 281.327 240.113 277.356 239.983 276.692C239.904 276.302 239.019 275.104 238.889 274.974C238.316 274.427 237.626 274.011 237.067 273.464V273.438Z" fill="white"/>
<path d="M232.588 334.815C232.614 334.32 232.471 334.125 232.133 333.773C231.521 333.149 230.779 332.667 229.998 332.276C228.918 331.743 227.238 331.547 226.301 330.87C225.754 330.467 223.711 328.176 223.606 327.421L218.426 327.486C218.074 327.89 217.762 328.332 217.501 328.801C216.668 330.272 216.395 332.302 217.215 333.838C218.113 335.544 220.196 335.348 221.849 335.583C223.125 335.765 224.205 336.325 225.208 337.106C226.145 337.835 227.486 338.368 228.657 338.525C229.438 338.629 230.284 338.551 230.935 338.108C231.612 337.64 231.964 336.845 232.263 336.077C232.419 335.674 232.562 335.244 232.588 334.815Z" fill="#32323B"/>
<path d="M229.386 248.21L221.758 246.974C221.758 246.974 221.758 246.974 221.758 246.987C223.294 254.888 223.658 261.071 224.895 263.61C225.273 264.391 225.702 263.662 226.314 264.013C227.095 264.469 231.651 262.035 231.651 262.035C231.495 258.208 230.427 251.243 229.386 248.184V248.21Z" fill="white"/>
<path d="M223.36 236.782C225.546 236.313 226.783 239.06 227.577 240.609C228.58 242.587 229.295 244.722 229.673 246.909C229.868 248.003 230.246 249.421 229.699 250.437C229.074 251.595 228.059 252.324 226.861 252.806C225.963 253.17 225.013 253.418 224.05 253.535C222.37 253.73 222.24 252.689 221.876 251.348C221.459 249.851 221.042 248.354 220.6 246.857C219.09 241.728 221.029 237.263 223.373 236.782H223.36Z" fill="#1A2A8A"/>
<path d="M233.669 274.675C233.891 275.626 233.878 276.237 234.828 276.433C235.778 276.628 237.561 275.652 237.314 274.831C236.546 272.319 232.146 262.283 231.456 259.536C231.183 258.43 227.746 258.898 226.757 259.666C224.427 261.45 225 263.78 225 263.78C226.432 265.797 233.266 272.879 233.669 274.662V274.675Z" fill="white"/>
<path d="M199.199 304.68C199.395 304.732 199.577 304.823 199.707 304.979C200.15 305.539 200.124 306.684 200.045 307.348C199.889 308.663 199.473 309.939 199.382 311.253C199.329 311.956 199.382 312.672 199.447 313.375C199.525 314.312 199.616 315.263 199.681 316.2C199.746 317.007 199.434 317.58 198.835 318.139C198.666 318.309 198.457 318.452 198.223 318.491C198.041 318.53 197.845 318.491 197.65 318.439C196.622 318.179 195.646 317.736 194.773 317.137C194.331 316.838 193.914 316.473 193.693 315.992C193.498 315.575 193.459 315.093 193.433 314.638C193.381 313.661 193.315 312.633 193.524 311.683C193.693 310.902 193.758 310.225 193.641 309.392C193.537 308.754 193.342 308.129 193.237 307.491C193.133 306.853 193.146 306.163 193.433 305.591C193.693 305.07 194.162 304.693 194.63 304.367C195.151 304.003 195.945 303.482 196.622 303.573C197.221 303.651 197.885 304.224 198.457 304.471C198.679 304.562 198.952 304.601 199.199 304.666V304.68Z" fill="#32323B"/>
<path d="M226.704 283.24C225.532 288.993 225.91 308.09 220.365 306.215C218.62 305.63 215.756 302.297 215.73 298.418C215.73 296.322 215.965 291.792 215.991 289.696C216.043 285.375 212.086 270.717 221.041 268.634C222.382 268.322 224.595 265.849 225.663 266.851C225.884 267.059 226.548 268.009 226.964 270.027C227.199 271.173 227.251 272.904 227.355 274.427C227.537 277.043 227.355 280.064 226.704 283.24Z" fill="#6483C5"/>
<path d="M222.759 301.868C222.785 302.623 222.564 303.261 221.861 303.508C221.08 303.782 220.104 303.86 219.284 304.068C217.396 304.537 215.509 305.005 213.608 305.474C211.044 306.099 208.466 306.828 205.85 307.257C203.741 307.609 201.736 308.351 199.562 308.611C199.25 308.65 198.925 308.689 198.599 308.611C198.235 308.533 197.896 308.325 197.61 308.064C196.568 307.166 195.878 305.5 196.152 304.12C196.438 302.727 197.961 302.102 199.042 301.53C202.804 299.538 209.833 297.416 213.855 296.049C215.847 295.372 217.995 295.385 219.883 296.752C221.34 297.807 222.382 299.512 222.681 301.321C222.707 301.504 222.733 301.699 222.733 301.868H222.759Z" fill="#6483C5"/>
<path d="M212.268 271.98C217.292 270.938 217.943 271.667 220.417 268.491C221.237 269.936 221.536 271.511 222.2 272.995C222.825 274.375 223.827 275.573 224.335 277.018C224.829 278.463 224.764 280.103 224.139 281.509C223.202 283.617 220.404 283.774 220.989 286.559C221.979 291.22 224.218 297.455 223.97 302.258C223.918 303.378 223.853 304.51 223.801 305.63C223.788 305.981 223.762 306.346 223.671 306.697C223.528 307.27 223.189 307.778 222.864 308.285C222.499 308.832 222.109 309.405 221.523 309.678C221.106 309.873 220.612 309.886 220.156 309.847C219.115 309.769 216.72 309.47 215.079 307.973C213.595 306.619 211.161 296.544 210.159 293.979C209.638 292.625 209.104 291.259 208.506 289.944C207.933 288.694 207.269 287.549 206.826 286.221C205.941 283.539 205.577 280.675 205.772 277.864C205.85 276.744 206.032 275.625 206.501 274.609C206.944 273.659 207.725 272.735 208.74 272.37C209.807 271.98 211.135 272.227 212.268 271.993V271.98Z" fill="#91B3F7"/>
<path d="M228.109 278.137C227.771 279.075 226.925 279.231 226.105 279.504C225.232 279.804 224.399 280.324 223.501 280.65C220.754 281.626 217.93 282.602 215.014 282.576C213.4 282.563 211.811 282.238 210.236 281.912C209.052 281.665 207.854 281.431 206.67 281.183C206.331 281.118 205.524 281.118 205.29 280.858C205.016 280.585 205.147 279.699 205.16 279.335C205.225 277.473 205.459 275.612 205.849 273.79C206.032 272.93 206.253 272.071 206.396 271.199C206.435 270.952 206.474 270.691 206.513 270.444C206.578 269.897 206.631 269.351 206.657 268.804C206.709 267.697 206.67 266.591 206.604 265.484C206.552 264.769 206.5 264.053 206.422 263.337C206.175 260.746 205.537 258.195 204.548 255.8C203.259 252.701 201.411 249.265 202.504 245.815C202.999 244.227 204.248 242.964 205.563 241.936C206.006 241.598 206.461 241.272 206.891 240.973C207.359 240.66 207.919 240.322 208.57 239.97C210.952 238.682 214.402 237.237 217.799 236.169C218.476 235.961 219.244 235.727 220.025 235.597C220.351 235.545 220.689 235.505 221.015 235.479C221.77 235.44 222.512 235.545 223.176 235.883C224.555 236.586 225.206 238.161 225.74 239.528C226.781 242.17 226.82 244.982 226.899 247.82C226.899 248.171 226.912 248.536 226.925 248.887C226.977 251.322 226.938 253.756 226.925 256.177C226.925 256.607 226.925 257.036 226.925 257.453C226.925 263.857 227.68 270.262 228.187 276.64C228.226 277.135 228.265 277.63 228.096 278.098L228.109 278.137Z" fill="#1A2A8A"/>
<path d="M223.958 300.566C224.778 305.382 223.841 315.132 223.802 319.402C223.776 321.511 223.776 323.607 223.828 325.715C223.867 327.186 224.557 329.751 223.346 330.883C222.904 331.3 222.318 331.547 221.732 331.742C221.029 331.977 220.261 332.159 219.532 331.951C217.58 331.417 217.111 329.178 216.499 327.525C215.796 325.611 215.184 323.659 214.898 321.628C214.273 317.319 214.234 310.251 214.065 305.89C214.013 304.575 217.541 303.885 218.009 304.055C219.532 304.627 223.867 300.006 223.958 300.553V300.566Z" fill="#91B3F7"/>
<path d="M202.245 270.445C204.172 265.928 206.254 259.653 207.634 254.147L200.201 248.445C199.811 249.526 199.629 250.801 199.329 251.804C198.132 255.891 196.179 264.938 195.567 269.182C195.307 270.926 197.403 267.698 198.236 269.312C198.6 270.028 197.936 270.939 198.704 271.2C199.707 271.538 201.855 271.382 202.258 270.445H202.245Z" fill="white"/>
<path d="M193.939 278.398C193.782 279.986 193.756 284.243 193.874 285.011C193.991 285.792 194.498 286.56 195.266 286.729C195.969 286.872 196.477 288.083 196.907 287.497C197.206 287.093 197.388 285.362 197.896 283.449C198.924 279.595 200.565 274.063 202.218 270.431C202.843 269.064 203.741 266.24 202.647 265.211C200.161 262.881 196.412 263.923 196.008 266.409C195.696 268.361 194.498 272.501 193.926 278.398H193.939Z" fill="white"/>
<path d="M198.835 251.348C198.835 251.348 198.874 251.231 198.9 251.166C199.395 249.656 199.733 247.872 200.788 246.636C202.207 244.969 203.899 242.769 206.411 243.329C208.39 243.772 208.819 246.063 208.923 247.534C209.067 249.473 208.481 251.4 208.273 253.313C208.038 255.487 207.726 257.648 207.335 259.796C207.27 260.174 207.179 260.59 206.867 260.825C206.711 260.955 206.502 261.007 206.307 261.072C205.448 261.306 204.55 261.475 203.665 261.345C203.17 261.267 202.701 261.111 202.22 260.942C200.84 260.473 199.473 259.991 198.093 259.523C197.742 259.406 197.377 259.262 197.182 258.95C196.987 258.638 197.039 258.234 197.104 257.87C197.481 255.631 198.132 253.522 198.822 251.374L198.835 251.348Z" fill="#1A2A8A"/>
<path d="M198.352 281.874C198.496 281.484 195.957 283.28 195.489 283.15C195.085 283.046 194.656 283.228 194.382 283.501C193.588 284.295 193.054 285.102 192.664 286.144C192.26 287.237 192.026 288.383 192 289.541C192 289.815 192.039 290.153 192.299 290.244C192.469 290.296 192.664 290.218 192.833 290.296C193.146 290.439 192.963 290.921 193.015 291.26C193.08 291.793 193.953 291.962 194.213 291.494C194.239 291.936 194.304 292.418 194.617 292.718C194.929 293.03 195.58 293.004 195.723 292.574C195.593 293.043 195.918 293.603 196.4 293.707C196.882 293.824 197.415 293.472 197.519 292.991C197.597 292.626 197.441 292.262 197.402 291.897C197.233 290.505 198.522 289.359 198.769 287.979C198.938 287.016 198.795 286.105 198.04 285.493C197.506 285.063 197.988 282.889 198.366 281.835L198.352 281.874Z" fill="white"/>
<path d="M198.418 286.157C199.186 287.368 199.667 289.568 199.316 290.961C199.264 291.182 199.186 291.403 199.042 291.585C198.886 291.755 198.652 291.872 198.431 291.794C198.222 291.729 198.092 291.507 198.053 291.286C198.014 291.065 198.053 290.843 198.105 290.635C198.105 290.583 198.157 290.505 198.209 290.531C197.793 289.711 197.376 288.904 196.973 288.084L198.431 286.157H198.418Z" fill="white"/>
<path d="M237.274 276.314C237.144 276.041 236.962 275.794 236.715 275.637C236.363 275.416 235.803 275.494 235.478 275.833C235.374 275.95 235.296 276.08 235.231 276.223C234.97 276.796 234.944 277.473 235.074 278.072C235.074 278.072 235.101 278.072 235.114 278.085H235.088C235.166 278.449 235.296 278.788 235.465 279.113C235.608 279.399 235.843 279.66 235.96 279.972C236.025 280.167 236.025 280.376 235.999 280.584C235.973 281.014 235.686 281.886 236.09 282.146C236.285 282.276 236.545 282.224 236.741 282.081C236.936 281.938 237.066 281.69 237.144 281.443C237.222 281.196 237.235 280.935 237.248 280.675C237.261 280.337 237.287 280.024 237.313 279.712C237.34 279.504 237.366 279.282 237.392 279.074C237.431 278.879 237.47 278.683 237.522 278.475C237.704 277.759 237.587 276.926 237.287 276.314H237.274Z" fill="white"/>
<path d="M210.783 239.632C210.614 244.969 220.624 245.06 220.481 240.035C220.286 233.032 219.856 232.238 216.563 231.144C215.665 230.845 214.715 230.623 213.764 230.597C210.289 230.532 211.63 232.303 211.76 233.539C212.15 237.197 210.848 237.705 210.783 239.618V239.632Z" fill="#ECECEC"/>
<path d="M223.933 222.852C224.623 223.959 225.027 225.235 225.014 226.601C225.014 227.187 224.91 227.773 224.714 228.32C224.532 228.84 224.194 229.335 224.194 229.908C224.194 230.572 224.662 231.327 224.884 231.951C225.079 232.524 225.196 233.162 224.962 233.722C224.831 234.047 224.597 234.308 224.415 234.607C223.53 236 224.363 238.044 222.827 239.046C222.436 239.293 221.994 239.345 221.538 239.371C220.965 239.397 218.401 238.681 217.412 238.239C216.318 237.757 215.238 236.508 214.457 235.609C213.832 234.906 212.79 233.995 212.4 233.149C212.283 232.889 212.569 232.837 212.309 232.706C212.153 232.628 211.957 231.6 211.775 231.587C211.567 231.561 211.28 231.327 211.098 231.209C210.76 230.975 210.59 231.821 210.473 231.418C209.992 229.726 209.38 228.007 209.458 226.211C209.523 224.584 209.484 223.178 210.538 221.785C211.332 220.744 212.452 219.989 213.676 219.52C215.55 218.804 217.659 218.778 219.559 219.416C221.356 220.028 222.944 221.264 223.946 222.865L223.933 222.852Z" fill="white"/>
<path d="M209.445 226.211C209.51 224.583 209.471 223.178 210.526 221.785C211.32 220.743 212.439 219.988 213.663 219.52C214.782 219.09 215.98 218.921 217.178 218.973C218.961 222.54 216.384 227.096 218.323 230.793C218.974 231.665 220.276 232.316 220.276 233.396C220.705 235.349 218.766 237.08 219.833 239.02C218.935 238.785 217.946 238.46 217.412 238.226C216.318 237.744 215.238 236.494 214.457 235.596C213.832 234.893 212.791 233.982 212.4 233.136C212.283 232.876 212.569 232.823 212.309 232.693C212.153 232.615 211.958 231.587 211.775 231.574C211.567 231.548 211.281 231.313 211.099 231.196C210.76 230.962 210.591 231.808 210.474 231.405C209.992 229.712 209.38 227.994 209.458 226.198L209.445 226.211Z" fill="white"/>
<path d="M217.697 225.403C217.124 225.39 216.005 225.26 215.614 225.781C215.055 226.51 215.484 227.538 215.64 228.332C215.849 229.439 215.992 230.558 216.161 231.665C216.2 231.899 216.226 232.147 216.135 232.368C215.992 232.667 215.601 232.784 215.276 232.732C214.951 232.667 214.664 232.472 214.404 232.264C213.948 231.912 213.519 231.522 213.115 231.118C212.777 230.78 212.399 230.428 211.957 230.858C211.488 231.326 211.514 232.342 211.67 232.941C211.696 233.045 211.917 233.826 211.605 233.826C211.28 233.826 208.442 230.91 208.312 225.937C208.194 221.173 211.488 220.288 211.488 220.288C211.488 220.288 212.946 217.827 216.786 218.01C220.678 218.192 224.271 219.663 226.341 223.152C225.989 224.349 224.857 225.182 223.659 225.508C222.462 225.833 221.186 225.742 219.962 225.599C219.207 225.521 218.452 225.417 217.71 225.39L217.697 225.403Z" fill="#2A2A34"/>
<path d="M212.06 229.491C210.641 229.4 210.29 231.157 211.253 232.511C211.539 232.901 212.034 233.253 212.412 233.578C214.95 235.739 215.588 233.396 214.781 232.667C212.906 230.962 213.844 229.621 212.06 229.504V229.491Z" fill="white"/>
<path d="M212.906 232.85C212.75 232.707 211.136 231.743 212.229 231.105C212.528 230.923 212.867 231.197 212.919 231.509C212.945 231.678 212.893 231.847 212.919 232.017C212.932 232.121 212.971 232.212 213.023 232.29C213.166 232.524 213.661 232.746 213.557 233.084C213.479 233.383 212.997 232.928 212.906 232.85Z" fill="#ECECEC"/>
<path d="M220.638 237.744C220.065 237.562 219.532 237.288 219.011 236.976C218.087 236.416 217.488 236.169 216.746 234.789C216.421 234.19 216.186 232.602 216.108 231.418C216.056 230.611 214.741 229.074 214.143 228.749C213.453 228.372 213.544 230.715 213.596 231.053C213.908 233.006 213.869 233.006 214.104 234.073C214.338 235.193 214.195 234.633 214.481 235.739C214.637 236.351 215.405 237.783 215.653 238.369C215.926 239.02 216.29 239.645 216.733 240.191C217.592 241.272 218.725 242.014 220.026 242.482C221.198 242.912 222.656 243.055 223.45 241.884C223.893 241.22 224.127 240.426 224.14 239.632C224.14 238.981 223.984 238.291 223.814 237.666C223.437 238.004 223.085 237.978 222.591 238.004C221.94 238.03 221.289 237.952 220.664 237.757L220.638 237.744Z" fill="#2A2A34"/>
<path d="M408.824 221.403L404.518 218.149L413.179 210.031L417.484 213.269L408.824 221.403Z" fill="#242940"/>
<path d="M355.777 192.218C355.054 194.469 354.841 196.572 355.169 198.38C355.498 200.188 355.202 204.986 355.35 206.548C355.498 208.109 357.125 209.013 358.39 208.947C359.672 208.898 360.839 207.649 361.365 205.874C361.891 204.099 362.926 197.098 362.4 195.192C361.874 193.269 355.794 192.201 355.794 192.201L355.777 192.218Z" fill="white"/>
<path d="M357.109 204.954C356.419 205.398 355.433 205.085 355.351 206.548C355.268 208.011 357.684 218.511 357.799 219.974C357.914 221.437 357.914 224.773 358.341 225.66C358.769 226.547 359.59 228.667 360.166 228.684H360.724C360.724 228.684 361.086 229.275 361.349 229.308C361.612 229.341 363.058 228.289 363.058 228.289C363.058 228.289 364.652 226.498 364.75 225.479C364.849 224.46 364.142 221.19 363.797 220.829C363.452 220.467 362.022 216.342 361.776 214.798C361.546 213.253 360.724 205.283 360.724 205.283L357.109 204.938V204.954Z" fill="white"/>
<path d="M365.654 179.745C363.288 178.43 360.445 178.611 359.212 179.367C358.21 179.991 357.536 181.7 356.517 185.677C355.498 189.654 354.792 193.006 354.693 194.502C354.595 195.997 358.078 198.134 360.198 198.002C362.318 197.871 365.638 179.728 365.638 179.728L365.654 179.745Z" fill="#0E1A68"/>
<path d="M383.154 205.578C383.088 205.956 382.99 207.846 383.631 208.848C384.255 209.851 389.727 216.391 391.009 217.048C392.291 217.706 396.449 214.468 395.643 212.661C394.855 210.837 389.957 202.242 388.988 201.47C388.018 200.681 383.154 205.594 383.154 205.594V205.578Z" fill="white"/>
<path d="M391.109 213.745C391.109 213.745 390.206 216.128 391.011 216.851C391.816 217.591 393.279 219.366 406.08 220.417C408.217 221.469 408.167 221.469 408.89 221.305C409.597 221.14 410.271 221.108 410.271 221.108C410.271 221.108 411.125 220.713 411.848 220.549C412.555 220.385 412.588 219.3 412.588 219.3C412.588 219.3 413.163 218.791 413.278 218.478C413.377 218.15 412.423 216.851 412.341 216.851C412.259 216.851 410.287 215.865 410.287 215.865C410.287 215.865 407.839 216.26 407.247 216.441C406.655 216.605 403.566 215.504 402.399 214.945C401.232 214.386 396.943 211.313 395.119 211.297C393.295 211.297 391.109 213.745 391.109 213.745Z" fill="white"/>
<path d="M411.206 214.452C411.206 214.452 411.141 214.452 411.075 214.485C410.516 214.633 408.429 215.323 408.429 215.323C408.429 215.323 407.344 216.276 407.328 216.523C407.328 216.769 407.936 217.377 408.889 217.377C409.826 217.377 411.14 216.408 411.14 216.408L413.589 215.849C413.589 215.849 414.131 215.011 413.967 214.797C413.803 214.584 412.882 214.501 412.882 214.501L411.19 214.452H411.206Z" fill="white"/>
<path d="M360.707 280.301C360.938 281.566 360.445 283.078 360.149 284.573C359.853 286.052 359.36 287.285 360.494 287.926C361.628 288.55 365.292 288.714 366.837 287.466C368.382 286.233 370.042 284.705 370.042 284.705C370.042 284.705 373.986 282.848 374.988 281.862C375.991 280.892 374.988 278.723 374.988 278.723C374.988 278.723 372.129 277.983 371.356 277.951C370.584 277.918 367.609 279.824 367.609 279.824L365.062 278.559L360.74 280.317L360.707 280.301Z" fill="#293896"/>
<path d="M371.981 286.923C372.129 288.09 371.669 290.966 371.767 291.985C371.866 293.004 371.833 293.973 372.918 294.4C374.002 294.828 377.848 294.17 378.292 293.957C378.735 293.727 387.79 289.717 387.79 289.717C387.79 289.717 387.987 288.369 387.872 287.597C387.757 286.825 385.752 285.083 384.931 285.362C384.092 285.641 379.146 286.315 378.752 286.299C378.374 286.299 377.881 285.198 377.7 285.017C377.519 284.836 371.965 286.923 371.965 286.923H371.981Z" fill="#293896"/>
<path d="M360.708 279.085C360.938 280.35 359.689 282.273 359.772 283.785C359.854 285.296 359.344 286.069 360.478 286.693C361.612 287.318 365.277 287.482 366.821 286.233C368.366 285.001 370.026 283.472 370.026 283.472C370.026 283.472 373.97 281.615 374.972 280.629C375.975 279.643 374.972 277.491 374.972 277.491C374.972 277.491 372.113 276.751 371.341 276.718C370.568 276.685 367.594 278.592 367.594 278.592L365.047 277.326L360.725 279.085H360.708Z" fill="#0E1A68"/>
<path d="M371.981 285.707C372.129 286.874 371.669 289.75 371.767 290.769C371.866 291.788 371.833 292.757 372.918 293.185C374.002 293.612 377.848 292.955 378.292 292.741C378.735 292.511 387.79 288.501 387.79 288.501C387.79 288.501 387.987 287.154 387.872 286.381C387.757 285.609 385.752 283.867 384.931 284.146C384.092 284.426 379.146 285.099 378.752 285.083C378.374 285.083 377.881 283.982 377.7 283.801C377.519 283.62 371.965 285.707 371.965 285.707H371.981Z" fill="#0E1A68"/>
<path d="M360.132 221.535C358.932 224.723 358.045 227.533 358.11 230.721C358.176 233.909 359.557 243.26 359.672 245.051C359.787 246.842 359.852 254.763 360.444 256.768C361.036 258.773 369.811 259.184 370.764 255.503C371.717 251.822 370.304 227.845 369.877 226.514C369.449 225.183 360.132 221.519 360.132 221.519V221.535Z" fill="#293896"/>
<path d="M359.985 252.923C359.179 255.749 358.423 259.759 358.456 262.75C358.489 265.741 359.656 280.597 360.576 281.698C361.496 282.799 365.605 282.684 366.788 281.961C367.971 281.238 368.497 280.252 368.497 280.252C368.497 280.252 370.633 256.735 370.814 255.289C370.995 253.843 360.001 252.939 360.001 252.939L359.985 252.923Z" fill="#293896"/>
<path d="M367.051 281.944C367.051 281.73 367.676 260.055 369.302 255.174C370.962 250.195 367.988 233.942 367.856 233.252L367.33 233.351C367.363 233.515 370.42 250.162 368.793 255.01C367.15 259.956 366.542 281.04 366.509 281.928H367.051V281.944Z" fill="#0E1A68"/>
<path d="M363.057 225.923C362.86 227.271 363.172 234.337 364.618 238.182C366.064 242.028 368.431 242.209 368.809 243.589C369.187 244.953 370.715 261.682 371.652 263.506C372.588 265.33 378.389 266.497 380.033 265.117C381.676 263.736 383.188 263.605 383.484 262.274C383.78 260.926 383.664 241.37 383.369 236.868C383.073 232.365 383.237 228.372 381.906 225.66C380.575 222.949 363.057 225.94 363.057 225.94V225.923Z" fill="#5B68B7"/>
<path d="M370.141 241.88L370.256 241.83C370.963 241.568 373.313 240.664 373.625 239.957C373.921 239.267 373.461 234.994 373.362 234.14L373.329 233.926L373.115 233.893C367.314 233.17 364.932 232.316 364.915 232.299L364.471 232.135L364.554 232.595C364.767 233.975 365.507 238.511 365.835 239.004C366.164 239.497 369.122 241.255 370.026 241.798L370.141 241.863V241.88ZM372.836 234.435C373.099 236.802 373.28 239.382 373.115 239.743C372.967 240.072 371.505 240.779 370.19 241.272C368.399 240.204 366.476 238.987 366.296 238.725C366.115 238.429 365.589 235.619 365.162 232.989C366.065 233.269 368.448 233.877 372.836 234.435Z" fill="#0E1A68"/>
<path d="M359.968 238.231H360.133C360.478 238.166 362.055 236.818 362.285 236.309C362.516 235.799 361.957 231.806 361.71 230.13V229.965L361.53 229.916C361.513 229.916 359.278 229.127 358.259 227.435L357.783 227.714C358.752 229.324 360.626 230.163 361.201 230.376C361.579 232.956 361.891 235.766 361.792 236.111C361.661 236.407 360.675 237.262 360.231 237.574C359.87 236.834 358.818 234.501 358.604 233.844L358.078 234.008C358.309 234.698 359.771 237.952 359.903 238.116L360.001 238.231H359.968Z" fill="#0E1A68"/>
<path d="M371.85 253.909C371.39 255.865 371.324 259.447 371.225 261.978C371.127 264.509 370.716 285.165 371.34 287.45C375.432 291.082 380.905 286.102 380.905 286.102C380.905 286.102 383.337 263.999 383.517 262.027C383.698 260.055 371.85 253.909 371.85 253.909Z" fill="#5B68B7"/>
<path d="M379.162 287.203C379.162 287.203 381.084 268.732 381.775 262.043C382.465 255.404 380.657 227.829 380.641 227.55L380.115 227.583C380.131 227.862 381.939 255.404 381.249 261.994C380.559 268.683 378.636 287.154 378.636 287.154L379.162 287.203Z" fill="#0E1A68"/>
<path d="M368.825 180.813C366.41 179.942 363.238 178.134 360.756 179.613C358.719 180.813 356.451 186.039 357.092 193.22C357.634 199.317 358.127 208.799 358.439 210.968C358.752 213.154 357.831 224.427 358.045 226.974C358.259 229.521 363.55 231.904 366.837 232.479C370.124 233.055 373.525 233.433 378.735 232.2C383.928 230.968 383.813 228.798 383.813 228.798C383.813 228.798 382.909 215.537 382.942 212.283C382.974 209.029 385.916 195.899 385.916 195.899C385.916 195.899 385.489 191.445 384.388 190.278C383.287 189.112 376.615 184.708 376.056 184.313C375.497 183.919 368.825 180.813 368.825 180.813Z" fill="#293896"/>
<path d="M383.862 190.032C382.35 189.769 378.439 191.806 378.11 194.534C377.518 199.596 382.531 207.78 383.122 208.963C383.697 210.163 391.832 206.219 391.372 204.509C390.912 202.8 386.59 190.492 383.878 190.032H383.862Z" fill="#0E1A68"/>
<path d="M376.598 184.987C376.713 184.281 376.943 183.163 377.239 182.736C377.534 182.325 380.065 182.917 380.87 182.851C381.676 182.785 382.76 178.085 382.76 178.085C382.76 178.085 384.469 177.625 384.584 177.149C384.699 176.672 384.091 173.78 384.091 173.78C384.091 173.78 385.439 169.146 385.307 168.439C385.192 167.732 377.469 163.624 377.469 163.624C377.469 163.624 370.912 168.39 370.386 171.397C369.86 174.404 369.088 177.067 368.578 178.184C368.069 179.301 367.247 181.405 366.82 181.865C366.393 182.325 368.43 183.229 371.158 183.689C373.886 184.149 376.598 184.987 376.598 184.987Z" fill="white"/>
<path d="M379.589 173.993C379.425 173.566 379.244 173.451 378.357 173.96C377.469 174.47 377.289 175.521 376.943 176.425C376.598 177.329 374.281 177.904 373.197 178.331C372.112 178.759 369.138 177.707 369.138 177.707C369.138 177.707 368.316 172.974 368.283 170.706C368.25 168.439 367.576 162.26 374.002 161.668C379.293 159.745 385.242 164.511 385.965 166.45C386.688 168.389 385.834 170.805 385.834 170.805C385.834 170.805 384.864 171.051 384.437 171.331C384.01 171.61 383.352 172.07 383.205 172.531C383.057 172.991 381.611 176.277 381.611 176.277L380.066 176.097L379.606 173.993H379.589Z" fill="#C74C31"/>
<path d="M379.278 172.99C379.278 172.99 378.916 172.99 378.357 173.96C377.799 174.929 377.24 178.035 377.946 178.265C378.653 178.495 379.36 177.181 379.393 177.066C379.425 176.967 379.984 174.009 379.918 173.5C379.853 172.99 379.261 172.99 379.261 172.99H379.278Z" fill="white"/>
</svg>
