<svg width="705" height="468" viewBox="0 0 705 468" fill="none" xmlns="http://www.w3.org/2000/svg">
<rect width="705" height="468" fill="#E0E6F9"/>
<path d="M350.339 389.172L251.541 329.724C244.589 325.535 245.455 318.236 253.492 313.401L387.385 232.835C395.409 228 407.555 227.474 414.507 231.663L513.305 291.111C520.257 295.3 519.391 302.599 511.354 307.434L377.461 388.001C369.437 392.836 357.291 393.361 350.339 389.172Z" fill="#CAE5FF"/>
<g opacity="0.13" style="mix-blend-mode:multiply">
<path d="M365.064 186.378L376.478 186.183L383.475 196.834C383.475 196.834 386.43 199.213 385.037 200.861C383.752 202.396 378.129 202.303 378.129 202.303L382.27 211.42C382.27 211.42 382.447 213.727 380.155 212.573C377.852 211.42 375.549 206.238 375.549 206.238C375.549 206.238 365.143 206.815 360.448 205.466C357.256 204.549 354.183 199.131 354.183 199.131C354.183 199.131 351.791 198.657 351.425 199.8C351.06 200.954 350.23 202.005 347.196 201.623C344.152 201.242 342.571 200.593 341.207 199.028C340.278 197.977 339.823 190.396 365.054 186.368L365.064 186.378Z" fill="#231F20"/>
</g>
<g style="mix-blend-mode:multiply" opacity="0.46">
<path d="M211.069 287.253C206.919 289.715 206.899 294.216 211.484 296.998L252.863 321.854C257.449 324.635 264.911 324.635 269.526 321.854L405.809 240.869C410.424 238.087 410.454 233.576 405.868 230.805L364.489 205.949C359.904 203.168 352.442 203.168 347.362 206.268L211.089 287.253H211.069Z" fill="#5E6670"/>
</g>
<path d="M298.266 203.034L285.893 195.494L282.454 232.938L298.375 242.569L298.266 203.034Z" fill="#B7B060"/>
<path d="M287.367 192.569C292.289 189.602 297.546 186.398 302.863 183.205C323.686 170.669 334.162 168.537 346.377 166.415C355.973 164.746 362.367 168.65 362.367 168.65C357.643 165.787 336.049 178.209 315.226 190.735C309.91 193.939 304.652 197.142 299.73 200.099C299.523 200.222 299.335 200.397 299.167 200.593L286.804 193.053C286.972 192.847 287.159 192.682 287.367 192.558V192.569Z" fill="#A3BAFF"/>
<path d="M299.166 200.604L286.803 193.063C286.565 193.342 286.368 193.682 286.22 194.042L298.593 201.582C298.741 201.222 298.948 200.882 299.176 200.604H299.166Z" fill="#8096D8"/>
<path d="M298.582 201.582L286.209 194.042C286.001 194.526 285.883 195.051 285.893 195.505L298.266 203.045C298.266 202.592 298.384 202.077 298.582 201.592V201.582Z" fill="#8096D8"/>
<path d="M315.234 190.736C309.917 193.939 304.66 197.143 299.738 200.099C298.878 200.624 298.256 202.005 298.266 203.035L298.374 242.569L365.992 201.871C365.992 200.748 365.834 179.508 363.225 169.804C361.545 163.552 337.935 177.077 315.224 190.736H315.234Z" fill="#778ED3"/>
<path d="M268.844 203.673C274.151 200.479 279.428 197.348 284.34 194.381C284.716 194.155 285.052 194.155 285.299 194.299L297.672 201.839C297.415 201.684 297.089 201.685 296.703 201.921C291.782 204.878 286.514 208.009 281.207 211.213C262.588 222.42 243.356 234.451 236.132 242.97L226.585 237.717C233.81 229.198 250.215 214.88 268.834 203.673H268.844Z" fill="#A3BAFF"/>
<path d="M236.141 242.959L226.594 237.706C225.447 239.055 224.598 240.322 224.113 241.486L233.66 246.74C234.154 245.586 234.994 244.319 236.141 242.959Z" fill="#8096D8"/>
<path d="M233.672 246.74L224.125 241.486C223.937 241.929 223.799 242.352 223.72 242.764C221.17 255.578 219.115 267.104 221.595 272.162C223.7 276.427 230.687 283.308 230.687 283.308C230.687 282.185 230.717 260.831 233.267 248.027C233.346 247.615 233.484 247.183 233.672 246.75V246.74Z" fill="#6477B1"/>
<path d="M281.217 211.212C258.517 224.871 234.897 239.777 233.266 248.028C230.717 260.842 230.687 282.185 230.687 283.308L298.305 242.609L298.196 203.075C298.196 202.045 297.573 201.406 296.714 201.921C291.792 204.878 286.524 208.009 281.217 211.212Z" fill="#778ED3"/>
<path d="M289.031 292.971L287.44 292.013C287.341 291.951 287.213 291.961 287.065 292.054L288.656 293.022C288.804 292.929 288.942 292.919 289.031 292.981V292.971Z" fill="#A6A38B"/>
<path d="M267.014 318.795L265.423 317.837C265.334 318.136 265.393 318.383 265.542 318.476L267.133 319.444C266.985 319.351 266.925 319.104 267.014 318.805V318.795Z" fill="#2C40C0"/>
<path d="M288.648 293.012L287.057 292.044L270.326 302.118L271.917 303.076L288.648 293.012Z" fill="#999782"/>
<path d="M271.434 303.756L269.842 302.798L265.425 317.837L267.016 318.795L271.434 303.756Z" fill="#1D2B83"/>
<path d="M271.918 303.076L270.327 302.107C270.248 302.149 270.169 302.221 270.09 302.313L271.681 303.271C271.75 303.189 271.829 303.117 271.918 303.065V303.076Z" fill="#A6A38B"/>
<path d="M271.691 303.281L270.1 302.323C270.021 302.416 269.942 302.54 269.893 302.663L271.484 303.621C271.533 303.498 271.602 303.384 271.691 303.281Z" fill="#DCDBD1"/>
<path d="M271.482 303.622L269.891 302.664C269.891 302.664 269.862 302.757 269.852 302.798L271.443 303.756C271.443 303.756 271.472 303.663 271.492 303.622H271.482Z" fill="#A6A38B"/>
<path d="M271.917 303.076C271.709 303.199 271.511 303.467 271.422 303.756L267.005 318.795C266.886 319.186 267.015 319.485 267.291 319.464C267.361 319.464 267.43 319.433 267.499 319.392C267.707 319.269 267.894 319.001 267.983 318.713L272.262 304.147L288.638 294.289C288.935 294.114 289.172 293.682 289.172 293.331C289.172 292.971 288.935 292.837 288.638 293.012L271.907 303.076H271.917Z" fill="#131B4F"/>
<path d="M405.649 235.883L404.058 234.915C404.078 234.977 404.117 235.018 404.167 235.049L405.758 236.017C405.758 236.017 405.669 235.945 405.649 235.883Z" fill="#A6A38B"/>
<path d="M401.3 226.5L399.709 225.531L404.057 234.915L405.648 235.884L401.3 226.5Z" fill="#070A1E"/>
<path d="M402.033 224.965L400.442 224.007C400.343 223.945 400.205 223.955 400.066 224.048L401.658 225.016C401.806 224.923 401.944 224.913 402.043 224.975L402.033 224.965Z" fill="#A6A38B"/>
<path d="M401.648 225.006L400.067 224.048L383.336 234.112L384.927 235.07L401.648 225.006Z" fill="#999782"/>
<path d="M384.926 235.07L383.335 234.112C383.246 234.164 383.176 234.236 383.097 234.318L384.689 235.287C384.758 235.204 384.837 235.132 384.926 235.081V235.07Z" fill="#A6A38B"/>
<path d="M384.688 235.287L383.096 234.318C383.017 234.421 382.948 234.535 382.889 234.648L384.48 235.616C384.529 235.493 384.599 235.379 384.688 235.287Z" fill="#DCDBD1"/>
<path d="M384.489 235.616L382.898 234.647C382.839 234.781 382.809 234.926 382.809 235.07C382.809 235.245 382.869 235.369 382.967 235.43L384.559 236.388C384.46 236.327 384.4 236.203 384.4 236.028C384.4 235.894 384.44 235.75 384.499 235.605L384.489 235.616Z" fill="#A6A38B"/>
<path d="M384.925 235.07C384.619 235.256 384.392 235.678 384.392 236.028C384.392 236.378 384.639 236.523 384.935 236.347L401.311 226.5L405.649 235.884C405.738 236.069 405.936 236.1 406.144 235.977C406.213 235.935 406.292 235.874 406.351 235.802C406.618 235.493 406.737 235.049 406.628 234.792L402.141 225.109C402.062 224.924 401.864 224.893 401.647 225.017L384.925 235.08V235.07Z" fill="#131B4F"/>
<path d="M251.27 271.143L249.678 270.175C249.58 270.113 249.441 270.123 249.303 270.216L250.894 271.184C251.042 271.102 251.181 271.091 251.27 271.143Z" fill="#A6A38B"/>
<path d="M229.26 296.967L227.669 295.999C227.58 296.298 227.64 296.545 227.788 296.638L229.379 297.596C229.231 297.503 229.181 297.266 229.26 296.957V296.967Z" fill="#2C40C0"/>
<path d="M250.895 271.174L249.303 270.216L232.572 280.28L234.163 281.248L250.895 271.174Z" fill="#999782"/>
<path d="M233.68 281.928L232.089 280.96L227.671 295.999L229.262 296.967L233.68 281.928Z" fill="#1D2B83"/>
<path d="M234.164 281.248L232.573 280.279C232.494 280.331 232.405 280.403 232.336 280.485L233.927 281.454C233.996 281.371 234.075 281.299 234.164 281.248Z" fill="#A6A38B"/>
<path d="M233.935 281.454L232.344 280.485C232.255 280.588 232.186 280.702 232.137 280.825L233.738 281.794C233.787 281.67 233.856 281.557 233.945 281.454H233.935Z" fill="#DCDBD1"/>
<path d="M233.73 281.783L232.129 280.814C232.129 280.814 232.1 280.907 232.09 280.948L233.681 281.917C233.681 281.917 233.711 281.824 233.73 281.783Z" fill="#A6A38B"/>
<path d="M234.164 281.248C233.957 281.371 233.759 281.639 233.68 281.928L229.262 296.967C229.154 297.358 229.272 297.657 229.549 297.636C229.618 297.636 229.687 297.605 229.757 297.564C229.964 297.441 230.162 297.173 230.251 296.884L234.53 282.319L250.916 272.461C251.212 272.286 251.449 271.853 251.449 271.503C251.449 271.153 251.202 271.009 250.916 271.184L234.184 281.258L234.164 281.248Z" fill="#131B4F"/>
<path d="M367.895 214.045L366.304 213.077C366.334 213.139 366.373 213.18 366.413 213.201L368.004 214.169C368.004 214.169 367.925 214.097 367.895 214.035V214.045Z" fill="#A6A38B"/>
<path d="M363.55 204.662L361.959 203.704L366.297 213.088L367.898 214.046L363.55 204.662Z" fill="#7F7D70"/>
<path d="M364.281 203.137L362.69 202.169C362.591 202.107 362.453 202.117 362.305 202.21L363.896 203.168C364.044 203.086 364.182 203.065 364.271 203.127L364.281 203.137Z" fill="#A6A38B"/>
<path d="M363.895 203.178L362.303 202.21L345.582 212.274L347.163 213.242L363.895 203.178Z" fill="#999782"/>
<path d="M347.162 213.242L345.581 212.273C345.492 212.325 345.413 212.397 345.344 212.48L346.935 213.448C347.004 213.365 347.093 213.293 347.172 213.242H347.162Z" fill="#A6A38B"/>
<path d="M346.934 213.448L345.342 212.479C345.254 212.583 345.194 212.696 345.135 212.809L346.726 213.777C346.775 213.654 346.855 213.54 346.934 213.448Z" fill="#DCDBD1"/>
<path d="M346.728 213.777L345.137 212.809C345.077 212.943 345.048 213.097 345.048 213.231C345.048 213.406 345.107 213.53 345.206 213.591L346.797 214.549C346.708 214.488 346.649 214.364 346.649 214.189C346.649 214.055 346.688 213.911 346.738 213.767L346.728 213.777Z" fill="#A6A38B"/>
<path d="M347.163 213.242C346.867 213.417 346.63 213.84 346.64 214.2C346.64 214.55 346.877 214.695 347.173 214.52L363.549 204.662L367.887 214.046C367.976 214.231 368.174 214.262 368.382 214.139C368.451 214.097 368.53 214.035 368.589 213.963C368.856 213.654 368.984 213.211 368.866 212.954L364.379 203.271C364.3 203.086 364.102 203.055 363.885 203.189L347.153 213.253L347.163 213.242Z" fill="#7C7A6D"/>
<path d="M403.98 217.331L366.851 194.845C364.024 197.863 363.679 199.356 363.076 200.768L400.205 223.254C400.798 221.833 401.154 220.349 401.154 218.979L403.98 217.331Z" fill="#989547"/>
<path d="M400.206 223.254L363.077 200.768C362.543 202.024 361.812 203.229 363.788 202.591L400.918 225.077C398.951 225.716 399.673 224.511 400.206 223.254Z" fill="#989547"/>
<path d="M400.906 225.078L363.777 202.591C360.229 205.094 359.418 205.825 358.559 206.34L395.688 228.827C396.548 228.312 397.358 227.591 398.08 226.736L400.906 225.088V225.078Z" fill="#989547"/>
<path d="M401.144 216.426L364.015 193.929L366.851 194.845L403.98 217.332L401.144 216.426Z" fill="#989547"/>
<path d="M399.544 212.769L362.414 190.282C363.392 190.88 364.005 192.136 364.015 193.939L401.145 216.426C401.145 214.623 400.532 213.366 399.544 212.769Z" fill="#989547"/>
<path d="M406.551 197.935L369.421 175.449C369.184 175.304 368.848 175.325 368.482 175.541L405.612 198.028C405.978 197.812 406.314 197.791 406.551 197.935Z" fill="#8096D8"/>
<path d="M395.691 228.828L358.562 206.341L242.113 276.417L279.243 298.904L395.691 228.828Z" fill="#D2DDFF"/>
<path d="M399.25 213.304L362.13 190.818C361.182 190.251 359.877 190.323 358.424 191.199C354.55 193.527 310.809 219.835 302.142 225.047L339.272 247.534C347.939 242.311 391.68 216.013 395.554 213.685C396.997 212.82 398.311 212.738 399.25 213.304Z" fill="#A3BAFF"/>
<path d="M387.883 216.075L350.754 193.588C350.754 194.082 350.922 194.433 351.199 194.597L388.328 217.084C388.051 216.919 387.883 216.569 387.883 216.075Z" fill="#D2DDFF"/>
<path d="M387.873 210.337L350.743 187.851L350.753 193.578L387.883 216.075L387.873 210.337Z" fill="#7085C6"/>
<path d="M405.613 198.028L368.484 175.541L352.049 185.481L389.178 207.968L405.613 198.028Z" fill="#A3BAFF"/>
<path d="M350.969 186.821C351.098 186.512 351.275 186.233 351.473 185.986C351.641 185.78 351.839 185.605 352.046 185.481L389.176 207.968C388.968 208.092 388.771 208.267 388.603 208.473C388.395 208.72 388.217 209.008 388.099 209.307C387.96 209.647 387.871 210.008 387.871 210.337L350.742 187.851C350.742 187.521 350.821 187.161 350.969 186.821Z" fill="#7085C6"/>
<path d="M337.737 261.563L300.607 239.076C300.607 239.334 300.657 239.55 300.736 239.725C300.815 239.89 300.924 240.014 301.062 240.096L338.191 262.583C338.053 262.5 337.944 262.377 337.865 262.212C337.786 262.037 337.737 261.82 337.737 261.563Z" fill="#304A7C"/>
<path d="M337.709 250.315L300.579 227.828L300.609 239.077L337.738 261.563L337.709 250.315Z" fill="#304A7C"/>
<path d="M340.269 247.534C339.409 248.049 338.718 249.285 338.708 250.315L338.737 261.563C338.737 261.821 338.787 262.037 338.866 262.212C339.113 262.727 339.666 262.851 340.299 262.47L396.581 228.58C399.457 226.85 401.779 222.657 401.769 219.217V216.775C401.75 213.335 399.417 211.944 396.542 213.675C392.668 216.003 348.926 242.311 340.259 247.523L340.269 247.534Z" fill="#A3BAFF"/>
<path d="M339.27 247.533L302.14 225.047C301.903 225.191 301.666 225.397 301.458 225.644L338.588 248.131C338.795 247.884 339.022 247.678 339.27 247.533Z" fill="#8096D8"/>
<path d="M338.578 248.131L301.449 225.645C301.202 225.933 300.994 226.283 300.846 226.633L337.975 249.12C338.133 248.76 338.341 248.42 338.578 248.131Z" fill="#8096D8"/>
<path d="M337.977 249.119L300.847 226.633C300.679 227.024 300.58 227.446 300.58 227.828L337.71 250.314C337.71 249.923 337.809 249.511 337.977 249.119Z" fill="#8096D8"/>
<path d="M337.074 249.398L299.945 226.912C299.658 226.737 299.273 226.768 298.838 227.025L335.967 249.512C336.402 249.254 336.788 249.223 337.074 249.398Z" fill="#D2DDFF"/>
<path d="M279.24 298.904L242.12 276.417C240.599 277.334 239.215 277.416 238.227 276.808L275.356 299.295C276.344 299.903 277.728 299.82 279.25 298.904H279.24Z" fill="#EEEF8C"/>
<path d="M279.24 298.904L242.12 276.417C240.599 277.334 239.215 277.416 238.227 276.808L275.356 299.295C276.344 299.903 277.728 299.82 279.25 298.904H279.24Z" fill="#EEEF8C"/>
<path d="M279.24 298.904L242.12 276.417C240.599 277.334 239.215 277.416 238.227 276.808L275.356 299.295C276.344 299.903 277.728 299.82 279.25 298.904H279.24Z" fill="#989547"/>
<path d="M273.974 295.525L236.845 273.038C236.845 274.748 237.428 275.943 238.367 276.52L275.496 299.006C274.567 298.44 273.984 297.235 273.984 295.525H273.974Z" fill="#C9CA7D"/>
<path d="M267.786 305.775L230.657 283.288C230.657 283.721 230.805 284.019 231.042 284.174L268.172 306.661C267.935 306.516 267.786 306.207 267.786 305.775Z" fill="#536290"/>
<path d="M335.969 249.511L298.839 227.024C292.979 230.547 248.694 257.216 242.023 261.233C241.203 261.728 240.442 262.418 239.75 263.232L276.88 285.718C277.562 284.905 278.342 284.214 279.153 283.72C285.824 279.703 330.108 253.044 335.969 249.511Z" fill="#A3BAFF"/>
<path d="M276.879 285.718L239.749 263.231C238.939 264.2 238.247 265.333 237.733 266.528L274.863 289.014C275.367 287.819 276.059 286.676 276.879 285.718Z" fill="#F0F18D"/>
<path d="M274.863 289.015L237.734 266.528C237.161 267.878 236.834 269.289 236.834 270.597L273.964 293.084C273.964 291.776 274.29 290.364 274.863 289.015Z" fill="#F0F18D"/>
<path d="M283.066 272.111L245.917 249.336C245.68 249.192 245.374 249.501 244.998 249.717L282.128 272.204C282.493 271.987 282.819 271.967 283.066 272.111Z" fill="#8096D8"/>
<path d="M273.963 293.083L236.833 270.597L236.843 273.038L273.973 295.525L273.963 293.083Z" fill="#C9CA7D"/>
<path d="M335.399 250.195C329.538 253.718 285.254 280.387 278.583 284.404C275.707 286.134 273.385 290.327 273.395 293.767V296.209C273.414 299.649 275.747 301.04 278.623 299.309L335.439 265.141C336.081 264.76 336.634 263.957 336.872 263.153C336.951 262.886 337 262.608 337 262.35L336.98 251.235C336.97 250.185 336.249 249.69 335.399 250.205V250.195Z" fill="#A3BAFF"/>
<path d="M267.738 282.546L230.608 260.06L230.667 283.257L267.797 305.744L267.738 282.546Z" fill="#6477B0"/>
<path d="M282.129 272.204L244.999 249.717L231.915 257.721L269.044 280.218L282.129 272.204Z" fill="#A3BAFF"/>
<path d="M269.043 280.218C268.311 280.651 267.718 281.711 267.728 282.587L267.788 305.784C267.788 306.66 268.381 307.01 269.112 306.567L269.527 306.32L405.682 224.377C406.413 223.945 406.996 222.873 406.996 222.008L406.937 198.811C406.937 197.945 406.344 197.585 405.612 198.028L389.187 207.968C388.456 208.411 387.873 209.472 387.873 210.337V216.075C387.893 217.074 388.575 217.476 389.415 216.971L395.661 213.16C398.685 211.336 401.136 212.799 401.155 216.425V218.98C401.175 222.595 398.734 227.014 395.71 228.827L279.261 298.903C276.237 300.727 273.786 299.264 273.776 295.638V293.073C273.757 289.458 276.198 285.049 279.222 283.226L281.979 281.433C282.799 280.939 283.491 279.754 283.491 278.765C283.491 276.54 283.471 273.162 283.471 272.987C283.471 272.121 282.879 271.761 282.157 272.204L269.072 280.218H269.043Z" fill="#A3BAFF"/>
<path d="M269.041 280.218L231.911 257.731C231.704 257.855 231.506 258.03 231.338 258.236L268.468 280.723C268.646 280.517 268.843 280.342 269.051 280.218H269.041Z" fill="#8096D8"/>
<path d="M268.457 280.723L231.328 258.236C231.12 258.484 230.952 258.772 230.824 259.071L267.953 281.557C268.082 281.259 268.259 280.97 268.457 280.723Z" fill="#8096D8"/>
<path d="M267.953 281.557L230.824 259.07C230.675 259.41 230.596 259.771 230.596 260.1L267.726 282.587C267.726 282.257 267.815 281.897 267.953 281.557Z" fill="#8096D8"/>
<path d="M309.521 195.144C318.366 185.997 328.358 182.67 336.976 177.488C344.032 173.244 345.07 170.288 352.284 169.464C355.486 169.104 364.242 175.006 364.242 175.006C359.637 176.726 352.729 179.425 345.672 183.669C337.055 188.85 326.48 195.958 319.088 201.901C318.95 202.015 318.88 202.272 318.683 202.303C315.51 202.849 309.126 195.556 309.126 195.556C309.255 195.401 309.403 195.288 309.531 195.154L309.521 195.144Z" fill="#D2DDFF"/>
<path d="M320.341 202.334C320.341 198.976 309.114 195.546 309.114 195.546C308.818 195.906 308.551 196.37 308.323 196.926C308.323 196.926 317.416 207.217 320.479 206.176C321.023 205.991 320.351 202.334 320.351 202.334H320.341Z" fill="#A3BAFF"/>
<path d="M320.075 204.116C320.075 200.758 308.325 196.926 308.325 196.926C305.765 203.055 307.257 219.917 309.876 221.318L321.014 228.065C318.395 226.664 321.133 214.406 321.133 206.856L320.075 204.116Z" fill="#6477B0"/>
<path d="M345.365 183.143C352.422 178.899 359.844 172.678 364.232 174.995C365.368 175.675 366.09 178.219 366.445 181.505C366.04 179.497 365.437 178.034 364.617 177.539C360.229 175.232 352.797 181.444 345.751 185.687C337.143 190.869 320.056 197.523 320.747 203.601C321.518 210.42 319.828 221.339 320.194 227.025C318.445 223.11 319.779 210.214 318.87 202.467C318.148 196.39 336.767 188.314 345.375 183.133L345.365 183.143Z" fill="#A3BAFF"/>
<path d="M320.739 203.611C320.047 197.533 337.124 190.879 345.742 185.698C352.798 181.454 360.22 175.232 364.608 177.55C365.429 178.034 366.041 179.497 366.437 181.516C366.891 185.832 366.713 191.425 366.022 195.793C365.616 198.357 364.391 201.582 360.537 204.116C351.306 210.173 343.351 215.302 335.681 219.917C330.79 222.853 326.006 225.562 321.006 228.086C320.679 227.9 320.403 227.54 320.185 227.045C319.82 221.359 321.51 210.43 320.739 203.621V203.611Z" fill="#778ED3"/>
<path d="M278.462 282.866C285.132 278.848 329.407 252.19 335.278 248.657C336.127 248.142 337.353 248.698 337.521 249.8L337.57 250.377C337.323 250.006 336.562 250.13 336.414 250.222C330.544 253.745 286.269 280.414 279.598 284.431C276.722 286.162 274.4 290.354 274.41 293.795V296.236C274.41 296.936 274.469 297.657 274.657 298.183C273.787 297.596 273.718 296.401 273.718 294.763L273.787 292.188C273.787 288.747 275.596 284.596 278.471 282.866H278.462Z" fill="#D2DDFF"/>
<path d="M337.579 250.573V249.975C337.579 248.945 338.291 247.678 339.151 247.163C345.011 243.63 388.762 217.322 395.433 213.304C396.352 212.748 396.784 212.092 397.5 212C398.578 212 400.085 212.285 400.5 213.5C399.551 212.851 398.062 213.964 396.56 214.87C389.889 218.887 346.128 245.175 340.277 248.718C337.876 250.171 337.688 252.901 337.678 253.931C337.678 253.931 337.53 250.583 337.569 250.562L337.579 250.573Z" fill="#D2DDFF"/>
<path d="M390.342 209.493C389.611 209.936 389.028 210.997 389.028 211.862V217.095C388.395 217.281 387.911 216.869 387.911 216.024L387.891 210.297C387.891 209.421 388.474 208.36 389.206 207.928L405.621 198.059C406.352 197.627 406.945 197.977 406.945 198.842V199.532C406.886 199.563 406.817 199.584 406.758 199.625L390.342 209.493Z" fill="#D2DDFF"/>
<path d="M269.042 280.198L282.127 272.194C282.858 271.751 283.441 272.111 283.441 272.977C283.441 273.018 283.441 273.275 283.441 273.667C283.372 273.698 283.313 273.718 283.244 273.76L270.159 281.763C269.428 282.206 268.845 283.267 268.845 284.132L268.904 306.64C268.271 306.907 267.777 306.557 267.777 305.764L267.718 282.567C267.718 281.701 268.301 280.63 269.032 280.198H269.042Z" fill="#D2DDFF"/>
<mask id="mask0_2067_305888" style="mask-type:luminance" maskUnits="userSpaceOnUse" x="237" y="195" width="85" height="75">
<path d="M237.169 226.644C237.465 227.056 241.379 246.576 241.379 246.576L278.686 269.268C278.686 269.268 278.775 261.501 279.269 261.398C279.754 261.295 321.637 221.771 321.637 221.771L292.107 195.628L237.169 226.654V226.644Z" fill="white"/>
</mask>
<g mask="url(#mask0_2067_305888)">
<path d="M247.644 232.969C256.49 223.822 266.481 220.494 275.089 215.313C282.145 211.069 283.193 208.103 290.397 207.278C293.599 206.908 302.355 212.82 302.355 212.82C297.75 214.53 290.842 217.239 283.786 221.483C275.178 226.665 264.584 233.772 257.201 239.705C257.063 239.819 256.994 240.076 256.796 240.107C253.614 240.653 247.239 233.36 247.239 233.36C247.368 233.206 247.516 233.092 247.644 232.969Z" fill="#D2DDFF"/>
<path d="M258.467 240.149C258.467 236.791 247.241 233.36 247.241 233.36C246.944 233.721 246.677 234.185 246.45 234.741C246.45 234.741 255.542 245.031 258.606 243.991C259.149 243.805 256.511 240.468 256.807 240.107L258.467 240.149Z" fill="#A3BAFF"/>
<path d="M258.21 241.93C258.21 238.572 246.45 234.74 246.45 234.74C243.89 240.869 245.382 257.742 248.001 259.143L259.139 265.89C256.52 264.489 259.258 252.231 259.258 244.681L258.2 241.93H258.21Z" fill="#6477B0"/>
<path d="M283.49 220.968C290.547 216.724 297.969 210.503 302.357 212.82C303.503 213.5 304.215 216.045 304.57 219.33C304.165 217.322 303.562 215.859 302.742 215.365C298.354 213.047 290.932 219.269 283.866 223.523C275.258 228.704 258.171 235.348 258.863 241.426C259.643 248.245 257.943 259.164 258.309 264.85C256.55 260.935 257.894 248.039 256.975 240.303C256.253 234.226 274.873 226.15 283.48 220.968H283.49Z" fill="#A3BAFF"/>
<path d="M258.862 241.425C258.17 235.348 275.247 228.694 283.865 223.523C290.921 219.279 298.353 213.057 302.741 215.364C303.571 215.848 304.164 217.311 304.569 219.33C305.024 223.646 304.846 229.24 304.154 233.607C303.749 236.172 302.514 239.396 298.669 241.93C289.439 247.987 281.483 253.117 273.814 257.731C268.922 260.667 264.139 263.376 259.148 265.9C258.812 265.725 258.545 265.364 258.328 264.86C257.962 259.174 259.652 248.255 258.881 241.436L258.862 241.425Z" fill="#778ED3"/>
</g>
<g opacity="0.46" style="mix-blend-mode:multiply">
<path d="M266.448 219.386C271.759 216.718 272.192 210.154 282.02 212.26C283.763 213.267 288.209 225.095 288.01 227.868C287.905 229.272 286.431 230.84 286.162 233.227C285.846 236.07 286.021 238.831 288.935 240.434C289.075 240.516 291.556 241.019 291.895 241.171C289.941 243.359 288.034 246.038 286.092 248.401C291.813 248.647 299.359 249.068 303.501 249.103C303.501 249.045 303.478 248.998 303.454 248.94C302.249 244.798 314.675 237.006 316.757 245.02C317.822 249.092 318.536 252.964 319.191 256.896L329.522 282.308C329.522 282.308 331.92 285.935 334.681 287.163C335.091 287.339 336.401 287.748 337.899 288.181C339.139 288.368 342.766 288.942 345.457 289.679C348.031 290.392 349.142 291.937 349.142 291.937C349.318 292.253 349.517 292.826 349.47 293.458C349.505 293.61 349.529 293.762 349.552 293.902C349.774 295.494 348.546 296.313 347.083 297.015C344.79 298.114 335.992 297.295 332.002 296.582C330.376 296.289 329.92 295.575 329.604 294.827C329.604 294.827 329.604 294.827 329.604 294.815C329.58 294.757 329.557 294.698 329.533 294.628C326.433 293.668 322.806 292.007 320.185 290.556C318.103 289.41 318.173 288.228 318.103 287.058C318.068 286.555 318.29 286.227 318.559 285.993C317.869 284.695 317.412 282.53 317.412 282.53C317.412 282.53 313.598 276.013 310.24 268.736C309.012 266.735 308.041 264.91 307.549 263.588C306.719 261.412 303.349 259.704 302.436 259.633C299.371 259.399 291.134 261.096 288.221 261.283C282.441 261.657 273.222 263.834 270.87 253.982C270.73 253.947 268.542 245.149 268.413 245.114C268.331 244.494 263.979 243.172 258.164 241.229C251.401 238.971 260.562 229.541 264.54 224.042C271.748 214.062 263.663 221.316 266.483 219.327L266.448 219.386Z" fill="#5E6670"/>
</g>
<path d="M302.095 234.385C298.176 236.421 292.677 229.26 292.677 229.26C292.677 229.26 277.888 210.856 280.439 210.025C283.13 209.148 287.599 209.768 290.325 212.997C295.485 219.093 300.258 225.879 303.02 229.354L302.107 234.373L302.095 234.385Z" fill="white"/>
<path d="M290.863 239.568C305.547 238.117 317.937 235.168 319.961 241.627L306.015 255.585C302.797 253.689 297.626 252.753 294.198 251.829C289.717 250.612 283.492 250.624 283.492 250.624C283.832 244.821 286.523 240 290.863 239.579V239.568Z" fill="#00117C"/>
<path d="M333.966 290.931C333.814 290.978 332.901 291.551 333.276 292.452C333.638 293.364 333.907 294.312 335.861 294.663C339.839 295.377 348.649 296.184 350.931 295.096C352.405 294.394 353.622 293.575 353.399 291.984C353.318 291.399 353.095 290.568 353.095 290.568L338.845 289.726L334.867 290.217L333.966 290.931Z" fill="#0C1F43"/>
<path d="M334.561 289.515H335.275L338.855 289.725H339.065L350.625 291.48L349.28 294.674C349.28 294.674 336.936 294.113 335.017 293.598C334.175 293.376 333.719 293.165 333.461 292.908C333.391 292.756 333.344 292.603 333.274 292.451C332.911 291.539 334.011 290.275 334.561 289.515Z" fill="#16397D"/>
<path d="M283.409 246.283C287.879 246.189 305.85 247.43 309.699 247.114C316.66 246.517 322.007 252.355 322.007 252.355L333.403 280.377C333.403 280.377 335.801 284.004 338.563 285.232C339.452 285.63 344.787 287.128 346.612 287.619C346.659 287.619 349.549 288.157 351.374 288.859C352.836 289.421 353.152 290.602 353.152 291.386C353.152 292.708 350.941 293.75 348.578 293.96C345.512 294.241 340.879 293.118 340.879 293.118L338.176 292.474C338.176 292.474 334.643 293.094 333.789 288.789C333.707 288.672 333.028 288.017 333.028 288.017C333.028 288.017 329.612 285.782 324.429 280.611C320.451 276.633 313.127 266.208 311.419 261.68C310.588 259.504 307.218 257.784 306.306 257.714C303.24 257.48 295.004 259.176 292.091 259.364C285.363 259.796 273.979 262.686 274.166 246.248L283.433 246.283H283.409Z" fill="#00117C"/>
<path d="M353 290.018C353 290.018 351.889 288.462 349.315 287.748C346.015 286.836 341.312 286.181 341.312 286.181C341.312 286.181 339.884 287.69 339.405 289.024C338.434 291.726 338.913 293.996 338.913 293.996C338.913 293.996 344.927 294.499 347.314 294.628C350.286 294.792 351.491 294.277 352.602 293.119C353.714 291.96 353.304 290.591 353 290.006V290.018Z" fill="#5468E1"/>
<path d="M267.534 214.155C272.857 211.488 276.063 208.2 285.891 210.318C287.634 211.324 292.08 223.153 291.881 225.926C291.776 227.33 290.302 228.897 290.033 231.284C289.717 234.127 289.881 236.877 292.806 238.491C292.946 238.573 295.426 239.076 295.766 239.228C291.519 243.979 287.529 251.057 282.837 252.157C279.702 252.894 276.098 252.461 274.331 251.969C274.238 251.349 274.331 252.344 272.483 246.248C270.412 239.416 269.312 234.806 267.312 228.324C264.632 219.678 264.726 216.133 267.534 214.144V214.155Z" fill="#5468E1"/>
<path d="M269.862 212.915C272.822 211.137 277.022 209.136 279.374 209.499C281.176 209.768 280.474 209.37 281.433 209.569C282.603 210.88 284.779 215.068 284.896 216.917C285.037 219.128 283.645 221.023 281.995 221.07C274.051 221.339 272.015 216.355 269.862 212.904V212.915Z" fill="white"/>
<path d="M273.652 214.144C273.652 214.144 271.464 205.416 269.966 203.24C268.784 201.543 277.77 201.649 277.77 201.649L280.449 211.605L273.663 214.144H273.652Z" fill="white"/>
<path d="M273.877 186.018C278.767 184.193 281.61 189.34 282.745 192.008C283.541 193.88 285.144 197.999 285.144 197.999C286.197 200.982 286.395 202.655 284.793 203.989C282.78 205.65 276.158 206.294 273.198 205.252C269.559 203.989 269.84 200.619 269.618 200.221L270.776 194.968C270.776 194.968 271.267 186.977 273.865 186.018H273.877Z" fill="white"/>
<path d="M276.321 201.356C277.83 208.317 279.55 209.604 280.814 210.786C281.165 211.113 278.357 211.581 275.888 211.617C271.758 211.663 267.804 210.131 267.804 210.131C267.804 210.131 263.065 206.082 261.86 199.332C260.713 192.897 264.106 186.965 271.782 185.303C276.894 184.192 280.428 186.345 279.562 188.346C278.205 191.469 274.87 194.652 276.321 201.356Z" fill="#2D2117"/>
<path d="M279.269 239.217C279.269 239.217 285.622 242.399 286.663 246.354C287.4 249.173 287.213 250.343 287.213 250.343C287.213 250.343 287.447 251.291 286.195 251.431C285.4 251.525 284.206 251.595 283.516 250.765C282.241 249.255 282.486 248.904 280.942 247.535C279.643 246.389 277.912 245.734 277.233 244.189C275.665 240.656 279.269 239.217 279.269 239.217Z" fill="white"/>
<path d="M268.671 215.303C266.576 214.343 264.552 214.144 261.873 221.48C260.504 225.224 258.971 229.74 257.146 236.491C256.526 238.796 258.316 240.422 261.206 241.241C267.255 242.938 275.562 241.861 277.668 242.599C279.002 243.067 280.008 239.615 280.008 239.615C280.008 239.615 278.206 238.48 276.369 237.919C271.806 236.503 264.4 234.76 264.424 234.631C264.541 234.175 266.927 230.302 266.927 230.302C266.927 230.302 269.139 226.394 270.519 222.697C272.344 217.771 270.39 216.098 268.659 215.303H268.671Z" fill="white"/>
<path d="M323.32 283.688C323.121 283.688 321.881 283.98 321.951 285.15C322.021 286.32 321.951 287.502 324.033 288.649C328.269 290.988 335.125 293.867 338.132 293.516C340.074 293.282 341.759 292.825 342.121 290.942C342.25 290.251 342.32 289.222 342.32 289.222L329.31 284.214L324.63 283.243L323.331 283.699L323.32 283.688Z" fill="#0C1F43"/>
<path d="M323.319 283.689L324.617 283.232L329.297 284.203L329.543 284.297L339.16 289.293L333.86 292.031C333.86 292.031 325.448 288.427 323.471 287.105C322.605 286.532 322.16 286.111 321.973 285.725C321.961 285.526 321.95 285.327 321.938 285.14C321.868 283.97 323.108 283.677 323.307 283.677L323.319 283.689Z" fill="#16397D"/>
<path d="M307.337 247.009C308.144 249.77 307.688 251.736 312.379 262.956C315.995 271.603 321.271 280.635 321.271 280.635C321.271 280.635 321.739 282.916 322.465 284.203C323.085 285.291 325.284 285.256 331.228 288.497C334.223 290.124 339.289 286.906 339.289 286.906C339.289 286.906 332.913 282.554 330.292 280.764C327.999 279.196 327.039 275.557 327.039 275.557C323.775 263.003 323.412 253.76 320.628 243.102C318.533 235.087 306.12 242.879 307.325 247.021L307.337 247.009Z" fill="#00117C"/>
<path d="M326.887 274.901C326.934 275.112 326.992 275.322 327.039 275.533C327.039 275.533 327.999 279.172 330.292 280.74C332.924 282.53 339.289 286.882 339.289 286.882C339.289 286.882 334.223 290.1 331.228 288.473C325.284 285.232 323.085 285.279 322.465 284.179C321.739 282.892 321.271 280.611 321.271 280.611C321.271 280.611 320.171 278.727 318.639 275.872C321.143 275.65 324.009 275.334 326.887 274.89V274.901Z" fill="white"/>
<path d="M340.306 286.215C338.715 284.834 334.386 282.12 333.274 281.594C332.174 281.079 330.771 281.278 329.437 282.576C326.839 285.115 326.325 288.637 326.325 288.637C326.325 288.637 329.53 290.369 333.59 291.936C337.007 293.258 341.71 292.346 342.26 289.971C342.494 288.953 341.967 287.689 340.283 286.203L340.306 286.215Z" fill="#5468E1"/>
<path d="M302.937 234.163C302.937 234.163 305.756 231.507 303.217 227.271C300.679 223.036 296.116 217.783 296.116 217.783L297.063 214.273C297.063 214.273 297.777 212.787 296.315 211.512C294.852 210.236 292.793 209.78 292.793 209.78C292.793 209.78 291.412 209.523 290.757 210.541C290.09 211.57 289.716 212.483 289.716 212.483L293.226 214.015C293.226 214.015 292.021 216.098 292.758 217.444C293.495 218.789 294.431 228.055 296.607 230.816C298.783 233.589 301.217 235.438 302.937 234.163Z" fill="white"/>
<path d="M206.284 310.619L231.07 324.953L206.244 339.287L181.418 324.953L206.284 310.619Z" fill="#BEC1C1"/>
<path d="M188.993 318.343L206.229 328.285L223.465 318.343L206.256 308.389L188.993 318.343Z" fill="#F4DBAB"/>
<path d="M206.229 334.357L223.465 324.416V318.344L206.229 328.285V334.357Z" fill="#2D3B8B"/>
<path d="M188.995 324.416L206.23 334.357V328.285L188.995 318.344V324.416Z" fill="#C6CEFF"/>
<path d="M187.865 312.93L206.229 323.529L224.594 312.93L206.256 302.33L187.865 312.93Z" fill="#F5F5F5"/>
<path d="M206.229 322.454L223.465 312.513V306.44L206.229 316.382V322.454Z" fill="#2D3B8B"/>
<path d="M188.995 312.513L206.23 322.454V316.382L188.995 306.44V312.513Z" fill="#C6CEFF"/>
<path d="M206.229 330.004L224.594 319.405V312.93L206.229 323.529V330.004Z" fill="#5468E1"/>
<path d="M187.866 319.405L206.23 330.004V323.529L187.866 312.93V319.405Z" fill="#E9ECFF"/>
<path d="M186.522 299.24L206.23 310.619L225.938 299.24L206.257 287.861L186.522 299.24Z" fill="white"/>
<path d="M206.364 291.583L206.243 291.502L192.809 299.227L194.972 300.476L206.243 306.991L206.364 306.924L217.514 300.489L219.637 299.253L206.807 291.838L206.364 291.583Z" fill="#2D3B8B"/>
<path d="M206.23 317.564L225.938 306.186V299.24L206.23 310.619V317.564Z" fill="#5468E1"/>
<path d="M186.523 306.186L206.23 317.564V310.619L186.523 299.24V306.186Z" fill="#E9ECFF"/>
<path d="M206.364 291.583V306.925L219.637 299.254L206.807 291.838L206.364 291.583Z" fill="#C6CEFF"/>
<path d="M194.973 300.476L206.244 306.991L206.365 306.924L217.516 300.489L206.258 293.974L194.973 300.476Z" fill="#5468E1"/>
<path d="M206.459 301.994C206.459 301.994 210.798 275.287 199.392 261.49C187.987 247.707 181.001 242.172 181.001 242.172C181.001 242.172 199.204 246.269 206.297 265.399C213.39 284.53 206.459 301.98 206.459 301.98V301.994Z" fill="#616DBA"/>
<path d="M207.184 280.957C207.184 280.957 202.805 259.287 204.618 246.404C206.432 233.521 218.926 221.014 218.926 221.014C218.926 221.014 213.257 244.496 212.155 254.384C211.43 260.886 209.549 277.074 209.549 277.074L207.184 280.957Z" fill="#616DBA"/>
<path d="M218.91 221.013C218.91 221.013 208.606 246.659 208.029 254.128C207.451 261.598 206.269 275.878 206.269 275.878L207.276 282.703L210.568 268.06L212.704 250.353L218.897 221L218.91 221.013Z" fill="#30365F"/>
<path d="M206.458 301.994C206.458 301.994 208.244 274.428 215.593 267.711C222.941 260.994 245 257.931 245 257.931C245 257.931 235.878 255.419 224.849 258.898C213.819 262.377 208.54 268.651 207.667 275.153C206.793 281.655 206.444 302.008 206.444 302.008L206.458 301.994Z" fill="#2D3B8B"/>
<path d="M523.371 251.603L501.68 264.01V258.791L523.371 246.372V251.603Z" fill="#111A53"/>
<path d="M494.811 260.039L501.68 264.009V258.79L494.811 254.819V260.039Z" fill="#2234A4"/>
<path d="M441.639 229.335L448.508 233.305V228.086L441.639 224.115V229.335Z" fill="#2234A4"/>
<path d="M470.199 220.899L448.508 233.306V228.086L470.199 215.668V220.899Z" fill="#111A53"/>
<path d="M465.121 237.677L478.188 245.217V241.588L465.121 234.048V237.677Z" fill="#A9BFD4"/>
<path d="M499.879 229.17L486.812 221.629L465.121 234.047L478.188 241.588L499.879 229.17Z" fill="#BBD2E9"/>
<path d="M478.187 245.217L491.254 252.757V249.129L478.187 241.588V245.217Z" fill="#A9BFD4"/>
<path d="M512.945 236.711L499.879 229.17L478.188 241.588L491.254 249.129L512.945 236.711Z" fill="#BBD2E9"/>
<path d="M452.066 230.136L465.121 237.676V234.047L452.066 226.507V230.136Z" fill="#A9BFD4"/>
<path d="M486.812 221.629L473.758 214.089L452.067 226.507L465.122 234.048L486.812 221.629Z" fill="#BBD2E9"/>
<path d="M491.254 252.758L504.309 260.31V256.67L491.254 249.129V252.758Z" fill="#A9BFD4"/>
<path d="M526 247.892L504.309 260.31V256.669L526 244.251V247.892Z" fill="#4456CB"/>
<path d="M491.254 249.129L501.682 255.15L504.321 256.67L506.925 255.174L526 244.251L523.973 243.073L523.373 242.732L512.934 236.723L491.254 249.129Z" fill="#BBD2E9"/>
<path d="M439 222.596L452.066 230.136V226.507L439 218.967V222.596Z" fill="#A9BFD4"/>
<path d="M473.758 214.088L460.691 206.548L439 218.966L452.067 226.507L473.758 214.088Z" fill="#BBD2E9"/>
<path d="M448.509 224.446L470.2 212.039L479.684 217.471L491.867 224.446H491.714L494.812 226.248V236.711L488.91 233.318L474.924 233.294L463.708 224.516L448.509 224.446Z" fill="#3247B9"/>
<path d="M470.199 212.039L448.508 224.445V184.433L470.199 172.026V212.039Z" fill="#293896"/>
<path d="M501.682 255.15L506.925 255.173L526 244.251L523.973 243.073L523.373 242.731L501.682 255.15Z" fill="#4456CB"/>
<path d="M523.371 242.743L501.68 255.149V215.137L523.371 202.73V242.743Z" fill="#293896"/>
<path d="M494.811 251.191L501.68 255.15V215.138L494.811 211.179V251.191Z" fill="#3750E8"/>
<path d="M441.639 220.487L448.508 224.446V184.433L441.639 180.475V220.487Z" fill="#3750E8"/>
<path d="M465.121 194.035L478.188 201.576V197.935L465.121 190.395V194.035Z" fill="#A9BFD4"/>
<path d="M499.879 185.529L486.812 177.988L465.121 190.395L478.188 197.936L499.879 185.529Z" fill="#BBD2E9"/>
<path d="M478.187 201.576L491.254 209.117V205.488L478.187 197.936V201.576Z" fill="#A9BFD4"/>
<path d="M512.945 193.07L499.879 185.529L478.188 197.936L491.254 205.488L512.945 193.07Z" fill="#BBD2E9"/>
<path d="M452.066 186.495L465.121 194.036V190.395L452.066 182.854V186.495Z" fill="#A9BFD4"/>
<path d="M486.812 177.988L473.758 170.447L452.067 182.854L465.122 190.395L486.812 177.988Z" fill="#BBD2E9"/>
<path d="M491.254 209.117L504.309 216.658V213.029L491.254 205.488V209.117Z" fill="#A9BFD4"/>
<path d="M526 204.251L504.309 216.658V213.029L526 200.61V204.251Z" fill="#4456CB"/>
<path d="M526 200.61L512.945 193.069L491.254 205.488L504.309 213.028L526 200.61Z" fill="#BBD2E9"/>
<path d="M439 178.954L452.066 186.495V182.854L439 175.313V178.954Z" fill="#A9BFD4"/>
<path d="M473.758 170.448L460.691 162.896L439 175.314L452.067 182.855L473.758 170.448Z" fill="#BBD2E9"/>
<path d="M448.509 180.663L470.2 168.256L479.684 173.687L491.867 180.663H491.714L494.812 182.465V192.928L478.105 183.808L461.54 183.007L457.934 180.745L448.509 180.663Z" fill="#3247B9"/>
<path d="M470.199 168.256L448.508 180.663V146.33L470.199 133.911V168.256Z" fill="#293896"/>
<path d="M502.128 191.502L503 190.548L492.643 184.881L477.303 188.215L486.788 194.837L502.128 191.502Z" fill="#03062E"/>
<path d="M483.901 182.607L490.287 184.834L492.055 186.083L484.385 188.675L483.901 182.607Z" fill="#6E82FF"/>
<path d="M485.657 183.856L492.055 186.083L486.152 189.912L485.657 183.856Z" fill="#141A46"/>
<path d="M477.115 170L476.125 170.577L487.778 194.26L489.18 176.963L477.115 170Z" fill="#6E82FF"/>
<path d="M476.126 170.577L474.713 187.885L486.789 194.837L488.191 177.529L476.126 170.577Z" fill="#B4BEFF"/>
<path d="M486.684 178.354L477.446 173.017L476.221 187.061L485.47 192.398L486.684 178.354Z" fill="white"/>
<path d="M484.809 180.121L479.931 177.305L479.283 184.716L484.161 187.649L484.809 180.121Z" fill="#253AA9"/>
<path d="M478.175 173.441L476.997 186.743L485.504 191.656L485.469 192.398L476.22 187.061L477.445 173.017L478.175 173.441Z" fill="#6E82FF"/>
<path d="M489.18 176.963L488.19 177.528L486.788 194.836L487.778 194.259L489.18 176.963Z" fill="#3750E8"/>
<path d="M477.445 173.017L476.22 187.061L476.998 186.743L478.176 173.441L477.445 173.017Z" fill="#3750E8"/>
<path d="M501.682 211.402L506.925 211.425L526 200.503L523.973 199.337L523.373 198.995L501.682 211.402Z" fill="#4456CB"/>
<path d="M523.371 198.995L501.68 211.402V177.069L523.371 164.65V198.995Z" fill="#293896"/>
<path d="M494.811 207.408L501.68 211.402V176.963L494.811 172.957V207.408Z" fill="#3750E8"/>
<path d="M441.639 176.763L448.508 180.769V146.329L441.639 142.323V176.763Z" fill="#3750E8"/>
<path d="M465.121 155.932L478.188 163.472V159.832L465.121 152.291V155.932Z" fill="#A9BFD4"/>
<path d="M499.879 147.413L486.812 139.872L465.121 152.29L478.188 159.831L499.879 147.413Z" fill="#BBD2E9"/>
<path d="M478.187 163.472L491.254 171.012V167.372L478.187 159.831V163.472Z" fill="#A9BFD4"/>
<path d="M512.945 154.965L499.879 147.413L478.188 159.832L491.254 167.372L512.945 154.965Z" fill="#BBD2E9"/>
<path d="M452.066 148.379L465.121 155.931V152.291L452.066 144.75V148.379Z" fill="#A9BFD4"/>
<path d="M486.812 139.873L473.758 132.332L452.067 144.75L465.122 152.291L486.812 139.873Z" fill="#BBD2E9"/>
<path d="M491.254 171.013L504.309 178.553V174.913L491.254 167.372V171.013Z" fill="#A9BFD4"/>
<path d="M526 166.135L504.309 178.553V174.913L526 162.506V166.135Z" fill="#4456CB"/>
<path d="M526 162.506L512.945 154.966L491.254 167.372L504.309 174.913L526 162.506Z" fill="#BBD2E9"/>
<path d="M439 140.839L452.066 148.379V144.751L439 137.21V140.839Z" fill="#A9BFD4"/>
<path d="M473.758 132.332L460.691 124.791L439 137.209L452.067 144.75L473.758 132.332Z" fill="#BBD2E9"/>
<path d="M448.509 142.688L470.2 130.281L479.684 135.713L491.867 142.688H491.714L494.812 144.491V154.965L484.668 153.563L474.135 147.813L465.934 147.778L459.49 142.735L448.509 142.688Z" fill="#3247B9"/>
<path d="M470.199 130.282L448.508 142.688V96.5375L470.199 84.1309V130.282Z" fill="#293896"/>
<path d="M523.371 160.987L501.68 173.393V127.243L523.371 114.836V160.987Z" fill="#293896"/>
<path d="M494.811 169.399L501.68 173.393V127.242L494.811 123.236V169.399Z" fill="#3750E8"/>
<path d="M441.639 138.695L448.508 142.689V96.5382L441.639 92.5322V138.695Z" fill="#3750E8"/>
<path d="M501.682 173.393L506.925 173.417L526 162.494L523.973 161.328L523.373 160.986L501.682 173.393Z" fill="#4456CB"/>
<path d="M465.121 106.141L478.188 113.681V110.041L465.121 102.5V106.141Z" fill="#A9BFD4"/>
<path d="M499.879 97.6334L486.812 90.0928L465.121 102.499L478.188 110.04L499.879 97.6334Z" fill="white"/>
<path d="M478.187 113.681L491.254 121.221V117.581L478.187 110.04V113.681Z" fill="#A9BFD4"/>
<path d="M512.945 105.174L499.879 97.6338L478.188 110.04L491.254 117.581L512.945 105.174Z" fill="white"/>
<path d="M452.066 98.5997L465.121 106.14V102.5L452.066 94.959V98.5997Z" fill="#A9BFD4"/>
<path d="M486.812 90.0933L473.758 82.5527L452.067 94.9594L465.122 102.5L486.812 90.0933Z" fill="white"/>
<path d="M491.254 121.222L504.309 128.762V125.133L491.254 117.581V121.222Z" fill="#A9BFD4"/>
<path d="M526 116.344L504.309 128.762V125.133L526 112.715V116.344Z" fill="#4456CB"/>
<path d="M526 112.714L512.945 105.174L491.254 117.58L504.309 125.133L526 112.714Z" fill="white"/>
<path d="M439 91.0587L452.066 98.5993V94.9586L439 87.418V91.0587Z" fill="#A9BFD4"/>
<path d="M473.758 82.5524L460.691 75L439 87.4184L452.067 94.959L473.758 82.5524Z" fill="white"/>
<path d="M441.64 88.9383L464.875 77.4153L460.692 75L439.001 87.4184L441.64 88.9383Z" fill="white"/>
</svg>
