<svg width="705" height="468" viewBox="0 0 705 468" fill="none" xmlns="http://www.w3.org/2000/svg">
<rect width="705" height="468" fill="#E0E6F9"/>
<path opacity="0.4" d="M317.339 373.172L218.541 313.724C211.589 309.535 212.455 302.236 220.492 297.401L354.385 216.835C362.409 212 374.555 211.474 381.507 215.663L480.305 275.111C487.257 279.3 486.391 286.599 478.354 291.434L344.461 372.001C336.437 376.836 324.291 377.361 317.339 373.172Z" fill="#BBD2E9"/>
<path d="M161.718 295.619L136.932 309.953L161.758 324.287L186.584 309.953L161.718 295.619Z" fill="#BEC1C1"/>
<path d="M179.007 303.343L161.771 313.285L144.535 303.343L161.744 293.389L179.007 303.343Z" fill="#F4DBAB"/>
<path d="M161.771 319.357L144.535 309.416V303.344L161.771 313.285V319.357Z" fill="#2D3B8B"/>
<path d="M179.007 309.416L161.771 319.357V313.285L179.007 303.344V309.416Z" fill="#C6CEFF"/>
<path d="M180.135 297.93L161.771 308.529L143.406 297.93L161.744 287.33L180.135 297.93Z" fill="#F5F5F5"/>
<path d="M161.771 307.454L144.535 297.513V291.44L161.771 301.382V307.454Z" fill="#2D3B8B"/>
<path d="M179.007 297.513L161.771 307.454V301.382L179.007 291.44V297.513Z" fill="#C6CEFF"/>
<path d="M161.771 315.004L143.406 304.405V297.93L161.771 308.529V315.004Z" fill="#5468E1"/>
<path d="M180.136 304.405L161.771 315.004V308.529L180.136 297.93V304.405Z" fill="#E9ECFF"/>
<path d="M181.478 284.24L161.77 295.619L142.062 284.24L161.743 272.861L181.478 284.24Z" fill="white"/>
<path d="M161.636 276.583L161.757 276.502L175.191 284.227L173.028 285.476L161.757 291.991L161.636 291.924L150.486 285.489L148.363 284.253L161.193 276.838L161.636 276.583Z" fill="#2D3B8B"/>
<path d="M161.77 302.564L142.062 291.186V284.24L161.77 295.619V302.564Z" fill="#5468E1"/>
<path d="M181.479 291.186L161.771 302.564V295.619L181.479 284.24V291.186Z" fill="#E9ECFF"/>
<path d="M161.636 276.583V291.925L148.363 284.254L161.193 276.838L161.636 276.583Z" fill="#C6CEFF"/>
<path d="M173.029 285.476L161.758 291.991L161.637 291.924L150.486 285.489L161.744 278.974L173.029 285.476Z" fill="#5468E1"/>
<path d="M161.541 286.994C161.541 286.994 157.202 260.287 168.608 246.49C180.013 232.707 186.999 227.172 186.999 227.172C186.999 227.172 168.796 231.269 161.703 250.399C154.61 269.53 161.541 286.98 161.541 286.98V286.994Z" fill="#616DBA"/>
<path d="M160.818 265.957C160.818 265.957 165.197 244.287 163.384 231.404C161.57 218.521 149.076 206.014 149.076 206.014C149.076 206.014 154.745 229.496 155.847 239.384C156.572 245.886 158.453 262.074 158.453 262.074L160.818 265.957Z" fill="#616DBA"/>
<path d="M149.09 206.013C149.09 206.013 159.394 231.659 159.971 239.128C160.549 246.598 161.731 260.878 161.731 260.878L160.724 267.703L157.432 253.06L155.296 235.353L149.103 206L149.09 206.013Z" fill="#30365F"/>
<path d="M161.542 286.994C161.542 286.994 159.756 259.428 152.407 252.711C145.059 245.994 123 242.931 123 242.931C123 242.931 132.122 240.419 143.151 243.898C154.181 247.377 159.46 253.651 160.333 260.153C161.207 266.655 161.556 287.008 161.556 287.008L161.542 286.994Z" fill="#2D3B8B"/>
<path d="M472.584 226.394L452.638 237.803V233.003L472.584 221.584V226.394Z" fill="#111A53"/>
<path d="M446.322 234.152L452.639 237.803V233.004L446.322 229.353V234.152Z" fill="#2234A4"/>
<path d="M397.428 205.918L403.744 209.569V204.769L397.428 201.118V205.918Z" fill="#2234A4"/>
<path d="M423.689 198.16L403.744 209.568V204.769L423.689 193.35V198.16Z" fill="#111A53"/>
<path d="M419.02 213.588L431.035 220.522V217.185L419.02 210.251V213.588Z" fill="#A9BFD4"/>
<path d="M450.98 205.766L438.965 198.832L419.019 210.251L431.035 217.185L450.98 205.766Z" fill="#BBD2E9"/>
<path d="M431.034 220.523L443.049 227.456V224.12L431.034 217.186V220.523Z" fill="#A9BFD4"/>
<path d="M462.996 212.7L450.981 205.766L431.035 217.185L443.05 224.119L462.996 212.7Z" fill="#BBD2E9"/>
<path d="M407.015 206.654L419.02 213.588V210.251L407.015 203.317V206.654Z" fill="#A9BFD4"/>
<path d="M438.965 198.832L426.96 191.898L407.015 203.318L419.019 210.252L438.965 198.832Z" fill="#BBD2E9"/>
<path d="M443.05 227.456L455.055 234.401V231.053L443.05 224.119V227.456Z" fill="#A9BFD4"/>
<path d="M475 222.982L455.054 234.401V231.053L475 219.634V222.982Z" fill="#4456CB"/>
<path d="M443.05 224.119L452.638 229.656L455.065 231.053L457.459 229.677L475 219.634L473.136 218.551L472.584 218.236L462.985 212.711L443.05 224.119Z" fill="#BBD2E9"/>
<path d="M395 199.721L407.016 206.655V203.318L395 196.384V199.721Z" fill="#A9BFD4"/>
<path d="M426.961 191.898L414.946 184.964L395 196.383L407.015 203.317L426.961 191.898Z" fill="#BBD2E9"/>
<path d="M403.744 201.421L423.69 190.013L432.411 195.007L443.614 201.421H443.473L446.322 203.079V212.7L440.894 209.579L428.034 209.558L417.72 201.486L403.744 201.421Z" fill="#3247B9"/>
<path d="M423.689 190.013L403.744 201.421V164.628L423.689 153.22V190.013Z" fill="#293896"/>
<path d="M452.638 229.656L457.459 229.677L475 219.634L473.136 218.551L472.584 218.236L452.638 229.656Z" fill="#4456CB"/>
<path d="M472.584 218.247L452.638 229.656V192.863L472.584 181.454V218.247Z" fill="#293896"/>
<path d="M446.322 226.015L452.639 229.655V192.862L446.322 189.222V226.015Z" fill="#3750E8"/>
<path d="M397.428 197.781L403.744 201.422V164.629L397.428 160.988V197.781Z" fill="#3750E8"/>
<path d="M419.02 173.458L431.035 180.392V177.044L419.02 170.11V173.458Z" fill="#A9BFD4"/>
<path d="M450.98 165.636L438.965 158.702L419.019 170.111L431.035 177.045L450.98 165.636Z" fill="#BBD2E9"/>
<path d="M431.034 180.392L443.049 187.326V183.989L431.034 177.044V180.392Z" fill="#A9BFD4"/>
<path d="M462.996 172.57L450.981 165.636L431.035 177.044L443.05 183.989L462.996 172.57Z" fill="#BBD2E9"/>
<path d="M407.015 166.525L419.02 173.458V170.111L407.015 163.177V166.525Z" fill="#A9BFD4"/>
<path d="M438.965 158.702L426.96 151.768L407.015 163.176L419.019 170.11L438.965 158.702Z" fill="#BBD2E9"/>
<path d="M443.05 187.326L455.055 194.26V190.923L443.05 183.989V187.326Z" fill="#A9BFD4"/>
<path d="M475 182.852L455.054 194.26V190.923L475 179.504V182.852Z" fill="#4456CB"/>
<path d="M475 179.503L462.996 172.569L443.05 183.989L455.054 190.923L475 179.503Z" fill="#BBD2E9"/>
<path d="M395 159.59L407.016 166.524V163.176L395 156.242V159.59Z" fill="#A9BFD4"/>
<path d="M426.961 151.768L414.946 144.823L395 156.243L407.015 163.176L426.961 151.768Z" fill="#BBD2E9"/>
<path d="M403.744 161.161L423.69 149.753L432.411 154.748L443.614 161.161H443.473L446.322 162.819V172.44L430.959 164.054L415.726 163.317L412.411 161.237L403.744 161.161Z" fill="#3247B9"/>
<path d="M423.689 149.753L403.744 161.161V129.59L423.689 118.171V149.753Z" fill="#293896"/>
<path d="M453.048 171.129L453.85 170.251L444.326 165.04L430.22 168.106L438.942 174.195L453.048 171.129Z" fill="#03062E"/>
<path d="M436.288 162.949L442.16 164.997L443.785 166.145L436.732 168.529L436.288 162.949Z" fill="#6E82FF"/>
<path d="M437.902 164.098L443.785 166.145L438.357 169.666L437.902 164.098Z" fill="#141A46"/>
<path d="M430.046 151.356L429.136 151.887L439.851 173.664L441.141 157.759L430.046 151.356Z" fill="#6E82FF"/>
<path d="M429.136 151.888L427.836 167.803L438.941 174.195L440.23 158.28L429.136 151.888Z" fill="#B4BEFF"/>
<path d="M438.844 159.038L430.35 154.13L429.223 167.044L437.728 171.952L438.844 159.038Z" fill="white"/>
<path d="M437.121 160.663L432.636 158.073L432.04 164.888L436.525 167.586L437.121 160.663Z" fill="#253AA9"/>
<path d="M431.021 154.52L429.937 166.752L437.76 171.27L437.727 171.952L429.222 167.044L430.349 154.13L431.021 154.52Z" fill="#6E82FF"/>
<path d="M441.141 157.76L440.231 158.28L438.941 174.195L439.851 173.664L441.141 157.76Z" fill="#3750E8"/>
<path d="M430.35 154.13L429.223 167.044L429.938 166.752L431.021 154.52L430.35 154.13Z" fill="#3750E8"/>
<path d="M452.638 189.428L457.459 189.45L475 179.406L473.136 178.334L472.584 178.02L452.638 189.428Z" fill="#4456CB"/>
<path d="M472.584 178.019L452.638 189.428V157.857L472.584 146.438V178.019Z" fill="#293896"/>
<path d="M446.322 185.756L452.639 189.428V157.76L446.322 154.076V185.756Z" fill="#3750E8"/>
<path d="M397.428 157.576L403.744 161.259V129.591L397.428 125.907V157.576Z" fill="#3750E8"/>
<path d="M419.02 138.42L431.035 145.354V142.006L419.02 135.072V138.42Z" fill="#A9BFD4"/>
<path d="M450.98 130.587L438.965 123.653L419.019 135.073L431.035 142.007L450.98 130.587Z" fill="#BBD2E9"/>
<path d="M431.034 145.355L443.049 152.289V148.941L431.034 142.007V145.355Z" fill="#A9BFD4"/>
<path d="M462.996 137.532L450.981 130.587L431.035 142.006L443.05 148.94L462.996 137.532Z" fill="#BBD2E9"/>
<path d="M407.015 131.476L419.02 138.42V135.073L407.015 128.139V131.476Z" fill="#A9BFD4"/>
<path d="M438.965 123.654L426.96 116.72L407.015 128.139L419.019 135.073L438.965 123.654Z" fill="#BBD2E9"/>
<path d="M443.05 152.288L455.055 159.222V155.874L443.05 148.94V152.288Z" fill="#A9BFD4"/>
<path d="M475 147.803L455.054 159.222V155.874L475 144.466V147.803Z" fill="#4456CB"/>
<path d="M475 144.466L462.996 137.532L443.05 148.941L455.054 155.875L475 144.466Z" fill="#BBD2E9"/>
<path d="M395 124.542L407.016 131.476V128.139L395 121.205V124.542Z" fill="#A9BFD4"/>
<path d="M426.961 116.72L414.946 109.786L395 121.205L407.015 128.139L426.961 116.72Z" fill="#BBD2E9"/>
<path d="M403.744 126.242L423.69 114.834L432.411 119.829L443.614 126.242H443.473L446.322 127.9V137.532L436.994 136.242L427.308 130.955L419.767 130.923L413.841 126.286L403.744 126.242Z" fill="#3247B9"/>
<path d="M423.689 114.834L403.744 126.243V83.805L423.689 72.3965V114.834Z" fill="#293896"/>
<path d="M472.584 143.069L452.638 154.477V112.039L472.584 100.631V143.069Z" fill="#293896"/>
<path d="M446.322 150.804L452.639 154.477V112.039L446.322 108.355V150.804Z" fill="#3750E8"/>
<path d="M397.428 122.57L403.744 126.243V83.8048L397.428 80.1211V122.57Z" fill="#3750E8"/>
<path d="M452.638 154.477L457.459 154.499L475 144.455L473.136 143.383L472.584 143.068L452.638 154.477Z" fill="#4456CB"/>
<path d="M419.02 92.6349L431.035 99.5688V96.221L419.02 89.2871V92.6349Z" fill="#A9BFD4"/>
<path d="M450.98 84.8128L438.965 77.8789L419.019 89.2874L431.035 96.2213L450.98 84.8128Z" fill="white"/>
<path d="M431.034 99.5685L443.049 106.502V103.155L431.034 96.2207V99.5685Z" fill="#A9BFD4"/>
<path d="M462.996 91.7464L450.981 84.8125L431.035 96.221L443.05 103.155L462.996 91.7464Z" fill="white"/>
<path d="M407.015 85.7013L419.02 92.6352V89.2874L407.015 82.3535V85.7013Z" fill="#A9BFD4"/>
<path d="M438.965 77.8783L426.96 70.9443L407.015 82.3528L419.019 89.2867L438.965 77.8783Z" fill="white"/>
<path d="M443.05 106.503L455.055 113.437V110.1L443.05 103.155V106.503Z" fill="#A9BFD4"/>
<path d="M475 102.018L455.054 113.437V110.1L475 98.6807V102.018Z" fill="#4456CB"/>
<path d="M475 98.68L462.996 91.7461L443.05 103.155L455.054 110.099L475 98.68Z" fill="white"/>
<path d="M395 78.7667L407.016 85.7007V82.3529L395 75.4189V78.7667Z" fill="#A9BFD4"/>
<path d="M426.961 70.9447L414.946 64L395 75.4193L407.015 82.3532L426.961 70.9447Z" fill="white"/>
<path d="M397.426 76.8169L418.791 66.221L414.945 64L394.999 75.4193L397.426 76.8169Z" fill="white"/>
<g opacity="0.13" style="mix-blend-mode:multiply">
<path d="M341.902 298.428C341.902 298.428 329.523 289.078 324.343 290.088C319.163 291.098 314.993 294.258 319.413 299.438C322.603 303.178 329.153 305.378 330.663 305.628C335.843 306.508 338.492 314.218 341.402 313.588C344.312 312.958 349.103 303.698 341.913 298.428H341.902Z" fill="#293896"/>
</g>
<path d="M331.182 255.548C331.182 255.548 333.912 252.238 336.672 254.308C339.422 256.368 334.422 258.868 338.622 259.548C338.622 259.548 339.282 260.898 336.292 261.458C333.302 262.008 332.712 259.648 332.612 258.138C332.472 256.038 331.182 255.558 331.182 255.558V255.548Z" fill="#110300"/>
<path d="M332.482 255.088C332.482 255.088 332.462 254.968 332.452 254.848C332.382 254.228 332.212 252.668 331.702 253.008C331.082 253.418 329.742 255.218 331.042 255.468C332.332 255.718 331.752 256.428 332.582 257.158C333.412 257.888 335.092 256.338 334.782 255.818C334.472 255.288 332.982 254.858 332.492 255.088H332.482Z" fill="#0E1A68"/>
<path d="M331.561 271.728C333.411 275.058 335.061 283.578 335.061 283.578L333.021 287.248L328.541 275.298L328.191 270.258C328.191 270.258 331.111 270.918 331.561 271.728Z" fill="white"/>
<path d="M342.622 284.028C342.622 284.028 340.932 284.488 339.732 284.408C338.522 284.328 337.822 284.978 337.572 285.468C337.322 285.958 335.002 289.168 335.032 289.368C335.062 289.578 336.292 290.118 336.762 290.398C337.762 290.998 339.762 289.168 340.192 287.888C340.452 287.138 340.482 287.418 340.942 285.628C341.312 284.208 342.622 284.018 342.622 284.018V284.028Z" fill="#0E1A68"/>
<path d="M331.562 287.268L342.142 283.778C342.142 283.778 345.882 284.268 345.002 287.558C344.452 289.598 341.542 297.928 341.492 298.018C340.362 299.928 337.512 296.688 337.512 296.688C337.512 296.688 338.002 295.568 338.122 293.088C338.252 290.468 340.372 287.688 340.372 287.688C340.372 287.688 334.202 292.968 332.622 291.118C330.552 288.688 330.732 287.818 330.732 287.818L331.572 287.268H331.562Z" fill="white"/>
<path d="M324.471 286.828L321.011 298.758C321.011 298.758 320.281 300.788 323.551 301.958C328.791 303.838 336.051 305.528 336.051 305.528C336.051 305.528 336.981 309.688 338.311 311.088C338.861 311.668 340.451 312.128 340.101 310.458C339.681 308.408 339.961 303.658 339.961 303.658C339.961 303.658 340.171 301.658 338.361 301.728C337.731 301.758 337.291 301.998 336.981 302.058C336.481 302.158 336.041 301.908 336.041 301.908C336.041 301.908 330.981 298.668 329.281 298.018C328.521 297.728 328.251 297.628 328.251 297.628L328.461 289.568L324.471 286.838V286.828Z" fill="white"/>
<path d="M337.282 290.508C337.282 290.508 336.332 289.318 338.612 286.438C340.432 284.138 342.262 283.828 342.262 283.828C342.262 283.828 340.742 283.578 337.762 284.288C334.922 284.958 332.172 285.568 332.172 285.568C332.172 285.568 328.072 291.468 328.792 292.958C329.052 293.488 337.292 290.508 337.292 290.508H337.282Z" fill="#0E1A68"/>
<path d="M321.022 299.768C321.022 299.768 321.092 295.298 325.382 295.248C327.812 295.218 327.512 296.078 327.512 296.078C327.512 296.078 328.202 292.678 328.452 291.658C329.992 285.528 334.442 286.508 334.442 286.508C334.442 286.508 321.162 282.758 319.802 284.058C318.442 285.368 319.422 293.888 319.732 295.908C320.132 298.518 321.022 299.758 321.022 299.758V299.768Z" fill="#0E1A68"/>
<path d="M326.992 290.598C327.502 290.858 327.522 291.298 327.052 291.588C326.582 291.878 325.792 291.918 325.282 291.658C324.772 291.408 324.752 290.958 325.212 290.668C325.682 290.378 326.482 290.338 326.982 290.598H326.992Z" fill="#293896"/>
<path d="M326.673 289.748L326.693 291.018C326.693 291.098 326.693 291.188 326.583 291.248C326.373 291.378 326.013 291.388 325.783 291.268C325.673 291.208 325.613 291.128 325.603 291.048L325.543 289.768C325.543 289.848 325.613 289.928 325.723 289.988C325.943 290.108 326.303 290.098 326.513 289.968C326.613 289.908 326.673 289.818 326.673 289.738V289.748Z" fill="#293896"/>
<path d="M326.492 289.528C326.712 289.648 326.732 289.848 326.512 289.978C326.302 290.108 325.942 290.118 325.722 289.998C325.492 289.878 325.492 289.678 325.702 289.558C325.912 289.428 326.272 289.418 326.492 289.528Z" fill="#293896"/>
<path d="M329.432 268.828C330.672 270.608 331.082 273.138 330.632 276.768C330.382 278.748 329.532 285.398 332.472 285.738C332.632 285.758 333.082 286.238 332.172 288.798C330.662 293.058 325.942 291.508 324.502 292.128C322.942 292.798 319.072 293.378 319.072 293.378C318.942 293.238 318.762 290.338 318.682 288.438C318.412 282.018 317.282 279.028 317.332 277.198C317.392 275.208 316.762 274.348 316.762 274.348C317.042 273.538 318.792 272.138 319.462 271.488C319.792 271.178 320.292 270.748 320.862 270.278C321.912 269.428 323.122 268.518 323.312 268.378C325.402 266.948 326.562 268.468 326.562 268.468C326.562 268.468 328.592 267.608 329.432 268.818V268.828Z" fill="#5B68B7"/>
<path d="M322.252 267.918C322.612 266.298 323.052 264.108 323.052 264.108L327.362 266.498L326.902 269.378C326.902 269.378 328.582 270.518 328.032 272.598C327.682 273.928 326.212 274.918 324.582 274.218C322.092 273.148 320.982 270.638 320.852 270.288C321.322 269.838 321.892 269.558 322.242 267.928L322.252 267.918Z" fill="white"/>
<path d="M342.292 296.558C342.292 296.558 341.842 297.608 343.752 299.498C344.142 299.888 345.002 300.498 345.432 300.938C345.912 301.428 345.812 301.748 345.782 302.048C345.762 302.248 345.682 302.418 345.532 302.538C345.152 302.838 344.432 303.008 343.852 303.048C342.142 303.168 340.622 301.888 340.622 301.888C340.372 301.668 337.882 299.708 336.872 299.108C335.982 298.588 336.522 297.608 336.632 297.278C336.752 296.918 337.322 295.918 337.322 295.918C337.322 295.918 337.612 294.118 337.982 294.488C338.012 294.518 338.292 295.668 339.832 296.288C340.572 296.588 341.552 296.648 341.882 296.368C342.362 295.948 342.282 296.558 342.282 296.558H342.292Z" fill="#0E1A68"/>
<path d="M334.942 305.258C334.942 305.258 335.572 304.988 335.742 303.798C335.922 302.508 335.742 302.608 335.622 301.638C335.652 301.328 335.942 301.488 335.942 301.488C335.942 301.488 336.592 301.948 337.082 301.848C337.392 301.788 337.712 301.758 338.352 301.728C340.172 301.658 340.082 303.608 340.082 303.608C340.082 303.608 339.962 308.758 340.382 310.808C340.722 312.488 338.762 311.788 338.212 311.218C336.882 309.828 336.042 305.528 336.042 305.528C336.042 305.528 335.632 305.428 334.932 305.258H334.942Z" fill="#0E1A68"/>
<path d="M329.852 259.068L325.022 258.488L323.742 265.828C323.732 266.438 323.362 268.318 324.662 270.108C325.212 270.878 325.642 271.368 326.692 271.898C328.342 272.728 330.112 272.198 330.712 271.898C331.722 271.398 332.972 270.308 334.212 267.638C335.232 265.428 336.122 262.588 336.122 262.588L335.532 259.718L329.862 259.058L329.852 259.068Z" fill="white"/>
<path d="M333.562 256.288C336.342 258.408 335.922 260.518 335.952 260.538C337.192 261.448 337.262 264.338 336.622 265.348C336.082 266.218 333.542 266.418 332.582 266.378C329.882 266.258 328.312 265.078 328.242 265.078C328.212 265.078 328.782 263.118 328.602 261.848C328.592 261.758 328.292 261.458 327.572 262.858C327.542 262.918 327.202 263.388 326.792 264.068C326.622 264.368 325.862 265.158 325.832 265.048C325.832 265.048 326.042 263.078 324.342 263.638C323.442 263.928 323.862 264.708 323.912 264.828L322.312 268.068C322.242 268.198 322.162 266.968 321.622 265.448C321.042 263.808 320.482 262.428 320.442 261.818C319.952 255.228 325.122 252.758 330.622 254.608C331.672 254.958 333.572 256.288 333.572 256.288H333.562Z" fill="#110300"/>
<path d="M324.781 262.688C326.261 262.848 326.031 265.108 326.031 265.108C326.031 265.108 325.571 267.108 325.091 267.148C324.361 267.208 323.991 267.188 323.761 266.458C323.751 266.418 323.251 264.888 323.231 264.828C322.861 263.658 323.591 262.568 324.771 262.688H324.781Z" fill="white"/>
<path d="M324.932 254.998C324.932 254.998 322.272 251.638 319.472 253.628C316.672 255.628 320.062 258.268 315.862 258.858C315.862 258.858 314.632 259.778 317.602 260.388C320.582 261.008 322.462 258.648 322.592 257.138C322.782 255.048 324.942 254.988 324.942 254.988L324.932 254.998Z" fill="#110300"/>
<path d="M323.642 254.508C323.642 254.508 323.662 254.398 323.682 254.278C323.772 253.658 323.962 252.108 324.472 252.458C325.082 252.878 326.382 254.708 325.082 254.928C323.782 255.148 324.342 255.868 323.502 256.578C322.662 257.288 321.012 255.708 321.332 255.188C321.662 254.668 323.152 254.268 323.642 254.518V254.508Z" fill="#0E1A68"/>
<path d="M334.151 281.388C334.151 281.388 333.361 281.048 333.471 279.918C333.581 278.788 334.321 277.708 335.081 277.738C335.841 277.768 336.491 277.868 336.651 279.138C336.741 279.808 336.551 280.018 336.381 280.408C336.211 280.798 335.001 281.998 334.141 281.388H334.151Z" fill="#0E1A68"/>
<path d="M335.551 279.528C335.131 279.298 334.461 279.658 334.011 280.218C333.951 280.078 333.901 279.878 333.981 279.598C334.151 279.018 334.661 278.528 335.051 278.628C335.441 278.718 335.771 278.838 335.721 279.518C335.721 279.568 335.701 279.588 335.691 279.618C335.641 279.588 335.591 279.558 335.541 279.528H335.551Z" fill="#0E1A68"/>
<path d="M328.23 290.418C328.36 290.438 332.19 291.138 333.85 288.308C334.94 286.448 333.01 286.108 331.73 286.748C330.99 287.118 329.12 287.288 328.35 287.328C326.51 287.408 326.36 290.138 328.24 290.418H328.23Z" fill="#0E1A68"/>
<path d="M332.861 292.738C332.861 292.738 332.961 292.108 331.701 291.878C330.441 291.648 328.681 291.238 328.681 291.238C328.681 291.238 328.781 289.928 327.941 289.318C327.111 288.708 326.301 289.178 326.051 289.518C325.801 289.848 324.661 291.848 324.661 291.848C324.661 291.848 323.531 293.768 326.031 294.518C327.821 295.058 330.811 294.978 330.811 294.978C330.811 294.978 332.991 294.798 332.861 292.738Z" fill="#0E1A68"/>
<path d="M325.961 290.248C326.081 290.018 326.601 289.598 327.211 290.138C327.931 290.758 327.831 291.398 327.121 292.428C326.411 293.458 325.701 293.938 325.161 293.658C324.231 293.168 325.051 291.688 325.051 291.688L325.971 290.258L325.961 290.248Z" fill="#5B68B7"/>
<path d="M337.261 289.268C337.261 289.368 336.701 292.668 336.371 293.808C336.031 294.968 333.751 296.838 330.871 294.888C328.561 293.328 328.741 291.138 329.681 289.728C330.351 288.728 333.251 287.318 333.251 287.318L337.261 289.258V289.268Z" fill="#0E1A68"/>
<path d="M332.071 289.018C332.661 288.948 334.321 289.118 334.061 291.288C333.841 293.058 332.871 294.008 331.291 294.018C330.651 294.018 330.031 293.578 329.521 293.038C329.321 291.958 329.751 291.188 330.141 290.538C330.671 289.648 331.631 288.958 332.081 289.018H332.071Z" fill="#5B68B7"/>
<path d="M336.75 279.528C336.75 279.528 341.09 280.938 341.29 283.838C341.43 285.828 341.02 288.138 339.67 289.338C338 290.808 335.47 289.808 334.19 289.198C332.71 288.508 330.59 286.628 330.58 284.498C330.57 282.128 333.6 278.448 336.75 279.538V279.528Z" fill="#0E1A68"/>
<path d="M340.991 285.518C340.991 285.518 341.841 285.518 342.201 284.448C342.561 283.368 342.311 282.078 341.601 281.808C340.891 281.528 340.291 281.538 340.031 282.158C339.771 282.788 339.861 283.148 339.861 283.568C339.861 283.998 339.961 285.728 340.991 285.518Z" fill="#0E1A68"/>
<path d="M340.061 284.908C340.291 284.198 340.142 283.358 339.672 283.178C339.622 283.158 339.581 283.178 339.521 283.158C339.531 283.048 339.541 282.928 339.611 282.788C339.781 282.378 340.171 282.378 340.641 282.558C341.101 282.748 341.261 283.588 341.031 284.288C340.801 284.998 340.241 284.988 340.241 284.988C340.161 284.998 340.121 284.958 340.051 284.938C340.051 284.938 340.061 284.928 340.061 284.918V284.908Z" fill="#0E1A68"/>
<path d="M334.681 283.948C334.831 284.028 337.611 285.518 336.531 287.188C336.011 287.988 335.151 288.438 334.091 288.418C333.021 288.418 332.101 287.438 331.921 286.378C331.701 285.178 331.671 282.378 334.681 283.938V283.948Z" fill="#5B68B7"/>
<path d="M333.831 284.058C334.521 284.448 334.821 284.758 334.861 284.818C335.031 285.048 335.061 285.358 334.861 285.748C334.661 286.148 334.221 286.328 333.721 286.328C333.221 286.328 332.851 285.858 332.701 285.378C332.531 284.808 332.781 283.458 333.841 284.058H333.831Z" fill="#0E1A68"/>
<path d="M336.331 284.408C336.271 284.688 336.431 284.958 336.671 285.008C336.921 285.058 337.171 284.878 337.231 284.598C337.291 284.318 337.141 284.058 336.881 284.008C336.631 283.958 336.381 284.138 336.331 284.408Z" fill="#0E1A68"/>
<path opacity="0.75" d="M336.831 284.568C336.811 284.678 336.861 284.768 336.951 284.788C337.051 284.808 337.141 284.738 337.161 284.638C337.181 284.538 337.121 284.438 337.031 284.418C336.941 284.398 336.851 284.468 336.831 284.568Z" fill="white"/>
<path d="M333.69 282.518C333.63 282.798 333.79 283.068 334.04 283.118C334.29 283.168 334.54 282.988 334.59 282.708C334.65 282.438 334.5 282.168 334.25 282.118C334 282.068 333.75 282.248 333.69 282.518Z" fill="#0E1A68"/>
<path opacity="0.75" d="M334.1 282.718C334.08 282.818 334.14 282.918 334.23 282.938C334.32 282.958 334.42 282.888 334.44 282.788C334.46 282.688 334.41 282.588 334.31 282.568C334.22 282.548 334.12 282.618 334.1 282.718Z" fill="white"/>
<path d="M333.211 287.367H333.301L333.331 286.907C333.361 286.457 333.661 285.647 333.661 285.637L333.581 285.607C333.581 285.607 333.281 286.437 333.241 286.907L333.201 287.367H333.211Z" fill="#0E1A68"/>
<path d="M333.671 287.618C334.201 287.728 334.701 287.388 334.721 287.368L334.631 287.228C334.631 287.228 333.941 287.708 333.381 287.308C332.811 286.888 332.711 285.958 332.711 285.948H332.551C332.551 286.008 332.651 286.978 333.281 287.438C333.411 287.528 333.541 287.588 333.671 287.618Z" fill="#0E1A68"/>
<path d="M335.35 294.188C335.35 294.188 335.28 293.588 334.05 293.698C332.82 293.808 331.85 294.308 331.85 294.308C331.85 294.308 331.6 293.068 330.67 292.728C329.74 292.388 328.87 292.798 328.73 293.168C328.59 293.548 328.05 295.688 328.05 295.688C328.05 295.688 327.42 297.998 330.25 298.038C332.04 298.068 334.02 296.798 334.02 296.798C334.02 296.798 335.99 296.068 335.34 294.188H335.35Z" fill="#0E1A68"/>
<path d="M328.841 293.857C328.891 293.607 329.511 293.327 330.211 293.667C331.031 294.057 331.111 294.667 330.721 295.807C330.341 296.947 329.811 297.517 329.231 297.447C327.751 297.287 328.361 295.417 328.361 295.417L328.841 293.857Z" fill="#5B68B7"/>
<path d="M337.43 296.948C337.5 296.828 339.72 293.478 337.99 290.558C337.02 288.918 335.51 290.698 335.5 292.228C335.5 293.128 334.98 294.888 334.67 295.648C333.96 297.448 336.4 298.618 337.42 296.958L337.43 296.948Z" fill="#0E1A68"/>
<path d="M335.291 297.518C335.741 297.208 335.871 296.728 335.871 296.708L336.031 296.728C336.031 296.728 335.901 297.248 335.461 297.608C335.401 297.578 335.351 297.558 335.291 297.518Z" fill="#0E1A68"/>
<path d="M336.471 296.908L336.621 296.928C336.621 296.928 336.501 297.388 336.121 297.748C336.041 297.748 335.961 297.748 335.881 297.728C336.331 297.408 336.461 296.928 336.461 296.908H336.471Z" fill="#0E1A68"/>
<path d="M319.492 273.038C319.492 273.038 321.782 273.588 320.012 278.598C318.402 283.158 318.562 285.498 318.562 285.498L329.062 289.918C329.062 289.918 328.772 288.818 330.542 288.418L332.312 288.008C332.312 288.008 332.772 288.888 331.582 289.018C330.392 289.158 335.232 290.828 335.232 290.828C335.232 290.828 336.562 291.888 334.022 292.258C331.472 292.628 330.122 292.868 323.912 291.558C317.692 290.248 316.972 289.968 316.972 289.968C316.972 289.968 313.912 289.368 314.002 287.278C314.122 284.698 314.792 278.358 315.862 275.788C317.032 272.978 318.352 272.608 319.482 273.048L319.492 273.038Z" fill="white"/>
<path d="M360.111 303.148L359.141 304.609L359.891 304.898L360.671 303.739L360.111 303.148Z" fill="white"/>
<path d="M359.722 303.288C360.022 303.118 360.272 303.258 360.272 303.598C360.272 303.948 360.032 304.368 359.732 304.548C359.432 304.728 359.182 304.588 359.182 304.238C359.182 303.888 359.432 303.468 359.732 303.288H359.722Z" fill="#293896"/>
<path d="M360.021 302.528C359.841 302.428 359.601 302.438 359.331 302.598C358.791 302.908 358.361 303.658 358.361 304.268C358.361 304.578 358.471 304.788 358.641 304.888L359.161 305.188C358.991 305.088 358.881 304.868 358.881 304.568C358.881 303.948 359.311 303.208 359.851 302.898C360.121 302.748 360.361 302.728 360.541 302.828L360.021 302.528Z" fill="#5B68B7"/>
<path d="M360.021 302.528C359.841 302.428 359.601 302.438 359.331 302.598C358.791 302.908 358.361 303.658 358.361 304.268C358.361 304.578 358.471 304.788 358.641 304.888L359.161 305.188C358.991 305.088 358.881 304.868 358.881 304.568C358.881 303.948 359.311 303.208 359.851 302.898C360.121 302.748 360.361 302.728 360.541 302.828L360.021 302.528Z" fill="#293896"/>
<path d="M357.561 300.388C357.511 300.358 357.441 300.358 357.361 300.408L347.391 304.828C347.241 304.918 347.111 305.128 347.111 305.328C347.111 305.418 347.141 305.478 347.191 305.508C348.261 306.128 350.781 307.598 351.861 308.218C351.811 308.188 351.781 308.128 351.781 308.038C351.781 307.838 351.901 307.628 352.061 307.538L352.591 307.238C352.741 306.748 353.081 306.268 353.481 306.038C353.751 305.878 353.991 305.868 354.171 305.968L354.481 306.148L358.741 303.688C358.911 303.288 359.211 302.918 359.551 302.718C359.821 302.558 360.061 302.548 360.241 302.648L360.391 302.738L360.871 302.458C360.951 302.418 361.021 302.408 361.071 302.438C360.001 301.818 358.651 300.998 357.581 300.378L357.561 300.388Z" fill="#0E1A68"/>
<path d="M354.072 306.479L353.102 307.938L353.852 308.229L354.632 307.068L354.072 306.479Z" fill="white"/>
<path d="M353.681 306.609C353.981 306.439 354.231 306.578 354.231 306.918C354.231 307.268 353.991 307.689 353.681 307.869C353.381 308.049 353.131 307.898 353.131 307.558C353.131 307.208 353.371 306.789 353.681 306.609Z" fill="#293896"/>
<path d="M353.982 305.858C353.802 305.758 353.562 305.768 353.292 305.928C352.762 306.238 352.322 306.988 352.332 307.598C352.332 307.898 352.442 308.118 352.612 308.218L353.122 308.518C352.952 308.418 352.842 308.198 352.842 307.898C352.842 307.278 353.272 306.528 353.802 306.228C354.072 306.068 354.322 306.058 354.492 306.158L353.972 305.858H353.982Z" fill="#293896"/>
<path d="M352.511 307.708C352.511 307.558 352.531 307.398 352.581 307.238L352.051 307.538C351.901 307.628 351.771 307.838 351.771 308.038C351.771 308.208 351.901 308.288 352.051 308.198L352.531 307.918C352.521 307.848 352.511 307.778 352.511 307.698V307.708Z" fill="#293896"/>
<path d="M350.402 300.888C350.402 300.888 350.402 300.868 350.382 300.868C350.352 300.818 350.332 300.798 350.292 300.768C350.292 300.768 350.282 300.758 350.272 300.748C350.252 300.728 350.232 300.718 350.222 300.708L349.702 300.408C349.632 300.368 349.562 300.368 349.512 300.388L349.342 300.488C349.342 300.488 349.452 300.468 349.522 300.508L350.042 300.808C350.042 300.808 350.082 300.828 350.092 300.848C350.092 300.848 350.102 300.858 350.112 300.868C350.262 301.008 350.382 301.328 350.222 301.428L350.392 301.328C350.392 301.328 350.472 301.248 350.472 301.158C350.472 301.088 350.452 300.988 350.392 300.888H350.402Z" fill="#293896"/>
<path d="M350.061 300.798C350.201 300.878 350.321 301.078 350.321 301.248C350.321 301.418 350.201 301.478 350.061 301.398L349.541 301.098C349.401 301.018 349.281 300.818 349.281 300.648C349.281 300.478 349.401 300.418 349.541 300.498L350.061 300.798Z" fill="#0E1A68"/>
<path d="M358.222 300.019C358.702 299.749 359.162 299.698 359.502 299.888C359.682 299.988 359.822 300.158 359.912 300.388C359.942 300.458 359.882 300.588 359.802 300.638C359.492 300.818 358.802 301.219 358.002 301.679C357.912 301.729 357.832 301.689 357.832 301.589V300.449C357.832 300.339 357.902 300.219 357.992 300.159L358.222 300.029V300.019Z" fill="white"/>
<path d="M355.822 296.698C355.442 296.478 354.952 296.498 354.422 296.728L351.732 298.278C351.332 298.578 350.952 299.008 350.662 299.508L349.612 301.318C349.522 301.468 349.402 301.598 349.282 301.668L348.112 302.338C347.902 302.458 347.712 302.668 347.572 302.918C347.432 303.168 347.352 303.448 347.352 303.678V304.878C347.352 304.968 347.392 305.028 347.432 305.058C348.502 305.678 350.742 306.958 351.812 307.578C351.762 307.548 351.732 307.488 351.732 307.398V306.198C351.732 305.968 351.802 305.688 351.942 305.438C352.082 305.188 352.282 304.978 352.482 304.858L353.652 304.188C353.772 304.118 353.892 303.988 353.982 303.838L355.032 302.028C355.322 301.528 355.702 301.098 356.102 300.798L358.792 299.248C359.322 299.018 359.812 298.998 360.192 299.218L355.812 296.698H355.822Z" fill="#5B68B7"/>
<path d="M359.502 299.889C359.162 299.699 358.702 299.739 358.232 300.019L358.002 300.149C357.912 300.199 357.832 300.329 357.832 300.439V301.579C357.832 301.629 357.852 301.669 357.882 301.689L357.962 301.729C357.962 301.729 357.912 301.679 357.912 301.619V300.479C357.912 300.379 357.982 300.239 358.072 300.189L358.302 300.059C358.782 299.779 359.242 299.739 359.582 299.929L359.502 299.889Z" fill="white"/>
<path d="M358.302 300.059C358.782 299.779 359.242 299.739 359.582 299.929C359.762 300.029 359.902 300.199 359.992 300.429C360.022 300.499 359.962 300.629 359.882 300.679C359.582 300.859 358.882 301.259 358.082 301.719C357.992 301.769 357.912 301.728 357.912 301.628V300.489C357.912 300.389 357.982 300.249 358.072 300.199L358.302 300.069V300.059Z" fill="white"/>
<path d="M348.021 302.309L347.321 302.719C347.221 302.779 347.131 302.929 347.131 303.039V303.529C347.131 303.589 347.151 303.629 347.181 303.649L347.991 304.119C347.991 304.119 347.941 304.059 347.941 303.999V303.519C347.941 303.399 348.021 303.259 348.131 303.199L348.821 302.809L348.031 302.319L348.021 302.309Z" fill="white"/>
<path d="M348.131 303.189L348.821 302.799C348.621 302.919 348.491 303.089 348.351 303.329C348.211 303.579 348.131 303.859 348.131 304.099C348.031 304.159 347.951 304.109 347.951 303.999V303.519C347.951 303.399 348.031 303.259 348.141 303.199L348.131 303.189Z" fill="#5B68B7"/>
<path d="M358.58 304.398C358.58 304.168 358.64 303.928 358.74 303.688L354.48 306.148L354.51 306.359C354.61 306.419 354.69 306.508 354.74 306.638L358.58 304.428C358.58 304.428 358.58 304.408 358.58 304.388V304.398Z" fill="#293896"/>
<path d="M359.541 302.718C359.811 302.558 360.051 302.548 360.231 302.648L360.371 302.728L360.621 302.578C360.771 302.488 360.901 302.278 360.891 302.098V300.718C360.891 299.998 360.631 299.448 360.191 299.198C359.811 298.978 359.321 298.998 358.791 299.228L356.101 300.778C355.691 301.078 355.321 301.508 355.031 302.008L353.981 303.818C353.891 303.968 353.771 304.098 353.651 304.168L352.481 304.838C352.281 304.958 352.081 305.168 351.941 305.418C351.801 305.668 351.721 305.938 351.721 306.178V307.378C351.721 307.548 351.851 307.628 352.001 307.538L352.571 307.208C352.721 306.718 353.061 306.238 353.461 306.008C353.731 305.848 353.971 305.838 354.151 305.938L354.451 306.118L358.711 303.658C358.891 303.258 359.181 302.888 359.521 302.698L359.541 302.718ZM357.321 302.058C356.771 302.378 356.211 302.698 355.721 302.978C354.901 303.448 354.281 303.808 354.271 303.808L355.131 302.268C355.391 301.808 355.761 301.418 356.141 301.208L357.321 300.528C357.411 300.478 357.481 300.518 357.481 300.628V301.768C357.481 301.878 357.411 301.998 357.321 302.058ZM357.831 301.578V300.438C357.831 300.328 357.901 300.208 357.991 300.148L358.221 300.018C358.701 299.748 359.161 299.698 359.501 299.888C359.681 299.988 359.821 300.158 359.911 300.388C359.941 300.458 359.881 300.588 359.801 300.638C359.491 300.818 358.801 301.218 358.001 301.678C357.911 301.728 357.831 301.688 357.831 301.588V301.578Z" fill="#5B68B7"/>
<path d="M360.651 303.048C360.711 303.078 360.731 303.138 360.781 303.198C360.931 303.118 361.131 302.858 361.141 302.618C361.141 302.438 361.021 302.368 360.861 302.458L360.381 302.738L360.591 303.008L360.651 303.048Z" fill="#293896"/>
<path d="M360.162 300.918C360.112 300.888 360.042 300.888 359.962 300.938C359.802 301.028 359.682 301.248 359.682 301.428C359.682 301.518 359.712 301.578 359.762 301.608L359.812 301.638C359.762 301.608 359.732 301.548 359.732 301.458C359.732 301.278 359.862 301.058 360.012 300.968C360.092 300.918 360.162 300.918 360.212 300.948L360.172 300.918H360.162Z" fill="#BBD2E9"/>
<path d="M360.003 300.968C360.163 300.878 360.293 300.948 360.293 301.128C360.293 301.308 360.163 301.528 360.013 301.618C359.853 301.708 359.733 301.638 359.723 301.458C359.723 301.278 359.853 301.058 360.003 300.968Z" fill="#293896"/>
<path d="M360.901 301.248V301.398L360.531 301.618C360.401 301.688 360.301 301.868 360.301 302.018C360.301 302.088 360.331 302.138 360.371 302.168L360.481 302.238C360.481 302.238 360.411 302.158 360.411 302.088C360.411 301.938 360.511 301.758 360.641 301.688L361.141 301.398L360.901 301.258V301.248Z" fill="#5B68B7"/>
<path d="M361.142 301.398V301.938L360.642 302.229C360.512 302.299 360.412 302.239 360.412 302.099C360.412 301.959 360.512 301.768 360.642 301.698L361.142 301.408V301.398Z" fill="#0E1A68"/>
<path d="M357.451 302.029C357.451 302.029 357.391 302.019 357.351 302.029L354.451 303.699V306.129L354.531 306.169V303.739L357.421 302.069C357.461 302.049 357.491 302.049 357.521 302.069L357.441 302.019L357.451 302.029Z" fill="#293896"/>
<path d="M357.571 302.169C357.571 302.079 357.511 302.049 357.431 302.089L354.531 303.759V306.189L357.431 304.519C357.511 304.479 357.571 304.369 357.571 304.279V302.169ZM357.201 302.909L356.951 303.049C356.851 303.109 356.771 303.059 356.771 302.949V302.889L357.381 302.539V302.599C357.381 302.709 357.301 302.849 357.201 302.909Z" fill="#5B68B7"/>
<path d="M354.292 303.538C354.292 303.538 354.242 303.528 354.212 303.538C354.142 303.578 354.092 303.668 354.092 303.738C354.092 303.778 354.102 303.798 354.122 303.808L354.192 303.848C354.192 303.848 354.162 303.808 354.162 303.768C354.162 303.698 354.212 303.608 354.282 303.568C354.312 303.548 354.342 303.548 354.362 303.568L354.292 303.528V303.538Z" fill="white"/>
<path d="M354.282 303.578C354.352 303.538 354.402 303.578 354.402 303.648C354.402 303.718 354.352 303.808 354.282 303.848C354.222 303.888 354.162 303.848 354.162 303.778C354.162 303.708 354.212 303.618 354.282 303.578Z" fill="#293896"/>
<path d="M357.432 300.518C357.432 300.518 357.362 300.498 357.312 300.528L356.132 301.208C355.752 301.428 355.392 301.808 355.122 302.268L354.262 303.808L354.342 303.848L355.202 302.308C355.472 301.848 355.832 301.458 356.212 301.248L357.392 300.568C357.392 300.568 357.482 300.538 357.512 300.568L357.442 300.528L357.432 300.518Z" fill="white"/>
<path d="M357.392 300.568C357.482 300.518 357.562 300.568 357.562 300.668V301.808C357.562 301.908 357.492 302.038 357.402 302.088C356.862 302.398 356.312 302.719 355.832 302.999C355.002 303.479 354.372 303.838 354.352 303.848L355.212 302.308C355.482 301.848 355.842 301.459 356.222 301.249L357.402 300.568H357.392Z" fill="white"/>
<path d="M355.62 303.708C355.62 303.708 355.62 303.698 355.6 303.688C355.57 303.638 355.55 303.618 355.52 303.588C355.52 303.588 355.51 303.578 355.5 303.568C355.48 303.558 355.46 303.538 355.45 303.528L354.93 303.228C354.86 303.188 354.8 303.178 354.75 303.208L354.58 303.308C354.58 303.308 354.69 303.288 354.76 303.328L355.28 303.628C355.28 303.628 355.32 303.658 355.34 303.668C355.34 303.668 355.34 303.668 355.36 303.678C355.51 303.818 355.63 304.138 355.47 304.238L355.64 304.138C355.64 304.138 355.72 304.048 355.72 303.968C355.72 303.898 355.7 303.798 355.64 303.698L355.62 303.708Z" fill="#293896"/>
<path d="M355.28 303.628C355.42 303.708 355.54 303.908 355.54 304.078C355.54 304.248 355.42 304.308 355.28 304.228L354.76 303.928C354.62 303.848 354.5 303.648 354.5 303.478C354.5 303.308 354.62 303.248 354.76 303.328L355.28 303.628Z" fill="#0E1A68"/>
<path d="M354.54 303.719L354.39 303.628C354.39 303.628 354.35 303.618 354.34 303.628L354.25 303.679C354.25 303.679 354.28 303.679 354.3 303.679L354.45 303.768C354.45 303.768 354.53 303.798 354.56 303.778L354.65 303.729C354.65 303.729 354.58 303.739 354.54 303.719Z" fill="white"/>
<path d="M354.771 303.468C354.771 303.468 354.731 303.458 354.721 303.468L354.631 303.518C354.631 303.518 354.661 303.518 354.681 303.518C354.711 303.528 354.731 303.558 354.741 303.588C354.741 303.608 354.761 303.628 354.761 303.648V303.768C354.761 303.868 354.721 303.938 354.671 303.968L354.761 303.918C354.821 303.888 354.851 303.818 354.851 303.718V303.598C354.851 303.598 354.821 303.488 354.771 303.468Z" fill="white"/>
<path d="M354.681 303.528C354.681 303.528 354.761 303.608 354.761 303.658V303.778C354.761 303.978 354.621 304.048 354.451 303.958L354.301 303.868C354.301 303.868 354.221 303.788 354.221 303.738C354.221 303.688 354.261 303.668 354.301 303.688L354.451 303.778C354.541 303.828 354.601 303.778 354.601 303.688V303.568C354.601 303.568 354.641 303.498 354.681 303.528Z" fill="#293896"/>
<path d="M354.64 303.548L354.59 303.578C354.59 303.578 354.68 303.658 354.64 303.678L354.69 303.648C354.69 303.648 354.7 303.638 354.7 303.618C354.7 303.578 354.66 303.538 354.63 303.548H354.64Z" fill="#BBD2E9"/>
<path d="M354.62 303.579C354.62 303.579 354.66 303.619 354.66 303.649C354.66 303.679 354.64 303.689 354.62 303.669C354.6 303.659 354.58 303.629 354.58 303.599C354.58 303.569 354.6 303.559 354.62 303.579Z" fill="#5B68B7"/>
<path d="M357.462 302.588V302.648C357.462 302.768 357.382 302.908 357.282 302.968L357.032 303.118C356.932 303.178 356.842 303.128 356.842 303.008V302.948L357.462 302.588Z" fill="#293896"/>
<path d="M356.832 302.948L357.452 302.588L357.372 302.538L357.342 302.558L357.392 302.588L356.822 302.918L356.772 302.888L356.752 302.908V302.968C356.752 303.028 356.772 303.068 356.802 303.088L356.882 303.138C356.882 303.138 356.832 303.078 356.832 303.018V302.958V302.948Z" fill="#5B68B7"/>
<path d="M357.352 302.559L357.402 302.589L357.342 302.619L357.352 302.559Z" fill="#293896"/>
<path d="M353.802 306.228C354.342 305.918 354.772 306.168 354.772 306.778C354.772 307.388 354.342 308.138 353.802 308.448C353.262 308.758 352.832 308.508 352.832 307.898C352.832 307.278 353.262 306.528 353.792 306.228H353.802ZM353.822 307.978C354.122 307.798 354.372 307.378 354.362 307.028C354.362 306.678 354.112 306.538 353.812 306.718C353.512 306.898 353.262 307.318 353.262 307.668C353.262 308.018 353.512 308.158 353.812 307.988L353.822 307.978Z" fill="#0E1A68"/>
<path d="M359.851 302.899C360.391 302.589 360.821 302.839 360.821 303.459C360.821 304.069 360.391 304.819 359.851 305.129C359.311 305.439 358.881 305.189 358.881 304.579C358.881 303.959 359.311 303.219 359.851 302.909V302.899ZM359.861 304.649C360.161 304.479 360.411 304.049 360.411 303.699C360.411 303.349 360.161 303.209 359.861 303.389C359.561 303.569 359.311 303.989 359.321 304.339C359.321 304.689 359.571 304.829 359.871 304.649H359.861Z" fill="#0E1A68"/>
<path d="M352.512 304.849H352.502C352.302 304.969 352.102 305.189 351.962 305.439C351.822 305.689 351.742 305.959 351.742 306.189L351.822 306.229C351.822 305.999 351.902 305.729 352.042 305.479C352.182 305.229 352.372 305.019 352.582 304.899H352.592L352.512 304.849Z" fill="#5B68B7"/>
<path d="M352.592 304.889V305.269C352.592 305.549 352.392 305.889 352.152 306.029L351.822 306.219C351.822 305.989 351.902 305.709 352.042 305.469C352.182 305.219 352.382 305.009 352.592 304.889Z" fill="#5B68B7"/>
<path d="M351.661 304.318L350.881 304.758C350.781 304.818 350.691 304.968 350.691 305.088V305.568C350.691 305.628 350.711 305.668 350.751 305.688L351.691 306.238C351.691 306.238 351.641 306.178 351.641 306.118V305.638C351.641 305.518 351.721 305.378 351.831 305.318L352.601 304.898L351.671 304.328L351.661 304.318Z" fill="white"/>
<path d="M351.821 305.309L352.591 304.889C352.391 305.009 352.181 305.209 352.041 305.449C351.901 305.699 351.821 305.979 351.821 306.219C351.721 306.279 351.641 306.229 351.641 306.119V305.639C351.641 305.519 351.721 305.379 351.831 305.319L351.821 305.309Z" fill="#5B68B7"/>
<path d="M350.612 306.568C350.612 306.568 350.592 306.538 350.572 306.528L348.062 305.108C348.062 305.108 348.012 305.088 347.992 305.108L347.902 305.158C347.902 305.158 347.942 305.158 347.962 305.158C349.362 306.088 350.572 306.528 350.572 306.918C350.572 306.948 350.562 306.968 350.542 306.978L350.632 306.928C350.632 306.928 350.662 306.899 350.662 306.869C350.662 306.759 350.682 306.648 350.612 306.558V306.568Z" fill="white"/>
<path d="M350.471 306.588C350.521 306.618 350.561 306.688 350.561 306.748V306.928C350.561 306.988 350.521 307.008 350.461 306.978L347.951 305.548C347.901 305.518 347.861 305.448 347.861 305.388V305.208C347.861 305.148 347.901 305.128 347.951 305.158L350.461 306.588H350.471Z" fill="#293896"/>
<path d="M351.691 298.988C351.531 298.888 351.321 298.918 351.201 299.068C351.071 299.228 350.951 299.408 350.851 299.588L349.881 301.248C349.791 301.398 349.831 301.598 349.991 301.688L353.491 303.698C353.651 303.788 353.851 303.748 353.941 303.588L354.911 301.938C355.021 301.758 355.131 301.578 355.261 301.418C355.361 301.288 355.331 301.098 355.191 301.008L351.691 298.998V298.988Z" fill="white"/>
<path d="M351.601 298.948C351.441 298.858 351.231 298.878 351.121 299.028C350.991 299.188 350.871 299.368 350.771 299.548L349.801 301.218C349.711 301.368 349.761 301.568 349.911 301.658L353.411 303.668C353.571 303.758 353.771 303.718 353.871 303.558L354.831 301.888C354.941 301.708 355.061 301.529 355.181 301.369C355.281 301.239 355.251 301.048 355.111 300.958L351.611 298.948H351.601Z" fill="white"/>
<path d="M352.311 306.148C352.311 306.148 352.251 306.138 352.211 306.148L351.631 306.478V306.798L351.751 306.868V306.548L352.331 306.218C352.371 306.198 352.401 306.188 352.431 306.218L352.321 306.148H352.311Z" fill="#5B68B7"/>
<path d="M351.431 306.248C351.431 306.248 351.361 306.228 351.331 306.248L351.211 306.318C351.211 306.318 351.271 306.308 351.311 306.318L351.731 306.558V306.868L351.851 306.798V306.488L351.431 306.248Z" fill="#5B68B7"/>
<path d="M351.742 306.558V306.878L351.322 306.638C351.242 306.598 351.182 306.488 351.182 306.398C351.182 306.308 351.242 306.278 351.322 306.318L351.742 306.558Z" fill="#0E1A68"/>
<path d="M352.322 306.229C352.402 306.189 352.462 306.229 352.462 306.309C352.462 306.389 352.402 306.509 352.332 306.549L351.742 306.889V306.569L352.322 306.229Z" fill="#0E1A68"/>
<path d="M347.502 304.118C347.582 304.158 347.642 304.268 347.642 304.358C347.642 304.448 347.582 304.478 347.502 304.438L347.152 304.238V303.918L347.502 304.118Z" fill="#0E1A68"/>
<path d="M347.612 304.059L347.362 303.909V303.809L347.162 303.929L347.512 304.129C347.622 304.199 347.702 304.409 347.612 304.459L347.722 304.389C347.722 304.389 347.762 304.339 347.762 304.299C347.762 304.219 347.702 304.109 347.622 304.059H347.612Z" fill="#5B68B7"/>
<g opacity="0.13" style="mix-blend-mode:multiply">
<path d="M384.18 285.328L373.43 285.158L366.84 294.788C366.84 294.788 364.06 296.938 365.37 298.428C366.58 299.818 371.87 299.728 371.87 299.728L367.97 307.968C367.97 307.968 367.8 310.048 369.97 309.008C372.14 307.968 374.31 303.288 374.31 303.288C374.31 303.288 384.11 303.808 388.53 302.598C391.53 301.778 394.43 296.878 394.43 296.878C394.43 296.878 396.68 296.448 397.03 297.488C397.38 298.528 398.16 299.478 401.02 299.138C403.88 298.788 405.37 298.208 406.66 296.798C407.53 295.848 407.96 288.998 384.2 285.348L384.18 285.328Z" fill="#293896"/>
</g>
<path d="M386.101 294.548C386.101 294.548 382.461 294.178 382.431 295.098C382.401 296.028 381.961 296.468 383.781 297.028C385.601 297.578 386.101 294.548 386.101 294.548Z" fill="#0E1A68"/>
<path d="M380.692 271.768L377.822 281.548L380.132 284.428L384.012 274.518L383.772 272.528L380.692 271.768Z" fill="white"/>
<path d="M371.391 279.038C371.391 279.038 372.991 279.858 374.221 280.028C375.451 280.208 376.021 281.008 376.171 281.558C376.311 282.108 377.971 285.818 377.901 286.018C377.831 286.218 375.751 287.618 375.231 287.798C374.101 288.188 372.781 286.188 371.881 285.318C371.291 284.758 370.421 282.858 370.341 280.968C370.271 279.458 371.401 279.028 371.401 279.028L371.391 279.038Z" fill="#293896"/>
<path d="M381.831 284.638L371.931 278.888C371.931 278.888 368.061 278.588 368.261 282.078C368.381 284.248 369.541 293.248 369.581 293.348C370.311 295.518 373.871 292.858 373.871 292.858C373.871 292.858 373.611 291.638 374.021 289.108C374.451 286.438 372.901 283.198 372.901 283.198C372.901 283.198 377.991 289.818 379.971 288.288C382.561 286.288 382.571 285.368 382.571 285.368L381.851 284.638H381.831Z" fill="white"/>
<path d="M389.061 285.698L389.541 298.448C389.541 298.448 390.321 300.628 386.781 301.108C381.111 301.888 373.451 302.048 373.451 302.048C373.451 302.048 371.631 306.048 370.001 307.158C369.321 307.618 367.631 307.748 368.331 306.138C369.191 304.158 369.911 299.328 369.911 299.328C369.911 299.328 370.111 297.278 371.931 297.728C372.571 297.888 372.951 298.228 373.251 298.348C373.731 298.548 374.231 298.398 374.231 298.398C374.231 298.398 380.011 296.218 381.851 295.918C382.671 295.788 382.971 295.748 382.971 295.748L384.471 287.598L389.061 285.698Z" fill="white"/>
<path d="M374.721 287.838C374.721 287.838 376.962 287.118 374.922 282.318C373.742 279.538 371.771 278.818 371.771 278.818C371.771 278.818 373.391 278.998 376.241 280.338C378.951 281.618 381.591 282.808 381.591 282.808C381.591 282.808 385.061 290.468 383.431 290.958C381.221 291.618 374.732 287.838 374.732 287.838H374.721Z" fill="#293896"/>
<path d="M389.441 299.739C389.441 299.739 389.751 295.159 385.371 294.739C382.881 294.499 382.441 295.109 382.441 295.109C382.441 295.109 382.711 291.859 382.531 290.799C381.491 284.379 380.621 284.899 380.621 284.899C380.621 284.899 390.771 282.309 392.051 283.769C393.321 285.219 391.871 294.458 391.381 296.508C390.751 299.148 389.431 299.739 389.431 299.739H389.441Z" fill="#293896"/>
<path d="M385.722 288.959C385.162 289.109 385.042 289.549 385.452 289.949C385.862 290.339 386.652 290.549 387.222 290.399C387.782 290.249 387.912 289.809 387.502 289.419C387.092 289.029 386.292 288.819 385.732 288.969L385.722 288.959Z" fill="#293896"/>
<path d="M386.231 288.168L385.941 289.448C385.921 289.528 385.911 289.618 386.001 289.708C386.191 289.878 386.541 289.968 386.791 289.898C386.921 289.868 386.991 289.798 387.011 289.718L387.341 288.438C387.321 288.518 387.241 288.588 387.121 288.618C386.871 288.688 386.511 288.608 386.331 288.428C386.241 288.338 386.201 288.248 386.221 288.168H386.231Z" fill="#0E1A68"/>
<path d="M386.452 287.988C386.202 288.058 386.152 288.258 386.332 288.428C386.522 288.598 386.872 288.688 387.122 288.618C387.372 288.548 387.422 288.348 387.242 288.178C387.052 288.008 386.702 287.918 386.452 287.988Z" fill="#0E1A68"/>
<path d="M384.401 276.628C384.401 276.628 380.601 277.458 378.941 274.918C378.881 274.828 379.701 273.318 380.391 271.518C381.101 269.648 381.831 268.098 382.851 267.748C383.431 267.548 386.521 266.458 386.951 268.888C387.071 269.578 384.401 276.648 384.401 276.648V276.628Z" fill="#5B68B7"/>
<path d="M383.512 267.308C382.082 269.018 381.442 271.588 381.592 275.338C381.672 277.388 383.112 282.008 380.082 282.108C379.922 282.108 381.692 282.938 382.392 285.648C383.572 290.138 385.122 290.858 386.542 291.618C388.082 292.438 392.032 290.558 392.032 290.558C392.182 290.428 392.582 289.678 392.972 287.758C394.012 282.708 394.502 278.058 394.612 276.178C394.722 274.138 394.852 273.298 394.852 273.298C394.642 272.438 394.132 271.618 393.492 270.898C393.182 270.548 392.702 270.068 392.162 269.538C391.162 268.578 390.002 267.538 389.822 267.388C387.802 265.738 386.482 267.198 386.482 267.198C386.482 267.198 384.482 266.148 383.512 267.308Z" fill="#5B68B7"/>
<path d="M391.441 267.998C391.211 266.308 392.191 263.538 392.191 263.538L385.831 265.108L386.041 268.098C386.041 268.098 384.231 269.118 384.601 271.288C384.841 272.688 386.261 273.828 387.991 273.248C390.621 272.368 391.981 269.898 392.151 269.548C391.711 269.048 391.511 268.838 391.441 267.998Z" fill="white"/>
<path d="M388.462 255.308L393.082 257.138L390.472 264.788C390.192 265.418 389.602 266.878 387.492 267.688C387.492 267.688 386.092 268.208 384.652 268.168C382.762 268.108 381.722 267.208 381.242 266.518C380.552 265.528 380.142 264.338 380.182 261.858C380.222 259.508 381.032 255.358 381.032 255.358L383.062 253.118L388.472 255.298L388.462 255.308Z" fill="white"/>
<path d="M390.111 250.008C388.831 249.918 386.361 250.608 386.361 250.608C384.471 249.628 383.361 251.098 382.001 251.888C380.091 252.988 380.281 251.608 380.191 251.738C379.561 252.578 379.071 255.518 381.751 255.958C382.681 257.998 384.611 258.008 386.381 256.918C387.171 256.428 387.991 256.488 387.911 257.548C387.771 259.568 389.971 258.768 389.031 260.938C388.891 261.258 389.051 262.728 389.141 262.638C389.141 262.638 389.911 260.768 391.171 262.098C391.831 262.798 390.581 264.558 390.491 264.648C390.491 264.648 391.231 265.718 391.681 265.438C393.061 264.608 393.391 264.078 393.721 263.738C395.421 261.928 396.111 260.008 396.251 258.208C396.501 254.858 394.451 253.998 394.351 253.458C393.861 250.838 391.701 250.128 390.111 250.008Z" fill="#462712"/>
<path d="M391.241 261.038C389.841 260.458 388.941 262.598 388.941 262.598C388.941 262.598 388.381 264.618 388.791 264.888C389.421 265.288 389.761 265.458 390.321 264.928C390.351 264.898 391.541 263.758 391.591 263.718C392.501 262.848 392.371 261.508 391.241 261.048V261.038Z" fill="white"/>
<path d="M393.252 272.898C393.252 272.898 394.612 271.298 395.812 274.178C396.352 275.468 398.482 279.268 399.722 283.278C401.252 288.238 402.452 293.958 402.452 293.958C402.452 293.958 404.252 294.758 405.842 295.558C407.442 296.358 406.602 296.838 405.482 297.318C404.362 297.798 401.332 296.678 401.332 296.678L399.712 298.048C399.712 298.048 398.752 298.608 398.672 298.048C398.642 297.828 399.592 296.778 399.652 296.078C399.772 294.478 400.052 294.438 400.052 294.438L392.282 275.928C392.282 275.928 391.722 273.768 393.242 272.898H393.252Z" fill="white"/>
<path d="M393.621 280.348C393.621 280.348 394.941 280.168 396.351 279.308C398.161 278.218 398.491 277.408 398.491 277.408C398.491 277.408 395.761 273.138 394.831 272.248C394.041 271.488 392.991 271.528 392.291 271.988C391.601 272.448 391.001 273.658 391.631 275.428C392.261 277.198 393.621 280.338 393.621 280.338V280.348Z" fill="#5B68B7"/>
<path d="M369.072 291.708C369.072 291.708 369.302 292.858 366.972 294.358C366.492 294.668 365.502 295.098 364.982 295.448C364.402 295.838 364.432 296.178 364.392 296.488C364.372 296.688 364.412 296.878 364.532 297.038C364.852 297.418 365.542 297.738 366.112 297.908C367.802 298.398 369.612 297.428 369.612 297.428C369.912 297.268 372.832 295.818 373.972 295.428C374.972 295.088 374.642 293.988 374.602 293.638C374.562 293.248 374.192 292.118 374.192 292.118C374.192 292.118 374.282 290.238 373.832 290.548C373.792 290.578 373.272 291.668 371.582 291.968C370.772 292.118 369.772 291.968 369.502 291.618C369.102 291.098 369.062 291.728 369.062 291.728L369.072 291.708Z" fill="#0E1A68"/>
<path d="M374.622 302.018C374.622 302.018 374.042 301.618 374.122 300.378C374.212 299.048 374.382 299.188 374.692 298.228C374.732 297.918 374.402 298.008 374.402 298.008C374.402 298.008 373.652 298.328 373.172 298.128C372.882 298.008 372.562 297.908 371.922 297.748C370.112 297.288 369.792 299.268 369.792 299.268C369.792 299.268 368.822 304.478 367.962 306.458C367.262 308.068 369.382 307.788 370.062 307.328C371.702 306.208 373.442 302.068 373.442 302.068C373.442 302.068 373.882 302.068 374.622 302.038V302.018Z" fill="#0E1A68"/>
<path d="M252.037 209.104C251.052 216.546 251.5 218.346 251.975 222.726C252.449 227.105 254.424 237.479 254.908 239.24C255.391 241.001 262.844 244.118 263.397 241.231C263.95 238.344 262.831 223.009 262.551 218.812C262.27 214.616 252.037 209.104 252.037 209.104Z" fill="#0E1A68"/>
<path d="M258.313 216.184C257.933 220.741 258.271 222.682 258.724 223.713C259.18 224.744 261.685 225.503 261.685 225.503C261.685 225.503 262.107 238.749 263.409 243.24C264.712 247.729 270.483 245.882 270.753 243.621C271.023 241.36 271.821 235.142 272.545 229.595C273.269 224.047 273.88 219.037 272.21 213.141C270.539 207.247 258.313 216.184 258.313 216.184Z" fill="#0E1A68"/>
<path d="M262.273 264.039C262.273 264.039 261.986 265.089 261.548 267.328C261.405 268.058 260.393 267.573 260.393 267.573C260.393 267.573 260.358 265.088 260.009 264.633C259.658 264.179 262.273 264.039 262.273 264.039Z" fill="#293896"/>
<path d="M257.292 258.211C257.295 259.611 257.202 260.009 257.131 260.605C256.959 262.045 254.596 263.177 254.191 263.716C253.785 264.255 251.214 267.253 251.214 267.253C251.214 267.253 251.17 268.018 251.424 268.325C251.679 268.633 251.608 269.59 253.203 269.02C254.797 268.451 255.986 265.754 258.898 265.657C259.888 265.625 262.458 265.208 262.266 263.359C262.075 261.509 261.42 258.096 261.42 258.096L259.83 256.25L257.292 258.211Z" fill="white"/>
<path d="M256.467 261.887C256.467 261.887 254.111 264.022 253.578 264.634C253.046 265.247 253.208 265.582 254.059 265.807C254.94 266.04 256.016 265.308 258.101 264.083C259.256 263.404 259.259 263.497 260.576 262.884C261.895 262.272 262.115 262.165 262.009 261.495C261.903 260.824 261.827 260.382 261.827 260.382C261.827 260.382 262.405 261.17 262.527 262.691C262.649 264.215 262.598 265.019 260.533 265.561C257.908 266.249 259.767 265.656 258.87 265.992C258.356 266.185 257.628 267.346 255.931 268.641C254.234 269.935 251.23 269.964 250.699 269.935C249.404 269.865 248.798 268.681 250.262 267.346C251.804 265.94 254.611 263.19 256.467 261.887Z" fill="#293896"/>
<path d="M260.527 235.127C261.671 236.536 262.575 237.446 262.969 239.886C263.363 242.326 263.359 245.816 262.969 250.963C262.578 256.111 262.578 260.037 262.533 261.259C262.489 262.48 258.956 262.831 257.82 262.525C256.686 262.219 256.468 261.957 256.294 261.129C256.119 260.301 255.117 239.944 254.906 239.239C254.695 238.533 260.527 235.127 260.527 235.127Z" fill="#0E1A68"/>
<path d="M267.523 265.936C267.235 267.296 265.363 269.316 264.773 271.047C264.456 271.975 263.835 274.371 264.786 274.608C264.797 274.611 264.808 274.613 264.818 274.616C265.91 274.865 267.509 274.728 268.368 274.145C269.226 273.561 271.565 269.506 271.94 269.093C272.313 268.679 272.158 268.208 272.22 267.787C272.438 266.254 271.488 265.357 271.573 264.654C271.658 263.951 271.943 261.583 271.943 261.583L269.514 261.125C269.514 261.125 267.816 263.028 267.838 263.796C267.859 264.567 267.523 265.936 267.523 265.936Z" fill="white"/>
<path d="M267.169 266.952C267.169 266.952 265.06 270.167 264.737 271.489C264.414 272.811 266.463 273.029 267.553 272.311C268.66 271.584 269.319 270.077 270.37 268.911C271.288 267.89 272.07 267.263 272.124 266.896C272.221 266.248 271.753 265.604 271.753 265.604C271.753 265.604 272.536 266.064 272.618 267.766C272.702 269.51 272.626 269.51 271.939 270.23C271.335 270.865 270.358 273.387 268.393 275.123C267.253 276.129 265.143 276.858 263.664 276.879C261.907 276.622 261.537 275.826 262.077 274.79C262.402 274.169 263.423 273.059 264.543 271.083C265.324 269.704 267.169 266.952 267.169 266.952Z" fill="#293896"/>
<path d="M272.476 269.305C272.476 269.305 272.299 271.473 272.194 272.509C272.136 273.07 272.125 273.093 272.125 273.093C272.125 273.093 272.138 273.07 271.696 273.229C271.477 273.308 271.266 272.975 271.266 272.975L270.887 269.242L272.476 269.305Z" fill="#293896"/>
<path d="M270.867 239.402C272.961 244.594 273.529 246.95 273.746 250.963C273.965 254.976 272.307 264.182 272.307 265.884C272.307 267.585 267.334 267.848 267.159 265.884C266.985 263.92 265.343 251.648 264.632 248.435C263.921 245.221 263.406 243.241 263.406 243.241L270.867 239.402Z" fill="#0E1A68"/>
<path d="M270.381 183.818C269.762 183.601 264.879 182.702 261.14 182.451C257.4 182.2 259.601 179.604 255.116 181.751C250.634 183.899 248.764 184.367 247.921 185.877C247.078 187.387 251.347 199.213 251.306 202.477C251.268 205.738 251.531 210.193 251.361 212.244C251.191 214.295 252.781 216.218 257.893 217.413C265.611 219.215 271.67 215.372 271.719 213.32C271.769 211.266 270.914 205.446 270.981 202.628C271.05 199.81 271.202 199.713 271.377 195.81C271.552 191.907 270.381 183.818 270.381 183.818Z" fill="#293896"/>
<path d="M261.541 181.54C262.191 183.544 263.04 185.094 264.701 186.344C265.859 185.136 267.111 184.494 267.212 183.709C267.41 182.186 265.546 180.348 265.229 177.897C264.912 175.446 262.791 174.373 262.791 174.373L261.541 181.54Z" fill="#632100"/>
<path d="M254.943 176.012C255.416 177.292 255.674 182.935 255.757 184.508C255.839 186.081 257.124 187.119 258.824 187.584C260.524 188.048 262.718 187.296 262.9 186.474C263.082 185.652 262.572 182.545 262.737 181.568C262.901 180.592 263.027 177.937 261.986 176.804C260.946 175.672 254.943 176.012 254.943 176.012Z" fill="white"/>
<path d="M256.621 173.774C256.505 175.221 256.156 178.818 256.463 180.236C256.77 181.653 257.697 182.502 258.052 182.832C258.406 183.163 262.321 184.363 262.855 184.458C263.389 184.553 264.402 184.296 264.714 183.9C265.026 183.504 265.922 179.739 266.036 177.587C266.149 175.435 266.199 174.107 265.85 172.729C265.502 171.35 264.905 170.187 263.789 169.739C262.673 169.288 259.223 169.488 257.89 170.522C256.553 171.556 256.621 173.774 256.621 173.774Z" fill="white"/>
<path d="M264.195 171.323C263.936 171.759 262.801 172.251 260.954 172.791C259.108 173.332 258.489 174.766 258.008 175.54C257.525 176.314 257.276 178.323 257.276 178.323L257.12 179.768C257.12 179.768 256.977 178.133 256.361 177.393C255.745 176.653 254.939 177.48 254.939 177.48C254.939 177.48 256.177 179.543 256.173 179.746C256.168 179.947 256.05 180.407 256.05 180.407C256.05 180.407 252.935 178.572 252.295 176.783C251.653 174.995 251.547 171.931 252.243 169.793C252.94 167.656 255.288 166.889 255.795 166.781C256.301 166.672 256.538 166.054 258.513 166.001C260.488 165.948 263.704 168.031 264.795 169.28C265.885 170.53 266.447 171.728 265.972 173.303C265.22 171.072 265.541 171.403 264.887 170.997C264.822 170.955 264.195 171.323 264.195 171.323Z" fill="#632100"/>
<path d="M252.296 176.622C252.598 178.448 250.9 181.132 250.385 183.511C249.871 185.888 252.674 187.898 252.674 187.898C252.674 187.898 254.408 188.326 255.532 188.326C256.526 188.328 258.009 188.344 258.009 188.344C258.009 188.344 256.872 183.715 256.552 181.418C256.232 179.122 255.235 177.045 255.235 177.045L254.741 175.279L252.296 176.622Z" fill="#632100"/>
<path d="M266.246 205.408C266.529 205.334 268.155 204.748 268.155 204.748C268.155 204.748 268.84 203.899 269.754 203.619C270.668 203.339 272.223 203.116 272.223 203.116C272.223 203.116 273.146 202.394 273.672 202.345C274.196 202.297 274.265 202.762 274.216 203.164C274.166 203.566 273.08 204.285 272.959 204.301C272.839 204.319 271.559 204.771 271.559 204.771L271.118 205.525L273.362 205.216C273.362 205.216 277.44 203.965 277.886 203.896C278.331 203.827 278.951 204.002 278.951 204.002C278.951 204.002 279.62 203.791 279.975 204.114C280.329 204.438 279.957 204.851 279.957 204.851L279.682 205.369C279.682 205.369 274.74 207.363 273.826 207.624C272.914 207.883 271.026 207.656 269.527 208.003C268.028 208.349 266.661 208.277 266.179 208.204C265.696 208.134 266.246 205.408 266.246 205.408Z" fill="white"/>
<path d="M270.479 183.806C278.17 188.583 279.639 189.526 281.702 190.824C283.766 192.122 285.426 193.452 285.426 193.452C285.426 193.452 286.526 199.787 284.959 199.628C283.393 199.468 273.723 196.406 271.772 195.433C271.097 194.967 269.915 193.743 269.638 191.986C269.024 188.093 269.549 183.173 270.479 183.806Z" fill="#293896"/>
<path d="M292.614 189.25C291.579 188.769 290.327 189.464 289.184 190.107C288.04 190.751 284.996 192.33 284.483 192.928C283.97 193.527 282.504 198.62 283.976 199.434C285.446 200.248 286.733 199.259 288.172 198.623C289.612 197.987 295.693 194.164 295.794 192.177C295.894 190.189 292.614 189.25 292.614 189.25Z" fill="#293896"/>
<path d="M298.211 185.758C298.132 185.7 297.596 185.634 296.782 185.937C295.969 186.239 294.357 186.363 293.608 186.686C292.905 186.989 291.401 188.282 291.155 188.518C290.817 188.84 290.322 189.322 290.153 189.758C289.812 190.64 290.812 191.79 291.505 192.192C292.128 192.554 292.868 192.689 293.585 192.644C293.765 192.632 293.952 192.608 294.108 192.515C294.265 192.422 294.38 192.264 294.544 192.184C294.815 192.05 295.137 192.16 295.425 192.258C296.2 192.521 297.008 192.685 297.823 192.748C298.646 192.811 299.423 192.676 300.24 192.583L305.34 192.573L305.659 190.755C305.749 190.236 305.521 189.713 305.078 189.427L298.211 185.758Z" fill="white"/>
<path d="M296.903 186.239C297.799 186.771 299.009 188.217 299.309 188.737C299.61 189.256 299.966 190.084 299.459 190.261C297.982 190.776 296.863 189.314 296.863 189.314C296.863 189.314 295.71 187.664 295.017 187.534C294.323 187.403 292.617 187.127 293.609 186.686C294.6 186.244 296.188 185.814 296.903 186.239Z" fill="white"/>
<path d="M248.502 185.166C247.224 185.998 246.995 187.71 247 189.698C247.005 191.686 247.814 199.861 248.441 202.699C249.068 205.537 249.413 209.172 250.384 209.708C251.355 210.242 253.736 205.465 253.766 204.217C253.797 202.969 252.763 195.693 252.279 193.478C251.795 191.265 251.294 188.701 250.651 187.503C250.011 186.308 248.502 185.166 248.502 185.166Z" fill="#0E1A68"/>
<path d="M256.888 204.039C253.677 203.584 253.457 203.74 252.883 204.196C252.309 204.653 250.012 208.491 250.387 209.708C250.76 210.926 267.29 209.205 267.71 208.544C268.13 207.883 267.384 205.367 267.072 204.957C266.758 204.547 256.888 204.039 256.888 204.039Z" fill="#0E1A68"/>
<path d="M256.253 178.195C256.138 177.193 255.704 176.691 255.225 176.579C254.744 176.466 254.282 177.073 254.585 178.034C254.887 178.995 255.424 179.445 255.86 179.636C256.295 179.828 256.23 179.122 256.23 179.122L256.253 178.195Z" fill="white"/>
<path d="M560.72 272.419L582.042 284.728L568.171 290.811L545.441 290.25L560.72 272.419Z" fill="#A9A9A9"/>
<path d="M492 233.768V259.396L545.441 290.25V264.611L532.469 257.12L532.06 256.895L503.176 240.218L502.778 239.983L492 233.768Z" fill="#394AB2"/>
<path d="M494.287 238.452V246.893L543.156 275.103V266.663L531.296 259.804L530.928 259.6L504.514 244.351L504.136 244.137L501.197 242.433L494.287 238.452Z" fill="#B6C0FF"/>
<path d="M494.287 238.452V246.893L502.84 246.393L543.156 269.674V266.663L494.287 238.452Z" fill="#182264"/>
<path d="M565.395 253.007V278.645L545.441 290.25V264.612L565.395 253.007Z" fill="#293896"/>
<path d="M511.964 222.152L565.395 253.006L545.441 264.611L492 233.767L511.964 222.152Z" fill="#B6C0FF"/>
<path d="M494.287 238.452V246.893L501.605 242.667L494.287 238.452Z" fill="#293896"/>
<path d="M500.002 232.338L546.911 259.416C547.931 260.008 549.707 259.936 550.891 259.253L553.463 257.773C554.637 257.089 554.77 256.068 553.749 255.476L506.84 228.388C505.82 227.807 504.044 227.878 502.86 228.552L500.288 230.042C499.114 230.726 498.981 231.746 500.002 232.338Z" fill="#293896"/>
<path d="M560.26 250.149L560.066 249.374C560.066 249.374 560.046 248.996 559.627 248.68C559.117 248.292 557.984 247.934 555.473 248.455C550.707 249.445 547.665 248.863 547.543 248.833L547.625 248.435C547.625 248.435 550.707 249.027 555.392 248.057C557.555 247.608 559.066 247.71 559.903 248.373C560.393 248.761 560.475 249.221 560.485 249.343L560.668 250.047L560.27 250.149H560.26Z" fill="#121D65"/>
<path d="M497.512 185.103L499.328 184.052C499.471 183.97 499.675 183.981 499.9 184.113L551.463 213.885C551.912 214.141 552.269 214.763 552.269 215.274L552.167 252.772C552.167 253.017 552.075 253.19 551.943 253.282H551.932L550.075 254.354L546.166 249.21L500.676 222.949C500.227 222.694 499.869 222.071 499.869 221.561L499.961 188.339L497.512 185.113V185.103Z" fill="#121D65"/>
<path d="M509.514 238.524L511.677 238.952L519.179 234.625C519.822 234.247 520.802 234.206 521.363 234.533L530.784 242.719L538.051 242.31V243.974C538.081 244.239 537.898 244.525 537.52 244.739L528.396 250.006C527.753 250.384 526.773 250.424 526.211 250.098L509.902 240.677C509.636 240.524 509.514 240.32 509.524 240.106V238.524H509.514Z" fill="#121D65"/>
<path d="M509.891 239.045L526.201 248.465C526.762 248.792 527.742 248.751 528.385 248.373L535.223 244.434L537.52 243.107C538.163 242.729 538.234 242.168 537.673 241.841L521.363 232.421C520.801 232.094 519.822 232.135 519.179 232.513L516.882 233.839L510.044 237.789C509.401 238.167 509.329 238.728 509.891 239.055V239.045Z" fill="#2D42D0"/>
<path d="M516.883 233.839L519.18 232.513C519.823 232.135 520.802 232.094 521.364 232.421L537.674 241.841C538.235 242.168 538.164 242.729 537.521 243.107L535.224 244.434L530.56 247.128L512.219 236.534L516.883 233.839Z" fill="#132286"/>
<path d="M498.053 185.174C497.604 184.919 497.247 185.123 497.247 185.634L497.145 223.132C497.145 223.642 497.502 224.265 497.951 224.52L549.514 254.292C549.953 254.547 550.32 254.343 550.32 253.833L550.422 216.335C550.422 215.824 550.065 215.202 549.616 214.946L498.053 185.174Z" fill="#1B2B9C"/>
<path d="M498.165 186.246L549.503 215.885C549.605 215.947 549.687 216.09 549.687 216.202L549.585 253.119C549.585 253.241 549.503 253.282 549.401 253.221L498.063 223.581C497.961 223.52 497.879 223.377 497.879 223.265L497.981 186.348C497.981 186.236 498.063 186.185 498.165 186.246Z" fill="white"/>
<path d="M497.981 186.348C497.981 186.236 498.063 186.185 498.165 186.246L498.308 186.328L498.206 223.05C498.206 223.173 498.287 223.316 498.389 223.367L549.585 252.925V253.119C549.585 253.241 549.503 253.282 549.401 253.221L498.063 223.581C497.961 223.52 497.879 223.377 497.879 223.265L497.981 186.348Z" fill="#0C1553"/>
</svg>
