<svg width="705" height="468" viewBox="0 0 705 468" fill="none" xmlns="http://www.w3.org/2000/svg">
<rect width="705" height="468" fill="#E0E6F9"/>
<g opacity="0.13" style="mix-blend-mode:multiply">
<path d="M339.52 195.608L328.872 195.426L322.344 205.362C322.344 205.362 319.587 207.582 320.887 209.12C322.086 210.551 327.332 210.465 327.332 210.465L323.469 218.969C323.469 218.969 323.303 221.122 325.442 220.046C327.59 218.969 329.738 214.136 329.738 214.136C329.738 214.136 339.447 214.674 343.826 213.415C346.804 212.56 349.671 207.505 349.671 207.505C349.671 207.505 351.902 207.063 352.243 208.13C352.585 209.206 353.359 210.186 356.189 209.831C359.029 209.475 360.504 208.87 361.777 207.409C362.643 206.429 363.067 199.356 339.53 195.599L339.52 195.608Z" fill="#231F20"/>
</g>
<g style="mix-blend-mode:multiply" opacity="0.46">
<path d="M483.181 289.715C487.054 292.012 487.072 296.211 482.794 298.806L444.191 321.994C439.914 324.589 432.953 324.589 428.647 321.994L301.508 246.443C297.203 243.848 297.175 239.639 301.453 237.054L340.056 213.866C344.334 211.272 351.294 211.272 356.033 214.164L483.163 289.715H483.181Z" fill="#5E6670"/>
</g>
<path d="M401.84 211.147L413.383 204.113L416.591 239.044L401.738 248.029L401.84 211.147Z" fill="#B7B060"/>
<path d="M412.007 201.384C407.416 198.616 402.511 195.627 397.551 192.648C378.125 180.954 368.352 178.964 356.956 176.985C348.004 175.428 342.039 179.07 342.039 179.07C346.446 176.399 366.591 187.988 386.017 199.673C390.977 202.662 395.882 205.65 400.473 208.408C400.667 208.524 400.842 208.687 400.999 208.87L412.532 201.835C412.376 201.643 412.201 201.489 412.007 201.374V201.384Z" fill="#A3BAFF"/>
<path d="M400.998 208.879L412.531 201.845C412.753 202.104 412.937 202.421 413.075 202.758L401.532 209.792C401.394 209.456 401.2 209.139 400.988 208.879H400.998Z" fill="#8096D8"/>
<path d="M401.543 209.792L413.086 202.758C413.28 203.209 413.39 203.699 413.381 204.122L401.838 211.157C401.838 210.734 401.727 210.253 401.543 209.802V209.792Z" fill="#8096D8"/>
<path d="M386.008 199.673C390.969 202.662 395.873 205.65 400.465 208.408C401.267 208.898 401.848 210.186 401.838 211.147L401.737 248.029L338.656 210.061C338.656 209.014 338.804 189.199 341.238 180.146C342.805 174.313 364.831 186.931 386.018 199.673H386.008Z" fill="#778ED3"/>
<path d="M429.284 211.743C424.333 208.764 419.41 205.843 414.828 203.075C414.478 202.864 414.164 202.864 413.934 202.998L402.391 210.032C402.63 209.888 402.935 209.888 403.294 210.109C407.886 212.867 412.8 215.789 417.751 218.777C435.12 229.232 453.062 240.457 459.801 248.404L468.708 243.503C461.968 235.556 446.663 222.198 429.294 211.743H429.284Z" fill="#A3BAFF"/>
<path d="M459.793 248.394L468.699 243.493C469.769 244.752 470.562 245.934 471.013 247.02L462.107 251.921C461.646 250.845 460.862 249.663 459.793 248.394Z" fill="#8096D8"/>
<path d="M462.098 251.921L471.004 247.02C471.179 247.433 471.308 247.827 471.382 248.211C473.761 260.166 475.678 270.919 473.364 275.637C471.4 279.615 464.882 286.035 464.882 286.035C464.882 284.987 464.854 265.067 462.476 253.122C462.402 252.737 462.273 252.334 462.098 251.93V251.921Z" fill="#6477B1"/>
<path d="M417.742 218.777C438.919 231.519 460.954 245.425 462.475 253.122C464.854 265.076 464.882 284.988 464.882 286.035L401.801 248.067L401.902 211.186C401.902 210.225 402.483 209.629 403.285 210.109C407.877 212.867 412.791 215.788 417.742 218.777Z" fill="#778ED3"/>
<path d="M410.449 295.048L411.934 294.154C412.026 294.097 412.146 294.106 412.284 294.193L410.8 295.096C410.661 295.01 410.532 295 410.449 295.058V295.048Z" fill="#A6A38B"/>
<path d="M430.99 319.14L432.474 318.246C432.557 318.525 432.502 318.755 432.363 318.842L430.879 319.745C431.017 319.659 431.073 319.428 430.99 319.149V319.14Z" fill="#1E309B"/>
<path d="M410.809 295.087L412.293 294.184L427.902 303.582L426.418 304.475L410.809 295.087Z" fill="#999782"/>
<path d="M426.871 305.11L428.355 304.216L432.477 318.246L430.992 319.14L426.871 305.11Z" fill="#1B4089"/>
<path d="M426.418 304.476L427.902 303.572C427.976 303.611 428.05 303.678 428.124 303.764L426.639 304.658C426.575 304.581 426.501 304.514 426.418 304.466V304.476Z" fill="#A6A38B"/>
<path d="M426.629 304.668L428.113 303.774C428.187 303.861 428.261 303.976 428.307 304.091L426.823 304.985C426.776 304.87 426.712 304.764 426.629 304.668Z" fill="#DCDBD1"/>
<path d="M426.822 304.985L428.306 304.091C428.306 304.091 428.334 304.177 428.343 304.216L426.859 305.109C426.859 305.109 426.831 305.023 426.812 304.985H426.822Z" fill="#A6A38B"/>
<path d="M426.418 304.476C426.611 304.591 426.796 304.841 426.879 305.11L431 319.14C431.111 319.505 430.991 319.784 430.733 319.764C430.668 319.764 430.604 319.736 430.539 319.697C430.345 319.582 430.17 319.332 430.087 319.063L426.095 305.475L410.818 296.278C410.542 296.115 410.32 295.712 410.32 295.385C410.32 295.049 410.542 294.924 410.818 295.087L426.427 304.476H426.418Z" fill="#0A1B3D"/>
<path d="M301.656 241.792L303.14 240.889C303.122 240.946 303.085 240.985 303.039 241.014L301.555 241.917C301.555 241.917 301.638 241.85 301.656 241.792Z" fill="#1E309B"/>
<path d="M305.713 233.038L307.197 232.135L303.141 240.889L301.656 241.792L305.713 233.038Z" fill="#030A19"/>
<path d="M305.033 231.606L306.517 230.712C306.609 230.654 306.738 230.664 306.867 230.751L305.383 231.654C305.245 231.567 305.116 231.558 305.023 231.615L305.033 231.606Z" fill="#A6A38B"/>
<path d="M305.391 231.645L306.866 230.751L322.475 240.14L320.99 241.033L305.391 231.645Z" fill="#999782"/>
<path d="M320.992 241.033L322.477 240.14C322.56 240.188 322.624 240.255 322.698 240.332L321.213 241.235C321.149 241.158 321.075 241.091 320.992 241.043V241.033Z" fill="#A6A38B"/>
<path d="M321.215 241.235L322.699 240.332C322.773 240.428 322.838 240.534 322.893 240.639L321.408 241.543C321.362 241.428 321.298 241.322 321.215 241.235Z" fill="#DCDBD1"/>
<path d="M321.397 241.542L322.881 240.639C322.936 240.764 322.964 240.898 322.964 241.033C322.964 241.196 322.909 241.311 322.816 241.369L321.332 242.263C321.424 242.205 321.48 242.09 321.48 241.926C321.48 241.802 321.443 241.667 321.387 241.532L321.397 241.542Z" fill="#A6A38B"/>
<path d="M320.991 241.033C321.277 241.206 321.489 241.6 321.489 241.927C321.489 242.254 321.258 242.388 320.982 242.225L305.705 233.038L301.657 241.792C301.574 241.965 301.39 241.994 301.196 241.879C301.132 241.84 301.058 241.783 301.003 241.715C300.754 241.427 300.643 241.014 300.744 240.774L304.93 231.741C305.004 231.568 305.188 231.539 305.391 231.654L320.991 241.043V241.033Z" fill="#0A1B3D"/>
<path d="M445.68 274.686L447.164 273.782C447.256 273.725 447.385 273.734 447.514 273.821L446.03 274.724C445.892 274.647 445.763 274.638 445.68 274.686Z" fill="#A6A38B"/>
<path d="M466.208 298.777L467.693 297.874C467.776 298.153 467.72 298.383 467.582 298.47L466.098 299.364C466.236 299.277 466.282 299.056 466.208 298.768V298.777Z" fill="#1E309B"/>
<path d="M446.027 274.714L447.512 273.82L463.121 283.209L461.636 284.112L446.027 274.714Z" fill="#999782"/>
<path d="M462.09 284.747L463.574 283.844L467.695 297.874L466.211 298.777L462.09 284.747Z" fill="#1B4089"/>
<path d="M461.637 284.112L463.121 283.209C463.195 283.257 463.278 283.324 463.342 283.401L461.858 284.304C461.793 284.228 461.72 284.16 461.637 284.112Z" fill="#A6A38B"/>
<path d="M461.849 284.305L463.333 283.401C463.416 283.497 463.481 283.603 463.527 283.719L462.033 284.622C461.987 284.506 461.923 284.401 461.84 284.305H461.849Z" fill="#DCDBD1"/>
<path d="M462.043 284.612L463.537 283.709C463.537 283.709 463.564 283.795 463.573 283.834L462.089 284.737C462.089 284.737 462.061 284.651 462.043 284.612Z" fill="#A6A38B"/>
<path d="M461.637 284.112C461.83 284.228 462.015 284.478 462.089 284.747L466.21 298.777C466.311 299.142 466.201 299.421 465.942 299.401C465.878 299.401 465.813 299.373 465.749 299.334C465.555 299.219 465.371 298.969 465.288 298.7L461.296 285.112L446.01 275.915C445.733 275.752 445.512 275.348 445.512 275.022C445.512 274.695 445.742 274.56 446.01 274.724L461.618 284.122L461.637 284.112Z" fill="#0A1B3D"/>
<path d="M336.875 221.42L338.359 220.517C338.332 220.574 338.295 220.613 338.258 220.632L336.773 221.535C336.773 221.535 336.847 221.468 336.875 221.41V221.42Z" fill="#A6A38B"/>
<path d="M340.932 212.665L342.416 211.771L338.369 220.526L336.875 221.419L340.932 212.665Z" fill="#7F7D70"/>
<path d="M340.25 211.243L341.734 210.34C341.827 210.282 341.956 210.292 342.094 210.378L340.61 211.272C340.471 211.195 340.342 211.176 340.259 211.234L340.25 211.243Z" fill="#A6A38B"/>
<path d="M340.609 211.281L342.094 210.378L357.693 219.767L356.218 220.67L340.609 211.281Z" fill="#999782"/>
<path d="M356.22 220.67L357.695 219.767C357.778 219.815 357.852 219.882 357.917 219.959L356.432 220.862C356.368 220.785 356.285 220.718 356.211 220.67H356.22Z" fill="#A6A38B"/>
<path d="M356.434 220.862L357.918 219.959C358.001 220.055 358.056 220.161 358.112 220.266L356.627 221.17C356.581 221.054 356.507 220.949 356.434 220.862Z" fill="#DCDBD1"/>
<path d="M356.627 221.17L358.111 220.267C358.167 220.392 358.194 220.536 358.194 220.661C358.194 220.824 358.139 220.939 358.047 220.997L356.562 221.891C356.645 221.833 356.701 221.718 356.701 221.554C356.701 221.429 356.664 221.295 356.618 221.16L356.627 221.17Z" fill="#A6A38B"/>
<path d="M356.217 220.671C356.494 220.834 356.715 221.228 356.706 221.564C356.706 221.891 356.485 222.026 356.208 221.862L340.931 212.666L336.884 221.42C336.801 221.593 336.616 221.622 336.423 221.507C336.358 221.468 336.285 221.411 336.229 221.343C335.98 221.055 335.86 220.642 335.971 220.402L340.157 211.368C340.231 211.196 340.415 211.167 340.618 211.292L356.227 220.68L356.217 220.671Z" fill="#7C7A6D"/>
<path d="M303.215 224.485L337.853 203.507C340.49 206.322 340.813 207.716 341.375 209.032L306.737 230.01C306.184 228.684 305.852 227.3 305.852 226.022L303.215 224.485Z" fill="#989547"/>
<path d="M306.738 230.01L341.376 209.032C341.874 210.205 342.556 211.329 340.712 210.733L306.074 231.711C307.909 232.307 307.236 231.182 306.738 230.01Z" fill="#989547"/>
<path d="M306.082 231.711L340.72 210.733C344.03 213.069 344.786 213.751 345.588 214.231L310.95 235.209C310.148 234.729 309.392 234.056 308.719 233.258L306.082 231.721V231.711Z" fill="#989547"/>
<path d="M305.861 223.64L340.499 202.652L337.853 203.508L303.215 224.485L305.861 223.64Z" fill="#989547"/>
<path d="M307.353 220.228L341.991 199.25C341.078 199.807 340.507 200.98 340.498 202.661L305.859 223.639C305.859 221.958 306.431 220.785 307.353 220.228Z" fill="#989547"/>
<path d="M300.816 206.39L335.455 185.412C335.676 185.278 335.989 185.297 336.33 185.499L301.692 206.477C301.351 206.275 301.038 206.256 300.816 206.39Z" fill="#8096D8"/>
<path d="M310.949 235.209L345.587 214.231L454.223 279.606L419.584 300.584L310.949 235.209Z" fill="#D2DDFF"/>
<path d="M307.629 220.727L342.258 199.749C343.143 199.221 344.36 199.288 345.715 200.105C349.329 202.277 390.136 226.82 398.221 231.682L363.583 252.66C355.497 247.788 314.691 223.255 311.077 221.083C309.731 220.276 308.505 220.199 307.629 220.727Z" fill="#A3BAFF"/>
<path d="M318.231 223.313L352.87 202.335C352.87 202.796 352.713 203.123 352.455 203.277L317.816 224.255C318.075 224.101 318.231 223.774 318.231 223.313Z" fill="#D2DDFF"/>
<path d="M318.244 217.96L352.882 196.982L352.873 202.325L318.234 223.313L318.244 217.96Z" fill="#7085C6"/>
<path d="M301.691 206.477L336.33 185.499L351.662 194.772L317.024 215.75L301.691 206.477Z" fill="#A3BAFF"/>
<path d="M352.67 196.021C352.551 195.732 352.385 195.473 352.2 195.242C352.044 195.05 351.859 194.887 351.666 194.771L317.027 215.749C317.221 215.865 317.405 216.028 317.562 216.22C317.756 216.451 317.922 216.72 318.032 216.999C318.161 217.316 318.244 217.652 318.244 217.96L352.883 196.982C352.883 196.674 352.809 196.338 352.67 196.021Z" fill="#7085C6"/>
<path d="M365.014 265.748L399.652 244.771C399.652 245.011 399.606 245.213 399.532 245.376C399.459 245.53 399.357 245.645 399.228 245.722L364.59 266.7C364.719 266.623 364.82 266.507 364.894 266.354C364.968 266.19 365.014 265.989 365.014 265.748Z" fill="#304A7C"/>
<path d="M365.039 255.255L399.678 234.277L399.65 244.771L365.012 265.749L365.039 255.255Z" fill="#304A7C"/>
<path d="M362.651 252.66C363.453 253.141 364.099 254.294 364.108 255.255L364.08 265.748C364.08 265.989 364.034 266.19 363.96 266.354C363.73 266.834 363.214 266.95 362.624 266.594L310.118 234.978C307.435 233.364 305.268 229.453 305.277 226.243V223.966C305.296 220.756 307.472 219.459 310.155 221.073C313.769 223.245 354.575 247.788 362.66 252.65L362.651 252.66Z" fill="#A3BAFF"/>
<path d="M363.586 252.66L398.224 231.683C398.445 231.817 398.667 232.009 398.86 232.24L364.222 253.218C364.028 252.987 363.816 252.795 363.586 252.66Z" fill="#8096D8"/>
<path d="M364.23 253.218L398.869 232.24C399.099 232.509 399.293 232.836 399.431 233.163L364.793 254.141C364.645 253.804 364.452 253.487 364.23 253.218Z" fill="#8096D8"/>
<path d="M364.793 254.14L399.431 233.162C399.588 233.527 399.68 233.921 399.68 234.277L365.042 255.255C365.042 254.889 364.95 254.505 364.793 254.14Z" fill="#8096D8"/>
<path d="M365.633 254.4L400.271 233.422C400.538 233.259 400.898 233.288 401.304 233.528L366.665 254.506C366.26 254.265 365.9 254.236 365.633 254.4Z" fill="#D2DDFF"/>
<path d="M419.583 300.583L454.212 279.605C455.632 280.461 456.923 280.538 457.845 279.971L423.207 300.948C422.285 301.515 420.994 301.439 419.574 300.583H419.583Z" fill="#EEEF8C"/>
<path d="M419.583 300.583L454.212 279.605C455.632 280.461 456.923 280.538 457.845 279.971L423.207 300.948C422.285 301.515 420.994 301.439 419.574 300.583H419.583Z" fill="#EEEF8C"/>
<path d="M419.583 300.583L454.212 279.605C455.632 280.461 456.923 280.538 457.845 279.971L423.207 300.948C422.285 301.515 420.994 301.439 419.574 300.583H419.583Z" fill="#989547"/>
<path d="M424.498 297.432L459.136 276.454C459.136 278.049 458.592 279.164 457.716 279.702L423.078 300.68C423.945 300.152 424.489 299.027 424.489 297.432H424.498Z" fill="#C9CA7D"/>
<path d="M430.27 306.993L464.908 286.016C464.908 286.419 464.77 286.698 464.548 286.842L429.91 307.82C430.131 307.685 430.27 307.397 430.27 306.993Z" fill="#536290"/>
<path d="M366.664 254.505L401.302 233.527C406.769 236.814 448.083 261.693 454.306 265.441C455.071 265.902 455.781 266.546 456.427 267.305L421.788 288.283C421.152 287.524 420.424 286.88 419.668 286.419C413.445 282.671 372.131 257.801 366.664 254.505Z" fill="#A3BAFF"/>
<path d="M421.789 288.283L456.427 267.305C457.183 268.208 457.829 269.265 458.308 270.38L423.67 291.358C423.2 290.243 422.554 289.176 421.789 288.283Z" fill="#F0F18D"/>
<path d="M423.668 291.358L458.306 270.38C458.841 271.639 459.145 272.955 459.145 274.176L424.507 295.154C424.507 293.933 424.203 292.617 423.668 291.358Z" fill="#F0F18D"/>
<path d="M416.016 275.589L450.672 254.342C450.894 254.208 451.179 254.496 451.53 254.698L416.892 275.676C416.55 275.474 416.246 275.455 416.016 275.589Z" fill="#8096D8"/>
<path d="M424.509 295.155L459.147 274.177L459.138 276.454L424.5 297.432L424.509 295.155Z" fill="#C9CA7D"/>
<path d="M367.197 255.143C372.664 258.429 413.977 283.309 420.2 287.056C422.883 288.671 425.05 292.582 425.041 295.792V298.069C425.022 301.279 422.846 302.576 420.164 300.962L367.16 269.086C366.561 268.731 366.044 267.981 365.823 267.232C365.749 266.982 365.703 266.723 365.703 266.482L365.722 256.113C365.731 255.133 366.404 254.672 367.197 255.152V255.143Z" fill="#A3BAFF"/>
<path d="M430.317 285.323L464.955 264.346L464.9 285.987L430.262 306.964L430.317 285.323Z" fill="#6477B0"/>
<path d="M416.895 275.675L451.533 254.697L463.74 262.164L429.101 283.151L416.895 275.675Z" fill="#A3BAFF"/>
<path d="M429.099 283.152C429.782 283.556 430.335 284.546 430.326 285.362L430.27 307.003C430.27 307.82 429.717 308.147 429.035 307.734L428.648 307.503L301.629 231.058C300.946 230.655 300.402 229.655 300.402 228.848L300.458 207.207C300.458 206.4 301.011 206.064 301.693 206.477L317.016 215.75C317.698 216.164 318.242 217.153 318.242 217.96V223.313C318.224 224.245 317.588 224.62 316.804 224.149L310.977 220.593C308.156 218.893 305.87 220.257 305.851 223.64V226.023C305.833 229.396 308.11 233.519 310.931 235.21L419.566 300.584C422.387 302.285 424.674 300.92 424.683 297.538V295.145C424.702 291.772 422.424 287.659 419.603 285.958L417.031 284.286C416.266 283.825 415.62 282.72 415.62 281.797C415.62 279.722 415.639 276.57 415.639 276.406C415.639 275.599 416.192 275.263 416.865 275.676L429.072 283.152H429.099Z" fill="#A3BAFF"/>
<path d="M429.099 283.152L463.737 262.174C463.931 262.289 464.115 262.452 464.272 262.645L429.634 283.623C429.468 283.43 429.283 283.267 429.09 283.152H429.099Z" fill="#8096D8"/>
<path d="M429.645 283.622L464.283 262.645C464.476 262.875 464.633 263.144 464.753 263.423L430.115 284.401C429.995 284.122 429.829 283.853 429.645 283.622Z" fill="#8096D8"/>
<path d="M430.113 284.401L464.751 263.423C464.89 263.74 464.964 264.076 464.964 264.384L430.325 285.362C430.325 285.054 430.242 284.718 430.113 284.401Z" fill="#8096D8"/>
<path d="M391.334 203.786C383.083 195.253 373.762 192.149 365.722 187.315C359.139 183.356 358.171 180.598 351.441 179.829C348.454 179.493 340.285 184.999 340.285 184.999C344.582 186.604 351.026 189.122 357.609 193.081C365.648 197.915 375.513 204.545 382.41 210.09C382.539 210.196 382.603 210.436 382.788 210.465C385.747 210.974 391.703 204.17 391.703 204.17C391.583 204.026 391.445 203.921 391.325 203.796L391.334 203.786Z" fill="#D2DDFF"/>
<path d="M381.237 210.494C381.237 207.361 391.711 204.161 391.711 204.161C391.987 204.497 392.236 204.93 392.448 205.449C392.448 205.449 383.966 215.049 381.108 214.078C380.601 213.905 381.228 210.494 381.228 210.494H381.237Z" fill="#A3BAFF"/>
<path d="M381.487 212.156C381.487 209.023 392.449 205.448 392.449 205.448C394.837 211.166 393.444 226.897 391.001 228.204L380.611 234.498C383.054 233.191 380.5 221.756 380.5 214.712L381.487 212.156Z" fill="#6477B0"/>
<path d="M357.892 192.591C351.309 188.632 344.385 182.828 340.292 184.99C339.231 185.624 338.558 187.998 338.227 191.063C338.605 189.189 339.167 187.825 339.932 187.363C344.026 185.211 350.959 191.005 357.533 194.965C365.563 199.798 381.504 206.006 380.858 211.676C380.139 218.037 381.716 228.224 381.374 233.528C383.006 229.876 381.762 217.845 382.61 210.619C383.283 204.949 365.913 197.415 357.883 192.581L357.892 192.591Z" fill="#A3BAFF"/>
<path d="M380.87 211.685C381.515 206.015 365.583 199.808 357.544 194.974C350.961 191.015 344.037 185.21 339.944 187.373C339.178 187.824 338.607 189.189 338.238 191.072C337.814 195.099 337.98 200.317 338.625 204.391C339.003 206.784 340.146 209.792 343.742 212.156C352.353 217.806 359.775 222.592 366.929 226.897C371.493 229.636 375.955 232.163 380.621 234.517C380.925 234.344 381.183 234.008 381.386 233.547C381.727 228.242 380.15 218.047 380.87 211.695V211.685Z" fill="#778ED3"/>
<path d="M420.311 285.622C414.087 281.874 372.783 257.004 367.307 253.708C366.514 253.228 365.371 253.747 365.214 254.775L365.168 255.313C365.398 254.967 366.108 255.082 366.247 255.169C371.723 258.455 413.027 283.335 419.25 287.082C421.933 288.697 424.1 292.608 424.091 295.817V298.095C424.091 298.748 424.035 299.421 423.86 299.911C424.672 299.363 424.736 298.249 424.736 296.721L424.672 294.318C424.672 291.109 422.984 287.236 420.301 285.622H420.311Z" fill="#D2DDFF"/>
<path d="M365.16 255.495V254.938C365.16 253.977 364.496 252.795 363.694 252.314C358.227 249.018 317.411 224.475 311.188 220.728C310.331 220.209 309.928 219.596 309.26 219.511C308.254 219.511 306.848 219.776 306.461 220.91C307.346 220.305 308.735 221.343 310.137 222.188C316.36 225.936 357.185 250.46 362.643 253.765C364.883 255.12 365.058 257.667 365.068 258.628C365.068 258.628 365.206 255.505 365.169 255.486L365.16 255.495Z" fill="#D2DDFF"/>
<path d="M315.938 217.173C316.62 217.586 317.164 218.576 317.164 219.383V224.265C317.754 224.438 318.206 224.053 318.206 223.265L318.225 217.922C318.225 217.105 317.681 216.116 316.998 215.712L301.685 206.506C301.002 206.102 300.449 206.429 300.449 207.236V207.88C300.505 207.909 300.569 207.928 300.624 207.967L315.938 217.173Z" fill="#D2DDFF"/>
<path d="M429.101 283.133L416.894 275.666C416.212 275.253 415.668 275.59 415.668 276.397C415.668 276.435 415.668 276.675 415.668 277.041C415.733 277.069 415.788 277.089 415.852 277.127L428.059 284.594C428.741 285.007 429.285 285.997 429.285 286.804L429.23 307.801C429.82 308.051 430.281 307.724 430.281 306.984L430.336 285.343C430.336 284.536 429.792 283.537 429.11 283.133H429.101Z" fill="#D2DDFF"/>
<mask id="mask0_2067_305378" style="mask-type:luminance" maskUnits="userSpaceOnUse" x="380" y="204" width="79" height="69">
<path d="M458.832 233.172C458.555 233.556 454.904 251.767 454.904 251.767L420.1 272.937C420.1 272.937 420.017 265.691 419.556 265.595C419.104 265.499 380.031 228.626 380.031 228.626L407.579 204.237L458.832 233.182V233.172Z" fill="white"/>
</mask>
<g mask="url(#mask0_2067_305378)">
<path d="M449.06 239.072C440.808 230.539 431.487 227.435 423.457 222.601C416.874 218.642 415.896 215.874 409.175 215.105C406.188 214.76 398.02 220.275 398.02 220.275C402.316 221.871 408.76 224.398 415.343 228.357C423.374 233.191 433.257 239.821 440.144 245.357C440.273 245.462 440.338 245.703 440.522 245.731C443.491 246.241 449.438 239.437 449.438 239.437C449.318 239.293 449.179 239.187 449.06 239.072Z" fill="#D2DDFF"/>
<path d="M438.964 245.769C438.964 242.637 449.437 239.437 449.437 239.437C449.714 239.773 449.963 240.205 450.175 240.724C450.175 240.724 441.693 250.324 438.835 249.354C438.328 249.181 440.789 246.067 440.513 245.731L438.964 245.769Z" fill="#A3BAFF"/>
<path d="M439.204 247.432C439.204 244.299 450.175 240.725 450.175 240.725C452.563 246.442 451.171 262.183 448.728 263.49L438.337 269.784C440.78 268.477 438.227 257.042 438.227 249.998L439.213 247.432H439.204Z" fill="#6477B0"/>
<path d="M415.619 227.876C409.036 223.917 402.112 218.113 398.018 220.275C396.949 220.909 396.285 223.283 395.953 226.348C396.331 224.474 396.894 223.11 397.659 222.649C401.752 220.486 408.676 226.291 415.268 230.259C423.299 235.093 439.239 241.291 438.594 246.961C437.866 253.323 439.451 263.509 439.11 268.813C440.751 265.162 439.498 253.13 440.355 245.914C441.028 240.244 423.658 232.71 415.628 227.876H415.619Z" fill="#A3BAFF"/>
<path d="M438.594 246.961C439.239 241.291 423.307 235.083 415.268 230.259C408.685 226.3 401.752 220.496 397.658 222.648C396.884 223.1 396.331 224.464 395.953 226.348C395.529 230.374 395.695 235.593 396.34 239.667C396.718 242.06 397.871 245.068 401.457 247.432C410.068 253.082 417.49 257.868 424.644 262.173C429.208 264.911 433.67 267.439 438.326 269.793C438.64 269.63 438.889 269.293 439.092 268.823C439.433 263.518 437.856 253.332 438.575 246.97L438.594 246.961Z" fill="#778ED3"/>
</g>
<g opacity="0.46" style="mix-blend-mode:multiply">
<path d="M373.146 203.078C368.191 200.59 367.787 194.466 358.619 196.431C356.992 197.37 352.845 208.405 353.03 210.992C353.129 212.301 354.504 213.764 354.755 215.991C355.05 218.643 354.886 221.219 352.168 222.714C352.037 222.791 349.723 223.26 349.407 223.402C351.229 225.443 353.009 227.942 354.82 230.147C349.483 230.376 342.443 230.769 338.579 230.802C338.579 230.748 338.601 230.704 338.623 230.649C339.747 226.785 328.155 219.516 326.213 226.993C325.219 230.791 324.553 234.404 323.942 238.071L314.304 261.779C314.304 261.779 312.067 265.162 309.491 266.308C309.109 266.472 307.886 266.854 306.489 267.258C305.332 267.432 301.949 267.967 299.438 268.655C297.037 269.321 296 270.761 296 270.761C295.836 271.056 295.651 271.591 295.695 272.18C295.662 272.322 295.64 272.464 295.618 272.595C295.411 274.08 296.557 274.844 297.921 275.498C300.06 276.524 308.268 275.76 311.99 275.095C313.508 274.822 313.933 274.156 314.228 273.457C314.228 273.457 314.228 273.457 314.228 273.447C314.25 273.392 314.272 273.337 314.293 273.272C317.186 272.377 320.57 270.827 323.014 269.474C324.957 268.404 324.892 267.301 324.957 266.21C324.99 265.741 324.783 265.435 324.532 265.217C325.176 264.005 325.601 261.986 325.601 261.986C325.601 261.986 329.16 255.906 332.292 249.117C333.438 247.251 334.344 245.548 334.803 244.315C335.577 242.285 338.721 240.691 339.572 240.625C342.432 240.407 350.116 241.99 352.834 242.165C358.226 242.514 366.827 244.544 369.021 235.354C369.152 235.321 371.193 227.113 371.313 227.08C371.389 226.502 375.449 225.268 380.874 223.456C387.183 221.35 378.637 212.552 374.926 207.422C368.202 198.112 375.744 204.879 373.114 203.024L373.146 203.078Z" fill="#5E6670"/>
</g>
<path d="M339.89 217.071C343.546 218.97 348.676 212.29 348.676 212.29C348.676 212.29 362.472 195.121 360.093 194.346C357.583 193.527 353.413 194.106 350.87 197.118C346.056 202.805 341.603 209.136 339.027 212.377L339.879 217.06L339.89 217.071Z" fill="white"/>
<path d="M350.368 221.907C336.67 220.553 325.111 217.803 323.223 223.828L336.233 236.849C339.235 235.081 344.059 234.208 347.257 233.345C351.438 232.21 357.244 232.221 357.244 232.221C356.928 226.808 354.417 222.311 350.368 221.918V221.907Z" fill="#00117C"/>
<path d="M310.158 269.823C310.3 269.866 311.151 270.401 310.802 271.241C310.464 272.093 310.213 272.977 308.39 273.304C304.679 273.97 296.46 274.723 294.331 273.708C292.956 273.053 291.821 272.289 292.028 270.805C292.105 270.259 292.312 269.484 292.312 269.484L305.607 268.698L309.318 269.157L310.158 269.823Z" fill="#0C1F43"/>
<path d="M309.603 268.502H308.937L305.598 268.698H305.401L294.617 270.336L295.872 273.315C295.872 273.315 307.388 272.791 309.178 272.311C309.963 272.104 310.389 271.907 310.629 271.667C310.695 271.525 310.738 271.383 310.804 271.242C311.142 270.39 310.116 269.211 309.603 268.502Z" fill="#16397D"/>
<path d="M357.321 228.171C353.152 228.084 336.387 229.241 332.796 228.946C326.301 228.39 321.313 233.836 321.313 233.836L310.682 259.977C310.682 259.977 308.445 263.361 305.869 264.507C305.039 264.878 300.062 266.275 298.359 266.734C298.316 266.734 295.62 267.236 293.917 267.891C292.553 268.414 292.258 269.517 292.258 270.248C292.258 271.482 294.321 272.453 296.526 272.649C299.385 272.911 303.708 271.864 303.708 271.864L306.229 271.263C306.229 271.263 309.525 271.842 310.322 267.825C310.398 267.716 311.031 267.105 311.031 267.105C311.031 267.105 314.219 265.02 319.054 260.196C322.765 256.485 329.598 246.759 331.191 242.535C331.966 240.505 335.11 238.901 335.961 238.835C338.821 238.617 346.505 240.2 349.223 240.374C355.499 240.778 366.119 243.474 365.944 228.139L357.3 228.171H357.321Z" fill="#00117C"/>
<path d="M292.4 268.972C292.4 268.972 293.436 267.52 295.838 266.854C298.916 266.003 303.303 265.392 303.303 265.392C303.303 265.392 304.635 266.8 305.083 268.044C305.989 270.565 305.541 272.683 305.541 272.683C305.541 272.683 299.931 273.152 297.704 273.272C294.932 273.425 293.808 272.945 292.771 271.864C291.734 270.783 292.116 269.506 292.4 268.961V268.972Z" fill="#5468E1"/>
<path d="M372.134 198.199C367.168 195.711 364.178 192.643 355.009 194.619C353.383 195.558 349.235 206.593 349.421 209.18C349.519 210.489 350.894 211.952 351.145 214.179C351.44 216.831 351.287 219.396 348.558 220.902C348.427 220.979 346.113 221.448 345.797 221.59C349.759 226.021 353.481 232.625 357.858 233.651C360.783 234.338 364.145 233.934 365.793 233.476C365.88 232.897 365.793 233.825 367.517 228.139C369.449 221.764 370.475 217.464 372.342 211.417C374.841 203.351 374.754 200.044 372.134 198.188V198.199Z" fill="#5468E1"/>
<path d="M369.96 197.043C367.199 195.384 363.281 193.517 361.087 193.856C359.406 194.107 360.061 193.735 359.166 193.921C358.074 195.143 356.044 199.051 355.935 200.776C355.804 202.838 357.103 204.607 358.642 204.65C366.053 204.901 367.952 200.252 369.96 197.032V197.043Z" fill="white"/>
<path d="M366.424 198.188C366.424 198.188 368.465 190.046 369.862 188.016C370.964 186.433 362.582 186.531 362.582 186.531L360.082 195.82L366.413 198.188H366.424Z" fill="white"/>
<path d="M366.219 171.949C361.656 170.246 359.004 175.049 357.945 177.537C357.203 179.284 355.708 183.126 355.708 183.126C354.725 185.909 354.54 187.47 356.035 188.714C357.912 190.264 364.09 190.865 366.852 189.893C370.246 188.714 369.984 185.571 370.192 185.2L369.111 180.299C369.111 180.299 368.653 172.844 366.23 171.949H366.219Z" fill="white"/>
<path d="M363.934 186.258C362.526 192.753 360.922 193.953 359.743 195.056C359.415 195.361 362.035 195.798 364.338 195.831C368.191 195.874 371.88 194.445 371.88 194.445C371.88 194.445 376.301 190.668 377.425 184.37C378.494 178.367 375.329 172.833 368.169 171.283C363.399 170.246 360.103 172.255 360.911 174.121C362.177 177.035 365.288 180.004 363.934 186.258Z" fill="#2D2117"/>
<path d="M361.185 221.579C361.185 221.579 355.258 224.548 354.287 228.237C353.599 230.868 353.774 231.959 353.774 231.959C353.774 231.959 353.555 232.843 354.723 232.974C355.466 233.061 356.579 233.127 357.223 232.352C358.413 230.944 358.183 230.617 359.624 229.34C360.836 228.27 362.451 227.659 363.084 226.218C364.547 222.922 361.185 221.579 361.185 221.579Z" fill="white"/>
<path d="M371.073 199.268C373.026 198.373 374.915 198.188 377.414 205.032C378.691 208.524 380.121 212.737 381.824 219.035C382.402 221.186 380.732 222.703 378.036 223.467C372.393 225.049 364.644 224.045 362.679 224.733C361.435 225.17 360.496 221.95 360.496 221.95C360.496 221.95 362.177 220.891 363.891 220.367C368.147 219.046 375.057 217.42 375.035 217.3C374.926 216.874 372.699 213.261 372.699 213.261C372.699 213.261 370.636 209.616 369.348 206.167C367.645 201.572 369.468 200.011 371.084 199.268H371.073Z" fill="white"/>
<path d="M320.093 263.066C320.278 263.066 321.436 263.339 321.37 264.43C321.305 265.522 321.37 266.624 319.427 267.694C315.476 269.877 309.08 272.562 306.275 272.235C304.463 272.016 302.891 271.591 302.553 269.833C302.433 269.189 302.367 268.229 302.367 268.229L314.505 263.557L318.87 262.651L320.082 263.077L320.093 263.066Z" fill="#0C1F43"/>
<path d="M320.091 263.066L318.88 262.641L314.514 263.547L314.285 263.634L305.312 268.294L310.257 270.849C310.257 270.849 318.105 267.487 319.949 266.253C320.757 265.719 321.172 265.326 321.346 264.965C321.357 264.78 321.368 264.594 321.379 264.42C321.445 263.328 320.288 263.055 320.102 263.055L320.091 263.066Z" fill="#16397D"/>
<path d="M335 228.848C334.247 231.424 334.672 233.257 330.296 243.725C326.923 251.791 322 260.217 322 260.217C322 260.217 321.564 262.346 320.887 263.546C320.309 264.561 318.257 264.529 312.712 267.552C309.918 269.069 305.191 266.068 305.191 266.068C305.191 266.068 311.14 262.007 313.585 260.337C315.724 258.875 316.619 255.48 316.619 255.48C319.664 243.768 320.003 235.146 322.601 225.202C324.554 217.726 336.135 224.995 335.011 228.859L335 228.848Z" fill="#00117C"/>
<path d="M316.761 254.869C316.717 255.066 316.663 255.262 316.619 255.459C316.619 255.459 315.724 258.853 313.585 260.316C311.129 261.986 305.191 266.046 305.191 266.046C305.191 266.046 309.918 269.048 312.712 267.531C318.257 264.507 320.309 264.551 320.887 263.525C321.564 262.324 322 260.196 322 260.196C322 260.196 323.026 258.438 324.456 255.775C322.12 255.568 319.446 255.273 316.761 254.858V254.869Z" fill="white"/>
<path d="M304.243 265.424C305.727 264.136 309.766 261.603 310.803 261.112C311.829 260.632 313.139 260.817 314.383 262.029C316.806 264.398 317.286 267.683 317.286 267.683C317.286 267.683 314.296 269.298 310.508 270.761C307.321 271.994 302.933 271.143 302.42 268.927C302.202 267.978 302.693 266.799 304.265 265.413L304.243 265.424Z" fill="#5468E1"/>
<path d="M339.106 216.863C339.106 216.863 336.476 214.386 338.844 210.435C341.213 206.483 345.47 201.583 345.47 201.583L344.585 198.308C344.585 198.308 343.92 196.922 345.284 195.732C346.648 194.543 348.569 194.117 348.569 194.117C348.569 194.117 349.857 193.877 350.469 194.826C351.091 195.787 351.44 196.638 351.44 196.638L348.166 198.068C348.166 198.068 349.29 200.011 348.602 201.266C347.914 202.521 347.041 211.166 345.011 213.742C342.981 216.329 340.711 218.053 339.106 216.863Z" fill="white"/>
<path d="M374.151 287.15L372.555 288.521C372.555 288.521 364.215 291.826 363.915 292.24C363.877 292.296 363.821 292.784 363.84 293.385C363.84 293.611 363.859 293.761 364.009 293.968C364.516 294.719 365.568 295.038 366.544 295.226C368.686 295.62 373.344 294.738 373.344 294.738C373.851 294.494 380.8 294.569 381.777 293.517C382.209 293.066 382.678 291.902 382.81 291.319C383.355 288.934 383.11 287.375 383.11 287.375L374.17 287.131L374.151 287.15Z" fill="#D4DEDF"/>
<path d="M384.762 305.124L379.879 309.237C379.879 309.237 376.724 310.439 376.01 311.209C375.841 311.378 375.766 311.773 375.728 312.28C375.709 312.599 375.728 313.914 375.935 314.158C376.498 314.759 377.062 315.097 378.658 315.454C381.532 316.112 384.443 314.327 384.443 314.327C384.932 314.027 392.407 310.608 392.407 310.608C392.407 310.608 392.764 310.421 392.876 309.744L393.121 307.923L384.762 305.124Z" fill="#F4F4F4"/>
<path d="M384.761 304.091L382.47 306.007L379.878 308.186C379.878 308.186 377.417 310.177 376.497 310.703C376.084 310.947 375.802 311.473 375.764 311.999C375.746 312.318 375.821 312.637 376.065 312.881C376.628 313.482 377.812 313.971 378.788 314.196C381.662 314.853 384.573 313.069 384.573 313.069C385.005 312.806 390.659 310.214 392.687 309.181C392.95 309.05 393.063 308.637 393.063 308.637C393.063 308.637 393.288 307.209 393.345 306.608C393.495 304.748 392.95 303.641 392.95 303.641L384.78 304.11L384.761 304.091Z" fill="#37393A"/>
<path d="M384.256 309.782C384.144 309.895 383.975 309.857 383.862 309.744C383.467 309.369 382.604 308.598 381.89 308.26C381.345 307.997 380.894 308.035 380.631 308.091C380.5 308.129 380.331 308.091 380.256 307.979C380.199 307.866 380.199 307.734 380.312 307.697C380.613 307.603 381.27 307.453 382.096 307.847C382.923 308.242 383.9 309.143 384.256 309.481C384.35 309.575 384.332 309.707 384.256 309.801V309.782Z" fill="#F4F4F4"/>
<path d="M374.152 286.21L371.259 288.426C371.259 288.426 365.155 291.168 364.667 291.356C364.348 291.45 363.822 291.863 363.84 292.427C363.84 292.671 363.859 292.803 364.01 293.009C364.517 293.742 365.568 294.08 366.545 294.249C368.686 294.643 373.344 293.779 373.344 293.779C373.851 293.535 381.383 293.46 382.36 292.446C382.792 291.995 382.979 290.849 383.092 290.267C383.487 288.201 383.111 286.435 383.111 286.435L374.171 286.21H374.152Z" fill="#37393A"/>
<path d="M421.109 250.054L409.013 257.06C409.013 257.06 387.996 270.959 387.883 277.457C387.808 281.063 385.404 293.159 383.526 305.311C383.319 306.682 388.484 308.692 393.33 304.992C393.762 304.654 397.199 285.74 397.236 285.308C397.236 285.308 398.194 279.674 399.979 277.739C401.312 276.33 414.46 269.738 414.46 269.738C414.46 269.738 421.165 265.662 421.24 258.994C421.24 257.266 421.127 250.035 421.127 250.035L421.109 250.054Z" fill="#0016A0"/>
<path d="M412.486 227.309C412.486 227.309 415.228 224.792 413.425 222.576C411.64 220.378 406.306 218.256 401.667 218.256C397.028 218.256 394.793 220.735 394.793 220.735L399.113 231.103L412.486 227.309Z" fill="#5B68B7"/>
<path d="M387.788 248.514C388.709 247.537 395.545 236.099 395.545 236.099C395.545 236.099 397.179 221.9 394.362 221.28C391.601 220.679 390.117 225.055 388.371 230.596C387.957 231.892 382.435 244.194 381.928 245.396C380.614 248.514 381.421 252.102 381.421 252.102C381.421 252.102 385.891 250.543 387.788 248.533V248.514Z" fill="#5B68B7"/>
<path d="M406.795 247.575L399.094 251.332L380.35 261.568C380.35 261.568 376.293 263.221 375.823 268.987C375.466 273.401 372.217 288.276 372.217 288.276C371.804 289.535 372.687 289.873 373.738 290.192C377.852 291.488 382.04 289.704 382.04 289.704C382.529 289.422 382.792 288.708 382.829 288.295L386.266 268.499L400.654 262.977C400.654 262.977 406.119 260.497 406.457 256.347C406.607 254.637 406.777 247.594 406.777 247.594L406.795 247.575Z" fill="#000E69"/>
<path d="M391.301 222.895C390.775 226.802 390.418 229.225 392.841 235.761L399.209 249.942C399.528 250.824 397.744 250.693 399.509 254.994C402.458 262.075 412.675 261.643 416.019 260.103C419.456 258.525 421.991 255.182 421.991 255.182C423.682 253.153 422.066 249.773 422.142 250.092C422.142 250.092 417.822 232.136 415.211 226.445C414.385 224.642 410.084 222.182 407.229 221.073C405.895 220.566 396.955 218.632 396.955 218.632L396.504 219.327C396.504 219.327 391.602 220.21 391.245 222.858L391.301 222.895Z" fill="#C4331D"/>
<path d="M391.301 222.895C390.775 226.802 390.418 229.225 392.841 235.761L399.209 249.942C399.528 250.824 397.744 250.693 399.509 254.994C402.458 262.075 412.675 261.643 416.019 260.103C419.456 258.525 421.991 255.182 421.991 255.182C423.682 253.153 422.066 249.773 422.142 250.092C422.142 250.092 417.822 232.136 415.211 226.445C414.385 224.642 410.084 222.182 407.229 221.073C405.895 220.566 396.955 218.632 396.955 218.632L396.504 219.327C396.504 219.327 391.602 220.21 391.245 222.858L391.301 222.895Z" fill="#C4331D"/>
<path d="M391.301 222.895C390.775 226.802 390.418 229.225 392.841 235.761L399.209 249.942C399.528 250.824 397.744 250.693 399.509 254.994C402.458 262.075 412.675 261.643 416.019 260.103C419.456 258.525 421.991 255.182 421.991 255.182C423.682 253.153 422.066 249.773 422.142 250.092C422.142 250.092 417.822 232.136 415.211 226.445C414.385 224.642 410.084 222.182 407.229 221.073C405.895 220.566 396.955 218.632 396.955 218.632L396.504 219.327C396.504 219.327 391.602 220.21 391.245 222.858L391.301 222.895Z" fill="#C4331D"/>
<path d="M391.301 222.895C390.775 226.802 390.418 229.225 392.841 235.761L399.209 249.942C399.528 250.824 397.744 250.693 399.509 254.994C402.458 262.075 412.675 261.643 416.019 260.103C419.456 258.525 421.991 255.182 421.991 255.182C423.682 253.153 422.066 249.773 422.142 250.092C422.142 250.092 417.822 232.136 415.211 226.445C414.385 224.642 410.084 222.182 407.229 221.073C405.895 220.566 396.955 218.632 396.955 218.632L396.504 219.327C396.504 219.327 391.602 220.21 391.245 222.858L391.301 222.895Z" fill="#5B68B7"/>
<path d="M389.214 263.709L389.233 264.179L388.125 264.798V264.329L389.214 263.709Z" fill="#393939"/>
<path d="M390.885 262.77V263.239L389.777 263.878V263.408L390.885 262.77Z" fill="#393939"/>
<path d="M388.238 264.592L389.234 264.028L389.215 263.709L388.238 264.272V264.592Z" fill="#1C1C1C"/>
<path d="M389.891 263.671L390.886 263.107V262.77L389.891 263.333V263.671Z" fill="#1C1C1C"/>
<path d="M391.151 273.851L367.129 260.027V260.722C367.129 261.211 367.392 261.661 367.805 261.906L390.457 274.941C390.87 275.185 391.396 275.185 391.809 274.941L408.375 265.174C408.694 264.986 408.882 264.648 408.882 264.291V263.84L391.133 273.87L391.151 273.851Z" fill="#1F36C3"/>
<path d="M408.505 263.258C409.031 263.521 409.031 264.254 408.505 264.535L391.132 273.851L367.109 260.028L384.445 252.214C385.234 251.857 386.154 251.876 386.906 252.27L408.468 263.277L408.505 263.258Z" fill="#3F4FB5"/>
<path d="M400.542 266.921C400.748 267.034 400.993 267.56 400.147 267.935L392.447 272.143C391.808 272.537 391.282 272.18 390.681 271.842L370.396 260.16C369.946 259.915 370.077 259.483 370.396 259.314L377.815 254.638C378.228 254.393 378.698 254.299 378.998 254.469L400.56 266.94L400.542 266.921Z" fill="#8596FF"/>
<path d="M383.411 257.192C383.505 257.248 383.505 257.342 383.411 257.399L382.378 257.981C382.378 257.981 382.115 258.037 382.022 257.981L380.988 257.399C380.894 257.342 380.894 257.248 380.988 257.192L382.022 256.591C382.115 256.535 382.285 256.535 382.378 256.591L383.411 257.192Z" fill="#4B4A4A"/>
<path d="M378.361 262.564C378.455 262.62 378.455 262.714 378.361 262.771L377.347 263.372C377.234 263.428 377.084 263.428 376.99 263.372L375.957 262.771C375.863 262.714 375.863 262.62 375.957 262.564L376.99 261.982C377.084 261.925 377.253 261.925 377.347 261.982L378.38 262.564H378.361Z" fill="#4B4A4A"/>
<path d="M380.162 263.596C380.256 263.653 380.256 263.747 380.162 263.803L379.148 264.385C379.035 264.442 378.885 264.442 378.791 264.385L377.758 263.803C377.664 263.728 377.664 263.653 377.758 263.596L378.791 262.995C378.885 262.939 379.054 262.939 379.148 262.995L380.181 263.578L380.162 263.596Z" fill="#4B4A4A"/>
<path d="M381.947 264.63C382.041 264.686 382.041 264.78 381.947 264.836L380.933 265.437C380.839 265.493 380.67 265.493 380.576 265.437L379.543 264.836C379.449 264.78 379.449 264.686 379.543 264.63L380.576 264.047C380.67 263.991 380.839 263.991 380.933 264.047L381.966 264.648L381.947 264.63Z" fill="#4B4A4A"/>
<path d="M379.844 257.286C379.938 257.342 379.957 257.436 379.844 257.492L378.83 258.093C378.717 258.15 378.567 258.15 378.473 258.093L375.637 256.459C375.543 256.403 375.543 256.309 375.637 256.253L376.67 255.652C376.764 255.595 376.914 255.595 377.027 255.652L379.863 257.286H379.844Z" fill="#4B4A4A"/>
<path d="M381.572 258.244C381.665 258.3 381.665 258.394 381.572 258.45L380.538 259.033C380.445 259.089 380.276 259.089 380.182 259.033L379.149 258.45C379.055 258.394 379.055 258.3 379.149 258.244L380.182 257.643C380.276 257.586 380.445 257.586 380.538 257.643L381.572 258.244Z" fill="#4B4A4A"/>
<path d="M383.505 259.352C383.599 259.409 383.599 259.502 383.505 259.559L382.472 260.141C382.378 260.197 382.209 260.197 382.115 260.141L381.082 259.559C380.988 259.484 380.988 259.409 381.082 259.352L382.115 258.751C382.209 258.695 382.378 258.695 382.472 258.751L383.505 259.352Z" fill="#4B4A4A"/>
<path d="M385.29 260.385C385.384 260.441 385.384 260.535 385.29 260.592L384.275 261.193C384.181 261.249 384.013 261.249 383.919 261.193L382.885 260.592C382.885 260.592 382.792 260.441 382.885 260.385L383.919 259.784C384.013 259.709 384.181 259.709 384.275 259.784L385.308 260.385H385.29Z" fill="#4B4A4A"/>
<path d="M387.11 261.437C387.11 261.437 387.204 261.587 387.11 261.643L386.077 262.226C386.077 262.226 385.833 262.282 385.721 262.226L384.688 261.643C384.594 261.587 384.594 261.493 384.688 261.437L385.721 260.855C385.814 260.798 385.965 260.798 386.077 260.855L387.11 261.456V261.437Z" fill="#4B4A4A"/>
<path d="M378.097 258.3C378.191 258.357 378.191 258.451 378.097 258.507L377.064 259.108C376.97 259.164 376.801 259.164 376.707 259.108L373.871 257.474C373.777 257.417 373.777 257.324 373.871 257.267L374.904 256.666C374.998 256.61 375.167 256.61 375.261 256.666L378.097 258.319V258.3Z" fill="#4B4A4A"/>
<path d="M379.9 259.352C379.994 259.409 379.994 259.502 379.9 259.559L378.867 260.16C378.754 260.216 378.604 260.216 378.51 260.16L377.477 259.559C377.383 259.502 377.383 259.409 377.477 259.352L378.51 258.751C378.604 258.695 378.773 258.695 378.867 258.751L379.9 259.352Z" fill="#4B4A4A"/>
<path d="M381.758 260.441C381.852 260.498 381.852 260.592 381.758 260.648L380.744 261.249C380.631 261.305 380.481 261.305 380.387 261.249L379.354 260.648C379.241 260.592 379.241 260.498 379.354 260.441L380.368 259.84C380.462 259.784 380.631 259.784 380.725 259.84L381.758 260.441Z" fill="#4B4A4A"/>
<path d="M383.563 261.474C383.657 261.531 383.657 261.624 383.563 261.681L382.531 262.282C382.531 262.282 382.286 262.338 382.174 262.282L381.141 261.681C381.047 261.624 381.047 261.531 381.141 261.455L382.174 260.873C382.268 260.817 382.437 260.817 382.512 260.873L383.545 261.474H383.563Z" fill="#4B4A4A"/>
<path d="M383.751 265.662C383.845 265.719 383.845 265.831 383.751 265.869L382.718 266.47C382.624 266.527 382.474 266.527 382.361 266.47L381.328 265.869C381.234 265.813 381.234 265.719 381.328 265.662L382.361 265.08C382.455 265.024 382.624 265.024 382.718 265.08L383.751 265.662Z" fill="#4B4A4A"/>
<path d="M388.915 262.47C389.009 262.526 389.009 262.62 388.915 262.676L387.882 263.259C387.769 263.315 387.619 263.315 387.525 263.259L386.492 262.676C386.398 262.62 386.398 262.526 386.492 262.47L387.525 261.869C387.525 261.869 387.788 261.812 387.882 261.869L388.915 262.47Z" fill="#4B4A4A"/>
<path d="M385.365 262.508C385.459 262.564 385.459 262.658 385.365 262.714L384.351 263.296C384.257 263.353 384.107 263.353 383.994 263.296L382.961 262.714C382.867 262.658 382.867 262.564 382.961 262.508L383.975 261.907C384.069 261.85 384.238 261.85 384.332 261.907L385.365 262.508Z" fill="#4B4A4A"/>
<path d="M387.168 263.56C387.262 263.616 387.262 263.71 387.168 263.766L386.135 264.367C386.135 264.367 385.872 264.424 385.778 264.367L384.745 263.766C384.745 263.766 384.651 263.616 384.745 263.56L385.778 262.959C385.778 262.959 386.041 262.902 386.135 262.959L387.168 263.56Z" fill="#4B4A4A"/>
<path d="M380.051 261.493C380.145 261.55 380.145 261.643 380.051 261.7L379.037 262.301C378.924 262.357 378.774 262.357 378.68 262.301L377.647 261.7C377.647 261.7 377.553 261.55 377.647 261.493L378.68 260.892C378.68 260.892 378.943 260.836 379.037 260.892L380.07 261.493H380.051Z" fill="#4B4A4A"/>
<path d="M381.853 262.545C381.947 262.601 381.947 262.695 381.853 262.752L380.82 263.334C380.82 263.334 380.557 263.409 380.463 263.334L379.43 262.733C379.336 262.677 379.336 262.583 379.43 262.526L380.463 261.944C380.463 261.944 380.726 261.888 380.82 261.944L381.853 262.526V262.545Z" fill="#4B4A4A"/>
<path d="M383.639 263.578C383.733 263.635 383.733 263.729 383.639 263.785L382.624 264.367C382.53 264.424 382.362 264.424 382.268 264.367L381.234 263.785C381.141 263.71 381.141 263.616 381.234 263.578L382.268 262.977C382.362 262.94 382.53 262.94 382.624 262.977L383.657 263.578H383.639Z" fill="#4B4A4A"/>
<path d="M385.438 264.63C385.532 264.686 385.532 264.78 385.438 264.836L384.406 265.437C384.312 265.494 384.143 265.494 384.049 265.437L383.016 264.836C382.922 264.78 382.922 264.686 383.016 264.63L384.03 264.029C384.124 263.972 384.293 263.972 384.387 264.029L385.42 264.63H385.438Z" fill="#4B4A4A"/>
<path d="M385.555 266.715C385.648 266.771 385.648 266.865 385.555 266.902L384.521 267.504C384.521 267.504 384.277 267.56 384.165 267.504L383.132 266.902C383.132 266.902 383.038 266.752 383.132 266.715L384.165 266.114C384.259 266.057 384.428 266.057 384.521 266.114L385.555 266.715Z" fill="#4B4A4A"/>
<path d="M390.962 263.653C390.962 263.653 391.056 263.803 390.962 263.86L389.929 264.461C389.835 264.517 389.666 264.517 389.572 264.461L388.539 263.86C388.445 263.803 388.445 263.71 388.539 263.653L389.553 263.052C389.666 262.996 389.816 262.996 389.91 263.052L390.943 263.653H390.962Z" fill="#4B4A4A"/>
<path d="M388.97 264.592C389.064 264.648 389.064 264.742 388.97 264.798L387.956 265.399C387.862 265.456 387.693 265.456 387.599 265.399L386.567 264.817C386.473 264.761 386.473 264.667 386.567 264.611L387.599 264.009C387.599 264.009 387.844 263.953 387.956 264.009L388.989 264.611L388.97 264.592Z" fill="#4B4A4A"/>
<path d="M387.243 265.662C387.337 265.719 387.337 265.831 387.243 265.869L386.228 266.47C386.135 266.527 385.966 266.527 385.872 266.47L384.839 265.869C384.839 265.869 384.745 265.719 384.839 265.662L385.853 265.08C385.966 265.024 386.116 265.024 386.21 265.08L387.243 265.662Z" fill="#4B4A4A"/>
<path d="M373.024 259.409C373.118 259.465 373.118 259.559 373.024 259.615L371.992 260.216C371.898 260.273 371.728 260.273 371.635 260.216L370.602 259.615C370.508 259.559 370.508 259.465 370.602 259.409L371.635 258.808C371.635 258.808 371.898 258.77 371.973 258.808L373.006 259.409H373.024Z" fill="#4B4A4A"/>
<path d="M374.732 260.404C374.826 260.461 374.826 260.554 374.732 260.611L373.718 261.193C373.624 261.249 373.455 261.249 373.361 261.193L372.328 260.611C372.234 260.554 372.234 260.442 372.328 260.404L373.361 259.803C373.455 259.747 373.605 259.747 373.718 259.803L374.751 260.404H374.732Z" fill="#4B4A4A"/>
<path d="M376.537 261.437C376.631 261.493 376.631 261.587 376.537 261.643L375.523 262.244C375.429 262.301 375.26 262.301 375.166 262.244L374.133 261.643C374.039 261.587 374.039 261.493 374.133 261.437L375.166 260.836C375.166 260.836 375.41 260.779 375.523 260.836L376.556 261.437H376.537Z" fill="#4B4A4A"/>
<path d="M392.693 262.638C392.787 262.695 392.787 262.789 392.693 262.845L391.66 263.446C391.66 263.446 391.415 263.502 391.303 263.446L383.057 258.694C383.057 258.694 382.963 258.544 383.057 258.469L384.09 257.886C384.09 257.886 384.335 257.83 384.447 257.886L392.693 262.638Z" fill="#000E69"/>
<path d="M394.532 263.71C394.532 263.71 394.626 263.86 394.532 263.916L393.499 264.499C393.405 264.555 393.237 264.555 393.143 264.499L392.109 263.916C392.016 263.86 392.016 263.766 392.109 263.71L393.143 263.109C393.237 263.052 393.405 263.052 393.499 263.109L394.532 263.71Z" fill="#000E69"/>
<path d="M396.351 264.779C396.351 264.779 396.445 264.911 396.351 264.986L395.318 265.587C395.224 265.644 395.055 265.644 394.961 265.587L393.928 264.986C393.816 264.911 393.816 264.836 393.928 264.779L394.943 264.179C395.036 264.141 395.205 264.141 395.299 264.179L396.332 264.779H396.351Z" fill="#000E69"/>
<path d="M392.726 264.723C392.82 264.799 392.82 264.874 392.726 264.93L391.693 265.531C391.599 265.588 391.43 265.588 391.336 265.531L390.303 264.93C390.191 264.874 390.191 264.799 390.303 264.723L391.317 264.141C391.43 264.066 391.58 264.066 391.693 264.141L392.726 264.723Z" fill="#000E69"/>
<path d="M374.679 258.262C374.773 258.319 374.773 258.413 374.679 258.469L373.646 259.07C373.552 259.126 373.383 259.126 373.289 259.07L372.256 258.469C372.144 258.413 372.144 258.319 372.256 258.262L373.289 257.68C373.383 257.624 373.534 257.624 373.646 257.68L374.679 258.281V258.262Z" fill="#4B4A4A"/>
<path d="M376.482 259.314C376.482 259.314 376.576 259.465 376.482 259.521L375.449 260.122C375.449 260.122 375.205 260.179 375.092 260.122L374.059 259.521C373.965 259.465 373.965 259.371 374.059 259.314L375.092 258.714C375.092 258.714 375.336 258.657 375.449 258.714L376.482 259.314Z" fill="#4B4A4A"/>
<path d="M378.286 260.348C378.38 260.404 378.38 260.498 378.286 260.554L377.253 261.155C377.159 261.212 377.009 261.212 376.897 261.155L375.863 260.554C375.769 260.498 375.769 260.404 375.863 260.348L376.878 259.747C376.878 259.747 377.141 259.69 377.234 259.747L378.268 260.348H378.286Z" fill="#4B4A4A"/>
<path d="M390.811 265.775C390.904 265.832 390.904 265.925 390.811 265.982L389.796 266.564C389.702 266.621 389.533 266.621 389.439 266.564L388.406 265.982C388.312 265.925 388.312 265.832 388.406 265.775L389.421 265.174C389.515 265.118 389.684 265.118 389.777 265.174L390.811 265.775Z" fill="#4B4A4A"/>
<path d="M392.841 266.79C392.935 266.846 392.935 266.94 392.841 266.996L391.808 267.597C391.714 267.654 391.545 267.654 391.451 267.597L390.418 266.996C390.324 266.94 390.324 266.846 390.418 266.79L391.451 266.189C391.545 266.132 391.714 266.132 391.808 266.189L392.841 266.79Z" fill="#000E69"/>
<path d="M396.316 268.856C396.41 268.912 396.41 269.006 396.316 269.062L395.283 269.663C395.189 269.72 395.02 269.72 394.926 269.663L392.09 268.029C391.996 267.973 391.996 267.879 392.09 267.823L393.123 267.241C393.236 267.184 393.386 267.184 393.48 267.241L396.316 268.875V268.856Z" fill="#000E69"/>
<path d="M389.047 266.715C389.141 266.771 389.141 266.865 389.047 266.902L388.014 267.504C387.92 267.56 387.751 267.56 387.657 267.504L386.624 266.902C386.624 266.902 386.53 266.752 386.624 266.715L387.657 266.114C387.751 266.057 387.92 266.057 388.014 266.114L389.047 266.715Z" fill="#4B4A4A"/>
<path d="M390.887 267.804C390.981 267.86 390.981 267.973 390.887 268.011L389.854 268.612C389.76 268.668 389.591 268.668 389.497 268.612L388.464 268.011C388.37 267.954 388.352 267.86 388.464 267.804L389.478 267.222C389.572 267.166 389.723 267.166 389.835 267.222L390.868 267.804H390.887Z" fill="#4B4A4A"/>
<path d="M394.455 269.833C394.455 269.833 394.549 269.983 394.455 270.039L393.422 270.622C393.422 270.622 393.159 270.678 393.065 270.622L390.229 268.987C390.229 268.987 390.135 268.837 390.229 268.781L391.262 268.18C391.375 268.124 391.525 268.124 391.619 268.18L394.455 269.814V269.833Z" fill="#000E69"/>
<path d="M387.355 267.691C387.449 267.747 387.449 267.841 387.355 267.898L386.322 268.499C386.228 268.555 386.059 268.555 385.965 268.499L384.932 267.898C384.819 267.841 384.819 267.747 384.932 267.691L385.965 267.109C386.059 267.052 386.228 267.052 386.322 267.109L387.355 267.691Z" fill="#4B4A4A"/>
<path d="M392.765 270.809C392.859 270.866 392.859 270.96 392.765 271.016L391.732 271.598C391.638 271.655 391.469 271.655 391.375 271.598L388.539 269.964C388.445 269.908 388.445 269.814 388.539 269.758L389.572 269.157C389.666 269.1 389.816 269.1 389.929 269.157L392.765 270.791V270.809Z" fill="#000E69"/>
<path d="M398.136 265.813C398.23 265.87 398.23 265.964 398.136 266.02L397.103 266.602C397.01 266.658 396.859 266.658 396.746 266.602L395.714 266.02C395.714 266.02 395.62 265.87 395.714 265.813L396.746 265.212C396.84 265.156 397.01 265.156 397.103 265.212L398.136 265.813Z" fill="#000E69"/>
<path d="M399.976 266.846C400.07 266.902 400.07 266.996 399.976 267.052L398.943 267.653C398.943 267.653 398.699 267.71 398.586 267.653L397.553 267.052C397.441 266.996 397.441 266.902 397.553 266.846L398.586 266.245C398.586 266.245 398.83 266.188 398.943 266.245L399.976 266.846Z" fill="#000E69"/>
<path d="M396.764 266.621L395.731 266.039C395.731 266.039 395.656 265.963 395.656 265.926V266.132C395.656 266.132 395.675 266.208 395.731 266.245L396.764 266.827V266.621Z" fill="#BDDAFC"/>
<path d="M398.211 265.926C398.211 265.926 398.192 266.001 398.136 266.039L397.103 266.621C397.009 266.677 396.859 266.677 396.746 266.621V266.827C396.84 266.902 397.009 266.902 397.103 266.827L398.136 266.245C398.136 266.245 398.211 266.189 398.211 266.132V265.926Z" fill="#BDDAFC"/>
<path d="M398.589 267.635L397.556 267.034C397.556 267.034 397.48 266.978 397.48 266.94V267.128C397.48 267.128 397.518 267.203 397.556 267.241L398.589 267.842V267.635Z" fill="#BDDAFC"/>
<path d="M400.055 266.959C400.055 266.959 400.055 267.015 399.98 267.053L398.947 267.654C398.947 267.654 398.703 267.71 398.59 267.654V267.86C398.684 267.898 398.853 267.917 398.947 267.86L399.98 267.26C399.98 267.26 400.055 267.203 400.055 267.147V266.959Z" fill="#BDDAFC"/>
<path d="M382.022 257.981L380.989 257.399C380.989 257.399 380.914 257.342 380.914 257.286V257.493C380.914 257.493 380.933 257.568 380.989 257.587L382.022 258.188V257.981Z" fill="#646463"/>
<path d="M383.489 257.285C383.489 257.285 383.488 257.361 383.413 257.398L382.38 257.98C382.38 257.98 382.117 258.037 382.023 257.98V258.187C382.117 258.243 382.287 258.243 382.38 258.187L383.413 257.586C383.413 257.586 383.489 257.53 383.489 257.473V257.267V257.285Z" fill="#3D3D3D"/>
<path d="M376.968 263.334L375.935 262.733C375.935 262.733 375.859 262.676 375.859 262.639V262.845C375.859 262.845 375.878 262.92 375.935 262.958L376.968 263.559V263.352V263.334Z" fill="#646463"/>
<path d="M378.415 262.639C378.415 262.639 378.396 262.714 378.34 262.752L377.326 263.334C377.213 263.409 377.063 263.409 376.969 263.334V263.54C377.081 263.597 377.232 263.597 377.326 263.54L378.34 262.939C378.34 262.939 378.415 262.883 378.415 262.827V262.62V262.639Z" fill="#3D3D3D"/>
<path d="M378.753 264.385L377.72 263.803C377.72 263.803 377.645 263.728 377.645 263.69V263.897C377.645 263.897 377.663 263.972 377.72 264.01L378.753 264.611V264.404V264.385Z" fill="#646463"/>
<path d="M380.219 263.69C380.219 263.69 380.2 263.765 380.144 263.803L379.111 264.385C379.111 264.385 378.867 264.442 378.754 264.385V264.592C378.848 264.648 379.017 264.648 379.111 264.592L380.144 264.01C380.144 264.01 380.219 263.935 380.219 263.897V263.69Z" fill="#3D3D3D"/>
<path d="M380.577 265.419L379.544 264.818C379.544 264.818 379.469 264.742 379.469 264.724V264.93C379.469 264.93 379.488 265.005 379.544 265.043L380.577 265.644V265.437V265.419Z" fill="#646463"/>
<path d="M382.02 264.724C382.02 264.724 382.002 264.799 381.945 264.818L380.931 265.419C380.837 265.475 380.668 265.475 380.574 265.419V265.626C380.668 265.682 380.837 265.682 380.931 265.626L381.964 265.024C381.964 265.024 382.039 264.949 382.039 264.912V264.705L382.02 264.724Z" fill="#3D3D3D"/>
<path d="M378.474 258.093L375.637 256.459C375.637 256.459 375.563 256.403 375.563 256.365V256.572C375.563 256.572 375.562 256.647 375.637 256.666L378.474 258.319V258.112V258.093Z" fill="#646463"/>
<path d="M379.919 257.398C379.919 257.398 379.9 257.473 379.844 257.492L378.83 258.093C378.717 258.15 378.567 258.15 378.473 258.093V258.3C378.567 258.356 378.717 258.356 378.83 258.3L379.844 257.699C379.844 257.699 379.919 257.624 379.919 257.586V257.398Z" fill="#3D3D3D"/>
<path d="M380.182 259.033L379.149 258.45C379.149 258.45 379.074 258.375 379.074 258.338V258.544C379.074 258.544 379.093 258.619 379.149 258.657L380.182 259.239V259.033Z" fill="#646463"/>
<path d="M381.649 258.338C381.649 258.338 381.611 258.413 381.573 258.45L380.54 259.033C380.446 259.089 380.278 259.089 380.184 259.033V259.239C380.278 259.296 380.446 259.296 380.54 259.239L381.573 258.657C381.573 258.657 381.649 258.601 381.649 258.563V258.356V258.338Z" fill="#3D3D3D"/>
<path d="M382.116 260.16L381.083 259.577C381.083 259.577 381.008 259.502 381.008 259.465V259.653C381.008 259.653 381.027 259.728 381.083 259.765L382.116 260.366V260.16Z" fill="#646463"/>
<path d="M383.562 259.465C383.562 259.465 383.563 259.54 383.488 259.578L382.454 260.16C382.36 260.216 382.192 260.216 382.098 260.16V260.367C382.192 260.423 382.36 260.423 382.454 260.367L383.488 259.765C383.488 259.765 383.562 259.709 383.562 259.653V259.446V259.465Z" fill="#3D3D3D"/>
<path d="M383.917 261.192L382.884 260.591C382.884 260.591 382.828 260.535 382.828 260.479V260.685C382.828 260.685 382.847 260.76 382.884 260.779L383.917 261.361V261.155V261.192Z" fill="#646463"/>
<path d="M385.364 260.497C385.364 260.497 385.364 260.572 385.289 260.61L384.275 261.211C384.181 261.267 384.012 261.267 383.918 261.211V261.417C384.012 261.474 384.181 261.474 384.275 261.417L385.308 260.835C385.308 260.835 385.383 260.779 385.383 260.741V260.516L385.364 260.497Z" fill="#3D3D3D"/>
<path d="M385.721 262.225L384.688 261.643C384.688 261.643 384.613 261.568 384.613 261.53V261.737C384.613 261.737 384.632 261.812 384.688 261.85L385.721 262.432V262.225Z" fill="#646463"/>
<path d="M387.188 261.53C387.188 261.53 387.15 261.605 387.113 261.643L386.08 262.225C386.08 262.225 385.835 262.282 385.723 262.225V262.432C385.817 262.488 385.967 262.488 386.08 262.432L387.113 261.85C387.113 261.85 387.188 261.774 387.188 261.756V261.549V261.53Z" fill="#3D3D3D"/>
<path d="M376.725 259.108L373.888 257.474C373.888 257.474 373.832 257.399 373.832 257.361V257.568C373.832 257.568 373.832 257.643 373.888 257.662L376.725 259.296V259.108Z" fill="#646463"/>
<path d="M378.173 258.413C378.173 258.413 378.154 258.488 378.116 258.507L377.083 259.108C376.989 259.164 376.82 259.164 376.727 259.108V259.296C376.82 259.352 376.989 259.352 377.083 259.296L378.116 258.714C378.116 258.714 378.173 258.638 378.173 258.62V258.413Z" fill="#3D3D3D"/>
<path d="M378.53 260.14L377.497 259.539C377.497 259.539 377.422 259.464 377.422 259.427V259.633C377.422 259.633 377.459 259.709 377.497 259.746L378.53 260.347V260.14Z" fill="#646463"/>
<path d="M379.977 259.446C379.977 259.446 379.958 259.54 379.902 259.559L378.868 260.16C378.756 260.216 378.606 260.216 378.512 260.16V260.367C378.606 260.423 378.756 260.423 378.868 260.367L379.902 259.765C379.902 259.765 379.977 259.709 379.977 259.653V259.446Z" fill="#3D3D3D"/>
<path d="M380.389 261.249L379.356 260.648C379.356 260.648 379.281 260.572 379.281 260.554V260.76C379.281 260.76 379.3 260.836 379.356 260.854L380.389 261.455V261.249Z" fill="#646463"/>
<path d="M381.853 260.535C381.853 260.535 381.834 260.61 381.777 260.629L380.763 261.23C380.65 261.286 380.5 261.286 380.406 261.23V261.437C380.406 261.437 380.65 261.493 380.763 261.437L381.777 260.836C381.777 260.836 381.853 260.779 381.853 260.742V260.535Z" fill="#3D3D3D"/>
<path d="M382.19 262.282L381.157 261.681C381.157 261.681 381.082 261.606 381.082 261.568V261.775C381.082 261.775 381.101 261.85 381.157 261.888L382.19 262.47V262.263V262.282Z" fill="#646463"/>
<path d="M383.637 261.587C383.637 261.587 383.618 261.662 383.562 261.699L382.529 262.301C382.529 262.301 382.285 262.357 382.172 262.301V262.507C382.266 262.564 382.435 262.564 382.529 262.507L383.562 261.925C383.562 261.925 383.637 261.85 383.637 261.812V261.606V261.587Z" fill="#3D3D3D"/>
<path d="M382.358 266.471L381.325 265.869C381.325 265.869 381.25 265.813 381.25 265.757V265.963C381.25 265.963 381.25 266.039 381.325 266.076L382.358 266.658V266.452V266.471Z" fill="#646463"/>
<path d="M383.824 265.757C383.824 265.757 383.806 265.832 383.749 265.869L382.716 266.471C382.622 266.527 382.472 266.527 382.359 266.471V266.677C382.472 266.733 382.622 266.733 382.716 266.677L383.749 266.095C383.749 266.095 383.824 266.02 383.824 265.982V265.776V265.757Z" fill="#3D3D3D"/>
<path d="M387.526 263.278L386.493 262.696C386.493 262.696 386.418 262.62 386.418 262.602V262.808C386.418 262.808 386.437 262.883 386.493 262.902L387.526 263.503V263.296V263.278Z" fill="#646463"/>
<path d="M388.973 262.582C388.973 262.582 388.954 262.657 388.898 262.676L387.865 263.258C387.752 263.315 387.602 263.315 387.508 263.258V263.465C387.602 263.521 387.771 263.521 387.865 263.465L388.898 262.864C388.898 262.864 388.973 262.808 388.973 262.77V262.563V262.582Z" fill="#3D3D3D"/>
<path d="M383.995 263.315L382.962 262.733C382.962 262.733 382.887 262.658 382.887 262.62V262.827C382.887 262.827 382.906 262.902 382.962 262.939L383.995 263.54V263.334V263.315Z" fill="#646463"/>
<path d="M385.458 262.62C385.458 262.62 385.42 262.695 385.383 262.733L384.368 263.315C384.275 263.371 384.124 263.371 384.012 263.315V263.522C384.106 263.578 384.256 263.578 384.368 263.522L385.383 262.939C385.383 262.939 385.458 262.864 385.458 262.827V262.62Z" fill="#3D3D3D"/>
<path d="M385.796 264.367L384.762 263.766C384.762 263.766 384.688 263.71 384.688 263.653V263.86C384.688 263.86 384.687 263.935 384.762 263.954L385.796 264.555V264.348V264.367Z" fill="#646463"/>
<path d="M387.243 263.672C387.243 263.672 387.243 263.747 387.187 263.766L386.154 264.367C386.154 264.367 385.891 264.423 385.797 264.367V264.573C385.891 264.63 386.06 264.63 386.154 264.573L387.187 263.972C387.187 263.972 387.243 263.916 387.243 263.878V263.672Z" fill="#3D3D3D"/>
<path d="M378.66 262.301L377.627 261.699C377.627 261.699 377.57 261.643 377.57 261.587V261.793C377.57 261.793 377.589 261.869 377.627 261.906L378.66 262.507V262.301Z" fill="#646463"/>
<path d="M380.106 261.606C380.106 261.606 380.088 261.681 380.031 261.699L379.017 262.301C378.904 262.357 378.754 262.357 378.66 262.301V262.507C378.754 262.564 378.923 262.564 379.017 262.507L380.031 261.906C380.031 261.906 380.106 261.831 380.106 261.793V261.587V261.606Z" fill="#3D3D3D"/>
<path d="M380.464 263.334L379.431 262.733C379.431 262.733 379.355 262.676 379.355 262.639V262.845C379.355 262.845 379.356 262.92 379.431 262.958L380.464 263.559V263.352V263.334Z" fill="#646463"/>
<path d="M381.91 262.639C381.91 262.639 381.892 262.714 381.835 262.752L380.802 263.334C380.802 263.334 380.539 263.409 380.445 263.334V263.54C380.445 263.54 380.708 263.597 380.802 263.54L381.835 262.939C381.835 262.939 381.91 262.883 381.91 262.827V262.62V262.639Z" fill="#3D3D3D"/>
<path d="M382.268 264.385L381.235 263.803C381.235 263.803 381.16 263.728 381.16 263.69V263.897C381.16 263.897 381.179 263.972 381.235 264.01L382.268 264.592V264.385Z" fill="#646463"/>
<path d="M383.731 263.69C383.731 263.69 383.713 263.765 383.656 263.803L382.642 264.385C382.548 264.442 382.379 264.442 382.285 264.385V264.592C382.379 264.648 382.529 264.648 382.642 264.592L383.656 264.01C383.656 264.01 383.731 263.935 383.731 263.897V263.69Z" fill="#3D3D3D"/>
<path d="M384.069 265.419L383.036 264.818C383.036 264.818 382.961 264.761 382.961 264.724V264.93C382.961 264.93 382.98 265.005 383.036 265.043L384.069 265.644V265.437V265.419Z" fill="#646463"/>
<path d="M385.535 264.724C385.535 264.724 385.498 264.799 385.46 264.818L384.427 265.419C384.333 265.475 384.164 265.475 384.07 265.419V265.626C384.164 265.682 384.315 265.682 384.427 265.626L385.441 265.024C385.441 265.024 385.517 264.949 385.517 264.912V264.705L385.535 264.724Z" fill="#3D3D3D"/>
<path d="M384.163 267.504L383.13 266.903C383.13 266.903 383.055 266.846 383.055 266.809V267.015C383.055 267.015 383.092 267.09 383.13 267.128L384.163 267.729V267.522V267.504Z" fill="#646463"/>
<path d="M385.629 266.809C385.629 266.809 385.61 266.884 385.554 266.903L384.521 267.504C384.521 267.504 384.277 267.56 384.164 267.504V267.71C384.258 267.767 384.427 267.767 384.521 267.71L385.554 267.109C385.554 267.109 385.629 267.034 385.629 266.997V266.79V266.809Z" fill="#3D3D3D"/>
<path d="M389.327 264.329L388.294 263.728C388.294 263.728 388.219 263.653 388.219 263.615V263.822C388.219 263.822 388.237 263.916 388.294 263.935L389.327 264.536V264.329Z" fill="#646463"/>
<path d="M391.039 263.747C391.039 263.747 391.02 263.822 390.964 263.86L389.931 264.461C389.837 264.517 389.668 264.517 389.574 264.461V264.667C389.668 264.724 389.837 264.724 389.931 264.667L390.964 264.066C390.964 264.066 391.039 264.01 391.039 263.972V263.766V263.747Z" fill="#3D3D3D"/>
<path d="M387.6 265.4L386.567 264.818C386.567 264.818 386.492 264.743 386.492 264.705V264.912C386.492 264.912 386.511 264.987 386.567 265.024L387.6 265.626V265.419V265.4Z" fill="#646463"/>
<path d="M389.067 264.705C389.067 264.705 389.03 264.78 388.992 264.799L387.978 265.4C387.884 265.456 387.715 265.456 387.621 265.4V265.607C387.715 265.663 387.884 265.663 387.978 265.607L388.992 265.006C388.992 265.006 389.067 264.931 389.067 264.893V264.687V264.705Z" fill="#3D3D3D"/>
<path d="M385.874 266.471L384.841 265.869C384.841 265.869 384.766 265.813 384.766 265.757V265.963C384.766 265.963 384.784 266.039 384.841 266.076L385.874 266.658V266.452V266.471Z" fill="#646463"/>
<path d="M387.317 265.757C387.317 265.757 387.299 265.832 387.242 265.869L386.228 266.471C386.134 266.527 385.965 266.527 385.871 266.471V266.677C385.965 266.733 386.134 266.733 386.228 266.677L387.242 266.095C387.242 266.095 387.317 266.02 387.317 265.982V265.776V265.757Z" fill="#3D3D3D"/>
<path d="M371.635 260.216L370.603 259.615C370.603 259.615 370.527 259.559 370.527 259.521V259.728C370.527 259.728 370.546 259.803 370.603 259.822L371.635 260.423V260.216Z" fill="#646463"/>
<path d="M373.082 259.502C373.082 259.502 373.063 259.577 373.007 259.615L371.974 260.216C371.88 260.272 371.711 260.272 371.617 260.216V260.422C371.617 260.422 371.88 260.479 371.974 260.422L373.007 259.821C373.007 259.821 373.082 259.746 373.082 259.709V259.502Z" fill="#3D3D3D"/>
<path d="M373.346 261.212L372.313 260.629C372.313 260.629 372.238 260.554 372.238 260.517V260.723C372.238 260.723 372.276 260.798 372.313 260.836L373.346 261.437V261.23V261.212Z" fill="#646463"/>
<path d="M374.81 260.516C374.81 260.516 374.791 260.591 374.734 260.61L373.72 261.192C373.626 261.249 373.457 261.249 373.363 261.192V261.399C373.476 261.455 373.626 261.455 373.72 261.399L374.734 260.798C374.734 260.798 374.81 260.742 374.81 260.685V260.479V260.516Z" fill="#3D3D3D"/>
<path d="M375.167 262.245L374.134 261.644C374.134 261.644 374.059 261.569 374.059 261.55V261.756C374.059 261.756 374.077 261.832 374.134 261.85L375.167 262.433V262.245Z" fill="#646463"/>
<path d="M376.614 261.55C376.614 261.55 376.595 261.625 376.539 261.644L375.525 262.245C375.431 262.301 375.262 262.301 375.168 262.245V262.433C375.262 262.489 375.431 262.489 375.525 262.433L376.539 261.85C376.539 261.85 376.614 261.794 376.614 261.756V261.55Z" fill="#3D3D3D"/>
<path d="M391.3 263.446L383.036 258.638C383.036 258.638 382.961 258.582 382.961 258.525V258.732C382.961 258.732 382.999 258.807 383.074 258.863L391.319 263.615V263.409L391.3 263.446Z" fill="#646463"/>
<path d="M393.14 264.498L392.106 263.916C392.106 263.916 392.031 263.84 392.031 263.803V264.009C392.031 264.009 392.031 264.085 392.106 264.122L393.14 264.723V264.516V264.498Z" fill="#BDDAFC"/>
<path d="M394.605 263.803C394.605 263.803 394.587 263.878 394.53 263.916L393.497 264.498C393.403 264.554 393.235 264.554 393.141 264.498V264.704C393.141 264.704 393.403 264.761 393.497 264.704L394.53 264.104C394.53 264.104 394.605 264.047 394.605 263.991V263.784V263.803Z" fill="#BDDAFC"/>
<path d="M392.766 262.732C392.766 262.732 392.766 262.807 392.691 262.845L391.658 263.446C391.658 263.446 391.413 263.503 391.301 263.446V263.634C391.395 263.709 391.564 263.709 391.658 263.634L392.691 263.052C392.691 263.052 392.766 262.977 392.766 262.958V262.751V262.732Z" fill="#BDDAFC"/>
<path d="M394.964 265.588L393.93 264.987C393.93 264.987 393.855 264.912 393.855 264.874V265.081C393.855 265.081 393.855 265.156 393.93 265.193L394.964 265.794V265.588Z" fill="#BDDAFC"/>
<path d="M396.43 264.874C396.43 264.874 396.411 264.949 396.355 264.987L395.322 265.588C395.228 265.644 395.059 265.644 394.965 265.588V265.794C395.059 265.851 395.228 265.851 395.322 265.794L396.355 265.193C396.355 265.193 396.43 265.137 396.43 265.081V264.874Z" fill="#BDDAFC"/>
<path d="M381.644 256.14C381.644 256.14 381.738 256.291 381.644 256.347L380.611 256.929C380.498 256.986 380.348 256.986 380.254 256.929L377.418 255.295C377.324 255.239 377.324 255.145 377.418 255.089L378.451 254.488C378.545 254.431 378.714 254.431 378.808 254.488L381.644 256.122V256.14Z" fill="#4B4A4A"/>
<path d="M380.255 256.948L377.419 255.314C377.419 255.314 377.344 255.239 377.344 255.22V255.426C377.344 255.426 377.363 255.502 377.419 255.52L380.255 257.154V256.948Z" fill="#646463"/>
<path d="M381.719 256.253C381.719 256.253 381.7 256.328 381.644 256.366L380.611 256.948C380.498 257.004 380.348 257.004 380.254 256.948V257.155C380.367 257.211 380.517 257.211 380.611 257.155L381.644 256.554C381.644 256.554 381.719 256.497 381.719 256.46V256.253Z" fill="#3D3D3D"/>
<path d="M391.339 265.531L390.306 264.93C390.306 264.93 390.23 264.855 390.23 264.836V265.043C390.23 265.043 390.249 265.118 390.306 265.155L391.339 265.737V265.531Z" fill="#646463"/>
<path d="M392.805 264.836C392.805 264.836 392.767 264.911 392.73 264.93L391.697 265.531C391.603 265.587 391.434 265.587 391.34 265.531V265.737C391.34 265.737 391.603 265.794 391.697 265.737L392.711 265.155C392.711 265.155 392.786 265.08 392.786 265.043V264.836H392.805Z" fill="#BDDAFC"/>
<path d="M373.288 259.07L372.255 258.469C372.255 258.469 372.18 258.394 372.18 258.375V258.582C372.18 258.582 372.199 258.657 372.255 258.676L373.288 259.277V259.07Z" fill="#646463"/>
<path d="M374.754 258.375C374.754 258.375 374.735 258.45 374.679 258.469L373.646 259.07C373.552 259.126 373.383 259.126 373.289 259.07V259.277C373.383 259.352 373.552 259.352 373.646 259.277L374.679 258.676C374.679 258.676 374.754 258.601 374.754 258.582V258.375Z" fill="#3D3D3D"/>
<path d="M375.093 260.122L374.06 259.521C374.06 259.521 373.984 259.446 373.984 259.408V259.615C373.984 259.615 374.003 259.69 374.06 259.728L375.093 260.329V260.122Z" fill="#646463"/>
<path d="M376.539 259.408C376.539 259.408 376.539 259.483 376.464 259.521L375.431 260.122C375.431 260.122 375.187 260.178 375.074 260.122V260.329C375.168 260.385 375.337 260.385 375.431 260.329L376.464 259.728C376.464 259.728 376.539 259.652 376.539 259.615V259.408Z" fill="#3D3D3D"/>
<path d="M376.893 261.155L375.86 260.554C375.86 260.554 375.785 260.479 375.785 260.441V260.648C375.785 260.648 375.823 260.723 375.86 260.761L376.893 261.343V261.136V261.155Z" fill="#646463"/>
<path d="M378.36 260.46C378.36 260.46 378.341 260.535 378.284 260.573L377.251 261.173C377.157 261.23 377.007 261.23 376.895 261.173V261.38C376.988 261.437 377.139 261.437 377.251 261.38L378.284 260.798C378.284 260.798 378.36 260.723 378.36 260.685V260.479V260.46Z" fill="#3D3D3D"/>
<path d="M389.405 266.451L388.372 265.85C388.372 265.85 388.297 265.775 388.297 265.737V265.944C388.297 265.944 388.316 266.019 388.372 266.057L389.405 266.639V266.432V266.451Z" fill="#646463"/>
<path d="M390.888 265.869C390.888 265.869 390.85 265.944 390.813 265.982L389.798 266.564C389.704 266.621 389.535 266.621 389.441 266.564V266.771C389.554 266.827 389.704 266.827 389.798 266.771L390.813 266.17C390.813 266.17 390.888 266.095 390.888 266.076V265.869Z" fill="#3D3D3D"/>
<path d="M391.452 267.598L390.419 266.997C390.419 266.997 390.344 266.921 390.344 266.884V267.109C390.344 267.109 390.362 267.184 390.419 267.222L391.452 267.804V267.598Z" fill="#646463"/>
<path d="M392.914 266.884C392.914 266.884 392.895 266.959 392.839 266.997L391.806 267.598C391.712 267.654 391.543 267.654 391.449 267.598V267.804C391.543 267.86 391.712 267.86 391.806 267.804L392.839 267.222C392.839 267.222 392.914 267.147 392.914 267.109V266.884Z" fill="#BDDAFC"/>
<path d="M394.927 269.644L392.091 268.01C392.091 268.01 392.016 267.935 392.016 267.897V268.104C392.016 268.104 392.034 268.179 392.091 268.217L394.927 269.851V269.644Z" fill="#BDDAFC"/>
<path d="M396.391 268.949C396.391 268.949 396.372 269.024 396.316 269.062L395.283 269.663C395.189 269.719 395.02 269.719 394.926 269.663V269.87C395.02 269.926 395.17 269.926 395.283 269.87L396.316 269.269C396.316 269.269 396.391 269.212 396.391 269.175V268.968V268.949Z" fill="#BDDAFC"/>
<path d="M387.674 267.504L386.641 266.903C386.641 266.903 386.566 266.846 386.566 266.809V267.015C386.566 267.015 386.585 267.09 386.641 267.128L387.674 267.729V267.522V267.504Z" fill="#646463"/>
<path d="M389.121 266.809C389.121 266.809 389.084 266.884 389.046 266.903L388.013 267.504C387.919 267.56 387.75 267.56 387.656 267.504V267.71C387.75 267.767 387.919 267.767 388.013 267.71L389.046 267.109C389.046 267.109 389.121 267.034 389.121 267.015V266.809Z" fill="#3D3D3D"/>
<path d="M389.479 268.555L388.446 267.954C388.446 267.954 388.371 267.898 388.371 267.86V268.067C388.371 268.067 388.39 268.142 388.446 268.161L389.479 268.762V268.555Z" fill="#646463"/>
<path d="M390.961 267.917C390.961 267.917 390.942 267.992 390.886 268.03L389.853 268.631C389.759 268.687 389.59 268.687 389.496 268.631V268.819C389.496 268.819 389.74 268.894 389.834 268.819L390.867 268.236C390.867 268.236 390.942 268.161 390.942 268.142V267.936L390.961 267.917Z" fill="#3D3D3D"/>
<path d="M393.083 270.622L390.247 268.988C390.247 268.988 390.172 268.931 390.172 268.875V269.082C390.172 269.082 390.191 269.157 390.247 269.194L393.083 270.828V270.622Z" fill="#BDDAFC"/>
<path d="M394.531 269.945C394.531 269.945 394.513 270.02 394.456 270.039L393.423 270.621C393.423 270.621 393.16 270.677 393.066 270.621V270.827C393.16 270.902 393.329 270.902 393.423 270.827L394.456 270.226C394.456 270.226 394.531 270.17 394.531 270.132V269.926V269.945Z" fill="#BDDAFC"/>
<path d="M385.967 268.499L384.935 267.898C384.935 267.898 384.859 267.822 384.859 267.804V268.01C384.859 268.01 384.878 268.086 384.935 268.104L385.967 268.705V268.499Z" fill="#646463"/>
<path d="M387.43 267.804C387.43 267.804 387.411 267.879 387.355 267.898L386.322 268.499C386.228 268.555 386.059 268.555 385.965 268.499V268.705C386.059 268.78 386.228 268.78 386.322 268.705L387.355 268.104C387.355 268.104 387.43 268.048 387.43 268.01V267.804Z" fill="#3D3D3D"/>
<path d="M387.768 269.532L386.735 268.931C386.735 268.931 386.66 268.856 386.66 268.818V269.025C386.66 269.025 386.679 269.1 386.735 269.138L387.768 269.739V269.532Z" fill="#646463"/>
<path d="M389.235 268.837C389.235 268.837 389.217 268.912 389.16 268.949L388.146 269.551C388.033 269.607 387.883 269.607 387.789 269.551V269.757C387.789 269.757 388.052 269.814 388.146 269.757L389.16 269.156C389.16 269.156 389.235 269.081 389.235 269.062V268.856V268.837Z" fill="#3D3D3D"/>
<path d="M389.158 268.743C389.252 268.8 389.252 268.893 389.158 268.95L388.144 269.551C388.031 269.607 387.881 269.607 387.787 269.551L386.754 268.95C386.66 268.893 386.66 268.8 386.754 268.743L387.787 268.142C387.787 268.142 388.05 268.086 388.144 268.142L389.177 268.743H389.158Z" fill="#4B4A4A"/>
<path d="M391.376 271.617L388.54 269.983C388.54 269.983 388.465 269.907 388.465 269.889V270.095C388.465 270.095 388.465 270.17 388.54 270.189L391.376 271.823V271.617Z" fill="#646463"/>
<path d="M392.84 270.903C392.84 270.903 392.821 270.979 392.765 271.016L391.732 271.598C391.638 271.655 391.469 271.655 391.375 271.598V271.805C391.469 271.861 391.638 271.861 391.732 271.805L392.746 271.223C392.746 271.223 392.821 271.147 392.821 271.11V270.903H392.84Z" fill="#BDDAFC"/>
<path d="M398.119 267.841C398.213 267.897 398.213 267.991 398.119 268.048L397.086 268.649C396.992 268.705 396.823 268.705 396.729 268.649L392.184 266C392.09 265.944 392.09 265.85 392.184 265.794L393.198 265.193C393.292 265.136 393.461 265.136 393.555 265.193L398.119 267.822V267.841Z" fill="#000E69"/>
<path d="M396.73 268.649L392.185 266C392.185 266 392.109 265.944 392.109 265.906V266.113C392.109 266.113 392.128 266.188 392.185 266.207L396.73 268.855V268.649Z" fill="#BDDAFC"/>
<path d="M398.196 267.935C398.196 267.935 398.177 268.01 398.12 268.047L397.087 268.648C396.994 268.705 396.824 268.705 396.73 268.648V268.855C396.824 268.911 396.994 268.911 397.087 268.855L398.12 268.254C398.12 268.254 398.196 268.198 398.196 268.16V267.953V267.935Z" fill="#BDDAFC"/>
<path d="M394.492 272.799L395.45 272.255V271.936L394.492 272.48V272.799Z" fill="#1C1C1C"/>
<path d="M396.09 271.898L397.048 271.354V271.034L396.09 271.579V271.898Z" fill="#1C1C1C"/>
<path d="M388.218 257.831C388.218 257.831 387.767 250.167 388.162 248.27C388.538 246.43 385.57 245.359 383.673 246.054C382.321 246.561 381.701 247.05 381.382 248.496C381.062 249.867 381.381 253.06 381.456 253.642C381.982 258.92 382.865 261.568 382.865 261.568L388.199 257.831H388.218Z" fill="#5B68B7"/>
<path d="M384.125 257.079C384.538 258.056 384.463 258.187 385.364 257.793C385.684 257.661 386.886 257.793 386.698 258.882C386.529 259.803 387.581 260.854 387.938 259.483C387.994 259.296 388.332 257.962 387.975 257.399C386.285 254.656 384.726 254.356 383.824 254.75C382.941 255.126 383.712 256.102 384.125 257.079Z" fill="#F1CEB5"/>
<path d="M381.853 255.539C381.853 255.539 383.506 254.6 384.239 254.6C385.891 254.6 386.549 255.971 386.549 255.971L386.755 256.459L387.469 259.934C387.469 259.934 388.277 262.394 388.164 263.446C388.108 263.841 387.713 263.859 387.338 263.559C387.037 263.315 386.567 261.436 386.211 261.512C384.238 261.868 382.83 261.324 382.83 261.324L381.421 258.168C380.914 257.079 380.858 256.102 381.872 255.539H381.853Z" fill="#F1CEB5"/>
<path d="M368.851 243.18C368.532 242.992 368.137 242.992 367.837 243.18L367.574 243.349L390.676 256.947L391.146 273.851L391.691 273.532V257.492C391.691 256.759 391.296 256.083 390.676 255.727L368.851 243.18Z" fill="#0016A0"/>
<path d="M390.133 256.026C390.772 256.402 391.148 257.078 391.148 257.792V273.832L367.125 260.008V243.968C367.125 243.442 367.689 243.123 368.139 243.386L390.115 256.026H390.133Z" fill="#3F4FB5"/>
<path d="M400.579 257.999C400.579 257.999 401.293 259.032 401.349 259.426C401.406 259.821 401.424 260.215 401.011 260.272C400.617 260.328 400.016 259.502 400.016 259.502L400.579 257.999Z" fill="#000E69"/>
<path d="M397.669 258.732C396.654 259.07 395.528 257.924 395.227 257.004C395.114 256.703 393.161 257.135 392.297 256.891C391.377 256.647 391.565 255.726 391.752 255.539C391.903 255.388 393.011 255.464 395.002 255.295C397.556 255.088 399.847 255.689 400.167 256.609C400.467 257.53 398.702 258.394 397.687 258.732H397.669Z" fill="white"/>
<path d="M401.198 258.056C400.672 255.069 399.226 255.689 399.226 255.689C399.226 255.689 393.854 256.196 392.671 256.947C391.882 257.454 389.14 259.802 388.896 260.497C388.633 261.211 389.891 261.68 389.891 261.68C391.469 262.789 393.122 262.019 393.122 262.019L397.348 260.648C401.592 259.746 401.442 259.314 401.217 258.037L401.198 258.056Z" fill="white"/>
<path d="M400.747 257.68C401.33 259.089 400.954 260.291 401.01 260.272C405.218 259.483 414.703 255.727 417.539 254.581C422.817 252.459 421.558 247.387 421.558 247.387C421.558 247.387 419.586 235.141 415.379 226.783C413.219 222.463 408.918 226.464 409.387 231.686C409.65 234.597 410.852 239.724 412.787 243.744C414.233 246.768 411.735 249.003 411.735 249.003L399.113 255.633C399.113 255.633 400.109 256.215 400.729 257.68H400.747Z" fill="#6E7DDA"/>
<path d="M408.466 221.618C408.053 221.43 407.64 221.261 407.265 221.111C406.739 220.923 406.25 220.792 403.79 220.472L397.948 220.003L397.648 220.304L393.91 229.469L397.46 234.672L398.418 232.23L402.043 226.783L408.448 221.618H408.466Z" fill="#BDDAFC"/>
<path d="M395.111 226.407C395.092 226.727 395.918 229.225 397.684 229.018C401.553 228.548 401.741 224.83 402.06 223.252C402.455 221.355 400.633 220.322 400.633 220.322L394.547 215.589L389.176 222.858L395.111 226.407Z" fill="#EEEEEE"/>
<path d="M394.078 224.511L395.411 225.844C395.411 225.844 394.735 227.629 395.224 229.432C395.599 230.859 396.895 233.601 397.571 234.428C397.647 234.503 397.571 234.86 397.571 234.86C397.571 234.86 395.975 233.169 394.153 230.897C392.331 228.605 392.012 224.811 392.012 224.811L394.078 224.492V224.511Z" fill="#5B68B7"/>
<path d="M392.502 208.79L398.587 209.316L397.817 218.932C397.686 219.684 397.347 222.257 397.178 222.877C396.991 223.553 396.746 224.304 395.582 224.98C395.582 224.98 392.652 226.896 391.487 227.159C390.717 227.328 389.233 226.52 389.233 226.52C388.351 225.863 387.543 224.21 387.205 222.163L385.59 213.223L386.341 207.193L392.52 208.79H392.502Z" fill="white"/>
<path d="M384.764 208.189C384.764 208.189 386.098 208.714 385.515 209.053C384.182 209.804 383.562 210.724 383.788 210.574C384.201 210.311 385.609 212.133 385.534 213.072C385.515 213.41 387.056 214.913 390.831 213.222C391.902 212.734 393.723 212.603 394.869 215.589C395.113 216.209 395.395 216.397 395.564 217.261C395.77 218.237 395.921 219.064 395.958 219.082C396.184 219.176 396.353 217.599 396.728 216.735C396.728 216.735 397.104 215.589 398.062 215.814C399.227 216.077 398.118 218.744 398.043 218.876L400.203 220.003C400.316 220.078 399.79 219.308 399.978 218.857C401.011 216.547 401.311 215.795 401.556 215.063C402.495 212.133 401.687 209.146 399.696 206.949C398.644 205.803 396.541 204.77 396.409 204.695C395.038 203.906 392.615 203.587 392.765 203.662C393.235 203.906 393.535 204.413 392.991 204.413C392.859 204.413 392.39 204.263 391.864 204.226C391.469 204.188 389.816 204.057 389.929 204.113C390.605 204.507 390.681 204.845 390.192 204.977C390.023 205.014 388.145 204.639 387.45 204.977C387.356 205.033 388.708 206.085 388.427 206.085C386.699 206.16 385.177 206.536 384.764 207.099C384.708 207.193 385.534 206.592 386.286 207.268C386.53 207.512 386.06 207.362 385.365 207.738C384.99 207.926 384.745 208.151 384.745 208.151L384.764 208.189Z" fill="#925115"/>
<path d="M397.893 215.552C396.485 215.045 396.053 217.374 396.053 217.374L395.715 220.003C395.715 220.003 395.715 220.98 396.316 221.092C397.011 221.224 397.555 220.773 398.025 219.928C398.044 219.872 398.739 218.707 398.776 218.632C399.302 217.599 399.284 216.059 397.875 215.533L397.893 215.552Z" fill="white"/>
<path d="M397.533 234.897C397.533 234.897 402.698 226.164 406.586 224.492C410.474 222.802 413.423 224.379 413.423 224.379C413.423 224.379 413.592 223.14 410.737 221.036C407.901 218.933 406.004 219.44 404.107 220.792C402.21 222.163 399.468 226.652 398.435 229.394C397.233 232.512 397.533 234.879 397.533 234.879V234.897Z" fill="#5B68B7"/>
<path d="M386.002 308.204C385.89 308.317 385.721 308.261 385.608 308.167C385.214 307.791 384.35 307.002 383.636 306.683C383.091 306.42 382.659 306.439 382.378 306.514C382.227 306.552 382.077 306.514 382.002 306.382C381.945 306.288 381.946 306.138 382.058 306.101C382.359 306.007 383.035 305.856 383.842 306.232C384.669 306.645 385.646 307.528 386.002 307.885C386.096 307.96 386.059 308.11 386.002 308.204Z" fill="#F4F4F4"/>
<path d="M385.044 308.993C384.95 309.106 384.781 309.05 384.668 308.956C384.274 308.599 383.391 307.81 382.696 307.472C382.151 307.209 381.701 307.247 381.438 307.303C381.287 307.341 381.137 307.303 381.062 307.19C381.006 307.096 381.006 306.946 381.099 306.909C381.4 306.815 382.076 306.665 382.884 307.059C383.71 307.454 384.687 308.336 385.063 308.693C385.138 308.768 385.119 308.918 385.044 309.012V308.993Z" fill="#F4F4F4"/>
<path d="M372.44 290.117C372.328 290.117 372.234 290.023 372.215 289.891C372.159 289.384 372.027 288.765 371.82 288.52C371.727 288.408 371.576 288.351 371.52 288.22C371.483 288.088 371.576 287.976 371.708 287.976C371.802 287.976 371.877 288.013 371.952 288.07C372.403 288.351 372.572 289.328 372.628 289.816C372.628 289.948 372.572 290.079 372.44 290.098V290.117Z" fill="#F4F4F4"/>
<path d="M371.467 290.38C371.335 290.38 371.26 290.286 371.241 290.155C371.185 289.666 371.035 289.047 370.847 288.802C370.772 288.69 370.603 288.633 370.546 288.502C370.509 288.37 370.622 288.258 370.734 288.276C370.809 288.276 370.903 288.314 370.978 288.37C371.429 288.671 371.579 289.629 371.636 290.117C371.636 290.249 371.579 290.38 371.448 290.38H371.467Z" fill="#F4F4F4"/>
<path d="M370.62 290.737C370.507 290.737 370.413 290.642 370.395 290.53C370.338 290.023 370.188 289.403 370 289.14C369.906 289.027 369.756 288.99 369.7 288.839C369.662 288.727 369.756 288.595 369.888 288.614C369.963 288.614 370.057 288.652 370.132 288.689C370.582 288.971 370.751 289.948 370.808 290.455C370.808 290.586 370.752 290.718 370.62 290.718V290.737Z" fill="#F4F4F4"/>
<path d="M486.719 325.619L461.934 339.953L486.76 354.287L511.586 339.953L486.719 325.619Z" fill="#BEC1C1"/>
<path d="M504.011 333.343L486.775 343.285L469.539 333.343L486.748 323.389L504.011 333.343Z" fill="#F4DBAB"/>
<path d="M486.775 349.357L469.539 339.416V333.344L486.775 343.285V349.357Z" fill="#2D3B8B"/>
<path d="M504.009 339.416L486.773 349.357V343.285L504.009 333.344V339.416Z" fill="#C6CEFF"/>
<path d="M505.139 327.93L486.775 338.529L468.41 327.93L486.748 317.33L505.139 327.93Z" fill="#F5F5F5"/>
<path d="M486.775 337.454L469.539 327.513V321.44L486.775 331.382V337.454Z" fill="#2D3B8B"/>
<path d="M504.009 327.513L486.773 337.454V331.382L504.009 321.44V327.513Z" fill="#C6CEFF"/>
<path d="M486.775 345.004L468.41 334.405V327.93L486.775 338.529V345.004Z" fill="#5468E1"/>
<path d="M505.138 334.405L486.773 345.004V338.529L505.138 327.93V334.405Z" fill="#E9ECFF"/>
<path d="M506.482 314.24L486.774 325.619L467.066 314.24L486.747 302.861L506.482 314.24Z" fill="white"/>
<path d="M486.64 306.583L486.761 306.502L500.195 314.227L498.032 315.476L486.761 321.991L486.64 321.924L475.49 315.489L473.367 314.253L486.197 306.838L486.64 306.583Z" fill="#2D3B8B"/>
<path d="M486.774 332.564L467.066 321.186V314.24L486.774 325.619V332.564Z" fill="#5468E1"/>
<path d="M506.481 321.186L486.773 332.564V325.619L506.481 314.24V321.186Z" fill="#E9ECFF"/>
<path d="M486.64 306.583V321.925L473.367 314.254L486.197 306.838L486.64 306.583Z" fill="#C6CEFF"/>
<path d="M498.031 315.476L486.759 321.991L486.639 321.924L475.488 315.489L486.746 308.974L498.031 315.476Z" fill="#5468E1"/>
<path d="M486.545 316.994C486.545 316.994 482.206 290.287 493.612 276.49C505.017 262.707 512.003 257.172 512.003 257.172C512.003 257.172 493.8 261.269 486.707 280.399C479.613 299.53 486.545 316.98 486.545 316.98V316.994Z" fill="#616DBA"/>
<path d="M485.82 295.957C485.82 295.957 490.199 274.287 488.385 261.404C486.572 248.521 474.078 236.014 474.078 236.014C474.078 236.014 479.747 259.496 480.849 269.384C481.574 275.886 483.455 292.074 483.455 292.074L485.82 295.957Z" fill="#616DBA"/>
<path d="M474.094 236.013C474.094 236.013 484.398 261.659 484.975 269.128C485.553 276.598 486.735 290.878 486.735 290.878L485.728 297.703L482.436 283.06L480.3 265.353L474.107 236L474.094 236.013Z" fill="#30365F"/>
<path d="M486.546 316.994C486.546 316.994 484.76 289.428 477.411 282.711C470.063 275.994 448.004 272.931 448.004 272.931C448.004 272.931 457.126 270.419 468.155 273.898C479.184 277.377 484.464 283.651 485.337 290.153C486.21 296.655 486.56 317.008 486.56 317.008L486.546 316.994Z" fill="#2D3B8B"/>
<path d="M197.297 267.178L216.234 278.01V273.453L197.297 262.611V267.178Z" fill="#111A53"/>
<path d="M222.231 274.543L216.234 278.009V273.453L222.231 269.986V274.543Z" fill="#2234A4"/>
<path d="M268.653 247.737L262.656 251.204V246.647L268.653 243.181V247.737Z" fill="#2234A4"/>
<path d="M243.719 240.373L262.656 251.204V246.647L243.719 235.806V240.373Z" fill="#111A53"/>
<path d="M248.153 255.021L236.746 261.604V258.436L248.153 251.853V255.021Z" fill="#A9BFD4"/>
<path d="M217.809 247.594L229.216 241.011L248.153 251.852L236.745 258.435L217.809 247.594Z" fill="#BBD2E9"/>
<path d="M236.747 261.604L225.34 268.187V265.019L236.747 258.436V261.604Z" fill="#A9BFD4"/>
<path d="M206.402 254.177L217.81 247.594L236.746 258.435L225.339 265.018L206.402 254.177Z" fill="#BBD2E9"/>
<path d="M259.549 248.437L248.152 255.02V251.852L259.549 245.269V248.437Z" fill="#A9BFD4"/>
<path d="M229.215 241.011L240.612 234.428L259.549 245.269L248.152 251.852L229.215 241.011Z" fill="#BBD2E9"/>
<path d="M225.338 268.187L213.941 274.78V271.602L225.338 265.019V268.187Z" fill="#A9BFD4"/>
<path d="M195.004 263.938L213.941 274.78V271.601L195.004 260.76V263.938Z" fill="#4456CB"/>
<path d="M225.338 265.019L216.234 270.275L213.93 271.602L211.657 270.296L195.004 260.76L196.773 259.732L197.298 259.433L206.411 254.188L225.338 265.019Z" fill="#BBD2E9"/>
<path d="M270.958 241.854L259.551 248.437V245.269L270.958 238.686V241.854Z" fill="#A9BFD4"/>
<path d="M240.613 234.428L252.021 227.845L270.957 238.686L259.55 245.269L240.613 234.428Z" fill="#BBD2E9"/>
<path d="M262.655 243.469L243.718 232.638L235.438 237.38L224.802 243.469H224.936L222.23 245.043V254.177L227.384 251.214L239.593 251.194L249.386 243.531L262.655 243.469Z" fill="#3247B9"/>
<path d="M243.719 232.638L262.656 243.469V208.537L243.719 197.706V232.638Z" fill="#293896"/>
<path d="M216.234 270.275L211.657 270.296L195.004 260.761L196.773 259.732L197.298 259.434L216.234 270.275Z" fill="#4456CB"/>
<path d="M197.297 259.443L216.234 270.275V235.343L197.297 224.512V259.443Z" fill="#293896"/>
<path d="M222.231 266.818L216.234 270.275V235.343L222.231 231.887V266.818Z" fill="#3750E8"/>
<path d="M268.653 240.013L262.656 243.469V208.537L268.653 205.081V240.013Z" fill="#3750E8"/>
<path d="M248.153 216.921L236.746 223.504V220.325L248.153 213.742V216.921Z" fill="#A9BFD4"/>
<path d="M217.809 209.494L229.216 202.911L248.153 213.742L236.745 220.326L217.809 209.494Z" fill="#BBD2E9"/>
<path d="M236.747 223.504L225.34 230.087V226.919L236.747 220.325V223.504Z" fill="#A9BFD4"/>
<path d="M206.402 216.077L217.81 209.494L236.746 220.325L225.339 226.919L206.402 216.077Z" fill="#BBD2E9"/>
<path d="M259.549 210.338L248.152 216.921V213.742L259.549 207.159V210.338Z" fill="#A9BFD4"/>
<path d="M229.215 202.911L240.612 196.328L259.549 207.159L248.152 213.743L229.215 202.911Z" fill="#BBD2E9"/>
<path d="M225.338 230.087L213.941 236.67V233.502L225.338 226.919V230.087Z" fill="#A9BFD4"/>
<path d="M195.004 225.839L213.941 236.67V233.502L195.004 222.66V225.839Z" fill="#4456CB"/>
<path d="M195.004 222.66L206.401 216.077L225.338 226.919L213.941 233.502L195.004 222.66Z" fill="#BBD2E9"/>
<path d="M270.958 203.755L259.551 210.338V207.159L270.958 200.576V203.755Z" fill="#A9BFD4"/>
<path d="M240.613 196.328L252.021 189.734L270.957 200.576L259.55 207.159L240.613 196.328Z" fill="#BBD2E9"/>
<path d="M262.655 205.246L243.718 194.415L235.438 199.157L224.802 205.246H224.936L222.23 206.82V215.954L236.816 207.993L251.278 207.293L254.426 205.318L262.655 205.246Z" fill="#3247B9"/>
<path d="M243.719 194.415L262.656 205.246V175.272L243.719 164.431V194.415Z" fill="#293896"/>
<path d="M215.843 214.71L215.082 213.876L224.124 208.929L237.516 211.84L229.236 217.62L215.843 214.71Z" fill="#03062E"/>
<path d="M231.755 206.943L226.18 208.887L224.637 209.978L231.333 212.241L231.755 206.943Z" fill="#6E82FF"/>
<path d="M230.222 208.034L224.637 209.978L229.79 213.321L230.222 208.034Z" fill="#141A46"/>
<path d="M237.681 195.938L238.545 196.442L228.372 217.117L227.148 202.017L237.681 195.938Z" fill="#6E82FF"/>
<path d="M238.545 196.441L239.779 211.552L229.236 217.621L228.012 202.51L238.545 196.441Z" fill="#B4BEFF"/>
<path d="M229.328 203.23L237.392 198.57L238.462 210.831L230.388 215.491L229.328 203.23Z" fill="white"/>
<path d="M230.965 204.773L235.223 202.314L235.789 208.784L231.531 211.346L230.965 204.773Z" fill="#253AA9"/>
<path d="M236.753 198.941L237.782 210.554L230.355 214.843L230.386 215.491L238.461 210.831L237.391 198.57L236.753 198.941Z" fill="#6E82FF"/>
<path d="M227.148 202.017L228.012 202.51L229.236 217.621L228.372 217.117L227.148 202.017Z" fill="#3750E8"/>
<path d="M237.392 198.57L238.461 210.831L237.783 210.554L236.754 198.941L237.392 198.57Z" fill="#3750E8"/>
<path d="M216.234 232.082L211.657 232.103L195.004 222.568L196.773 221.549L197.298 221.251L216.234 232.082Z" fill="#4456CB"/>
<path d="M197.297 221.251L216.234 232.082V202.108L197.297 191.267V221.251Z" fill="#293896"/>
<path d="M222.231 228.595L216.234 232.082V202.016L222.231 198.519V228.595Z" fill="#3750E8"/>
<path d="M268.653 201.841L262.656 205.338V175.272L268.653 171.774V201.841Z" fill="#3750E8"/>
<path d="M248.153 183.655L236.746 190.238V187.06L248.153 180.477V183.655Z" fill="#A9BFD4"/>
<path d="M217.809 176.218L229.216 169.635L248.153 180.476L236.745 187.059L217.809 176.218Z" fill="#BBD2E9"/>
<path d="M236.747 190.238L225.34 196.821V193.643L236.747 187.06V190.238Z" fill="#A9BFD4"/>
<path d="M206.402 182.812L217.81 176.219L236.746 187.06L225.339 193.643L206.402 182.812Z" fill="#BBD2E9"/>
<path d="M259.549 177.062L248.152 183.655V180.477L259.549 173.894V177.062Z" fill="#A9BFD4"/>
<path d="M229.215 169.635L240.612 163.052L259.549 173.893L248.152 180.476L229.215 169.635Z" fill="#BBD2E9"/>
<path d="M225.338 196.822L213.941 203.405V200.227L225.338 193.644V196.822Z" fill="#A9BFD4"/>
<path d="M195.004 192.563L213.941 203.404V200.226L195.004 189.395V192.563Z" fill="#4456CB"/>
<path d="M195.004 189.395L206.401 182.812L225.338 193.643L213.941 200.226L195.004 189.395Z" fill="#BBD2E9"/>
<path d="M270.958 170.479L259.551 177.062V173.894L270.958 167.311V170.479Z" fill="#A9BFD4"/>
<path d="M240.613 163.052L252.021 156.469L270.957 167.31L259.55 173.893L240.613 163.052Z" fill="#BBD2E9"/>
<path d="M262.655 172.094L243.718 161.263L235.438 166.005L224.802 172.094H224.936L222.23 173.668V182.812L231.087 181.588L240.283 176.568L247.442 176.538L253.068 172.135L262.655 172.094Z" fill="#3247B9"/>
<path d="M243.719 161.262L262.656 172.094V131.803L243.719 120.972V161.262Z" fill="#293896"/>
<path d="M197.297 188.068L216.234 198.899V158.609L197.297 147.777V188.068Z" fill="#293896"/>
<path d="M222.231 195.412L216.234 198.899V158.609L222.231 155.111V195.412Z" fill="#3750E8"/>
<path d="M268.653 168.607L262.656 172.094V131.803L268.653 128.306V168.607Z" fill="#3750E8"/>
<path d="M216.234 198.9L211.657 198.92L195.004 189.385L196.773 188.367L197.298 188.068L216.234 198.9Z" fill="#4456CB"/>
<path d="M248.153 140.186L236.746 146.769V143.591L248.153 137.008V140.186Z" fill="#A9BFD4"/>
<path d="M217.809 132.76L229.216 126.177L248.153 137.008L236.745 143.591L217.809 132.76Z" fill="white"/>
<path d="M236.747 146.769L225.34 153.352V150.174L236.747 143.591V146.769Z" fill="#A9BFD4"/>
<path d="M206.402 139.343L217.81 132.76L236.746 143.591L225.339 150.174L206.402 139.343Z" fill="white"/>
<path d="M259.549 133.603L248.152 140.186V137.008L259.549 130.425V133.603Z" fill="#A9BFD4"/>
<path d="M229.215 126.177L240.612 119.594L259.549 130.425L248.152 137.008L229.215 126.177Z" fill="white"/>
<path d="M225.338 153.352L213.941 159.935V156.767L225.338 150.174V153.352Z" fill="#A9BFD4"/>
<path d="M195.004 149.094L213.941 159.935V156.767L195.004 145.926V149.094Z" fill="#4456CB"/>
<path d="M195.004 145.926L206.401 139.343L225.338 150.174L213.941 156.767L195.004 145.926Z" fill="white"/>
<path d="M270.958 127.02L259.551 133.603V130.425L270.958 123.842V127.02Z" fill="#A9BFD4"/>
<path d="M240.613 119.593L252.021 113L270.957 123.842L259.55 130.425L240.613 119.593Z" fill="white"/>
<path d="M268.651 125.168L248.367 115.109L252.019 113L270.956 123.842L268.651 125.168Z" fill="white"/>
</svg>
