<svg width="705" height="468" viewBox="0 0 705 468" fill="none" xmlns="http://www.w3.org/2000/svg">
<rect width="705" height="468" fill="#E0E6F9"/>
<path d="M393.52 209.11L429.65 229.55L427.05 230.99L392.6 210.66L393.52 209.11Z" fill="#5B68B7"/>
<path d="M307.022 160.919L309.592 159.87L309.292 115.84L306.692 115.77L307.022 160.919Z" fill="#5B68B7"/>
<path d="M346.242 181.07L393.252 209.1L390.652 210.54L344.962 181.87L346.242 181.07Z" fill="#5B68B7"/>
<path d="M309.591 159.87L344.391 179.58L342.081 180.67L307.021 160.92L309.591 159.87Z" fill="#5B68B7"/>
<path d="M342.122 180.31L344.852 178.7L310.282 159.08L307.562 160.69L342.122 180.31Z" fill="#0E1A68"/>
<path d="M341.952 135.6L344.682 133.99L310.112 114.37L307.392 115.98L341.952 135.6Z" fill="white"/>
<path d="M342.122 180.31L344.852 178.7L344.682 133.99L341.952 135.6L342.122 180.31Z" fill="#BBD2E9"/>
<path d="M343.232 134.69L306.002 113.61L306.182 161.49L343.512 182.68L343.232 134.69ZM307.562 160.69L307.392 115.98L341.952 135.6L342.122 180.31L307.562 160.68V160.69Z" fill="#293896"/>
<path d="M307.393 115.98L307.563 160.69L342.123 180.311L341.953 135.601L307.393 115.98Z" fill="#BBD2E9"/>
<path d="M343.512 182.68L346.242 181.07L346.052 133.2L343.322 134.8L343.512 182.68Z" fill="#293896"/>
<path d="M343.063 134.59L346.053 133.2L308.723 112L306.003 113.61L343.063 134.59Z" fill="#0E1A68"/>
<path d="M390.631 209.131L393.361 207.521L347.341 180.061L344.611 181.67L390.631 209.131Z" fill="#0E1A68"/>
<path d="M344.612 181.67L347.342 180.061L347.172 135.351L344.442 136.96L344.612 181.67Z" fill="#0E1A68"/>
<path d="M390.85 163.871L393.58 162.261L347.17 135.351L344.44 136.96L390.85 163.871Z" fill="white"/>
<path d="M390.63 209.131L393.36 207.521L393.58 162.261L390.85 163.871L390.63 209.131Z" fill="#BBD2E9"/>
<path d="M392.23 163.071L343.06 134.591L343.25 182.471L391.86 211.5L392.24 163.071H392.23ZM344.61 181.67L344.44 136.96L390.85 163.871L390.63 209.131L344.62 181.681L344.61 181.67Z" fill="#293896"/>
<path d="M344.442 136.961L344.612 181.671L390.632 209.131L390.852 163.871L344.442 136.961Z" fill="#0E1A68"/>
<path d="M392.021 211.501L394.751 209.891L394.961 161.461L392.231 163.071L392.021 211.501Z" fill="#293896"/>
<path d="M392.231 163.071L394.961 161.46L345.681 132.98L343.061 134.591L392.231 163.071Z" fill="#0E1A68"/>
<path d="M427.161 229.971L429.891 228.361L395.321 208.73L392.601 210.351L427.161 229.971Z" fill="#0E1A68"/>
<path d="M392.601 210.351L395.321 208.73L395.541 163.48L392.821 165.091L392.601 210.351Z" fill="#0E1A68"/>
<path d="M426.991 185.261L429.721 183.65L395.541 163.48L392.821 165.091L426.991 185.261Z" fill="white"/>
<path d="M427.161 229.971L429.891 228.361L429.721 183.65L426.991 185.261L427.161 229.971Z" fill="#BBD2E9"/>
<path d="M428.371 184.46L391.441 162.721L391.231 211.15L428.561 232.341L428.371 184.46ZM392.601 210.351L392.821 165.091L426.991 185.261L427.161 229.971L392.601 210.351Z" fill="#293896"/>
<path d="M392.822 165.09L392.602 210.35L427.162 229.97L426.992 185.26L392.822 165.09Z" fill="#BBD2E9"/>
<path d="M428.561 232.34L431.281 230.729L431.091 182.85L428.371 184.459L428.561 232.34Z" fill="#0E1A68"/>
<path d="M428.372 184.46L431.092 182.85L394.272 161.07L391.442 162.62L428.372 184.46Z" fill="#0E1A68"/>
<path d="M316.817 146.399L315.38 145.569V142.18L312.687 140.625V144.014L311.245 143.182V135.329L312.687 136.162V139.239L315.38 140.794V137.716L316.817 138.546V146.399ZM320.557 142.43C321.255 142.832 321.79 143.317 322.162 143.882C322.534 144.448 322.72 145.089 322.72 145.805V149.807L321.729 149.235L321.455 148.26L321.417 148.238C321.269 148.367 321.117 148.455 320.962 148.502C320.807 148.548 320.628 148.545 320.427 148.494C320.225 148.442 319.98 148.332 319.692 148.166C319.385 147.989 319.109 147.761 318.864 147.484C318.622 147.208 318.431 146.89 318.292 146.53C318.152 146.167 318.082 145.769 318.082 145.335C318.082 144.698 318.276 144.341 318.664 144.264C319.051 144.183 319.633 144.351 320.408 144.766L321.31 145.255V144.992C321.31 144.677 321.239 144.404 321.096 144.175C320.954 143.946 320.755 143.758 320.501 143.611C320.25 143.466 320.003 143.365 319.762 143.308C319.52 143.25 319.278 143.215 319.036 143.2L318.566 141.823C318.842 141.814 319.151 141.859 319.492 141.96C319.836 142.062 320.191 142.218 320.557 142.43ZM321.31 146.211L320.762 145.915C320.303 145.665 319.983 145.575 319.803 145.647C319.627 145.72 319.538 145.9 319.538 146.187C319.538 146.437 319.602 146.653 319.729 146.834C319.856 147.011 320.022 147.159 320.227 147.277C320.531 147.452 320.786 147.496 320.994 147.409C321.205 147.323 321.31 147.088 321.31 146.705V146.211ZM325.604 151.472L324.185 150.653V142.295L325.604 143.114V151.472ZM328.516 153.153L327.097 152.334V143.976L328.516 144.796V153.153ZM336.758 157.912L336.265 155.758L333.786 154.327L333.293 155.911L331.739 155.014L334.139 148.515L335.902 149.533L338.312 158.809L336.758 157.912ZM335.921 154.163L335.428 152.052C335.397 151.912 335.355 151.732 335.302 151.512C335.253 151.29 335.201 151.065 335.149 150.838C335.099 150.609 335.059 150.412 335.028 150.247C334.997 150.376 334.953 150.534 334.898 150.72C334.845 150.904 334.794 151.079 334.744 151.244C334.694 151.408 334.659 151.526 334.637 151.595L334.149 153.14L335.921 154.163Z" fill="#0E1A68"/>
<path d="M402.938 190.735C402.938 191.619 402.79 192.274 402.496 192.698C402.204 193.121 401.781 193.322 401.226 193.302C400.671 193.279 400.002 193.042 399.221 192.591L397.295 191.479V183.626L399.43 184.859C400.144 185.271 400.762 185.775 401.286 186.371C401.81 186.963 402.217 187.629 402.505 188.369C402.793 189.105 402.938 189.893 402.938 190.735ZM401.44 189.913C401.44 189.333 401.365 188.814 401.217 188.355C401.071 187.895 400.854 187.493 400.565 187.147C400.28 186.803 399.926 186.51 399.505 186.266L398.737 185.823V190.936L399.356 191.293C400.06 191.7 400.582 191.785 400.923 191.549C401.268 191.314 401.44 190.769 401.44 189.913ZM408.264 197.811L404.347 195.55V187.698L408.264 189.959V191.323L405.789 189.894V191.618L408.091 192.948V194.312L405.789 192.983V195.008L408.264 196.436V197.811ZM412.566 200.295L410.929 193.189L410.887 193.165C410.893 193.316 410.902 193.543 410.915 193.847C410.93 194.15 410.944 194.471 410.957 194.812C410.969 195.152 410.975 195.456 410.975 195.725V199.377L409.687 198.633V190.781L411.65 191.914L413.259 198.848L413.287 198.864L414.994 193.845L416.957 194.978V202.831L415.613 202.054V198.338C415.613 198.091 415.616 197.808 415.622 197.489C415.632 197.172 415.642 196.872 415.655 196.589C415.667 196.303 415.676 196.088 415.683 195.945L415.641 195.921L413.887 201.058L412.566 200.295ZM424.846 203.448C424.846 204.053 424.781 204.567 424.651 204.99C424.521 205.409 424.322 205.72 424.055 205.924C423.792 206.13 423.457 206.213 423.051 206.171C422.644 206.127 422.164 205.944 421.609 205.624C421.054 205.303 420.573 204.931 420.167 204.506C419.76 204.078 419.424 203.608 419.157 203.096C418.894 202.586 418.697 202.045 418.567 201.472C418.436 200.899 418.371 200.308 418.371 199.699C418.371 198.886 418.486 198.245 418.715 197.776C418.948 197.305 419.305 197.042 419.785 196.987C420.266 196.931 420.877 197.118 421.618 197.545C422.356 197.972 422.962 198.488 423.437 199.095C423.914 199.704 424.268 200.377 424.497 201.114C424.73 201.854 424.846 202.632 424.846 203.448ZM419.883 200.583C419.883 201.131 419.942 201.637 420.06 202.103C420.181 202.566 420.368 202.979 420.623 203.341C420.877 203.699 421.206 203.994 421.609 204.227C422.018 204.463 422.35 204.549 422.604 204.485C422.858 204.417 423.043 204.219 423.158 203.891C423.275 203.562 423.334 203.123 423.334 202.575C423.334 201.752 423.201 201.027 422.934 200.4C422.668 199.774 422.229 199.284 421.618 198.931C421.212 198.697 420.88 198.612 420.623 198.679C420.368 198.743 420.181 198.939 420.06 199.267C419.942 199.593 419.883 200.031 419.883 200.583Z" fill="#0E1A68"/>
<path d="M351.72 170.147V160.866L353.424 161.85V171.131L351.72 170.147ZM362.577 176.415L360.411 175.164L356.915 166.125L356.865 166.097C356.88 166.397 356.893 166.699 356.904 167.001C356.915 167.304 356.926 167.607 356.937 167.909C356.948 168.207 356.959 168.508 356.97 168.81V173.178L355.447 172.299V163.018L357.597 164.259L361.087 173.225L361.126 173.247C361.119 172.955 361.109 172.665 361.098 172.375C361.087 172.085 361.076 171.795 361.065 171.505C361.058 171.217 361.051 170.93 361.043 170.642V166.249L362.577 167.135V176.415ZM366.282 178.554L364.606 177.586V168.306L369.212 170.966V172.578L366.282 170.886V173.279L369.009 174.853V176.459L366.282 174.885V178.554ZM378.079 180.712C378.079 181.427 378.002 182.035 377.848 182.534C377.694 183.029 377.46 183.397 377.145 183.639C376.833 183.882 376.437 183.979 375.957 183.931C375.477 183.878 374.909 183.662 374.253 183.283C373.597 182.904 373.029 182.464 372.549 181.963C372.069 181.457 371.671 180.902 371.356 180.297C371.045 179.694 370.812 179.053 370.658 178.376C370.504 177.699 370.427 177.001 370.427 176.282C370.427 175.321 370.563 174.564 370.834 174.009C371.109 173.453 371.53 173.142 372.098 173.076C372.666 173.011 373.388 173.231 374.264 173.736C375.136 174.24 375.853 174.85 376.414 175.568C376.978 176.287 377.396 177.083 377.667 177.954C377.942 178.828 378.079 179.747 378.079 180.712ZM372.214 177.326C372.214 177.973 372.283 178.572 372.423 179.122C372.566 179.67 372.787 180.158 373.088 180.585C373.388 181.009 373.777 181.358 374.253 181.633C374.737 181.912 375.129 182.014 375.43 181.937C375.73 181.857 375.948 181.623 376.084 181.236C376.223 180.847 376.293 180.328 376.293 179.681C376.293 178.708 376.135 177.851 375.82 177.11C375.505 176.369 374.986 175.791 374.264 175.374C373.784 175.097 373.392 174.997 373.088 175.076C372.787 175.152 372.566 175.383 372.423 175.771C372.283 176.156 372.214 176.674 372.214 177.326ZM384.489 186.489C384.489 187.039 384.374 187.45 384.143 187.723C383.912 187.996 383.575 188.115 383.131 188.079C382.691 188.045 382.156 187.846 381.526 187.482C381.248 187.321 380.975 187.143 380.707 186.946C380.443 186.751 380.188 186.543 379.943 186.32C379.701 186.096 379.47 185.859 379.25 185.61V183.781C379.631 184.196 380.027 184.6 380.438 184.994C380.848 185.387 381.255 185.701 381.658 185.933C381.937 186.094 382.16 186.181 382.329 186.194C382.501 186.208 382.626 186.164 382.702 186.06C382.779 185.957 382.818 185.809 382.818 185.619C382.818 185.386 382.75 185.148 382.615 184.905C382.479 184.662 382.292 184.399 382.054 184.118C381.819 183.839 381.554 183.531 381.257 183.194C381.07 182.985 380.866 182.745 380.647 182.474C380.427 182.199 380.218 181.898 380.02 181.572C379.822 181.247 379.659 180.896 379.531 180.522C379.406 180.145 379.344 179.745 379.344 179.322C379.344 178.768 379.454 178.357 379.673 178.091C379.893 177.824 380.207 177.705 380.614 177.732C381.024 177.757 381.508 177.931 382.065 178.253C382.483 178.494 382.88 178.781 383.258 179.113C383.639 179.443 384.036 179.833 384.451 180.284L383.901 181.496C383.531 181.109 383.199 180.784 382.906 180.522C382.613 180.255 382.314 180.034 382.01 179.859C381.797 179.736 381.616 179.671 381.466 179.665C381.315 179.654 381.202 179.699 381.125 179.798C381.048 179.893 381.009 180.034 381.009 180.22C381.009 180.44 381.064 180.658 381.174 180.874C381.288 181.088 381.456 181.329 381.68 181.598C381.907 181.869 382.189 182.195 382.527 182.575C382.937 183.037 383.287 183.474 383.577 183.886C383.87 184.297 384.095 184.712 384.253 185.133C384.41 185.55 384.489 186.002 384.489 186.489Z" fill="white"/>
<path d="M317.023 155L321.353 154.613V160.387L317.023 155ZM328.281 161.5V162L320.92 157.75V157.25V156.75L328.281 161V161.5Z" fill="#0E1A68"/>
<path d="M414.281 210L408.518 210.346L411.1 205.182L414.281 210ZM402.281 204L402.505 203.553L410.48 207.54L410.256 207.988L410.033 208.435L402.058 204.447L402.281 204Z" fill="#0E1A68"/>
<path d="M436.044 252.519C436.044 252.519 437.995 252.186 440.936 255.472C443.876 258.757 446.97 264.576 446.97 264.576L460.027 268.006L459.261 270.481C453.394 270.366 447.332 270.38 444.601 268.006L437.313 260.379L436.044 252.519Z" fill="white"/>
<path d="M435.235 326.09C434.984 327.002 434.663 329.448 434.691 330.389C434.747 332.633 437.367 332.285 438.51 332.213C441.868 332.025 445.059 334.731 448.334 333.95C449.769 333.602 449.964 332.69 449.546 331.344C448.766 328.768 444.558 329.318 442.425 328.363C440.558 327.523 439.527 325.757 439.039 323.702C439.039 323.746 436.127 324.325 435.876 324.513C435.277 324.99 435.416 325.367 435.221 326.09H435.235Z" fill="#293896"/>
<path d="M441.298 308.272C440.894 309.43 440.56 310.747 440.309 312.094C440.142 312.991 440.002 313.932 439.891 314.844C439.319 319.548 439.431 323.977 439.431 323.977L435.236 325.091C435.236 325.091 435.181 324.512 434.414 319.533C434.233 318.346 434.01 316.913 433.745 315.162C433.689 314.844 433.648 314.54 433.62 314.25C433.118 309.561 434.637 306.579 435.097 303.785C435.278 302.714 435.306 301.701 435.013 300.616C434.442 298.445 433.62 294.102 432.979 290.469C432.38 287.169 431.934 284.448 431.934 284.448C431.934 284.448 440.072 276.589 441.883 284.376C443.695 292.163 444.155 297.373 441.298 308.258V308.272Z" fill="white"/>
<path d="M445.967 328.71C444.74 328.304 443.514 328.087 442.441 327.349C440.56 326.061 439.487 323.513 438.985 321.473C438.985 321.516 436.128 323.311 435.891 323.513C435.292 323.991 435.431 324.367 435.236 325.091C435.125 325.525 434.985 326.148 434.888 326.799C437.285 329.014 440.657 330.779 443.542 330.345C444.462 330.215 444.838 329.173 445.98 328.71H445.967Z" fill="white"/>
<path d="M448.851 330.375C447.931 329.463 446.942 329.029 445.966 328.71C444.698 329.101 444.517 330.274 443.527 330.346C439.96 330.607 435.25 328.016 435.013 326.076C434.692 327.162 434.678 328.262 434.692 328.754C434.72 329.695 435.138 330.693 435.96 331.099C436.741 331.489 437.66 331.258 438.524 331.2C441.883 331.012 445.074 333.718 448.349 332.937C449.784 332.589 449.673 331.157 448.865 330.375H448.851Z" fill="#293896"/>
<g opacity="0.5" style="mix-blend-mode:multiply">
<path d="M440.309 312.094C440.141 312.991 440.002 313.932 439.891 314.844C439.263 315.292 438.511 315.582 437.828 315.958C436.992 316.407 436.253 317.029 435.626 317.767C435.32 318.129 434.888 319.186 434.414 319.533C434.233 318.346 434.01 316.913 433.745 315.162C433.689 314.844 433.647 314.54 433.62 314.25C434.052 313.715 434.693 313.44 435.32 313.208C436.922 312.615 438.608 312.224 440.309 312.079V312.094Z" fill="white"/>
</g>
<path d="M430.121 347.555C429.758 346.441 426.316 344.023 424.672 340.058H418.917C418.192 342.272 419.404 342.996 420.394 344.342C422.317 346.962 421.564 349.61 428.462 349.842C428.936 349.856 429.48 349.842 429.828 349.509C430.163 349.176 430.274 348.018 430.135 347.57L430.121 347.555Z" fill="#293896"/>
<path d="M436.309 294.392C436.337 297.301 435.891 300.5 435.097 303.771C434.261 307.288 433.062 310.834 431.683 314.12C431.014 315.712 430.303 317.246 429.579 318.665C429.216 319.374 428.84 320.069 428.478 320.72C424.436 328.001 423.99 336.584 423.99 336.584H420.311C420.311 336.584 420.576 335.267 419.768 326.061C419.698 325.207 419.67 324.411 419.712 323.673C420.005 317.493 423.74 315.249 424.673 312.224C424.826 311.732 424.896 311.211 424.882 310.661C424.715 306.275 425.384 293.524 425.384 293.524C425.384 293.524 429.746 290.542 432.965 290.484C434.804 290.455 436.267 291.381 436.295 294.392H436.309Z" fill="white"/>
<path d="M423.711 344.168C424.603 344.631 426.15 343.719 427.209 343.155C425.063 340.275 423.279 336.482 423.948 332.951C423.92 333.067 422.22 332.849 422.081 332.835C421.286 332.719 421.119 332.444 421.063 333.255C420.98 334.528 420.659 335.469 420.06 336.54C419.642 339.927 421.677 342.055 423.711 344.168Z" fill="white"/>
<path d="M430.051 346.977C429.8 346.209 428.769 345.428 427.208 343.141C425.745 342.577 424.602 344.617 423.71 344.154C421.676 342.041 419.641 339.913 420.059 336.526C420.004 336.613 419.962 336.7 419.906 336.801C417.537 340.724 419.154 341.448 420.394 343.127C422.317 345.746 421.564 348.395 428.462 348.627C428.936 348.641 429.48 348.627 429.828 348.294C430.149 347.961 430.204 347.425 430.051 346.977Z" fill="#293896"/>
<g opacity="0.5" style="mix-blend-mode:multiply">
<path d="M431.695 314.12C431.026 315.712 430.315 317.247 429.591 318.665C428.518 319.302 427.138 319.447 425.884 319.707C423.961 320.113 422.093 320.981 420.714 322.414C420.352 322.79 420.003 323.224 419.738 323.688C420.031 317.507 423.766 315.264 424.699 312.239C424.755 312.21 424.797 312.195 424.853 312.181C426.636 311.573 428.56 312.34 430.288 313.093C430.831 313.324 431.416 313.628 431.709 314.135L431.695 314.12Z" fill="white"/>
</g>
<path d="M439.903 283.335C436.002 284.681 430.943 284.796 427.877 281.511C426.776 284.536 422.15 288.415 425.257 297.823L436.057 295.71C436.057 295.71 442.161 291.672 442.398 283.465C442.426 282.625 442.426 281.815 442.426 281.033C441.701 281.931 440.879 282.727 439.89 283.335H439.903Z" fill="white"/>
<path d="M441.535 312.094C441.535 313.513 435.682 315.351 430.289 315.264C426.401 315.206 422.763 314.164 421.704 311.255C423.432 308.244 422.68 306.927 422.875 303.439C423.251 297.099 421.175 287.952 427.808 281.583C427.836 281.554 427.864 281.525 427.892 281.496C429.522 279.962 428.937 281.554 430.539 281.887C433.215 282.451 436.002 282.509 438.706 282.061C439.416 281.945 441.98 280.555 442.454 281.018C442.454 281.786 442.761 282.987 442.844 283.436C444.782 292.641 444.447 302.643 441.535 312.094Z" fill="#5B68B7"/>
<path d="M441.298 270.018C441.298 270.018 442.384 274.23 442.44 281.018C439.583 283.276 431.166 284.998 427.878 281.496C428.031 281.061 428.128 280.627 428.101 280.207C428.003 278.471 426.345 274.143 424.798 270.452C423.418 267.137 422.108 264.33 422.108 264.33L421.69 261.753L429.118 255.167L436.044 252.533C436.044 252.533 437.869 253.546 438.469 256.904C439.068 260.262 439.43 258.96 442.454 263.504C445.478 268.035 441.311 270.032 441.311 270.032L441.298 270.018Z" fill="#293896"/>
<path d="M428.602 246.469C429.326 246.672 431.64 246.889 432.894 246.889C434.051 242.054 428.936 240.115 425.215 241.374C423.167 242.069 424.184 244.37 425.452 244.819C426.01 245.007 426.721 245.427 427.25 245.745C427.682 246.006 428.1 246.339 428.616 246.483L428.602 246.469Z" fill="black"/>
<g opacity="0.3" style="mix-blend-mode:multiply">
<path d="M437.591 268.324C438.371 269.772 439.89 270.452 441.297 270.018C441.534 270.756 442.287 275.127 442.301 277.153C441.604 272.536 439.932 272.681 439.054 273.332C438.524 273.723 438.176 274.316 437.814 274.866C435.458 278.398 430.567 276.835 429.006 274.041C436.615 277.848 438.747 272.189 437.604 268.324H437.591Z" fill="#293896"/>
</g>
<g opacity="0.3" style="mix-blend-mode:multiply">
<path d="M427.237 282.162C427.892 281.496 428.143 280.628 428.115 280.208C428.018 278.471 426.359 274.143 424.813 270.453C425.147 270.583 425.746 265.488 425.844 265.56C425.844 265.56 425.886 267.688 428.115 275.142C428.882 277.675 430.721 282.423 428.784 286.374C428.101 285.983 427.725 282.712 427.223 282.162H427.237Z" fill="#293896"/>
</g>
<g opacity="0.5" style="mix-blend-mode:multiply">
<path d="M430.289 315.264C426.401 315.206 422.764 314.164 421.705 311.255C423.433 308.244 422.68 306.927 422.875 303.439C423.252 297.099 421.175 287.952 427.809 281.583C428.686 281.872 429.355 282.553 429.328 283.667C429.272 286.302 427.516 289.167 426.624 291.57C425.063 295.753 424.297 300.327 424.952 304.77C425.551 308.765 427.377 312.63 430.289 315.264Z" fill="#5B68B7"/>
</g>
<g opacity="0.5" style="mix-blend-mode:multiply">
<path d="M439.445 307.028C440.825 304.292 441.744 301.34 442.664 298.401C442.121 301.296 441.563 304.176 441.02 307.071C440.699 308.765 440.351 310.516 439.431 311.935C438.846 312.832 435.097 315.596 435.334 313.208C435.418 312.34 436.825 311.167 437.313 310.531C438.135 309.445 438.846 308.258 439.459 307.028H439.445Z" fill="#5B68B7"/>
</g>
<path d="M426.317 257.657C426.568 258.496 426.735 259.119 427.85 259.741C430.247 261.073 432.63 264.329 434.929 262.896C437.646 260.465 432.546 253.908 431.947 251.983C431.863 251.737 425.634 250.362 425.313 250.68C424.575 251.39 426.08 256.817 426.331 257.657H426.317Z" fill="white"/>
<g opacity="0.5" style="mix-blend-mode:multiply">
<path d="M434.232 258.381C434.274 257.628 433.828 254.791 432.518 253.865C430.957 252.751 427.989 253.778 427.125 254.994C426.54 255.805 427.069 256.21 427.655 256.818C429.564 258.83 434.051 261.348 434.246 258.381H434.232Z" fill="white"/>
</g>
<path d="M434.636 256.065C435.388 254.805 434.594 249.262 432.378 246.034C429.312 241.576 424.296 241.316 422.442 243.328C420.226 245.73 421.104 255.688 426.595 254.994C427.361 254.892 427.584 254.776 428.197 255.312C431.152 257.888 433.911 257.237 434.622 256.065H434.636Z" fill="white"/>
<path d="M430.455 249.436C430.051 251.795 427.877 256.991 430.957 259.38C427.529 259.77 423.947 258.149 421.899 255.269C418.276 250.218 420.185 243.096 423.697 241.663C425.522 240.911 428.017 241.171 429.396 242.778C430.637 244.225 430.901 246.874 430.469 249.436H430.455Z" fill="black"/>
<path d="M459.343 267.904L461.141 267.268L461.81 267.311L462.744 267.615L464.486 268.483L464.625 270.061L463.942 272.29L463.162 273.144L462.005 272.768L460.417 272.507L458.884 271.755L457.95 270.437C457.518 270.018 458.145 267.745 459.343 267.904Z" fill="white"/>
<g opacity="0.5" style="mix-blend-mode:multiply">
<path d="M459.873 267.991L461.03 267.63L461.768 267.528L462.576 267.948L463.594 268.686V269.627L462.785 271.74L462.646 272.522L462.019 272.753L460.43 272.493L458.897 271.74L457.964 270.423C458.507 270.003 458.688 267.832 459.873 267.977V267.991Z" fill="white"/>
</g>
<path d="M458.006 269.512C458.104 270.366 460.083 270.612 461.072 268.687C461.811 268.687 462.772 268.629 463.218 267.949C463.483 267.529 463.483 267.167 462.772 267.225C461.797 267.326 462.201 267.326 461.17 267.268L458.926 268.035L458.02 269.497L458.006 269.512Z" fill="white"/>
<path d="M463.58 268.686L463.872 269.656C463.872 269.656 462.646 269.54 462.465 269.656C462.284 269.772 462.131 270.525 462.131 270.525C462.131 270.525 461.768 270.611 461.629 270.8C461.49 270.973 461.448 271.263 461.476 271.494C461.503 271.726 461.754 272.001 461.754 272.001C461.754 272.001 461.503 272.739 461.685 273.029C461.866 273.318 462.521 273.202 462.521 273.202L463.148 273.13L463.9 271.364L463.58 268.672V268.686Z" fill="white"/>
<path d="M463.385 268.237L464.166 268.411L466.326 268.99L467.859 269.381C468.583 269.511 468.75 270.481 467.733 270.423L465.88 270.22L464.305 270.003L463.58 269.598L463.385 268.266V268.237Z" fill="white"/>
<path d="M418.192 291.063L417.551 292.988L414.736 296.448L413.719 298.822L413.05 301.557C412.883 302.049 413.176 302.44 413.399 302.179L413.092 303.337C412.869 304.177 413.357 304.307 413.705 303.612L415.377 299.951L414.081 303.873C413.845 304.611 414.402 304.799 414.709 304.061L416.66 299.965L415.782 303.308C415.559 304.191 416.018 304.452 416.437 303.598L418.917 298.199L419.098 300.399L419.335 301.543C419.516 302.281 420.171 302.064 420.116 301.224V300.153L420.617 298.286L419.99 294.146L419.809 291.338L418.22 291.063H418.192Z" fill="white"/>
<path d="M422.094 261.912C420.603 262.781 419.781 269.381 419.056 276.647C417.676 280.019 418.234 287.329 417.398 293.176C418.303 293.176 418.889 293.857 420.017 294.493C420.505 288.299 423.264 283.044 422.568 278.254C423.752 274.997 425.229 271.682 426.135 269.207C427.459 265.907 424.658 261.232 422.094 261.898V261.912Z" fill="white"/>
<path d="M486.382 269.087L484.457 267.015C484.278 266.83 483.862 266.892 483.276 267.242L459.573 281.453C458.581 282.05 457.49 283.256 457.143 284.142L441.685 323.539C441.536 323.91 441.546 324.167 441.665 324.301L443.629 326.393C443.778 326.579 444.205 326.538 444.81 326.167L468.513 311.956C469.505 311.358 470.596 310.152 470.944 309.266L486.402 269.87C486.56 269.468 486.531 269.21 486.382 269.087Z" fill="#5B68B7"/>
<path d="M484.457 267.026C484.279 266.841 483.862 266.902 483.277 267.253L459.574 281.464C458.582 282.061 457.49 283.267 457.143 284.153L441.685 323.549C441.536 323.92 441.546 324.178 441.665 324.312L443.63 326.404C443.501 326.27 443.501 326.012 443.65 325.641L459.107 286.245C459.455 285.349 460.546 284.143 461.538 283.545L485.241 269.334C485.827 268.984 486.243 268.922 486.422 269.108L484.457 267.016V267.026Z" fill="#293896"/>
<path d="M479.797 339.728L468.85 333.16C468.232 332.787 467.225 332.787 466.607 333.16L445.062 346.09L443.158 346.369V347.623C443.158 347.861 443.318 348.11 443.627 348.296L455.162 355.217C455.78 355.59 456.787 355.59 457.405 355.217L480.385 341.427C480.694 341.241 480.854 341.003 480.854 340.754V339.5L479.797 339.728Z" fill="#293896"/>
<path d="M468.852 332.217L480.39 339.138C481.008 339.511 481.008 340.112 480.39 340.485L457.404 354.275C456.785 354.648 455.778 354.648 455.16 354.275L443.622 347.354C443.004 346.981 443.004 346.38 443.622 346.007L466.608 332.217C467.226 331.844 468.234 331.844 468.852 332.217Z" fill="#5B68B7"/>
<path d="M458.236 348.901L451.64 344.601V318.951L458.236 300.839V348.901Z" fill="#293896"/>
<path d="M473.314 340.19L458.236 348.901V301.068L473.314 292.357V340.19Z" fill="#0E1A68"/>
<path d="M353.715 249.034C353.584 249.071 355.211 248.716 359.325 247.594C360.466 248.417 361.233 249.8 361.569 251.184C361.719 251.876 361.831 252.605 361.85 253.335C360.092 254.083 358.166 254.831 356.483 255.654C350.854 258.44 347.88 250.96 353.715 249.015V249.034Z" fill="#293896"/>
<path d="M356.895 302.574C358.26 301.452 360.13 300.629 361.047 300.648C361.739 300.648 362.356 301.04 362.954 301.415C363.515 301.77 363.478 302.163 363.44 302.761C363.347 304.425 361.383 305.678 360.523 306.015C359.607 306.37 359.027 306.258 358.129 307.212C357.924 307.417 357.774 307.698 357.512 307.829C355.474 308.857 352.987 308.221 353.978 304.855C354.408 303.378 354.314 303.116 355.81 302.219C356.166 302.013 356.315 303.098 356.895 302.611V302.574Z" fill="#293896"/>
<path d="M363.456 278.974C363.194 278.637 362.745 278.562 362.334 278.487C360.52 278.17 358.744 277.44 356.967 277.01C356.163 276.823 355.359 276.673 354.555 276.673L352.797 275.084C352.759 275.327 352.741 275.57 352.722 275.832C352.236 281.629 354.573 287.277 354.274 300.872C354.237 302.929 354.536 304.126 355.377 304.818C356.817 306.033 358.388 304.649 358.669 303.658C359.211 301.77 359.753 291.335 360.464 290.026C361.38 288.324 362.184 286.51 362.315 285.5C362.502 284.079 362.615 285.407 362.764 283.985C362.895 282.676 363.381 281.48 363.606 280.189C363.68 279.778 363.718 279.31 363.475 278.974H363.456Z" fill="white"/>
<path d="M359.062 300.834C358.913 302.124 358.782 303.172 358.651 303.658C358.371 304.649 356.8 306.033 355.36 304.817C354.518 304.107 354.2 302.929 354.256 300.872C354.256 300.815 354.256 300.741 354.256 300.685C355.64 301.395 357.436 301.32 359.062 300.853V300.834Z" fill="#5B68B7"/>
<path d="M353.713 290.643C353.19 290.25 352.386 279.778 352.704 275.813C352.722 275.57 352.76 275.309 352.778 275.065L354.536 276.655C355.34 276.655 356.144 276.805 356.949 276.992C358.725 277.422 360.502 278.151 362.316 278.469C362.727 278.544 363.195 278.618 363.438 278.955C363.681 279.292 363.643 279.759 363.569 280.171C363.344 281.461 362.858 282.658 362.727 283.967C362.577 285.388 362.484 284.06 362.278 285.482C362.147 286.491 361.343 288.305 360.427 290.007C360.352 290.138 360.296 290.362 360.24 290.662C358.22 291.615 354.499 291.223 353.676 290.624L353.713 290.643Z" fill="#5B68B7"/>
<path d="M367.141 300.89C367.179 302.835 367.571 308.052 365.832 308.707C364.972 309.044 362.635 308.352 362.466 307.398C361.438 301.657 360.129 290.231 360.185 290.044C360.521 288.884 362.055 289.539 362.803 289.801C367.515 291.428 366.823 287.108 367.16 300.89H367.141Z" fill="white"/>
<path d="M366.974 302.367C366.974 302.367 367.105 302.274 367.18 302.218C367.255 304.574 367.255 308.165 365.815 308.707C364.955 309.043 362.617 308.352 362.449 307.398C362.243 306.257 362.037 304.892 361.813 303.433C363.533 303.807 365.403 303.433 366.955 302.367H366.974Z" fill="#5B68B7"/>
<path d="M362.11 276.898C361.063 276.954 360.016 276.973 358.95 276.954C358.482 276.954 357.884 277.029 357.435 276.935C357.042 276.842 356.724 276.543 356.332 276.431C356.014 276.356 355.097 275.683 354.854 275.907C354.462 276.225 355.004 277.534 355.116 278.02C356.07 282.415 358.856 283.331 359.716 287.726C360.296 290.718 361.418 294.14 361.979 295.468C362.372 296.421 361.68 295.58 363.924 295.991C364.448 296.085 364.971 296.122 365.513 296.103C365.906 296.103 366.43 295.898 366.804 296.103C367.028 294.533 366.86 292.924 367.197 291.372C367.533 289.764 367.458 288.006 367.514 286.342C367.945 273.607 368.449 276.543 362.147 276.917L362.11 276.898Z" fill="white"/>
<path d="M358.896 287.687C358.036 283.293 356.072 282.414 355.118 278.019C355.006 277.533 354.464 276.224 354.857 275.906C355.118 275.7 367.349 273.905 367.723 275.737C367.966 276.897 368.078 285.817 368.097 287.051C368.115 289.183 368.976 290.717 362.898 290.997C358.69 291.184 359.214 289.239 358.915 287.687H358.896Z" fill="#5B68B7"/>
<path d="M368.974 258.197C369.011 258.609 368.937 259.432 368.525 259.693C368.189 259.918 367.459 259.843 367.066 259.88C365.87 259.993 364.673 260.067 363.476 260.142C362.934 260.18 362.391 260.217 361.849 260.236C360.259 260.292 358.67 260.18 357.137 259.918C356.538 259.824 355.528 259.675 355.061 259.282C354.593 258.889 354.537 258.253 354.631 257.599C354.78 256.458 355.341 255.336 356.426 254.906C357.511 254.476 358.595 254.663 359.661 254.794C362.148 255.112 364.617 255.598 367.029 256.215C367.459 256.327 367.889 256.458 368.263 256.701C368.675 257.001 368.937 257.58 368.974 258.179V258.197Z" fill="white"/>
<path d="M368.151 254.719C367.759 254.139 364.411 252.138 361.438 251.073C358.651 250.063 355.79 248.024 352.817 249.707C349.208 251.746 351.265 256.215 351.826 262.985C352.854 275.14 350.704 276.43 355.865 277.104C360.334 277.683 366.263 278.918 367.777 276.412C368.245 275.626 368.039 274.691 367.983 273.85C367.347 262.704 369.404 256.664 368.151 254.757V254.719Z" fill="#293896"/>
<path d="M362.203 248.659C362.315 247.93 356.35 245.181 356.35 246.266C356.35 249.482 355.789 249.015 355.695 250.193C355.602 251.278 356.611 253.278 360.482 252.717C363.418 252.287 361.847 250.997 362.184 248.641L362.203 248.659Z" fill="white"/>
<path d="M365.497 238.711C365.908 239.216 366.226 239.777 366.319 240.431C366.544 241.89 365.945 243.405 366.263 244.845C366.563 246.247 365.964 249.445 363.196 250.268C361.794 250.679 359.026 250.193 358.129 249.763C356.932 249.183 356.146 248.024 355.436 246.902C349.639 237.701 361.551 233.924 365.478 238.692L365.497 238.711Z" fill="white"/>
<path d="M355.285 235.663C356.332 233.4 364.429 232.596 366.617 237.963C366.786 238.375 366.823 238.823 366.935 239.254C367.197 240.151 366.337 240.469 366.15 240.6C365.57 240.993 365.458 241.909 365.196 242.526C365.028 242.919 364.71 243.124 364.635 243.555C364.542 244.022 364.523 245.724 363.737 245.238C363.12 244.845 363.233 243.517 362.802 243.611C360.689 244.022 363.363 250.062 357.435 248.753C356.07 248.454 355.547 248.174 354.312 246.416C353.116 244.695 352.985 244.209 352.779 242.769C351.863 236.187 354.817 236.635 355.266 235.644L355.285 235.663Z" fill="#D08A62"/>
<path d="M362.354 242.751C361.269 242.508 360.783 243.835 361.381 245.013C361.549 245.35 361.905 245.687 362.167 245.967C363.887 247.931 364.654 246.192 364.111 245.537C362.858 243.985 363.737 243.05 362.354 242.751Z" fill="white"/>
<path d="M362.374 244.863C362.261 244.732 361.121 243.797 362.056 243.423C362.318 243.311 362.542 243.573 362.542 243.816C362.542 243.947 362.486 244.078 362.486 244.209C362.486 244.62 363.009 244.807 362.86 245.125C362.766 245.349 362.448 244.938 362.374 244.863Z" fill="white"/>
<path d="M367.047 306.239C368.282 306.875 371.797 305.285 373.181 305.828C374.154 306.22 374.434 307.773 374.079 308.651C373.555 309.942 371.405 310.447 370.17 310.353C366.86 310.11 365.047 313.102 362.859 311.12C361.849 310.204 362.298 308.689 362.428 307.417C363.326 308.352 365.72 308.614 367.029 306.239H367.047Z" fill="#293896"/>
<path d="M365.346 254.232C359.998 257.262 364.299 263.452 369.273 259.637C372.172 257.411 376.061 255.691 377.857 253.709C378.436 253.073 378.96 252.343 379.278 251.39C379.54 250.604 378.474 250.006 377.819 249.501C376.23 248.285 375.295 248.772 375.126 248.94C373.163 250.847 369.572 253.409 368.151 254.101C365.122 255.579 365.252 254.251 365.365 254.195L365.346 254.232Z" fill="white"/>
<path d="M364.775 254.147C364.662 254.227 366.187 253.504 370.045 251.457C371.325 252.079 372.36 253.384 372.962 254.769C373.244 255.471 373.489 256.214 373.658 256.977C372.059 258.141 370.308 259.325 368.803 260.55C363.797 264.644 359.393 257.398 364.775 254.127V254.147Z" fill="#293896"/>
<path d="M382.419 243.611C381.671 245.107 381.484 245.93 380.829 247.463C379.296 251.017 379.165 253.466 376.248 254.121C375.238 254.345 374.097 253.691 373.892 252.905C373.218 250.231 374.976 249.82 377.931 244.303C378.267 243.667 379.072 242.396 379.502 241.386C379.988 240.226 382.756 242.919 382.4 243.611H382.419Z" fill="white"/>
<path d="M379.371 240.581C379.278 239.87 379.371 239.16 379.633 238.505C380.026 237.608 380.661 238.038 381.391 237.907C382.045 237.776 382.326 236.467 382.531 235.906C383.448 233.456 384.065 234.298 383.672 235.831C383.597 236.13 383.336 236.673 383.354 236.991C383.392 237.421 383.784 237.29 384.102 237.365C384.308 237.402 384.532 237.477 384.607 237.701C384.701 237.944 384.514 238 384.458 238.206C384.401 238.412 384.308 238.225 384.495 238.412C384.588 238.505 384.775 238.468 384.888 238.618C385.224 239.048 384.719 239.179 384.626 239.515C384.551 239.758 384.794 240.039 384.719 240.319C384.645 240.6 384.458 240.899 384.308 241.142C384.158 241.385 383.934 241.497 383.728 241.684C383.541 241.853 383.485 242.058 383.336 242.264C382.962 242.825 382.55 243.293 382.27 243.91C382.176 244.134 382.083 244.359 381.933 244.564C381.391 245.294 379.278 243.611 379.539 242.975C379.782 242.358 379.633 241.909 379.483 241.31C379.427 241.067 379.39 240.824 379.352 240.581H379.371Z" fill="white"/>
<path d="M337.871 295.557C338.625 295.539 339.326 295.287 340.08 295.269C340.853 295.251 341.643 295.557 342.11 296.203C342.469 296.688 342.739 297.479 342.308 297.964C341.894 298.431 341.338 298.754 340.763 298.988C339.595 299.437 338.392 299.329 337.188 299.652C336.416 299.85 335.679 300.191 334.889 300.263C334.188 300.317 333.541 300.119 333.039 299.616C332.589 299.167 332.518 298.575 332.536 297.964C332.571 296.868 333.272 296.383 334.188 295.952C336.074 295.072 336.559 295.629 337.853 295.593L337.871 295.557Z" fill="#293896"/>
<path d="M321.218 253.666C321.451 253.091 321.847 252.481 322.439 252.283C323.032 252.085 323.715 252.085 324.272 252.373C326.858 253.72 326.84 257.097 328.331 262.63C328.691 263.977 329.858 267.3 328.78 268.468C328.295 268.989 327.218 269.474 326.481 269.384C323.499 269.061 321.182 258.822 321.038 255.822C321.002 255.085 320.93 254.367 321.2 253.666H321.218Z" fill="white"/>
<path d="M327.541 244.038C329.804 245.655 327.541 248.924 326.301 253.864C325.996 255.05 325.475 258.175 324.11 258.499C323.481 258.642 322.349 258.499 321.846 257.996C319.852 256.074 322.008 248.834 322.691 245.889C322.942 244.829 324.792 242.062 327.559 244.038H327.541Z" fill="white"/>
<path d="M326.085 287.293C328.24 286.593 330.037 285.174 331.456 286.934C331.959 287.563 331.725 288.353 331.294 288.874C329.857 290.688 327.594 291.173 326.049 291.838C323.66 292.88 322.025 290.293 324.27 288.281C324.881 287.742 325.294 287.545 326.085 287.293Z" fill="#293896"/>
<path d="M325.547 273.911C325.206 274.27 324.254 275.079 323.733 281.455C323.661 282.39 323.446 288.497 324.649 290.006C325.08 290.563 325.691 290.563 325.942 290.509C326.966 290.257 327.182 289.449 327.308 288.695C327.793 285.821 328.17 281.348 328.385 279.084C328.547 277.45 325.907 273.552 325.547 273.929V273.911Z" fill="white"/>
<path d="M338.751 279.372C339.416 284.186 337.206 296.15 335.949 297.479C335.069 298.413 333.093 297.874 333.254 296.94C333.632 294.731 332.392 289.611 332.5 286.683C332.644 282.875 333.38 280.306 333.416 280.199C333.721 279.067 338.679 278.762 338.751 279.372Z" fill="white"/>
<path d="M324.739 257.996C324.541 255.948 324.092 253.918 323.823 251.888C323.553 249.894 323.32 247.667 323.823 245.709C323.967 245.134 324.182 244.577 324.595 244.146C325.242 243.445 326.302 243.248 327.236 243.409C328.17 243.553 329.032 244.002 329.877 244.433C330.972 245.008 331.978 245.601 333.164 245.888C334.26 246.158 335.499 246.948 336.325 247.703C339.289 250.379 339.289 252.391 339.289 256.954C339.289 259.415 339.343 261.876 339.505 264.337C339.702 267.48 340.026 268.935 340.475 272.061C340.942 275.276 341.427 278.851 338.247 280.845C334.475 283.216 328.188 281.725 324.128 278.599C321.631 276.695 322.368 276.983 322.422 273.875C322.566 266.259 325.17 262.576 324.721 258.014L324.739 257.996Z" fill="#293896"/>
<path d="M336.002 242.727C336.702 242.045 328.259 237.554 328.331 239.009C328.511 243.284 327.9 243.248 327.864 244.811C327.828 246.248 328.888 247.685 333.128 247.272C336.091 246.985 333.577 245.063 336.002 242.727Z" fill="white"/>
<path d="M338.499 232.829C338.876 233.35 339.145 233.943 339.199 234.608C339.307 236.08 338.624 237.553 338.84 239.026C339.056 240.464 338.211 243.607 335.373 244.236C333.936 244.559 331.206 243.876 330.343 243.374C329.194 242.709 328.475 241.505 327.847 240.32C322.691 230.692 334.906 227.746 338.499 232.811V232.829Z" fill="white"/>
<path d="M327.469 230.745C328.529 228.482 336.648 227.656 338.857 233.063C339.037 233.476 339.055 233.925 339.181 234.356C339.288 234.733 339.181 235.057 338.947 235.326C338.642 235.667 338.534 235.865 338.408 236.332C338.157 237.32 338.067 238.344 338.157 239.35C338.211 239.853 338.229 240.482 337.798 240.733C337.51 240.895 337.151 240.787 336.81 240.787C336.235 240.787 335.696 241.074 335.301 241.505C334.816 242.026 334.672 242.745 334.169 243.23C333.648 243.715 333.019 244.002 332.301 244.074C331.51 244.164 330.774 243.966 329.984 243.895C329.516 243.859 329.085 243.787 328.654 243.607C327.702 243.23 327.074 242.368 326.499 241.541C325.295 239.817 325.169 239.314 324.972 237.877C324.056 231.266 327.002 231.733 327.469 230.728V230.745Z" fill="#221A19"/>
<path d="M336.324 239.637C335.229 239.404 334.744 240.733 335.354 241.901C335.534 242.242 335.875 242.583 336.127 242.871C336.486 243.284 337.348 242.978 337.528 241.955C337.582 241.613 337.456 241.416 337.366 241.11C337.295 240.877 337.259 240.661 337.205 240.428C337.079 239.979 336.774 239.745 336.324 239.655V239.637Z" fill="white"/>
<path d="M323.23 251.655C323.176 250.829 323.32 249.985 323.553 249.194C323.895 247.991 324.362 246.823 324.487 245.584C324.649 244.003 324.2 242.44 323.841 240.913C323.464 239.368 323.176 237.752 323.571 236.225C323.931 234.878 324.972 233.656 326.374 233.369C327.254 233.189 328.026 233.081 328.637 233.872C329.553 235.093 329.733 237.41 329.338 238.847C329.05 239.853 328.583 240.805 328.314 241.829C328.17 242.422 328.08 243.033 328.152 243.644C328.206 244.147 328.421 244.614 328.421 245.117C328.421 246.338 327.793 247.344 327.218 248.35C326.589 249.464 326.499 250.595 326.715 251.853C326.912 253.092 327.308 254.314 327.236 255.553C327.182 256.811 326.517 258.14 325.332 258.517C325.925 257.403 325.601 256.038 324.937 255.05C324.452 254.314 323.823 253.649 323.499 252.841C323.338 252.446 323.266 252.05 323.23 251.637V251.655Z" fill="black"/>
<path d="M334.062 250.163C334.295 249.588 334.69 248.978 335.283 248.78C335.876 248.583 336.559 248.583 337.116 248.87C339.702 250.217 340.798 258.103 341.139 261.013C341.211 261.714 340.097 263.69 338.786 263.833C337.511 263.977 336.074 262.324 335.948 262.001C335.84 261.696 333.99 254.331 333.9 252.319C333.864 251.582 333.792 250.864 334.062 250.163Z" fill="white"/>
<path d="M339.828 259.72C341.176 259.845 341.283 262.217 344.696 266.671C345.325 267.48 345.918 268.45 346.888 268.863C347.283 269.025 347.714 269.097 348.073 269.348C349.385 270.3 350.121 271.737 350.211 272.15C350.534 273.551 350.786 273.713 350.588 274.09C350.103 275.096 349.672 274.18 349.403 274.234C349.097 274.288 349.241 274.521 348.648 275.006C348.163 275.402 348.127 274.917 347.894 274.935C347.714 274.935 347.696 275.186 347.481 275.15C347.409 275.15 347.355 275.06 347.265 275.06C347.068 275.06 347.121 275.258 346.547 275.15C346.008 275.042 346.744 273.875 345.864 272.995C345.433 272.563 345.038 271.611 344.211 271.073C338.409 267.228 335.948 262.073 335.948 262.073C335.948 262.073 338.122 262.845 338.643 262.486C339.236 262.073 339.092 259.684 339.81 259.756L339.828 259.72Z" fill="white"/>
<path d="M459.555 204.541V215.159L482.701 228.523V217.903L459.555 204.541Z" fill="#F8FBFF"/>
<path d="M492.443 223.528L482.701 217.903V228.523L492.443 234.148V223.528Z" fill="#9EC959"/>
<path d="M459.002 204.83V215.448L482.147 228.812V218.192L459.002 204.83Z" fill="#F8FBFF"/>
<path d="M491.889 223.817L482.146 218.192V228.812L491.889 234.437V223.817Z" fill="#5B68B7"/>
<path d="M491.891 234.437L492.443 234.148V223.528L491.891 223.817V234.437Z" fill="#262C4F"/>
<path d="M482.146 218.192L482.699 217.903L492.441 223.528L491.889 223.817L482.146 218.192Z" fill="#7688F3"/>
<path d="M459.002 204.83L459.554 204.541L482.7 217.903L482.147 218.192L459.002 204.83Z" fill="#D5D7E3"/>
<path d="M465.914 212.013L466.566 212.389L465.921 216.774L465.329 216.432L464.975 213.61L464.645 216.037L464.05 215.693L463.361 210.539L464.011 210.914L464.336 213.649L464.636 211.275L465.287 211.651L465.611 214.384L465.914 212.013Z" fill="#3F5666"/>
<path d="M467.98 218.023C467.707 217.865 467.473 217.62 467.282 217.288C467.09 216.955 466.994 216.633 466.994 216.319V213.722C466.994 213.406 467.091 213.193 467.284 213.081C467.476 212.972 467.709 212.995 467.98 213.151C468.254 213.309 468.487 213.555 468.677 213.887C468.867 214.221 468.962 214.543 468.962 214.858V215.401L468.319 215.028V214.47C468.319 214.356 468.284 214.239 468.214 214.117C468.144 213.996 468.06 213.906 467.961 213.849C467.862 213.792 467.778 213.785 467.709 213.825C467.641 213.867 467.606 213.944 467.606 214.058V216.661C467.606 216.775 467.641 216.891 467.709 217.012C467.778 217.131 467.862 217.22 467.961 217.277C468.06 217.334 468.144 217.342 468.214 217.303C468.284 217.264 468.319 217.187 468.319 217.074V216.417L468.962 216.789V217.454C468.962 217.769 468.866 217.982 468.673 218.092C468.481 218.201 468.249 218.179 467.98 218.023Z" fill="#3F5666"/>
<path d="M473.525 216.862L471.473 215.677C471.423 215.649 471.379 215.644 471.34 215.649C471.236 215.629 471.16 215.695 471.16 215.828V217.622C471.16 217.788 471.277 217.99 471.421 218.073C471.566 218.157 471.683 218.09 471.683 217.923V216.402L471.757 216.445V218.419C471.751 218.443 471.746 218.471 471.746 218.501V221.147C471.746 221.341 471.883 221.578 472.051 221.674C472.219 221.772 472.356 221.692 472.356 221.498V219.135L472.617 219.285V221.649C472.617 221.842 472.753 222.079 472.922 222.176C473.09 222.273 473.227 222.195 473.227 222V219.354C473.227 219.323 473.222 219.291 473.215 219.259V217.285L473.29 217.328V218.881C473.29 219.047 473.407 219.25 473.551 219.333C473.696 219.416 473.812 219.349 473.812 219.183V217.389C473.812 217.331 473.794 217.271 473.77 217.21C473.735 217.071 473.64 216.929 473.525 216.862Z" fill="#3F5666"/>
<path d="M472.485 216.115C472.965 216.392 473.355 216.167 473.355 215.612C473.355 215.057 472.965 214.383 472.485 214.105C472.005 213.828 471.615 214.052 471.615 214.608C471.615 215.163 472.004 215.838 472.485 216.115Z" fill="#3F5666"/>
<path d="M478.132 221.616L477.697 219.571C477.69 219.53 477.677 219.489 477.659 219.449C477.623 219.312 477.528 219.175 477.416 219.11L475.887 218.227C475.839 218.2 475.797 218.194 475.759 218.197C475.672 218.179 475.601 218.219 475.58 218.318L475.144 219.86C475.115 220.005 475.205 220.217 475.345 220.334C475.364 220.349 475.382 220.361 475.4 220.372C475.521 220.441 475.629 220.407 475.655 220.28L476.04 218.918L476.103 218.955L475.552 221.56L475.9 221.76V223.544C475.9 223.738 476.036 223.975 476.204 224.072C476.373 224.169 476.509 224.09 476.509 223.896V222.111L476.77 222.262V224.046C476.77 224.24 476.907 224.476 477.075 224.573C477.244 224.67 477.38 224.592 477.38 224.397V222.613L477.754 222.828L477.188 219.578L477.232 219.603L477.624 221.444C477.65 221.601 477.759 221.76 477.88 221.831C477.897 221.841 477.916 221.849 477.934 221.855C478.073 221.904 478.163 221.797 478.132 221.616Z" fill="#3F5666"/>
<path d="M476.64 218.513C477.12 218.79 477.51 218.566 477.51 218.011C477.51 217.455 477.12 216.781 476.64 216.503C476.16 216.226 475.77 216.451 475.77 217.006C475.77 217.561 476.16 218.235 476.64 218.513Z" fill="#3F5666"/>
<path d="M487.129 229.025L490.523 228.722L487.129 224.5V225.681L483.516 223.595V225.757L487.129 227.844V229.025Z" fill="#F8FBFF"/>
<path d="M461.686 206.574C461.358 206.574 461.092 206.307 461.092 205.98V202.593C461.092 202.266 461.358 202 461.686 202C462.013 202 462.279 202.266 462.279 202.593V205.98C462.279 206.308 462.013 206.574 461.686 206.574Z" fill="#F8FBFF"/>
<path d="M488.875 222.204C488.547 222.204 488.281 221.937 488.281 221.61V218.223C488.281 217.896 488.547 217.63 488.875 217.63C489.202 217.63 489.468 217.896 489.468 218.223V221.61C489.467 221.938 489.202 222.204 488.875 222.204Z" fill="#F8FBFF"/>
<path d="M459.555 231.7V242.318L482.7 255.681V245.062L459.555 231.7Z" fill="#F8FBFF"/>
<path d="M492.441 250.688L482.699 245.062V255.681L492.441 261.306V250.688Z" fill="#9EC959"/>
<path d="M459.002 231.989V242.607L482.147 255.97V245.351L459.002 231.989Z" fill="#F8FBFF"/>
<path d="M492.002 250.887L482.002 245V256.114L492.002 261.5V250.887Z" fill="#5B68B7"/>
<path d="M491.887 261.561L492.439 261.272V250.654L491.887 250.943V261.561Z" fill="#262C4F"/>
<path d="M482.146 245.352L482.698 245.062L492.44 250.688L491.888 250.977L482.146 245.352Z" fill="#7688F3"/>
<path d="M459.002 231.989L459.554 231.7L482.699 245.062L482.147 245.351L459.002 231.989Z" fill="#D5D7E3"/>
<path d="M474.711 245.349V245.232C474.711 245.116 474.684 245.002 474.63 244.891C474.576 244.781 474.501 244.697 474.401 244.639C474.303 244.582 474.227 244.578 474.172 244.627C474.119 244.676 474.092 244.758 474.092 244.874V245.823C474.235 245.758 474.392 245.776 474.563 245.875C474.836 246.033 475.042 246.261 475.177 246.56C475.297 246.822 475.359 247.124 475.359 247.466V248.282L475.355 248.28C475.341 248.575 475.247 248.775 475.07 248.878C474.894 248.982 474.677 248.959 474.422 248.812C474.147 248.654 473.922 248.411 473.744 248.083C473.571 247.766 473.484 247.45 473.484 247.137V244.539C473.484 244.307 473.533 244.125 473.63 243.994C473.728 243.863 473.866 243.804 474.045 243.816C474.159 243.821 474.285 243.863 474.421 243.941C474.692 244.098 474.918 244.342 475.098 244.673C475.271 244.991 475.359 245.307 475.359 245.62V245.724L474.711 245.349ZM474.092 247.475C474.092 247.591 474.117 247.703 474.168 247.808C474.223 247.923 474.3 248.009 474.398 248.066C474.499 248.125 474.575 248.127 474.63 248.075C474.682 248.029 474.709 247.949 474.709 247.833V246.952C474.709 246.815 474.665 246.676 474.576 246.533C474.535 246.467 474.476 246.412 474.401 246.368C474.294 246.307 474.212 246.308 474.157 246.375C474.113 246.431 474.091 246.508 474.091 246.607L474.092 247.475Z" fill="#3F5666"/>
<path d="M475.787 246.812L477.628 247.876V248.598L475.787 247.534V246.812Z" fill="#3F5666"/>
<path d="M478.993 246.58C479.264 246.737 479.49 246.981 479.67 247.312C479.843 247.63 479.931 247.946 479.931 248.259V250.857C479.931 251.173 479.841 251.389 479.662 251.506C479.482 251.622 479.261 251.605 478.993 251.45C478.719 251.292 478.493 251.049 478.315 250.721C478.142 250.404 478.055 250.088 478.055 249.775V249.672L478.7 250.045V250.162C478.7 250.278 478.726 250.391 478.781 250.501C478.834 250.61 478.91 250.693 479.008 250.75C479.108 250.808 479.184 250.813 479.237 250.765C479.292 250.717 479.318 250.635 479.318 250.519V249.566C479.173 249.632 479.016 249.617 478.848 249.519C478.576 249.362 478.371 249.134 478.236 248.835C478.116 248.573 478.055 248.271 478.055 247.926V247.11L478.059 247.112C478.068 246.897 478.122 246.73 478.221 246.612C478.321 246.494 478.456 246.441 478.627 246.454C478.739 246.461 478.861 246.503 478.993 246.58ZM479.318 247.914C479.318 247.798 479.292 247.685 479.237 247.574C479.184 247.463 479.108 247.379 479.008 247.322C478.909 247.265 478.833 247.262 478.781 247.31C478.726 247.358 478.7 247.441 478.7 247.557V248.438C478.7 248.578 478.744 248.717 478.832 248.859C478.871 248.925 478.929 248.98 479.006 249.025C479.164 249.116 479.262 249.076 479.302 248.907C479.313 248.855 479.319 248.814 479.319 248.783L479.318 247.914Z" fill="#3F5666"/>
<path d="M461.685 233.732C461.358 233.732 461.092 233.466 461.092 233.139V229.752C461.092 229.425 461.358 229.159 461.685 229.159C462.012 229.159 462.279 229.425 462.279 229.752V233.139C462.279 233.466 462.012 233.732 461.685 233.732Z" fill="#F8FBFF"/>
<path d="M488.873 249.362C488.546 249.362 488.279 249.096 488.279 248.769V245.382C488.279 245.055 488.546 244.788 488.873 244.788C489.2 244.788 489.467 245.055 489.467 245.382V248.769C489.466 249.096 489.2 249.362 488.873 249.362Z" fill="#F8FBFF"/>
<path d="M459.555 218.54V229.16L482.7 242.522V231.903L459.555 218.54Z" fill="#F8FBFF"/>
<path d="M492.441 237.528L482.699 231.903V242.522L492.441 248.147V237.528Z" fill="#9EC959"/>
<path d="M459.002 218.83V229.449L482.147 242.811V232.192L459.002 218.83Z" fill="#F8FBFF"/>
<path d="M491.888 237.817L482.146 232.192V242.811L491.888 248.436V237.817Z" fill="#5B68B7"/>
<path d="M491.889 248.436L492.441 248.147V237.528L491.889 237.817V248.436Z" fill="#262C4F"/>
<path d="M482.146 232.192L482.698 231.903L492.44 237.528L491.888 237.817L482.146 232.192Z" fill="#7688F3"/>
<path d="M459.002 218.83L459.554 218.54L482.699 231.903L482.147 232.192L459.002 218.83Z" fill="#D5D7E3"/>
<path d="M474.014 235.369V231.705L473.484 231.399V230.898C473.633 230.963 473.775 230.98 473.91 230.948C474.045 230.916 474.142 230.839 474.201 230.716L474.635 230.967V235.727L474.014 235.369Z" fill="#3F5666"/>
<path d="M475.062 233.237L476.905 234.3V235.022L475.062 233.959V233.237Z" fill="#3F5666"/>
<path d="M478.016 233.635V234.656C478.078 234.591 478.164 234.562 478.276 234.571C478.335 234.577 478.405 234.603 478.485 234.649C478.756 234.806 478.959 235.032 479.087 235.327C479.199 235.583 479.255 235.883 479.255 236.229V237.254C479.255 237.606 479.159 237.838 478.966 237.952C478.781 238.063 478.549 238.038 478.27 237.877C477.998 237.719 477.771 237.475 477.592 237.144C477.418 236.827 477.332 236.51 477.332 236.197V236.083L477.927 236.374L477.941 236.545C477.956 236.743 478.023 236.908 478.141 237.04C478.175 237.08 478.213 237.112 478.252 237.135C478.507 237.282 478.634 237.202 478.634 236.896V235.731C478.634 235.591 478.59 235.451 478.502 235.309C478.459 235.242 478.401 235.187 478.326 235.144C478.216 235.08 478.135 235.081 478.081 235.15C478.037 235.211 478.016 235.289 478.016 235.385V235.514L477.395 235.156V232.555L479.212 233.605V234.326L478.016 233.635Z" fill="#3F5666"/>
<path d="M461.685 220.574C461.358 220.574 461.092 220.307 461.092 219.98V216.593C461.092 216.266 461.358 216 461.685 216C462.012 216 462.279 216.266 462.279 216.593V219.98C462.279 220.307 462.012 220.574 461.685 220.574Z" fill="#F8FBFF"/>
<path d="M488.873 236.204C488.546 236.204 488.279 235.937 488.279 235.61V232.223C488.279 231.896 488.546 231.63 488.873 231.63C489.2 231.63 489.467 231.896 489.467 232.223V235.61C489.466 235.937 489.2 236.204 488.873 236.204Z" fill="#F8FBFF"/>
<path d="M488.49 241.273L486.704 236.67L484.918 239.21L485.85 239.749V243.553L487.558 244.539V240.735L488.49 241.273Z" fill="#F8FBFF"/>
<path d="M487.404 256.713L490.798 256.41L487.404 252.189V253.37L483.791 251.284V253.446L487.404 255.533V256.713Z" fill="#F8FBFF"/>
<path d="M303.856 264.044C304.078 264.103 303.961 263.986 303.856 264.044V264.044Z" fill="#E8C6AC"/>
<path d="M291.806 232.394C291.783 230.539 290.303 226.922 290.608 225.583H303.339C303.292 226.029 300.074 226.499 300.074 226.499L296.739 250.492C296.739 250.492 295.682 257.761 296.069 258.513C296.457 259.265 298.019 260.239 300.344 261.766C300.861 262.13 303.773 264.009 303.82 264.033C303.844 264.033 303.844 264.033 303.855 264.033C303.797 264.068 303.738 264.162 303.738 264.385C303.738 265.137 296.057 264.467 296.057 264.467C296.057 264.467 294.178 264.608 293.286 263.95C292.534 263.375 292.323 263.281 292.323 262.576C292.323 262.576 293.027 258.219 291.466 249.458C290.972 246.675 292.288 241.954 292.288 241.954L291.818 232.394H291.806Z" fill="white"/>
<path d="M294.871 264.595L294.683 266.392C294.683 266.392 294.178 266.745 293.603 266.639C292.839 266.51 292.558 266.146 292.558 266.146L291.97 263.339C291.97 263.339 292.534 264.29 294.072 264.572C294.554 264.654 294.859 264.619 294.859 264.619L294.871 264.595Z" fill="#321D10"/>
<path d="M296.422 262.224C299.346 264.091 301.19 263.081 301.448 262.94C302.505 262.365 302.07 261.695 301.495 261.296C301.26 261.131 300.908 261.049 300.908 261.049C300.873 261.049 303.703 260.803 304.501 261.366C304.771 261.554 305.018 261.801 305.03 262.001C305.053 262.435 304.76 262.74 304.76 262.74C304.76 262.74 303.069 263.433 301.894 264.02C299.909 265.042 295.083 264.42 293.274 264.502C292.664 264.526 291.806 263.574 291.759 262.388C291.7 260.791 292.229 260.098 292.229 260.098C292.229 260.098 292.969 259.969 294.319 260.885C294.648 261.108 295.811 261.836 296.422 262.224Z" fill="#293896"/>
<path d="M293.461 264.221C293.731 264.279 294.706 264.326 296.198 264.467C298.934 264.737 300.132 264.585 301.811 263.903C303.033 263.41 303.643 263.117 304.207 262.776C304.489 262.612 305.099 262.259 305.029 262.001C305.158 262.4 304.911 262.741 304.911 262.741C304.911 262.741 302.504 264.197 301.318 264.526C299.873 264.937 297.583 264.737 295.61 264.69C294.589 264.667 293.402 264.632 292.839 264.526C292.228 264.408 292.122 263.669 292.087 263.575C292.064 263.516 292.604 264.033 293.461 264.221Z" fill="#321D10"/>
<path d="M306.016 211.431L303.455 214.027C303.455 214.027 289.997 208.366 289.832 205.536C289.668 202.753 291.101 193.827 291.101 193.827C291.77 189.329 293.614 186.945 296.527 186.945C300.015 186.945 297.959 192.195 297.959 192.195L296.515 204.338L306.016 211.42V211.431Z" fill="white"/>
<path d="M291.982 216.728C291.805 216.728 291.664 216.88 291.664 217.056L292.205 219.276C292.205 219.452 292.346 219.605 292.534 219.605H296.879C297.055 219.605 297.219 219.464 297.243 219.276V217.056C297.266 216.88 297.161 216.728 296.984 216.728H291.97H291.982Z" fill="#EEEDED"/>
<path d="M296.867 217.574C296.867 217.738 296.726 217.867 296.574 217.867C296.421 217.867 296.28 217.727 296.28 217.574C296.28 217.421 296.421 217.28 296.574 217.28C296.726 217.28 296.867 217.409 296.867 217.574Z" fill="#B31E17"/>
<path d="M305.887 221.965C303.586 217.585 297.373 218.337 294.731 220.732C293.838 221.543 292.417 223.633 292.488 225.395C292.488 225.43 292.488 225.489 292.488 225.547C292.417 224.925 292.382 224.526 292.37 224.42C292.159 222.529 290.068 219.722 290.667 216.704L307.367 217.291C307.367 217.432 307.179 219.687 307.179 219.687L306.616 223.985C306.651 223.668 306.298 222.717 305.899 221.965H305.887Z" fill="#16556E"/>
<path d="M291.759 221.002L292.288 218.501L306.968 218.548V220.439C306.968 220.439 306.968 221.296 306.921 222.001C306.827 223.128 305.676 223.88 305.676 223.88L302.176 261.366C302.176 261.366 302.129 262.341 302.176 262.67C302.258 263.457 304.325 264.173 306.486 264.819C307.132 265.019 308.718 265.547 308.753 265.571C309.176 265.712 310.139 266.299 309.023 266.487C308.283 266.616 301.589 268.554 301.589 268.554C301.589 268.554 298.97 267.978 298.207 267.92C297.256 267.849 297.162 267.062 297.162 266.369L297.115 264.302C297.032 263.422 298.747 264.596 297.044 252.793C296.704 250.421 297.608 246.463 297.561 243.739C297.408 235.083 296.739 230.221 296.668 229.634C296.445 227.744 292.805 224.62 291.771 221.014L291.759 221.002Z" fill="white"/>
<path d="M309.141 233.98C309.141 234.649 301.542 236.916 295.177 235.366C291.114 234.379 286.604 230.234 286.263 229.4C286.24 229.318 290.151 219.23 290.656 216.705L307.332 216.458C307.649 217.914 309.141 233.98 309.141 233.98Z" fill="#293896"/>
<path d="M304.266 188.003L309.069 196.494C309.069 196.494 309.539 197.233 309.527 197.879C309.504 198.525 309.504 199.312 308.705 200.533C308.623 200.663 308.529 200.78 308.447 200.898C307.578 202.013 305.581 205.102 305.581 206.511L307.366 216.658C307.366 216.658 307.366 217.269 307.308 218.208C307.308 218.208 305.417 220.78 301.201 220.792C296.808 220.804 290.584 216.999 290.655 216.681L293.99 208.284C294.154 207.498 294.213 206.687 294.154 205.877L292.052 197.116C292.052 197.116 291.876 193.487 292.381 191.549C293.72 186.476 297.196 185.783 297.396 185.396C297.396 185.396 303.867 187.298 304.266 187.991V188.003Z" fill="#293896"/>
<path d="M301.389 169.2L306.24 167.826L308.025 181.285C308.342 183.81 307.285 185.289 306.228 185.689C304.173 186.452 302.2 185.348 299.452 183.446C297.033 181.754 296.903 180.24 296.786 179.911L293.321 171.901L301.401 169.2H301.389Z" fill="white"/>
<path d="M299.533 268.424L299.134 270.174C299.134 270.174 298.57 270.468 297.995 270.292C297.231 270.069 296.985 269.669 296.985 269.669L296.703 266.804C296.703 266.804 297.607 268.342 299.017 268.377C299.522 268.389 299.533 268.424 299.533 268.424Z" fill="#321D10"/>
<path d="M301.577 266.029C304.56 267.45 306.216 266.733 306.509 266.628C307.66 266.193 307.754 265.606 307.214 265.136C306.991 264.937 306.462 264.819 306.462 264.819C306.427 264.819 310.056 265.477 310.537 266.087C310.737 266.346 310.807 266.581 310.796 266.78C310.772 267.215 310.42 267.485 310.42 267.485C310.42 267.485 308.611 267.955 307.343 268.413C305.182 269.176 299.768 268.272 297.901 268.131C297.267 268.072 296.492 267.027 296.585 265.841C296.703 264.244 297.325 263.621 297.325 263.621C297.325 263.621 298.1 263.586 299.381 264.655C299.698 264.913 301.083 265.794 301.577 266.029Z" fill="#293896"/>
<path d="M297.831 267.626C298.101 267.72 299.205 268.049 300.697 268.295C303.903 268.835 305.476 268.753 307.273 268.283C308.589 267.931 309.246 267.732 309.857 267.461C310.174 267.332 310.796 266.945 310.796 266.792C310.808 267.356 310.585 267.508 310.585 267.508C310.585 267.508 308.953 268.213 306.686 268.847C304.008 269.587 301.413 268.695 299.816 268.518C298.677 268.389 298.219 268.565 297.714 268.283C297.021 267.884 296.809 267.18 296.786 267.086C296.774 267.015 296.962 267.356 297.819 267.649L297.831 267.626Z" fill="#321D10"/>
<path d="M300.378 205.535C300.378 205.535 300.602 211.677 301.412 213.275C302.657 215.729 313.837 209.528 316.292 208.248C318.828 206.921 322.14 209.751 324.97 207.861L329.351 204.349C329.551 204.079 329.269 203.715 328.975 203.868C326.92 204.936 321.846 207.238 322.575 205.289C322.974 204.208 324.207 203.633 324.207 203.269C324.207 202.365 322.187 203.48 321.071 204.22C319.956 204.948 318.535 204.995 317.079 205.512C315.622 206.029 305.945 208.906 305.511 208.612C304.782 208.107 308.822 193.134 304.137 193.052C304.137 193.052 298.758 191.983 300.308 204.655C301.929 217.925 300.39 205.559 300.39 205.559L300.378 205.535Z" fill="#EBEBEB"/>
<path d="M290.419 196.751C287.823 192.524 288.141 170.903 293.414 167.016C297.43 164.044 302.139 164.726 305.158 167.11C307.589 169.047 307.025 172.5 306.015 175.06C304.465 178.959 304.488 181.59 304.476 182.494C304.382 202.893 295.234 204.585 290.419 196.751Z" fill="#321D10"/>
<path d="M217.161 212.957L218.171 213.145L219.251 215.33L218.922 217.256C218.922 217.256 218.805 217.772 219.157 218.454C219.287 218.724 219.533 219.182 219.533 219.182C219.533 219.182 219.557 221.143 218.171 220.661C217.725 220.509 217.419 220.098 217.419 220.098C216.809 219.969 215.81 219.628 215.141 219.44C213.591 219.006 214.072 217.068 214.072 217.068L214.366 215.13C214.518 214.05 215.352 212.922 217.173 212.946L217.161 212.957Z" fill="white"/>
<path d="M214.588 211.595L214.705 214.589L218.299 214.942L218.439 213.028L214.588 211.595Z" fill="#E8C6AC"/>
<path d="M217.124 214.637C216.96 215.612 218.087 216.492 218.921 216.657C219.215 216.716 219.015 219.475 220.483 219.323C220.483 219.323 220.589 218.689 220.741 217.573C220.741 217.491 221.047 216.575 220.612 215.788C219.461 213.733 219.367 213.369 218.534 213.204C217.7 213.028 217.312 213.662 217.136 214.625L217.124 214.637Z" fill="white"/>
<path d="M263.479 202.623C262.915 203.551 262.868 204.126 262.868 204.126C262.868 204.126 262.023 204.901 261.295 204.655C257.525 203.375 249.069 201.625 243.491 197.749C240.108 195.4 235.681 182.999 235.681 182.999C235.681 182.999 234.048 181.531 237.395 178.266C239.838 175.87 245.898 174.919 246.286 178.09C246.544 180.18 248.094 190.456 249.809 192.089C253.109 195.236 264.078 199.346 264.078 199.346C264.078 199.346 265.182 199.863 263.479 202.623Z" fill="#5B68B7"/>
<path d="M230.49 264.232C230.49 264.232 231.065 265.476 230.29 267.355C230.29 267.355 229.351 268.048 229.198 268.201C228.317 269.035 225.393 273.439 222.774 273.544C219.909 273.674 219.732 271.536 220.05 270.221C220.202 269.552 223.537 262.364 223.537 262.364L230.502 264.232H230.49Z" fill="#292928"/>
<path d="M249.926 254.543C249.926 254.543 251.148 256.716 252.04 257.103C253.884 257.89 259.192 259.393 259.685 259.569C260.014 259.687 260.555 260.063 260.543 260.626C260.543 260.849 260.519 260.99 260.378 261.19C259.85 261.906 258.758 262.177 257.771 262.411C255.058 263.034 247.096 261.378 246.849 261.202C246.849 261.202 246.039 261.037 245.839 261.413C245.769 261.554 245.804 262.083 245.792 262.094L242.927 261.19C242.786 261.12 242.492 259.816 242.422 259.241L242.539 255.482L249.961 254.543H249.926Z" fill="#231F20"/>
<path d="M260.379 260.873C259.697 261.695 258.664 262 257.666 262.188C254.401 262.822 246.744 261.049 246.744 261.049C246.086 260.967 245.816 261.19 245.769 261.554V262.071C245.769 262.071 246.685 261.495 246.673 261.495C246.673 261.495 253.861 263.245 257.078 262.904C258.088 262.787 259.803 262.223 260.402 261.331C260.508 261.178 260.625 260.791 260.508 260.521C260.496 260.567 260.402 260.814 260.379 260.861V260.873Z" fill="#292928"/>
<path d="M250.044 210.421L251.03 254.954C251.077 256.434 252.04 256.88 252.005 257.056C251.535 259.558 242.986 260.286 242.128 258.395L238.946 210.574L250.044 210.433V210.421Z" fill="#0E1A68"/>
<path d="M243.221 212.299L241.506 223.151L231.277 264.184C231.16 265.065 230.69 265.323 229.868 265.511C225.135 266.65 223.209 265.065 223.209 265.065C222.316 264.642 222.363 263.937 222.328 263.526L228.294 210.314L243.221 212.287V212.299Z" fill="#293896"/>
<path d="M224.148 179.675C224.148 179.675 224.536 178.301 229.022 177.42C230.173 177.197 235.74 176.07 240.12 175.189C243.314 174.543 246.615 176.14 247.578 179.1C247.695 179.452 247.812 179.816 247.93 180.216C248.071 180.65 250.995 187.673 250.173 210.151C250.102 212.335 245.698 213.745 240.331 213.58C235.904 213.439 229.022 211.736 229.022 211.736C229.022 211.736 228.329 211.807 228.036 210.409C227.178 206.311 227.871 201.496 227.284 198.348C226.368 193.334 224.137 179.675 224.137 179.675H224.148Z" fill="#293896"/>
<path d="M234.483 165.558C235.998 165.664 236.068 167.05 236.068 167.05L235.845 169.95C235.845 169.95 235.728 170.573 235.141 170.643C234.272 170.749 233.943 170.009 233.626 169.199C233.602 169.152 233.203 167.954 233.179 167.883C232.827 166.862 233.05 165.464 234.483 165.558Z" fill="#FDE7DA"/>
<path d="M240.8 184.15C240.67 183.891 240.635 183.68 240.635 183.351L240.659 182.318L238.803 180.392L238.099 180.638L238.122 183.14L239.015 183.891C239.285 184.056 239.367 184.925 239.402 185.218C239.402 185.218 241.457 199.981 240.635 206.17C240.588 206.545 243.313 211.642 243.313 211.642C243.313 211.642 246.014 207.391 245.932 206.17C245.239 195.624 240.788 184.15 240.788 184.15H240.8Z" fill="#BDDAFC"/>
<path d="M238.627 181.483C236.067 184.607 233.895 180.168 231.71 178.253L231.417 169.352L239.168 170.655L239.344 175.247L238.627 181.483Z" fill="white"/>
<path d="M233.601 160.603L228.176 162.752L232.122 172.1C232.474 172.711 232.897 173.533 233.742 173.932C234.353 174.226 234.764 174.297 235.903 174.473C235.903 174.473 240.084 174.731 241.799 173.263C242.503 172.652 242.386 171.584 242.398 170.903C242.398 170.128 241.963 167.92 241.787 167.356L240.601 162.611L239.309 158.947L233.613 160.591L233.601 160.603Z" fill="white"/>
<path d="M238.417 157.338C239.803 158.183 239.862 159.428 240.308 161.296C240.472 161.988 240.496 162.54 240.531 162.552C240.566 162.564 240.179 161.718 239.92 160.955C239.286 159.088 238.194 159.687 237.442 160.086C237.419 160.086 234.072 161.836 234.06 161.859C234.037 161.941 234.107 160.509 233.919 160.697C233.121 161.542 232.862 161.941 232.674 163.069C232.475 164.29 233.003 166.686 233.402 167.473L233.755 168.283C233.943 168.706 234.095 169.011 233.99 169.047C233.626 169.176 232.944 168.953 232.616 168.553C232.616 168.553 231.652 167.626 230.513 168.271C229.527 168.823 231.312 170.832 231.429 170.926L231.617 171.63C231.711 172.135 231.676 173.556 231.195 173.075C230.396 172.253 228.611 170.468 228.082 169.986C222.34 164.654 225.064 156.633 233.156 156.563C234.906 156.551 238.053 157.115 238.394 157.326L238.417 157.338Z" fill="#322313"/>
<path d="M230.477 167.908C231.886 167.356 232.591 168.577 232.591 168.577L233.93 170.503C233.93 170.503 234.094 171.325 233.613 171.642C232.873 172.112 232.744 172.077 231.887 171.772C231.382 171.595 230.489 170.903 230.43 170.856C229.655 170.092 229.138 168.425 230.477 167.908Z" fill="white"/>
<path d="M238.699 180.074C238.605 180.579 238.722 180.838 239.004 181.096L240.707 182.74C241.247 183.233 241.341 182.576 241.259 181.989L240.519 177.761C239.803 175.153 239.333 175.247 239.333 175.247C239.333 175.247 239.286 175.565 239.251 176.281C239.204 177.197 238.805 179.475 238.699 180.074Z" fill="white"/>
<path d="M231.594 175.247C231.594 175.247 231.77 176.327 232.064 176.727C233.743 179.029 237.818 180.156 237.818 180.156C238.311 180.25 238.746 180.403 238.793 181.166L238.699 184.137C238.746 184.877 238.335 184.854 237.983 184.607C237.983 184.607 234.53 182.575 233.532 181.871C231.195 180.203 231.218 178.805 231.289 176.187C231.312 175.447 231.594 175.259 231.594 175.259V175.247Z" fill="white"/>
<path d="M263.807 199.369C263.807 199.369 264.665 199.31 264.818 199.733C264.97 200.168 265.193 201.131 264.183 203.08C263.819 203.773 263.185 204.313 263.009 204.466C262.751 204.689 262.069 205.088 261.717 204.877C261.459 204.724 261.247 204.431 261.177 203.667C261.024 202.035 262.105 200.273 262.527 200.015C262.938 199.757 263.819 199.369 263.819 199.369H263.807Z" fill="#B6C1C7"/>
<path d="M263.22 201.248L263.877 200.321L266.802 200.18L268.822 201.331C268.822 201.331 269.362 201.671 270.278 201.612C270.63 201.589 271.264 201.542 271.264 201.542C271.264 201.542 273.484 202.364 272.345 203.538C271.969 203.914 271.394 204.055 271.394 204.055C270.982 204.607 270.16 205.464 269.667 206.052C268.505 207.414 266.532 206.099 266.532 206.099L264.488 204.983C263.337 204.36 262.433 203.045 263.243 201.248H263.22Z" fill="white"/>
<path d="M260.541 202.564L263.924 203.585L264.922 199.804L263.066 199.287L260.541 202.564Z" fill="white"/>
<path d="M264.336 199.404C264.336 199.404 262.997 199.099 261.905 201.342C261.318 202.528 261.177 203.42 261.247 204.125C261.294 204.665 261.729 204.888 261.729 204.888L260.695 204.454C260.695 204.454 260.002 203.643 260.601 201.858C261.482 199.204 263.432 199.134 263.432 199.134L264.336 199.404Z" fill="#E0E7EA"/>
<path d="M265.111 202.011C266.132 202.587 267.483 201.741 268.164 201.084C268.411 200.837 268.622 200.708 269.726 201.295C270.477 201.694 271.793 201.589 271.84 200.684C271.84 200.684 271.217 200.356 269.937 199.616C269.843 199.569 269.009 198.758 267.953 198.852C265.146 199.111 264.653 199.592 264.171 200.179C263.748 200.696 264.112 201.436 265.122 202.023L265.111 202.011Z" fill="white"/>
<path d="M215.399 215.013C214.33 214.684 214.119 214.226 214.119 214.226C214.119 214.226 214.753 201.765 216.621 195.553C218.911 187.931 222.845 181.307 222.845 181.307C223.162 180.908 225.111 176.81 227.589 178.806C229.785 180.591 229.586 186.487 228.505 187.555C227.953 188.095 226.802 194.226 225.064 197.432C221.4 204.22 220.296 214.625 220.296 214.625C220.296 214.625 218.734 216.034 215.399 215.013Z" fill="#5B68B7"/>
</svg>
