<svg width="705" height="468" viewBox="0 0 705 468" fill="none" xmlns="http://www.w3.org/2000/svg">
<rect width="705" height="468" fill="#E0E6F9"/>
<path d="M376.836 153.483C376.271 149.197 375.781 145.495 370.121 148.714L367.34 150.296L363.045 152.739L360.264 154.321C354.604 157.54 354.116 161.798 353.548 166.729C353.034 171.205 351.866 184.179 351.855 184.31L352.995 183.613C353.007 183.483 354.15 170.781 354.661 166.332C355.271 161.026 355.763 158.361 360.264 155.802L363.045 154.22L367.34 151.777L370.121 150.195C374.621 147.636 375.114 149.739 375.723 154.353C376.235 158.222 377.371 169.614 377.382 169.731L378.529 169.14C378.518 169.02 377.351 157.375 376.836 153.483Z" fill="#5B68B7"/>
<path d="M377.383 169.729L379.086 170.708C379.086 170.708 378.835 162.752 378.529 159.772C378.223 156.791 376.811 150.104 376.811 150.104L376.137 150.627L377.383 169.729Z" fill="#5B68B7"/>
<path d="M353.558 185.289L351.855 184.311C351.855 184.311 353.82 169.575 354.156 167.324C354.492 165.072 355.703 159.773 355.703 159.773L357.585 160.237C357.585 160.237 356.174 163.624 355.972 165.904C355.77 168.184 353.558 185.289 353.558 185.289Z" fill="#5B68B7"/>
<path d="M378.54 154.462C377.974 150.175 377.484 146.474 371.824 149.693L369.043 151.275L364.748 153.717L361.967 155.299C356.307 158.519 355.819 162.776 355.251 167.707C354.737 172.184 353.569 185.157 353.559 185.289L354.698 184.592C354.71 184.462 355.853 171.76 356.364 167.311C356.974 162.004 357.467 159.339 361.967 156.78L364.748 155.198L369.043 152.756L371.824 151.174C376.324 148.615 376.817 150.717 377.426 155.332C377.938 159.199 379.074 170.593 379.085 170.711L380.232 170.12C380.221 169.999 379.054 158.353 378.54 154.462Z" fill="#0E1A68"/>
<path d="M393.731 163.017C393.164 158.731 392.675 155.029 387.015 158.248L384.234 159.83L379.939 162.273L377.158 163.855C371.498 167.074 371.01 171.332 370.443 176.263C369.928 180.74 368.761 193.714 368.75 193.845L369.889 193.148C369.902 193.017 371.044 180.315 371.556 175.866C372.165 170.56 372.658 167.897 377.158 165.336L379.939 163.754L384.234 161.311L387.015 159.729C391.516 157.17 392.009 159.273 392.618 163.886C393.129 167.754 394.266 179.147 394.277 179.265L395.424 178.674C395.413 178.554 394.245 166.909 393.731 163.017Z" fill="#5B68B7"/>
<path d="M394.276 179.265L395.98 180.244C395.98 180.244 395.73 172.288 395.424 169.307C395.117 166.327 393.706 159.638 393.706 159.638L393.031 160.161L394.276 179.265Z" fill="#5B68B7"/>
<path d="M370.454 194.823L368.75 193.845C368.75 193.845 370.715 179.109 371.051 176.858C371.386 174.607 372.597 169.308 372.597 169.308L374.48 169.772C374.48 169.772 373.068 173.158 372.866 175.438C372.666 177.718 370.454 194.823 370.454 194.823Z" fill="#5B68B7"/>
<path d="M395.434 163.996C394.868 159.709 394.379 156.008 388.719 159.227L385.938 160.809L381.642 163.252L378.861 164.834C373.201 168.053 372.713 172.31 372.146 177.242C371.631 181.718 370.464 194.691 370.453 194.823L371.593 194.126C371.605 193.996 372.748 181.294 373.259 176.845C373.868 171.538 374.361 168.874 378.861 166.315L381.642 164.733L385.938 162.29L388.719 160.708C393.219 158.149 393.712 160.251 394.321 164.864C394.832 168.731 395.969 180.125 395.98 180.243L397.127 179.652C397.116 179.534 395.949 167.889 395.434 163.996Z" fill="#0E1A68"/>
<path d="M371.293 170.443L349.824 158.329C349.824 158.329 366.347 150.758 370.454 147.496C374.561 144.234 377.885 137.085 378.528 122.476C378.643 119.874 378.348 115.875 379.085 114.932C380.673 114.041 400.759 126.626 400.759 126.626C400.759 126.626 399.365 144.607 397.944 150.105C396.523 155.603 392.312 159.692 385.366 163.463C378.421 167.23 371.293 170.443 371.293 170.443Z" fill="#293896"/>
<path d="M399.759 126.58C399.759 126.58 398.609 140.548 397.926 146.046C397.343 150.733 396.094 156.11 388.601 160.585C382.187 164.416 373.776 169.074 371.293 170.443V172.943C372.826 172.097 376.479 170.076 380.545 167.762C383.23 166.235 386.093 164.581 388.641 163.06C397.172 157.967 399.069 151.28 399.798 145.413C400.501 139.766 401.671 125.493 401.671 125.493L399.759 126.58Z" fill="#0E1A68"/>
<path d="M378.292 114.458C378.292 114.458 377.142 128.431 376.458 133.93C375.875 138.618 374.625 143.997 367.132 148.469L349.824 158.327V160.826C351.359 159.981 355.01 157.959 359.078 155.645C361.763 154.118 364.626 152.464 367.174 150.944C375.705 145.85 377.602 139.163 378.331 133.295C379.03 127.673 380.196 113.467 380.196 113.467L378.292 114.458Z" fill="#293896"/>
<path d="M380.178 113.325L378.25 114.458L399.743 126.626L401.672 125.493L380.178 113.325Z" fill="#5B68B7"/>
<path d="M349.824 160.828L371.293 172.942V170.443L349.824 158.329V160.828Z" fill="#5B68B7"/>
<path d="M358.662 154.742C358.662 154.742 353.918 158.652 354.26 162.781C354.446 165.034 354.171 166.04 354.533 168.841C354.875 171.481 355.062 182.024 354.908 185.499C354.754 188.974 352.433 192.101 351.566 193.317C350.698 194.533 353.159 196.617 355.191 194.881C357.223 193.144 357.443 192.796 358.567 192.274C359.691 191.753 360.625 189.32 359.893 186.54C359.163 183.761 359.851 178.374 361.005 173.683C361.698 170.867 361.622 167.423 361.583 164.819C361.556 163.086 368.034 157.556 368.278 157.001C368.892 155.611 358.662 154.742 358.662 154.742Z" fill="white"/>
<path d="M356.572 192.806C353.938 194.183 352.872 194.364 351.564 193.315C351.564 193.315 349.077 195.162 348.232 196.081C347.386 196.999 349.791 198.526 352.183 197.833C354.577 197.137 356.618 195.044 358.566 193.489C360.476 191.964 361.005 191.411 361.005 189.558C361.005 188.645 360.1 187.641 360.1 187.641C360.1 187.641 359.332 191.364 356.572 192.806Z" fill="#0E1A68"/>
<path d="M369.436 152.68C368.446 153.122 366.526 157.166 362.823 160.821C361.701 161.93 360.53 164.163 361.006 166.555C361.448 168.773 361.796 170.465 361.807 172.813C361.819 175.474 362.335 186.452 362.181 189.927C362.027 193.402 359.707 196.529 358.839 197.745C357.972 198.961 360.432 201.047 362.464 199.309C364.496 197.57 364.717 197.224 365.841 196.702C366.964 196.181 367.899 193.748 367.168 190.968C366.436 188.189 367.126 182.802 368.28 178.112C369.435 173.421 367.949 167.108 368.934 165.947C370.922 163.601 375.082 161.564 375.224 159.186C375.401 156.227 372.404 151.351 369.436 152.68Z" fill="white"/>
<path d="M363.849 197.237C361.214 198.613 360.149 198.794 358.842 197.745C358.842 197.745 356.355 199.592 355.509 200.511C354.663 201.43 357.068 202.957 359.46 202.261C361.854 201.566 363.895 199.472 365.843 197.918C367.754 196.393 368.282 195.84 368.282 193.987C368.282 193.074 367.378 192.069 367.378 192.069C367.378 192.069 366.61 195.794 363.849 197.237Z" fill="#5B68B7"/>
<path d="M368.935 141.449L357.18 156.193C357.18 156.193 360.394 156.877 363.44 157.946C368.633 159.77 370.25 164.816 370.25 164.816C370.25 164.816 381.627 159.104 383.808 155.225C386.454 150.52 384.276 143.642 384.276 143.642C375.046 148.877 368.935 141.449 368.935 141.449Z" fill="#0E1A68"/>
<path d="M372.176 114.19C370.249 115.521 365.301 121.515 365.301 121.515C365.301 121.515 365.301 122.604 366.459 123.642C367.424 124.508 368.096 124.838 368.096 124.838L377.233 115.728C377.233 115.728 374.104 112.859 372.176 114.19Z" fill="#0E1A68"/>
<path d="M383.062 118.217C383.062 118.217 379.859 120.491 378.732 121.28C377.651 122.033 375.814 124.01 375.657 124.179C375.648 124.177 375.64 124.176 375.632 124.174C375.671 123.836 376.013 121.129 377.235 118.282C377.619 117.387 377.235 114.694 377.235 114.694C377.235 114.694 376.807 114.567 376.188 114.428C375.2 115.406 373.219 118.039 372.164 119.117C371.144 120.159 367.225 123.373 368.108 126.935C368.369 127.994 368.713 128.917 369.21 130.237C369.768 131.718 369.593 134.479 369.439 135.974C369.262 137.692 367.41 142.157 367.41 142.157C367.41 142.157 371.197 146.929 375.511 146.947C380.544 146.969 384.28 143.644 384.28 143.644C384.28 143.644 383.446 136.1 383.76 133.015C383.76 133.015 389.975 129.951 388.771 124.01C388.402 122.211 383.062 118.217 383.062 118.217Z" fill="#0E1A68"/>
<path d="M372.623 122.375C373.416 123.124 375.259 124.602 375.259 124.602L377.383 117.69L375.527 117.432C375.527 117.432 372.379 120.968 372.623 122.375Z" fill="#0E1A68"/>
<path d="M370.988 113.304C371.567 120.476 371.72 122.011 372.498 124.038C373.954 120.328 376.731 117.032 376.731 117.032L371.139 107.791C371.139 107.791 370.786 110.793 370.988 113.304Z" fill="#462712"/>
<path d="M300.013 150.348C300.579 146.061 301.069 142.359 306.729 145.578L309.51 147.16L313.805 149.603L316.586 151.185C322.246 154.404 322.734 158.662 323.301 163.593C323.816 168.07 324.983 181.043 324.994 181.175L323.855 180.478C323.842 180.348 322.7 167.645 322.188 163.197C321.579 157.89 321.086 155.225 316.586 152.666L313.805 151.084L309.51 148.641L306.729 147.059C302.228 144.5 301.736 146.603 301.126 151.216C300.615 155.084 299.478 166.477 299.468 166.595L298.32 166.004C298.331 165.884 299.499 154.239 300.013 150.348Z" fill="#5B68B7"/>
<path d="M299.468 166.593L297.766 167.571C297.766 167.571 298.016 159.615 298.322 156.635C298.628 153.655 300.04 146.967 300.04 146.967L300.715 147.491L299.468 166.593Z" fill="#5B68B7"/>
<path d="M323.289 182.154L324.992 181.175C324.992 181.175 323.027 166.439 322.691 164.188C322.355 161.937 321.144 156.638 321.144 156.638L319.262 157.102C319.262 157.102 320.673 160.488 320.875 162.768C321.077 165.049 323.289 182.154 323.289 182.154Z" fill="#5B68B7"/>
<path d="M298.31 151.326C298.876 147.039 299.366 143.338 305.026 146.557L307.807 148.139L312.102 150.582L314.883 152.164C320.543 155.383 321.031 159.64 321.598 164.572C322.113 169.048 323.28 182.021 323.291 182.153L322.151 181.456C322.139 181.326 320.996 168.624 320.485 164.175C319.876 158.869 319.383 156.204 314.883 153.645L312.102 152.063L307.807 149.62L305.026 148.038C300.525 145.479 300.032 147.582 299.423 152.194C298.912 156.061 297.775 167.456 297.764 167.573L296.617 166.982C296.628 166.863 297.797 155.219 298.31 151.326Z" fill="#0E1A68"/>
<path d="M283.119 159.881C283.686 155.594 284.174 151.893 289.834 155.112L292.615 156.694L296.91 159.136L299.691 160.718C305.351 163.938 305.839 168.195 306.407 173.126C306.921 177.603 308.089 190.576 308.1 190.708L306.96 190.011C306.948 189.881 305.805 177.179 305.294 172.73C304.684 167.423 304.192 164.76 299.691 162.199L296.91 160.617L292.615 158.175L289.834 156.593C285.334 154.034 284.841 156.136 284.232 160.751C283.72 164.618 282.584 176.012 282.573 176.13L281.426 175.539C281.437 175.418 282.604 163.772 283.119 159.881Z" fill="#5B68B7"/>
<path d="M282.571 176.129L280.867 177.107C280.867 177.107 281.117 169.151 281.424 166.171C281.73 163.191 283.141 156.503 283.141 156.503L283.816 157.027L282.571 176.129Z" fill="#5B68B7"/>
<path d="M306.395 191.687L308.097 190.708C308.097 190.708 306.132 175.972 305.796 173.721C305.461 171.47 304.25 166.171 304.25 166.171L302.367 166.635C302.367 166.635 303.779 170.021 303.981 172.301C304.183 174.582 306.395 191.687 306.395 191.687Z" fill="#5B68B7"/>
<path d="M281.414 160.861C281.98 156.575 282.469 152.873 288.129 156.092L290.91 157.674L295.206 160.117L297.987 161.699C303.646 164.918 304.135 169.176 304.702 174.107C305.217 178.583 306.384 191.557 306.395 191.688L305.255 190.991C305.243 190.861 304.1 178.159 303.589 173.71C302.98 168.404 302.487 165.739 297.987 163.18L295.206 161.598L290.91 159.155L288.129 157.573C283.629 155.014 283.136 157.117 282.527 161.731C282.016 165.598 280.879 176.992 280.868 177.109L279.723 176.517C279.734 176.398 280.901 164.753 281.414 160.861Z" fill="#0E1A68"/>
<path d="M305.556 167.307L327.025 155.193C327.025 155.193 310.502 147.621 306.395 144.359C302.288 141.097 298.964 133.948 298.321 119.339C298.206 116.737 298.501 112.739 297.764 111.795C296.176 110.904 276.09 123.49 276.09 123.49C276.09 123.49 277.484 141.471 278.905 146.969C280.326 152.467 284.537 156.556 291.483 160.326C298.428 164.094 305.556 167.307 305.556 167.307Z" fill="#293896"/>
<path d="M277.089 123.445C277.089 123.445 278.24 137.412 278.922 142.91C279.505 147.598 280.755 152.976 288.248 157.448C294.661 161.278 303.073 165.937 305.555 167.306V169.806C304.021 168.96 300.37 166.939 296.302 164.625C293.617 163.098 290.753 161.444 288.206 159.923C279.675 154.829 277.778 148.143 277.049 142.274C276.346 136.628 275.176 122.354 275.176 122.354L277.089 123.445Z" fill="#0E1A68"/>
<path d="M298.557 111.321C298.557 111.321 299.707 125.295 300.391 130.794C300.974 135.482 302.224 140.859 309.716 145.332L327.024 155.19V157.69C325.49 156.844 321.838 154.823 317.77 152.509C315.086 150.982 312.222 149.328 309.674 147.807C301.143 142.714 299.247 136.029 298.518 130.16C297.818 124.538 296.652 110.332 296.652 110.332L298.557 111.321Z" fill="#293896"/>
<path d="M296.668 110.188L298.597 111.322L277.103 123.488L275.176 122.356L296.668 110.188Z" fill="#5B68B7"/>
<path d="M327.024 157.692L305.555 169.806V167.306L327.024 155.192V157.692Z" fill="#5B68B7"/>
<path d="M341.964 210.516C350.888 210.516 358.123 206.841 358.123 202.307C358.123 197.774 350.888 194.099 341.964 194.099C333.039 194.099 325.805 197.774 325.805 202.307C325.805 206.841 333.039 210.516 341.964 210.516Z" fill="#0E1A68"/>
<path d="M358.125 200.382H325.809V202.739H358.125V200.382Z" fill="#0E1A68"/>
<path d="M341.964 208.84C350.888 208.84 358.123 205.165 358.123 200.632C358.123 196.098 350.888 192.423 341.964 192.423C333.039 192.423 325.805 196.098 325.805 200.632C325.805 205.165 333.039 208.84 341.964 208.84Z" fill="#5B68B7"/>
<path d="M341.965 198.39C342.999 198.39 343.837 197.564 343.837 196.546V147.966C343.837 146.948 342.999 146.122 341.965 146.122C340.932 146.122 340.094 146.948 340.094 147.966V196.546C340.094 197.564 340.932 198.39 341.965 198.39Z" fill="#0E1A68"/>
<path d="M341.965 179.477L389.656 152.225V154.899L341.965 182.151V179.477Z" fill="#0E1A68"/>
<path d="M341.976 179.477L294.285 152.225V154.899L341.976 182.151V179.477Z" fill="#0E1A68"/>
<path d="M389.656 152.225L342.169 125.156L294.285 152.225L341.976 179.472L389.656 152.225Z" fill="#5B68B7"/>
<path d="M362.055 126.264C361.645 126.704 359.829 129.093 358.62 130.989C356.959 133.591 355.848 135.867 355.678 136.392C355.237 137.761 354.284 140.325 354.901 141.467C355.518 142.61 358.108 144.091 359.058 141.518C359.541 140.211 359.167 137.387 359.367 136.998C359.826 136.109 363.042 132.125 363.812 131.286C364.583 130.445 368.043 126.621 368.043 126.621C368.043 126.621 368.265 125.252 368.097 124.84C366.461 123.644 365.517 122.354 365.517 122.354C365.517 122.354 363.16 125.077 362.055 126.264Z" fill="white"/>
<path d="M380.703 135.861C380.015 137.738 378.293 139.068 377.29 139.645C376.49 140.106 372.848 141.451 370.889 141.957C370.48 142.063 366.78 142.829 366.034 142.627C362.827 141.758 361.002 142.297 359.558 143.127C358.114 143.959 357.98 145.373 361.703 145.586C365.426 145.798 368.159 145.933 370.312 145.861C372.535 145.788 375.409 145.457 379.109 144.547C382.81 143.637 383.952 141.523 384.974 139.867C385.997 138.211 388.212 133.159 388.212 133.159L382.514 131.286C382.514 131.286 381.39 133.985 380.703 135.861Z" fill="white"/>
<path d="M376.887 115.089C376.887 115.089 376.776 118.15 376.147 119.757C375.652 120.441 375.077 122.647 375.256 124.601C376.302 124.082 378.062 122.428 379.063 121.576C380.274 120.546 383.442 118.533 383.442 118.533L383.335 109.464L376.887 115.089Z" fill="white"/>
<path d="M380.593 104.321C378.558 102.794 373.739 102.304 371.98 107.211C370.134 112.357 374.86 118.783 377.38 117.691C378.79 117.08 381.756 114.908 382.591 112.199C383.53 109.15 382.174 105.508 380.593 104.321Z" fill="white"/>
<path d="M379.701 119.637C376.991 122.412 375.258 124.602 375.258 124.602C375.258 124.602 376.121 125.202 379.334 125.473C381.936 123 384.171 121.488 385.076 119.831C385.031 119.074 383.421 116.667 383.421 116.667C383.421 116.667 381.44 117.857 379.701 119.637Z" fill="#0E1A68"/>
<path d="M380.517 101.493C377.599 100.309 375.592 101.326 372.842 103.818C371.188 105.317 370.43 107.084 370.43 109.888C370.43 109.888 374.677 112.875 377.232 113.395C378.417 113.637 380.055 112.942 381.014 112.478C381.128 113.764 381.282 115.224 381.241 115.916C380.702 125.078 380.226 128.145 380.226 128.145C380.226 128.145 381.041 128.125 382.191 126.122C382.818 125.032 384.142 123.495 385.117 119.969C385.642 118.068 386.321 108.482 384.795 105.71C383.952 104.179 381.972 102.084 380.517 101.493Z" fill="#462712"/>
<path d="M382.167 128.095C381.554 130.215 380.979 131.984 380.609 133.181C380.816 136.311 385.867 136.341 387.836 135.546C388.587 134.01 389.217 132.61 389.476 131.769C390.166 129.541 390.656 125.685 388.281 123.055C385.906 120.424 382.731 126.141 382.167 128.095Z" fill="#0E1A68"/>
<path d="M373.392 192.031C373.959 187.744 374.448 184.043 380.108 187.262L382.889 188.844L387.184 191.287L389.965 192.869C395.625 196.088 396.113 200.345 396.68 205.277C397.195 209.753 398.362 222.726 398.373 222.858L397.234 222.161C397.221 222.031 396.079 209.329 395.567 204.88C394.958 199.574 394.465 196.909 389.965 194.35L387.184 192.768L382.889 190.325L380.108 188.743C375.607 186.184 375.114 188.287 374.505 192.901C373.994 196.768 372.857 208.162 372.846 208.279L371.699 207.687C371.71 207.568 372.878 195.923 373.392 192.031Z" fill="#5B68B7"/>
<path d="M372.843 208.279L371.141 209.258C371.141 209.258 371.391 201.302 371.697 198.322C372.003 195.341 373.415 188.653 373.415 188.653L374.09 189.177L372.843 208.279Z" fill="#5B68B7"/>
<path d="M396.668 223.837L398.371 222.859C398.371 222.859 396.406 208.123 396.07 205.871C395.734 203.62 394.523 198.321 394.523 198.321L392.641 198.785C392.641 198.785 394.052 202.171 394.254 204.452C394.456 206.732 396.668 223.837 396.668 223.837Z" fill="#5B68B7"/>
<path d="M371.689 193.012C372.255 188.725 372.744 185.023 378.404 188.243L381.185 189.825L385.481 192.267L388.262 193.849C393.921 197.068 394.41 201.326 394.977 206.257C395.492 210.734 396.659 223.707 396.67 223.839L395.53 223.142C395.518 223.012 394.375 210.31 393.864 205.861C393.255 200.554 392.762 197.889 388.262 195.33L385.481 193.748L381.185 191.305L378.404 189.724C373.904 187.164 373.411 189.267 372.802 193.88C372.291 197.748 371.154 209.141 371.143 209.259L369.996 208.668C370.007 208.548 371.174 196.903 371.689 193.012Z" fill="#0E1A68"/>
<path d="M373.684 185.769L390.292 195.215C396.292 198.628 398.462 198.302 400.388 193.706C402.167 189.461 407.466 175.727 408.32 173.439L406.24 172.255C406.182 172.405 400.454 187.524 398.686 191.743C397.073 195.595 395.583 195.777 390.292 192.767L373.684 183.321V185.769Z" fill="#293896"/>
<path d="M356.498 201.564C357.063 197.278 357.553 193.576 363.213 196.795L365.994 198.377L370.289 200.82L373.07 202.402C378.73 205.621 379.218 209.879 379.786 214.81C380.3 219.287 381.468 232.261 381.478 232.391L380.337 231.695C380.325 231.564 379.182 218.862 378.671 214.413C378.062 209.107 377.569 206.444 373.069 203.883L370.288 202.301L365.992 199.858L363.211 198.276C358.711 195.717 358.218 197.82 357.609 202.433C357.098 206.301 355.961 217.694 355.95 217.812L354.805 217.221C354.816 217.103 355.985 205.457 356.498 201.564Z" fill="#5B68B7"/>
<path d="M355.952 217.812L354.25 218.791C354.25 218.791 354.5 210.835 354.807 207.854C355.113 204.874 356.524 198.185 356.524 198.185L357.199 198.708L355.952 217.812Z" fill="#5B68B7"/>
<path d="M379.772 233.37L381.476 232.392C381.476 232.392 379.511 217.656 379.175 215.405C378.84 213.153 377.629 207.854 377.629 207.854L375.746 208.319C375.746 208.319 377.158 211.705 377.36 213.985C377.56 216.265 379.772 233.37 379.772 233.37Z" fill="#5B68B7"/>
<path d="M354.794 202.545C355.36 198.258 355.85 194.557 361.51 197.776L364.291 199.358L368.586 201.8L371.367 203.382C377.027 206.602 377.515 210.859 378.082 215.79C378.597 220.267 379.764 233.24 379.775 233.372L378.636 232.675C378.623 232.545 377.481 219.843 376.969 215.394C376.36 210.087 375.867 207.423 371.367 204.863L368.586 203.281L364.291 200.839L361.51 199.257C357.01 196.698 356.517 198.8 355.907 203.415C355.396 207.282 354.26 218.676 354.249 218.794L353.102 218.203C353.112 218.082 354.28 206.436 354.794 202.545Z" fill="#0E1A68"/>
<path d="M352.188 195.487L373.68 183.321L384.503 189.475C384.503 189.475 378.616 206.836 376.253 207.462C370.004 209.117 352.188 195.487 352.188 195.487Z" fill="#5B68B7"/>
<path d="M398.021 197.046L376.258 209.405C376.258 209.405 380.98 197.523 382.541 193.773C384.1 190.024 386.252 184.422 386.252 184.422L407.202 173.347L398.021 197.046Z" fill="#293896"/>
<path d="M352.189 197.935L368.797 207.381C374.798 210.794 376.968 210.468 378.894 205.872C380.672 201.627 385.972 187.893 386.823 185.605L384.743 184.421C384.686 184.571 378.958 199.69 377.19 203.909C375.577 207.761 374.086 207.943 368.796 204.934L352.188 195.487V197.935H352.189Z" fill="#0E1A68"/>
<path d="M406.239 172.255L408.319 173.439L386.826 185.605L384.746 184.421L406.239 172.255Z" fill="#5B68B7"/>
<path d="M311.039 187.778C310.474 183.492 309.984 179.79 304.324 183.009L301.543 184.591L297.248 187.034L294.467 188.616C288.807 191.835 288.319 196.093 287.751 201.024C287.237 205.5 286.069 218.475 286.059 218.605L287.198 217.908C287.21 217.778 288.353 205.076 288.864 200.627C289.474 195.321 289.967 192.656 294.467 190.097L297.248 188.515L301.543 186.072L304.324 184.49C308.824 181.929 309.317 184.034 309.926 188.647C310.438 192.515 311.574 203.908 311.585 204.026L312.732 203.434C312.721 203.315 311.554 191.67 311.039 187.778Z" fill="#5B68B7"/>
<path d="M311.589 204.026L313.293 205.005C313.293 205.005 313.042 197.049 312.736 194.069C312.43 191.088 311.018 184.4 311.018 184.4L310.344 184.924L311.589 204.026Z" fill="#5B68B7"/>
<path d="M287.766 219.583L286.062 218.605C286.062 218.605 288.027 203.869 288.363 201.618C288.699 199.366 289.91 194.067 289.91 194.067L291.792 194.531C291.792 194.531 290.381 197.917 290.179 200.198C289.977 202.478 287.766 219.583 287.766 219.583Z" fill="#5B68B7"/>
<path d="M312.747 188.759C312.181 184.472 311.691 180.77 306.031 183.99L303.25 185.572L298.955 188.014L296.174 189.596C290.514 192.815 290.026 197.073 289.459 202.004C288.944 206.481 287.777 219.454 287.766 219.586L288.905 218.889C288.918 218.759 290.06 206.057 290.572 201.608C291.181 196.301 291.674 193.636 296.174 191.077L298.955 189.495L303.25 187.053L306.031 185.471C310.531 182.911 311.024 185.014 311.634 189.627C312.145 193.495 313.281 204.888 313.292 205.006L314.439 204.415C314.428 204.295 313.261 192.65 312.747 188.759Z" fill="#0E1A68"/>
<path d="M310.752 181.516L294.143 190.962C288.143 194.374 285.973 194.049 284.047 189.453C282.268 185.208 276.969 171.474 276.117 169.186L278.197 168.002C278.255 168.152 283.983 183.271 285.75 187.49C287.364 191.34 288.853 191.524 294.145 188.515L310.753 179.068V181.516H310.752Z" fill="#293896"/>
<path d="M327.938 197.311C327.372 193.025 326.882 189.323 321.222 192.542L318.441 194.124L314.146 196.567L311.365 198.149C305.705 201.368 305.217 205.626 304.65 210.557C304.135 215.034 302.968 228.007 302.957 228.138L304.096 227.442C304.109 227.311 305.251 214.609 305.761 210.16C306.371 204.854 306.863 202.189 311.364 199.63L314.145 198.048L318.44 195.605L321.221 194.023C325.721 191.464 326.214 193.567 326.823 198.18C327.335 202.048 328.471 213.441 328.482 213.559L329.629 212.968C329.62 212.85 328.452 201.204 327.938 197.311Z" fill="#5B68B7"/>
<path d="M328.485 213.559L330.187 214.538C330.187 214.538 329.937 206.582 329.631 203.601C329.324 200.621 327.913 193.932 327.913 193.932L327.238 194.455L328.485 213.559Z" fill="#5B68B7"/>
<path d="M304.659 229.117L302.957 228.139C302.957 228.139 304.922 213.403 305.258 211.152C305.593 208.9 306.804 203.602 306.804 203.602L308.687 204.066C308.687 204.066 307.275 207.452 307.073 209.732C306.871 212.012 304.659 229.117 304.659 229.117Z" fill="#5B68B7"/>
<path d="M329.641 198.292C329.075 194.005 328.586 190.304 322.926 193.523L320.145 195.105L315.849 197.548L313.068 199.13C307.409 202.349 306.92 206.606 306.353 211.538C305.838 216.014 304.671 228.989 304.66 229.119L305.8 228.422C305.812 228.292 306.955 215.59 307.466 211.141C308.075 205.834 308.568 203.17 313.068 200.611L315.849 199.028L320.145 196.586L322.926 195.004C327.426 192.445 327.919 194.547 328.528 199.16C329.039 203.027 330.176 214.421 330.187 214.539L331.334 213.948C331.321 213.829 330.154 202.183 329.641 198.292Z" fill="#0E1A68"/>
<path d="M332.246 191.234L310.752 179.068L299.93 185.222C299.93 185.222 305.817 202.584 308.179 203.209C314.432 204.865 332.246 191.234 332.246 191.234Z" fill="#5B68B7"/>
<path d="M286.414 192.791L308.177 205.15C308.177 205.15 303.454 193.268 301.893 189.519C300.334 185.77 298.183 180.167 298.183 180.167L277.234 169.092L286.414 192.791Z" fill="#293896"/>
<path d="M332.245 193.682L315.637 203.128C309.637 206.542 307.466 206.215 305.54 201.619C303.762 197.374 298.463 183.64 297.609 181.352L299.689 180.168C299.747 180.318 305.475 195.437 307.243 199.656C308.856 203.508 310.347 203.69 315.637 200.681L332.245 191.234V193.682Z" fill="#0E1A68"/>
<path d="M278.196 168.002L276.117 169.186L297.61 181.352L299.69 180.168L278.196 168.002Z" fill="#5B68B7"/>
<path d="M331.716 143.566V134.258C331.716 132.328 330.114 130.749 328.155 130.749C326.196 130.749 324.594 132.328 324.594 134.258V143.566H331.716Z" fill="white"/>
<path d="M328.155 145.012C330.122 145.012 331.716 144.276 331.716 143.369C331.716 142.461 330.122 141.726 328.155 141.726C326.188 141.726 324.594 142.461 324.594 143.369C324.594 144.276 326.188 145.012 328.155 145.012Z" fill="white"/>
<path d="M326.543 130.513V131.459C326.543 131.87 327.264 132.203 328.153 132.203C329.044 132.203 329.764 131.871 329.764 131.459V130.513H326.543Z" fill="#5B68B7"/>
<path d="M328.16 129.567H326.109V130.514C326.109 131.036 327.027 131.46 328.158 131.46C329.29 131.46 330.207 131.038 330.207 130.514V129.567H328.16Z" fill="#0E1A68"/>
<path d="M330.207 129.568C330.207 130.09 329.29 130.514 328.158 130.514C327.027 130.514 326.109 130.091 326.109 129.568C326.109 129.045 327.027 128.621 328.158 128.621C329.29 128.621 330.207 129.045 330.207 129.568Z" fill="#0E1A68"/>
<path d="M331.746 134.977C331.746 135.817 330.268 136.5 328.446 136.5C328.413 136.5 328.023 136.499 327.99 136.499C327.958 136.499 327.925 136.5 327.894 136.5C326.071 136.5 324.594 135.819 324.594 134.977V137.637L324.597 140.75C324.595 140.766 324.594 140.781 324.594 140.796C324.594 141.637 326.072 142.32 327.894 142.32C327.927 142.32 327.99 142.318 327.99 142.318C327.99 142.318 328.413 142.32 328.446 142.32C330.269 142.32 331.746 141.638 331.746 140.796C331.746 140.781 331.744 140.766 331.743 140.75L331.746 137.637V134.977Z" fill="#0E1A68"/>
<path d="M352.326 166.04C358.644 166.04 363.766 163.356 363.766 160.046C363.766 156.735 358.644 154.052 352.326 154.052C346.008 154.052 340.887 156.735 340.887 160.046C340.887 163.356 346.008 166.04 352.326 166.04Z" fill="#BBD2E9"/>
<path d="M352.278 165.397C346.445 165.397 341.699 163.004 341.699 160.06C341.699 157.117 346.445 154.725 352.278 154.725C358.112 154.725 362.858 157.118 362.858 160.06C362.858 163.002 358.112 165.397 352.278 165.397ZM352.278 154.973C346.583 154.973 341.951 157.256 341.951 160.06C341.951 162.866 346.583 165.149 352.278 165.149C357.973 165.149 362.606 162.866 362.606 160.06C362.606 157.256 357.973 154.973 352.278 154.973Z" fill="#5B68B7"/>
<path d="M352.301 157.272C355.713 157.272 358.487 158.64 358.815 160.383C358.836 160.271 358.88 160.161 358.88 160.046C358.88 158.142 355.934 156.599 352.301 156.599C348.668 156.599 345.723 158.142 345.723 160.046C345.723 160.161 345.766 160.271 345.788 160.383C346.116 158.64 348.889 157.272 352.301 157.272Z" fill="#5B68B7"/>
<path d="M352.302 163.493C355.715 163.493 358.488 162.126 358.816 160.383C358.488 158.64 355.715 157.272 352.302 157.272C348.89 157.272 346.117 158.64 345.789 160.383C346.117 162.126 348.89 163.493 352.302 163.493Z" fill="white"/>
<path d="M341.219 163.299C341.219 163.299 345.248 159.902 352.209 156.384C359.17 152.867 362.211 151.499 362.211 151.499C362.211 151.499 356.52 154.752 351.713 157.392C349.128 158.812 341.219 163.299 341.219 163.299Z" fill="#0E1A68"/>
<path d="M354.589 157.473C355.803 157.473 356.787 156.503 356.787 155.307C356.787 154.111 355.803 153.142 354.589 153.142C353.375 153.142 352.391 154.111 352.391 155.307C352.391 156.503 353.375 157.473 354.589 157.473Z" fill="#0E1A68"/>
<path d="M350.242 157.211C350.242 157.211 350.233 154.419 351.714 154.422C354.178 154.426 355.691 155.74 354.156 157.895C353.031 159.473 351.301 159.486 350.242 157.211Z" fill="#5B68B7"/>
<path d="M350.311 159.806C351.525 159.806 352.509 158.836 352.509 157.64C352.509 156.444 351.525 155.475 350.311 155.475C349.097 155.475 348.113 156.444 348.113 157.64C348.113 158.836 349.097 159.806 350.311 159.806Z" fill="#0E1A68"/>
<path d="M345.483 159.059C345.483 159.059 345.144 157.052 346.918 156.618C348.691 156.185 350.199 157.718 350.311 158.86C350.473 160.485 350.142 161.528 348.113 161.458C346.085 161.386 345.687 160.393 345.483 159.059Z" fill="white"/>
<path d="M348.838 160.135C348.838 161.331 347.854 162.301 346.639 162.301C345.425 162.301 344.441 161.331 344.441 160.135C344.441 158.939 345.425 157.97 346.639 157.97C347.854 157.97 348.838 158.939 348.838 160.135Z" fill="#0E1A68"/>
<path d="M345.238 165.35C345.238 165.35 349.268 161.953 356.229 158.435C363.19 154.917 366.23 153.55 366.23 153.55C366.23 153.55 360.539 156.803 355.733 159.443C353.149 160.863 345.238 165.35 345.238 165.35Z" fill="#0E1A68"/>
<path d="M360.806 157.355C360.806 158.551 359.822 159.52 358.608 159.52C357.394 159.52 356.41 158.551 356.41 157.355C356.41 156.159 357.394 155.189 358.608 155.189C359.822 155.189 360.806 156.159 360.806 157.355Z" fill="#0E1A68"/>
<path d="M354.262 159.26C354.262 159.26 354.252 156.468 355.734 156.471C358.198 156.477 359.71 157.789 358.176 159.944C357.052 161.522 355.32 161.535 354.262 159.26Z" fill="#5B68B7"/>
<path d="M354.331 161.855C355.545 161.855 356.529 160.886 356.529 159.69C356.529 158.494 355.545 157.524 354.331 157.524C353.117 157.524 352.133 158.494 352.133 159.69C352.133 160.886 353.117 161.855 354.331 161.855Z" fill="#0E1A68"/>
<path d="M349.502 161.109C349.502 161.109 349.164 159.101 350.937 158.668C352.711 158.235 354.219 159.768 354.332 160.91C354.492 162.535 354.163 163.578 352.134 163.507C350.106 163.435 349.706 162.443 349.502 161.109Z" fill="white"/>
<path d="M350.659 164.352C351.873 164.352 352.857 163.382 352.857 162.186C352.857 160.99 351.873 160.021 350.659 160.021C349.445 160.021 348.461 160.99 348.461 162.186C348.461 163.382 349.445 164.352 350.659 164.352Z" fill="#0E1A68"/>
<path d="M355.945 146.267C355.945 149.407 351.089 151.951 345.1 151.951C339.11 151.951 334.254 149.405 334.254 146.267C334.254 143.128 339.11 140.584 345.1 140.584C351.091 140.584 355.945 143.129 355.945 146.267Z" fill="#BBD2E9"/>
<path d="M345.053 151.341C339.524 151.341 335.023 149.071 335.023 146.281C335.023 143.49 339.524 141.221 345.053 141.221C350.584 141.221 355.084 143.49 355.084 146.281C355.084 149.071 350.584 151.341 345.053 151.341ZM345.053 141.457C339.654 141.457 335.263 143.621 335.263 146.281C335.263 148.941 339.656 151.105 345.053 151.105C350.452 151.105 354.845 148.941 354.845 146.281C354.845 143.621 350.453 141.457 345.053 141.457Z" fill="#5B68B7"/>
<path d="M345.079 143.638C348.314 143.638 350.944 144.933 351.255 146.587C351.275 146.48 351.317 146.377 351.317 146.267C351.317 144.462 348.525 142.999 345.08 142.999C341.636 142.999 338.844 144.463 338.844 146.267C338.844 146.376 338.886 146.48 338.906 146.587C339.214 144.935 341.842 143.638 345.079 143.638Z" fill="#5B68B7"/>
<path d="M345.078 149.535C348.313 149.535 350.944 148.24 351.254 146.587C350.944 144.935 348.315 143.638 345.078 143.638C341.843 143.638 339.213 144.933 338.902 146.587C339.213 148.24 341.842 149.535 345.078 149.535Z" fill="white"/>
<path d="M343.947 142.999C343.947 144.096 343.046 144.984 341.933 144.984C340.82 144.984 339.918 144.096 339.918 142.999C339.918 141.903 340.82 141.015 341.933 141.015C343.046 141.015 343.947 141.904 343.947 142.999Z" fill="#5B68B7"/>
<path d="M346.913 145.19C348.026 145.19 348.928 144.302 348.928 143.206C348.928 142.109 348.026 141.221 346.913 141.221C345.8 141.221 344.898 142.109 344.898 143.206C344.898 144.302 345.8 145.19 346.913 145.19Z" fill="#5B68B7"/>
<path d="M344.9 145.511C344.9 146.608 343.999 147.496 342.886 147.496C341.773 147.496 340.871 146.608 340.871 145.511C340.871 144.416 341.773 143.526 342.886 143.526C343.999 143.526 344.9 144.416 344.9 145.511Z" fill="#0E1A68"/>
<path d="M346.233 148.179C347.346 148.179 348.248 147.29 348.248 146.194C348.248 145.098 347.346 144.209 346.233 144.209C345.121 144.209 344.219 145.098 344.219 146.194C344.219 147.29 345.121 148.179 346.233 148.179Z" fill="#0E1A68"/>
<path d="M353.326 144.58C353.326 145.675 352.425 146.564 351.312 146.564C350.199 146.564 349.297 145.676 349.297 144.58C349.297 143.483 350.199 142.595 351.312 142.595C352.425 142.595 353.326 143.483 353.326 144.58Z" fill="#0E1A68"/>
<path d="M340.916 146.184C340.916 147.281 340.014 148.169 338.901 148.169C337.788 148.169 336.887 147.281 336.887 146.184C336.887 145.087 337.788 144.199 338.901 144.199C340.014 144.199 340.916 145.087 340.916 146.184Z" fill="#5B68B7"/>
<path d="M345.963 148.178C345.963 149.273 345.061 150.163 343.948 150.163C342.837 150.163 341.934 149.275 341.934 148.178C341.934 147.082 342.835 146.193 343.948 146.193C345.061 146.195 345.963 147.083 345.963 148.178Z" fill="#5B68B7"/>
<path d="M351.31 147.261C351.234 148.355 350.273 149.18 349.163 149.107C348.053 149.033 347.215 148.085 347.29 146.992C347.366 145.898 348.327 145.073 349.437 145.146C350.546 145.22 351.384 146.168 351.31 147.261Z" fill="#5B68B7"/>
<path d="M199.051 204.939L200.01 205.104L201.033 207.106L200.714 208.881C200.714 208.881 200.607 209.356 200.927 209.996C201.055 210.244 201.289 210.657 201.289 210.657C201.289 210.657 201.31 212.473 199.989 212.019C199.562 211.874 199.264 211.503 199.264 211.503C198.688 211.379 197.729 211.07 197.089 210.904C195.619 210.512 196.066 208.716 196.066 208.716L196.343 206.941C196.492 205.95 197.281 204.918 199.008 204.918L199.051 204.939Z" fill="white"/>
<path d="M196.616 203.681L196.702 206.447L200.134 206.777L200.262 205.002L196.616 203.681Z" fill="#E7C4AB"/>
<path d="M199.032 206.485C198.882 207.373 199.948 208.198 200.737 208.343C201.014 208.405 200.822 210.944 202.208 210.799C202.208 210.799 202.315 210.221 202.443 209.189C202.443 209.106 202.72 208.26 202.315 207.558C201.228 205.659 201.121 205.329 200.332 205.184C199.543 205.019 199.16 205.597 199.01 206.506L199.032 206.485Z" fill="white"/>
<path d="M243.114 195.422C242.581 196.269 242.539 196.805 242.539 196.805C242.539 196.805 241.729 197.507 241.047 197.28C237.465 196.104 229.407 194.493 224.099 190.922C220.88 188.755 216.659 177.339 216.659 177.339C216.659 177.339 215.103 175.997 218.279 172.984C220.603 170.775 226.358 169.908 226.742 172.818C226.998 174.738 228.469 184.213 230.089 185.72C233.223 188.631 243.669 192.408 243.669 192.408C243.669 192.408 244.713 192.883 243.093 195.422H243.114Z" fill="#0E1A68"/>
<path d="M211.732 252.17C211.732 252.17 212.286 253.306 211.54 255.04C211.54 255.04 210.644 255.68 210.495 255.824C209.664 256.588 206.871 260.655 204.377 260.758C201.648 260.882 201.478 258.92 201.776 257.702C201.926 257.083 205.081 250.457 205.081 250.457L211.71 252.191L211.732 252.17Z" fill="#282827"/>
<path d="M230.217 243.252C230.217 243.252 231.389 245.254 232.221 245.605C233.969 246.328 239.021 247.711 239.49 247.876C239.81 247.979 240.321 248.33 240.3 248.846C240.3 249.053 240.3 249.177 240.151 249.362C239.661 250.023 238.616 250.27 237.678 250.477C235.098 251.055 227.531 249.527 227.296 249.362C227.296 249.362 226.529 249.218 226.337 249.569C226.273 249.693 226.316 250.188 226.294 250.188L223.566 249.362C223.438 249.3 223.161 248.103 223.075 247.566L223.182 244.098L230.238 243.231L230.217 243.252Z" fill="#221E20"/>
<path d="M240.172 249.073C239.511 249.837 238.552 250.105 237.592 250.291C234.48 250.869 227.21 249.238 227.21 249.238C226.592 249.156 226.336 249.362 226.294 249.713V250.188C226.294 250.188 227.168 249.651 227.146 249.651C227.146 249.651 233.989 251.262 237.038 250.952C237.997 250.849 239.639 250.312 240.193 249.507C240.3 249.362 240.406 249.011 240.3 248.764C240.3 248.805 240.193 249.032 240.172 249.073Z" fill="#282827"/>
<path d="M230.324 202.604L231.262 243.621C231.304 244.983 232.221 245.396 232.178 245.561C231.731 247.873 223.587 248.534 222.777 246.8L219.75 202.748L230.302 202.624L230.324 202.604Z" fill="#0E1A68"/>
<path d="M223.848 204.34L222.206 214.331L212.464 252.128C212.357 252.933 211.91 253.181 211.121 253.346C206.623 254.399 204.789 252.934 204.789 252.934C203.937 252.541 203.979 251.901 203.958 251.53L209.629 202.503L223.826 204.32L223.848 204.34Z" fill="#0E1A68"/>
<path d="M205.706 174.284C205.706 174.284 206.068 173.024 210.353 172.199C211.461 171.992 216.748 170.96 220.905 170.155C223.954 169.557 227.088 171.022 228.004 173.768C228.111 174.098 228.217 174.428 228.345 174.8C228.473 175.192 231.266 181.674 230.477 202.379C230.413 204.402 226.214 205.682 221.119 205.537C216.919 205.413 210.353 203.844 210.353 203.844C210.353 203.844 209.692 203.906 209.415 202.626C208.605 198.849 209.245 194.41 208.712 191.52C207.838 186.896 205.706 174.325 205.706 174.325V174.284Z" fill="#293896"/>
<path d="M215.529 161.278C216.979 161.382 217.043 162.661 217.043 162.661L216.83 165.324C216.83 165.324 216.723 165.902 216.169 165.964C215.338 166.067 215.039 165.386 214.719 164.622C214.719 164.581 214.314 163.467 214.293 163.405C213.952 162.476 214.165 161.175 215.529 161.258V161.278Z" fill="#FCE6D9"/>
<path d="M219.474 175.958C217.044 178.827 214.976 174.74 212.887 172.985L212.61 164.79L219.986 165.987L220.156 170.219L219.474 175.958Z" fill="white"/>
<path d="M214.682 156.716L209.523 158.698L213.275 167.306C213.616 167.863 214 168.627 214.81 168.998C215.385 169.267 215.79 169.329 216.856 169.494C216.856 169.494 220.843 169.742 222.463 168.379C223.124 167.822 223.017 166.831 223.017 166.212C223.017 165.489 222.612 163.466 222.442 162.95L221.312 158.574L220.075 155.209L214.661 156.737L214.682 156.716Z" fill="white"/>
<path d="M219.282 153.702C220.604 154.486 220.646 155.622 221.073 157.356C221.222 157.996 221.243 158.512 221.286 158.512C221.328 158.512 220.945 157.748 220.71 157.046C220.113 155.333 219.069 155.869 218.344 156.241C218.323 156.241 215.125 157.851 215.125 157.872C215.125 157.954 215.168 156.633 214.997 156.798C214.23 157.562 213.995 157.954 213.803 158.986C213.611 160.122 214.123 162.31 214.507 163.053L214.848 163.796C215.018 164.188 215.168 164.478 215.082 164.498C214.741 164.622 214.08 164.415 213.782 164.044C213.782 164.044 212.865 163.177 211.778 163.776C210.84 164.292 212.545 166.129 212.652 166.232L212.844 166.872C212.929 167.326 212.887 168.647 212.439 168.214C211.671 167.45 209.987 165.819 209.476 165.365C204.018 160.452 206.598 153.062 214.315 153C215.978 153 218.983 153.516 219.303 153.702H219.282Z" fill="#312312"/>
<path d="M211.715 163.444C213.058 162.949 213.74 164.063 213.74 164.063L215.019 165.839C215.019 165.839 215.168 166.603 214.721 166.892C214.017 167.325 213.889 167.284 213.079 167.015C212.589 166.85 211.736 166.21 211.693 166.169C210.947 165.467 210.478 163.94 211.736 163.465L211.715 163.444Z" fill="white"/>
<path d="M243.418 192.428C243.418 192.428 244.228 192.366 244.377 192.758C244.526 193.15 244.74 194.059 243.78 195.834C243.439 196.474 242.821 196.969 242.672 197.114C242.416 197.32 241.776 197.692 241.435 197.486C241.201 197.341 240.988 197.073 240.924 196.371C240.774 194.864 241.798 193.254 242.203 193.006C242.608 192.779 243.439 192.407 243.439 192.407L243.418 192.428Z" fill="#0E1A68"/>
<path d="M242.862 194.165L243.48 193.298L246.251 193.174L248.17 194.247C248.17 194.247 248.682 194.557 249.556 194.515C249.897 194.515 250.494 194.454 250.494 194.454C250.494 194.454 252.604 195.217 251.517 196.291C251.154 196.642 250.6 196.766 250.6 196.766C250.217 197.282 249.428 198.066 248.959 198.603C247.85 199.862 245.974 198.644 245.974 198.644L244.034 197.612C242.926 197.034 242.073 195.837 242.841 194.165H242.862Z" fill="white"/>
<path d="M240.327 195.36L243.546 196.31L244.484 192.821L242.736 192.347L240.327 195.36Z" fill="white"/>
<path d="M243.926 192.45C243.926 192.45 242.647 192.161 241.602 194.225C241.048 195.319 240.92 196.145 240.963 196.785C241.005 197.28 241.432 197.487 241.432 197.487L240.451 197.094C240.451 197.094 239.79 196.352 240.366 194.7C241.197 192.244 243.052 192.202 243.052 192.202L243.904 192.45H243.926Z" fill="white"/>
<path d="M244.652 194.845C245.611 195.382 246.911 194.597 247.551 193.998C247.785 193.771 247.977 193.648 249.043 194.184C249.768 194.556 251.004 194.453 251.047 193.627C251.047 193.627 250.45 193.317 249.235 192.636C249.15 192.595 248.361 191.852 247.338 191.934C244.673 192.161 244.204 192.616 243.735 193.152C243.33 193.627 243.671 194.308 244.652 194.845Z" fill="white"/>
<path d="M197.367 206.837C196.343 206.528 196.152 206.115 196.152 206.115C196.152 206.115 196.748 194.637 198.518 188.919C200.692 181.901 204.444 175.811 204.444 175.811C204.743 175.44 206.597 171.662 208.964 173.499C211.053 175.13 210.861 180.559 209.838 181.55C209.305 182.045 208.218 187.701 206.576 190.653C203.08 196.908 202.035 206.486 202.035 206.486C202.035 206.486 200.543 207.787 197.367 206.837Z" fill="#293896"/>
<path d="M398.491 364.337L299.693 304.889C292.742 300.701 293.607 293.401 301.645 288.566L435.537 208C443.562 203.165 455.708 202.639 462.66 206.828L561.457 266.276C568.409 270.465 567.544 277.764 559.506 282.599L425.614 363.166C417.589 368.001 405.443 368.526 398.491 364.337Z" fill="#CAE5FF"/>
<g opacity="0.13" style="mix-blend-mode:multiply">
<path d="M408.057 297.593C408.057 297.593 395.677 288.243 390.497 289.253C385.317 290.263 381.147 293.423 385.567 298.603C388.757 302.343 395.307 304.543 396.817 304.793C401.997 305.673 404.647 313.383 407.557 312.753C410.467 312.123 415.257 302.863 408.067 297.593H408.057Z" fill="#293896"/>
</g>
<path d="M397.34 254.713C397.34 254.713 400.07 251.403 402.83 253.473C405.58 255.533 400.58 258.033 404.78 258.713C404.78 258.713 405.44 260.063 402.45 260.623C399.46 261.173 398.87 258.813 398.77 257.303C398.63 255.203 397.34 254.723 397.34 254.723V254.713Z" fill="#110300"/>
<path d="M398.637 254.253C398.637 254.253 398.616 254.133 398.606 254.013C398.536 253.393 398.366 251.833 397.856 252.173C397.236 252.583 395.897 254.383 397.197 254.633C398.487 254.883 397.906 255.593 398.736 256.323C399.566 257.053 401.247 255.503 400.937 254.983C400.627 254.453 399.136 254.023 398.646 254.253H398.637Z" fill="#0E1A68"/>
<path d="M397.718 270.893C399.568 274.223 401.218 282.743 401.218 282.743L399.178 286.413L394.698 274.463L394.348 269.423C394.348 269.423 397.268 270.083 397.718 270.893Z" fill="white"/>
<path d="M408.778 283.193C408.778 283.193 407.088 283.653 405.888 283.573C404.678 283.493 403.978 284.143 403.728 284.633C403.478 285.123 401.158 288.333 401.188 288.533C401.218 288.743 402.448 289.283 402.918 289.563C403.918 290.163 405.918 288.333 406.348 287.053C406.608 286.303 406.638 286.583 407.098 284.793C407.468 283.373 408.778 283.183 408.778 283.183V283.193Z" fill="#0E1A68"/>
<path d="M397.717 286.433L408.297 282.943C408.297 282.943 412.037 283.433 411.157 286.723C410.607 288.763 407.697 297.093 407.647 297.183C406.517 299.093 403.667 295.853 403.667 295.853C403.667 295.853 404.157 294.733 404.277 292.253C404.407 289.633 406.527 286.853 406.527 286.853C406.527 286.853 400.357 292.133 398.777 290.283C396.707 287.853 396.887 286.983 396.887 286.983L397.727 286.433H397.717Z" fill="white"/>
<path d="M390.627 285.993L387.167 297.923C387.167 297.923 386.437 299.953 389.707 301.123C394.947 303.003 402.207 304.693 402.207 304.693C402.207 304.693 403.137 308.853 404.467 310.253C405.017 310.833 406.607 311.293 406.257 309.623C405.837 307.573 406.117 302.823 406.117 302.823C406.117 302.823 406.327 300.823 404.517 300.893C403.887 300.923 403.447 301.163 403.137 301.223C402.637 301.323 402.197 301.073 402.197 301.073C402.197 301.073 397.137 297.833 395.437 297.183C394.677 296.893 394.407 296.793 394.407 296.793L394.617 288.733L390.627 286.003V285.993Z" fill="white"/>
<path d="M403.438 289.673C403.438 289.673 402.488 288.483 404.768 285.603C406.588 283.303 408.418 282.993 408.418 282.993C408.418 282.993 406.898 282.743 403.918 283.453C401.078 284.123 398.328 284.733 398.328 284.733C398.328 284.733 394.228 290.633 394.948 292.123C395.208 292.653 403.448 289.673 403.448 289.673H403.438Z" fill="#0E1A68"/>
<path d="M387.18 298.933C387.18 298.933 387.25 294.463 391.54 294.413C393.97 294.383 393.67 295.243 393.67 295.243C393.67 295.243 394.36 291.843 394.61 290.823C396.15 284.693 400.6 285.673 400.6 285.673C400.6 285.673 387.32 281.923 385.96 283.223C384.6 284.533 385.58 293.053 385.89 295.073C386.29 297.683 387.18 298.923 387.18 298.923V298.933Z" fill="#0E1A68"/>
<path d="M393.149 289.763C393.659 290.023 393.679 290.463 393.209 290.753C392.739 291.043 391.949 291.083 391.439 290.823C390.929 290.573 390.909 290.123 391.369 289.833C391.839 289.543 392.639 289.503 393.139 289.763H393.149Z" fill="#293896"/>
<path d="M392.829 288.912L392.849 290.182C392.849 290.262 392.849 290.352 392.739 290.412C392.529 290.542 392.169 290.552 391.939 290.432C391.829 290.372 391.769 290.292 391.759 290.212L391.699 288.932C391.699 289.012 391.769 289.092 391.879 289.152C392.099 289.272 392.459 289.262 392.669 289.132C392.769 289.072 392.829 288.982 392.829 288.902V288.912Z" fill="#293896"/>
<path d="M392.648 288.693C392.868 288.813 392.888 289.013 392.668 289.143C392.458 289.273 392.098 289.283 391.878 289.163C391.648 289.043 391.648 288.843 391.858 288.723C392.068 288.593 392.428 288.583 392.648 288.693Z" fill="#293896"/>
<path d="M395.588 267.993C396.828 269.773 397.238 272.303 396.788 275.933C396.538 277.913 395.688 284.563 398.628 284.903C398.788 284.923 399.238 285.403 398.328 287.963C396.818 292.223 392.098 290.673 390.658 291.293C389.098 291.963 385.228 292.543 385.228 292.543C385.098 292.403 384.918 289.503 384.838 287.603C384.568 281.183 383.438 278.193 383.488 276.363C383.548 274.373 382.918 273.513 382.918 273.513C383.198 272.703 384.948 271.303 385.618 270.653C385.948 270.343 386.448 269.913 387.018 269.443C388.068 268.593 389.278 267.683 389.468 267.543C391.558 266.113 392.718 267.633 392.718 267.633C392.718 267.633 394.748 266.773 395.588 267.983V267.993Z" fill="#5B68B7"/>
<path d="M388.408 267.083C388.768 265.463 389.208 263.273 389.208 263.273L393.518 265.663L393.058 268.543C393.058 268.543 394.738 269.683 394.188 271.763C393.838 273.093 392.368 274.083 390.738 273.383C388.248 272.313 387.138 269.803 387.008 269.453C387.478 269.003 388.048 268.723 388.398 267.093L388.408 267.083Z" fill="white"/>
<path d="M408.446 295.723C408.446 295.723 407.996 296.773 409.906 298.663C410.296 299.053 411.156 299.663 411.586 300.103C412.066 300.593 411.966 300.913 411.936 301.213C411.916 301.413 411.836 301.583 411.686 301.703C411.306 302.003 410.586 302.173 410.006 302.213C408.296 302.333 406.776 301.053 406.776 301.053C406.526 300.833 404.036 298.873 403.026 298.273C402.136 297.753 402.676 296.773 402.786 296.443C402.906 296.083 403.476 295.083 403.476 295.083C403.476 295.083 403.766 293.283 404.136 293.653C404.166 293.683 404.446 294.833 405.986 295.453C406.726 295.753 407.706 295.813 408.036 295.533C408.516 295.113 408.436 295.723 408.436 295.723H408.446Z" fill="#0E1A68"/>
<path d="M401.1 304.423C401.1 304.423 401.73 304.153 401.9 302.963C402.08 301.673 401.9 301.773 401.78 300.803C401.81 300.493 402.1 300.653 402.1 300.653C402.1 300.653 402.75 301.113 403.24 301.013C403.55 300.953 403.87 300.923 404.51 300.893C406.33 300.823 406.24 302.773 406.24 302.773C406.24 302.773 406.12 307.923 406.54 309.973C406.88 311.653 404.92 310.953 404.37 310.383C403.04 308.993 402.2 304.693 402.2 304.693C402.2 304.693 401.79 304.593 401.09 304.423H401.1Z" fill="#0E1A68"/>
<path d="M396.01 258.233L391.18 257.653L389.9 264.993C389.89 265.603 389.52 267.483 390.82 269.273C391.37 270.043 391.8 270.533 392.85 271.063C394.5 271.893 396.27 271.363 396.87 271.063C397.88 270.563 399.13 269.473 400.37 266.803C401.39 264.593 402.28 261.753 402.28 261.753L401.69 258.883L396.02 258.223L396.01 258.233Z" fill="white"/>
<path d="M399.719 255.453C402.499 257.573 402.079 259.683 402.109 259.703C403.349 260.613 403.419 263.503 402.779 264.513C402.239 265.383 399.699 265.583 398.739 265.543C396.039 265.423 394.469 264.243 394.399 264.243C394.369 264.243 394.939 262.283 394.759 261.013C394.749 260.923 394.449 260.623 393.729 262.023C393.699 262.083 393.359 262.553 392.949 263.233C392.779 263.533 392.019 264.323 391.989 264.213C391.989 264.213 392.199 262.243 390.499 262.803C389.599 263.093 390.019 263.873 390.069 263.993L388.469 267.233C388.399 267.363 388.319 266.133 387.779 264.613C387.199 262.973 386.639 261.593 386.599 260.983C386.109 254.393 391.279 251.923 396.779 253.773C397.829 254.123 399.729 255.453 399.729 255.453H399.719Z" fill="#110300"/>
<path d="M390.94 261.853C392.42 262.013 392.19 264.273 392.19 264.273C392.19 264.273 391.73 266.273 391.25 266.313C390.52 266.373 390.15 266.353 389.92 265.623C389.91 265.583 389.41 264.053 389.39 263.993C389.02 262.823 389.75 261.733 390.93 261.853H390.94Z" fill="white"/>
<path d="M391.088 254.163C391.088 254.163 388.428 250.803 385.628 252.793C382.828 254.793 386.218 257.433 382.018 258.023C382.018 258.023 380.788 258.943 383.758 259.553C386.738 260.173 388.618 257.813 388.748 256.303C388.938 254.213 391.098 254.153 391.098 254.153L391.088 254.163Z" fill="#110300"/>
<path d="M389.8 253.673C389.8 253.673 389.82 253.563 389.84 253.443C389.93 252.823 390.12 251.273 390.63 251.623C391.24 252.043 392.54 253.873 391.24 254.093C389.94 254.313 390.5 255.033 389.66 255.743C388.82 256.453 387.17 254.873 387.49 254.353C387.82 253.833 389.31 253.433 389.8 253.683V253.673Z" fill="#0E1A68"/>
<path d="M400.308 280.553C400.308 280.553 399.518 280.213 399.628 279.083C399.738 277.953 400.478 276.873 401.238 276.903C401.998 276.933 402.648 277.033 402.808 278.303C402.898 278.973 402.708 279.183 402.538 279.573C402.368 279.963 401.158 281.163 400.298 280.553H400.308Z" fill="#0E1A68"/>
<path d="M401.709 278.692C401.289 278.462 400.619 278.822 400.169 279.382C400.109 279.242 400.059 279.042 400.139 278.762C400.309 278.182 400.819 277.692 401.209 277.792C401.599 277.882 401.929 278.002 401.879 278.682C401.879 278.732 401.859 278.752 401.849 278.782C401.799 278.752 401.749 278.722 401.699 278.692H401.709Z" fill="#0E1A68"/>
<path d="M394.386 289.583C394.516 289.603 398.346 290.303 400.006 287.473C401.096 285.613 399.166 285.273 397.886 285.913C397.146 286.283 395.276 286.453 394.506 286.493C392.666 286.573 392.516 289.303 394.396 289.583H394.386Z" fill="#0E1A68"/>
<path d="M399.017 291.903C399.017 291.903 399.117 291.273 397.857 291.043C396.597 290.813 394.837 290.403 394.837 290.403C394.837 290.403 394.937 289.093 394.097 288.483C393.267 287.873 392.457 288.343 392.207 288.683C391.957 289.013 390.817 291.013 390.817 291.013C390.817 291.013 389.687 292.933 392.187 293.683C393.977 294.223 396.967 294.143 396.967 294.143C396.967 294.143 399.147 293.963 399.017 291.903Z" fill="#0E1A68"/>
<path d="M392.119 289.413C392.239 289.183 392.759 288.763 393.369 289.303C394.089 289.923 393.989 290.563 393.279 291.593C392.569 292.623 391.859 293.103 391.319 292.823C390.389 292.333 391.209 290.853 391.209 290.853L392.129 289.423L392.119 289.413Z" fill="#5B68B7"/>
<path d="M403.418 288.432C403.418 288.532 402.858 291.832 402.528 292.972C402.188 294.132 399.908 296.002 397.028 294.052C394.718 292.492 394.898 290.302 395.838 288.892C396.508 287.892 399.408 286.482 399.408 286.482L403.418 288.422V288.432Z" fill="#0E1A68"/>
<path d="M398.226 288.183C398.816 288.113 400.476 288.283 400.216 290.453C399.996 292.223 399.026 293.173 397.446 293.183C396.806 293.183 396.186 292.743 395.676 292.203C395.476 291.123 395.906 290.353 396.296 289.703C396.826 288.813 397.786 288.123 398.236 288.183H398.226Z" fill="#5B68B7"/>
<path d="M402.908 278.693C402.908 278.693 407.248 280.103 407.448 283.003C407.588 284.993 407.178 287.303 405.828 288.503C404.158 289.973 401.628 288.973 400.348 288.363C398.868 287.673 396.748 285.793 396.738 283.663C396.728 281.293 399.758 277.613 402.908 278.703V278.693Z" fill="#0E1A68"/>
<path d="M407.149 284.683C407.149 284.683 407.999 284.683 408.359 283.613C408.719 282.533 408.469 281.243 407.759 280.973C407.049 280.693 406.449 280.703 406.189 281.323C405.929 281.953 406.019 282.313 406.019 282.733C406.019 283.163 406.119 284.893 407.149 284.683Z" fill="#0E1A68"/>
<path d="M406.216 284.073C406.446 283.363 406.296 282.523 405.826 282.343C405.776 282.323 405.736 282.343 405.676 282.323C405.686 282.213 405.696 282.093 405.766 281.953C405.936 281.543 406.326 281.543 406.796 281.723C407.256 281.913 407.416 282.753 407.186 283.453C406.956 284.163 406.396 284.153 406.396 284.153C406.316 284.163 406.276 284.123 406.206 284.103C406.206 284.103 406.216 284.093 406.216 284.083V284.073Z" fill="#0E1A68"/>
<path d="M400.836 283.113C400.986 283.193 403.766 284.683 402.686 286.353C402.166 287.153 401.306 287.603 400.246 287.583C399.176 287.583 398.256 286.603 398.076 285.543C397.856 284.343 397.826 281.543 400.836 283.103V283.113Z" fill="#5B68B7"/>
<path d="M399.987 283.223C400.677 283.613 400.977 283.923 401.017 283.983C401.187 284.213 401.217 284.523 401.017 284.913C400.817 285.313 400.377 285.493 399.877 285.493C399.377 285.493 399.007 285.023 398.857 284.543C398.687 283.973 398.937 282.623 399.997 283.223H399.987Z" fill="#0E1A68"/>
<path d="M402.489 283.572C402.429 283.852 402.589 284.122 402.829 284.172C403.079 284.222 403.329 284.042 403.389 283.762C403.449 283.482 403.299 283.222 403.039 283.172C402.789 283.122 402.539 283.302 402.489 283.572Z" fill="#0E1A68"/>
<path opacity="0.75" d="M402.989 283.733C402.969 283.843 403.019 283.933 403.109 283.953C403.209 283.973 403.299 283.902 403.319 283.802C403.339 283.702 403.279 283.603 403.189 283.583C403.099 283.563 403.009 283.633 402.989 283.733Z" fill="white"/>
<path d="M399.849 281.683C399.789 281.963 399.949 282.233 400.199 282.283C400.449 282.333 400.699 282.153 400.749 281.873C400.809 281.603 400.659 281.333 400.409 281.283C400.159 281.233 399.909 281.413 399.849 281.683Z" fill="#0E1A68"/>
<path opacity="0.75" d="M400.258 281.883C400.238 281.983 400.298 282.083 400.388 282.103C400.478 282.123 400.578 282.053 400.598 281.953C400.618 281.853 400.568 281.753 400.468 281.733C400.378 281.713 400.278 281.783 400.258 281.883Z" fill="white"/>
<path d="M399.365 286.533H399.455L399.485 286.073C399.515 285.623 399.815 284.813 399.815 284.803L399.735 284.773C399.735 284.773 399.435 285.603 399.395 286.073L399.355 286.533H399.365Z" fill="#0E1A68"/>
<path d="M399.827 286.783C400.357 286.893 400.857 286.553 400.877 286.533L400.787 286.393C400.787 286.393 400.097 286.873 399.537 286.473C398.967 286.053 398.867 285.123 398.867 285.113H398.707C398.707 285.173 398.807 286.143 399.437 286.603C399.567 286.693 399.697 286.753 399.827 286.783Z" fill="#0E1A68"/>
<path d="M401.508 293.353C401.508 293.353 401.438 292.753 400.208 292.863C398.978 292.973 398.008 293.473 398.008 293.473C398.008 293.473 397.758 292.233 396.828 291.893C395.898 291.553 395.028 291.963 394.888 292.333C394.748 292.713 394.208 294.853 394.208 294.853C394.208 294.853 393.578 297.163 396.408 297.203C398.198 297.233 400.178 295.963 400.178 295.963C400.178 295.963 402.148 295.233 401.498 293.353H401.508Z" fill="#0E1A68"/>
<path d="M394.999 293.022C395.049 292.772 395.669 292.492 396.369 292.832C397.189 293.222 397.269 293.832 396.879 294.972C396.499 296.112 395.969 296.682 395.389 296.612C393.909 296.452 394.519 294.582 394.519 294.582L394.999 293.022Z" fill="#5B68B7"/>
<path d="M403.587 296.113C403.657 295.993 405.877 292.643 404.147 289.723C403.177 288.083 401.667 289.863 401.657 291.393C401.657 292.293 401.137 294.053 400.827 294.813C400.117 296.613 402.557 297.783 403.577 296.123L403.587 296.113Z" fill="#0E1A68"/>
<path d="M401.445 296.683C401.895 296.373 402.025 295.893 402.025 295.873L402.185 295.893C402.185 295.893 402.055 296.413 401.615 296.773C401.555 296.743 401.505 296.723 401.445 296.683Z" fill="#0E1A68"/>
<path d="M402.629 296.073L402.779 296.093C402.779 296.093 402.659 296.553 402.279 296.913C402.199 296.913 402.119 296.913 402.039 296.893C402.489 296.573 402.619 296.093 402.619 296.073H402.629Z" fill="#0E1A68"/>
<path d="M385.648 272.203C385.648 272.203 387.938 272.753 386.168 277.763C384.558 282.323 384.718 284.663 384.718 284.663L395.218 289.083C395.218 289.083 394.928 287.983 396.698 287.583L398.468 287.173C398.468 287.173 398.928 288.053 397.738 288.183C396.548 288.323 401.388 289.993 401.388 289.993C401.388 289.993 402.718 291.053 400.178 291.423C397.628 291.793 396.278 292.033 390.068 290.723C383.848 289.413 383.128 289.133 383.128 289.133C383.128 289.133 380.068 288.533 380.158 286.443C380.278 283.863 380.948 277.523 382.018 274.953C383.188 272.143 384.508 271.773 385.638 272.213L385.648 272.203Z" fill="white"/>
<path d="M426.271 302.313L425.301 303.774L426.051 304.063L426.831 302.904L426.271 302.313Z" fill="white"/>
<path d="M425.88 302.453C426.18 302.283 426.43 302.423 426.43 302.763C426.43 303.113 426.19 303.533 425.89 303.713C425.59 303.893 425.34 303.753 425.34 303.403C425.34 303.053 425.59 302.633 425.89 302.453H425.88Z" fill="#293896"/>
<path d="M426.18 301.694C426 301.594 425.76 301.604 425.49 301.764C424.95 302.074 424.52 302.824 424.52 303.434C424.52 303.744 424.63 303.954 424.8 304.054L425.32 304.354C425.15 304.254 425.04 304.034 425.04 303.734C425.04 303.114 425.47 302.374 426.01 302.064C426.28 301.914 426.52 301.894 426.7 301.994L426.18 301.694Z" fill="#5B68B7"/>
<path d="M426.18 301.694C426 301.594 425.76 301.604 425.49 301.764C424.95 302.074 424.52 302.824 424.52 303.434C424.52 303.744 424.63 303.954 424.8 304.054L425.32 304.354C425.15 304.254 425.04 304.034 425.04 303.734C425.04 303.114 425.47 302.374 426.01 302.064C426.28 301.914 426.52 301.894 426.7 301.994L426.18 301.694Z" fill="#293896"/>
<path d="M423.72 299.554C423.67 299.524 423.6 299.524 423.52 299.574L413.55 303.994C413.4 304.084 413.27 304.294 413.27 304.494C413.27 304.584 413.3 304.644 413.35 304.674C414.42 305.294 416.94 306.764 418.02 307.384C417.97 307.354 417.94 307.294 417.94 307.204C417.94 307.004 418.06 306.794 418.22 306.704L418.75 306.404C418.9 305.914 419.24 305.434 419.64 305.204C419.91 305.044 420.15 305.034 420.33 305.134L420.64 305.314L424.9 302.854C425.07 302.454 425.37 302.084 425.71 301.884C425.98 301.724 426.22 301.714 426.4 301.814L426.55 301.904L427.03 301.624C427.11 301.584 427.18 301.574 427.23 301.604C426.16 300.984 424.81 300.164 423.74 299.544L423.72 299.554Z" fill="#0E1A68"/>
<path d="M420.228 305.644L419.258 307.104L420.008 307.394L420.788 306.234L420.228 305.644Z" fill="white"/>
<path d="M419.839 305.774C420.139 305.604 420.389 305.743 420.389 306.083C420.389 306.433 420.149 306.854 419.839 307.034C419.539 307.214 419.289 307.064 419.289 306.724C419.289 306.374 419.529 305.954 419.839 305.774Z" fill="#293896"/>
<path d="M420.138 305.024C419.958 304.924 419.718 304.934 419.448 305.094C418.918 305.404 418.478 306.154 418.488 306.764C418.488 307.064 418.598 307.284 418.768 307.384L419.278 307.684C419.108 307.584 418.998 307.364 418.998 307.064C418.998 306.444 419.428 305.694 419.958 305.394C420.228 305.234 420.478 305.224 420.648 305.324L420.128 305.024H420.138Z" fill="#293896"/>
<path d="M418.67 306.873C418.67 306.723 418.69 306.563 418.74 306.403L418.21 306.703C418.06 306.793 417.93 307.003 417.93 307.203C417.93 307.373 418.06 307.453 418.21 307.363L418.69 307.083C418.68 307.013 418.67 306.943 418.67 306.863V306.873Z" fill="#293896"/>
<path d="M416.56 300.053C416.56 300.053 416.56 300.033 416.54 300.033C416.51 299.983 416.49 299.963 416.45 299.933C416.45 299.933 416.44 299.923 416.43 299.913C416.41 299.893 416.39 299.883 416.38 299.873L415.86 299.573C415.79 299.533 415.72 299.533 415.67 299.553L415.5 299.653C415.5 299.653 415.61 299.633 415.68 299.673L416.2 299.973C416.2 299.973 416.24 299.993 416.25 300.013C416.25 300.013 416.26 300.023 416.27 300.033C416.42 300.173 416.54 300.493 416.38 300.593L416.55 300.493C416.55 300.493 416.63 300.413 416.63 300.323C416.63 300.253 416.61 300.153 416.55 300.053H416.56Z" fill="#293896"/>
<path d="M416.221 299.963C416.361 300.043 416.481 300.243 416.481 300.413C416.481 300.583 416.361 300.643 416.221 300.563L415.701 300.263C415.561 300.183 415.441 299.983 415.441 299.813C415.441 299.643 415.561 299.583 415.701 299.663L416.221 299.963Z" fill="#0E1A68"/>
<path d="M424.378 299.184C424.858 298.914 425.318 298.864 425.658 299.054C425.838 299.154 425.978 299.324 426.068 299.554C426.098 299.624 426.038 299.754 425.958 299.804C425.648 299.984 424.958 300.384 424.158 300.844C424.068 300.894 423.988 300.854 423.988 300.754V299.614C423.988 299.504 424.058 299.384 424.148 299.324L424.378 299.194V299.184Z" fill="white"/>
<path d="M421.978 295.863C421.598 295.643 421.108 295.663 420.578 295.893L417.888 297.443C417.488 297.743 417.108 298.173 416.818 298.673L415.768 300.483C415.678 300.633 415.558 300.763 415.438 300.833L414.268 301.503C414.058 301.623 413.868 301.833 413.728 302.083C413.588 302.333 413.508 302.613 413.508 302.843V304.043C413.508 304.133 413.548 304.193 413.588 304.223C414.658 304.843 416.898 306.123 417.968 306.743C417.918 306.713 417.888 306.653 417.888 306.563V305.363C417.888 305.133 417.958 304.853 418.098 304.603C418.238 304.353 418.438 304.143 418.638 304.023L419.808 303.353C419.928 303.283 420.048 303.153 420.138 303.003L421.188 301.193C421.478 300.693 421.858 300.263 422.258 299.963L424.948 298.413C425.478 298.183 425.968 298.163 426.348 298.383L421.968 295.863H421.978Z" fill="#5B68B7"/>
<path d="M425.658 299.054C425.318 298.864 424.858 298.904 424.388 299.184L424.158 299.314C424.068 299.364 423.988 299.494 423.988 299.604V300.744C423.988 300.794 424.008 300.834 424.038 300.854L424.118 300.894C424.118 300.894 424.068 300.844 424.068 300.784V299.644C424.068 299.544 424.138 299.404 424.228 299.354L424.458 299.224C424.938 298.944 425.398 298.904 425.738 299.094L425.658 299.054Z" fill="white"/>
<path d="M424.456 299.224C424.936 298.944 425.396 298.904 425.736 299.094C425.916 299.194 426.056 299.364 426.146 299.594C426.176 299.664 426.116 299.794 426.036 299.844C425.736 300.024 425.036 300.424 424.236 300.884C424.146 300.934 424.066 300.894 424.066 300.794V299.654C424.066 299.554 424.136 299.414 424.226 299.364L424.456 299.234V299.224Z" fill="white"/>
<path d="M414.179 301.474L413.479 301.884C413.379 301.944 413.289 302.094 413.289 302.204V302.694C413.289 302.754 413.309 302.794 413.339 302.814L414.149 303.284C414.149 303.284 414.099 303.224 414.099 303.164V302.684C414.099 302.564 414.179 302.424 414.289 302.364L414.979 301.974L414.189 301.484L414.179 301.474Z" fill="white"/>
<path d="M414.289 302.354L414.979 301.964C414.779 302.084 414.649 302.254 414.509 302.494C414.369 302.744 414.289 303.024 414.289 303.264C414.189 303.324 414.109 303.274 414.109 303.164V302.684C414.109 302.564 414.189 302.424 414.299 302.364L414.289 302.354Z" fill="#5B68B7"/>
<path d="M424.741 303.563C424.741 303.333 424.801 303.094 424.901 302.854L420.641 305.313L420.671 305.524C420.771 305.584 420.851 305.673 420.901 305.803L424.741 303.594C424.741 303.594 424.741 303.573 424.741 303.553V303.563Z" fill="#293896"/>
<path d="M425.699 301.883C425.969 301.723 426.209 301.713 426.389 301.813L426.529 301.893L426.779 301.743C426.929 301.653 427.059 301.443 427.049 301.263V299.883C427.049 299.163 426.789 298.613 426.349 298.363C425.969 298.143 425.479 298.163 424.949 298.393L422.259 299.943C421.849 300.243 421.479 300.673 421.189 301.173L420.139 302.983C420.049 303.133 419.929 303.263 419.809 303.333L418.639 304.003C418.439 304.123 418.239 304.333 418.099 304.583C417.959 304.833 417.879 305.103 417.879 305.343V306.543C417.879 306.713 418.009 306.793 418.159 306.703L418.729 306.373C418.879 305.883 419.219 305.403 419.619 305.173C419.889 305.013 420.129 305.003 420.309 305.103L420.609 305.283L424.869 302.823C425.049 302.423 425.339 302.053 425.679 301.863L425.699 301.883ZM423.479 301.223C422.929 301.543 422.369 301.863 421.879 302.143C421.059 302.613 420.439 302.973 420.429 302.973L421.289 301.433C421.549 300.973 421.919 300.583 422.299 300.373L423.479 299.693C423.569 299.643 423.639 299.683 423.639 299.793V300.933C423.639 301.043 423.569 301.163 423.479 301.223ZM423.989 300.743V299.603C423.989 299.493 424.059 299.373 424.149 299.313L424.379 299.183C424.859 298.913 425.319 298.863 425.659 299.053C425.839 299.153 425.979 299.323 426.069 299.553C426.099 299.623 426.039 299.753 425.959 299.803C425.649 299.983 424.959 300.383 424.159 300.843C424.069 300.893 423.989 300.853 423.989 300.753V300.743Z" fill="#5B68B7"/>
<path d="M426.809 302.213C426.869 302.243 426.889 302.303 426.939 302.363C427.089 302.283 427.289 302.023 427.299 301.783C427.299 301.603 427.179 301.533 427.019 301.623L426.539 301.903L426.749 302.173L426.809 302.213Z" fill="#293896"/>
<path d="M426.32 300.083C426.27 300.053 426.2 300.053 426.12 300.103C425.96 300.193 425.84 300.413 425.84 300.593C425.84 300.683 425.87 300.743 425.92 300.773L425.97 300.803C425.92 300.773 425.89 300.713 425.89 300.623C425.89 300.443 426.02 300.223 426.17 300.133C426.25 300.083 426.32 300.083 426.37 300.113L426.33 300.083H426.32Z" fill="#BBD2E9"/>
<path d="M426.159 300.133C426.319 300.043 426.449 300.113 426.449 300.293C426.449 300.473 426.319 300.693 426.169 300.783C426.009 300.873 425.889 300.803 425.879 300.623C425.879 300.443 426.009 300.223 426.159 300.133Z" fill="#293896"/>
<path d="M427.061 300.413V300.563L426.691 300.783C426.561 300.853 426.461 301.033 426.461 301.183C426.461 301.253 426.491 301.303 426.531 301.333L426.641 301.403C426.641 301.403 426.571 301.323 426.571 301.253C426.571 301.103 426.671 300.923 426.801 300.853L427.301 300.563L427.061 300.423V300.413Z" fill="#5B68B7"/>
<path d="M427.3 300.563V301.104L426.8 301.394C426.67 301.464 426.57 301.404 426.57 301.264C426.57 301.124 426.67 300.934 426.8 300.864L427.3 300.573V300.563Z" fill="#0E1A68"/>
<path d="M423.609 301.194C423.609 301.194 423.549 301.184 423.509 301.194L420.609 302.864V305.294L420.689 305.334V302.904L423.579 301.234C423.619 301.214 423.649 301.214 423.679 301.234L423.599 301.184L423.609 301.194Z" fill="#293896"/>
<path d="M423.727 301.334C423.727 301.244 423.667 301.214 423.587 301.254L420.688 302.924V305.354L423.587 303.684C423.667 303.644 423.727 303.534 423.727 303.444V301.334ZM423.357 302.074L423.107 302.214C423.007 302.274 422.927 302.224 422.927 302.114V302.054L423.537 301.704V301.764C423.537 301.874 423.457 302.014 423.357 302.074Z" fill="#5B68B7"/>
<path d="M420.45 302.703C420.45 302.703 420.4 302.693 420.37 302.703C420.3 302.743 420.25 302.833 420.25 302.903C420.25 302.943 420.26 302.963 420.28 302.973L420.35 303.013C420.35 303.013 420.32 302.973 420.32 302.933C420.32 302.863 420.37 302.773 420.44 302.733C420.47 302.713 420.5 302.713 420.52 302.733L420.45 302.693V302.703Z" fill="white"/>
<path d="M420.44 302.743C420.51 302.703 420.56 302.743 420.56 302.813C420.56 302.883 420.51 302.973 420.44 303.013C420.38 303.053 420.32 303.013 420.32 302.943C420.32 302.873 420.37 302.783 420.44 302.743Z" fill="#293896"/>
<path d="M423.588 299.683C423.588 299.683 423.518 299.663 423.468 299.693L422.288 300.373C421.908 300.593 421.548 300.973 421.278 301.433L420.418 302.973L420.498 303.013L421.358 301.473C421.628 301.013 421.988 300.623 422.368 300.413L423.548 299.733C423.548 299.733 423.638 299.703 423.668 299.733L423.598 299.693L423.588 299.683Z" fill="white"/>
<path d="M423.548 299.733C423.638 299.683 423.718 299.733 423.718 299.833V300.973C423.718 301.073 423.648 301.204 423.558 301.254C423.018 301.564 422.468 301.884 421.988 302.164C421.158 302.644 420.528 303.004 420.508 303.014L421.368 301.473C421.638 301.013 421.998 300.624 422.378 300.414L423.558 299.733H423.548Z" fill="white"/>
<path d="M421.778 302.873C421.778 302.873 421.778 302.863 421.758 302.853C421.728 302.803 421.708 302.783 421.678 302.753C421.678 302.753 421.668 302.743 421.658 302.733C421.638 302.723 421.618 302.703 421.608 302.693L421.088 302.393C421.018 302.353 420.958 302.343 420.908 302.373L420.738 302.473C420.738 302.473 420.848 302.453 420.918 302.493L421.438 302.793C421.438 302.793 421.478 302.823 421.498 302.833C421.498 302.833 421.498 302.833 421.518 302.843C421.668 302.983 421.788 303.303 421.628 303.403L421.798 303.303C421.798 303.303 421.878 303.213 421.878 303.133C421.878 303.063 421.858 302.963 421.798 302.863L421.778 302.873Z" fill="#293896"/>
<path d="M421.44 302.793C421.58 302.873 421.7 303.073 421.7 303.243C421.7 303.413 421.58 303.473 421.44 303.393L420.92 303.093C420.78 303.013 420.66 302.813 420.66 302.643C420.66 302.473 420.78 302.413 420.92 302.493L421.44 302.793Z" fill="#0E1A68"/>
<path d="M420.7 302.884L420.55 302.794C420.55 302.794 420.51 302.784 420.5 302.794L420.41 302.844C420.41 302.844 420.44 302.844 420.46 302.844L420.61 302.934C420.61 302.934 420.69 302.964 420.72 302.944L420.81 302.894C420.81 302.894 420.74 302.904 420.7 302.884Z" fill="white"/>
<path d="M420.929 302.633C420.929 302.633 420.889 302.623 420.879 302.633L420.789 302.683C420.789 302.683 420.819 302.683 420.839 302.683C420.869 302.693 420.889 302.723 420.899 302.753C420.899 302.773 420.919 302.793 420.919 302.813V302.933C420.919 303.033 420.879 303.103 420.829 303.133L420.919 303.083C420.979 303.053 421.009 302.983 421.009 302.883V302.763C421.009 302.763 420.979 302.653 420.929 302.633Z" fill="white"/>
<path d="M420.839 302.693C420.839 302.693 420.919 302.773 420.919 302.823V302.943C420.919 303.143 420.779 303.213 420.609 303.123L420.459 303.033C420.459 303.033 420.379 302.953 420.379 302.903C420.379 302.853 420.419 302.833 420.459 302.853L420.609 302.943C420.699 302.993 420.759 302.943 420.759 302.853V302.733C420.759 302.733 420.799 302.663 420.839 302.693Z" fill="#293896"/>
<path d="M420.8 302.713L420.75 302.743C420.75 302.743 420.84 302.823 420.8 302.843L420.85 302.813C420.85 302.813 420.86 302.804 420.86 302.784C420.86 302.744 420.82 302.703 420.79 302.713H420.8Z" fill="#BBD2E9"/>
<path d="M420.778 302.744C420.778 302.744 420.818 302.784 420.818 302.814C420.818 302.844 420.798 302.854 420.778 302.834C420.758 302.824 420.738 302.794 420.738 302.764C420.738 302.734 420.758 302.724 420.778 302.744Z" fill="#5B68B7"/>
<path d="M423.62 301.753V301.813C423.62 301.933 423.54 302.073 423.44 302.133L423.19 302.283C423.09 302.343 423 302.293 423 302.173V302.113L423.62 301.753Z" fill="#293896"/>
<path d="M422.99 302.113L423.61 301.753L423.53 301.703L423.5 301.723L423.55 301.753L422.98 302.083L422.93 302.053L422.91 302.073V302.133C422.91 302.193 422.93 302.233 422.96 302.253L423.04 302.303C423.04 302.303 422.99 302.243 422.99 302.183V302.123V302.113Z" fill="#5B68B7"/>
<path d="M423.51 301.723L423.56 301.753L423.5 301.783L423.51 301.723Z" fill="#293896"/>
<path d="M419.958 305.393C420.498 305.083 420.928 305.333 420.928 305.943C420.928 306.553 420.498 307.303 419.958 307.613C419.418 307.923 418.988 307.673 418.988 307.063C418.988 306.443 419.418 305.693 419.948 305.393H419.958ZM419.978 307.143C420.278 306.963 420.528 306.543 420.518 306.193C420.518 305.843 420.268 305.703 419.968 305.883C419.668 306.063 419.418 306.483 419.418 306.833C419.418 307.183 419.668 307.323 419.968 307.153L419.978 307.143Z" fill="#0E1A68"/>
<path d="M426.009 302.063C426.549 301.753 426.979 302.003 426.979 302.623C426.979 303.233 426.549 303.983 426.009 304.293C425.469 304.603 425.039 304.353 425.039 303.743C425.039 303.123 425.469 302.383 426.009 302.073V302.063ZM426.019 303.813C426.319 303.643 426.569 303.213 426.569 302.863C426.569 302.513 426.319 302.373 426.019 302.553C425.719 302.733 425.469 303.153 425.479 303.503C425.479 303.853 425.729 303.993 426.029 303.813H426.019Z" fill="#0E1A68"/>
<path d="M418.668 304.014H418.658C418.458 304.134 418.258 304.354 418.118 304.604C417.978 304.854 417.898 305.124 417.898 305.354L417.978 305.394C417.978 305.164 418.058 304.894 418.198 304.644C418.338 304.394 418.528 304.184 418.738 304.064H418.748L418.668 304.014Z" fill="#5B68B7"/>
<path d="M418.747 304.054V304.434C418.747 304.714 418.547 305.054 418.307 305.194L417.977 305.384C417.977 305.154 418.057 304.874 418.197 304.634C418.337 304.384 418.537 304.174 418.747 304.054Z" fill="#5B68B7"/>
<path d="M417.818 303.483L417.038 303.923C416.938 303.983 416.848 304.133 416.848 304.253V304.733C416.848 304.793 416.868 304.833 416.908 304.853L417.848 305.403C417.848 305.403 417.798 305.343 417.798 305.283V304.803C417.798 304.683 417.878 304.543 417.988 304.483L418.758 304.063L417.828 303.493L417.818 303.483Z" fill="white"/>
<path d="M417.977 304.474L418.747 304.054C418.547 304.174 418.337 304.374 418.197 304.614C418.057 304.864 417.977 305.144 417.977 305.384C417.877 305.444 417.797 305.394 417.797 305.284V304.804C417.797 304.684 417.877 304.544 417.987 304.484L417.977 304.474Z" fill="#5B68B7"/>
<path d="M416.769 305.733C416.769 305.733 416.749 305.703 416.729 305.693L414.219 304.274C414.219 304.274 414.169 304.254 414.149 304.274L414.059 304.323C414.059 304.323 414.099 304.323 414.119 304.323C415.519 305.253 416.729 305.693 416.729 306.083C416.729 306.113 416.719 306.134 416.699 306.144L416.789 306.093C416.789 306.093 416.819 306.064 416.819 306.034C416.819 305.924 416.839 305.813 416.769 305.723V305.733Z" fill="white"/>
<path d="M416.63 305.753C416.68 305.783 416.72 305.853 416.72 305.913V306.093C416.72 306.153 416.68 306.173 416.62 306.143L414.11 304.713C414.06 304.683 414.02 304.613 414.02 304.553V304.373C414.02 304.313 414.06 304.293 414.11 304.323L416.62 305.753H416.63Z" fill="#293896"/>
<path d="M417.849 298.153C417.689 298.053 417.479 298.083 417.359 298.233C417.229 298.393 417.109 298.573 417.009 298.753L416.039 300.413C415.949 300.563 415.989 300.763 416.149 300.853L419.649 302.863C419.809 302.953 420.009 302.913 420.099 302.753L421.069 301.103C421.179 300.923 421.289 300.743 421.419 300.583C421.519 300.453 421.489 300.263 421.349 300.173L417.849 298.163V298.153Z" fill="white"/>
<path d="M417.759 298.114C417.599 298.024 417.389 298.043 417.279 298.193C417.149 298.353 417.029 298.533 416.929 298.713L415.959 300.384C415.869 300.534 415.919 300.733 416.069 300.823L419.569 302.833C419.729 302.923 419.929 302.883 420.029 302.723L420.989 301.053C421.099 300.873 421.219 300.694 421.339 300.534C421.439 300.404 421.409 300.214 421.269 300.124L417.769 298.114H417.759Z" fill="white"/>
<path d="M418.469 305.313C418.469 305.313 418.409 305.303 418.369 305.313L417.789 305.643V305.963L417.909 306.033V305.713L418.489 305.383C418.529 305.363 418.559 305.353 418.589 305.383L418.479 305.313H418.469Z" fill="#5B68B7"/>
<path d="M417.591 305.413C417.591 305.413 417.521 305.393 417.491 305.413L417.371 305.483C417.371 305.483 417.431 305.473 417.471 305.483L417.891 305.723V306.033L418.011 305.963V305.653L417.591 305.413Z" fill="#5B68B7"/>
<path d="M417.9 305.723V306.043L417.48 305.803C417.4 305.763 417.34 305.653 417.34 305.563C417.34 305.473 417.4 305.443 417.48 305.483L417.9 305.723Z" fill="#0E1A68"/>
<path d="M418.478 305.394C418.558 305.354 418.618 305.394 418.618 305.474C418.618 305.554 418.558 305.674 418.488 305.714L417.898 306.054V305.734L418.478 305.394Z" fill="#0E1A68"/>
<path d="M413.659 303.283C413.739 303.323 413.799 303.433 413.799 303.523C413.799 303.613 413.739 303.643 413.659 303.603L413.309 303.403V303.083L413.659 303.283Z" fill="#0E1A68"/>
<path d="M413.77 303.224L413.52 303.074V302.974L413.32 303.094L413.67 303.294C413.78 303.364 413.86 303.574 413.77 303.624L413.88 303.554C413.88 303.554 413.92 303.504 413.92 303.464C413.92 303.384 413.86 303.274 413.78 303.224H413.77Z" fill="#5B68B7"/>
<g opacity="0.13" style="mix-blend-mode:multiply">
<path d="M450.341 284.493L439.591 284.323L433.001 293.953C433.001 293.953 430.221 296.103 431.531 297.593C432.741 298.983 438.031 298.893 438.031 298.893L434.131 307.133C434.131 307.133 433.961 309.213 436.131 308.173C438.301 307.133 440.471 302.453 440.471 302.453C440.471 302.453 450.271 302.973 454.691 301.763C457.691 300.943 460.591 296.043 460.591 296.043C460.591 296.043 462.841 295.613 463.191 296.653C463.541 297.693 464.321 298.643 467.181 298.303C470.041 297.953 471.531 297.373 472.821 295.963C473.691 295.013 474.121 288.163 450.361 284.513L450.341 284.493Z" fill="#293896"/>
</g>
<path d="M452.257 293.713C452.257 293.713 448.617 293.343 448.587 294.263C448.557 295.193 448.117 295.633 449.937 296.193C451.757 296.743 452.257 293.713 452.257 293.713Z" fill="#0E1A68"/>
<path d="M446.847 270.934L443.977 280.714L446.287 283.594L450.167 273.684L449.927 271.694L446.847 270.934Z" fill="white"/>
<path d="M437.549 278.203C437.549 278.203 439.149 279.023 440.379 279.193C441.609 279.373 442.179 280.173 442.329 280.723C442.469 281.273 444.129 284.983 444.059 285.183C443.989 285.383 441.909 286.783 441.389 286.963C440.259 287.353 438.939 285.353 438.039 284.483C437.449 283.923 436.579 282.023 436.499 280.133C436.429 278.623 437.559 278.193 437.559 278.193L437.549 278.203Z" fill="#293896"/>
<path d="M447.988 283.803L438.088 278.053C438.088 278.053 434.218 277.753 434.418 281.243C434.538 283.413 435.698 292.413 435.738 292.513C436.468 294.683 440.028 292.023 440.028 292.023C440.028 292.023 439.768 290.803 440.178 288.273C440.608 285.603 439.058 282.363 439.058 282.363C439.058 282.363 444.148 288.983 446.128 287.453C448.718 285.453 448.728 284.533 448.728 284.533L448.008 283.803H447.988Z" fill="white"/>
<path d="M455.217 284.863L455.697 297.613C455.697 297.613 456.477 299.793 452.937 300.273C447.267 301.053 439.607 301.213 439.607 301.213C439.607 301.213 437.787 305.213 436.157 306.323C435.477 306.783 433.787 306.913 434.487 305.303C435.347 303.323 436.067 298.493 436.067 298.493C436.067 298.493 436.267 296.443 438.087 296.893C438.727 297.053 439.107 297.393 439.407 297.513C439.887 297.713 440.387 297.563 440.387 297.563C440.387 297.563 446.167 295.383 448.007 295.083C448.827 294.953 449.127 294.913 449.127 294.913L450.627 286.763L455.217 284.863Z" fill="white"/>
<path d="M440.88 287.003C440.88 287.003 443.12 286.283 441.08 281.483C439.9 278.703 437.93 277.983 437.93 277.983C437.93 277.983 439.55 278.163 442.4 279.503C445.11 280.783 447.75 281.973 447.75 281.973C447.75 281.973 451.22 289.633 449.59 290.123C447.38 290.783 440.89 287.003 440.89 287.003H440.88Z" fill="#293896"/>
<path d="M455.597 298.903C455.597 298.903 455.907 294.323 451.527 293.903C449.037 293.663 448.597 294.273 448.597 294.273C448.597 294.273 448.867 291.023 448.687 289.963C447.647 283.543 446.777 284.063 446.777 284.063C446.777 284.063 456.927 281.473 458.207 282.933C459.477 284.383 458.027 293.623 457.537 295.673C456.907 298.313 455.587 298.903 455.587 298.903H455.597Z" fill="#293896"/>
<path d="M451.877 288.123C451.317 288.273 451.197 288.713 451.607 289.113C452.017 289.503 452.807 289.713 453.377 289.563C453.937 289.413 454.067 288.973 453.657 288.583C453.247 288.193 452.447 287.983 451.887 288.133L451.877 288.123Z" fill="#293896"/>
<path d="M452.39 287.333L452.099 288.613C452.079 288.693 452.069 288.783 452.159 288.873C452.349 289.043 452.7 289.133 452.95 289.063C453.08 289.033 453.149 288.963 453.169 288.883L453.499 287.603C453.479 287.683 453.399 287.753 453.279 287.783C453.029 287.853 452.669 287.773 452.489 287.593C452.399 287.503 452.36 287.413 452.38 287.333H452.39Z" fill="#0E1A68"/>
<path d="M452.61 287.153C452.36 287.223 452.31 287.423 452.49 287.593C452.68 287.763 453.03 287.853 453.28 287.783C453.53 287.713 453.58 287.513 453.4 287.343C453.21 287.173 452.86 287.083 452.61 287.153Z" fill="#0E1A68"/>
<path d="M450.557 275.793C450.557 275.793 446.757 276.623 445.097 274.083C445.037 273.993 445.857 272.483 446.547 270.683C447.257 268.813 447.987 267.263 449.007 266.913C449.587 266.713 452.677 265.623 453.107 268.053C453.227 268.743 450.557 275.813 450.557 275.813V275.793Z" fill="#5B68B7"/>
<path d="M449.667 266.474C448.237 268.184 447.597 270.754 447.747 274.504C447.827 276.554 449.267 281.174 446.237 281.274C446.077 281.274 447.847 282.104 448.547 284.814C449.727 289.304 451.277 290.024 452.697 290.784C454.237 291.604 458.187 289.724 458.187 289.724C458.337 289.594 458.737 288.844 459.127 286.924C460.167 281.874 460.657 277.224 460.767 275.344C460.877 273.304 461.007 272.464 461.007 272.464C460.797 271.604 460.287 270.784 459.647 270.064C459.337 269.714 458.857 269.234 458.317 268.704C457.317 267.744 456.157 266.704 455.977 266.554C453.957 264.904 452.637 266.364 452.637 266.364C452.637 266.364 450.637 265.314 449.667 266.474Z" fill="#5B68B7"/>
<path d="M457.597 267.163C457.367 265.473 458.347 262.703 458.347 262.703L451.987 264.273L452.197 267.263C452.197 267.263 450.387 268.283 450.757 270.453C450.997 271.853 452.417 272.993 454.147 272.413C456.777 271.533 458.137 269.063 458.307 268.713C457.867 268.213 457.667 268.003 457.597 267.163Z" fill="white"/>
<path d="M454.619 254.473L459.239 256.303L456.629 263.953C456.349 264.583 455.759 266.043 453.649 266.853C453.649 266.853 452.249 267.373 450.809 267.333C448.919 267.273 447.879 266.373 447.399 265.683C446.709 264.693 446.299 263.503 446.339 261.023C446.379 258.673 447.189 254.523 447.189 254.523L449.219 252.283L454.629 254.463L454.619 254.473Z" fill="white"/>
<path d="M456.267 249.173C454.987 249.083 452.517 249.773 452.517 249.773C450.627 248.793 449.517 250.263 448.157 251.053C446.247 252.153 446.437 250.773 446.347 250.903C445.717 251.743 445.227 254.683 447.907 255.123C448.837 257.163 450.767 257.173 452.537 256.083C453.327 255.593 454.147 255.653 454.067 256.713C453.927 258.733 456.127 257.933 455.187 260.103C455.047 260.423 455.207 261.893 455.297 261.803C455.297 261.803 456.067 259.933 457.327 261.263C457.987 261.963 456.737 263.723 456.647 263.813C456.647 263.813 457.387 264.883 457.837 264.603C459.217 263.773 459.547 263.243 459.877 262.903C461.577 261.093 462.267 259.173 462.407 257.373C462.657 254.023 460.607 253.163 460.507 252.623C460.017 250.003 457.857 249.293 456.267 249.173Z" fill="#462712"/>
<path d="M457.397 260.203C455.997 259.623 455.097 261.763 455.097 261.763C455.097 261.763 454.537 263.783 454.947 264.053C455.577 264.453 455.917 264.623 456.477 264.093C456.507 264.063 457.697 262.923 457.747 262.883C458.657 262.013 458.527 260.673 457.397 260.213V260.203Z" fill="white"/>
<path d="M459.407 272.063C459.407 272.063 460.767 270.463 461.967 273.343C462.507 274.633 464.637 278.433 465.877 282.443C467.407 287.403 468.607 293.123 468.607 293.123C468.607 293.123 470.407 293.923 471.997 294.723C473.597 295.523 472.757 296.003 471.637 296.483C470.517 296.963 467.487 295.843 467.487 295.843L465.867 297.213C465.867 297.213 464.907 297.773 464.827 297.213C464.797 296.993 465.747 295.943 465.807 295.243C465.927 293.643 466.207 293.603 466.207 293.603L458.437 275.093C458.437 275.093 457.877 272.933 459.397 272.063H459.407Z" fill="white"/>
<path d="M459.779 279.514C459.779 279.514 461.099 279.333 462.509 278.473C464.319 277.383 464.649 276.573 464.649 276.573C464.649 276.573 461.919 272.304 460.989 271.414C460.199 270.654 459.149 270.694 458.449 271.154C457.759 271.614 457.159 272.823 457.789 274.593C458.419 276.363 459.779 279.503 459.779 279.503V279.514Z" fill="#5B68B7"/>
<path d="M435.228 290.873C435.228 290.873 435.458 292.023 433.128 293.523C432.648 293.833 431.658 294.263 431.138 294.613C430.558 295.003 430.588 295.343 430.548 295.653C430.528 295.853 430.568 296.043 430.688 296.203C431.008 296.583 431.698 296.903 432.268 297.073C433.958 297.563 435.768 296.593 435.768 296.593C436.068 296.433 438.988 294.983 440.128 294.593C441.128 294.253 440.798 293.153 440.758 292.803C440.718 292.413 440.348 291.283 440.348 291.283C440.348 291.283 440.438 289.403 439.988 289.713C439.948 289.743 439.428 290.833 437.738 291.133C436.928 291.283 435.928 291.133 435.658 290.783C435.258 290.263 435.218 290.893 435.218 290.893L435.228 290.873Z" fill="#0E1A68"/>
<path d="M440.776 301.183C440.776 301.183 440.196 300.783 440.276 299.543C440.366 298.213 440.536 298.353 440.846 297.393C440.886 297.083 440.556 297.173 440.556 297.173C440.556 297.173 439.806 297.493 439.326 297.293C439.036 297.173 438.716 297.073 438.076 296.913C436.266 296.453 435.946 298.433 435.946 298.433C435.946 298.433 434.976 303.643 434.116 305.623C433.416 307.233 435.536 306.953 436.216 306.493C437.856 305.373 439.596 301.233 439.596 301.233C439.596 301.233 440.036 301.233 440.776 301.203V301.183Z" fill="#0E1A68"/>
</svg>
