<svg width="705" height="468" viewBox="0 0 705 468" fill="none" xmlns="http://www.w3.org/2000/svg">
<rect width="705" height="468" fill="#E0E6F9"/>
<path d="M158.366 301.355L258.241 359.592C258.241 359.592 268.442 364.744 278.562 365.408C288.682 366.072 297.463 361.573 303.611 358.768C309.747 355.963 323.886 347.824 326.817 345.087C329.747 342.34 337.795 336.558 329.839 328.751C321.882 320.954 203.186 260.084 192.631 259.66C182.076 259.237 149.906 286.22 149.093 290.914C148.315 295.39 152.425 297.909 158.366 301.343V301.355Z" fill="#BBD2E9"/>
<path d="M162.521 292.574L171.84 286.495L197.358 303.21L247.124 342.42L253.65 336.879L270.261 344.79L276.352 311.99L162.521 263.427C162.521 263.427 152.95 268.956 162.521 292.574Z" fill="#0E1A68"/>
<path d="M270.331 342.294C270.331 348.614 270.56 355.906 265.053 352.735C259.546 349.564 255.082 341.859 255.082 335.54C255.082 329.22 259.546 326.679 265.053 329.862C270.56 333.044 270.331 335.986 270.331 342.294Z" fill="#0E1A68"/>
<path d="M265.66 357.177L272.117 353.456L257.933 329.197L251.43 332.941L265.66 357.177Z" fill="#0E1A68"/>
<path d="M268.498 350.823C268.498 357.142 264.033 359.683 258.527 356.501C253.02 353.318 248.555 345.625 248.555 339.305C248.555 332.986 253.02 330.445 258.527 333.627C264.033 336.81 268.498 344.503 268.498 350.823Z" fill="#0E1A68"/>
<path d="M190.434 298.206C190.434 304.526 185.969 307.067 180.462 303.885C174.956 300.702 170.491 293.009 170.491 286.689C170.491 280.37 174.956 277.828 180.462 281.011C185.969 284.194 190.434 291.887 190.434 298.206Z" fill="#0E1A68"/>
<path d="M181.057 308.339L187.514 304.607L173.329 280.348L166.838 284.103L181.057 308.339Z" fill="#0E1A68"/>
<path d="M183.896 301.985C183.896 308.304 179.432 310.846 173.925 307.663C168.418 304.48 163.953 296.787 163.953 290.468C163.953 284.148 168.418 281.607 173.925 284.789C179.432 287.972 183.896 295.665 183.896 301.985Z" fill="#0E1A68"/>
<path d="M327.732 315.311C327.629 313.25 326.931 311.727 326.21 310.686C322.798 305.74 325.111 313.525 325.111 313.525L327.732 315.311Z" fill="white"/>
<path d="M153.615 282.408C153.615 282.408 153.512 281.251 154.566 279.66C155.619 278.069 158.996 277.428 158.996 277.428L156.065 282.671L153.615 282.396V282.408Z" fill="#BBD2E9"/>
<path d="M154.256 274.223C154.256 274.223 154.794 269.678 157.873 265.282C160.941 260.886 166.311 256.089 166.311 256.089L168.795 263.816L155.813 274.475L154.256 274.223Z" fill="white"/>
<path d="M201.458 254.783C201.458 254.783 202.489 256.787 203.37 257.634C204.252 258.481 211.727 263.759 211.727 263.759L212.071 263.965V261.034C212.071 253.81 217.177 250.902 223.473 254.532C228.556 257.462 232.861 263.77 234.338 269.895C234.693 271.361 234.876 272.814 234.876 274.2V278.081L235.837 278.676L296.674 313.799V309.873C296.674 308.098 296.983 306.587 297.544 305.373C299.249 301.618 303.325 300.634 308.076 303.381C314.373 307.022 314.785 311.063 314.785 318.287V320.771L325.294 325.419L327.504 321.241L327.241 320.382L326.84 319.089V317.406L327.504 317.325V314.418L325.993 310.674C325.993 310.674 324.516 304.515 324.333 303.313C324.207 302.488 322.844 299.798 322.73 299.649C322.707 299.615 319.605 297.176 319.605 297.176C319.605 297.176 318.414 295.001 315.128 291.704C311.843 288.396 295.895 274.463 293.148 272.139C290.4 269.826 279.959 262.557 269.209 256.741C258.471 250.937 256.799 251.017 255.528 250.731C248.064 249.036 238.356 249.952 236.685 250.067C233.742 248.933 209.06 235.859 205.866 239.706C205.133 241.023 203.416 245.774 203.416 245.774L202.088 246.586V248.109L202.924 250.227L202.34 253.661L201.458 254.783Z" fill="#5B68B7"/>
<path d="M201.458 254.784C201.458 254.784 202.489 256.787 203.37 257.635C204.252 258.482 211.727 263.759 211.727 263.759L212.071 263.965V261.035C212.071 253.811 217.177 250.903 223.473 254.532C228.556 257.463 232.861 263.771 234.338 269.896C234.693 271.361 234.876 272.815 234.876 274.2V278.081L235.837 278.677L296.674 313.8V309.873C296.674 308.099 296.983 306.588 297.544 305.374C299.249 301.619 303.325 300.634 308.076 303.382C314.373 307.023 314.785 311.064 314.785 318.288V320.772L325.294 325.42L327.504 321.241L327.241 320.383L326.84 319.089V317.406L327.504 317.326V315.174C327.504 315.174 324.424 313.17 324.081 312.472C323.737 311.774 317.922 298.482 317.04 297.635C315.758 296.41 296.262 288.099 287.206 283.015C277.738 277.715 241.55 258.734 228.465 252.506C213.513 245.396 213.513 251.017 210.262 253.216C209.976 253.41 202.935 250.228 202.935 250.228L202.351 253.662L201.47 254.784H201.458Z" fill="#5B68B7"/>
<path d="M311.728 299.706C316.88 303.633 315.517 304.801 315.666 313.547C309.393 302.443 312.369 304.045 306.53 302.202C300.692 300.359 296.525 302.065 296.525 302.065C296.525 302.065 298.631 290.055 311.728 299.695V299.706Z" fill="#5B68B7"/>
<path d="M234.337 269.895C234.692 271.361 234.875 272.815 234.875 274.2V278.081L235.837 278.676L296.673 313.8V309.873C296.673 308.098 296.982 306.587 297.543 305.374C297.234 303.885 297.051 302.958 297.051 302.958C297.051 302.958 296.868 302.626 296.536 302.077C295.333 300.062 292.151 295.07 288.51 292.082C283.874 288.27 243.049 267.4 240.038 266.117C237.852 265.19 236.352 263.175 235.104 266.77C234.841 267.537 234.589 268.556 234.337 269.895Z" fill="#293896"/>
<path d="M281.814 295.436L291.225 304.16L287.916 303.679L240.085 277.199C240.085 277.199 244.71 277.004 247.561 278.584C250.411 280.164 281.814 295.425 281.814 295.425V295.436Z" fill="#293896"/>
<path d="M296.674 313.811V309.884C296.674 308.11 296.983 306.598 297.544 305.385C299.249 301.63 303.325 300.645 308.076 303.393C314.373 307.034 314.785 311.075 314.785 318.299V320.783L325.294 325.431L327.504 321.252L325.26 322.386L316.651 317.554C315.872 309.483 314.922 305.087 308.076 301.126C303.153 298.287 298.849 298.859 296.525 302.076C295.369 303.679 294.705 305.934 294.705 308.751V309.953L236.833 277.52V275.333C236.833 272.586 236.204 269.632 235.093 266.77C232.804 260.805 228.453 255.161 223.462 252.288C216.078 248.029 210.102 251.441 210.102 259.912L209.861 260.611L201.458 254.783C201.458 254.783 202.489 256.787 203.37 257.634C204.252 258.481 211.727 263.759 211.727 263.759L212.071 263.965V261.034C212.071 253.81 217.177 250.902 223.473 254.532C228.556 257.462 232.861 263.77 234.338 269.895C234.693 271.361 234.876 272.815 234.876 274.2V278.081L235.837 278.676L296.674 313.799V313.811Z" fill="#0E1A68"/>
<path d="M305.501 288.9C288.832 280.13 238.849 254.372 238.849 254.372C238.849 254.372 219.799 244.274 216.742 244.068C213.686 243.862 209.45 246.964 208.706 247.422C207.973 247.88 203.417 245.785 203.417 245.785C203.417 245.785 205.134 241.034 205.866 239.718C209.049 235.871 233.743 248.945 236.685 250.078C238.357 249.975 248.065 249.059 255.529 250.742C256.789 251.029 258.471 250.948 269.21 256.753C279.948 262.557 290.401 269.827 293.148 272.151C295.896 274.475 311.843 288.407 315.129 291.716C318.415 295.024 319.605 297.188 319.605 297.188C319.605 297.188 320.292 296.925 321.391 297.921C321.803 298.837 321.975 299.512 321.998 299.569L321.895 300.256C310.973 290.331 317.957 295.448 305.501 288.888V288.9Z" fill="white"/>
<path d="M298.105 310.709C298.105 317.028 297.876 319.97 303.383 323.142C308.889 326.324 313.354 323.771 313.354 317.463C313.354 311.155 313.583 308.202 308.076 305.03C302.57 301.848 298.105 304.401 298.105 310.709Z" fill="#0E1A68"/>
<path d="M300.348 312.014C300.348 316.914 299.111 318.116 303.382 320.577C307.652 323.038 311.109 321.069 311.109 316.169C311.109 311.27 312.346 310.068 308.075 307.606C303.805 305.145 300.348 307.114 300.348 312.014Z" fill="#293896"/>
<path d="M213.502 261.87C213.502 268.189 217.967 275.883 223.474 279.065C228.981 282.248 233.445 279.695 233.445 273.387C233.445 267.079 228.981 259.374 223.474 256.191C217.967 253.009 213.502 255.562 213.502 261.87Z" fill="#0E1A68"/>
<path d="M215.746 263.164C215.746 268.064 219.203 274.029 223.474 276.49C227.744 278.951 231.201 276.982 231.201 272.082C231.201 267.182 227.744 261.218 223.474 258.757C219.203 256.295 215.746 258.264 215.746 263.164Z" fill="#293896"/>
<path d="M294.041 305.236L294.155 305.122C294.751 304.561 301.379 296.627 301.677 296.272L305.958 290.33L306.016 290.25L305.729 288.854L302.261 282.511L302.226 282.454L245.523 252.585L245.397 252.517L241.298 255.344L239.524 257.955L239.49 258.058C239.49 258.058 238.768 263.518 238.471 265.648C238.173 267.789 239.352 277.588 239.398 278.012V278.126L239.512 278.184C239.97 278.447 285.958 304.023 288.923 305.683C289.919 306.243 290.755 306.45 291.442 306.45C292.804 306.45 293.617 305.648 294.041 305.236ZM238.929 265.716C239.203 263.702 239.856 258.744 239.936 258.172L241.585 255.699L245.42 253.055L301.871 282.786L305.271 288.968L305.512 290.124L301.299 295.974C301.23 296.055 294.396 304.229 293.823 304.767L293.709 304.881C293.09 305.488 291.808 306.759 289.152 305.259C286.267 303.633 242.306 279.191 239.844 277.817C239.707 276.673 238.654 267.651 238.929 265.694V265.716Z" fill="#5B68B7"/>
<path d="M214.762 243.518L208.179 240.267C208.179 240.267 206.702 240.644 206.05 242.03C205.386 243.415 204.836 245.808 204.836 245.808C204.836 245.808 208.545 247.239 208.66 247.044C208.774 246.849 213.995 243.919 213.995 243.919L214.762 243.518Z" fill="#293896"/>
<path d="M324.333 303.325L321.906 300.944L317.475 297.395L318.551 300.062L321.539 305.534L324.642 308.305L325.111 308.808L324.333 303.325Z" fill="#0E1A68"/>
<path d="M317.028 317.337C317.028 317.337 325.397 322.031 325.935 322.111C326.473 322.202 327.492 320.771 327.492 320.771L327.229 320.405L324.355 319.466L321.676 317.783L320.886 318.173L317.017 317.348L317.028 317.337Z" fill="#5B68B7"/>
<path d="M202.1 246.598C202.1 246.598 203.794 247.995 205.946 249.014C208.099 250.032 209.209 248.647 209.209 248.647L203.428 245.785L202.1 246.598Z" fill="#293896"/>
<path d="M325.294 325.43L321.116 329.311L285.74 349.735L278.299 352.562L277.383 344.732L327.504 321.263L325.294 325.43Z" fill="#0E1A68"/>
<path d="M278.299 352.562C278.299 352.562 283.039 351.75 287.618 350.055C292.197 348.361 317.166 333.684 319.937 331.955C325.878 327.468 327.504 321.263 327.504 321.263L280.257 349.803L278.311 352.562H278.299Z" fill="#293896"/>
<path d="M327.504 314.429V317.337L326.84 317.417V319.111L327.504 321.263L280.257 349.804L277.761 346.427L280.509 341.55L327.504 314.429Z" fill="#5B68B7"/>
<path d="M327.504 314.429L327.768 315.928L327.516 321.263C327.516 321.263 326.68 324.526 323.864 327.113C320.83 329.895 290.744 347.159 287.435 348.144C284.047 349.151 280.257 349.815 280.257 349.815L283.749 345.946L322.387 323.633L327.504 314.44V314.429Z" fill="#5B68B7"/>
<path d="M315.127 291.716L293.146 272.162L250.913 296.547L260.839 316.707L266.002 320.451L315.127 291.716Z" fill="white"/>
<path d="M278.997 337.817L325.992 310.685L324.332 303.324L322.34 299.866L276.867 326.403L278.997 337.817Z" fill="white"/>
<path d="M325.993 310.686L327.504 314.429L280.509 341.55L278.997 337.818L325.993 310.686Z" fill="white"/>
<path d="M327.504 314.429V315.184L280.509 342.317V341.55L327.504 314.429Z" fill="white"/>
<path d="M280.508 342.316C281.721 342.488 285.694 341.71 291.212 339.088C297.589 336.054 323.668 320.988 325.969 319.065C328.694 316.787 327.492 314.417 327.492 314.417L280.508 342.305V342.316Z" fill="white"/>
<path d="M278.997 337.818C278.997 337.818 283.508 338.401 291.27 334.956C304.573 329.048 321.551 318.493 324.367 316.238C327.092 314.062 325.981 310.697 325.981 310.697L325.386 308.27L294.59 321.481L278.391 335.391L278.986 337.818H278.997Z" fill="#5B68B7"/>
<path d="M278.127 330.32C278.127 330.32 280.107 330.136 287.732 326.404C298.436 321.172 318.665 308.797 321.573 306.645C325.317 303.863 324.332 303.325 324.332 303.325L322.729 299.661L293.571 313.834L277.371 327.744L278.115 330.308L278.127 330.32Z" fill="white"/>
<path d="M236.695 250.09L187.994 278.195L250.914 296.547L293.146 272.162L271.555 258.848L259.66 252.517L244.697 251.166L236.695 250.09Z" fill="white"/>
<path d="M205.877 239.717L158.034 267.342L188.006 278.195L236.695 250.078C236.695 250.078 209.632 237.542 205.877 239.717Z" fill="white"/>
<path d="M236.695 250.09L255.539 250.754L210.433 276.799L186.597 277.554C186.597 277.554 186.7 277.371 186.884 277.051C186.506 276.432 186.826 275.94 187.17 275.356C188.212 273.616 190.284 271.487 191.165 270.765C196.409 266.495 198.813 263.702 203.781 260.714C212.058 255.745 222.648 252.918 226.941 251.509C227.926 251.189 230.215 250.674 232.333 250.41C234.612 250.124 236.695 250.09 236.695 250.09Z" fill="#293896"/>
<path d="M238.939 258.309C236.867 258.172 234.429 258.928 233.135 259.431C232.345 259.74 226.667 263.255 225.763 263.942C224.984 264.537 226.862 265.041 227.514 265.041C228.808 264.228 230.067 263.45 231.258 262.728C233.925 261.126 236.512 259.649 238.939 258.309Z" fill="#0E1A68"/>
<path d="M203.781 260.713C198.813 263.69 196.42 266.495 191.165 270.765C190.284 271.486 188.211 273.616 187.17 275.356C186.815 275.94 186.494 276.432 186.883 277.05C186.792 277.222 186.712 277.348 186.666 277.428C189.173 277.348 193.821 275.756 201.995 273.547C204.583 270.891 210.375 267.571 216.638 263.564C222.9 259.546 234.863 254.6 234.863 254.279C234.863 253.959 232.333 250.398 232.333 250.398C230.215 250.662 227.926 251.177 226.941 251.497C222.648 252.906 212.058 255.733 203.781 260.702V260.713Z" fill="#5B68B7"/>
<path d="M213.444 263.427L218.436 264.068L198.332 276.386L201.286 271.338L213.444 263.427Z" fill="#5B68B7"/>
<path d="M249.346 251.326C250.88 251.452 252.3 251.635 253.594 251.876L244.366 257.211C240.932 255.447 238.86 254.371 238.86 254.371L237.532 252.78C237.532 252.78 241.619 250.708 249.346 251.326Z" fill="#0E1A68"/>
<path d="M186.196 277.554L187.158 276.845C187.158 276.845 192.378 274.166 202.727 273.776C213.065 273.387 219.133 275.448 219.133 275.448L211.703 279.501L186.597 282.214L186.196 277.554Z" fill="white"/>
<path d="M322.844 299.867L276.879 326.404L276.776 326.347L271.075 325.454L266.026 320.451L315.151 291.716L317.143 293.261C317.143 293.261 322.169 298.665 322.775 299.707C322.81 299.764 322.833 299.821 322.855 299.867H322.844Z" fill="white"/>
<path d="M153.615 282.408C153.615 282.408 153.798 284.904 154.68 285.751C155.561 286.598 162.19 292.368 162.19 292.368L162.533 292.574V289.643C162.533 282.419 167.639 279.511 173.936 283.141C179.019 286.071 183.323 292.379 184.8 298.504C185.155 299.97 185.338 301.423 185.338 302.809V306.69L186.3 307.285L247.136 342.408V338.482C247.136 336.707 247.445 335.196 248.006 333.982C249.712 330.227 253.788 329.243 258.539 331.99C264.835 335.631 269.941 344.435 269.941 351.659V354.143L278.31 352.563L280.256 349.804V347.526L279.856 346.232V344.549L280.52 344.469V341.561L279.008 337.818C279.008 337.818 278.757 333.444 278.562 332.242C278.436 331.418 277.852 329.22 277.383 327.766C277.165 327.079 276.971 326.564 276.868 326.427C276.845 326.392 276.799 326.346 276.719 326.278C275.62 325.27 270.903 325.316 270.903 325.316C270.903 325.316 269.14 323.622 265.854 320.313C262.569 317.005 253.65 298.87 250.903 296.546C248.155 294.234 237.714 286.964 226.964 281.149C216.226 275.344 214.554 275.424 213.284 275.138C205.819 273.444 189.654 278.092 187.983 278.195C185.041 277.061 161.205 263.495 158.011 267.342C157.279 268.658 155.561 273.409 155.561 273.409L154.233 274.222V275.745L154.6 278.206L154.474 281.297L153.592 282.419L153.615 282.408Z" fill="white"/>
<path d="M153.615 282.407C153.615 282.407 153.798 284.903 154.68 285.75C155.561 286.598 162.19 292.367 162.19 292.367L162.533 292.574V289.643C162.533 282.419 167.639 279.511 173.936 283.14C179.019 286.071 183.323 292.379 184.8 298.504C185.155 299.969 185.338 301.423 185.338 302.808V306.689L186.3 307.285L247.136 342.408V338.481C247.136 336.707 247.445 335.196 248.006 333.982C249.712 330.227 253.788 329.242 258.539 331.99C264.835 335.631 269.941 344.434 269.941 351.658V354.143L278.31 352.563L280.256 349.804V347.525L279.856 346.232V344.549L280.52 344.469V342.316C280.52 342.316 277.234 342.385 275.059 338.527C272.059 333.192 269.392 329.826 263.164 325.98C262.122 325.339 247.125 316.936 237.669 311.635C228.201 306.334 192.013 287.353 178.927 281.125C163.976 274.016 162.133 280.061 160.267 282.19C160.038 282.442 154.646 278.217 154.646 278.217L154.52 281.308L153.638 282.43L153.615 282.407Z" fill="#5B68B7"/>
<path d="M262.179 328.315C267.33 332.242 270.662 338.161 270.811 346.919C264.537 335.814 262.82 332.654 256.981 330.822C251.142 328.979 246.975 330.685 246.975 330.685C246.975 330.685 249.082 318.676 262.179 328.315Z" fill="white"/>
<path d="M184.788 298.504C185.143 299.97 185.326 301.424 185.326 302.809V306.69L186.288 307.285L247.124 342.409V338.482C247.124 336.707 247.433 335.196 247.994 333.983C247.685 332.494 247.502 331.567 247.502 331.567C247.502 331.567 246.792 331.304 246.987 330.686C248.36 326.473 243.403 322.992 238.961 320.691C233.638 317.921 193.5 296.009 190.489 294.726C188.303 293.799 186.391 293.788 185.555 295.379C185.177 296.1 185.04 297.165 184.788 298.504Z" fill="#293896"/>
<path d="M232.265 324.045L241.676 332.768L238.367 332.287L190.536 305.807C190.536 305.807 195.161 305.613 198.012 307.193C200.863 308.773 232.265 324.033 232.265 324.033V324.045Z" fill="#5B68B7"/>
<path d="M247.124 342.409V338.482C247.124 336.707 247.433 335.196 247.994 333.983C249.7 330.228 253.776 329.243 258.527 331.991C264.823 335.631 269.929 344.435 269.929 351.659V354.143L278.298 352.563L280.244 349.804L278.264 349.518L271.795 350.915C271.017 342.844 265.373 333.685 258.527 329.735C253.604 326.896 249.299 327.469 246.975 330.686C245.819 332.288 245.155 334.544 245.155 337.36V338.562L187.284 306.129V303.942C187.284 301.195 186.654 298.241 185.544 295.368C183.254 289.403 178.904 283.759 173.912 280.885C166.528 276.627 160.552 280.038 160.552 288.51L160.312 289.208C154.072 285.774 153.603 282.397 153.603 282.397C153.603 282.397 153.603 284.251 154.061 285.385C155.435 288.796 162.166 292.345 162.166 292.345L162.51 292.551V289.62C162.51 282.397 167.616 279.489 173.912 283.118C178.995 286.049 183.3 292.357 184.777 298.481C185.132 299.947 185.315 301.401 185.315 302.786V306.667L186.276 307.262L247.113 342.386L247.124 342.409Z" fill="#5B68B7"/>
<path d="M255.952 317.497C239.283 308.727 189.3 282.969 189.3 282.969C189.3 282.969 170.25 272.871 167.193 272.665C164.136 272.459 159.9 275.561 159.156 276.019C158.423 276.477 155.561 273.398 155.561 273.398C155.561 273.398 157.279 268.647 158.011 267.33C161.194 263.484 185.041 277.05 187.983 278.183C189.655 278.08 201.046 272.551 213.284 275.126C214.452 275.367 216.226 275.333 226.965 281.137C237.703 286.941 248.155 294.211 250.903 296.535C253.65 298.859 262.569 316.993 265.854 320.301C269.14 323.61 270.903 325.304 270.903 325.304C270.903 325.304 275.608 325.259 276.719 326.266C277.131 327.182 277.36 327.708 277.383 327.754C277.383 327.754 268.854 324.285 255.952 317.497Z" fill="#5B68B7"/>
<path d="M268.498 350.823C268.498 357.142 264.033 359.683 258.527 356.501C253.02 353.318 248.555 345.625 248.555 339.305C248.555 332.986 253.02 330.445 258.527 333.627C264.033 336.81 268.498 344.503 268.498 350.823Z" fill="#0E1A68"/>
<path d="M268.498 350.823C268.498 357.142 264.033 359.683 258.527 356.501C253.02 353.318 248.555 345.625 248.555 339.305C248.555 332.986 253.02 330.445 258.527 333.627C264.033 336.81 268.498 344.503 268.498 350.823Z" fill="#0E1A68"/>
<path d="M267.869 350.708C267.869 356.787 263.576 359.237 258.275 356.169C252.975 353.112 248.682 345.705 248.682 339.626C248.682 333.547 252.975 331.097 258.275 334.154C263.576 337.21 267.869 344.618 267.869 350.697V350.708Z" fill="#0E1A68"/>
<path d="M266.518 349.953C266.518 355.127 262.866 357.211 258.355 354.612C253.844 352.013 250.192 345.705 250.192 340.531C250.192 335.356 253.844 333.273 258.355 335.871C262.866 338.47 266.518 344.778 266.518 349.953Z" fill="#5B68B7"/>
<path d="M266.266 349.415C266.266 354.315 262.797 356.295 258.527 353.823C254.256 351.35 250.787 345.374 250.787 340.474C250.787 335.574 254.256 333.593 258.527 336.066C262.797 338.539 266.266 344.515 266.266 349.415Z" fill="#293896"/>
<path d="M251.337 341.962C251.657 344.778 253.077 347.995 255.298 350.548C257.519 353.101 260.038 354.383 262.064 354.257C262.957 354.2 263.758 353.868 264.376 353.239C264.583 353.044 264.766 352.815 264.926 352.552C264.96 352.494 264.995 352.449 265.018 352.403C265.132 352.208 265.235 352.014 265.304 351.796C265.418 351.521 265.51 351.224 265.579 350.915C265.704 350.365 265.762 349.77 265.762 349.14C265.762 348.854 265.75 348.568 265.727 348.27C265.727 348.121 265.704 347.972 265.682 347.823C265.67 347.72 265.659 347.629 265.647 347.526C265.636 347.434 265.624 347.343 265.601 347.251C265.556 346.976 265.498 346.69 265.43 346.404C265.395 346.266 265.361 346.129 265.327 345.992C265.304 345.877 265.269 345.763 265.224 345.648C265.178 345.488 265.121 345.305 265.063 345.145C265.029 345.019 264.983 344.893 264.937 344.778C264.743 344.24 264.525 343.714 264.262 343.187C264.205 343.072 264.159 342.969 264.102 342.866C263.919 342.511 263.724 342.157 263.518 341.802C263.461 341.71 263.415 341.63 263.358 341.538C263.254 341.378 263.151 341.218 263.048 341.069C262.648 340.474 262.213 339.901 261.743 339.352C261.503 339.077 261.263 338.825 261.022 338.585C260.908 338.47 260.793 338.356 260.679 338.241C260.644 338.207 260.61 338.173 260.576 338.138C260.484 338.047 260.381 337.966 260.289 337.886C259.133 336.89 257.954 336.215 256.843 335.871C254.886 335.276 253.123 335.734 252.115 337.337C252.081 337.383 252.047 337.44 252.024 337.486C251.829 337.806 251.68 338.173 251.566 338.55C251.257 339.546 251.188 340.714 251.337 341.951V341.962Z" fill="#5B68B7"/>
<path d="M260.907 339.615L260.976 341.79C261.789 341.722 262.602 341.642 263.357 341.55C263.254 341.39 263.151 341.23 263.048 341.081C262.648 340.485 262.213 339.913 261.743 339.363C261.503 339.089 261.262 338.837 261.022 338.596C260.908 338.482 260.793 338.367 260.679 338.253C260.644 338.219 260.61 338.184 260.575 338.15C260.484 338.058 260.381 337.978 260.289 337.898C259.133 336.902 257.954 336.227 256.843 335.883C254.886 335.288 253.123 335.746 252.115 337.349C257.736 335.425 260.896 339.604 260.896 339.604L260.907 339.615Z" fill="#BBD2E9"/>
<path d="M251.805 341.927C251.805 341.927 253.683 344.411 255.606 345.064C257.53 345.717 261.262 350.227 261.262 350.227L260.976 341.778C256.568 342.11 251.805 341.927 251.805 341.927Z" fill="#BBD2E9"/>
<path d="M255.665 340.473C255.939 342.889 257.153 345.659 259.065 347.846C260.118 349.059 261.263 349.941 262.35 350.456C263.243 350.891 264.091 351.074 264.869 351.028C264.926 351.028 264.983 351.028 265.052 351.005C265.235 350.994 265.419 350.96 265.59 350.902C265.716 350.353 265.773 349.758 265.773 349.128C265.773 348.842 265.762 348.556 265.739 348.258C265.739 348.109 265.716 347.96 265.693 347.811C265.682 347.708 265.67 347.617 265.659 347.514C265.648 347.422 265.636 347.331 265.613 347.239C265.567 346.964 265.51 346.678 265.441 346.392C265.407 346.254 265.373 346.117 265.338 345.98C265.315 345.865 265.281 345.751 265.235 345.636C265.19 345.476 265.132 345.293 265.075 345.133C265.041 345.007 264.995 344.881 264.949 344.766C264.755 344.228 264.537 343.701 264.274 343.175C264.216 343.06 264.171 342.957 264.113 342.854C263.93 342.499 263.736 342.144 263.53 341.79C263.381 341.549 263.22 341.297 263.06 341.057C262.66 340.462 262.225 339.889 261.755 339.34C261.515 339.065 261.274 338.813 261.034 338.573C260.919 338.458 260.805 338.344 260.69 338.229C260.656 338.195 260.622 338.16 260.587 338.126C260.496 338.035 260.393 337.954 260.301 337.874C259.145 336.878 257.966 336.203 256.855 335.859C256.638 336.077 256.443 336.329 256.26 336.626C256.1 336.901 255.974 337.199 255.871 337.531C255.733 338 255.642 338.515 255.619 339.065C255.596 339.511 255.619 339.969 255.676 340.45L255.665 340.473Z" fill="#0E1A68"/>
<path d="M261.239 344.538L262.556 343.771L263.518 341.802C263.369 341.562 263.208 341.31 263.048 341.069C262.647 340.474 262.212 339.902 261.743 339.352C261.503 339.077 261.262 338.826 261.022 338.585C260.907 338.471 260.793 338.356 260.678 338.242C260.644 338.207 260.61 338.173 260.575 338.139C260.312 338.287 260.106 338.425 260.095 338.436L261.755 340.337L261.239 344.515V344.538Z" fill="#293896"/>
<path d="M261.239 344.538L261.056 346.233L262.361 350.457L262.945 352.357C263.139 352.77 262.555 353.72 262.83 353.674C263.265 353.582 264.353 352.941 264.937 352.552C264.971 352.495 265.005 352.449 265.028 352.403C265.143 352.209 265.246 352.014 265.314 351.796C265.303 351.693 265.269 351.602 265.211 351.487L265.051 351.007L262.67 343.989L262.555 343.76L261.239 344.527V344.538Z" fill="#293896"/>
<path d="M253.259 338.229C253.374 338.172 253.523 338.184 253.683 338.275L260.014 340.954L260.186 341.057V344.457L258.789 343.644L253.546 341.584C253.214 341.401 252.95 340.943 252.927 340.565C252.893 339.821 251.748 339.66 251.886 339.019C251.908 338.893 253.168 338.275 253.248 338.229H253.259Z" fill="#293896"/>
<path d="M259.922 347.228L262.67 341.572C262.807 341.344 262.727 340.908 262.475 340.565C262.212 340.21 261.937 339.867 261.651 339.535C261.365 339.203 261.067 338.894 260.769 338.607C260.483 338.333 260.163 338.298 260.037 338.539L257.289 344.194L259.945 347.228H259.922Z" fill="white"/>
<path d="M258.881 345.224V341.824L258.698 341.721L252.367 339.042C252.081 338.882 251.829 338.962 251.771 339.248C251.634 339.89 251.577 340.599 251.611 341.332C251.634 341.721 251.897 342.168 252.229 342.351L257.473 344.412L258.881 345.224Z" fill="white"/>
<path d="M263.873 353.124C264.056 352.975 264.067 352.62 263.896 352.254L261.354 344.755L261.251 344.526L258.893 345.213L259.74 346.988L261.629 353.113C261.823 353.525 262.19 353.799 262.465 353.754C262.991 353.651 263.461 353.433 263.884 353.113L263.873 353.124Z" fill="white"/>
<path d="M262.453 352.929C262.453 352.929 262.384 352.849 262.35 352.781L260.415 346.553L257.999 343.782L252.63 341.653C252.55 341.607 252.435 341.412 252.424 341.298C252.401 340.863 252.424 340.439 252.458 340.05L258.995 342.844L260.449 339.443C260.644 339.649 260.85 339.855 261.033 340.073C261.308 340.382 261.571 340.714 261.823 341.058C261.88 341.138 261.914 341.206 261.926 341.264L260.438 344.732L263.174 352.632C262.956 352.769 262.727 352.872 262.475 352.929H262.453Z" fill="#293896"/>
<path d="M183.896 301.985C183.896 308.304 179.432 310.846 173.925 307.663C168.418 304.48 163.953 296.787 163.953 290.468C163.953 284.148 168.418 281.607 173.925 284.789C179.432 287.972 183.896 295.665 183.896 301.985Z" fill="#0E1A68"/>
<path d="M183.896 301.985C183.896 308.304 179.432 310.846 173.925 307.663C168.418 304.48 163.953 296.787 163.953 290.468C163.953 284.148 168.418 281.607 173.925 284.789C179.432 287.972 183.896 295.665 183.896 301.985Z" fill="#0E1A68"/>
<path d="M183.277 301.869C183.277 307.948 178.984 310.398 173.684 307.342C168.383 304.285 164.09 296.878 164.09 290.799C164.09 284.72 168.383 282.27 173.684 285.327C178.984 288.383 183.277 295.79 183.277 301.869Z" fill="#0E1A68"/>
<path d="M181.928 301.114C181.928 306.289 178.276 308.372 173.765 305.773C169.254 303.175 165.602 296.867 165.602 291.692C165.602 286.517 169.254 284.434 173.765 287.032C178.276 289.631 181.928 295.939 181.928 301.114Z" fill="#5B68B7"/>
<path d="M181.664 300.576C181.664 305.476 178.195 307.457 173.925 304.984C169.655 302.511 166.186 296.535 166.186 291.635C166.186 286.735 169.655 284.755 173.925 287.227C178.195 289.7 181.664 295.676 181.664 300.576Z" fill="#293896"/>
<path d="M166.747 293.124C167.068 295.94 168.487 299.157 170.708 301.71C172.929 304.263 175.448 305.545 177.474 305.42C178.367 305.362 179.168 305.03 179.787 304.401C179.993 304.206 180.176 303.977 180.336 303.714C180.37 303.656 180.405 303.611 180.428 303.565C180.542 303.37 180.645 303.176 180.714 302.958C180.828 302.683 180.92 302.386 180.989 302.077C181.115 301.527 181.172 300.932 181.172 300.302C181.172 300.016 181.16 299.73 181.137 299.432C181.137 299.283 181.115 299.134 181.092 298.986C181.08 298.882 181.069 298.791 181.057 298.688C181.046 298.596 181.034 298.505 181.012 298.413C180.966 298.138 180.909 297.852 180.84 297.566C180.805 297.429 180.771 297.291 180.737 297.154C180.714 297.039 180.68 296.925 180.634 296.81C180.588 296.65 180.531 296.467 180.474 296.307C180.439 296.181 180.393 296.055 180.348 295.94C180.153 295.402 179.935 294.876 179.672 294.349C179.615 294.234 179.569 294.131 179.512 294.028C179.329 293.674 179.134 293.319 178.928 292.964C178.871 292.872 178.825 292.792 178.768 292.7C178.665 292.54 178.562 292.38 178.459 292.231C178.058 291.636 177.623 291.063 177.154 290.514C176.913 290.239 176.673 289.987 176.432 289.747C176.318 289.632 176.203 289.518 176.089 289.403C176.054 289.369 176.02 289.335 175.986 289.3C175.894 289.209 175.791 289.129 175.7 289.048C174.543 288.052 173.364 287.377 172.254 287.034C170.296 286.438 168.533 286.896 167.526 288.499C167.491 288.545 167.457 288.602 167.434 288.648C167.239 288.968 167.09 289.335 166.976 289.712C166.667 290.708 166.598 291.876 166.747 293.113V293.124Z" fill="#5B68B7"/>
<path d="M176.306 290.766L176.375 292.941C177.187 292.872 178 292.792 178.756 292.7C178.653 292.54 178.55 292.38 178.447 292.231C178.046 291.636 177.611 291.063 177.142 290.514C176.901 290.239 176.661 289.987 176.42 289.747C176.306 289.632 176.191 289.518 176.077 289.403C176.043 289.369 176.008 289.335 175.974 289.3C175.882 289.209 175.779 289.129 175.688 289.048C174.531 288.052 173.352 287.377 172.242 287.034C170.284 286.438 168.521 286.896 167.514 288.499C173.135 286.576 176.294 290.754 176.294 290.754L176.306 290.766Z" fill="#BBD2E9"/>
<path d="M167.206 293.088C167.206 293.088 169.083 295.573 171.007 296.225C172.93 296.878 176.662 301.388 176.662 301.388L176.376 292.939C171.968 293.271 167.206 293.088 167.206 293.088Z" fill="#BBD2E9"/>
<path d="M171.075 291.635C171.349 294.051 172.563 296.821 174.475 299.008C175.528 300.221 176.673 301.103 177.76 301.618C178.653 302.053 179.501 302.236 180.279 302.19C180.336 302.19 180.394 302.19 180.462 302.168C180.646 302.156 180.829 302.122 181 302.065C181.126 301.515 181.184 300.92 181.184 300.29C181.184 300.004 181.172 299.718 181.149 299.42C181.149 299.271 181.126 299.122 181.103 298.974C181.092 298.87 181.081 298.779 181.069 298.676C181.058 298.584 181.046 298.493 181.023 298.401C180.978 298.126 180.92 297.84 180.852 297.554C180.817 297.417 180.783 297.279 180.749 297.142C180.726 297.027 180.691 296.913 180.645 296.798C180.6 296.638 180.542 296.455 180.485 296.295C180.451 296.169 180.405 296.043 180.359 295.928C180.165 295.39 179.947 294.864 179.684 294.337C179.627 294.222 179.581 294.119 179.524 294.016C179.34 293.661 179.146 293.307 178.94 292.952C178.791 292.711 178.631 292.459 178.47 292.219C178.07 291.624 177.635 291.051 177.165 290.502C176.925 290.227 176.684 289.975 176.444 289.735C176.329 289.62 176.215 289.506 176.101 289.391C176.066 289.357 176.032 289.323 175.997 289.288C175.906 289.197 175.803 289.117 175.711 289.036C174.555 288.04 173.376 287.365 172.265 287.021C172.048 287.239 171.853 287.491 171.681 287.789C171.521 288.063 171.395 288.361 171.292 288.693C171.155 289.162 171.063 289.677 171.04 290.227C171.017 290.673 171.04 291.131 171.098 291.612L171.075 291.635Z" fill="#0E1A68"/>
<path d="M176.638 295.688L177.966 294.921L178.928 292.952C178.779 292.711 178.619 292.459 178.458 292.219C178.058 291.624 177.623 291.051 177.153 290.502C176.913 290.227 176.672 289.975 176.432 289.735C176.318 289.62 176.203 289.506 176.089 289.391C176.054 289.357 176.02 289.322 175.986 289.288C175.722 289.437 175.516 289.574 175.505 289.586L177.165 291.486L176.65 295.665L176.638 295.688Z" fill="#293896"/>
<path d="M176.637 295.688L176.454 297.382L177.759 301.606L178.343 303.507C178.538 303.919 177.954 304.869 178.229 304.823C178.664 304.732 179.751 304.091 180.335 303.702C180.369 303.644 180.404 303.598 180.427 303.553C180.541 303.358 180.644 303.163 180.713 302.946C180.701 302.843 180.667 302.751 180.61 302.637L180.45 302.156L178.068 295.138L177.954 294.909L176.626 295.676L176.637 295.688Z" fill="#293896"/>
<path d="M168.66 289.38C168.774 289.322 168.923 289.334 169.083 289.426L175.414 292.104L175.586 292.207V295.608L174.189 294.795L168.946 292.734C168.614 292.551 168.351 292.093 168.328 291.715C168.293 290.971 167.149 290.811 167.286 290.17C167.309 290.044 168.568 289.426 168.648 289.38H168.66Z" fill="#5B68B7"/>
<path d="M175.321 298.378L178.068 292.723C178.206 292.494 178.125 292.059 177.874 291.715C177.61 291.361 177.335 291.017 177.049 290.685C176.763 290.353 176.465 290.044 176.168 289.758C175.882 289.483 175.561 289.449 175.435 289.689L172.687 295.345L175.343 298.378H175.321Z" fill="white"/>
<path d="M174.279 296.375V292.975L174.096 292.872L167.765 290.193C167.479 290.033 167.227 290.113 167.17 290.399C167.032 291.04 166.975 291.75 167.01 292.482C167.033 292.872 167.296 293.318 167.628 293.501L172.871 295.562L174.279 296.375Z" fill="white"/>
<path d="M179.271 304.274C179.454 304.126 179.466 303.771 179.294 303.404L176.753 295.906L176.65 295.677L174.291 296.364L175.138 298.138L177.027 304.263C177.222 304.675 177.588 304.95 177.863 304.904C178.39 304.801 178.859 304.584 179.283 304.263L179.271 304.274Z" fill="white"/>
<path d="M177.862 304.079C177.862 304.079 177.794 303.999 177.759 303.93L175.825 297.702L173.409 294.932L168.04 292.802C167.96 292.756 167.845 292.562 167.834 292.447C167.811 292.012 167.834 291.589 167.868 291.2L174.405 293.993L175.859 290.593C176.054 290.799 176.26 291.005 176.443 291.222C176.718 291.532 176.981 291.864 177.233 292.207C177.29 292.287 177.313 292.356 177.336 292.413L175.836 295.882L178.572 303.781C178.355 303.919 178.126 304.022 177.874 304.079H177.862Z" fill="#293896"/>
<path d="M245.705 329.964C245.911 329.643 246.071 329.391 246.163 329.3C249.185 326.003 251.956 324.846 251.99 324.846H252.024L256.329 318.859L256.363 318.813L256.089 317.474V317.439L250.902 312.116L194.233 282.259H194.199L189.311 282.843H189.23L188.349 285.796C188.349 285.854 187.902 291.303 187.902 293.444C187.902 296.191 189.906 306.174 189.997 306.598V306.655L190.055 306.678C190.524 306.941 236.512 332.517 239.466 334.177C239.855 334.394 240.244 334.497 240.622 334.497C242.797 334.497 244.789 331.406 245.728 329.964H245.705ZM188.12 293.455C188.12 291.326 188.566 285.876 188.566 285.854L189.402 283.083L194.142 282.499L250.731 312.311L255.848 317.565L256.1 318.779L251.864 324.652C251.544 324.789 248.876 326.003 245.991 329.162C245.888 329.266 245.739 329.517 245.51 329.861C244.446 331.509 241.961 335.356 239.557 334.005C236.638 332.368 191.909 307.491 190.192 306.529C190.032 305.728 188.109 296.1 188.109 293.478L188.12 293.455Z" fill="#5B68B7"/>
<path d="M218.836 322.637L218.298 320.885V320.851L219.111 317.863C219.065 317.428 218.309 310.879 218.309 309.082C218.309 307.285 219.351 302.133 219.397 301.927V301.893L221.847 297.016L222.053 297.119L219.626 301.984C219.557 302.293 218.55 307.296 218.55 309.082C218.55 310.868 219.351 317.783 219.351 317.852V317.874V317.897L218.55 320.885L219.065 322.58L218.847 322.648L218.836 322.637Z" fill="#5B68B7"/>
<path d="M188.83 279.774L189.299 282.98C189.299 282.98 239.282 308.739 255.951 317.508C255.951 317.508 252.494 301.091 251.761 299.901C251.028 298.721 248.327 295.94 240.565 290.742C232.803 285.544 222.911 280.381 221.148 279.534C219.385 278.687 212.951 275.699 208.086 275.722C196.832 275.779 188.83 279.786 188.83 279.786V279.774Z" fill="#0E1A68"/>
<path d="M253.971 314.875C236.604 305.785 196.168 284.938 190.593 282.053L190.375 280.61C192.734 279.614 199.465 277.141 208.109 277.096H208.166C212.459 277.096 218.263 279.672 220.553 280.771C222.637 281.778 232.356 286.895 239.798 291.887C248.166 297.497 250.136 299.935 250.559 300.599C250.983 301.526 252.517 308.121 253.971 314.875Z" fill="#293896"/>
<path d="M272.185 350.686C272.185 350.686 278.413 349.141 278.951 349.232C279.489 349.324 280.256 349.312 280.256 349.312V347.526L277.382 346.588L272.15 346.37L271.361 346.759L272.185 350.686Z" fill="#BBD2E9"/>
<path d="M154.257 274.223C154.257 274.223 154.257 276.604 156.409 277.623C158.561 278.642 159.672 277.257 159.672 277.257C158.035 277.28 155.585 273.41 155.585 273.41L154.257 274.223Z" fill="white"/>
<path d="M312.839 299.42C310.171 301.813 304.688 305.179 299.066 308.35C298.929 308.418 298.792 308.499 298.654 308.579C298.505 308.67 298.345 308.75 298.196 308.842C298.185 308.842 298.162 308.853 298.151 308.865C298.002 308.945 297.853 309.025 297.704 309.105C296.09 310.01 294.476 310.891 292.942 311.716C292.758 311.807 292.598 311.91 292.415 312.002C291.179 312.654 289.999 313.272 288.9 313.845C288.9 313.845 288.877 313.856 288.855 313.868C281.035 317.737 273.674 319.569 272.724 319.718C271.865 319.844 268.19 317.451 265.695 313.479C265.134 312.586 264.481 311.521 263.691 310.239C259.432 303.301 253.136 295.539 253.136 295.539L253.067 295.562C254.704 294.841 262.043 291.463 274.899 284.228C279.536 281.618 290.034 275.104 292.381 272.597C306.485 284.892 317.04 294.417 317.04 294.417C317.04 294.417 317.201 295.505 312.839 299.409V299.42Z" fill="#293896"/>
<path d="M305.5 288.9C300.715 286.381 293.17 282.454 284.859 278.138C287.767 276.249 290.434 274.383 291.831 273.124C293.056 274.235 293.697 275.013 294.006 275.505C294.739 276.684 305.5 288.888 305.5 288.888V288.9Z" fill="#0E1A68"/>
<path d="M289.278 310.136C292.14 308.579 293.903 307.606 295.014 306.999C293.067 308.087 291.11 309.151 289.278 310.136Z" fill="#293896"/>
<path d="M322.694 302.614C322.225 303.015 321.618 303.507 320.84 304.08C317.932 306.232 297.703 318.619 286.998 323.84C279.362 327.56 277.382 327.743 277.382 327.743L276.764 326.335L276.729 326.244L297.256 312.941L322.751 299.684C322.751 299.684 322.809 299.798 322.832 299.844C323.381 300.886 323.335 301.767 322.683 302.591L322.694 302.614Z" fill="white"/>
<path d="M214.325 274.543C214.325 274.543 225.247 266.06 229.139 263.816C233.032 261.573 242.282 256.249 244.721 254.818C250.09 251.67 255.539 250.754 255.539 250.754L260.176 252.78L224.503 275.7L214.325 274.543Z" fill="white"/>
<path d="M158.035 267.342C158.538 263.152 164.846 256.947 168.292 254.074C170.822 251.979 173.902 249.643 178.71 246.827C184.034 243.713 195.07 240.255 207.583 239.008C208.579 238.905 210.514 241.744 210.514 241.744L168.212 268.487L158.035 267.331V267.342Z" fill="white"/>
<path d="M232.333 250.398C232.333 250.398 235.173 250.353 244.366 250.444C253.341 250.536 255.39 251.303 255.39 251.303L255.539 250.753C255.539 250.753 245.27 249.643 236.695 250.089C233.913 249.872 232.333 250.41 232.333 250.41V250.398Z" fill="white"/>
<path d="M158.642 268.865C158.642 268.865 158.848 267.216 160.256 264.663C159.386 264.72 158.55 265.533 158.55 265.533C158.55 265.533 157.474 267.365 156.501 269.46C155.7 271.2 156.135 272.952 156.135 272.952C156.135 272.952 156.306 273.455 157.154 274.337C158.001 275.207 159.455 275.47 159.455 275.47C159.569 275.276 162.672 273.57 162.672 273.57L164.812 272.723C164.812 272.723 158.928 271.566 158.642 268.865Z" fill="#293896"/>
<path d="M286.701 323.988C280.256 326.587 269.162 324.881 265.911 322.958C262.66 321.034 274.52 329.071 276.867 329.037C279.203 329.002 286.701 323.988 286.701 323.988Z" fill="white"/>
<path d="M278.996 337.818C278.996 337.818 277.886 337.921 276.352 335.998C275.356 334.75 273.822 331.316 272.746 329.667C272.746 329.667 273.57 327.79 272.746 326.942C280.13 329.736 282.935 328.763 286.312 327.103C289.689 325.443 294.303 330.4 294.303 330.4L278.985 337.818H278.996Z" fill="#BBD2E9"/>
<path d="M296.021 330.056C294.876 330.056 293.606 328.9 293.365 328.671L284.069 328.957L283.611 325.351C283.497 324.504 282.982 323.771 282.203 323.393C281.093 322.844 279.181 322.008 276.399 321.081C272.598 319.821 270.743 317.635 270.732 317.612L270.915 317.463C270.915 317.463 272.747 319.615 276.479 320.863C279.272 321.79 281.196 322.638 282.318 323.187C283.153 323.599 283.726 324.401 283.852 325.328L284.287 328.717L293.468 328.43L293.503 328.465C293.503 328.465 295.357 330.285 296.559 329.701C300.12 327.972 311.133 321.607 314.899 318.986C315.804 318.23 316.113 315.196 316.113 315.162V315.127L316.147 315.093L321.906 309.094L322.73 306.186L322.295 303.141C322.261 303.015 322.238 302.866 322.226 302.706C322.169 302.248 322.02 300.84 316.731 294.589C316.25 294.028 313.846 295.288 312.449 296.226L312.381 296.272L312.312 296.226L308.008 293.227L308.145 293.032L312.381 295.986C312.988 295.585 316.159 293.559 316.903 294.429C321.677 300.073 322.352 301.836 322.444 302.672C322.467 302.821 322.478 302.958 322.512 303.084L322.959 306.186V306.209L322.078 309.22L316.33 315.208C316.285 315.597 315.964 318.367 315.025 319.146C311.236 321.767 300.211 328.156 296.639 329.884C296.433 329.987 296.227 330.022 296.01 330.022L296.021 330.056Z" fill="#5B68B7"/>
<path d="M293.41 328.557L292.3 331.877L282.901 335.998L278.413 335.391L277.772 334.762L272.757 329.667V326.942C272.757 326.942 280.496 329.278 284.458 328.248C287.881 327.366 291.945 324.847 292.987 324.172L293.41 328.557Z" fill="#0E1A68"/>
<path d="M325.946 310.48L324.514 313.307L319.317 316.833L316.226 315.185L315.734 310.937C316.661 310.342 321.069 307.537 323.061 306.049C324.137 305.248 324.411 304.378 324.526 304.114C324.824 305.213 325.911 309.289 325.957 310.468L325.946 310.48Z" fill="#0E1A68"/>
<path d="M292.976 324.171L315.723 310.948L316.662 313.753L292.472 327.926L292.976 324.171Z" fill="#0E1A68"/>
<path d="M289.026 327.228L319.822 309.323L320.314 309.919L288.511 328.545L289.026 327.228Z" fill="#293896"/>
<path d="M186.884 277.051C186.861 275.459 190.078 271.647 191.166 270.766C196.959 266.049 202.855 262.122 208.258 258.974C215.894 254.532 222.912 252.826 226.942 251.51C227.526 251.315 232.334 250.41 232.334 250.41C231.029 250.09 228.087 249.06 220.702 250.765C213.273 252.483 205.305 256.81 199.855 260.073C194.417 263.336 186.598 268.968 185.121 273.422C184.537 275.185 185.831 276.467 186.884 277.062V277.051Z" fill="#0E1A68"/>
<path d="M160.633 264.331C160.633 264.331 162.579 263.598 165.922 263.701C169.139 263.793 177.622 264.674 188.006 267.972C186.976 268.498 187.433 268.258 187.433 268.258C187.433 268.258 170.936 264.102 165.224 264.491C161.95 264.869 161.16 265.109 161.16 265.109L160.644 264.331H160.633Z" fill="white"/>
<path d="M193.605 241.961C193.605 241.961 196.867 241.824 201.218 244.079C205.568 246.334 214.761 252.013 214.761 252.013L215.311 251.852C215.311 251.852 204.08 244.926 200.977 243.438C197.875 241.95 194.417 241.744 193.616 241.972L193.605 241.961Z" fill="white"/>
<path d="M290.468 326.518C290.468 326.518 285.201 329.083 283.541 329.197C282.5 329.266 280.874 329.14 279.786 329.025V330.445L280.748 332.655C281.767 332.769 283.232 332.849 283.232 332.849L290.055 329.953L290.582 328.327L290.468 326.507V326.518Z" fill="#293896"/>
<path d="M323.737 306.541L318.311 310.308L318.505 311.784L319.582 312.826L323.898 309.678L324.195 308.212L323.737 306.541Z" fill="#293896"/>
<path d="M225.728 283.278C225.728 283.278 222.797 286.93 220.152 294.521C218.973 297.898 219.145 297.944 219.145 297.944L224.297 300.577C224.297 300.577 225.064 293.948 228.956 284.915C229.323 284.068 225.728 283.278 225.728 283.278Z" fill="#0E1A68"/>
<path d="M254.245 296.398C254.085 296.284 238.596 285.293 231.738 281.412C225.018 277.612 216.294 274.727 213.799 274.417L213.821 274.188C216.248 274.486 224.812 277.222 231.852 281.206C238.721 285.087 254.223 296.089 254.383 296.204L254.245 296.398Z" fill="#0E1A68"/>
<path d="M292.3 272.688C288.431 269.288 272.872 259.775 264.756 255.367C257.2 251.257 254.189 251.165 254.154 251.165V250.937C254.28 250.937 257.234 251.028 264.859 255.172C272.082 259.099 288.316 268.887 292.438 272.517L292.289 272.688H292.3Z" fill="#0E1A68"/>
<path d="M287.434 348.133C287.434 348.133 289.495 347.205 290.354 345.889C291.212 344.572 294.315 343.187 294.315 343.187C294.315 343.187 303.37 338.15 309.278 334.967C315.185 331.785 322.684 326.724 322.684 326.724C322.684 326.724 323.657 325.774 323.886 326.232C324.115 326.69 324.172 326.782 324.172 326.782C324.172 326.782 323.348 328.705 320.52 331.006C319.306 331.991 291.704 347.721 289.827 348.694C289.048 349.094 287.022 350.022 285.385 350.48C283.084 351.121 280.634 351.281 280.233 349.816C283.164 349.232 287.675 348.179 287.675 348.179L287.411 348.144L287.434 348.133Z" fill="#0E1A68"/>
<path d="M161.068 273.96C161.068 273.96 159.855 274.979 159.374 275.15C158.893 275.322 156.775 274.131 156.306 272.906C157.027 271.693 157.622 271.258 157.622 271.258C157.622 271.258 157.668 272.334 161.057 273.96H161.068Z" fill="white"/>
<path d="M158.64 268.865C158.64 268.865 158.847 267.216 160.255 264.663C160.037 264.675 159.82 264.743 159.625 264.823C159.465 264.938 159.35 265.029 159.35 265.029C159.35 265.029 157.53 268.498 157.209 269.551C156.889 270.605 156.969 271.544 156.969 271.544L158.377 269.826V270.41C158.377 270.41 158.308 270.673 159.499 271.601C160.69 272.54 161.846 273.043 161.846 273.043L162.934 272.208C161.182 271.635 158.812 270.547 158.64 268.865Z" fill="white"/>
<path d="M209.529 250.845L201.675 254.657C201.355 254.806 201.389 255.104 201.744 255.31L202.328 255.653C202.683 255.86 203.232 255.905 203.541 255.757L211.395 251.944C211.715 251.795 211.681 251.498 211.326 251.292L210.742 250.948C210.387 250.742 209.838 250.696 209.529 250.845Z" fill="#0E1A68"/>
<path d="M192.344 260.805L185.922 265.591C185.658 265.785 185.716 266.094 186.036 266.278L186.563 266.587C186.883 266.77 187.353 266.77 187.616 266.587L194.039 261.801C194.302 261.607 194.245 261.298 193.924 261.114L193.398 260.805C193.077 260.622 192.608 260.622 192.344 260.805Z" fill="#0E1A68"/>
<path d="M227.961 263.918C227.961 263.918 208.59 260.244 201.458 263.918C195.184 268.303 191.189 270.593 187.594 276.18C193.925 273.524 201.069 273.478 205.74 273.306C211.04 273.111 214.326 274.016 214.326 274.016C214.326 274.016 219.123 269.459 227.961 263.907V263.918Z" fill="#0E1A68"/>
<path d="M251.211 318.756C251.704 319.992 251.177 320.828 250.914 321.126C250.639 321.458 245.911 318.607 245.442 318.16C244.972 317.714 245.27 316.478 245.35 316.18C245.43 315.882 251.2 318.744 251.2 318.744L251.211 318.756Z" fill="#5B68B7"/>
<path d="M247.227 316.157L250.455 318.024C250.867 318.264 251.211 318.848 251.211 319.329V319.5C251.211 319.981 250.867 320.176 250.455 319.935L246.025 317.371C245.521 317.085 245.269 316.249 245.613 316.032C246.036 315.768 246.62 315.814 247.238 316.169L247.227 316.157Z" fill="#BBD2E9"/>
<path d="M249.918 318.665C249.918 318.928 250.101 319.237 250.33 319.363C250.559 319.489 250.742 319.386 250.742 319.134C250.742 318.882 250.559 318.562 250.33 318.436C250.101 318.31 249.918 318.413 249.918 318.665Z" fill="#0E1A68"/>
<path d="M216.969 299.844C217.462 301.08 216.935 301.916 216.672 302.213C216.397 302.545 211.669 299.695 211.199 299.248C210.73 298.802 211.028 297.565 211.108 297.268C211.188 296.97 216.958 299.832 216.958 299.832L216.969 299.844Z" fill="#5B68B7"/>
<path d="M212.996 297.245L216.225 299.111C216.637 299.352 216.98 299.936 216.98 300.416V300.588C216.98 301.069 216.637 301.264 216.225 301.023L211.794 298.459C211.291 298.173 211.039 297.337 211.382 297.119C211.806 296.856 212.39 296.902 213.008 297.257L212.996 297.245Z" fill="#BBD2E9"/>
<path d="M215.687 299.741C215.687 300.004 215.871 300.313 216.1 300.439C216.329 300.565 216.512 300.462 216.512 300.21C216.512 299.958 216.329 299.638 216.1 299.512C215.871 299.386 215.687 299.489 215.687 299.741Z" fill="#0E1A68"/>
<path d="M184.548 285.476C182.671 284.938 182.43 285.293 182.579 285.705C182.739 286.14 185.773 289.082 186.357 288.991C186.941 288.899 186.071 287.754 186.586 286.3C185.853 285.991 184.548 285.488 184.548 285.488V285.476Z" fill="#0E1A68"/>
<path d="M312.838 299.421C310.171 301.813 304.687 305.179 299.066 308.35C298.929 308.419 298.791 308.499 298.654 308.579C298.505 308.671 298.345 308.751 298.196 308.842C298.185 308.842 298.162 308.854 298.15 308.865C296.204 309.953 294.246 311.018 292.415 312.002C291.178 312.655 289.999 313.273 288.9 313.845C288.9 313.845 288.877 313.857 288.854 313.868C281.035 317.738 273.674 319.57 272.724 319.718C271.865 319.844 268.19 317.452 265.694 313.479C267.32 312.723 278.711 307.457 284.95 304.16C291.671 300.611 304.664 291.716 304.664 291.716L317.029 294.418C317.029 294.418 317.189 295.505 312.827 299.409L312.838 299.421Z" fill="#5B68B7"/>
<path d="M271.166 287.056C271.166 287.056 278.779 292.516 285.213 299.924C291.636 307.331 295.059 309.723 295.059 309.723C295.059 309.723 287.755 314.028 281.584 316.237C275.413 318.458 272.494 319.821 271.796 318.79C269.598 314.99 256.604 298.721 254.177 295.974C261.721 292.642 271.166 287.067 271.166 287.067V287.056Z" fill="#0E1A68"/>
<path d="M377.341 304.978L379.634 304.557L380.897 307.543L380.956 308.058L381.01 311.536C381.01 311.536 381.133 314.2 379.5 314.51C378.308 314.739 379.371 314.54 379.371 314.54C377.733 314.838 377.346 312.871 377.346 312.871L376.256 307.642C376.084 306.524 376.288 305.171 377.341 304.978Z" fill="white"/>
<path d="M378.33 306.869C377.937 307.783 378.743 308.995 379.463 309.399C379.715 309.545 379.125 311.343 379.221 312.197C379.318 313.093 380.092 313.035 380.274 312.888C380.419 312.771 380.838 309.896 380.967 309.17C381.397 306.764 380.688 306.266 379.968 305.85C379.248 305.441 378.727 305.95 378.33 306.863V306.869Z" fill="white"/>
<path d="M380.721 307.519C378.363 310.242 376.606 308.023 376.606 308.023C376.606 308.023 376.133 305.423 376.026 304.984C375.446 302.501 373.303 293.97 372.948 290.797C372.556 287.307 372.234 281.007 372.234 281.007C372.234 281.007 368.446 274.953 371.6 273.659C373.405 272.915 377.493 272.945 379.018 281.388C379.41 283.566 379.792 289.403 380.055 292.278C380.544 297.6 381.307 306.389 381.307 306.389C381.307 306.389 381.414 306.717 380.716 307.525L380.721 307.519Z" fill="#C5CDFF"/>
<path d="M367.368 278.98C367.368 278.98 361.696 283.377 360.933 285.637C360.17 287.897 360.17 307.523 362.351 308.946C364.532 310.375 375.587 313.314 378.354 309.941C381.12 306.569 379.594 287.897 377.741 283.857C375.888 279.817 375.351 277.621 375.351 277.621L367.374 278.985L367.368 278.98Z" fill="#C5CDFF"/>
<path d="M378.684 341.022L379.393 342.469C379.393 342.469 385.34 344.641 385.705 344.822C386.124 345.027 387.048 345.385 386.968 346.21C386.946 346.409 386.962 346.538 386.85 346.714C386.457 347.364 385.63 347.662 384.857 347.844C383.175 348.218 379.592 347.791 379.592 347.791C378.55 347.691 376.804 347.2 376.611 347.036C376.611 347.036 375.708 346.784 375.558 347.124C375.504 347.252 375.612 347.803 375.633 347.914L373.382 347.018C373.27 346.965 373.022 345.812 372.953 345.303L372.883 341.918L378.684 341.017V341.022Z" fill="#0E1A68"/>
<path d="M385.796 347.217C385.361 347.463 384.743 347.603 384.126 347.703C381.665 348.089 377.894 347.317 377.894 347.317C377.524 347.235 376.106 346.918 376.106 346.918C376.106 346.918 375.531 346.983 375.552 347.129C375.552 347.059 375.558 347.129 375.531 347.129C375.477 347.153 375.628 347.92 375.628 347.92L376.208 347.492C376.208 347.492 377.937 347.838 378.244 347.925C378.244 347.925 381.87 348.669 384.351 348.306C385.136 348.195 386.446 347.656 386.892 346.86C386.967 346.713 387.053 346.374 386.951 346.146C386.946 346.186 386.387 346.895 385.802 347.229L385.796 347.217Z" fill="#C5CDFF"/>
<path d="M375.557 347.123L373.091 346.046C373.091 346.046 373.322 347.047 373.355 347.024L375.605 347.92C375.595 347.843 375.568 347.334 375.557 347.123Z" fill="#C5CDFF"/>
<path d="M377.599 304.586L380 340.923C380.204 342.357 380.999 342.826 380.623 343.324C379.232 345.185 372.968 347.006 372.007 343.985L367.564 307.408L377.593 304.58L377.599 304.586Z" fill="#293896"/>
<path d="M358.733 348.295C358.733 348.295 358.631 352.083 358.62 352.177C358.491 353.863 360.307 358.178 362.918 358.459C363.304 358.5 364.669 358.372 364.669 358.372C364.669 358.372 366.452 358.319 366.103 354.894C365.963 353.565 364.696 348.201 364.696 348.201L358.733 348.301V348.295Z" fill="#293896"/>
<path d="M358.48 347.346C358.48 347.346 358.69 349.524 358.872 352.358C358.98 354.044 360.86 357.627 363.159 357.768C363.755 357.809 364.223 357.75 364.266 357.75C365.254 357.698 366.608 357.311 366.049 353.827C365.845 352.586 365.018 347.797 364.948 347.791L358.48 347.346Z" fill="#0E1A68"/>
<path d="M371.245 306.518C370.783 313.913 366.039 350.022 366.039 350.022C365.969 351.058 365.003 352.528 363.402 352.727C361.425 352.967 360.034 351.884 360.034 351.884C358.766 351.398 358.266 349.817 358.256 349.454L361.006 304.744L371.25 306.524L371.245 306.518Z" fill="#293896"/>
<path d="M360.646 279.858C360.646 279.858 363.875 275.812 365.395 275.232C366.915 274.653 371.734 275.104 371.734 275.104C371.734 275.104 374.479 281.38 375.107 284.554C376.09 289.554 372.631 293.091 372.631 293.091L364.847 288.242L360.646 279.864V279.858Z" fill="#C5CDFF"/>
<path d="M372.83 275.896C370.445 278.46 368.64 275.614 367.104 273.618L366.808 266.439L372.701 268.342L372.83 275.896Z" fill="white"/>
<path d="M368.956 262.523C370.305 262.47 370.493 263.87 370.493 263.87L370.584 266.809C370.584 266.809 370.541 267.453 370.036 267.582C369.279 267.775 368.924 267.061 368.559 266.276C368.537 266.235 368.065 265.07 368.038 265C367.635 264.004 367.689 262.57 368.956 262.523Z" fill="white"/>
<path d="M371.987 276.293C371.659 276.598 371.927 276.996 372.115 277.265L373.297 278.963C373.673 279.467 373.818 278.887 373.818 278.337L373.695 274.385C373.415 271.914 372.674 272.248 372.674 272.248C372.674 272.248 372.567 272.47 372.626 272.985C372.717 273.834 373.125 275.263 371.992 276.299L371.987 276.293Z" fill="#0E1A68"/>
<path d="M367.05 271.867C367.05 271.867 366.943 272.306 367.211 272.868C368.307 275.169 371.525 276.399 371.525 276.399C371.906 276.545 371.895 276.75 371.852 277.447L371.546 280.012C371.503 280.691 371.181 280.632 370.928 280.363C370.928 280.363 368.388 278.109 367.673 277.348C365.986 275.55 365.949 275.661 366.513 273.325C366.857 271.908 367.045 271.861 367.045 271.861L367.05 271.867Z" fill="#0E1A68"/>
<path d="M371.018 258.395L366.049 258.582L366.243 268.36C366.329 269.022 366.323 269.631 366.436 270.193C366.565 270.813 366.844 271.381 367.554 271.937C367.554 271.937 368.408 272.845 369.418 273.659C370.202 274.297 371.174 274.807 371.738 274.684C372.173 274.596 373.506 274.063 373.506 274.063C374.456 273.583 374.618 273.015 374.961 271.844C375.117 271.323 375.912 262.493 375.912 262.493L375.842 259.203L371.013 258.395H371.018Z" fill="white"/>
<path d="M375.24 257.727C376.658 258.535 376.492 260.508 376.363 261.07C375.912 263.014 375.858 262.821 375.885 262.85C375.906 262.874 375.906 262.083 375.917 261.316C375.928 260.169 374.827 260.42 374.37 260.76C373.548 261.387 371.958 262.101 371.915 262.13C371.356 262.505 371.587 262.224 371.539 261.779C371.528 261.679 371.507 261.088 371.507 261.088C371.432 261.141 370.121 261.843 369.782 262.101C368.332 263.26 368.531 266.363 368.429 266.358C368.004 266.34 368.037 266.147 367.902 265.678C367.902 265.678 367.806 263.471 366.173 264.384C365.313 264.864 366.001 266.972 366.06 267.095L366.457 270.292C366.457 270.333 364.024 266.27 363.766 265.661C361.252 259.612 365.265 253.277 371.034 255.285C372.189 255.689 375.24 257.739 375.24 257.739V257.727Z" fill="#633A11"/>
<path d="M366.496 263.875C367.78 263.834 368.011 266.158 368.011 266.158L368.043 267.985C368.043 267.985 368 268.6 367.517 268.723C366.786 268.91 366.421 268.43 366.071 267.675C366.05 267.634 365.604 266.515 365.577 266.445C365.196 265.502 365.282 263.916 366.496 263.875Z" fill="white"/>
<path d="M378.465 302.35C378.465 302.35 375.097 307.795 361.13 304.346L361.023 306.84C361.023 306.84 370.515 312.198 376.515 306.84C377.997 305.517 378.465 302.35 378.465 302.35Z" fill="#0E1A68"/>
<path d="M361.999 306.243C373.565 308.983 377.712 304.815 378.039 304.457C378.367 304.1 378.518 302.203 378.518 302.203C378.518 302.203 375.638 307.555 362.112 304.58L362.005 306.243H361.999Z" fill="#0E1A68"/>
<path d="M367.409 308.684L366.931 315.131C366.867 316.015 366.082 316.612 365.298 316.372C364.422 316.109 363.848 315.201 363.917 314.211L364.272 309.603L361.258 308.942L361.382 305.528L367.527 306.576L367.404 308.678L367.409 308.684Z" fill="#0E1A68"/>
<path d="M358.894 313.579C358.921 314.545 360.129 315.131 360.93 315.107C361.209 315.095 361.72 317.42 362.869 317.303C362.869 317.303 362.848 316.676 362.778 315.576C362.778 315.488 362.875 314.545 362.327 313.907C360.887 312.203 360.715 311.875 359.915 311.899C359.114 311.922 358.862 312.613 358.889 313.579H358.894Z" fill="white"/>
<path d="M358.336 311.331L360.629 311.688L361.279 313.386L361.005 315.272C361.005 315.272 360.909 315.787 361.252 316.443C361.387 316.7 361.629 317.139 361.629 317.139C361.629 317.139 361.688 319.054 360.366 318.632C359.936 318.504 359.636 318.117 359.636 318.117C359.061 318.012 358.094 317.719 357.455 317.561C355.977 317.198 356.391 315.283 356.391 315.283L356.622 313.392C356.746 312.326 357.283 311.173 358.336 311.337V311.331Z" fill="white"/>
<path d="M358.663 313.65C357.755 313.685 357.169 313.328 357.169 313.328C357.169 313.328 356.369 312.912 356.326 312.099C356.192 309.669 355.799 298.872 356.1 295.874C356.422 292.572 357.54 285.188 357.54 285.188C357.54 285.188 358.55 278.964 361.869 279.427C364.636 279.813 364.663 283.602 364.357 286.242C364.115 288.321 363.078 295.16 362.686 297.97C361.939 303.328 361.665 312.356 361.665 312.356C361.665 312.356 360.763 313.58 358.663 313.662V313.65Z" fill="#C5CDFF"/>
<path d="M371.277 311.595C372.69 311.595 373.84 310.342 373.84 308.796C373.84 307.25 372.69 306.003 371.277 306.003C369.865 306.003 368.715 307.256 368.715 308.796C368.715 310.336 369.865 311.595 371.277 311.595ZM371.277 306.723C372.33 306.723 373.184 307.66 373.184 308.802C373.184 309.943 372.33 310.886 371.277 310.886C370.225 310.886 369.365 309.949 369.365 308.802C369.365 307.654 370.219 306.723 371.277 306.723Z" fill="white"/>
<path d="M368.649 312.666C370.067 312.666 371.217 311.419 371.217 309.873C371.217 308.327 370.067 307.08 368.649 307.08C367.231 307.08 366.087 308.333 366.087 309.873C366.087 311.413 367.236 312.666 368.649 312.666ZM368.649 307.789C369.702 307.789 370.561 308.725 370.561 309.867C370.561 311.009 369.707 311.952 368.649 311.952C367.591 311.952 366.742 311.015 366.742 309.867C366.742 308.72 367.596 307.789 368.649 307.789Z" fill="white"/>
<path d="M375.524 258.498C372.897 259.927 369.816 260.644 366.737 261.043C369.067 262.072 372.076 262.854 374.761 262.148C375.638 261.913 376.788 261.711 377.201 260.735C377.838 259.231 375.721 258.914 374.949 258.462L375.52 258.505L375.524 258.498Z" fill="#293896"/>
<path d="M377.354 254.012C377.354 254.012 375.938 257.449 376.109 258.966C376.28 260.489 369.06 261.318 367.011 261.191C364.968 261.069 363.349 261.086 362.18 259.255C360.916 257.273 360.348 255.377 360.348 255.377L370.556 256.016L377.359 254.011L377.354 254.012Z" fill="#5B68B7"/>
<path d="M377.4 253.95C376.002 254.098 372.659 251.976 371.896 251.737C371.049 251.461 368.892 252.186 366.932 252.729C364.058 253.524 363.633 254.685 360.337 255.385C361.533 256.76 363.322 257.877 365.223 257.69C366.745 257.542 371.634 256.531 373.141 256.324L377.39 253.958L377.4 253.95Z" fill="#293896"/>
<path d="M375.499 256.613C375.499 256.613 375.567 257.066 375.548 257.538C375.534 258.003 375.737 258.802 375.268 259.067C374.797 259.321 373.966 258.329 373.925 258.055C373.884 257.781 374.588 255.078 375.499 256.613Z" fill="white"/>
<path d="M437.8 155.408C438.786 162.85 438.338 164.65 437.863 169.029C437.389 173.409 435.414 183.783 434.93 185.544C434.447 187.305 426.994 190.422 426.441 187.535C425.887 184.648 427.007 169.312 427.287 165.116C427.568 160.92 437.8 155.408 437.8 155.408Z" fill="#0E1A68"/>
<path d="M431.525 162.488C431.905 167.044 431.567 168.986 431.114 170.017C430.658 171.048 428.153 171.807 428.153 171.807C428.153 171.807 427.731 185.053 426.428 189.544C425.126 194.032 419.355 192.186 419.085 189.925C418.815 187.663 418.017 181.446 417.293 175.898C416.569 170.351 415.958 165.341 417.628 159.445C419.299 153.55 431.525 162.488 431.525 162.488Z" fill="#0E1A68"/>
<path d="M427.564 210.343C427.564 210.343 427.852 211.393 428.29 213.632C428.433 214.362 429.445 213.876 429.445 213.876C429.445 213.876 429.48 211.391 429.829 210.936C430.18 210.483 427.564 210.343 427.564 210.343Z" fill="#293896"/>
<path d="M432.546 204.514C432.543 205.915 432.636 206.312 432.707 206.909C432.879 208.349 435.242 209.481 435.647 210.02C436.052 210.558 438.624 213.556 438.624 213.556C438.624 213.556 438.668 214.322 438.413 214.629C438.159 214.936 438.23 215.893 436.635 215.324C435.041 214.755 433.852 212.057 430.939 211.961C429.95 211.929 427.38 211.512 427.572 209.663C427.763 207.813 428.418 204.4 428.418 204.4L430.008 202.554L432.546 204.514Z" fill="white"/>
<path d="M433.371 208.191C433.371 208.191 435.727 210.325 436.26 210.938C436.792 211.551 436.63 211.885 435.779 212.11C434.898 212.344 433.822 211.612 431.737 210.386C430.582 209.708 430.579 209.801 429.262 209.188C427.943 208.575 427.723 208.469 427.829 207.799C427.935 207.128 428.011 206.686 428.011 206.686C428.011 206.686 427.433 207.474 427.311 208.995C427.189 210.518 427.24 211.322 429.305 211.864C431.93 212.553 430.071 211.959 430.968 212.295C431.481 212.488 432.21 213.65 433.907 214.944C435.604 216.239 438.608 216.268 439.139 216.239C440.433 216.168 441.04 214.985 439.576 213.65C438.034 212.244 435.227 209.494 433.371 208.191Z" fill="#293896"/>
<path d="M429.311 181.431C428.167 182.84 427.263 183.75 426.869 186.19C426.475 188.63 426.478 192.12 426.869 197.266C427.26 202.415 427.26 206.341 427.305 207.563C427.349 208.784 430.882 209.134 432.018 208.829C433.151 208.523 433.37 208.261 433.544 207.433C433.719 206.604 434.721 186.248 434.932 185.543C435.143 184.837 429.311 181.431 429.311 181.431Z" fill="#0E1A68"/>
<path d="M422.315 212.239C422.603 213.6 424.475 215.62 425.065 217.351C425.382 218.279 426.003 220.675 425.052 220.911C425.041 220.915 425.03 220.916 425.02 220.919C423.928 221.169 422.329 221.032 421.47 220.448C420.612 219.864 418.273 215.81 417.898 215.396C417.525 214.983 417.679 214.512 417.618 214.09C417.4 212.558 418.35 211.66 418.265 210.957C418.18 210.255 417.895 207.887 417.895 207.887L420.324 207.429C420.324 207.429 422.022 209.331 421.999 210.1C421.979 210.871 422.315 212.239 422.315 212.239Z" fill="white"/>
<path d="M422.669 213.256C422.669 213.256 424.777 216.471 425.101 217.793C425.424 219.115 423.375 219.332 422.284 218.615C421.178 217.888 420.518 216.381 419.468 215.215C418.55 214.194 417.768 213.566 417.714 213.2C417.617 212.552 418.085 211.908 418.085 211.908C418.085 211.908 417.302 212.368 417.22 214.07C417.136 215.813 417.212 215.813 417.899 216.534C418.503 217.169 419.479 219.691 421.445 221.426C422.585 222.433 424.695 223.162 426.173 223.183C427.931 222.925 428.301 222.129 427.761 221.093C427.436 220.473 426.415 219.363 425.295 217.386C424.514 216.008 422.669 213.256 422.669 213.256Z" fill="#293896"/>
<path d="M417.362 215.609C417.362 215.609 417.539 217.777 417.644 218.812C417.701 219.374 417.713 219.396 417.713 219.396C417.713 219.396 417.7 219.374 418.142 219.533C418.361 219.612 418.572 219.279 418.572 219.279L418.951 215.546L417.362 215.609Z" fill="#293896"/>
<path d="M418.971 185.706C416.876 190.898 416.309 193.254 416.092 197.267C415.873 201.28 417.531 210.486 417.531 212.187C417.531 213.889 422.504 214.151 422.679 212.187C422.853 210.224 424.495 197.952 425.206 194.739C425.917 191.525 426.432 189.545 426.432 189.545L418.971 185.706Z" fill="#0E1A68"/>
<path d="M419.457 130.122C420.076 129.905 424.959 129.006 428.698 128.755C432.438 128.504 430.237 125.908 434.721 128.055C439.204 130.202 441.074 130.67 441.917 132.181C442.76 133.691 438.491 145.517 438.532 148.78C438.57 152.042 438.306 156.497 438.477 158.548C438.647 160.598 437.057 162.522 431.945 163.717C424.227 165.518 418.168 161.676 418.118 159.624C418.069 157.57 418.924 151.749 418.857 148.931C418.788 146.114 418.636 146.017 418.461 142.114C418.286 138.21 419.457 130.122 419.457 130.122Z" fill="#293896"/>
<path d="M428.297 127.844C427.647 129.848 426.798 131.398 425.136 132.648C423.978 131.44 422.727 130.798 422.626 130.013C422.428 128.49 424.292 126.652 424.609 124.201C424.926 121.75 427.047 120.677 427.047 120.677L428.297 127.844Z" fill="#632100"/>
<path d="M434.895 122.315C434.422 123.595 434.164 129.239 434.081 130.812C433.999 132.385 432.714 133.422 431.014 133.887C429.314 134.352 427.12 133.599 426.938 132.778C426.756 131.956 427.266 128.848 427.101 127.872C426.936 126.896 426.811 124.24 427.852 123.108C428.892 121.976 434.895 122.315 434.895 122.315Z" fill="white"/>
<path d="M433.217 120.078C433.333 121.525 433.682 125.121 433.375 126.54C433.067 127.957 432.141 128.806 431.786 129.136C431.432 129.467 427.517 130.667 426.983 130.762C426.449 130.857 425.436 130.599 425.124 130.204C424.812 129.808 423.916 126.043 423.802 123.891C423.689 121.739 423.639 120.411 423.988 119.032C424.336 117.654 424.932 116.491 426.049 116.042C427.165 115.592 430.615 115.791 431.948 116.826C433.285 117.86 433.217 120.078 433.217 120.078Z" fill="white"/>
<path d="M425.643 117.627C425.902 118.063 427.037 118.555 428.884 119.095C430.73 119.636 431.349 121.07 431.83 121.844C432.313 122.617 432.562 124.626 432.562 124.626L432.718 126.072C432.718 126.072 432.861 124.436 433.477 123.697C434.093 122.957 434.899 123.783 434.899 123.783C434.899 123.783 433.66 125.847 433.665 126.05C433.67 126.251 433.788 126.711 433.788 126.711C433.788 126.711 436.903 124.876 437.543 123.087C438.185 121.299 438.291 118.235 437.594 116.097C436.898 113.96 434.55 113.193 434.043 113.085C433.537 112.975 433.3 112.358 431.325 112.305C429.35 112.252 426.133 114.334 425.043 115.584C423.952 116.834 423.391 118.032 423.866 119.607C424.618 117.376 424.297 117.707 424.951 117.3C425.016 117.258 425.643 117.627 425.643 117.627Z" fill="#632100"/>
<path d="M437.542 122.926C437.239 124.751 438.938 127.436 439.453 129.814C439.967 132.192 437.164 134.202 437.164 134.202C437.164 134.202 435.43 134.63 434.306 134.63C433.312 134.631 431.829 134.648 431.829 134.648C431.829 134.648 432.966 130.019 433.286 127.722C433.606 125.425 434.603 123.349 434.603 123.349L435.097 121.583L437.542 122.926Z" fill="#632100"/>
<path d="M423.592 151.711C423.309 151.637 421.683 151.052 421.683 151.052C421.683 151.052 420.997 150.203 420.084 149.923C419.17 149.643 417.615 149.419 417.615 149.419C417.615 149.419 416.692 148.697 416.166 148.649C415.642 148.601 415.572 149.066 415.622 149.468C415.672 149.87 416.758 150.589 416.878 150.605C416.999 150.622 418.279 151.074 418.279 151.074L418.72 151.829L416.476 151.52C416.476 151.52 412.398 150.269 411.952 150.199C411.507 150.13 410.887 150.306 410.887 150.306C410.887 150.306 410.218 150.095 409.863 150.418C409.509 150.741 409.881 151.155 409.881 151.155L410.156 151.673C410.156 151.673 415.098 153.667 416.012 153.928C416.923 154.186 418.812 153.96 420.311 154.307C421.81 154.653 423.177 154.581 423.659 154.508C424.142 154.437 423.592 151.711 423.592 151.711Z" fill="white"/>
<path d="M419.359 130.11C411.668 134.887 410.199 135.829 408.136 137.127C406.072 138.425 404.412 139.755 404.412 139.755C404.412 139.755 403.312 146.091 404.879 145.931C406.445 145.772 416.115 142.71 418.066 141.737C418.741 141.27 419.923 140.046 420.2 138.29C420.814 134.396 420.288 129.477 419.359 130.11Z" fill="#293896"/>
<path d="M397.224 135.554C398.259 135.073 399.511 135.768 400.654 136.411C401.798 137.054 404.842 138.634 405.355 139.232C405.868 139.83 407.334 144.924 405.862 145.738C404.392 146.552 403.105 145.562 401.666 144.927C400.226 144.29 394.145 140.467 394.044 138.481C393.944 136.493 397.224 135.554 397.224 135.554Z" fill="#293896"/>
<path d="M391.627 132.062C391.706 132.004 392.242 131.938 393.055 132.241C393.869 132.543 395.481 132.667 396.23 132.99C396.933 133.292 398.437 134.586 398.683 134.822C399.021 135.144 399.516 135.626 399.685 136.062C400.026 136.943 399.026 138.093 398.332 138.495C397.71 138.857 396.97 138.992 396.253 138.947C396.073 138.936 395.886 138.912 395.73 138.819C395.573 138.725 395.458 138.568 395.294 138.487C395.022 138.354 394.701 138.463 394.413 138.561C393.638 138.825 392.83 138.989 392.015 139.052C391.191 139.115 390.415 138.98 389.598 138.886L384.497 138.877L384.179 137.059C384.089 136.54 384.317 136.017 384.76 135.731L391.627 132.062Z" fill="white"/>
<path d="M392.935 132.543C392.039 133.075 390.829 134.521 390.529 135.04C390.228 135.56 389.872 136.388 390.379 136.565C391.855 137.08 392.975 135.618 392.975 135.618C392.975 135.618 394.128 133.968 394.821 133.837C395.514 133.707 397.221 133.43 396.229 132.99C395.238 132.547 393.65 132.118 392.935 132.543Z" fill="white"/>
<path d="M441.336 131.47C442.614 132.301 442.843 134.014 442.838 136.002C442.833 137.99 442.024 146.165 441.397 149.002C440.769 151.841 440.425 155.476 439.454 156.011C438.482 156.545 436.102 151.769 436.072 150.521C436.041 149.272 437.075 141.996 437.559 139.782C438.043 137.569 438.544 135.005 439.187 133.807C439.827 132.612 441.336 131.47 441.336 131.47Z" fill="#0E1A68"/>
<path d="M432.95 150.342C436.16 149.887 436.381 150.043 436.955 150.5C437.529 150.957 439.826 154.794 439.451 156.012C439.078 157.229 422.547 155.508 422.128 154.847C421.708 154.186 422.454 151.671 422.766 151.261C423.08 150.851 432.95 150.342 432.95 150.342Z" fill="#0E1A68"/>
<path d="M433.585 124.499C433.699 123.497 434.134 122.995 434.613 122.883C435.094 122.77 435.555 123.376 435.253 124.338C434.951 125.298 434.413 125.749 433.978 125.94C433.543 126.131 433.608 125.425 433.608 125.425L433.585 124.499Z" fill="white"/>
<path fill-rule="evenodd" clip-rule="evenodd" d="M459.162 254.092C460.008 251.566 459.737 249.995 460.972 248.629C462.479 246.96 464.04 245.507 465.85 242.949L467.887 243.784C468.072 244.543 468.657 246.353 468.148 246.949L461.102 255.1L459.162 254.092Z" fill="white"/>
<path fill-rule="evenodd" clip-rule="evenodd" d="M465.492 243.427C467.226 239.698 468.831 233.953 470.478 230.225C471.161 228.686 471.887 228.23 472.819 226.702C476.342 227.483 477.079 229.228 476.169 231.536C474.879 234.799 470.077 241.671 468.039 244.435L465.492 243.427Z" fill="white"/>
<path fill-rule="evenodd" clip-rule="evenodd" d="M451.672 249.8C452.192 253.182 453.612 256.997 455.455 260.519C457.417 264.27 459.845 267.684 462.164 269.873C463.877 271.499 465.286 272.366 466.435 272.659C467.779 272.995 468.765 272.486 469.48 271.445C470.239 270.34 470.716 268.638 470.987 266.654C471.822 260.628 470.824 252.108 470.467 249.67L471.041 249.583C471.399 252.043 472.407 260.639 471.562 266.73C471.28 268.79 470.77 270.578 469.957 271.759C469.101 273.006 467.92 273.602 466.305 273.201C465.058 272.898 463.562 271.976 461.774 270.275C459.4 268.031 456.929 264.562 454.945 260.758C453.179 257.376 451.791 253.723 451.206 250.428C451.184 250.298 451.564 249.876 451.683 249.767L451.672 249.8Z" fill="#004A8D"/>
<path fill-rule="evenodd" clip-rule="evenodd" d="M452.67 249.16L468.592 248.315C469.492 248.271 470.706 248.922 471.172 249.659L470.89 258.015C470.858 258.991 470.186 259.793 469.21 259.88L453.689 261.278C453.266 261.321 452.442 260.769 452.041 260.411C451.651 260.075 451.456 259.598 451.423 259.045L451.001 251.013C450.947 250.038 451.705 249.192 452.681 249.149L452.67 249.16Z" fill="#004A8D"/>
<path fill-rule="evenodd" clip-rule="evenodd" d="M453.527 249.778L469.655 248.922C470.63 248.867 471.476 249.626 471.519 250.602L471.942 258.633C471.996 259.609 471.237 260.454 470.262 260.498L454.134 261.354C453.158 261.408 452.313 260.649 452.269 259.674L451.846 251.642C451.792 250.667 452.551 249.821 453.527 249.778Z" fill="#AED3FF"/>
<path fill-rule="evenodd" clip-rule="evenodd" d="M462.782 247.611C463.324 248.391 463.172 249.714 462.598 250.787C462.359 251.242 462.11 251.686 462.045 252.033C462.045 252.25 462.11 252.434 462.273 252.543C462.576 252.759 463.595 252.434 464.05 251.253L464.755 249.389C466.836 248.044 467.334 247.34 467.258 244.793L465.405 244.045L463.421 246.159L462.771 247.611H462.782Z" fill="white"/>
<path fill-rule="evenodd" clip-rule="evenodd" d="M465.991 265.906C465.265 268.388 470.153 270.274 472.646 266.871L482.336 239.979L472.429 238.245C471.063 242.57 470.576 243.48 469.513 248.022C468.039 254.298 466.977 260.584 466.002 265.906H465.991Z" fill="#021A30"/>
<path fill-rule="evenodd" clip-rule="evenodd" d="M480.895 281.72C482.293 283.52 486.617 289.795 487.3 291.573C487.615 292.386 487.983 293.307 488.265 294.825C488.265 294.825 490.389 294.153 490.595 294.012C490.801 293.871 492.741 290.923 492.741 290.923C492.741 290.923 490.227 285.698 490.021 285.46C487.604 282.718 489.327 281.699 485.935 281.005C484.428 280.702 483.496 279.26 482.575 278.144L480.905 281.72H480.895Z" fill="white"/>
<path fill-rule="evenodd" clip-rule="evenodd" d="M487.885 293.296C488.351 294.738 488.036 295.453 488.589 295.995C489.326 296.721 490.952 295.388 491.462 294.9C492.199 294.185 493.044 292.266 492.99 290.966C491.776 289.091 491.039 287.237 490.042 285.243L493.543 289.242L493.868 288.885C492.708 287.367 491.483 285.46 490.67 284.018C490.345 283.444 490.15 282.772 489.944 282.468C489.044 281.178 487.462 281.178 486.031 280.907C487.495 283.465 491.407 288.798 490.161 291.692C489.738 292.678 488.535 293.307 487.885 293.296Z" fill="black"/>
<path fill-rule="evenodd" clip-rule="evenodd" d="M470.652 293.394C470.273 295.638 468.56 303.074 467.704 304.775C467.314 305.556 466.891 306.444 465.959 307.68C465.959 307.68 467.888 308.786 468.138 308.851C468.387 308.916 471.866 308.352 471.866 308.352C471.866 308.352 474.023 302.965 474.056 302.651C474.446 299.009 476.364 299.605 474.576 296.624C473.785 295.302 474.218 293.654 474.413 292.213L470.652 293.394Z" fill="white"/>
<path fill-rule="evenodd" clip-rule="evenodd" d="M466.836 306.369C466.088 307.691 465.351 307.93 465.319 308.71C465.286 309.751 467.367 310.044 468.061 310.087C469.08 310.152 471.074 309.48 471.985 308.559C472.548 306.402 473.415 304.602 474.207 302.521L473.621 307.8H474.109C474.456 305.914 475.02 303.735 475.54 302.153C475.746 301.524 476.114 300.928 476.19 300.57C476.526 299.031 475.464 297.871 474.705 296.636C473.806 299.443 472.516 305.925 469.535 306.965C468.516 307.323 467.237 306.857 466.815 306.369H466.836Z" fill="#151717"/>
<path fill-rule="evenodd" clip-rule="evenodd" d="M466.218 267.359L482.596 285.807C482.683 285.904 482.791 285.937 482.921 285.893C483.517 285.709 484.851 284.354 485.284 282.468C485.62 280.983 485.111 279.498 484.785 279.173C481.686 273.808 479.778 270.675 476.775 267.359C473.86 264.15 473.567 265.375 472.386 263.955C469.708 260.725 465.254 264.747 466.218 267.359Z" fill="#021A30"/>
<path fill-rule="evenodd" clip-rule="evenodd" d="M481.23 215.213C485.305 217.565 487.549 220.102 486.216 220.871C484.894 221.641 480.515 220.351 476.428 217.999C472.342 215.647 470.109 213.11 471.442 212.341C472.765 211.571 477.144 212.861 481.23 215.213Z" fill="#5B68B7"/>
<path fill-rule="evenodd" clip-rule="evenodd" d="M477.729 196.657C475.182 196.462 473.35 196.808 472.483 197.968C470.641 200.45 470.977 204.602 470.738 208.677C470.489 212.969 469.687 217.186 468.115 219.96L475.583 214.79L480.916 204.407L477.719 196.657H477.729Z" fill="#632404"/>
<path fill-rule="evenodd" clip-rule="evenodd" d="M485.588 219.017L483.15 224.762C482.369 226.605 469.406 217.327 470.793 214.628C471.682 212.893 473.806 213.023 476.245 213.956C478.565 214.844 480.668 216.243 482.846 217.435C484.223 218.194 485.361 218.79 485.578 219.028L485.588 219.017Z" fill="#5B68B7"/>
<path fill-rule="evenodd" clip-rule="evenodd" d="M480.082 208.362C479.908 209.49 478.803 212.535 479.681 215.343C480.212 217.63 481.458 217.434 484.157 218.421C488.016 219.819 485.208 227.71 483.496 232.002C482.52 234.441 482.13 236.348 482.369 237.801L482.813 240.565L472.874 241.324L470.608 236.348C470.056 229.867 467.931 226.409 469.546 219.819C469.936 218.237 470.576 216.036 471.421 215.267C472.408 214.367 472.679 214.649 473.101 214.671C474.673 214.779 473.968 210.931 473.817 210.27L480.092 208.362H480.082Z" fill="white"/>
<path fill-rule="evenodd" clip-rule="evenodd" d="M478.619 242.126L477.708 241.975L476.483 246.852C473.687 251.968 472.505 264.194 471.974 269.224C471.899 269.982 471.79 270.752 471.714 271.359C471.151 275.467 477.654 274.719 478.684 272.627C480.505 268.942 481.101 267.175 482.802 262.872C485.696 255.502 490.877 249.952 483.854 242.267L478.64 242.116L478.619 242.126Z" fill="#032747"/>
<path fill-rule="evenodd" clip-rule="evenodd" d="M471.746 271.596L469.004 297.642C468.993 297.773 469.036 297.881 469.155 297.946C469.697 298.26 471.865 298.174 473.534 297.22C474.857 296.461 475.323 295.204 475.344 294.748C477.165 288.83 478.173 285.297 478.553 280.831C478.921 276.507 478.639 274.176 478.878 272.334C479.42 268.171 472.743 263.771 471.735 271.596H471.746Z" fill="#032747"/>
<path fill-rule="evenodd" clip-rule="evenodd" d="M480.722 217.013C481.405 217.403 482.478 217.652 484.006 218.227C488.092 219.755 484.895 228.491 483.496 232.003C480.7 239.005 483.345 239.222 486.586 245.628C488.266 250.787 472.007 247.806 470.403 244.587C471.086 239.872 470.284 231.765 468.658 227.277C466.371 224.134 467.26 221.489 468.886 218.4C469.59 217.056 470.327 215.463 471.075 214.162C471.866 213.588 472.712 214.162 473.232 214.574C471.693 216.232 477.503 219.007 480.722 217.002V217.013Z" fill="#5B68B7"/>
<path fill-rule="evenodd" clip-rule="evenodd" d="M482.423 225.586C482.564 226.096 486.888 235.385 487.116 235.742C488.785 238.387 492.2 237.834 491.712 234.951C491.538 233.943 490.411 231.179 489.555 228.459C488.319 224.546 487.105 220.394 486.325 219.625C485.057 218.367 483.756 218.617 482.835 219.256C480.775 220.687 481.859 223.592 482.412 225.586H482.423Z" fill="white"/>
<path fill-rule="evenodd" clip-rule="evenodd" d="M480.006 208.254C479.822 209.479 478.998 212.373 479.659 215.462C477.817 215.299 475.443 214.703 474.045 213.543C474.099 212.449 474.012 211.408 473.73 210.162L480.006 208.254Z" fill="white"/>
<path fill-rule="evenodd" clip-rule="evenodd" d="M473.286 198.229C470.803 201.795 472.039 202.781 471.671 205.707C471.475 207.257 471.898 209.642 472.234 210.552C472.722 211.853 473.134 212.861 473.882 213.11C474.651 213.36 476.656 212.514 478.445 211.43C480.017 210.487 481.436 209.382 481.697 208.471L483.713 201.448L473.286 198.229Z" fill="white"/>
<path fill-rule="evenodd" clip-rule="evenodd" d="M479.626 207.181C479.766 205.479 480.688 205.349 481.089 205.468C482.715 205.934 480.894 209.175 480.092 210.281C478.661 211.495 473.567 220.372 472.667 221.803C476.721 218.974 480.948 217.597 481.967 215.83C483.192 213.695 485.143 207.474 485.251 204.623C485.435 199.767 482.975 195.215 476.612 196.114C475.203 196.223 473.231 196.873 472.461 198.976C470.857 203.311 478.325 203.637 479.636 207.181H479.626Z" fill="#632404"/>
<path fill-rule="evenodd" clip-rule="evenodd" d="M493.316 246.082C493.457 246.906 493.771 248.607 494.14 249.28C494.486 249.93 494.963 250.537 495.95 251.393C496.437 251.816 496.47 251.913 496.557 252.553L496.752 253.886C496.882 254.731 496.741 254.775 496.427 255.609C496.177 256.271 495.885 256.997 495.429 256.813C494.996 256.639 495.158 255.978 495.223 255.252C494.248 254.58 493.565 254.016 492.459 253.593C491.571 252.325 490.964 251.707 490.964 250.71C490.964 250.353 491.115 250.038 491.289 249.54L490.324 246.667L493.327 246.082H493.316Z" fill="white"/>
<path fill-rule="evenodd" clip-rule="evenodd" d="M495.321 256.747C495.007 256.509 495.147 255.913 495.212 255.241C495.115 255.176 494.833 254.742 494.768 254.785C494.627 254.861 494.714 255.468 494.562 255.436C493.923 255.306 493.175 255.078 492.416 254.634C492.351 254.547 492.318 253.409 492.264 253.322C491.484 252.227 491.43 251.339 491.43 250.417C491.43 250.157 491.69 249.799 491.798 249.507C492.123 250.114 492.427 250.851 492.817 251.078C493.814 251.642 494.811 251.447 495.353 252.097C495.744 252.563 495.993 253.105 496.069 254.569C495.809 255.598 495.581 256.39 495.31 256.769L495.321 256.747Z" fill="white"/>
<path fill-rule="evenodd" clip-rule="evenodd" d="M487.224 236.956C487.939 241.215 489.782 245.323 491.299 249.561C492.416 249.16 492.578 249.312 493.944 249.182C493.001 245.15 492.763 240.684 492.145 236.37C491.83 234.138 490.53 233.465 489.348 233.552C488.037 233.65 486.844 234.744 487.224 236.956Z" fill="white"/>
<path fill-rule="evenodd" clip-rule="evenodd" d="M490.996 231.992C490.02 229.174 487.506 220.524 486.4 219.43C485.132 218.172 483.755 218.389 482.834 219.018C481.544 219.917 481.338 221.435 481.555 222.974C481.848 225.066 482.812 226.974 483.69 228.881C483.658 229.412 484.666 230.377 486.259 231.298C488.21 232.426 490.302 233.033 490.931 232.664C491.158 232.534 491.169 232.296 490.996 231.992Z" fill="#5B68B7"/>
<path fill-rule="evenodd" clip-rule="evenodd" d="M493.859 253.972C493.815 254.384 493.783 255.002 493.913 255.316C493.978 255.468 494.227 255.555 494.411 255.587C494.585 255.62 494.639 255.674 494.704 255.294C494.747 255.023 494.758 254.633 494.726 254.33C494.661 253.734 493.934 253.213 493.869 253.972H493.859Z" fill="white"/>
<path fill-rule="evenodd" clip-rule="evenodd" d="M492.883 253.388C492.828 253.789 492.893 254.645 493.013 254.959C493.067 255.111 493.327 255.198 493.5 255.23C493.685 255.263 493.782 255.263 493.782 255.003C493.782 254.742 493.75 254.038 493.739 253.734C493.706 253.149 492.991 252.629 492.883 253.377V253.388Z" fill="white"/>
<path fill-rule="evenodd" clip-rule="evenodd" d="M492.124 253.257C492.081 253.582 492.124 254.319 492.211 254.569C492.254 254.688 492.515 254.872 492.656 254.894C492.796 254.916 492.872 254.926 492.883 254.72C492.883 254.504 492.818 253.788 492.807 253.55C492.786 253.116 492.287 252.726 492.146 253.16C492.146 253.192 492.124 253.225 492.124 253.268V253.257Z" fill="white"/>
<path fill-rule="evenodd" clip-rule="evenodd" d="M495.908 252.531C495.431 253.116 495.474 254.157 495.865 255.035C496.027 255.404 496.201 255.772 496.222 256.043C496.222 256.216 496.157 256.346 496.016 256.433C495.767 256.585 494.987 256.271 494.705 255.317L494.26 253.81C492.71 252.629 492.364 252.054 492.57 250.06L494.065 249.583L495.496 251.35L495.919 252.52L495.908 252.531Z" fill="white"/>
<path d="M518.639 213.799C518.639 213.799 512.603 217.436 511.417 217.542C510.205 217.621 510.179 219.782 510.521 219.967C511.681 220.599 514.079 220.942 515.661 220.81C517.242 220.678 519.931 219.36 519.931 219.36C519.931 219.36 524.201 219.703 525.071 219.202C525.94 218.701 526.02 214.932 526.02 214.932L518.666 213.825L518.639 213.799Z" fill="white"/>
<path d="M521.802 157.42C518.534 170.019 521.196 198.433 518.112 213.325C522.83 217.701 527.864 214.617 527.864 214.617C527.864 214.617 530.395 197.721 529.367 189.524C529.367 186.704 533.11 169.993 533.11 169.993L533.848 164.168L526.494 157.763C526.494 157.763 522.725 154.126 521.802 157.394V157.42Z" fill="#0E1A68"/>
<path d="M548.027 205.418C548.027 205.418 546.841 209.556 544.917 212.666C544.68 213.062 544.706 213.958 544.917 214.459C545.128 214.986 551.348 217.305 552.982 212.429C553.931 209.609 554.827 207.105 555.064 205.972C555.302 204.812 555.064 203.02 555.064 203.02L548.027 205.418Z" fill="white"/>
<path d="M545.155 158.001C547.105 173.631 546.841 183.805 547 185.096C553.194 190.526 551.665 193.979 555.065 201.227C557.226 205.84 547.817 207.659 547 204.047C546.525 201.886 544.654 196.035 538.671 188.76C536.746 186.441 532.476 167.068 532.476 167.068C532.476 167.068 526.52 165.486 521.802 157.421C521.67 156.287 523.858 153.915 523.858 153.915L542.44 155.365C542.44 155.365 544.68 155.233 545.155 157.974V158.001Z" fill="#293896"/>
<path d="M545.892 158.264C545.892 158.264 544.917 158.395 544.1 159.107C543.283 159.819 545.418 162.56 545.418 162.56C545.418 162.56 547.395 164.379 548.475 163.351C549.556 162.323 550.109 160.478 550.109 160.478L548.502 158.527L545.945 158.264H545.892Z" fill="white"/>
<path d="M524.489 114.3C523.356 115.328 519.85 116.646 519.85 116.646L516.793 113.641L519.982 109.186L521.854 108.448L523.804 109.713C523.804 109.713 525.623 113.272 524.489 114.3Z" fill="white"/>
<path d="M516.792 113.64C519.033 113.877 519.85 116.644 519.85 116.644C519.85 116.644 518.057 118.832 516.977 121.6C517.293 122.469 518.874 125.632 517.767 128.453C516.66 131.273 513.023 134.146 513.023 134.146C513.023 134.146 509.728 135.332 508.568 135.095C507.409 134.831 504.984 130.983 506.46 127.267C507.962 123.55 514.815 116.012 516.766 113.64H516.792Z" fill="white"/>
<path d="M514.578 127.135C514.578 127.135 514.156 130.561 511.073 132.275L514.578 127.135Z" fill="#BCBEC0"/>
<path d="M528.153 118.964C532.186 124.42 524.648 127.53 524.648 127.53C524.648 127.53 516.002 132.907 513.024 134.146C513.024 134.146 515.343 131.062 514.552 127.108C514.552 127.108 515.712 125.448 516.977 121.573C516.977 121.573 517.847 120.571 519.692 119.254C521.537 117.909 525.623 115.537 528.153 118.937V118.964Z" fill="#5B68B7"/>
<path d="M521.378 114.483C521.193 114.377 521.061 114.114 521.061 113.771V111.847C521.061 111.162 521.562 110.292 522.168 109.949L527.572 106.839C527.862 106.655 528.152 106.628 528.336 106.76L528.758 106.997L528.679 107.129C528.679 107.129 528.731 107.366 528.731 107.498V109.449C528.731 110.134 528.231 110.977 527.624 111.346L522.221 114.457C522.221 114.457 521.984 114.588 521.878 114.588L521.799 114.72L521.378 114.483Z" fill="#2121B3"/>
<path d="M521.457 114.008V112.084C521.457 111.399 521.931 110.555 522.564 110.186L527.967 107.05C528.573 106.707 529.074 106.997 529.074 107.682V109.606C529.074 110.318 528.6 111.161 527.967 111.504L522.564 114.614C521.958 114.957 521.457 114.693 521.457 113.982V114.008Z" fill="#000058"/>
<path d="M528.152 111.188V107.129L523.171 110.002V114.087L528.152 111.188Z" fill="#E4EDFB"/>
<path d="M523.458 109.343V109.211L523.933 109.053C523.933 109.053 523.959 109.053 523.985 109.053L524.17 109V109.132C524.17 109.132 524.17 109.185 524.117 109.185L523.696 109.422C523.696 109.422 523.537 109.448 523.485 109.422C523.458 109.422 523.432 109.369 523.432 109.369L523.458 109.343Z" fill="#939598"/>
<path d="M523.484 109.132L523.906 108.895C523.906 108.895 524.064 108.868 524.117 108.895C524.169 108.921 524.169 108.974 524.117 109.026L523.695 109.264C523.695 109.264 523.537 109.29 523.484 109.264C523.431 109.237 523.431 109.158 523.484 109.132Z" fill="#BCBEC0"/>
<path d="M522.697 109.765V109.633L523.171 109.475C523.171 109.475 523.197 109.475 523.224 109.475L523.408 109.396V109.554C523.408 109.554 523.408 109.606 523.355 109.633L522.934 109.87C522.934 109.87 522.776 109.896 522.723 109.87C522.697 109.87 522.67 109.844 522.67 109.817L522.697 109.765Z" fill="#939598"/>
<path d="M522.75 109.58L523.171 109.343C523.171 109.343 523.33 109.316 523.382 109.343C523.435 109.369 523.435 109.448 523.382 109.475L522.961 109.712C522.961 109.712 522.802 109.738 522.75 109.712C522.697 109.685 522.697 109.633 522.75 109.606V109.58Z" fill="#BCBEC0"/>
<path d="M526.282 107.709V107.577L526.756 107.419C526.756 107.419 526.809 107.419 526.835 107.419L527.02 107.366V107.524C527.02 107.524 527.02 107.577 526.967 107.577L526.545 107.814C526.545 107.814 526.387 107.841 526.334 107.814C526.308 107.814 526.282 107.788 526.308 107.762L526.282 107.709Z" fill="#939598"/>
<path d="M526.308 107.524L526.73 107.287C526.73 107.287 526.888 107.261 526.941 107.287C526.994 107.313 526.994 107.366 526.941 107.419L526.519 107.656C526.519 107.656 526.361 107.682 526.308 107.656C526.256 107.63 526.256 107.577 526.308 107.551V107.524Z" fill="#BCBEC0"/>
<path d="M525.254 111.084C522.724 111.348 522.75 109.555 522.75 109.555L522.038 110.003L519.982 109.16C519.982 109.16 520.931 107.289 523.567 106.867C525.623 106.551 528.021 107.526 528.021 107.526C528.021 107.526 527.811 110.794 525.28 111.058L525.254 111.084Z" fill="white"/>
<path d="M525.492 106.945C523.278 108.764 524.886 111.136 524.886 111.136C524.886 111.136 525.15 109.318 525.492 106.945Z" fill="white"/>
<path d="M526.783 116.645H536.746V127.53H526.783V116.645Z" fill="white"/>
<path d="M536.745 120.045C536.745 120.045 536.534 123.788 534.952 124.842C533.371 125.896 530.92 125.896 529.048 124.842C527.177 123.788 527.493 121.389 527.493 121.389L526.123 121.732L525.042 125.501L528.943 128.98L534.9 129.797L538.326 125.475L538.379 122.602L536.745 120.071V120.045Z" fill="white"/>
<path d="M545.892 127.135L536.719 119.86C536.719 119.86 537.615 123.709 535.823 125.422C534.057 127.135 530.42 127.32 528.575 126.107C526.73 124.895 526.835 121.231 526.835 121.231L524.858 120.44C524.858 120.44 520.167 123.287 519.85 131.563C519.666 136.729 520.905 140.736 520.931 156.788C534.795 167.304 539.171 159.107 545.312 157.947C545.048 156.735 543.019 149.091 545.865 138.179C546.814 135.411 545.865 127.135 545.865 127.135H545.892Z" fill="#5B68B7"/>
<path d="M525.493 106.945C525.493 106.945 524.28 109.053 524.913 111.215C523.911 113.112 524.359 119.544 524.517 120.203C524.676 120.862 525.756 121.942 527.654 121.705C533.374 121.046 534.955 117.251 534.955 117.251C534.955 117.251 536.299 117.567 536.932 116.671C537.169 116.275 537.67 113.402 537.67 113.402L533.558 108.025L528.366 105.337L525.493 106.971V106.945Z" fill="white"/>
<path d="M534.585 112.374C534.585 112.374 533.926 113.349 534.427 114.904C535.429 113.586 536.799 113.85 536.747 113.824C536.694 113.797 534.585 112.374 534.585 112.374Z" fill="#121214"/>
<path d="M527.838 104.283C527.838 104.283 533.189 97.9045 542.73 106.471C544.074 107.815 541.439 110.055 540.621 109.396C540.49 111.742 538.671 114.009 538.671 114.009L537.986 113.245L532.846 108.237L528.866 106.181L527.838 104.283Z" fill="#293896"/>
<path d="M540.04 106.603C540.514 107.947 540.62 109.396 540.62 109.396C540.62 109.396 541.068 107.446 540.04 106.603Z" fill="#0C1C7E"/>
<path d="M525.491 106.945C527.231 107.024 533.135 108.632 536.93 116.671C537.379 116.434 539.329 115.67 539.065 113.298C538.802 110.925 534.927 104.758 528.153 104.046C526.73 103.888 525.096 106.945 525.491 106.945Z" fill="#5B68B7"/>
<path d="M524.253 116.408C524.596 116.144 525.334 116.539 525.65 116.935C526.573 116.829 527.759 117.778 528.102 118.516C528.444 119.281 527.812 120.757 527.812 121.099C527.812 121.626 528.576 121.521 528.576 121.521C528.576 121.521 527.97 122.338 526.652 122.206C525.519 122.101 524.543 121.337 524.227 120.73C523.911 120.124 523.885 116.671 524.227 116.408H524.253ZM524.623 118.648C524.833 119.07 526.204 120.019 526.916 119.834C527.364 119.702 527.469 119.017 527.232 118.622C527.021 118.2 525.334 117.172 524.833 117.356C524.491 117.488 524.385 118.2 524.623 118.648Z" fill="#121214"/>
<path d="M555.435 138.18C555.435 138.18 557.412 140.605 556.437 145.902C555.62 150.357 552.773 153.151 550.084 160.478C547.449 160.215 546.368 159.002 545.894 158.264C547.976 152.439 548.819 145.138 549.742 143.214C550.664 141.316 555.435 138.18 555.435 138.18Z" fill="white"/>
<path d="M540.04 128.479C544.468 123.339 549.16 130.008 549.16 130.008C549.16 130.008 553.14 134.251 554.985 136.887C556.857 139.523 552.27 145.216 549.134 142.844C546.024 140.472 544.627 138.943 542.254 136.94C540.515 135.464 537.246 131.668 540.014 128.479H540.04Z" fill="#5B68B7"/>
<path d="M544.098 158.396C544.098 158.396 548.553 161.321 548.605 164.221C548.605 165.67 547.498 166.514 546.312 169.703C545.891 170.889 539.934 169.94 536.613 169.097C533.265 168.253 537.219 165.275 538.932 163.562C540.645 161.848 544.098 158.396 544.098 158.396Z" fill="#293896"/>
<path d="M542.861 159.635C539.54 162.982 540.805 168.755 540.805 168.755C540.805 168.755 540.99 164.695 542.861 159.635Z" fill="#0E1A68"/>
</svg>
