<svg width="705" height="468" viewBox="0 0 705 468" fill="none" xmlns="http://www.w3.org/2000/svg">
<rect width="705" height="468" fill="#E0E6F9"/>
<path d="M368.715 266.034C368.584 266.071 370.211 265.716 374.325 264.594C375.466 265.417 376.233 266.8 376.569 268.184C376.719 268.876 376.831 269.605 376.85 270.335C375.092 271.083 373.166 271.831 371.483 272.654C365.854 275.44 362.88 267.96 368.715 266.015V266.034Z" fill="#293896"/>
<path d="M371.895 319.574C373.26 318.452 375.13 317.629 376.047 317.648C376.739 317.648 377.356 318.04 377.954 318.415C378.515 318.77 378.478 319.163 378.44 319.761C378.347 321.425 376.383 322.678 375.523 323.015C374.607 323.37 374.027 323.258 373.129 324.212C372.924 324.417 372.774 324.698 372.512 324.829C370.474 325.857 367.987 325.221 368.978 321.855C369.408 320.378 369.314 320.116 370.81 319.219C371.166 319.013 371.315 320.098 371.895 319.611V319.574Z" fill="#3C3C45"/>
<path d="M378.456 295.974C378.194 295.637 377.745 295.562 377.334 295.487C375.52 295.17 373.744 294.44 371.967 294.01C371.163 293.823 370.359 293.673 369.555 293.673L367.797 292.084C367.759 292.327 367.741 292.57 367.722 292.832C367.236 298.629 369.573 304.277 369.274 317.872C369.237 319.929 369.536 321.126 370.377 321.818C371.817 323.033 373.388 321.649 373.669 320.658C374.211 318.77 374.753 308.335 375.464 307.026C376.38 305.324 377.184 303.51 377.315 302.5C377.502 301.079 377.615 302.407 377.764 300.985C377.895 299.676 378.381 298.48 378.606 297.189C378.68 296.778 378.718 296.31 378.475 295.974H378.456Z" fill="white"/>
<path d="M374.062 317.834C373.913 319.124 373.782 320.172 373.651 320.658C373.371 321.649 371.8 323.033 370.36 321.817C369.518 321.107 369.2 319.929 369.256 317.872C369.256 317.815 369.256 317.741 369.256 317.685C370.64 318.395 372.436 318.32 374.062 317.853V317.834Z" fill="#E6E6E6"/>
<path d="M368.713 307.643C368.19 307.25 367.386 296.778 367.704 292.813C367.722 292.57 367.76 292.309 367.778 292.065L369.536 293.655C370.34 293.655 371.144 293.805 371.949 293.992C373.725 294.422 375.502 295.151 377.316 295.469C377.727 295.544 378.195 295.618 378.438 295.955C378.681 296.292 378.643 296.759 378.569 297.171C378.344 298.461 377.858 299.658 377.727 300.967C377.577 302.388 377.484 301.06 377.278 302.482C377.147 303.491 376.343 305.305 375.427 307.007C375.352 307.138 375.296 307.362 375.24 307.662C373.22 308.615 369.499 308.223 368.676 307.624L368.713 307.643Z" fill="#4B5598"/>
<path d="M382.141 317.89C382.179 319.835 382.571 325.052 380.832 325.707C379.972 326.044 377.635 325.352 377.466 324.398C376.438 318.657 375.129 307.231 375.185 307.044C375.521 305.884 377.055 306.539 377.803 306.801C382.515 308.428 381.823 304.108 382.16 317.89H382.141Z" fill="white"/>
<path d="M381.974 319.367C381.974 319.367 382.105 319.274 382.18 319.218C382.255 321.574 382.255 325.165 380.815 325.707C379.955 326.043 377.617 325.352 377.449 324.398C377.243 323.257 377.037 321.892 376.813 320.433C378.533 320.807 380.403 320.433 381.955 319.367H381.974Z" fill="#E6E6E6"/>
<path d="M377.11 293.898C376.063 293.954 375.016 293.973 373.95 293.954C373.482 293.954 372.884 294.029 372.435 293.935C372.042 293.842 371.724 293.543 371.332 293.431C371.014 293.356 370.097 292.683 369.854 292.907C369.462 293.225 370.004 294.534 370.116 295.02C371.07 299.415 373.856 300.331 374.716 304.726C375.296 307.718 376.418 311.14 376.979 312.468C377.372 313.421 376.68 312.58 378.924 312.991C379.448 313.085 379.971 313.122 380.513 313.103C380.906 313.103 381.43 312.898 381.804 313.103C382.028 311.533 381.86 309.924 382.197 308.372C382.533 306.764 382.458 305.006 382.514 303.342C382.945 290.607 383.449 293.543 377.147 293.917L377.11 293.898Z" fill="white"/>
<path d="M373.896 304.687C373.036 300.293 371.072 299.414 370.118 295.019C370.006 294.533 369.464 293.224 369.857 292.906C370.118 292.7 382.349 290.905 382.723 292.737C382.966 293.897 383.078 302.817 383.097 304.051C383.115 306.183 383.976 307.717 377.898 307.997C373.69 308.184 374.214 306.239 373.915 304.687H373.896Z" fill="#5B68B7"/>
<path d="M383.974 275.197C384.011 275.609 383.937 276.432 383.525 276.693C383.189 276.918 382.459 276.843 382.066 276.88C380.87 276.993 379.673 277.067 378.476 277.142C377.934 277.18 377.391 277.217 376.849 277.236C375.259 277.292 373.67 277.18 372.137 276.918C371.538 276.824 370.528 276.675 370.061 276.282C369.593 275.889 369.537 275.253 369.631 274.599C369.78 273.458 370.341 272.336 371.426 271.906C372.511 271.476 373.595 271.663 374.661 271.794C377.148 272.112 379.617 272.598 382.029 273.215C382.459 273.327 382.889 273.458 383.263 273.701C383.675 274.001 383.937 274.58 383.974 275.179V275.197Z" fill="white"/>
<path d="M383.151 271.719C382.759 271.139 379.411 269.138 376.438 268.073C373.651 267.063 370.79 265.024 367.817 266.707C364.208 268.746 366.265 273.215 366.826 279.985C367.854 292.14 365.704 293.43 370.865 294.104C375.334 294.683 381.263 295.918 382.777 293.412C383.245 292.626 383.039 291.691 382.983 290.85C382.347 279.704 384.404 273.664 383.151 271.757V271.719Z" fill="#293896"/>
<path d="M377.203 265.659C377.315 264.93 371.35 262.181 371.35 263.266C371.35 266.482 370.789 266.015 370.695 267.193C370.602 268.278 371.611 270.278 375.482 269.717C378.418 269.287 376.847 267.997 377.184 265.641L377.203 265.659Z" fill="white"/>
<path d="M380.497 255.711C380.908 256.216 381.226 256.777 381.319 257.431C381.544 258.89 380.945 260.405 381.263 261.845C381.563 263.247 380.964 266.445 378.196 267.268C376.794 267.679 374.026 267.193 373.129 266.763C371.932 266.183 371.146 265.024 370.436 263.902C364.639 254.701 376.551 250.924 380.478 255.692L380.497 255.711Z" fill="white"/>
<path d="M370.285 252.663C371.332 250.4 379.429 249.596 381.617 254.963C381.786 255.375 381.823 255.823 381.935 256.254C382.197 257.151 381.337 257.469 381.15 257.6C380.57 257.993 380.458 258.909 380.196 259.526C380.028 259.919 379.71 260.124 379.635 260.555C379.542 261.022 379.523 262.724 378.737 262.238C378.12 261.845 378.233 260.517 377.802 260.611C375.689 261.022 378.363 267.062 372.435 265.753C371.07 265.454 370.547 265.174 369.312 263.416C368.116 261.695 367.985 261.209 367.779 259.769C366.863 253.187 369.817 253.635 370.266 252.644L370.285 252.663Z" fill="#D08A62"/>
<path d="M377.354 259.751C376.269 259.508 375.783 260.835 376.381 262.013C376.549 262.35 376.905 262.687 377.167 262.967C378.887 264.931 379.654 263.192 379.111 262.537C377.858 260.985 378.737 260.05 377.354 259.751Z" fill="white"/>
<path d="M377.374 261.863C377.261 261.732 376.121 260.797 377.056 260.423C377.318 260.311 377.542 260.573 377.542 260.816C377.542 260.947 377.486 261.078 377.486 261.209C377.486 261.62 378.009 261.807 377.86 262.125C377.766 262.349 377.448 261.938 377.374 261.863Z" fill="white"/>
<path d="M382.047 323.239C383.282 323.875 386.797 322.285 388.181 322.828C389.154 323.22 389.434 324.773 389.079 325.651C388.555 326.942 386.405 327.447 385.17 327.353C381.86 327.11 380.047 330.102 377.859 328.12C376.849 327.204 377.298 325.689 377.428 324.417C378.326 325.352 380.72 325.614 382.029 323.239H382.047Z" fill="#3C3C45"/>
<path d="M380.346 271.232C374.998 274.262 379.299 280.452 384.273 276.637C387.172 274.411 391.061 272.691 392.857 270.709C393.436 270.073 393.96 269.343 394.278 268.39C394.54 267.604 393.474 267.006 392.819 266.501C391.23 265.285 390.295 265.772 390.126 265.94C388.163 267.847 384.572 270.409 383.151 271.101C380.122 272.579 380.252 271.251 380.365 271.195L380.346 271.232Z" fill="white"/>
<path d="M379.775 271.147C379.662 271.227 381.187 270.504 385.045 268.457C386.325 269.079 387.36 270.384 387.962 271.769C388.244 272.471 388.489 273.214 388.658 273.977C387.059 275.141 385.308 276.325 383.803 277.55C378.797 281.644 374.393 274.398 379.775 271.127V271.147Z" fill="#293896"/>
<path d="M397.419 260.611C396.671 262.107 396.484 262.93 395.829 264.463C394.296 268.017 394.165 270.466 391.248 271.121C390.238 271.345 389.097 270.691 388.892 269.905C388.218 267.231 389.976 266.82 392.931 261.303C393.267 260.667 394.072 259.396 394.502 258.386C394.988 257.226 397.756 259.919 397.4 260.611H397.419Z" fill="white"/>
<path d="M394.371 257.581C394.278 256.87 394.371 256.16 394.633 255.505C395.026 254.608 395.661 255.038 396.391 254.907C397.045 254.776 397.326 253.467 397.531 252.906C398.448 250.456 399.065 251.298 398.672 252.831C398.597 253.13 398.336 253.673 398.354 253.991C398.392 254.421 398.784 254.29 399.102 254.365C399.308 254.402 399.532 254.477 399.607 254.701C399.701 254.944 399.514 255 399.458 255.206C399.401 255.412 399.308 255.225 399.495 255.412C399.588 255.505 399.775 255.468 399.888 255.618C400.224 256.048 399.719 256.179 399.626 256.515C399.551 256.758 399.794 257.039 399.719 257.319C399.645 257.6 399.458 257.899 399.308 258.142C399.158 258.385 398.934 258.497 398.728 258.684C398.541 258.853 398.485 259.058 398.336 259.264C397.962 259.825 397.55 260.293 397.27 260.91C397.176 261.134 397.083 261.359 396.933 261.564C396.391 262.294 394.278 260.611 394.539 259.975C394.782 259.358 394.633 258.909 394.483 258.31C394.427 258.067 394.39 257.824 394.352 257.581H394.371Z" fill="white"/>
<path d="M352.871 312.557C353.625 312.539 354.326 312.287 355.08 312.269C355.853 312.251 356.643 312.557 357.11 313.203C357.469 313.688 357.739 314.479 357.308 314.964C356.894 315.431 356.338 315.754 355.763 315.988C354.595 316.437 353.392 316.329 352.188 316.652C351.416 316.85 350.679 317.191 349.889 317.263C349.188 317.317 348.541 317.119 348.039 316.616C347.589 316.167 347.518 315.575 347.536 314.964C347.571 313.868 348.272 313.383 349.188 312.952C351.074 312.072 351.559 312.629 352.853 312.593L352.871 312.557Z" fill="#293896"/>
<path d="M336.218 270.667C336.451 270.092 336.847 269.482 337.439 269.284C338.032 269.086 338.715 269.086 339.272 269.374C341.858 270.721 341.84 274.098 343.331 279.631C343.691 280.978 344.858 284.301 343.78 285.469C343.295 285.99 342.218 286.475 341.481 286.385C338.499 286.062 336.182 275.823 336.038 272.823C336.002 272.086 335.93 271.368 336.2 270.667H336.218Z" fill="white"/>
<path d="M342.541 261.038C344.804 262.655 342.541 265.924 341.301 270.864C340.996 272.05 340.475 275.175 339.11 275.499C338.481 275.642 337.349 275.499 336.846 274.996C334.852 273.074 337.008 265.834 337.691 262.889C337.942 261.829 339.792 259.062 342.559 261.038H342.541Z" fill="white"/>
<path d="M341.085 304.294C343.24 303.594 345.037 302.175 346.456 303.935C346.959 304.564 346.725 305.354 346.294 305.875C344.857 307.689 342.594 308.174 341.049 308.839C338.66 309.881 337.025 307.294 339.27 305.282C339.881 304.743 340.294 304.546 341.085 304.294Z" fill="#293896"/>
<path d="M340.547 290.911C340.206 291.27 339.254 292.079 338.733 298.455C338.661 299.39 338.446 305.497 339.649 307.006C340.08 307.563 340.691 307.563 340.942 307.509C341.966 307.257 342.182 306.449 342.308 305.695C342.793 302.821 343.17 298.348 343.385 296.084C343.547 294.45 340.907 290.552 340.547 290.929V290.911Z" fill="white"/>
<path d="M353.751 296.372C354.416 301.186 352.206 313.15 350.949 314.479C350.069 315.413 348.093 314.874 348.254 313.94C348.632 311.731 347.392 306.611 347.5 303.683C347.644 299.875 348.38 297.306 348.416 297.199C348.721 296.067 353.679 295.762 353.751 296.372Z" fill="white"/>
<path d="M339.739 274.996C339.541 272.948 339.092 270.918 338.823 268.888C338.553 266.894 338.32 264.667 338.823 262.709C338.967 262.134 339.182 261.577 339.595 261.146C340.242 260.445 341.302 260.248 342.236 260.409C343.17 260.553 344.032 261.002 344.877 261.433C345.972 262.008 346.978 262.601 348.164 262.888C349.26 263.158 350.499 263.948 351.325 264.703C354.289 267.379 354.289 269.391 354.289 273.954C354.289 276.415 354.343 278.876 354.505 281.337C354.702 284.48 355.026 285.935 355.475 289.061C355.942 292.276 356.427 295.851 353.247 297.845C349.475 300.216 343.188 298.725 339.128 295.599C336.631 293.695 337.368 293.983 337.422 290.875C337.566 283.259 340.17 279.576 339.721 275.014L339.739 274.996Z" fill="#293896"/>
<path d="M351.002 259.727C351.702 259.045 343.259 254.554 343.331 256.009C343.511 260.284 342.9 260.248 342.864 261.811C342.828 263.248 343.888 264.685 348.128 264.272C351.091 263.985 348.577 262.063 351.002 259.727Z" fill="white"/>
<path d="M353.499 249.829C353.876 250.35 354.145 250.943 354.199 251.608C354.307 253.08 353.624 254.553 353.84 256.026C354.056 257.464 353.211 260.607 350.373 261.236C348.936 261.559 346.206 260.876 345.343 260.374C344.194 259.709 343.475 258.505 342.847 257.32C337.691 247.692 349.906 244.746 353.499 249.811V249.829Z" fill="white"/>
<path d="M342.469 247.745C343.529 245.482 351.648 244.656 353.857 250.063C354.037 250.476 354.055 250.925 354.181 251.356C354.288 251.733 354.181 252.057 353.947 252.326C353.642 252.667 353.534 252.865 353.408 253.332C353.157 254.32 353.067 255.344 353.157 256.35C353.211 256.853 353.229 257.482 352.798 257.733C352.51 257.895 352.151 257.787 351.81 257.787C351.235 257.787 350.696 258.074 350.301 258.505C349.816 259.026 349.672 259.745 349.169 260.23C348.648 260.715 348.019 261.002 347.301 261.074C346.51 261.164 345.774 260.966 344.984 260.895C344.516 260.859 344.085 260.787 343.654 260.607C342.702 260.23 342.074 259.368 341.499 258.541C340.295 256.817 340.169 256.314 339.972 254.877C339.056 248.266 342.002 248.733 342.469 247.728V247.745Z" fill="#221A19"/>
<path d="M351.324 256.637C350.229 256.404 349.744 257.733 350.354 258.901C350.534 259.242 350.875 259.583 351.127 259.871C351.486 260.284 352.348 259.978 352.528 258.955C352.582 258.613 352.456 258.416 352.366 258.11C352.295 257.877 352.259 257.661 352.205 257.428C352.079 256.979 351.774 256.745 351.324 256.655V256.637Z" fill="white"/>
<path d="M338.23 268.655C338.176 267.829 338.32 266.985 338.553 266.194C338.895 264.991 339.362 263.823 339.487 262.584C339.649 261.003 339.2 259.44 338.841 257.913C338.464 256.368 338.176 254.752 338.571 253.225C338.931 251.878 339.972 250.656 341.374 250.369C342.254 250.189 343.026 250.081 343.637 250.872C344.553 252.093 344.733 254.41 344.338 255.847C344.05 256.853 343.583 257.805 343.314 258.829C343.17 259.422 343.08 260.033 343.152 260.644C343.206 261.147 343.421 261.614 343.421 262.117C343.421 263.338 342.793 264.344 342.218 265.35C341.589 266.464 341.499 267.595 341.715 268.853C341.912 270.092 342.308 271.314 342.236 272.553C342.182 273.811 341.517 275.14 340.332 275.517C340.925 274.403 340.601 273.038 339.937 272.05C339.452 271.314 338.823 270.649 338.499 269.841C338.338 269.446 338.266 269.05 338.23 268.637V268.655Z" fill="black"/>
<path d="M349.062 267.164C349.295 266.589 349.69 265.979 350.283 265.781C350.876 265.584 351.559 265.584 352.116 265.871C354.702 267.218 355.798 275.104 356.139 278.014C356.211 278.715 355.097 280.691 353.786 280.834C352.511 280.978 351.074 279.325 350.948 279.002C350.84 278.697 348.99 271.332 348.9 269.32C348.864 268.583 348.792 267.865 349.062 267.164Z" fill="white"/>
<path d="M354.828 276.721C356.176 276.846 356.283 279.218 359.696 283.672C360.325 284.481 360.918 285.451 361.888 285.864C362.283 286.026 362.714 286.098 363.073 286.349C364.385 287.301 365.121 288.738 365.211 289.151C365.534 290.552 365.786 290.714 365.588 291.091C365.103 292.097 364.672 291.181 364.403 291.235C364.097 291.289 364.241 291.522 363.648 292.007C363.163 292.403 363.127 291.918 362.894 291.936C362.714 291.936 362.696 292.187 362.481 292.151C362.409 292.151 362.355 292.061 362.265 292.061C362.068 292.061 362.121 292.259 361.547 292.151C361.008 292.043 361.744 290.876 360.864 289.996C360.433 289.564 360.038 288.612 359.211 288.073C353.409 284.229 350.948 279.074 350.948 279.074C350.948 279.074 353.122 279.846 353.643 279.487C354.236 279.074 354.092 276.685 354.81 276.757L354.828 276.721Z" fill="white"/>
<path d="M444.555 201.541V212.159L467.701 225.523V214.903L444.555 201.541Z" fill="#F8FBFF"/>
<path d="M477.443 220.528L467.701 214.903V225.523L477.443 231.148V220.528Z" fill="#9EC959"/>
<path d="M444.002 201.83V212.448L467.147 225.812V215.192L444.002 201.83Z" fill="#F8FBFF"/>
<path d="M476.889 220.817L467.146 215.192V225.812L476.889 231.437V220.817Z" fill="#5B68B7"/>
<path d="M476.891 231.437L477.443 231.148V220.528L476.891 220.817V231.437Z" fill="#262C4F"/>
<path d="M467.146 215.192L467.699 214.903L477.441 220.528L476.889 220.817L467.146 215.192Z" fill="#7688F3"/>
<path d="M444.002 201.83L444.554 201.541L467.7 214.903L467.147 215.192L444.002 201.83Z" fill="#D5D7E3"/>
<path d="M450.914 209.013L451.566 209.389L450.921 213.774L450.329 213.432L449.975 210.61L449.645 213.037L449.05 212.693L448.361 207.539L449.011 207.914L449.336 210.649L449.636 208.275L450.287 208.651L450.611 211.384L450.914 209.013Z" fill="#3F5666"/>
<path d="M452.98 215.023C452.707 214.865 452.473 214.62 452.282 214.288C452.09 213.955 451.994 213.633 451.994 213.319V210.722C451.994 210.406 452.091 210.193 452.284 210.081C452.476 209.972 452.709 209.995 452.98 210.151C453.254 210.309 453.487 210.555 453.677 210.887C453.867 211.221 453.962 211.543 453.962 211.858V212.401L453.319 212.028V211.47C453.319 211.356 453.284 211.239 453.214 211.117C453.144 210.996 453.06 210.906 452.961 210.849C452.862 210.792 452.778 210.785 452.709 210.825C452.641 210.867 452.606 210.944 452.606 211.058V213.661C452.606 213.775 452.641 213.891 452.709 214.012C452.778 214.131 452.862 214.22 452.961 214.277C453.06 214.334 453.144 214.342 453.214 214.303C453.284 214.264 453.319 214.187 453.319 214.074V213.417L453.962 213.789V214.454C453.962 214.769 453.866 214.982 453.673 215.092C453.481 215.201 453.249 215.179 452.98 215.023Z" fill="#3F5666"/>
<path d="M458.525 213.862L456.473 212.677C456.423 212.649 456.379 212.644 456.34 212.649C456.236 212.629 456.16 212.695 456.16 212.828V214.622C456.16 214.788 456.277 214.99 456.421 215.073C456.566 215.157 456.683 215.09 456.683 214.923V213.402L456.757 213.445V215.419C456.751 215.443 456.746 215.471 456.746 215.501V218.147C456.746 218.341 456.883 218.578 457.051 218.674C457.219 218.772 457.356 218.692 457.356 218.498V216.135L457.617 216.285V218.649C457.617 218.842 457.753 219.079 457.922 219.176C458.09 219.273 458.227 219.195 458.227 219V216.354C458.227 216.323 458.222 216.291 458.215 216.259V214.285L458.29 214.328V215.881C458.29 216.047 458.407 216.25 458.551 216.333C458.696 216.416 458.812 216.349 458.812 216.183V214.389C458.812 214.331 458.794 214.271 458.77 214.21C458.735 214.071 458.64 213.929 458.525 213.862Z" fill="#3F5666"/>
<path d="M457.485 213.115C457.965 213.392 458.355 213.167 458.355 212.612C458.355 212.057 457.965 211.383 457.485 211.105C457.005 210.828 456.615 211.052 456.615 211.608C456.615 212.163 457.004 212.838 457.485 213.115Z" fill="#3F5666"/>
<path d="M463.132 218.616L462.697 216.571C462.69 216.53 462.677 216.489 462.659 216.449C462.623 216.312 462.528 216.175 462.416 216.11L460.887 215.227C460.839 215.2 460.797 215.194 460.759 215.197C460.672 215.179 460.601 215.219 460.58 215.318L460.144 216.86C460.115 217.005 460.205 217.217 460.345 217.334C460.364 217.349 460.382 217.361 460.4 217.372C460.521 217.441 460.629 217.407 460.655 217.28L461.04 215.918L461.103 215.955L460.552 218.56L460.9 218.76V220.544C460.9 220.738 461.036 220.975 461.204 221.072C461.373 221.169 461.509 221.09 461.509 220.896V219.111L461.77 219.262V221.046C461.77 221.24 461.907 221.476 462.075 221.573C462.244 221.67 462.38 221.592 462.38 221.397V219.613L462.754 219.828L462.188 216.578L462.232 216.603L462.624 218.444C462.65 218.601 462.759 218.76 462.88 218.831C462.897 218.841 462.916 218.849 462.934 218.855C463.073 218.904 463.163 218.797 463.132 218.616Z" fill="#3F5666"/>
<path d="M461.64 215.513C462.12 215.79 462.51 215.566 462.51 215.011C462.51 214.455 462.12 213.781 461.64 213.503C461.16 213.226 460.77 213.451 460.77 214.006C460.77 214.561 461.16 215.235 461.64 215.513Z" fill="#3F5666"/>
<path d="M472.129 226.025L475.523 225.722L472.129 221.5V222.681L468.516 220.595V222.757L472.129 224.844V226.025Z" fill="#F8FBFF"/>
<path d="M446.686 203.574C446.358 203.574 446.092 203.307 446.092 202.98V199.593C446.092 199.266 446.358 199 446.686 199C447.013 199 447.279 199.266 447.279 199.593V202.98C447.279 203.308 447.013 203.574 446.686 203.574Z" fill="#F8FBFF"/>
<path d="M473.875 219.204C473.547 219.204 473.281 218.937 473.281 218.61V215.223C473.281 214.896 473.547 214.63 473.875 214.63C474.202 214.63 474.468 214.896 474.468 215.223V218.61C474.467 218.938 474.202 219.204 473.875 219.204Z" fill="#F8FBFF"/>
<path d="M444.555 228.7V239.318L467.7 252.681V242.062L444.555 228.7Z" fill="#F8FBFF"/>
<path d="M477.441 247.688L467.699 242.062V252.681L477.441 258.306V247.688Z" fill="#9EC959"/>
<path d="M444.002 228.989V239.607L467.147 252.97V242.351L444.002 228.989Z" fill="#F8FBFF"/>
<path d="M477.002 247.887L467.002 242V253.114L477.002 258.5V247.887Z" fill="#5B68B7"/>
<path d="M476.887 258.561L477.439 258.272V247.654L476.887 247.943V258.561Z" fill="#262C4F"/>
<path d="M467.146 242.352L467.698 242.062L477.44 247.688L476.888 247.977L467.146 242.352Z" fill="#7688F3"/>
<path d="M444.002 228.989L444.554 228.7L467.699 242.062L467.147 242.351L444.002 228.989Z" fill="#D5D7E3"/>
<path d="M459.711 242.349V242.232C459.711 242.116 459.684 242.002 459.63 241.891C459.576 241.781 459.501 241.697 459.401 241.639C459.303 241.582 459.227 241.578 459.172 241.627C459.119 241.676 459.092 241.758 459.092 241.874V242.823C459.235 242.758 459.392 242.776 459.563 242.875C459.836 243.033 460.042 243.261 460.177 243.56C460.297 243.822 460.359 244.124 460.359 244.466V245.282L460.355 245.28C460.341 245.575 460.247 245.775 460.07 245.878C459.894 245.982 459.677 245.959 459.422 245.812C459.147 245.654 458.922 245.411 458.744 245.083C458.571 244.766 458.484 244.45 458.484 244.137V241.539C458.484 241.307 458.533 241.125 458.63 240.994C458.728 240.863 458.866 240.804 459.045 240.816C459.159 240.821 459.285 240.863 459.421 240.941C459.692 241.098 459.918 241.342 460.098 241.673C460.271 241.991 460.359 242.307 460.359 242.62V242.724L459.711 242.349ZM459.092 244.475C459.092 244.591 459.117 244.703 459.168 244.808C459.223 244.923 459.3 245.009 459.398 245.066C459.499 245.125 459.575 245.127 459.63 245.075C459.682 245.029 459.709 244.949 459.709 244.833V243.952C459.709 243.815 459.665 243.676 459.576 243.533C459.535 243.467 459.476 243.412 459.401 243.368C459.294 243.307 459.212 243.308 459.157 243.375C459.113 243.431 459.091 243.508 459.091 243.607L459.092 244.475Z" fill="#3F5666"/>
<path d="M460.787 243.812L462.628 244.876V245.598L460.787 244.534V243.812Z" fill="#3F5666"/>
<path d="M463.993 243.58C464.264 243.737 464.49 243.981 464.67 244.312C464.843 244.63 464.931 244.946 464.931 245.259V247.857C464.931 248.173 464.841 248.389 464.662 248.506C464.482 248.622 464.261 248.605 463.993 248.45C463.719 248.292 463.493 248.049 463.315 247.721C463.142 247.404 463.055 247.088 463.055 246.775V246.672L463.7 247.045V247.162C463.7 247.278 463.726 247.391 463.781 247.501C463.834 247.61 463.91 247.693 464.008 247.75C464.108 247.808 464.184 247.813 464.237 247.765C464.292 247.717 464.318 247.635 464.318 247.519V246.566C464.173 246.632 464.016 246.617 463.848 246.519C463.576 246.362 463.371 246.134 463.236 245.835C463.116 245.573 463.055 245.271 463.055 244.926V244.11L463.059 244.112C463.068 243.897 463.122 243.73 463.221 243.612C463.321 243.494 463.456 243.441 463.627 243.454C463.739 243.461 463.861 243.503 463.993 243.58ZM464.318 244.914C464.318 244.798 464.292 244.685 464.237 244.574C464.184 244.463 464.108 244.379 464.008 244.322C463.909 244.265 463.833 244.262 463.781 244.31C463.726 244.358 463.7 244.441 463.7 244.557V245.438C463.7 245.578 463.744 245.717 463.832 245.859C463.871 245.925 463.929 245.98 464.006 246.025C464.164 246.116 464.262 246.076 464.302 245.907C464.313 245.855 464.319 245.814 464.319 245.783L464.318 244.914Z" fill="#3F5666"/>
<path d="M446.685 230.732C446.358 230.732 446.092 230.466 446.092 230.139V226.752C446.092 226.425 446.358 226.159 446.685 226.159C447.012 226.159 447.279 226.425 447.279 226.752V230.139C447.279 230.466 447.012 230.732 446.685 230.732Z" fill="#F8FBFF"/>
<path d="M473.873 246.362C473.546 246.362 473.279 246.096 473.279 245.769V242.382C473.279 242.055 473.546 241.788 473.873 241.788C474.2 241.788 474.467 242.055 474.467 242.382V245.769C474.466 246.096 474.2 246.362 473.873 246.362Z" fill="#F8FBFF"/>
<path d="M444.555 215.54V226.16L467.7 239.522V228.903L444.555 215.54Z" fill="#F8FBFF"/>
<path d="M477.441 234.528L467.699 228.903V239.522L477.441 245.147V234.528Z" fill="#9EC959"/>
<path d="M444.002 215.83V226.449L467.147 239.811V229.192L444.002 215.83Z" fill="#F8FBFF"/>
<path d="M476.888 234.817L467.146 229.192V239.811L476.888 245.436V234.817Z" fill="#5B68B7"/>
<path d="M476.889 245.436L477.441 245.147V234.528L476.889 234.817V245.436Z" fill="#262C4F"/>
<path d="M467.146 229.192L467.698 228.903L477.44 234.528L476.888 234.817L467.146 229.192Z" fill="#7688F3"/>
<path d="M444.002 215.83L444.554 215.54L467.699 228.903L467.147 229.192L444.002 215.83Z" fill="#D5D7E3"/>
<path d="M459.014 232.369V228.705L458.484 228.399V227.898C458.633 227.963 458.775 227.98 458.91 227.948C459.045 227.916 459.142 227.839 459.201 227.716L459.635 227.967V232.727L459.014 232.369Z" fill="#3F5666"/>
<path d="M460.062 230.237L461.905 231.3V232.022L460.062 230.959V230.237Z" fill="#3F5666"/>
<path d="M463.016 230.635V231.656C463.078 231.591 463.164 231.562 463.276 231.571C463.335 231.577 463.405 231.603 463.485 231.649C463.756 231.806 463.959 232.032 464.087 232.327C464.199 232.583 464.255 232.883 464.255 233.229V234.254C464.255 234.606 464.159 234.838 463.966 234.952C463.781 235.063 463.549 235.038 463.27 234.877C462.998 234.719 462.771 234.475 462.592 234.144C462.418 233.827 462.332 233.51 462.332 233.197V233.083L462.927 233.374L462.941 233.545C462.956 233.743 463.023 233.908 463.141 234.04C463.175 234.08 463.213 234.112 463.252 234.135C463.507 234.282 463.634 234.202 463.634 233.896V232.731C463.634 232.591 463.59 232.451 463.502 232.309C463.459 232.242 463.401 232.187 463.326 232.144C463.216 232.08 463.135 232.081 463.081 232.15C463.037 232.211 463.016 232.289 463.016 232.385V232.514L462.395 232.156V229.555L464.212 230.605V231.326L463.016 230.635Z" fill="#3F5666"/>
<path d="M446.685 217.574C446.358 217.574 446.092 217.307 446.092 216.98V213.593C446.092 213.266 446.358 213 446.685 213C447.012 213 447.279 213.266 447.279 213.593V216.98C447.279 217.307 447.012 217.574 446.685 217.574Z" fill="#F8FBFF"/>
<path d="M473.873 233.204C473.546 233.204 473.279 232.937 473.279 232.61V229.223C473.279 228.896 473.546 228.63 473.873 228.63C474.2 228.63 474.467 228.896 474.467 229.223V232.61C474.466 232.937 474.2 233.204 473.873 233.204Z" fill="#F8FBFF"/>
<path d="M473.49 238.273L471.704 233.67L469.918 236.21L470.85 236.749V240.553L472.558 241.539V237.735L473.49 238.273Z" fill="#F8FBFF"/>
<path d="M472.404 253.713L475.798 253.41L472.404 249.189V250.37L468.791 248.284V250.446L472.404 252.533V253.713Z" fill="#F8FBFF"/>
<path fill-rule="evenodd" clip-rule="evenodd" d="M440.111 247.526L443.869 210.109L442.507 203.732L356.553 154.126L352.783 191.483L354.157 197.919L440.111 247.526Z" fill="#C7D8E6"/>
<path fill-rule="evenodd" clip-rule="evenodd" d="M347.651 139.916L434.956 188.618L437.363 242.03L351.409 192.4L347.651 139.916Z" fill="#0E1A68"/>
<path fill-rule="evenodd" clip-rule="evenodd" d="M438.725 241.114L437.362 242.03L433.593 189.534L434.955 188.618L438.725 241.114Z" fill="#293896"/>
<path fill-rule="evenodd" clip-rule="evenodd" d="M347.639 139.916L433.593 189.534L434.955 188.618L349.013 139L347.639 139.916Z" fill="#BDDAFC"/>
<path fill-rule="evenodd" clip-rule="evenodd" d="M435.859 239.704C435.272 231.472 434.673 223.228 434.086 214.995C433.499 206.762 432.9 198.518 432.313 190.274C418.443 182.265 404.573 174.267 390.716 166.258C376.858 158.248 362.988 150.251 349.13 142.253C349.717 150.497 350.316 158.73 350.904 166.962C351.491 175.195 352.09 183.439 352.677 191.671C366.535 199.681 380.404 207.678 394.262 215.688C408.12 223.697 421.99 231.695 435.859 239.704Z" fill="white"/>
<path d="M318.856 281.043C319.078 281.102 318.961 280.985 318.856 281.043V281.043Z" fill="#E8C6AC"/>
<path d="M306.806 249.394C306.783 247.538 305.303 243.921 305.608 242.582H318.339C318.292 243.028 315.074 243.498 315.074 243.498L311.739 267.491C311.739 267.491 310.682 274.76 311.069 275.512C311.457 276.264 313.019 277.238 315.344 278.765C315.861 279.129 318.773 281.008 318.82 281.032C318.844 281.032 318.844 281.032 318.855 281.032C318.797 281.067 318.738 281.161 318.738 281.384C318.738 282.136 311.057 281.466 311.057 281.466C311.057 281.466 309.178 281.607 308.286 280.95C307.534 280.374 307.323 280.28 307.323 279.575C307.323 279.575 308.027 275.218 306.466 266.457C305.972 263.674 307.288 258.953 307.288 258.953L306.818 249.394H306.806Z" fill="white"/>
<path d="M309.871 281.595L309.683 283.391C309.683 283.391 309.178 283.744 308.603 283.638C307.839 283.509 307.558 283.145 307.558 283.145L306.97 280.338C306.97 280.338 307.534 281.289 309.072 281.571C309.554 281.653 309.859 281.618 309.859 281.618L309.871 281.595Z" fill="#321D10"/>
<path d="M311.422 279.223C314.346 281.09 316.19 280.08 316.448 279.939C317.505 279.364 317.07 278.694 316.495 278.295C316.26 278.13 315.908 278.048 315.908 278.048C315.873 278.048 318.703 277.802 319.501 278.365C319.771 278.553 320.018 278.8 320.03 279C320.053 279.434 319.76 279.739 319.76 279.739C319.76 279.739 318.069 280.432 316.894 281.02C314.909 282.041 310.083 281.419 308.274 281.501C307.664 281.525 306.806 280.573 306.759 279.387C306.7 277.79 307.229 277.097 307.229 277.097C307.229 277.097 307.969 276.968 309.319 277.884C309.648 278.107 310.811 278.835 311.422 279.223Z" fill="#293896"/>
<path d="M308.461 281.22C308.731 281.278 309.706 281.325 311.198 281.466C313.934 281.736 315.132 281.584 316.811 280.903C318.033 280.409 318.643 280.116 319.207 279.775C319.489 279.611 320.099 279.258 320.029 279C320.158 279.399 319.911 279.74 319.911 279.74C319.911 279.74 317.504 281.196 316.318 281.525C314.873 281.936 312.583 281.736 310.61 281.689C309.589 281.666 308.402 281.631 307.839 281.525C307.228 281.407 307.122 280.668 307.087 280.574C307.064 280.515 307.604 281.032 308.461 281.22Z" fill="#321D10"/>
<path d="M321.016 228.431L318.455 231.026C318.455 231.026 304.997 225.365 304.832 222.535C304.668 219.752 306.101 210.826 306.101 210.826C306.77 206.328 308.614 203.944 311.527 203.944C315.015 203.944 312.959 209.194 312.959 209.194L311.515 221.337L321.016 228.419V228.431Z" fill="white"/>
<path d="M306.982 233.727C306.805 233.727 306.664 233.879 306.664 234.055L307.205 236.275C307.205 236.451 307.346 236.604 307.534 236.604H311.879C312.055 236.604 312.219 236.463 312.243 236.275V234.055C312.266 233.879 312.161 233.727 311.984 233.727H306.97H306.982Z" fill="#EEEDED"/>
<path d="M311.867 234.573C311.867 234.737 311.726 234.866 311.574 234.866C311.421 234.866 311.28 234.726 311.28 234.573C311.28 234.42 311.421 234.279 311.574 234.279C311.726 234.279 311.867 234.408 311.867 234.573Z" fill="#B31E17"/>
<path d="M320.887 238.964C318.586 234.584 312.373 235.336 309.731 237.731C308.838 238.542 307.417 240.632 307.488 242.394C307.488 242.429 307.488 242.488 307.488 242.546C307.417 241.924 307.382 241.525 307.37 241.419C307.159 239.528 305.068 236.721 305.667 233.703L322.367 234.29C322.367 234.431 322.179 236.686 322.179 236.686L321.616 240.984C321.651 240.667 321.298 239.716 320.899 238.964H320.887Z" fill="#16556E"/>
<path d="M306.759 238.001L307.288 235.5L321.968 235.547V237.438C321.968 237.438 321.968 238.295 321.921 239C321.827 240.127 320.676 240.879 320.676 240.879L317.176 278.365C317.176 278.365 317.129 279.34 317.176 279.669C317.258 280.456 319.325 281.172 321.486 281.818C322.132 282.018 323.718 282.546 323.753 282.57C324.176 282.711 325.139 283.298 324.023 283.486C323.283 283.615 316.589 285.553 316.589 285.553C316.589 285.553 313.97 284.977 313.207 284.919C312.256 284.848 312.162 284.061 312.162 283.368L312.115 281.301C312.032 280.421 313.747 281.595 312.044 269.792C311.704 267.42 312.608 263.462 312.561 260.738C312.408 252.082 311.739 247.221 311.668 246.633C311.445 244.743 307.805 241.619 306.771 238.013L306.759 238.001Z" fill="white"/>
<path d="M324.141 250.979C324.141 251.648 316.542 253.915 310.177 252.365C306.114 251.378 301.604 247.233 301.263 246.399C301.24 246.317 305.151 236.229 305.656 233.704L322.332 233.457C322.649 234.913 324.141 250.979 324.141 250.979Z" fill="#293896"/>
<path d="M319.266 205.002L324.069 213.493C324.069 213.493 324.539 214.232 324.527 214.878C324.504 215.524 324.504 216.311 323.705 217.533C323.623 217.662 323.529 217.779 323.447 217.897C322.578 219.012 320.581 222.101 320.581 223.51L322.366 233.657C322.366 233.657 322.366 234.268 322.308 235.207C322.308 235.207 320.417 237.779 316.201 237.791C311.808 237.803 305.584 233.998 305.655 233.68L308.99 225.283C309.154 224.497 309.213 223.686 309.154 222.876L307.052 214.115C307.052 214.115 306.876 210.486 307.381 208.548C308.72 203.475 312.196 202.782 312.396 202.395C312.396 202.395 318.867 204.297 319.266 204.99V205.002Z" fill="#293896"/>
<path d="M316.389 186.199L321.24 184.825L323.025 198.284C323.342 200.809 322.285 202.288 321.228 202.688C319.173 203.451 317.2 202.347 314.452 200.445C312.033 198.754 311.903 197.239 311.786 196.91L308.321 188.9L316.401 186.199H316.389Z" fill="white"/>
<path d="M314.533 285.423L314.134 287.173C314.134 287.173 313.57 287.467 312.995 287.291C312.231 287.068 311.985 286.668 311.985 286.668L311.703 283.803C311.703 283.803 312.607 285.341 314.017 285.376C314.522 285.388 314.533 285.423 314.533 285.423Z" fill="#321D10"/>
<path d="M316.577 283.028C319.56 284.449 321.216 283.732 321.509 283.627C322.66 283.192 322.754 282.605 322.214 282.135C321.991 281.936 321.462 281.818 321.462 281.818C321.427 281.818 325.056 282.476 325.537 283.086C325.737 283.345 325.807 283.58 325.796 283.779C325.772 284.214 325.42 284.484 325.42 284.484C325.42 284.484 323.611 284.954 322.343 285.412C320.182 286.175 314.768 285.271 312.901 285.13C312.267 285.071 311.492 284.026 311.585 282.84C311.703 281.243 312.325 280.62 312.325 280.62C312.325 280.62 313.1 280.585 314.381 281.654C314.698 281.912 316.083 282.793 316.577 283.028Z" fill="#293896"/>
<path d="M312.831 284.625C313.101 284.719 314.205 285.048 315.697 285.294C318.903 285.834 320.476 285.752 322.273 285.283C323.589 284.93 324.246 284.731 324.857 284.46C325.174 284.331 325.796 283.944 325.796 283.791C325.808 284.355 325.585 284.507 325.585 284.507C325.585 284.507 323.953 285.212 321.686 285.846C319.008 286.586 316.413 285.694 314.816 285.517C313.677 285.388 313.219 285.564 312.714 285.283C312.021 284.883 311.809 284.179 311.786 284.085C311.774 284.014 311.962 284.355 312.819 284.648L312.831 284.625Z" fill="#321D10"/>
<path d="M315.378 222.534C315.378 222.534 315.602 228.676 316.412 230.274C317.657 232.728 328.837 226.527 331.292 225.247C333.828 223.92 337.14 226.75 339.97 224.86L344.351 221.348C344.551 221.078 344.269 220.714 343.975 220.867C341.92 221.935 336.846 224.237 337.575 222.288C337.974 221.207 339.207 220.632 339.207 220.268C339.207 219.364 337.187 220.479 336.071 221.219C334.956 221.947 333.535 221.994 332.079 222.511C330.622 223.028 320.945 225.905 320.511 225.611C319.782 225.106 323.822 210.133 319.137 210.051C319.137 210.051 313.758 208.982 315.308 221.654C316.929 234.924 315.39 222.558 315.39 222.558L315.378 222.534Z" fill="#EBEBEB"/>
<path d="M305.419 213.75C302.823 209.523 303.141 187.902 308.414 184.015C312.43 181.043 317.139 181.725 320.158 184.109C322.589 186.046 322.025 189.499 321.015 192.059C319.465 195.958 319.488 198.589 319.476 199.493C319.382 219.892 310.234 221.584 305.419 213.75Z" fill="#321D10"/>
<path d="M232.161 229.957L233.171 230.145L234.251 232.33L233.922 234.256C233.922 234.256 233.805 234.772 234.157 235.454C234.287 235.724 234.533 236.182 234.533 236.182C234.533 236.182 234.557 238.143 233.171 237.661C232.725 237.509 232.419 237.098 232.419 237.098C231.809 236.969 230.81 236.628 230.141 236.44C228.591 236.006 229.072 234.068 229.072 234.068L229.366 232.13C229.518 231.05 230.352 229.922 232.173 229.946L232.161 229.957Z" fill="white"/>
<path d="M229.588 228.595L229.705 231.589L233.299 231.942L233.439 230.028L229.588 228.595Z" fill="#E8C6AC"/>
<path d="M232.124 231.637C231.96 232.612 233.087 233.492 233.921 233.657C234.215 233.716 234.015 236.475 235.483 236.323C235.483 236.323 235.589 235.689 235.741 234.573C235.741 234.491 236.047 233.575 235.612 232.788C234.461 230.733 234.367 230.369 233.534 230.204C232.7 230.028 232.312 230.662 232.136 231.625L232.124 231.637Z" fill="white"/>
<path d="M278.479 219.623C277.915 220.551 277.868 221.126 277.868 221.126C277.868 221.126 277.023 221.901 276.295 221.655C272.525 220.375 264.069 218.625 258.491 214.749C255.108 212.4 250.681 199.999 250.681 199.999C250.681 199.999 249.048 198.531 252.395 195.266C254.838 192.87 260.898 191.919 261.286 195.09C261.544 197.18 263.094 207.456 264.809 209.089C268.109 212.236 279.078 216.346 279.078 216.346C279.078 216.346 280.182 216.863 278.479 219.623Z" fill="#5B68B7"/>
<path d="M245.49 281.232C245.49 281.232 246.065 282.476 245.29 284.355C245.29 284.355 244.351 285.048 244.198 285.201C243.317 286.035 240.393 290.439 237.774 290.544C234.909 290.674 234.732 288.536 235.05 287.221C235.202 286.552 238.537 279.364 238.537 279.364L245.502 281.232H245.49Z" fill="#292928"/>
<path d="M264.926 271.543C264.926 271.543 266.148 273.716 267.04 274.103C268.884 274.89 274.192 276.393 274.685 276.569C275.014 276.687 275.555 277.063 275.543 277.626C275.543 277.849 275.519 277.99 275.378 278.19C274.85 278.906 273.758 279.177 272.771 279.411C270.058 280.034 262.096 278.378 261.849 278.202C261.849 278.202 261.039 278.037 260.839 278.413C260.769 278.554 260.804 279.083 260.792 279.094L257.927 278.19C257.786 278.12 257.492 276.816 257.422 276.241L257.539 272.482L264.961 271.543H264.926Z" fill="#231F20"/>
<path d="M275.379 277.873C274.697 278.695 273.664 279 272.666 279.188C269.401 279.822 261.744 278.049 261.744 278.049C261.086 277.967 260.816 278.19 260.769 278.554V279.071C260.769 279.071 261.685 278.495 261.673 278.495C261.673 278.495 268.861 280.245 272.078 279.904C273.088 279.787 274.803 279.223 275.402 278.331C275.508 278.178 275.625 277.791 275.508 277.521C275.496 277.567 275.402 277.814 275.379 277.861V277.873Z" fill="#292928"/>
<path d="M265.044 227.421L266.03 271.954C266.077 273.434 267.04 273.88 267.005 274.056C266.535 276.558 257.986 277.286 257.128 275.395L253.946 227.574L265.044 227.433V227.421Z" fill="#0E1A68"/>
<path d="M258.221 229.299L256.506 240.151L246.277 281.184C246.16 282.065 245.69 282.323 244.868 282.511C240.135 283.65 238.209 282.065 238.209 282.065C237.316 281.642 237.363 280.937 237.328 280.526L243.294 227.314L258.221 229.287V229.299Z" fill="#293896"/>
<path d="M239.148 196.675C239.148 196.675 239.536 195.301 244.022 194.42C245.173 194.197 250.74 193.07 255.12 192.189C258.314 191.543 261.615 193.14 262.578 196.1C262.695 196.452 262.812 196.816 262.93 197.216C263.071 197.65 265.995 204.673 265.173 227.151C265.102 229.335 260.698 230.745 255.331 230.58C250.904 230.439 244.022 228.736 244.022 228.736C244.022 228.736 243.329 228.807 243.036 227.409C242.178 223.311 242.871 218.496 242.284 215.348C241.368 210.334 239.137 196.675 239.137 196.675H239.148Z" fill="#293896"/>
<path d="M249.483 182.558C250.998 182.664 251.068 184.05 251.068 184.05L250.845 186.95C250.845 186.95 250.728 187.573 250.141 187.643C249.272 187.749 248.943 187.009 248.626 186.199C248.602 186.152 248.203 184.954 248.179 184.883C247.827 183.862 248.05 182.464 249.483 182.558Z" fill="#FDE7DA"/>
<path d="M255.8 201.15C255.67 200.891 255.635 200.68 255.635 200.351L255.659 199.318L253.803 197.392L253.099 197.638L253.122 200.14L254.015 200.891C254.285 201.056 254.367 201.925 254.402 202.218C254.402 202.218 256.457 216.981 255.635 223.17C255.588 223.545 258.313 228.642 258.313 228.642C258.313 228.642 261.014 224.391 260.932 223.17C260.239 212.624 255.788 201.15 255.788 201.15H255.8Z" fill="#BDDAFC"/>
<path d="M253.627 198.483C251.067 201.607 248.895 197.168 246.71 195.253L246.417 186.352L254.168 187.655L254.344 192.247L253.627 198.483Z" fill="white"/>
<path d="M248.601 177.603L243.176 179.752L247.122 189.1C247.474 189.711 247.897 190.533 248.742 190.932C249.353 191.226 249.764 191.297 250.903 191.473C250.903 191.473 255.084 191.731 256.799 190.263C257.503 189.652 257.386 188.584 257.398 187.903C257.398 187.128 256.963 184.92 256.787 184.356L255.601 179.611L254.309 175.947L248.613 177.591L248.601 177.603Z" fill="white"/>
<path d="M253.417 174.338C254.803 175.183 254.862 176.428 255.308 178.296C255.472 178.988 255.496 179.54 255.531 179.552C255.566 179.564 255.179 178.718 254.92 177.955C254.286 176.088 253.194 176.687 252.442 177.086C252.419 177.086 249.072 178.836 249.06 178.859C249.037 178.941 249.107 177.509 248.919 177.697C248.121 178.542 247.862 178.941 247.674 180.069C247.475 181.29 248.003 183.686 248.402 184.473L248.755 185.283C248.943 185.706 249.095 186.011 248.99 186.047C248.626 186.176 247.944 185.953 247.616 185.553C247.616 185.553 246.652 184.626 245.513 185.271C244.527 185.823 246.312 187.832 246.429 187.926L246.617 188.63C246.711 189.135 246.676 190.556 246.195 190.075C245.396 189.253 243.611 187.468 243.082 186.986C237.34 181.654 240.064 173.633 248.156 173.563C249.906 173.551 253.053 174.115 253.394 174.326L253.417 174.338Z" fill="#322313"/>
<path d="M245.477 184.908C246.886 184.356 247.591 185.577 247.591 185.577L248.93 187.503C248.93 187.503 249.094 188.325 248.613 188.642C247.873 189.112 247.744 189.077 246.887 188.772C246.382 188.595 245.489 187.903 245.43 187.856C244.655 187.092 244.138 185.425 245.477 184.908Z" fill="white"/>
<path d="M253.699 197.074C253.605 197.579 253.722 197.838 254.004 198.096L255.707 199.74C256.247 200.233 256.341 199.576 256.259 198.989L255.519 194.761C254.803 192.153 254.333 192.247 254.333 192.247C254.333 192.247 254.286 192.565 254.251 193.281C254.204 194.197 253.805 196.475 253.699 197.074Z" fill="white"/>
<path d="M246.594 192.247C246.594 192.247 246.77 193.327 247.064 193.727C248.743 196.029 252.818 197.156 252.818 197.156C253.311 197.25 253.746 197.403 253.793 198.166L253.699 201.137C253.746 201.877 253.335 201.854 252.983 201.607C252.983 201.607 249.53 199.575 248.532 198.871C246.195 197.203 246.218 195.805 246.289 193.187C246.312 192.447 246.594 192.259 246.594 192.259V192.247Z" fill="white"/>
<path d="M278.807 216.369C278.807 216.369 279.665 216.31 279.818 216.733C279.97 217.168 280.193 218.131 279.183 220.08C278.819 220.773 278.185 221.313 278.009 221.466C277.751 221.689 277.069 222.088 276.717 221.877C276.459 221.724 276.247 221.431 276.177 220.667C276.024 219.035 277.105 217.273 277.527 217.015C277.938 216.757 278.819 216.369 278.819 216.369H278.807Z" fill="#B6C1C7"/>
<path d="M278.22 218.248L278.877 217.321L281.802 217.18L283.822 218.331C283.822 218.331 284.362 218.671 285.278 218.612C285.63 218.589 286.264 218.542 286.264 218.542C286.264 218.542 288.484 219.364 287.345 220.538C286.969 220.914 286.394 221.055 286.394 221.055C285.982 221.607 285.16 222.464 284.667 223.052C283.505 224.414 281.532 223.099 281.532 223.099L279.488 221.983C278.337 221.36 277.433 220.045 278.243 218.248H278.22Z" fill="white"/>
<path d="M275.541 219.564L278.924 220.585L279.922 216.804L278.066 216.287L275.541 219.564Z" fill="white"/>
<path d="M279.336 216.404C279.336 216.404 277.997 216.099 276.905 218.342C276.318 219.528 276.177 220.42 276.247 221.125C276.294 221.665 276.729 221.888 276.729 221.888L275.695 221.454C275.695 221.454 275.002 220.643 275.601 218.858C276.482 216.204 278.432 216.134 278.432 216.134L279.336 216.404Z" fill="#E0E7EA"/>
<path d="M280.111 219.011C281.132 219.587 282.483 218.741 283.164 218.084C283.411 217.837 283.622 217.708 284.726 218.295C285.477 218.694 286.793 218.589 286.84 217.684C286.84 217.684 286.217 217.356 284.937 216.616C284.843 216.569 284.009 215.758 282.953 215.852C280.146 216.111 279.653 216.592 279.171 217.179C278.748 217.696 279.112 218.436 280.122 219.023L280.111 219.011Z" fill="white"/>
<path d="M230.399 232.013C229.33 231.684 229.119 231.226 229.119 231.226C229.119 231.226 229.753 218.765 231.621 212.553C233.911 204.931 237.845 198.307 237.845 198.307C238.162 197.908 240.111 193.81 242.589 195.806C244.785 197.591 244.586 203.487 243.505 204.555C242.953 205.095 241.802 211.226 240.064 214.432C236.4 221.22 235.296 231.625 235.296 231.625C235.296 231.625 233.734 233.034 230.399 232.013Z" fill="#5B68B7"/>
</svg>
