<svg width="705" height="468" viewBox="0 0 705 468" fill="none" xmlns="http://www.w3.org/2000/svg">
<rect width="705" height="468" fill="#E0E6F9"/>
<path d="M210.082 279.514C210.082 279.827 207 299.251 207 299.251C207 299.543 207.421 299.78 207.94 299.78C208.459 299.78 208.88 299.543 208.88 299.251L212.282 280.89L210.082 279.514Z" fill="#5B68B7"/>
<path d="M227.54 289.36C227.54 289.673 227.098 310.818 227.098 310.818C227.098 311.109 227.518 311.346 228.038 311.346C228.557 311.346 228.978 311.109 228.978 310.818L229.738 290.735L227.54 289.36Z" fill="#5B68B7"/>
<path d="M242.891 280.706C242.891 281.02 242.449 302.163 242.449 302.163C242.449 302.455 242.87 302.692 243.389 302.692C243.908 302.692 244.329 302.455 244.329 302.163L245.089 282.082L242.891 280.706Z" fill="#5B68B7"/>
<path d="M225.754 270.839C225.754 271.152 222.672 290.576 222.672 290.576C222.672 290.868 223.093 291.105 223.612 291.105C224.131 291.105 224.552 290.868 224.552 290.576L227.954 272.215L225.754 270.839Z" fill="#5B68B7"/>
<path d="M226.69 268.5L209.641 278.343V255.613L226.69 245.771V268.5Z" fill="#5B68B7"/>
<path d="M208.111 254.815V279.512L209.64 280.31V255.614L208.111 254.815Z" fill="#293896"/>
<path d="M226.69 245.771L225.159 244.973L208.111 254.815L209.64 255.614L226.69 245.771Z" fill="#95ADFB"/>
<path d="M246.264 279.802L229.217 289.644L209.641 278.343L226.69 268.5L246.264 279.802Z" fill="#293896"/>
<path d="M229.216 289.645V291.699L208.111 279.512V277.444L229.216 289.645Z" fill="#293896"/>
<path d="M229.217 289.645V291.699L246.265 281.871V279.803L229.217 289.645Z" fill="#5B68B7"/>
<path d="M252.772 303.432C254.092 304.719 254.5 305.089 255.725 306.284C256.441 306.982 255.851 307.624 254.488 307.572C253.29 307.526 250.575 306.942 249.057 306.397C247.978 306.009 246.002 304.917 244.992 304.278C243.982 303.64 243.785 302.752 243.785 302.752V300.605L250.278 300.882C250.278 300.882 251.347 302.041 252.772 303.432Z" fill="#0C1342"/>
<path d="M241.35 310.21C242.67 311.496 243.079 311.867 244.303 313.062C245.019 313.761 244.43 314.402 243.066 314.35C241.868 314.304 239.155 313.72 237.635 313.176C236.557 312.788 234.58 311.696 233.57 311.057C232.56 310.419 232.363 309.531 232.363 309.531V305.743L238.856 307.66C238.856 307.66 239.923 308.82 241.35 310.21Z" fill="#0C1342"/>
<path d="M218.165 270.211L231.136 265.223C231.136 265.223 233.253 267.265 237.17 269.628C239.452 271.005 245.737 274.701 247.75 276.122C248.991 276.997 249.548 278.89 250.032 283.147C250.828 290.18 251.413 299.951 251.413 299.951C251.413 299.951 250.01 301.915 246.83 301.903C244.389 301.893 242.564 301.135 242.564 301.135L242.069 283.209L232.048 276.888C232.048 276.888 237.471 280.803 238.337 284.113C239.031 286.772 239.264 288.811 239.37 292.129C239.597 299.278 239.671 306.953 239.671 306.953C239.671 306.953 239.2 309.324 236.019 309.311C233.578 309.302 231.567 307.316 231.567 307.316L230.923 287.937C230.923 287.937 221.751 281.398 219.347 278.633C216.658 275.537 218.165 270.211 218.165 270.211Z" fill="#0E1A68"/>
<path d="M228.883 240.78C228.883 240.78 230.46 238.601 232.922 240.941C234.684 242.616 237.342 247.122 237.884 248.921C238.183 249.915 239.162 248.122 239.162 249.841C239.162 250.966 239.612 250.855 239.896 251.301C240.636 252.469 239.621 256.676 237.237 257.269C235.982 257.258 232.528 255.189 231.164 252.445C228.834 247.752 228.883 240.78 228.883 240.78Z" fill="#293896"/>
<path d="M230.184 241.465C229.619 241.702 229.341 242.256 229.341 242.256L222.659 242.378C222.659 242.378 217.229 243.499 215.951 247.705C215.857 249.025 217.69 253.402 217.783 253.671C219.482 258.617 218.348 266.048 217.993 271.018C224.086 275.404 232.753 271.523 235.507 268.138C234.082 258.408 237.912 248.498 230.184 241.465Z" fill="#0C1342"/>
<path d="M228.591 241.305L223.517 237.618L222.443 243.58C222.443 243.58 223.474 244.814 224.995 245.612C226.266 246.278 227.574 246.106 228.961 246.539C229.543 245.497 228.961 244.227 228.961 244.227L228.591 241.305Z" fill="white"/>
<path d="M229.908 241.215C229.908 241.215 231.031 242.228 231.565 242.88C232.1 243.532 232.079 244.305 232.441 244.931C232.802 245.557 232.92 245.753 232.92 245.753C232.92 245.753 232.06 245.871 231.785 245.519C231.512 245.167 231.278 244.972 230.965 245.128C230.652 245.283 230.418 246.114 230.26 246.54C230.103 246.967 229.479 247.479 229.479 247.479L228.539 246.254C228.539 246.254 229.225 245.363 228.96 244.738C228.695 244.112 228.616 241.92 228.616 241.92L229.908 241.215Z" fill="#BBD2E9"/>
<path d="M222.92 231.065C221.798 232.495 221.45 236.081 222.996 238.603C224.37 240.845 227.502 242.113 228.893 242.336C231.377 242.737 234.058 235.873 231.221 231.676C228.517 227.673 224.365 229.223 222.92 231.065Z" fill="white"/>
<path d="M225.309 228.026C223.882 228.259 222.803 229.131 222.042 230.196C219.509 230.735 219.767 234.381 220.396 235.759C221.609 238.419 222.997 238.602 222.997 238.602C222.997 238.602 222.635 237.15 222.955 236.519C223.228 235.979 224.091 235.886 224.38 236.846C224.7 236.944 225.084 236.915 225.084 236.915L224.794 234.997C224.794 234.997 226.256 235.738 227.914 234.78C229.452 233.89 230.947 234.408 231.482 234.913C231.807 234.096 231.778 233.624 231.733 232.957C232.718 232.267 233.653 231.648 233.51 231.18C232.754 231.401 231.886 231.42 231.155 230.958C231.778 230.468 232.081 230.025 232.441 229.491C230.71 229.712 226.975 227.754 225.309 228.026Z" fill="#613722"/>
<path d="M222.993 240.534C222.993 240.534 222.552 241.401 223.839 242.735C224.61 243.536 227.016 244.295 227.684 244.69C228.262 245.033 228.948 245.862 228.948 245.862C228.948 245.862 229.189 246.244 229.335 246.86C229.481 247.476 229.481 247.476 229.481 247.476C229.481 247.476 228.909 246.957 228.179 246.7C227.45 246.445 227.548 247.141 227.293 247.912C227.081 248.55 226.235 248.566 226.235 248.566C226.235 248.566 226.111 247.437 225.98 247.219C225.567 246.536 223.564 246.198 222.771 245.541C221.713 244.666 221.175 243.169 221.548 242.336C221.922 241.505 222.524 240.522 222.993 240.534Z" fill="#BBD2E9"/>
<path d="M218.171 245.277C219.512 245.979 221.228 248.85 221.428 250.086C221.808 252.429 221.692 254.016 221.755 254.528C221.893 255.643 222.443 256.874 222.008 258.453C221.893 258.871 221.799 259.625 221.956 260.106C222.544 261.907 223.089 262.293 222.821 263.352C223.234 263.476 223.562 263.748 223.809 263.964C224.189 264.298 224.073 266.129 224.073 266.129C224.073 266.129 219.69 269.895 218.726 269.411C214.635 267.352 214.537 258.62 214.37 256.767C214.083 253.567 214.173 250.436 214.868 248.2C215.289 246.847 217.349 244.847 218.171 245.277Z" fill="#293896"/>
<path d="M223.034 265.986C224.313 267.009 228.422 272.482 229.536 273.673C230.65 274.864 232.345 275.042 233.752 276.873C234.805 278.243 236.409 280.412 236.179 281.634C235.949 282.856 234.161 282.466 232.563 281.634C230.883 280.759 228.872 278.802 227.881 277.174C227.419 276.418 224.211 273.931 222.127 272.266C219.707 270.334 219.141 269.258 219.141 269.258C219.141 269.258 219.829 266.24 223.034 265.986Z" fill="white"/>
<path d="M224.86 267.769C224.86 267.769 224.655 266.78 224.072 266.127C223.489 265.475 223.136 265.489 223.136 265.489C223.136 265.489 221.629 265.342 220.28 266.73C218.93 268.119 218.727 269.41 218.727 269.41C218.727 269.41 219.096 270.354 219.84 270.91C220.358 271.295 220.846 271.225 220.846 271.225C220.846 271.225 220.281 270.427 221.894 268.798C223.51 267.168 224.86 267.769 224.86 267.769Z" fill="#BBD2E9"/>
<path d="M239.945 251.415C241.197 249.854 243.046 247.8 244.529 245.818C246.011 243.835 246.705 243.436 247.573 241.735C248.718 239.495 249.423 238.56 249.594 239.371C249.768 240.193 249.437 240.543 249.213 241.282C248.987 242.021 248.518 242.912 248.518 242.912C248.518 242.912 249.794 243.814 250.223 244.716C250.652 245.618 249.983 246.494 249.185 247.12C248.387 247.745 247.211 247.423 246.751 247.947C245.85 248.976 245.045 252.277 243.244 254.633C241.444 256.99 240.644 257.182 239.599 257.716C238.397 258.33 237.761 257.731 237.335 257.115C237.078 256.745 237.337 256.182 237.378 255.608C237.489 254.079 239.443 252.044 239.945 251.415Z" fill="white"/>
<path d="M239.121 251.335L239.836 251.548C239.836 251.548 238.774 252.572 238.739 254.532C238.721 255.577 239.836 257.6 239.836 257.6C239.836 257.6 238.982 258.647 238.045 258.438C237.108 258.23 236.622 257.38 236.656 255.739C236.692 254.099 237.67 252.018 239.121 251.335Z" fill="#BBD2E9"/>
<path d="M264.331 314.688C264.331 317.68 260.02 320.107 254.702 320.107C249.383 320.107 245.072 317.68 245.072 314.688C245.072 311.694 249.383 309.269 254.702 309.269C260.02 309.269 264.331 311.696 264.331 314.688Z" fill="#5B68B7"/>
<path d="M264.33 313.08H245.072V314.688H264.33V313.08Z" fill="#5B68B7"/>
<path d="M264.331 313.332C264.331 316.326 260.02 318.752 254.702 318.752C249.383 318.752 245.072 316.326 245.072 313.332C245.072 310.34 249.383 307.913 254.702 307.913C260.02 307.913 264.331 310.339 264.331 313.332Z" fill="#0E1A68"/>
<path d="M261.982 313.192C261.982 315.46 258.715 317.299 254.685 317.299C250.654 317.299 247.387 315.46 247.387 313.192C247.387 310.923 250.654 309.084 254.685 309.084C258.715 309.084 261.982 310.923 261.982 313.192Z" fill="#293896"/>
<path d="M255.712 264.294H253.652V312.635H255.712V264.294Z" fill="#5B68B7"/>
<path d="M255.712 312.752C255.712 313.072 255.25 313.332 254.682 313.332C254.114 313.332 253.652 313.072 253.652 312.752C253.652 312.432 254.114 312.173 254.682 312.173C255.25 312.173 255.712 312.432 255.712 312.752Z" fill="#5B68B7"/>
<path d="M275.893 270.592V268.49H275.451C273.4 263.099 264.895 259.053 254.701 259.053C244.509 259.053 236.002 263.097 233.951 268.49H233.473V271.001C233.473 277.599 242.977 282.948 254.701 282.948C266.425 282.948 275.93 277.599 275.93 271.001C275.93 270.864 275.902 270.729 275.893 270.592Z" fill="#293896"/>
<path d="M275.93 269.029C275.93 275.626 266.427 280.977 254.701 280.977C242.977 280.977 233.473 275.628 233.473 269.029C233.473 262.431 242.977 257.08 254.701 257.08C266.425 257.081 275.93 262.431 275.93 269.029Z" fill="#5B68B7"/>
<path d="M268.999 265.18C268.999 267.566 265.855 269.499 261.976 269.499C258.097 269.499 254.953 267.565 254.953 265.18C254.953 262.794 258.097 260.86 261.976 260.86C265.855 260.86 268.999 262.795 268.999 265.18Z" fill="#5B68B7"/>
<path d="M269.008 264.976C269.008 267.263 265.863 269.118 261.982 269.118C258.102 269.118 254.955 267.263 254.955 264.976C254.955 262.69 258.1 260.835 261.982 260.835C265.863 260.835 269.008 262.69 269.008 264.976Z" fill="white"/>
<path d="M268.569 264.976C268.569 267.025 265.62 268.684 261.981 268.684C258.341 268.684 255.393 267.025 255.393 264.976C255.393 262.928 258.343 261.269 261.981 261.269C265.62 261.269 268.569 262.93 268.569 264.976Z" fill="#5B68B7"/>
<path opacity="0.5" d="M266.081 265.18C266.081 266.454 264.246 267.488 261.982 267.488C259.718 267.488 257.883 266.455 257.883 265.18C257.883 263.906 259.718 262.872 261.982 262.872C264.245 262.872 266.081 263.906 266.081 265.18Z" fill="#293896"/>
<path d="M264.004 259.776C264.004 259.776 265.252 258.519 266.644 259.793C267.765 260.82 266.411 263.075 265.943 263.617C265.476 264.16 265.508 264.754 264.819 264.743C264.132 264.733 264.004 259.776 264.004 259.776Z" fill="#293896"/>
<path d="M265.792 260.967C265.792 260.967 266.025 260.504 266.203 260.466C266.381 260.429 266.82 260.585 266.662 261.393C266.495 262.24 266.113 263.005 265.455 263.439C264.797 263.872 265.792 260.967 265.792 260.967Z" fill="#95ADFB"/>
<path d="M264.658 265.427C264.658 266.238 263.489 266.896 262.047 266.896C260.606 266.896 259.438 266.238 259.438 265.427C259.438 264.616 260.606 263.958 262.047 263.958C263.489 263.958 264.658 264.616 264.658 265.427Z" fill="#95ADFB"/>
<path d="M265.952 260.967L262.769 263.171C262.521 263.131 262.258 263.109 261.988 263.109C261.713 263.109 261.447 263.131 261.195 263.172L258.009 260.967C258.009 260.967 257.78 263.594 259.255 265.333C259.38 265.48 259.511 265.595 259.646 265.683C260.171 266.092 261.022 266.36 261.986 266.36C263 266.36 263.89 266.065 264.405 265.62C264.507 265.542 264.608 265.448 264.705 265.334C266.181 263.594 265.952 260.967 265.952 260.967Z" fill="white"/>
<path d="M265.964 260.967C265.964 262.202 264.184 263.206 261.987 263.206C259.79 263.206 258.01 262.202 258.01 260.967C258.01 259.731 259.791 258.728 261.987 258.728C264.184 258.728 265.964 259.731 265.964 260.967Z" fill="white"/>
<path d="M261.988 260.127C263.601 260.127 264.965 260.724 265.418 261.549C265.522 261.36 265.579 261.159 265.579 260.95C265.579 259.834 263.972 258.929 261.988 258.929C260.004 258.929 258.396 259.834 258.396 260.95C258.396 261.159 258.453 261.36 258.558 261.549C259.011 260.724 260.375 260.127 261.988 260.127Z" fill="#95ADFB"/>
<path d="M261.987 262.971C263.6 262.971 264.964 262.373 265.417 261.549C264.964 260.725 263.599 260.126 261.987 260.126C260.373 260.126 259.01 260.724 258.557 261.549C259.01 262.372 260.373 262.971 261.987 262.971Z" fill="#293896"/>
<path d="M263.144 258.092C263.423 257.859 263.799 257.667 263.941 257.312C264.056 257.026 264.006 256.678 263.827 256.434C263.631 256.166 263.288 255.887 263.187 255.638C263.231 255.56 263.375 255.344 263.305 254.999C263.238 254.663 263.026 254.352 262.712 254.216C262.417 254.088 262.162 254.088 261.978 254.315C262.089 254.272 262.368 254.307 262.517 254.603C262.595 254.759 262.608 254.858 262.507 255.045C262.381 255.278 262.183 255.452 261.964 255.603C261.668 255.808 261.303 255.953 261.115 256.279C260.99 256.497 260.964 256.763 261.025 257.006C260.919 257.127 260.819 257.252 260.732 257.379C260.526 257.684 260.501 258.063 260.628 258.403C260.773 258.788 261.095 259.057 261.471 259.189C261.372 259.247 261.272 259.304 261.177 259.364C260.881 259.551 260.56 259.805 260.533 260.185C260.509 260.505 260.741 260.76 261.01 260.899C261.204 260.999 261.422 261.037 261.627 261.11C262.121 261.284 262.16 261.47 262.128 261.678C262.423 261.599 262.574 261.511 262.538 261.149C262.773 260.968 263.179 260.815 263.43 260.61C263.633 260.445 263.795 260.213 263.789 259.941C263.782 259.648 263.602 259.38 263.391 259.189C263.173 258.994 262.71 258.74 262.835 258.439C262.9 258.295 263.031 258.186 263.144 258.092ZM261.602 258.678C261.295 258.771 260.736 258.158 261.168 257.32C261.213 257.388 261.269 257.454 261.331 257.496C261.15 258.078 261.494 258.594 261.602 258.678ZM262.47 260.948C262.364 260.798 262.164 260.727 261.992 260.657C261.718 260.546 261.434 260.303 261.718 260.014C261.835 259.896 261.991 259.825 262.121 259.725C262.132 259.717 262.142 259.707 262.153 259.698C262.165 259.774 262.194 259.85 262.249 259.927C262.34 260.056 262.469 260.153 262.562 260.282C262.734 260.525 262.629 260.752 262.47 260.948ZM262.856 256.044C262.887 256.093 262.918 256.142 262.949 256.191C263.044 256.343 263.14 256.503 263.127 256.689C263.113 256.912 262.961 257.104 262.804 257.249C262.653 257.388 262.438 257.511 262.277 257.668C262.23 257.51 262.18 257.36 262.184 257.182C262.191 256.921 262.272 256.664 262.427 256.452C262.538 256.299 262.71 256.18 262.856 256.044Z" fill="white"/>
<path d="M269.697 264.382C269.707 264.494 269.669 264.609 269.527 264.697C269.111 264.956 267.436 265.311 266.487 265.569C265.539 265.827 265.111 266.075 264.795 266.346C264.48 266.617 264.296 266.871 263.819 267.261C263.342 267.649 262.391 267.858 261.601 267.67C261.225 267.58 261.04 267.409 260.957 267.23C260.972 267.294 260.996 267.356 261.027 267.412C261.193 267.715 261.661 267.942 262.27 267.942C263.143 267.942 263.674 267.648 264.275 267.032C264.46 266.841 264.833 266.472 264.964 266.359C265.125 266.218 265.599 265.976 266.18 265.8C267.256 265.475 268.687 265.127 269.289 264.977C269.595 264.901 269.764 264.686 269.746 264.508C269.742 264.462 269.725 264.42 269.697 264.382Z" fill="#293896"/>
<path d="M261.599 267.669C262.389 267.857 263.34 267.65 263.817 267.26C264.294 266.871 264.477 266.616 264.793 266.345C265.109 266.074 265.537 265.826 266.485 265.568C267.433 265.31 269.108 264.955 269.525 264.697C269.668 264.608 269.706 264.493 269.695 264.381C269.602 264.26 269.382 264.189 269.006 264.255C267.532 264.513 265.365 265.279 264.656 265.938C264.325 266.247 263.901 266.272 263.421 266.266C262.873 266.261 262.107 266.161 261.503 266.412C261.004 266.62 260.89 266.95 260.953 267.229C261.038 267.408 261.224 267.581 261.599 267.669Z" fill="#5B68B7"/>
<path d="M262.047 266.391C261.761 266.434 261.347 266.552 261.183 266.807C261.021 267.055 261.209 267.368 261.62 267.451C262.031 267.534 262.794 267.545 263.412 267.231C264.054 266.904 263.976 266.577 263.538 266.47C263.152 266.375 262.705 266.291 262.047 266.391Z" fill="#5B68B7"/>
<path d="M256.833 266.2L255.883 265.652V264.515L256.833 265.063V266.2Z" fill="#0C1342"/>
<path d="M256.834 266.2L257.784 265.652V264.515L256.834 265.063V266.2Z" fill="#0E1A68"/>
<path d="M257.782 264.515L256.833 263.967L255.883 264.515L256.833 265.064L257.782 264.515Z" fill="#BBD2E9"/>
<path d="M258.143 267.179L257.193 266.63V265.494L258.143 266.043V267.179Z" fill="#0C1342"/>
<path d="M258.143 267.179L259.091 266.63V265.494L258.143 266.043V267.179Z" fill="#0E1A68"/>
<path d="M259.091 265.494L258.143 264.945L257.193 265.494L258.143 266.042L259.091 265.494Z" fill="#BBD2E9"/>
<path d="M238.5 266.335C238.5 268.721 241.644 270.655 245.521 270.655C249.4 270.655 252.544 268.72 252.544 266.335C252.544 263.949 249.4 262.016 245.521 262.016C241.644 262.014 238.5 263.949 238.5 266.335Z" fill="#5B68B7"/>
<path d="M238.492 266.132C238.492 268.418 241.638 270.273 245.518 270.273C249.398 270.273 252.544 268.418 252.544 266.132C252.544 263.845 249.398 261.99 245.518 261.99C241.638 261.99 238.492 263.843 238.492 266.132Z" fill="white"/>
<path d="M238.932 266.132C238.932 268.18 241.88 269.84 245.52 269.84C249.157 269.84 252.108 268.18 252.108 266.132C252.108 264.083 249.157 262.424 245.52 262.424C241.88 262.424 238.932 264.083 238.932 266.132Z" fill="#5B68B7"/>
<path opacity="0.5" d="M241.418 266.335C241.418 267.609 243.253 268.643 245.517 268.643C247.782 268.643 249.617 267.61 249.617 266.335C249.617 265.061 247.782 264.027 245.517 264.027C243.253 264.027 241.418 265.06 241.418 266.335Z" fill="#293896"/>
<path d="M243.498 260.931C243.498 260.931 242.249 259.674 240.859 260.947C239.738 261.974 241.092 264.229 241.561 264.772C242.029 265.315 241.995 265.908 242.684 265.897C243.37 265.886 243.498 260.931 243.498 260.931Z" fill="#293896"/>
<path d="M241.706 262.121C241.706 262.121 241.474 261.657 241.295 261.62C241.117 261.584 240.678 261.739 240.837 262.547C241.004 263.395 241.385 264.159 242.043 264.593C242.701 265.026 241.706 262.121 241.706 262.121Z" fill="#95ADFB"/>
<path d="M242.844 266.581C242.844 267.392 244.012 268.05 245.453 268.05C246.894 268.05 248.063 267.392 248.063 266.581C248.063 265.77 246.894 265.112 245.453 265.112C244.012 265.112 242.844 265.77 242.844 266.581Z" fill="#95ADFB"/>
<path d="M241.55 262.122L244.733 264.326C244.982 264.287 245.244 264.264 245.515 264.264C245.79 264.264 246.055 264.287 246.307 264.327L249.493 262.122C249.493 262.122 249.722 264.75 248.247 266.488C248.123 266.635 247.991 266.75 247.856 266.839C247.331 267.247 246.48 267.515 245.516 267.515C244.502 267.515 243.612 267.22 243.097 266.775C242.995 266.697 242.894 266.603 242.797 266.489C241.32 264.748 241.55 262.122 241.55 262.122Z" fill="white"/>
<path d="M241.537 262.122C241.537 263.358 243.317 264.361 245.514 264.361C247.711 264.361 249.492 263.358 249.492 262.122C249.492 260.886 247.711 259.883 245.514 259.883C243.317 259.883 241.537 260.884 241.537 262.122Z" fill="white"/>
<path d="M245.513 261.28C243.9 261.28 242.536 261.878 242.083 262.703C241.979 262.513 241.922 262.311 241.922 262.104C241.922 260.987 243.53 260.082 245.513 260.082C247.497 260.082 249.105 260.987 249.105 262.104C249.105 262.313 249.049 262.513 248.945 262.703C248.49 261.879 247.125 261.28 245.513 261.28Z" fill="#95ADFB"/>
<path d="M245.514 264.124C243.901 264.124 242.537 263.527 242.084 262.702C242.537 261.878 243.902 261.279 245.514 261.279C247.126 261.279 248.491 261.877 248.946 262.702C248.491 263.527 247.126 264.124 245.514 264.124Z" fill="#293896"/>
<path d="M244.357 259.247C244.078 259.014 243.702 258.822 243.56 258.467C243.445 258.181 243.494 257.833 243.674 257.589C243.87 257.321 244.212 257.041 244.313 256.793C244.27 256.715 244.125 256.498 244.196 256.153C244.263 255.818 244.475 255.507 244.789 255.369C245.084 255.241 245.339 255.241 245.523 255.469C245.412 255.425 245.133 255.46 244.984 255.756C244.905 255.912 244.893 256.012 244.994 256.198C245.12 256.431 245.318 256.605 245.537 256.757C245.833 256.961 246.197 257.106 246.385 257.433C246.51 257.65 246.537 257.917 246.475 258.158C246.582 258.279 246.681 258.404 246.768 258.531C246.975 258.836 247 259.214 246.872 259.555C246.728 259.94 246.405 260.209 246.029 260.341C246.129 260.399 246.228 260.456 246.324 260.516C246.62 260.703 246.941 260.958 246.968 261.337C246.992 261.657 246.76 261.912 246.491 262.051C246.297 262.151 246.078 262.189 245.873 262.262C245.38 262.436 245.34 262.622 245.373 262.83C245.078 262.751 244.926 262.663 244.963 262.301C244.727 262.12 244.322 261.967 244.071 261.762C243.866 261.597 243.706 261.365 243.712 261.093C243.719 260.8 243.898 260.532 244.11 260.341C244.327 260.146 244.79 259.892 244.666 259.59C244.601 259.45 244.469 259.339 244.357 259.247ZM245.899 259.832C246.206 259.924 246.764 259.311 246.332 258.472C246.287 258.54 246.231 258.606 246.169 258.648C246.35 259.231 246.007 259.749 245.899 259.832ZM245.03 262.102C245.137 261.952 245.336 261.88 245.509 261.81C245.782 261.699 246.067 261.456 245.782 261.167C245.666 261.049 245.51 260.978 245.38 260.878C245.368 260.87 245.359 260.86 245.347 260.852C245.336 260.927 245.307 261.003 245.252 261.08C245.161 261.209 245.032 261.306 244.939 261.435C244.765 261.679 244.872 261.907 245.03 262.102ZM244.644 257.197C244.614 257.246 244.583 257.295 244.552 257.344C244.456 257.496 244.361 257.656 244.374 257.842C244.388 258.066 244.539 258.258 244.696 258.402C244.846 258.541 245.063 258.665 245.224 258.82C245.27 258.662 245.321 258.512 245.316 258.333C245.309 258.073 245.228 257.816 245.074 257.604C244.963 257.454 244.79 257.333 244.644 257.197Z" fill="white"/>
<path d="M237.804 265.536C237.794 265.648 237.832 265.763 237.974 265.852C238.39 266.11 240.065 266.465 241.014 266.723C241.962 266.981 242.39 267.229 242.705 267.5C243.021 267.771 243.205 268.025 243.682 268.415C244.159 268.803 245.11 269.013 245.9 268.825C246.276 268.735 246.461 268.564 246.544 268.384C246.53 268.449 246.505 268.51 246.474 268.566C246.308 268.869 245.84 269.097 245.231 269.097C244.358 269.097 243.826 268.802 243.226 268.186C243.041 267.995 242.668 267.626 242.537 267.513C242.376 267.373 241.902 267.13 241.321 266.954C240.245 266.629 238.814 266.281 238.212 266.131C237.905 266.055 237.735 265.841 237.753 265.662C237.757 265.618 237.776 265.574 237.804 265.536Z" fill="#293896"/>
<path d="M245.899 268.825C245.109 269.013 244.158 268.805 243.681 268.415C243.204 268.026 243.02 267.771 242.704 267.5C242.389 267.229 241.961 266.981 241.012 266.723C240.064 266.465 238.389 266.11 237.972 265.852C237.829 265.763 237.791 265.648 237.803 265.536C237.895 265.415 238.115 265.344 238.491 265.41C239.966 265.668 242.132 266.434 242.842 267.095C243.173 267.403 243.597 267.429 244.076 267.423C244.625 267.417 245.391 267.318 245.994 267.569C246.494 267.777 246.607 268.106 246.544 268.385C246.461 268.564 246.275 268.735 245.899 268.825Z" fill="#5B68B7"/>
<path d="M245.455 267.546C245.741 267.59 246.155 267.708 246.319 267.963C246.48 268.211 246.292 268.524 245.881 268.606C245.47 268.688 244.707 268.7 244.09 268.387C243.447 268.06 243.526 267.733 243.963 267.626C244.349 267.531 244.797 267.445 245.455 267.546Z" fill="#5B68B7"/>
<path d="M250.668 267.356L251.618 266.807V265.671L250.668 266.219V267.356Z" fill="#0C1342"/>
<path d="M250.667 267.356L249.717 266.807V265.671L250.667 266.219V267.356Z" fill="#0E1A68"/>
<path d="M249.717 265.671L250.667 265.122L251.616 265.671L250.667 266.219L249.717 265.671Z" fill="#BBD2E9"/>
<path d="M249.357 268.335L250.307 267.786V266.648L249.357 267.197V268.335Z" fill="#0C1342"/>
<path d="M249.358 268.335L248.408 267.786V266.648L249.358 267.197V268.335Z" fill="#0E1A68"/>
<path d="M248.408 266.648L249.358 266.1L250.308 266.648L249.358 267.197L248.408 266.648Z" fill="#BBD2E9"/>
<path d="M270.267 315.53C270.267 315.53 265.817 313.967 264.136 313.833C262.936 313.738 261.785 315.214 262.187 316.579C262.566 317.867 263.289 318.972 264.985 319.47C266.681 319.97 268.813 320.201 269.175 320.717C269.69 321.453 270.418 322.446 272.169 322.115C273.92 321.784 274.763 320.633 274.763 320.633L274.54 318.124L270.267 315.53Z" fill="#0C1342"/>
<path d="M273.078 295.12C273.078 295.12 270.142 290.584 268.934 291.619C268.041 292.385 267.962 292.833 267.753 293.623C267.317 295.266 267.32 305.122 267.524 308.763C267.729 312.403 267.648 315.469 267.648 315.469C267.648 315.469 267.725 317.113 270.437 318.719C273.022 320.251 275.664 318.039 275.664 318.039C275.664 318.039 277.144 309.749 276.75 305.465C276.263 300.16 273.078 295.12 273.078 295.12Z" fill="#293896"/>
<path d="M264.05 319.283C264.05 319.283 259.6 317.72 257.919 317.586C256.72 317.491 255.568 318.965 255.971 320.332C256.349 321.621 257.072 322.725 258.768 323.223C260.464 323.723 262.596 323.954 262.958 324.47C263.473 325.206 264.201 326.199 265.952 325.868C267.703 325.537 268.546 324.386 268.546 324.386L268.323 321.876L264.05 319.283Z" fill="#0C1342"/>
<path d="M266.861 298.873C266.861 298.873 264.977 294.409 263.464 294.973C262.038 295.505 261.725 296.767 261.49 297.657C261.057 299.301 261.102 308.877 261.307 312.516C261.511 316.157 261.43 319.222 261.43 319.222C261.43 319.222 261.507 320.866 264.219 322.473C266.805 324.005 269.446 321.792 269.446 321.792C269.446 321.792 270.926 313.502 270.532 309.218C270.045 303.914 266.861 298.873 266.861 298.873Z" fill="#0C1342"/>
<path d="M264.662 309.109C264.662 309.422 261.58 328.847 261.58 328.847C261.58 329.138 262.001 329.376 262.52 329.376C263.039 329.376 263.46 329.138 263.46 328.847L266.862 310.484L264.662 309.109Z" fill="#5B68B7"/>
<path d="M282.118 318.956C282.118 319.27 281.676 340.413 281.676 340.413C281.676 340.705 282.097 340.942 282.616 340.942C283.135 340.942 283.556 340.705 283.556 340.413L284.316 320.332L282.118 318.956Z" fill="#5B68B7"/>
<path d="M297.469 310.303C297.469 310.617 297.027 331.76 297.027 331.76C297.027 332.052 297.448 332.289 297.967 332.289C298.486 332.289 298.907 332.052 298.907 331.76L299.668 311.679L297.469 310.303Z" fill="#5B68B7"/>
<path d="M280.332 300.436C280.332 300.75 277.25 320.173 277.25 320.173C277.25 320.465 277.671 320.702 278.19 320.702C278.709 320.702 279.13 320.465 279.13 320.173L282.532 301.812L280.332 300.436Z" fill="#5B68B7"/>
<path d="M300.843 309.399L283.795 319.242L262.691 307.041L279.739 297.198L300.843 309.399Z" fill="#293896"/>
<path d="M283.795 319.242V321.296L262.691 309.109V307.041L283.795 319.242Z" fill="#293896"/>
<path d="M283.037 293.886C281.113 293.362 273.33 291.25 271.865 291.033C270.19 290.783 267.678 291.283 267.797 294.498C267.916 297.714 270.005 298.207 272.784 299.905C274.379 300.878 276.155 301.853 277.972 302.77C280.36 300.03 282.258 297.493 283.037 293.886Z" fill="#293896"/>
<path d="M293.308 298.252C293.308 298.252 294.44 305.386 289.101 308.221C283.761 311.056 278.966 309.799 275.815 308.438C272.663 307.078 269.345 305.356 266.568 303.659C263.79 301.961 261.7 301.467 261.58 298.252C261.461 295.037 263.974 294.537 265.649 294.787C267.324 295.037 277.251 297.758 277.251 297.758L293.308 298.252Z" fill="#0C1342"/>
<path d="M290.148 271.872C290.148 271.872 291.984 273.057 291.779 278.847C291.64 282.765 290.813 287.384 290.609 289.656C290.513 290.742 290.889 291.545 291.568 292.825C292.888 295.316 293.309 298.253 293.309 298.253C293.309 298.253 290.646 304.705 283.175 303.834C277.551 303.179 275.814 299.503 275.814 299.503C275.814 299.503 276.122 298.032 278.198 288.746C278.755 286.257 275.542 286.818 276.204 282.175C276.531 279.882 280.889 273.825 284.728 271.671C287.94 269.869 290.148 271.872 290.148 271.872Z" fill="#293896"/>
<path d="M279.121 260.849C277.561 261.151 275.987 262.631 276.087 266.077C276.188 269.553 277.498 270.933 278.199 271.227C278.586 271.388 279.904 271.128 279.904 271.128C279.904 271.128 279.954 274.919 280.513 275.698C280.854 276.175 282.397 276.226 284.037 275.552C285.675 274.875 285.654 274.286 285.654 274.286C285.654 274.286 284.773 271.799 284.881 269.888C285.015 267.519 285.654 266.199 285.163 263.948C284.625 261.497 282.141 260.266 279.121 260.849Z" fill="white"/>
<path d="M273.627 276.486C273.627 276.486 268.173 279.555 267.183 280.187C265.28 278.325 264.908 277.506 263.381 275.518C261.57 273.162 260.879 272.799 260.839 271.385C260.808 270.324 261.051 269.365 260.345 269.469C259.615 269.577 259.763 271.266 259.206 272.207C259.05 272.471 257.138 272.911 255.537 272.239C254.486 271.797 253.544 271.395 253.061 271.518C252.155 271.75 253.354 273.098 254.488 273.874C255.035 274.248 256.375 274.45 257.547 274.714C258.499 274.927 259.528 275.086 259.829 275.596C260.444 276.643 261.295 278.529 262.956 281.693C263.513 282.754 264.756 284.655 265.235 284.864C266.236 285.299 266.498 285.699 267.992 285.382C269.972 284.962 272.178 283.629 275.403 281.63C276.979 280.655 273.627 276.486 273.627 276.486Z" fill="white"/>
<path d="M280.636 273.121C279.665 272.514 278.11 272.876 276.891 273.623C275.672 274.371 269.596 278.27 269.596 278.27C269.596 278.27 269.049 279.52 270.038 281.607C270.842 283.305 272.308 283.967 272.308 283.967C272.308 283.967 276.48 283.268 279.908 280.601C280.728 279.962 282.743 278.218 282.722 276.637C282.694 274.537 281.86 273.888 280.636 273.121Z" fill="#0E1A68"/>
<path d="M292.27 273.028C291.546 272.846 290.617 272.746 290.512 271.903C290.407 271.058 291.554 269.789 291.426 268.562C291.251 266.875 289.841 266.175 288.929 265.89C287.136 265.332 288.684 262.443 285.834 259.525C283.451 257.083 279.047 258.33 278.697 259.702C278.03 259.891 276.904 259.656 276.059 260.558C275.215 261.46 275.637 261.987 275.109 262.515C274.582 263.042 273.949 263.327 273.949 263.327C273.949 263.327 274.569 264.317 275.532 264.519C276.494 264.721 277.747 264.519 277.747 264.519C277.747 264.519 277.469 266.394 278.556 267.437C279.541 268.383 281.194 267.996 281.651 269.617C281.898 270.49 281.299 271.375 279.666 271.83C278.25 272.223 278.802 273.767 278.591 274.836C278.423 275.685 276.974 275.469 276.974 275.469C276.974 275.469 277.332 276.327 278.486 276.44C279.928 276.58 279.568 275.695 280.279 275.223C280.99 274.752 281.58 275.455 281.544 277.354C281.518 278.761 282.04 280.66 284.182 280.801C285.962 280.918 285.659 279.606 285.659 279.606C285.659 279.606 284.112 280.274 284.359 278.726C284.503 277.822 285.017 277.753 285.641 277.374C285.832 277.7 286.101 277.991 286.526 278.165C287.926 278.738 289.169 279.693 288.936 280.81C288.703 281.926 287.731 281.79 287.731 281.79C287.731 281.79 290.033 282.569 290.492 280.81C290.951 279.049 290.259 278.505 290.026 277.806C289.834 277.231 291.151 275.901 291.114 274.828C291.411 274.881 291.682 275.03 291.955 275.317C292.658 276.055 291.568 277.182 291.568 277.182C291.568 277.182 293.113 276.891 293.569 275.751C293.992 274.68 293.67 273.38 292.27 273.028Z" fill="#613722"/>
<path d="M283.795 296.514V319.243V321.297L300.843 311.468V309.401V286.671L283.795 296.514Z" fill="#5B68B7"/>
<path d="M282.266 295.715V320.411L283.795 321.21V296.513L282.266 295.715Z" fill="#293896"/>
<path d="M300.843 286.67L299.314 285.872L282.266 295.715L283.795 296.513L300.843 286.67Z" fill="#95ADFB"/>
<path d="M361.267 206.827L353.601 214.276L348.895 211.072L357.369 202.531L361.267 206.827Z" fill="white"/>
<path d="M354.271 204.254C354.271 204.254 355.952 206.827 358.107 208.742C360.008 210.431 361.652 210.846 361.652 210.846C361.652 210.846 364.033 206.942 366.273 200.841C367.539 197.394 363.04 195.51 360.586 197.505C357.369 200.121 354.271 204.254 354.271 204.254Z" fill="#293896"/>
<path d="M356.593 276.489C358.162 274.96 359.336 273.683 359.336 273.683L366.477 273.38V275.741C366.477 275.741 366.259 276.716 365.149 277.419C364.038 278.122 361.864 279.324 360.678 279.749C359.009 280.349 356.024 280.991 354.705 281.041C353.205 281.099 352.558 280.393 353.344 279.624C354.692 278.312 355.141 277.904 356.593 276.489Z" fill="#5B68B7"/>
<path d="M373.172 277.626L379.613 276.9C379.613 276.9 380.511 280.994 379.005 285.215C377.5 289.437 374.854 289.479 373.924 289.145C372.994 288.811 372.565 286.126 372.733 283.086C372.9 280.046 373.172 277.626 373.172 277.626Z" fill="#5B68B7"/>
<path d="M364.763 221.541C361.798 222.423 359.059 223.488 359.059 223.488C359.059 223.488 357.182 237.35 356.607 245.683C355.953 255.154 358.086 273.83 358.086 273.83C358.086 273.83 358.421 275.851 361.907 275.565C364.582 275.345 366.618 272.995 366.618 272.995L365.151 251.452L368.213 238.097C367.763 230.507 365.368 229.122 364.763 221.541Z" fill="#293896"/>
<path d="M382.113 275.256C382.113 275.256 380.286 261.467 376.289 252.47C375.957 245.641 378.505 237.81 376.95 231.041C375.009 222.581 371.964 222.813 371.964 222.813C372.149 221.392 369.031 221.633 365.783 222.253C365.79 227.919 365.825 233.586 365.789 239.25L365.856 238.917C365.856 238.917 366.315 250.172 368.054 256.303C370.351 264.397 371.964 278.481 371.964 278.481C371.964 278.481 376.505 280.101 379.614 278.547C382.723 276.994 382.113 275.256 382.113 275.256Z" fill="#293896"/>
<path d="M363.682 198.975C364.287 199.227 364.584 199.822 364.584 199.822L371.733 199.952C371.733 199.952 377.544 201.152 378.912 205.652C379.013 207.065 378.846 210.356 378.619 211.836C378.41 211.965 377.05 211.748 376.951 212.037C375.134 217.329 376.57 225.724 376.951 231.042C368.215 238.097 360.382 232.202 358.359 228.931C359.883 218.518 355.413 206.5 363.682 198.975Z" fill="#5B68B7"/>
<path d="M364.743 198.975C364.743 198.975 361.612 203.723 360.381 206.647C359.151 209.571 361.73 207.493 361.73 207.493L365.781 199.741L364.743 198.975Z" fill="#95ADFB"/>
<path d="M365.386 198.804L371.239 194.117L371.963 201.24C371.963 201.24 370.86 202.558 369.231 203.413C367.872 204.125 364.742 202.55 364.742 202.55L365.386 198.804Z" fill="white"/>
<path d="M364.743 198.975C364.743 198.975 364.163 199.942 364.068 202.151C364.002 203.692 364.555 205.327 364.555 205.327L366.917 203.391C366.917 203.391 366.161 200.97 366.592 198.974C365.496 199.199 364.743 198.975 364.743 198.975Z" fill="#BBD2E9"/>
<path d="M371.451 187.846C372.652 189.377 373.023 193.212 371.371 195.912C369.902 198.309 366.55 199.666 365.062 199.907C362.403 200.336 359.536 192.992 362.57 188.502C365.463 184.219 369.905 185.877 371.451 187.846Z" fill="white"/>
<path d="M368.896 184.596C370.422 184.846 371.577 185.779 372.392 186.918C375.101 187.495 374.825 191.396 374.153 192.871C372.855 195.717 371.369 195.913 371.369 195.913C371.369 195.913 371.757 194.36 371.414 193.684C371.121 193.106 370.199 193.007 369.889 194.034C369.547 194.139 369.136 194.108 369.136 194.108L369.447 192.055C369.447 192.055 367.883 192.848 366.11 191.823C364.466 190.871 362.865 191.426 362.293 191.966C361.945 191.093 361.977 190.587 362.023 189.873C360.97 189.135 359.968 188.472 360.121 187.97C360.929 188.209 361.858 188.227 362.642 187.733C361.976 187.21 361.652 186.734 361.266 186.163C363.118 186.4 367.113 184.304 368.896 184.596Z" fill="black"/>
<path d="M368.979 210.621C368.979 210.621 370.986 203.919 371.537 202.745C372.041 201.672 372.157 199.423 372.157 199.423C372.157 199.423 373.497 198.975 373.97 200.709C373.257 202.387 370.51 211.071 370.51 211.071L368.979 210.621Z" fill="#95ADFB"/>
<path d="M367.202 206.647C366.765 205.508 366.919 203.392 366.919 203.392C366.919 203.392 370.569 201.208 371.72 198.843C372.343 199.355 372.601 200.587 372.601 201.284C371.936 202.948 368.79 206.065 367.202 206.647Z" fill="#BBD2E9"/>
<path d="M360.189 210.947C360.189 210.947 362.02 214.662 364.818 215.246C366.786 215.655 368.921 215.338 368.921 215.338C368.921 215.338 367.97 213.986 364.905 213.449C363.621 213.224 360.189 210.947 360.189 210.947Z" fill="#0E1A68"/>
<path d="M370.566 210.847L360.382 206.646C360.382 206.646 358.068 210.847 358.359 214.846C358.791 220.767 358.535 221.552 357.756 227.164C356.978 232.775 356.057 240.47 355.9 243.693C355.744 246.915 355.496 252.569 355.496 252.569C355.496 252.569 359.945 259.44 368.922 258.774C375.503 258.286 378.94 253.639 378.94 253.639C378.94 253.639 379.425 237.981 378.94 234.189C378.254 228.829 376.288 222.757 376.288 222.757C376.288 222.757 374.047 224.373 372.484 221.764C370.921 219.153 370.566 210.847 370.566 210.847Z" fill="#95ADFB"/>
<path d="M371.336 210.081L367.117 208.442L366.664 209.61L370.882 211.249L371.336 210.081Z" fill="#BBD2E9"/>
<path d="M373.229 214.361L369.773 220.69C369.773 220.69 365.272 223.64 362.618 224.447C359.964 225.253 357.589 226.561 356.461 227.149C355.333 227.736 351.876 228.331 351.654 229.246C351.434 230.161 354.946 231.202 356.461 231.305C357.974 231.409 360.564 229.038 361.348 228.925C362.133 228.811 368.357 227.344 370.857 226.415C373.356 225.486 374.205 224.329 375.161 222.835C376.118 221.342 378.201 216.668 378.201 216.668L373.229 214.361Z" fill="white"/>
<path d="M377.083 202.745C377.083 202.745 373.778 206.144 373.046 209.816C372.314 213.487 371.963 215.455 371.963 215.455C371.963 215.455 374.502 217.289 378.096 218.379C379.655 215.366 380.791 212.408 381.292 210.845C382.774 206.221 380.551 203.845 377.083 202.745Z" fill="#293896"/>
<path d="M357.682 223.494C357.682 223.494 358.849 222.318 360.151 223.509C361.199 224.469 359.933 226.577 359.496 227.085C359.058 227.593 359.089 228.147 358.445 228.137C357.801 228.129 357.682 223.494 357.682 223.494Z" fill="#293896"/>
<path d="M359.356 224.607C359.356 224.607 359.573 224.174 359.741 224.139C359.908 224.103 360.319 224.249 360.169 225.006C360.014 225.797 359.657 226.514 359.041 226.919C358.424 227.325 359.356 224.607 359.356 224.607Z" fill="#95ADFB"/>
<path d="M358.292 228.778C358.292 229.537 357.199 230.151 355.851 230.151C354.503 230.151 353.41 229.537 353.41 228.778C353.41 228.019 354.503 227.404 355.851 227.404C357.199 227.404 358.292 228.02 358.292 228.778Z" fill="#95ADFB"/>
<path d="M359.505 224.607L356.528 226.668C356.295 226.632 356.051 226.611 355.797 226.611C355.54 226.611 355.292 226.632 355.056 226.67L352.077 224.607C352.077 224.607 351.862 227.064 353.241 228.69C353.359 228.829 353.481 228.934 353.607 229.018C354.098 229.4 354.894 229.651 355.796 229.651C356.744 229.651 357.576 229.374 358.058 228.959C358.155 228.886 358.248 228.798 358.339 228.691C359.718 227.065 359.505 224.607 359.505 224.607Z" fill="white"/>
<path d="M359.517 224.607C359.517 225.763 357.852 226.702 355.797 226.702C353.741 226.702 352.076 225.765 352.076 224.607C352.076 223.451 353.741 222.513 355.797 222.513C357.852 222.514 359.517 223.451 359.517 224.607Z" fill="white"/>
<path d="M355.796 222.7C353.941 222.7 352.438 223.546 352.438 224.59C352.438 224.785 352.489 224.973 352.588 225.151C353.011 225.921 354.288 226.481 355.796 226.481C357.304 226.481 358.581 225.921 359.004 225.151C359.103 224.974 359.155 224.786 359.155 224.59C359.155 223.546 357.651 222.7 355.796 222.7Z" fill="#95ADFB"/>
<path d="M391.837 252.889L366.432 267.599V310.736L391.837 296.134V252.889Z" fill="#293896"/>
<path d="M365.552 266.677L286.092 221.219V263.965L366.433 310.587V267.184L365.552 266.677Z" fill="#293896"/>
<path d="M282 223.285V225.861L362.342 272.483V269.658L282 223.285Z" fill="#95ADFB"/>
<path d="M282 223.285L311.489 206.08L391.837 252.889L362.337 270.074L282 223.285Z" fill="white"/>
<path d="M286.092 231.69V233.597L366.459 280.097V277.93L286.092 231.69Z" fill="white"/>
<path d="M286.092 236.183V238.1L366.459 284.584V282.416L286.092 236.183Z" fill="white"/>
<path d="M391.837 263.354L366.459 277.931V280.098L391.837 265.43V263.354Z" fill="#95ADFB"/>
<path d="M391.837 267.838L366.459 282.417V284.584L391.837 269.914V267.838Z" fill="#95ADFB"/>
<path d="M362.336 270.074L362.342 272.483L391.836 254.826V252.889L362.336 270.074Z" fill="#5B68B7"/>
<path d="M309.302 207.527L292.061 217.273L342.316 246.289L359.559 236.543L309.302 207.527Z" fill="#95ADFB"/>
<path d="M344.498 228.733C344.498 228.733 348.639 225.965 351.069 224.805C352.552 224.096 353.04 224.364 353.253 225.223C353.387 225.757 353.129 226.502 351.995 227.018C349.487 228.162 344.499 230.059 344.499 230.059V228.733H344.498Z" fill="#5B68B7"/>
<path d="M352.227 236.021C352.227 238.591 348.525 240.674 343.958 240.674C339.392 240.674 335.689 238.591 335.689 236.021C335.689 233.45 339.392 231.367 343.958 231.367C348.525 231.367 352.227 233.45 352.227 236.021Z" fill="#95ADFB"/>
<path d="M343.957 239.373C347.686 239.373 350.709 237.672 350.709 235.573C350.709 233.474 347.686 231.772 343.957 231.772C340.228 231.772 337.205 233.474 337.205 235.573C337.205 237.672 340.228 239.373 343.957 239.373Z" fill="white"/>
<path d="M342.316 224.318L292.061 195.302V224.478L342.316 253.494V224.318Z" fill="#293896"/>
<path d="M309.302 185.556L292.061 195.302L342.316 224.318L359.559 214.572L309.302 185.556Z" fill="#95ADFB"/>
<path d="M348.653 227.031L359.559 219.15V214.572L342.316 224.318V253.494L359.559 243.75V236.515L348.653 242.679V227.031Z" fill="#5B68B7"/>
<path d="M292.844 197.59C292.844 197.956 293.067 198.381 293.342 198.541C293.617 198.7 293.84 198.531 293.84 198.165C293.84 197.799 293.617 197.373 293.342 197.214C293.067 197.056 292.844 197.223 292.844 197.59Z" fill="#95ADFB"/>
<path d="M292.844 222.999C292.844 223.365 293.067 223.79 293.342 223.95C293.617 224.109 293.84 223.94 293.84 223.574C293.84 223.208 293.617 222.783 293.342 222.623C293.067 222.463 292.844 222.631 292.844 222.999Z" fill="#95ADFB"/>
<path d="M340.377 225.086C340.377 225.452 340.6 225.877 340.875 226.035C341.15 226.194 341.373 226.026 341.373 225.659C341.373 225.293 341.15 224.867 340.875 224.708C340.599 224.551 340.377 224.719 340.377 225.086Z" fill="#95ADFB"/>
<path d="M340.377 250.495C340.377 250.861 340.6 251.288 340.875 251.446C341.15 251.605 341.373 251.437 341.373 251.07C341.373 250.704 341.15 250.278 340.875 250.119C340.599 249.961 340.377 250.129 340.377 250.495Z" fill="#95ADFB"/>
<path d="M344.455 225.086C344.455 225.452 344.232 225.877 343.957 226.035C343.682 226.194 343.459 226.026 343.459 225.659C343.459 225.293 343.682 224.867 343.957 224.708C344.233 224.551 344.455 224.719 344.455 225.086Z" fill="#95ADFB"/>
<path d="M344.455 250.495C344.455 250.861 344.232 251.288 343.957 251.446C343.682 251.605 343.459 251.437 343.459 251.07C343.459 250.704 343.682 250.278 343.957 250.119C344.233 249.961 344.455 250.129 344.455 250.495Z" fill="#95ADFB"/>
<path d="M358.775 216.659C358.775 217.025 358.552 217.45 358.277 217.61C358.002 217.769 357.779 217.601 357.779 217.234C357.779 216.868 358.002 216.443 358.277 216.283C358.552 216.125 358.775 216.293 358.775 216.659Z" fill="#95ADFB"/>
<path d="M358.775 242.068C358.775 242.435 358.552 242.861 358.277 243.02C358.002 243.178 357.779 243.01 357.779 242.644C357.779 242.277 358.002 241.851 358.277 241.692C358.552 241.534 358.775 241.702 358.775 242.068Z" fill="#95ADFB"/>
<path d="M332.658 198.393C332.658 198.393 333.825 197.217 335.126 198.408C336.174 199.368 334.908 201.477 334.471 201.984C334.033 202.492 334.064 203.046 333.42 203.037C332.777 203.028 332.658 198.393 332.658 198.393Z" fill="#293896"/>
<path d="M334.333 199.507C334.333 199.507 334.55 199.073 334.717 199.04C334.884 199.006 335.295 199.15 335.146 199.907C334.989 200.698 334.633 201.415 334.017 201.82C333.401 202.224 334.333 199.507 334.333 199.507Z" fill="#95ADFB"/>
<path d="M333.269 203.679C333.269 204.438 332.176 205.053 330.828 205.053C329.48 205.053 328.387 204.438 328.387 203.679C328.387 202.92 329.48 202.306 330.828 202.306C332.176 202.304 333.269 202.92 333.269 203.679Z" fill="#95ADFB"/>
<path d="M334.479 199.508L331.503 201.569C331.27 201.532 331.026 201.511 330.772 201.511C330.515 201.511 330.267 201.532 330.031 201.57L327.051 199.508C327.051 199.508 326.837 201.964 328.216 203.59C328.333 203.729 328.455 203.834 328.582 203.919C329.073 204.301 329.868 204.551 330.77 204.551C331.719 204.551 332.551 204.275 333.033 203.86C333.128 203.787 333.222 203.698 333.314 203.592C334.694 201.966 334.479 199.508 334.479 199.508Z" fill="white"/>
<path d="M330.771 201.6C332.826 201.6 334.492 200.663 334.492 199.507C334.492 198.351 332.826 197.414 330.771 197.414C328.717 197.414 327.051 198.351 327.051 199.507C327.051 200.663 328.717 201.6 330.771 201.6Z" fill="white"/>
<path d="M330.773 197.601C328.918 197.601 327.414 198.447 327.414 199.49C327.414 199.685 327.467 199.873 327.564 200.05C327.988 200.82 329.264 201.38 330.773 201.38C332.281 201.38 333.557 200.82 333.981 200.05C334.079 199.873 334.131 199.685 334.131 199.49C334.133 198.447 332.629 197.601 330.773 197.601Z" fill="#95ADFB"/>
<path d="M325.979 202.488C325.979 202.488 327.146 201.313 328.446 202.505C329.494 203.465 328.229 205.573 327.791 206.081C327.353 206.589 327.384 207.143 326.74 207.133C326.098 207.123 325.979 202.488 325.979 202.488Z" fill="#293896"/>
<path d="M327.654 203.603C327.654 203.603 327.872 203.169 328.039 203.134C328.206 203.101 328.617 203.245 328.468 204.001C328.311 204.793 327.956 205.509 327.34 205.915C326.723 206.32 327.654 203.603 327.654 203.603Z" fill="#95ADFB"/>
<path d="M326.591 207.774C326.591 208.533 325.498 209.147 324.15 209.147C322.802 209.147 321.709 208.533 321.709 207.774C321.709 207.015 322.802 206.4 324.15 206.4C325.498 206.399 326.591 207.015 326.591 207.774Z" fill="#95ADFB"/>
<path d="M327.802 203.604L324.825 205.664C324.592 205.628 324.348 205.607 324.094 205.607C323.837 205.607 323.589 205.628 323.353 205.666L320.373 203.604C320.373 203.604 320.16 206.06 321.538 207.686C321.654 207.825 321.778 207.93 321.904 208.014C322.395 208.397 323.19 208.647 324.092 208.647C325.041 208.647 325.873 208.371 326.355 207.955C326.452 207.882 326.545 207.794 326.636 207.687C328.016 206.06 327.802 203.604 327.802 203.604Z" fill="white"/>
<path d="M327.814 203.603C327.814 204.759 326.149 205.696 324.094 205.696C322.038 205.696 320.373 204.759 320.373 203.603C320.373 202.447 322.038 201.509 324.094 201.509C326.149 201.509 327.814 202.446 327.814 203.603Z" fill="white"/>
<path d="M324.093 201.695C322.238 201.695 320.734 202.541 320.734 203.585C320.734 203.78 320.788 203.968 320.884 204.146C321.31 204.916 322.585 205.476 324.093 205.476C325.601 205.476 326.878 204.916 327.301 204.146C327.4 203.969 327.451 203.781 327.451 203.585C327.451 202.541 325.948 201.695 324.093 201.695Z" fill="#95ADFB"/>
<path d="M338.803 202.247C338.803 202.247 339.97 201.071 341.272 202.264C342.32 203.223 341.054 205.332 340.617 205.84C340.179 206.348 340.21 206.902 339.566 206.892C338.922 206.882 338.803 202.247 338.803 202.247Z" fill="#293896"/>
<path d="M340.479 203.361C340.479 203.361 340.697 202.927 340.864 202.892C341.031 202.858 341.442 203.003 341.292 203.759C341.134 204.55 340.779 205.267 340.164 205.673C339.548 206.078 340.479 203.361 340.479 203.361Z" fill="#95ADFB"/>
<path d="M339.415 207.532C339.415 208.291 338.322 208.905 336.974 208.905C335.626 208.905 334.533 208.289 334.533 207.532C334.533 206.773 335.626 206.158 336.974 206.158C338.322 206.158 339.415 206.773 339.415 207.532Z" fill="#95ADFB"/>
<path d="M340.628 203.361L337.651 205.422C337.418 205.386 337.174 205.365 336.92 205.365C336.663 205.365 336.415 205.386 336.179 205.424L333.2 203.361C333.2 203.361 332.985 205.818 334.364 207.444C334.482 207.583 334.604 207.688 334.73 207.772C335.221 208.154 336.017 208.405 336.919 208.405C337.867 208.405 338.699 208.13 339.182 207.713C339.278 207.64 339.371 207.552 339.462 207.445C340.841 205.818 340.628 203.361 340.628 203.361Z" fill="white"/>
<path d="M340.638 203.361C340.638 204.517 338.973 205.456 336.918 205.456C334.863 205.456 333.197 204.519 333.197 203.361C333.197 202.205 334.863 201.267 336.918 201.267C338.973 201.267 340.638 202.205 340.638 203.361Z" fill="white"/>
<path d="M336.919 201.453C335.064 201.453 333.561 202.299 333.561 203.343C333.561 203.538 333.614 203.726 333.711 203.904C334.136 204.674 335.411 205.234 336.919 205.234C338.427 205.234 339.704 204.674 340.127 203.904C340.226 203.727 340.278 203.539 340.278 203.343C340.279 202.3 338.775 201.453 336.919 201.453Z" fill="#95ADFB"/>
<path d="M332.127 206.341C332.127 206.341 333.294 205.166 334.596 206.357C335.644 207.316 334.379 209.425 333.941 209.933C333.503 210.44 333.534 210.995 332.89 210.985C332.246 210.976 332.127 206.341 332.127 206.341Z" fill="#293896"/>
<path d="M333.802 207.455C333.802 207.455 334.019 207.022 334.186 206.987C334.353 206.953 334.764 207.098 334.614 207.854C334.458 208.645 334.102 209.362 333.486 209.767C332.87 210.173 333.802 207.455 333.802 207.455Z" fill="#95ADFB"/>
<path d="M332.738 211.626C332.738 212.385 331.645 213 330.296 213C328.948 213 327.855 212.385 327.855 211.626C327.855 210.867 328.948 210.253 330.296 210.253C331.645 210.253 332.738 210.867 332.738 211.626Z" fill="#95ADFB"/>
<path d="M333.948 207.456L330.971 209.517C330.738 209.48 330.494 209.459 330.24 209.459C329.984 209.459 329.735 209.48 329.5 209.518L326.52 207.456C326.52 207.456 326.305 209.913 327.684 211.538C327.802 211.676 327.924 211.783 328.05 211.865C328.541 212.248 329.337 212.498 330.239 212.498C331.187 212.498 332.019 212.223 332.502 211.806C332.599 211.733 332.691 211.645 332.782 211.538C334.163 209.913 333.948 207.456 333.948 207.456Z" fill="white"/>
<path d="M333.96 207.455C333.96 208.611 332.295 209.549 330.24 209.549C328.186 209.549 326.52 208.611 326.52 207.455C326.52 206.299 328.185 205.362 330.24 205.362C332.295 205.362 333.96 206.299 333.96 207.455Z" fill="white"/>
<path d="M330.241 205.548C328.387 205.548 326.883 206.394 326.883 207.439C326.883 207.634 326.935 207.822 327.033 207.999C327.457 208.769 328.733 209.329 330.241 209.329C331.749 209.329 333.025 208.769 333.45 207.999C333.548 207.822 333.6 207.634 333.6 207.439C333.6 206.395 332.097 205.548 330.241 205.548Z" fill="#95ADFB"/>
<path d="M345.031 205.686C345.031 205.686 346.198 204.51 347.5 205.701C348.548 206.661 347.283 208.769 346.845 209.277C346.407 209.785 346.438 210.339 345.794 210.329C345.151 210.32 345.031 205.686 345.031 205.686Z" fill="#293896"/>
<path d="M346.708 206.8C346.708 206.8 346.925 206.367 347.092 206.332C347.259 206.298 347.67 206.442 347.52 207.199C347.363 207.99 347.008 208.707 346.392 209.112C345.776 209.518 346.708 206.8 346.708 206.8Z" fill="#95ADFB"/>
<path d="M345.644 210.971C345.644 211.73 344.551 212.345 343.203 212.345C341.855 212.345 340.762 211.73 340.762 210.971C340.762 210.212 341.855 209.598 343.203 209.598C344.551 209.598 345.644 210.212 345.644 210.971Z" fill="#95ADFB"/>
<path d="M346.854 206.801L343.878 208.862C343.645 208.825 343.401 208.804 343.147 208.804C342.89 208.804 342.642 208.825 342.406 208.863L339.426 206.801C339.426 206.801 339.212 209.257 340.591 210.883C340.708 211.022 340.83 211.127 340.957 211.211C341.448 211.594 342.243 211.844 343.145 211.844C344.094 211.844 344.926 211.569 345.408 211.153C345.505 211.08 345.597 210.991 345.689 210.885C347.069 209.257 346.854 206.801 346.854 206.801Z" fill="white"/>
<path d="M346.867 206.8C346.867 207.956 345.201 208.895 343.146 208.895C341.091 208.895 339.426 207.958 339.426 206.8C339.426 205.644 341.091 204.707 343.146 204.707C345.201 204.706 346.867 205.644 346.867 206.8Z" fill="white"/>
<path d="M343.146 204.892C341.291 204.892 339.787 205.738 339.787 206.783C339.787 206.978 339.839 207.166 339.937 207.342C340.362 208.113 341.638 208.672 343.146 208.672C344.654 208.672 345.93 208.113 346.354 207.342C346.452 207.166 346.504 206.978 346.504 206.783C346.504 205.738 345.002 204.892 343.146 204.892Z" fill="#95ADFB"/>
<path d="M338.355 209.782C338.355 209.782 339.523 208.606 340.823 209.797C341.871 210.757 340.606 212.865 340.168 213.373C339.73 213.881 339.761 214.435 339.117 214.425C338.475 214.417 338.355 209.782 338.355 209.782Z" fill="#293896"/>
<path d="M340.029 210.895C340.029 210.895 340.246 210.462 340.415 210.427C340.582 210.392 340.993 210.537 340.843 211.294C340.687 212.085 340.33 212.802 339.715 213.207C339.099 213.613 340.029 210.895 340.029 210.895Z" fill="#95ADFB"/>
<path d="M338.966 215.066C338.966 215.825 337.873 216.439 336.525 216.439C335.177 216.439 334.084 215.825 334.084 215.066C334.084 214.307 335.177 213.692 336.525 213.692C337.873 213.692 338.966 214.307 338.966 215.066Z" fill="#95ADFB"/>
<path d="M340.177 210.896L337.2 212.956C336.967 212.92 336.723 212.899 336.469 212.899C336.212 212.899 335.964 212.92 335.728 212.958L332.748 210.896C332.748 210.896 332.534 213.352 333.913 214.978C334.029 215.117 334.153 215.222 334.279 215.306C334.77 215.688 335.565 215.939 336.467 215.939C337.416 215.939 338.248 215.663 338.73 215.247C338.827 215.174 338.921 215.086 339.011 214.979C340.391 213.352 340.177 210.896 340.177 210.896Z" fill="white"/>
<path d="M340.189 210.895C340.189 212.051 338.524 212.988 336.469 212.988C334.415 212.988 332.748 212.051 332.748 210.895C332.748 209.739 334.413 208.801 336.469 208.801C338.524 208.801 340.189 209.739 340.189 210.895Z" fill="white"/>
<path d="M336.468 208.987C334.613 208.987 333.109 209.833 333.109 210.877C333.109 211.072 333.163 211.26 333.259 211.438C333.685 212.208 334.96 212.768 336.468 212.768C337.976 212.768 339.253 212.208 339.676 211.438C339.775 211.261 339.826 211.073 339.826 210.877C339.826 209.835 338.322 208.987 336.468 208.987Z" fill="#95ADFB"/>
<path d="M351.18 209.537C351.18 209.537 352.347 208.362 353.649 209.553C354.697 210.512 353.43 212.621 352.994 213.129C352.556 213.637 352.587 214.191 351.943 214.181C351.299 214.173 351.18 209.537 351.18 209.537Z" fill="#293896"/>
<path d="M352.854 210.653C352.854 210.653 353.071 210.219 353.238 210.185C353.405 210.15 353.816 210.296 353.667 211.052C353.51 211.844 353.155 212.561 352.539 212.966C351.922 213.37 352.854 210.653 352.854 210.653Z" fill="#95ADFB"/>
<path d="M351.79 214.823C351.79 215.582 350.697 216.196 349.349 216.196C348.001 216.196 346.908 215.582 346.908 214.823C346.908 214.064 348.001 213.449 349.349 213.449C350.697 213.449 351.79 214.065 351.79 214.823Z" fill="#95ADFB"/>
<path d="M353.001 210.652L350.024 212.713C349.791 212.677 349.547 212.656 349.293 212.656C349.036 212.656 348.788 212.677 348.552 212.715L345.573 210.652C345.573 210.652 345.358 213.109 346.737 214.735C346.855 214.874 346.977 214.979 347.103 215.063C347.594 215.445 348.39 215.694 349.292 215.694C350.24 215.694 351.072 215.419 351.555 215.003C351.651 214.93 351.744 214.841 351.835 214.735C353.216 213.11 353.001 210.652 353.001 210.652Z" fill="white"/>
<path d="M353.013 210.652C353.013 211.808 351.348 212.745 349.293 212.745C347.239 212.745 345.572 211.808 345.572 210.652C345.572 209.496 347.238 208.558 349.293 208.558C351.348 208.559 353.013 209.496 353.013 210.652Z" fill="white"/>
<path d="M349.294 208.745C347.439 208.745 345.936 209.591 345.936 210.635C345.936 210.83 345.989 211.018 346.086 211.196C346.509 211.966 347.786 212.526 349.294 212.526C350.802 212.526 352.077 211.966 352.502 211.196C352.601 211.019 352.653 210.831 352.653 210.635C352.653 209.591 351.149 208.745 349.294 208.745Z" fill="#95ADFB"/>
<path d="M344.502 213.633C344.502 213.633 345.669 212.458 346.97 213.649C348.018 214.608 346.752 216.717 346.314 217.225C345.877 217.732 345.908 218.287 345.264 218.277C344.621 218.268 344.502 213.633 344.502 213.633Z" fill="#293896"/>
<path d="M346.175 214.747C346.175 214.747 346.393 214.314 346.56 214.28C346.727 214.245 347.138 214.391 346.989 215.147C346.833 215.938 346.477 216.655 345.861 217.061C345.245 217.466 346.175 214.747 346.175 214.747Z" fill="#95ADFB"/>
<path d="M345.113 218.918C345.113 219.677 344.02 220.292 342.671 220.292C341.323 220.292 340.23 219.677 340.23 218.918C340.23 218.159 341.323 217.545 342.671 217.545C344.02 217.544 345.113 218.159 345.113 218.918Z" fill="#95ADFB"/>
<path d="M346.323 214.747L343.346 216.808C343.113 216.771 342.869 216.75 342.615 216.75C342.359 216.75 342.11 216.771 341.875 216.809L338.895 214.747C338.895 214.747 338.68 217.204 340.059 218.831C340.176 218.97 340.299 219.075 340.425 219.159C340.915 219.542 341.712 219.792 342.614 219.792C343.562 219.792 344.394 219.517 344.877 219.1C344.974 219.027 345.066 218.939 345.157 218.832C346.538 217.205 346.323 214.747 346.323 214.747Z" fill="white"/>
<path d="M346.335 214.747C346.335 215.903 344.67 216.842 342.615 216.842C340.56 216.842 338.895 215.905 338.895 214.747C338.895 213.591 340.56 212.654 342.615 212.654C344.67 212.654 346.335 213.591 346.335 214.747Z" fill="white"/>
<path d="M342.614 212.84C340.76 212.84 339.256 213.686 339.256 214.73C339.256 214.925 339.309 215.113 339.406 215.289C339.831 216.059 341.106 216.619 342.614 216.619C344.123 216.619 345.399 216.059 345.823 215.289C345.921 215.113 345.973 214.925 345.973 214.73C345.973 213.686 344.469 212.84 342.614 212.84Z" fill="#95ADFB"/>
<path d="M384.631 250.642L384.556 250.585C384.363 250.225 384.04 249.891 383.563 249.616L373.068 243.557C371.281 242.526 368.131 242.656 366.069 243.847L346.658 255.005C345.881 255.453 345.366 255.991 345.12 256.542H344.951V257.391C344.989 258.012 345.389 258.603 346.156 259.046L356.651 265.105C358.439 266.136 361.588 266.006 363.65 264.815L382.923 253.714C384.022 253.08 384.601 252.267 384.631 251.492V250.642Z" fill="#293896"/>
<path d="M356.649 264.414L346.154 258.355C344.368 257.323 344.594 255.504 346.656 254.313L365.949 243.16C368.013 241.969 371.162 241.838 372.948 242.869L383.443 248.928C385.23 249.96 385.003 251.778 382.941 252.969L363.648 264.122C361.586 265.314 358.436 265.445 356.649 264.414Z" fill="#95ADFB"/>
<path d="M356.841 263.847L347.063 258.224C345.346 257.232 345.563 255.486 347.545 254.341L366.114 243.695C368.096 242.55 371.122 242.425 372.839 243.415L382.618 249.038C384.335 250.029 384.117 251.777 382.135 252.921L363.566 263.568C361.584 264.713 358.558 264.839 356.841 263.847Z" fill="#293896"/>
<path d="M362.405 261.834L354.715 257.394L363.597 252.267L371.287 256.707L362.405 261.834Z" fill="#BBD2E9"/>
<path d="M369.185 254.607L361.494 250.167L370.376 245.039L378.066 249.479L369.185 254.607Z" fill="#BBD2E9"/>
<path d="M365.252 256.42C365.252 258.668 362.289 260.49 358.636 260.49C354.982 260.49 352.02 258.668 352.02 256.42C352.02 254.173 354.982 252.351 358.636 252.351C362.289 252.351 365.252 254.173 365.252 256.42Z" fill="#5B68B7"/>
<path d="M365.258 256.228C365.258 258.382 362.294 260.13 358.638 260.13C354.982 260.13 352.018 258.384 352.018 256.228C352.018 254.073 354.982 252.326 358.638 252.326C362.295 252.326 365.258 254.073 365.258 256.228Z" fill="white"/>
<path d="M364.846 256.228C364.846 258.157 362.067 259.721 358.639 259.721C355.211 259.721 352.432 258.157 352.432 256.228C352.432 254.299 355.211 252.734 358.639 252.734C362.067 252.734 364.846 254.299 364.846 256.228Z" fill="#5B68B7"/>
<path opacity="0.5" d="M362.501 256.421C362.501 257.621 360.771 258.595 358.638 258.595C356.504 258.595 354.775 257.621 354.775 256.421C354.775 255.22 356.505 254.246 358.638 254.246C360.771 254.246 362.501 255.22 362.501 256.421Z" fill="#293896"/>
<path d="M360.543 251.327C360.543 251.327 361.719 250.143 363.03 251.344C364.087 252.31 362.81 254.436 362.37 254.946C361.929 255.458 361.958 256.017 361.312 256.007C360.664 255.997 360.543 251.327 360.543 251.327Z" fill="#293896"/>
<path d="M362.232 252.449C362.232 252.449 362.451 252.012 362.619 251.977C362.788 251.942 363.202 252.09 363.052 252.851C362.894 253.65 362.535 254.371 361.915 254.779C361.295 255.187 362.232 252.449 362.232 252.449Z" fill="#95ADFB"/>
<path d="M358.701 258.037C360.06 258.037 361.161 257.417 361.161 256.652C361.161 255.888 360.06 255.268 358.701 255.268C357.343 255.268 356.242 255.888 356.242 256.652C356.242 257.417 357.343 258.037 358.701 258.037Z" fill="#95ADFB"/>
<path d="M362.381 252.449L359.382 254.525C359.148 254.488 358.901 254.467 358.645 254.467C358.386 254.467 358.136 254.488 357.899 254.527L354.897 252.449C354.897 252.449 354.681 254.925 356.071 256.562C356.189 256.701 356.312 256.809 356.44 256.892C356.934 257.278 357.736 257.529 358.645 257.529C359.601 257.529 360.44 257.251 360.925 256.832C361.022 256.758 361.117 256.669 361.207 256.561C362.596 254.925 362.381 252.449 362.381 252.449Z" fill="white"/>
<path d="M362.394 252.449C362.394 253.615 360.716 254.559 358.645 254.559C356.574 254.559 354.896 253.615 354.896 252.449C354.896 251.284 356.574 250.339 358.645 250.339C360.716 250.339 362.394 251.284 362.394 252.449Z" fill="white"/>
<path d="M358.645 251.658C360.165 251.658 361.451 252.222 361.878 252.997C361.976 252.819 362.029 252.63 362.029 252.432C362.029 251.38 360.514 250.528 358.645 250.528C356.777 250.528 355.262 251.381 355.262 252.432C355.262 252.628 355.315 252.818 355.413 252.997C355.84 252.22 357.126 251.658 358.645 251.658Z" fill="#95ADFB"/>
<path d="M358.646 254.337C360.166 254.337 361.452 253.773 361.879 252.997C361.451 252.221 360.166 251.657 358.646 251.657C357.127 251.657 355.842 252.221 355.414 252.997C355.841 253.773 357.127 254.337 358.646 254.337Z" fill="#293896"/>
<path d="M359.735 249.742C359.997 249.523 360.352 249.341 360.487 249.008C360.596 248.737 360.549 248.412 360.38 248.18C360.195 247.928 359.872 247.664 359.777 247.431C359.818 247.357 359.955 247.153 359.888 246.828C359.823 246.512 359.624 246.219 359.329 246.09C359.052 245.969 358.812 245.969 358.639 246.184C358.744 246.143 359.007 246.177 359.147 246.455C359.221 246.601 359.233 246.695 359.137 246.871C359.018 247.092 358.833 247.254 358.625 247.398C358.346 247.591 358.002 247.727 357.826 248.036C357.708 248.241 357.682 248.492 357.741 248.719C357.64 248.833 357.546 248.951 357.465 249.071C357.271 249.357 357.248 249.715 357.368 250.036C357.504 250.398 357.807 250.652 358.162 250.777C358.068 250.832 357.974 250.885 357.884 250.943C357.605 251.119 357.304 251.358 357.277 251.716C357.255 252.017 357.472 252.259 357.726 252.389C357.908 252.483 358.115 252.518 358.307 252.587C358.771 252.751 358.809 252.926 358.78 253.123C359.057 253.048 359.2 252.966 359.165 252.625C359.387 252.455 359.769 252.31 360.007 252.118C360.199 251.963 360.351 251.745 360.345 251.488C360.34 251.212 360.168 250.959 359.969 250.78C359.764 250.596 359.328 250.358 359.446 250.073C359.505 249.934 359.63 249.83 359.735 249.742ZM358.281 250.293C357.991 250.38 357.466 249.803 357.873 249.012C357.915 249.075 357.969 249.137 358.026 249.178C357.856 249.728 358.18 250.215 358.281 250.293ZM359.099 252.433C359 252.291 358.812 252.223 358.649 252.158C358.392 252.054 358.122 251.825 358.391 251.551C358.5 251.441 358.648 251.373 358.771 251.278C358.782 251.27 358.791 251.261 358.802 251.253C358.812 251.324 358.84 251.396 358.892 251.469C358.979 251.591 359.099 251.682 359.186 251.803C359.349 252.034 359.249 252.247 359.099 252.433ZM359.463 247.811C359.491 247.858 359.52 247.904 359.55 247.95C359.639 248.093 359.729 248.243 359.718 248.419C359.704 248.629 359.562 248.809 359.414 248.946C359.272 249.077 359.068 249.195 358.917 249.341C358.873 249.192 358.826 249.049 358.83 248.882C358.836 248.636 358.914 248.394 359.059 248.194C359.164 248.053 359.327 247.939 359.463 247.811Z" fill="white"/>
<path d="M365.906 255.667C365.916 255.774 365.88 255.88 365.746 255.964C365.354 256.209 363.775 256.542 362.882 256.785C361.988 257.029 361.585 257.262 361.287 257.517C360.989 257.773 360.817 258.013 360.366 258.379C359.916 258.745 359.021 258.941 358.276 258.765C357.922 258.68 357.747 258.519 357.67 258.349C357.684 258.41 357.706 258.467 357.736 258.522C357.893 258.807 358.333 259.021 358.907 259.021C359.731 259.021 360.23 258.744 360.796 258.163C360.971 257.983 361.322 257.635 361.445 257.529C361.597 257.395 362.044 257.168 362.591 257.003C363.606 256.695 364.952 256.368 365.521 256.227C365.81 256.155 365.969 255.953 365.951 255.785C365.95 255.743 365.933 255.703 365.906 255.667Z" fill="#293896"/>
<path d="M358.278 258.767C359.022 258.943 359.918 258.747 360.369 258.381C360.819 258.015 360.991 257.775 361.289 257.519C361.586 257.264 361.99 257.03 362.884 256.787C363.778 256.543 365.356 256.209 365.749 255.966C365.883 255.884 365.918 255.776 365.909 255.669C365.822 255.555 365.614 255.488 365.26 255.55C363.872 255.792 361.83 256.515 361.161 257.136C360.848 257.427 360.45 257.451 359.998 257.445C359.482 257.439 358.759 257.345 358.191 257.583C357.72 257.779 357.613 258.089 357.674 258.351C357.749 258.52 357.925 258.682 358.278 258.767Z" fill="#5B68B7"/>
<path d="M358.701 257.561C358.43 257.601 358.042 257.714 357.886 257.954C357.735 258.188 357.911 258.482 358.298 258.56C358.686 258.638 359.405 258.648 359.986 258.353C360.592 258.046 360.518 257.737 360.104 257.636C359.741 257.547 359.32 257.467 358.701 257.561Z" fill="#5B68B7"/>
<path d="M353.788 257.382L352.893 256.866V255.794L353.788 256.312V257.382Z" fill="#0C1342"/>
<path d="M353.787 257.382L354.682 256.866V255.794L353.787 256.312V257.382Z" fill="#0E1A68"/>
<path d="M354.683 255.794L353.788 255.277L352.893 255.794L353.788 256.311L354.683 255.794Z" fill="#BBD2E9"/>
<path d="M355.02 258.304L354.125 257.786V256.716L355.02 257.232V258.304Z" fill="#0C1342"/>
<path d="M355.021 258.304L355.915 257.786V256.716L355.021 257.232V258.304Z" fill="#0E1A68"/>
<path d="M355.914 256.716L355.02 256.198L354.125 256.716L355.02 257.232L355.914 256.716Z" fill="#BBD2E9"/>
<path d="M375.922 252.643L375.923 252.638L376.714 248.878L370.867 248.919L371.647 252.597H371.65C371.722 253.193 372.65 253.665 373.789 253.665C374.886 253.665 375.788 253.227 375.918 252.662H375.919L375.922 252.643Z" fill="#95ADFB"/>
<path d="M376.717 248.797C376.717 249.658 375.406 250.356 373.788 250.356C372.171 250.356 370.857 249.658 370.857 248.797C370.857 247.936 372.169 247.238 373.788 247.238C375.406 247.238 376.717 247.936 376.717 248.797Z" fill="#0E1A68"/>
<path d="M373.788 251.557C372.405 251.557 371.273 250.991 371.164 250.27H371.152L371.509 251.95C371.631 252.559 372.614 253.035 373.793 253.035C374.971 253.035 375.94 252.56 376.062 251.95C376.062 251.947 376.069 251.938 376.069 251.935L376.409 250.319C376.257 251.017 375.139 251.557 373.788 251.557Z" fill="#5B68B7"/>
<path d="M375.197 252.262C375.197 252.774 374.596 253.19 373.854 253.19C373.112 253.19 372.512 252.775 372.512 252.262C372.512 251.748 373.112 251.333 373.854 251.333C374.595 251.333 375.197 251.748 375.197 252.262Z" fill="#BBD2E9"/>
<path d="M374.866 252.262C374.866 252.654 374.413 252.971 373.853 252.971C373.293 252.971 372.84 252.653 372.84 252.262C372.84 251.87 373.293 251.552 373.853 251.552C374.413 251.552 374.866 251.869 374.866 252.262Z" fill="#5B68B7"/>
<path d="M373.854 252.741C374.23 252.741 374.535 252.527 374.535 252.263C374.535 251.998 374.23 251.784 373.854 251.784C373.477 251.784 373.172 251.998 373.172 252.263C373.172 252.527 373.477 252.741 373.854 252.741Z" fill="#BBD2E9"/>
<path d="M376.613 248.772C376.613 248.769 376.613 248.768 376.613 248.766C376.581 247.428 375.348 246.351 373.827 246.351C372.308 246.351 371.073 247.428 371.041 248.766C371.041 248.768 371.041 248.769 371.041 248.772C371.042 249.574 372.29 250.227 373.827 250.227C375.365 250.225 376.612 249.576 376.613 248.772Z" fill="#0C1342"/>
<path d="M374.034 244.052C374.034 244.052 372.792 244.792 372.344 245.455C371.957 246.028 371.69 246.888 371.913 247.385C372.138 247.882 372.744 247.889 372.744 247.889C372.744 247.889 372.936 248.429 373.639 248.478C374.238 248.52 374.692 247.977 374.692 247.977C374.692 247.977 375.356 248.253 375.767 248.086C376.461 247.804 376.711 246.855 375.589 245.999C374.389 245.08 374.034 244.052 374.034 244.052Z" fill="#5B68B7"/>
<path d="M373.783 244.5C373.783 244.5 372.909 245.093 372.512 245.81C371.644 247.375 372.824 247.637 372.824 247.637C372.824 247.637 372.988 245.725 373.783 244.5Z" fill="#293896"/>
<path d="M373.933 244.831C373.933 244.831 373.385 246.178 373.514 247.137C373.641 248.097 374.584 247.762 374.584 247.762C374.584 247.762 374.431 247.317 374.233 246.335C374.082 245.584 373.933 244.831 373.933 244.831Z" fill="#293896"/>
<path d="M374.23 244.997C374.518 245.725 374.73 245.992 375.271 246.709C375.813 247.425 375.59 247.879 375.59 247.879C375.59 247.879 376.556 247.637 375.889 246.675C375.368 245.922 374.71 245.725 374.23 244.997Z" fill="#293896"/>
<path d="M371.193 247.681C371.193 247.681 370.974 248.06 371.417 248.349C371.761 248.573 372.109 248.349 372.109 248.349C372.109 248.349 371.358 248.193 371.514 247.558C371.333 247.558 371.193 247.681 371.193 247.681Z" fill="#293896"/>
<path d="M372.399 247.977C372.399 247.977 371.84 248.26 371.892 248.729C371.944 249.196 372.295 249.267 372.295 249.267L372.626 248.925C372.626 248.925 372.387 248.834 372.34 248.553C372.291 248.273 372.399 247.977 372.399 247.977Z" fill="#293896"/>
<path d="M375.273 248.448C375.273 248.448 375.393 248.684 375.273 248.984C375.154 249.284 374.865 249.415 374.865 249.415C374.865 249.415 375.581 249.51 375.713 249.032C375.844 248.552 375.693 248.448 375.693 248.448H375.273Z" fill="#293896"/>
<path d="M372.625 249.75C372.625 249.75 372.758 249.243 373.225 249.167C373.693 249.092 373.933 249.267 373.933 249.267C373.933 249.267 373.537 249.39 373.346 249.486C373.154 249.581 372.988 249.925 372.988 249.925L372.625 249.75Z" fill="#293896"/>
<path d="M371.523 248.936L371.621 249.267L371.831 249.02L371.523 248.936Z" fill="#293896"/>
<path d="M372.891 248.516L372.987 248.902L373.278 248.622L372.891 248.516Z" fill="#293896"/>
<path d="M371.072 248.448L371.284 248.709L371.415 248.448H371.072Z" fill="#293896"/>
<path d="M373.783 249.924L373.883 249.487L374.142 249.802L373.783 249.924Z" fill="#293896"/>
<path d="M376.461 247.713C376.461 247.713 376.21 247.817 376.125 248.219C376.041 248.623 376.362 248.876 376.362 248.876C376.362 248.876 376.281 248.525 376.461 248.287C376.64 248.048 376.719 247.977 376.719 247.977L376.461 247.713Z" fill="#293896"/>
<path d="M375.98 248.876V249.267L376.244 249.03L375.98 248.876Z" fill="#293896"/>
<path d="M374.795 248.221L374.584 248.449L374.927 248.579L374.795 248.221Z" fill="#293896"/>
<path d="M373.828 248.797L374.232 248.579C374.232 248.579 374.604 248.813 374.639 249.168C374.675 249.523 374.583 249.707 374.583 249.707C374.583 249.707 374.507 249.245 374.28 249.073C374.053 248.9 373.828 248.797 373.828 248.797Z" fill="#293896"/>
<path d="M369.849 250.084C369.849 250.714 368.889 251.226 367.703 251.226C366.518 251.226 365.557 250.716 365.557 250.084C365.557 249.453 366.518 248.942 367.703 248.942C368.889 248.942 369.849 249.453 369.849 250.084Z" fill="#95ADFB"/>
<path d="M364.781 246.479L365.561 250.158L369.833 250.222L370.629 246.438L364.781 246.479Z" fill="#95ADFB"/>
<path d="M370.633 246.357C370.633 247.219 369.322 247.916 367.703 247.916C366.085 247.916 364.773 247.219 364.773 246.357C364.773 245.496 366.085 244.799 367.703 244.799C369.322 244.8 370.633 245.497 370.633 246.357Z" fill="#293896"/>
<path d="M367.704 249.119C366.321 249.119 365.189 248.552 365.08 247.831H365.068L365.425 249.512C365.547 250.121 366.53 250.596 367.709 250.596C368.887 250.596 369.855 250.122 369.978 249.512C369.978 249.509 369.985 249.499 369.985 249.496L370.325 247.88C370.175 248.579 369.057 249.119 367.704 249.119Z" fill="white"/>
<path d="M369.111 249.822C369.111 250.334 368.51 250.751 367.768 250.751C367.026 250.751 366.426 250.336 366.426 249.822C366.426 249.31 367.028 248.894 367.768 248.894C368.51 248.895 369.111 249.31 369.111 249.822Z" fill="#BBD2E9"/>
<path d="M368.78 249.822C368.78 250.215 368.327 250.532 367.767 250.532C367.208 250.532 366.754 250.214 366.754 249.822C366.754 249.429 367.207 249.112 367.767 249.112C368.327 249.112 368.78 249.431 368.78 249.822Z" fill="white"/>
<path d="M368.451 249.822C368.451 250.086 368.146 250.301 367.77 250.301C367.394 250.301 367.088 250.086 367.088 249.822C367.088 249.558 367.394 249.344 367.77 249.344C368.146 249.344 368.451 249.558 368.451 249.822Z" fill="#BBD2E9"/>
<path d="M370.527 246.333C370.527 246.332 370.527 246.332 370.527 246.333C370.527 246.33 370.527 246.329 370.527 246.327C370.495 244.989 369.262 243.913 367.741 243.913C366.22 243.913 364.987 244.989 364.955 246.327C364.955 246.329 364.955 246.332 364.955 246.333C364.956 247.136 366.204 247.786 367.741 247.786C369.28 247.786 370.526 247.136 370.527 246.333Z" fill="#0C1342"/>
<path d="M367.95 241.612C367.95 241.612 366.708 242.353 366.26 243.015C365.873 243.589 365.606 244.448 365.829 244.946C366.054 245.442 366.66 245.449 366.66 245.449C366.66 245.449 366.852 245.989 367.555 246.038C368.154 246.081 368.608 245.538 368.608 245.538C368.608 245.538 369.272 245.814 369.683 245.646C370.377 245.364 370.627 244.415 369.505 243.558C368.307 242.642 367.95 241.612 367.95 241.612Z" fill="white"/>
<path d="M367.697 242.061C367.697 242.061 366.823 242.654 366.424 243.371C365.556 244.935 366.736 245.197 366.736 245.197C366.736 245.197 366.901 243.287 367.697 242.061Z" fill="#BBD2E9"/>
<path d="M367.849 242.393C367.849 242.393 367.301 243.739 367.43 244.699C367.557 245.659 368.5 245.323 368.5 245.323C368.5 245.323 368.347 244.877 368.15 243.896C367.997 243.146 367.849 242.393 367.849 242.393Z" fill="#BBD2E9"/>
<path d="M368.146 242.559C368.434 243.287 368.646 243.553 369.186 244.27C369.728 244.987 369.505 245.44 369.505 245.44C369.505 245.44 370.471 245.199 369.803 244.236C369.283 243.482 368.625 243.287 368.146 242.559Z" fill="#BBD2E9"/>
<path d="M365.107 245.242C365.107 245.242 364.888 245.62 365.331 245.909C365.675 246.134 366.023 245.909 366.023 245.909C366.023 245.909 365.272 245.754 365.428 245.118C365.248 245.12 365.107 245.242 365.107 245.242Z" fill="#293896"/>
<path d="M366.313 245.538C366.313 245.538 365.754 245.821 365.806 246.289C365.858 246.756 366.209 246.827 366.209 246.827L366.54 246.485C366.54 246.485 366.301 246.394 366.254 246.113C366.205 245.834 366.313 245.538 366.313 245.538Z" fill="#293896"/>
<path d="M369.189 246.009C369.189 246.009 369.309 246.244 369.189 246.545C369.07 246.845 368.781 246.975 368.781 246.975C368.781 246.975 369.497 247.071 369.629 246.592C369.76 246.113 369.608 246.009 369.608 246.009H369.189Z" fill="#293896"/>
<path d="M366.541 247.31C366.541 247.31 366.674 246.804 367.141 246.728C367.609 246.652 367.849 246.828 367.849 246.828C367.849 246.828 367.453 246.951 367.262 247.046C367.071 247.142 366.904 247.484 366.904 247.484L366.541 247.31Z" fill="#293896"/>
<path d="M365.439 246.495L365.537 246.827L365.747 246.581L365.439 246.495Z" fill="#293896"/>
<path d="M366.805 246.078L366.901 246.464L367.192 246.185L366.805 246.078Z" fill="#293896"/>
<path d="M364.988 246.009L365.2 246.271L365.331 246.009H364.988Z" fill="#293896"/>
<path d="M367.697 247.486L367.797 247.049L368.057 247.362L367.697 247.486Z" fill="#293896"/>
<path d="M370.375 245.275C370.375 245.275 370.124 245.378 370.039 245.782C369.955 246.186 370.277 246.438 370.277 246.438C370.277 246.438 370.195 246.088 370.375 245.849C370.554 245.611 370.633 245.539 370.633 245.539L370.375 245.275Z" fill="#293896"/>
<path d="M369.896 246.438V246.828L370.158 246.592L369.896 246.438Z" fill="#293896"/>
<path d="M368.709 245.782L368.498 246.009L368.841 246.141L368.709 245.782Z" fill="#293896"/>
<path d="M367.742 246.357L368.146 246.14C368.146 246.14 368.518 246.374 368.553 246.729C368.59 247.084 368.497 247.268 368.497 247.268C368.497 247.268 368.421 246.806 368.194 246.633C367.968 246.461 367.742 246.357 367.742 246.357Z" fill="#293896"/>
<path d="M309.657 181.183C309.657 181.183 311.624 180.466 312.315 182.349C313.007 184.23 310.544 188.714 310.544 188.714C310.544 188.714 309.141 186.859 309.178 186.776C309.215 186.692 309.657 181.183 309.657 181.183Z" fill="#95ADFB"/>
<path d="M310.025 182.666C310.025 182.666 311.532 181.934 311.88 182.837C312.441 184.295 310.5 187.795 310.5 187.795C310.5 187.795 309.407 186.351 309.436 186.285C309.464 186.221 310.025 182.666 310.025 182.666Z" fill="#0E1A68"/>
<path d="M310.625 184.115H304.178L303.461 192.276C303.461 193.56 305.226 194.599 307.402 194.599C309.579 194.599 311.342 193.56 311.342 192.276L310.625 184.115Z" fill="#293896"/>
<path d="M303.697 181.184L304.177 184.116C304.177 185.165 305.621 186.015 307.401 186.015C309.181 186.015 310.625 185.165 310.625 184.116L311.105 181.184H303.697Z" fill="white"/>
<path d="M311.105 181.183C311.105 182.388 309.446 183.366 307.401 183.366C305.356 183.366 303.697 182.388 303.697 181.183C303.697 179.978 305.356 179 307.401 179C309.446 178.999 311.105 179.976 311.105 181.183Z" fill="white"/>
<path d="M305.195 181.462L303.762 181.585L303.236 182.886L305.195 182.935V181.462Z" fill="white"/>
<path d="M307.402 179.164C305.511 179.164 303.979 180.068 303.979 181.181C303.979 181.249 304.001 181.312 304.012 181.378L303.461 182.739L305.348 182.786C305.922 183.042 306.627 183.199 307.402 183.199C309.293 183.199 310.825 182.295 310.825 181.181C310.825 180.068 309.293 179.164 307.402 179.164Z" fill="#95ADFB"/>
<path d="M303.236 182.886L304.596 184.115L305.195 182.935L303.236 182.886Z" fill="#293896"/>
<path d="M315.598 184.568C315.598 184.568 317.564 183.851 318.257 185.733C318.948 187.615 316.485 192.098 316.485 192.098C316.485 192.098 315.082 190.244 315.12 190.161C315.155 190.078 315.598 184.568 315.598 184.568Z" fill="#95ADFB"/>
<path d="M315.965 186.051C315.965 186.051 317.471 185.318 317.819 186.222C318.381 187.679 316.439 191.18 316.439 191.18C316.439 191.18 315.346 189.736 315.376 189.671C315.405 189.607 315.965 186.051 315.965 186.051Z" fill="#0E1A68"/>
<path d="M316.565 187.5H310.117L309.4 195.661C309.4 196.943 311.165 197.984 313.341 197.984C315.518 197.984 317.282 196.944 317.282 195.661L316.565 187.5Z" fill="#95ADFB"/>
<path d="M309.639 184.568L310.118 187.5C310.118 188.55 311.562 189.401 313.342 189.401C315.123 189.401 316.566 188.551 316.566 187.5L317.046 184.568H309.639Z" fill="white"/>
<path d="M317.048 184.568C317.048 185.773 315.39 186.751 313.344 186.751C311.299 186.751 309.641 185.773 309.641 184.568C309.641 183.363 311.299 182.385 313.344 182.385C315.39 182.385 317.048 183.363 317.048 184.568Z" fill="white"/>
<path d="M311.135 184.847L309.704 184.97L309.178 186.271L311.135 186.32V184.847Z" fill="white"/>
<path d="M313.341 182.551C311.45 182.551 309.918 183.454 309.918 184.568C309.918 184.635 309.94 184.699 309.952 184.765L309.4 186.125L311.287 186.173C311.861 186.428 312.567 186.585 313.341 186.585C315.232 186.585 316.764 185.682 316.764 184.568C316.766 183.454 315.232 182.551 313.341 182.551Z" fill="#95ADFB"/>
<path d="M309.178 186.271L310.536 187.499L311.135 186.32L309.178 186.271Z" fill="#95ADFB"/>
<path d="M321.795 188.333C321.795 188.333 323.762 187.616 324.453 189.498C325.145 191.379 322.682 195.863 322.682 195.863C322.682 195.863 321.279 194.008 321.315 193.925C321.353 193.844 321.795 188.333 321.795 188.333Z" fill="#95ADFB"/>
<path d="M322.164 189.818C322.164 189.818 323.671 189.086 324.019 189.989C324.58 191.447 322.638 194.947 322.638 194.947C322.638 194.947 321.545 193.504 321.575 193.438C321.603 193.373 322.164 189.818 322.164 189.818Z" fill="#0E1A68"/>
<path d="M322.764 191.266H316.317L315.6 199.426C315.6 200.708 317.364 201.749 319.54 201.749C321.716 201.749 323.481 200.708 323.481 199.426L322.764 191.266Z" fill="#293896"/>
<path d="M315.836 188.334L316.316 191.266C316.316 192.315 317.759 193.167 319.54 193.167C321.32 193.167 322.763 192.317 322.763 191.266L323.243 188.334H315.836Z" fill="white"/>
<path d="M323.245 188.333C323.245 189.54 321.587 190.516 319.542 190.516C317.496 190.516 315.838 189.538 315.838 188.333C315.838 187.128 317.496 186.15 319.542 186.15C321.587 186.15 323.245 187.128 323.245 188.333Z" fill="white"/>
<path d="M317.333 188.612L315.901 188.736L315.375 190.038L317.333 190.087V188.612Z" fill="white"/>
<path d="M319.54 186.316C317.649 186.316 316.117 187.22 316.117 188.334C316.117 188.401 316.14 188.464 316.151 188.53L315.6 189.891L317.488 189.939C318.062 190.194 318.767 190.351 319.542 190.351C321.433 190.351 322.965 189.448 322.965 188.334C322.963 187.22 321.43 186.316 319.54 186.316Z" fill="#95ADFB"/>
<path d="M315.375 190.038L316.733 191.267L317.333 190.087L315.375 190.038Z" fill="#293896"/>
<path d="M444.987 175.033C445.05 174.839 445.202 174.373 445.277 174.218C445.378 173.687 448.743 167.268 468.126 129.66C468.807 128.392 469.953 127.745 470.47 128.094C470.546 128.12 497.982 144.504 498.058 144.543C498.032 144.53 498.007 144.517 497.969 144.504C498.662 144.814 498.725 146.018 498.121 147.183L476.015 190.071C475.436 191.197 475.121 192.388 475.121 193.423V197.383L498.221 211.166C498.524 211.347 498.713 211.722 498.713 212.266C498.713 213.34 497.969 214.66 497.062 215.204L476.267 227.524C475.927 227.718 475.599 227.873 475.284 227.977C474.478 228.249 473.734 228.184 473.167 227.86C444.584 210.803 445.227 211.347 444.912 210.7C444.912 210.7 444.798 210.519 444.735 210.376C444.698 210.299 444.597 210.027 444.572 209.949C444.269 209.328 444.383 210.053 444.294 178.993C444.294 177.673 444.584 176.198 444.975 175.046L444.987 175.033Z" fill="#5B68B7"/>
<path d="M444.308 178.98L444.383 208.552V208.785C444.383 208.85 444.383 208.927 444.396 208.992C444.408 209.134 444.408 209.173 444.421 209.212C444.421 209.29 444.446 209.354 444.446 209.432C444.446 209.458 444.446 209.497 444.459 209.523C444.471 209.6 444.484 209.626 444.484 209.652C444.509 209.73 444.522 209.807 444.547 209.872C444.547 209.898 444.56 209.924 444.572 209.937C444.572 209.963 444.572 209.988 444.598 210.001C444.598 210.04 444.623 210.066 444.623 210.105C444.648 210.183 444.686 210.26 444.711 210.338C444.774 210.48 444.824 210.584 444.887 210.674C444.913 210.713 444.925 210.726 444.938 210.739C444.988 210.817 445.039 210.894 445.102 210.959C445.127 210.985 445.152 211.011 445.177 211.037C445.228 211.101 445.278 211.153 445.341 211.205C445.366 211.218 445.391 211.244 445.417 211.27C445.505 211.334 445.581 211.399 445.669 211.451L473.168 227.861C473.735 228.197 474.466 228.249 475.285 227.977L471.807 195.39L444.308 178.98Z" fill="#293896"/>
<path d="M496.873 144.672C496.406 144.944 495.953 145.436 495.625 146.07L473.533 188.958C472.423 191.119 471.806 193.397 471.819 195.39L471.894 224.962C471.894 226.385 472.398 227.395 473.18 227.848C473.974 228.313 475.07 228.236 476.267 227.524L497.062 215.204C497.982 214.66 498.725 213.34 498.713 212.266C498.713 211.179 497.969 210.752 497.049 211.295L476.255 223.616C475.965 223.797 475.713 223.81 475.511 223.693C475.322 223.577 475.209 223.344 475.209 222.995L475.133 193.423C475.133 192.388 475.448 191.197 476.028 190.071L498.133 147.183C498.738 146.018 498.662 144.815 497.982 144.504C497.667 144.362 497.276 144.439 496.885 144.672H496.873Z" fill="#0C1342"/>
<path d="M447.885 174.373L471.276 188.234L492.738 145.889L469.348 132.016L447.885 174.373Z" fill="white"/>
<path d="M491.365 146.303L469.764 133.504L449.272 173.959L470.861 186.758L491.365 146.303Z" fill="#BDDAFC"/>
<path d="M466.853 158.442L469.159 159.827L470.318 157.601L467.999 156.229L466.853 158.442Z" fill="white"/>
<path d="M466.601 158.572L469.185 160.112L470.559 157.472L467.975 155.932L466.601 158.572ZM469.134 159.529L467.093 158.313L468.025 156.527L470.067 157.743L469.134 159.529Z" fill="white"/>
<path d="M473.669 162.518L477.576 164.848L479.693 160.797L475.787 158.468L473.669 162.518Z" fill="#0C1342"/>
<path d="M473.431 162.648L477.602 165.132L479.934 160.655L475.762 158.17L473.431 162.648ZM477.552 164.55L473.922 162.376L475.813 158.752L479.442 160.926L477.552 164.55Z" fill="white"/>
<path d="M471.565 166.568L475.459 168.898L477.576 164.847L473.669 162.518L471.565 166.568Z" fill="#0E1A68"/>
<path d="M471.313 166.711L475.485 169.196L477.816 164.718L473.645 162.233L471.313 166.711ZM475.434 168.614L471.805 166.439L473.695 162.816L477.325 164.99L475.434 168.614Z" fill="white"/>
<path d="M472.598 156.565L468.376 164.667L471.035 166.259L475.27 158.157L472.598 156.565Z" fill="#0C1342"/>
<path d="M468.125 164.809L471.061 166.556L475.51 158.015L472.573 156.268L468.125 164.809ZM471.011 165.974L468.616 164.537L472.624 156.85L475.018 158.286L471.011 165.974Z" fill="white"/>
<path d="M471.276 155.763L467.042 163.877L468.378 164.666L472.6 156.565L471.276 155.763Z" fill="#5B68B7"/>
<path d="M466.802 164.006L468.403 164.964L472.852 156.423L471.251 155.465L466.802 164.006ZM468.352 164.382L467.294 163.747L471.301 156.06L472.36 156.694L468.352 164.382Z" fill="white"/>
<path d="M480.111 154.831L478.649 157.639L479.973 158.442L481.447 155.633L480.111 154.831Z" fill="#0C1342"/>
<path d="M478.396 157.782L479.997 158.74L481.686 155.505L480.085 154.547L478.396 157.782ZM479.946 158.145L478.888 157.51L480.135 155.129L481.194 155.763L479.946 158.145Z" fill="white"/>
<path d="M478.773 154.042L477.312 156.85L478.647 157.64L480.109 154.831L478.773 154.042Z" fill="white"/>
<path d="M477.06 156.98L478.661 157.937L480.35 154.702L478.749 153.744L477.06 156.98ZM478.623 157.355L477.564 156.721L478.812 154.339L479.871 154.974L478.623 157.355Z" fill="white"/>
<path d="M477.44 153.239L475.978 156.061L477.314 156.85L478.775 154.042L477.44 153.239Z" fill="#0E1A68"/>
<path d="M475.738 156.19L477.339 157.148L479.027 153.913L477.427 152.955L475.738 156.19ZM477.288 156.553L476.23 155.919L477.477 153.537L478.536 154.172L477.288 156.553Z" fill="white"/>
<path d="M476.114 152.449L474.64 155.258L475.976 156.06L477.438 153.239L476.114 152.449Z" fill="#BDDAFC"/>
<path d="M474.4 155.4L476.001 156.358L477.689 153.123L476.089 152.165L474.4 155.4ZM475.95 155.763L474.892 155.129L476.139 152.747L477.198 153.382L475.95 155.763Z" fill="white"/>
<path d="M474.779 151.661L473.317 154.469L474.641 155.259L476.115 152.451L474.779 151.661Z" fill="#5B68B7"/>
<path d="M473.066 154.599L474.667 155.556L476.355 152.321L474.755 151.363L473.066 154.599ZM474.629 154.974L473.57 154.34L474.818 151.959L475.877 152.593L474.629 154.974Z" fill="white"/>
<path d="M475.322 142.007L469.89 152.412L472.738 154.12L478.17 143.715L475.322 142.007Z" fill="#5B68B7"/>
<path d="M469.638 152.554L472.763 154.418L478.422 143.573L475.296 141.709L469.638 152.554ZM472.713 153.835L470.129 152.295L475.334 142.304L477.918 143.844L472.713 153.835Z" fill="white"/>
<path d="M470.167 143.779L466.663 150.496L468.768 151.751L472.271 145.022L470.167 143.779Z" fill="#0C1342"/>
<path d="M466.424 150.625L468.793 152.036L472.523 144.892L470.154 143.481L466.424 150.638V150.625ZM468.743 151.453L466.915 150.366L470.205 144.064L472.032 145.151L468.743 151.453Z" fill="white"/>
<path d="M464.737 162.492L468.379 164.666L470.496 160.616L466.854 158.441L464.737 162.492Z" fill="#0E1A68"/>
<path d="M464.484 162.635L468.391 164.964L470.723 160.487L466.816 158.157L464.484 162.635ZM468.353 164.382L464.976 162.363L466.866 158.74L470.244 160.758L468.353 164.382Z" fill="white"/>
<path d="M465.466 178.255L469.373 180.585L473.91 171.888L470.003 169.559L465.466 178.255Z" fill="#0C1342"/>
<path d="M465.228 178.385L469.399 180.87L474.15 171.759L469.979 169.274L465.228 178.385ZM469.349 180.288L465.719 178.113L470.029 169.857L473.659 172.031L469.349 180.288Z" fill="white"/>
<path d="M463.123 153.174L458.586 161.871L462.493 164.187L467.018 155.503L463.123 153.174Z" fill="#5B68B7"/>
<path d="M458.347 162L462.518 164.485L467.27 155.374L463.098 152.89L458.347 162ZM462.468 163.903L458.838 161.729L463.148 153.472L466.778 155.646L462.468 163.903Z" fill="white"/>
<path d="M460.853 157.523L458.585 161.872L460.538 163.037L462.807 158.688L460.853 157.523Z" fill="#0C1342"/>
<path d="M458.346 162.001L460.564 163.321L463.047 158.546L460.829 157.226L458.346 162.001ZM460.514 162.739L458.825 161.729L460.867 157.808L462.555 158.817L460.514 162.739Z" fill="white"/>
<path d="M460.224 175.124L465.467 178.255L468.113 173.195L462.871 170.063L460.224 175.124Z" fill="#BDDAFC"/>
<path d="M459.985 175.253L465.493 178.54L468.354 173.053L462.846 169.766L459.985 175.253ZM465.455 177.958L460.477 174.994L462.897 170.361L467.875 173.325L465.455 177.958Z" fill="white"/>
<path d="M457.69 174.942L469.411 181.931L487.332 147.571L471.528 138.137L466.613 147.558L464.13 148.904L455.876 164.745L461.307 167.993L457.69 174.93V174.942ZM469.386 181.646L457.93 174.813L461.547 167.876L456.115 164.628L464.219 149.085L466.701 147.739L471.553 138.447L487.08 147.713L469.386 181.646Z" fill="white"/>
<path d="M464.434 164.318L470.244 167.786L470.471 167.359L464.648 163.891L464.434 164.318Z" fill="white"/>
<path d="M465.241 166.117L469.715 168.795L469.941 168.368L465.455 165.689L465.241 166.117Z" fill="white"/>
<path d="M466.741 168.317L469.199 169.792L469.426 169.365L466.956 167.89L466.741 168.317Z" fill="white"/>
<path d="M465.089 168.653L468.68 170.788L468.895 170.361L465.315 168.226L465.089 168.653Z" fill="white"/>
<path d="M464.497 169.791L468.089 171.927L468.303 171.5L464.724 169.364L464.497 169.791Z" fill="white"/>
<path d="M479.668 145.5L485.478 148.969L485.705 148.542L479.895 145.073L479.668 145.5Z" fill="white"/>
<path d="M481.119 147.661L484.963 149.952L485.189 149.525L481.346 147.234L481.119 147.661Z" fill="white"/>
<path d="M479.744 148.14L484.458 150.935L484.672 150.508L479.971 147.713L479.744 148.14Z" fill="white"/>
<path d="M480.084 149.628L483.94 151.932L484.154 151.505L480.31 149.201L480.084 149.628Z" fill="white"/>
<path d="M477.614 149.448L483.424 152.916L483.65 152.489L477.841 149.021L477.614 149.448Z" fill="white"/>
<path d="M479.82 152.048L482.908 153.899L483.135 153.472L480.034 151.621L479.82 152.048Z" fill="white"/>
<path d="M459.53 165.753L461.912 167.177L462.945 165.197L460.563 163.773L459.53 165.753ZM461.887 166.892L459.769 165.624L460.576 164.071L462.693 165.339L461.887 166.892Z" fill="white"/>
<path d="M457.198 164.37L459.277 165.612L460.311 163.632L458.231 162.39L457.198 164.37ZM459.252 165.314L457.437 164.227L458.244 162.674L460.059 163.761L459.252 165.314Z" fill="white"/>
<path d="M463.739 149.668L469.007 152.812L473.33 144.53L469.411 142.188L466.613 147.558L464.13 148.904L463.739 149.642V149.668ZM468.995 152.528L463.991 149.538L464.218 149.098L466.701 147.752L469.436 142.498L473.078 144.672L468.982 152.528H468.995Z" fill="white"/>
<path d="M475.474 151.389L482.998 155.88L487.32 147.584L479.796 143.094L475.474 151.389ZM482.972 155.582L475.726 151.247L479.834 143.378L487.081 147.714L482.985 155.582H482.972Z" fill="white"/>
<path d="M473.155 141.761L474.415 142.511L475.461 140.505L474.201 139.755L473.155 141.761ZM474.39 142.214L473.394 141.618L474.213 140.04L475.209 140.635L474.39 142.214Z" fill="white"/>
<path d="M473.469 170.983L474.729 171.733L475.775 169.727L474.515 168.977L473.469 170.983ZM474.704 171.448L473.709 170.853L474.528 169.274L475.523 169.87L474.704 171.448Z" fill="white"/>
<path d="M457.69 174.942L458.95 175.693L459.996 173.687L458.736 172.937L457.69 174.942ZM458.925 175.408L457.929 174.813L458.748 173.234L459.744 173.829L458.925 175.408Z" fill="white"/>
<path d="M467.293 152.967L468.553 153.718L469.133 152.605L467.873 151.854L467.293 152.967ZM468.54 153.433L467.545 152.838L467.898 152.152L468.893 152.747L468.54 153.433Z" fill="white"/>
<path d="M464.533 151.324L465.793 152.075L466.373 150.962L465.113 150.211L464.533 151.324ZM465.781 151.777L464.785 151.182L465.138 150.496L466.134 151.091L465.781 151.777Z" fill="white"/>
<path d="M471.364 140.699L472.624 141.45L473.67 139.444L472.41 138.693L471.364 140.699ZM472.611 141.152L471.616 140.557L472.435 138.978L473.43 139.573L472.611 141.152Z" fill="white"/>
<path d="M419.469 164.176L427.055 175.564L427.963 172.911L426.665 169.792L423.842 163.037L429.941 159.801V153.305C429.941 153.305 420.2 158.598 419.355 160.513C418.498 162.441 419.469 164.176 419.469 164.176Z" fill="white"/>
<g opacity="0.5" style="mix-blend-mode:multiply">
<path d="M421.875 162.351C423.45 163.774 425.063 166.816 426.676 169.792L423.853 163.037L429.953 159.801V158.624L428.567 158.546C426.802 160.513 424.559 161.768 421.875 162.351Z" fill="white"/>
</g>
<path d="M443.704 223.771L442.986 225.777L443.25 228.003L452.753 228.753L454.051 226.411L452.753 225.207H450.951C449.211 225.13 447.964 224.638 447.523 223.434C447.397 222.774 447.334 222.114 447.296 221.441C447.245 220.367 447.296 219.28 447.46 218.193C447.472 218.038 447.497 217.895 447.523 217.74C448.644 212.926 449.249 207.037 449.577 200.567C449.615 199.79 449.652 199.014 449.678 198.211L444.876 183.613L436.256 187.146L443.817 203.323C441.41 208.707 443.238 215.928 443.691 223.732L443.704 223.771Z" fill="white"/>
<path d="M453.937 225.233C455.852 225.285 455.827 226.618 455.537 227.589C455.033 228.896 453.445 229.957 452.046 229.983C450.446 230.022 446.514 230.41 446.514 230.41C445.077 230.992 444.031 230.811 442.758 230.436C442.229 228.753 442.115 227.213 442.997 225.777C443.905 228.262 447.849 228.482 451.441 227.99C452.26 227.873 453.042 226.929 452.55 226.243C452.223 225.777 451.706 225.428 450.95 225.233H453.949H453.937Z" fill="#293896"/>
<path d="M431.099 222.619L430.482 225.816L431.755 227.084H434.628L437.451 224.599L436.796 223.551C436.216 222.749 435.46 222.671 434.628 222.982C434.553 222.826 434.49 222.594 434.439 222.322C433.822 218.983 434.704 207.53 435.321 201.201L435.435 199.558L435.977 192.026L430.482 190.473V200.166C426.751 207.154 430.28 213.599 431.099 222.658V222.619Z" fill="white"/>
<path d="M430.595 225.233C430.999 226.139 432.662 226.735 434.338 226.411C435.863 225.725 436.582 225.143 436.96 224.12C436.506 223.499 435.599 223.085 434.666 222.995L434.439 222.438L435.649 221.726C436.897 221.157 437.728 221.545 438.321 222.529C438.762 224.353 438.22 225.57 436.985 226.359L435.145 227.809C434.426 229.608 433.633 230.527 432.208 230.319C430.658 230.087 430.091 229.452 430.003 228.094C430.079 227.058 430.142 225.932 430.595 225.221V225.233Z" fill="#293896"/>
<g opacity="0.5" style="mix-blend-mode:multiply">
<path d="M447.459 218.219C447.472 218.063 447.497 217.921 447.522 217.766C448.644 212.952 449.249 207.063 449.576 200.592C449.274 200.204 449.022 199.894 449.022 199.894L445.795 201.925C447.812 204.63 447.799 211.127 447.471 218.206L447.459 218.219Z" fill="white"/>
</g>
<g opacity="0.5" style="mix-blend-mode:multiply">
<path d="M430.484 200.127C433.823 203.971 433.206 213.664 434.441 222.438V222.296C433.836 218.957 434.718 207.504 435.336 201.175L435.449 199.532L433.382 198.587L430.496 200.127H430.484Z" fill="white"/>
</g>
<path d="M441.852 155.349L442.368 154.469L442.331 155.608C442.305 155.763 442.356 155.854 442.457 155.906C442.583 155.97 442.759 155.944 442.86 155.789C442.885 155.75 442.91 155.711 442.923 155.66L443.162 154.702L443.843 155.388L444.473 156.022C445.242 156.734 446.187 157.277 447.372 157.575L448.519 158.636H449.451L448.897 156.074L445.809 153.278L445.103 152.864L444.309 152.398L442.873 152.58L441.864 153.693L441.335 155.077C441.222 155.517 441.65 155.686 441.839 155.349H441.852Z" fill="white"/>
<g opacity="0.5" style="mix-blend-mode:multiply">
<path d="M441.85 155.349L442.367 154.469L442.329 155.608C442.304 155.763 442.354 155.854 442.455 155.906L442.858 155.789C442.858 155.789 442.909 155.712 442.921 155.66L443.161 154.702L443.841 155.388L445.215 154.055L445.101 152.852L444.307 152.386L442.871 152.567L441.863 153.68L441.333 155.065C441.22 155.505 441.648 155.673 441.837 155.336L441.85 155.349Z" fill="white"/>
</g>
<path d="M426.69 172.121L427.975 172.898L429.551 174.736L430.332 177.466L429.185 180.262L427.131 181.582C426.627 181.556 426.4 181.362 426.702 180.87L427.295 180.067L426.917 175.318L426.198 172.406L426.702 172.108L426.69 172.121Z" fill="white"/>
<path d="M428.794 198.949C429.626 200.735 436.356 202.172 442.04 202.262C443.817 202.288 445.48 202.197 446.841 201.939C448.669 201.589 449.916 200.955 450.105 199.959C448.795 187.509 445.077 185.516 444.321 179.33C444.283 178.98 444.245 178.605 444.22 178.217C444.195 177.712 444.182 177.194 444.195 176.638L441.914 175.745L433.356 172.419L429.298 175.305C426.261 181.62 427.862 189.282 428.782 198.936L428.794 198.949Z" fill="#293896"/>
<path d="M428.554 158.545C429.02 163.735 431.176 166.478 431.024 168.873C430.873 171.202 429.411 175.136 429.31 175.317C430.999 178.656 433.646 179.601 438.094 180.015C438.737 180.067 439.418 180.093 440.136 180.093C441.434 180.08 442.833 179.951 444.333 179.73C444.333 179.588 444.333 179.472 444.333 179.342C444.32 175.46 443.677 174.632 444.723 171.06C446.639 170.723 448.63 168.445 448.277 166.194C448.177 165.495 447.849 164.809 447.219 164.175C445.026 161.962 445.984 158.933 445.984 158.933C445.984 158.933 441.069 155.155 438.346 153.718C435.637 152.282 429.94 153.304 429.94 153.304C429.94 153.304 428.176 154.469 428.554 158.545Z" fill="#95ADFB"/>
<path d="M442.557 151.492L441.813 156.073C439.734 157.484 434.529 155.284 435.701 152.993L437.629 149.253L442.557 151.492Z" fill="white"/>
<path d="M442.556 141.126C442.556 141.126 449.803 140.544 447.295 148.736C447.295 148.736 443.64 144.413 440.388 145.203L442.543 141.139L442.556 141.126Z" fill="#0C1342"/>
<path d="M441.245 140.725C446.412 141.113 445.971 146.743 445.971 146.743C445.895 147.196 445.417 152.942 443.199 154.378C442.694 154.702 442.064 154.262 442.064 154.262L436.217 151.428V149.694C436.217 149.694 434.616 146.173 435.435 144.167C436.708 141.049 438.636 140.518 441.245 140.725Z" fill="white"/>
<path d="M443.615 141.126C441.258 140.013 438.876 139.638 436.696 141.476C436.696 141.476 432.713 145.384 435.524 150.444L436.217 151.441L437.88 152.644C443.879 153.977 445.518 148.296 445.795 144.129C445.467 143.08 444.547 141.76 443.627 141.126H443.615Z" fill="#0C1342"/>
<path d="M437.856 150.263L438.335 150.91C438.335 150.91 439.242 154.042 438.902 155.608C438.549 157.174 437.012 157.485 436.734 159.063C436.457 160.642 437.806 164.175 437.806 164.175C437.806 164.175 434.554 162.402 433.47 160.668C432.387 158.934 431.769 157.536 432.286 155.543C432.79 153.55 436.319 151.066 436.319 151.066L436.482 150.186L437.844 150.276L437.856 150.263Z" fill="#0C1342"/>
<g opacity="0.5" style="mix-blend-mode:multiply">
<path d="M445.783 201.939H446.841C448.669 201.59 449.916 200.955 450.105 199.959C448.795 187.509 445.077 185.516 444.321 179.33C444.321 179.459 444.321 179.589 444.321 179.718C442.821 179.951 441.422 180.068 440.124 180.081C440.074 180.145 440.023 180.21 439.973 180.275C444.8 187.134 446.854 194.329 445.783 201.926V201.939Z" fill="#0C1342"/>
</g>
<g opacity="0.5" style="mix-blend-mode:multiply">
<path d="M444.321 179.33C444.308 175.448 443.666 174.619 444.712 171.047C446.627 170.711 448.619 168.433 448.266 166.181L442.544 163.27C442.582 167.527 442.683 172.147 441.914 175.745C441.548 177.466 440.981 178.968 440.124 180.081C441.422 180.068 442.821 179.938 444.321 179.718C444.321 179.576 444.321 179.459 444.321 179.33Z" fill="#293896"/>
</g>
<path d="M445.983 158.934L449.461 162.985L447.029 157.213L448.894 156.087C448.894 156.087 455.133 165.741 454.729 170.128C454.376 173.856 450.104 170.077 450.104 170.077L444.105 165.353C441.055 163.244 441.534 156.488 445.97 158.934H445.983Z" fill="white"/>
<g opacity="0.5" style="mix-blend-mode:multiply">
<path d="M449.45 162.985L451.857 165.12L447.585 158.546L449.45 162.985Z" fill="white"/>
</g>
</svg>
