<svg width="705" height="468" viewBox="0 0 705 468" fill="none" xmlns="http://www.w3.org/2000/svg">
<rect width="705" height="468" fill="#E0E6F9"/>
<path d="M671.526 358.042L609.104 394.315L266.963 196.772L329.377 160.5L377.63 188.357L671.526 358.042Z" fill="#D0DBFF"/>
<path d="M104.5 290.196L221.054 357.488L385.421 263.35L268.866 196.049L104.5 290.196Z" fill="#D0DBFF"/>
<path d="M609.774 376.804L609.747 393.948L599.098 400.14L599.124 382.995L609.774 376.804Z" fill="#5B68B7"/>
<path d="M599.124 382.996L599.098 400.14L374.932 270.185L374.958 253.031L599.124 382.996Z" fill="#0E1A68"/>
<path d="M609.774 376.804L599.125 382.996L374.959 253.031L385.608 246.84L609.774 376.804Z" fill="white"/>
<path d="M250.185 247.062L262.997 254.46C266.731 256.613 270.099 259.91 262.076 264.538C252.981 269.791 247.469 267.37 244.208 265.306C242.645 264.323 237.99 260.919 237.91 260.732L226.081 267.557L220.381 264.27L250.185 247.062ZM248.791 262.152C250.596 263.198 252.687 263.332 256.269 261.268C259.754 259.213 258.914 257.953 257.484 257.131L250.819 253.281L242.126 258.302L248.791 262.152Z" fill="#1F2C84"/>
<path d="M108.676 284.407C109.084 289.61 109.398 293.578 115.523 293.285C122.359 292.96 122.809 289.662 122.715 284.197C122.631 279.371 115.753 223.748 122.38 217.833C124.306 216.116 126.672 214.985 128.787 213.509C130.902 212.033 132.87 210.033 133.32 207.489C133.781 204.956 122.746 210.075 121.197 211.75C120.799 212.18 120.265 212.588 119.679 212.525C118.684 212.42 118.339 211.164 118.234 210.169C117.941 207.28 106.77 154.327 109.063 193.115C109.367 198.266 107.702 206.463 107.901 210.892C108.058 214.493 109.231 219.1 108.854 222.555C108.592 225.004 105.88 224.031 104.54 223.015C103.546 222.261 102.782 221.246 102.038 220.241C99.2953 216.577 96.5419 212.902 93.7989 209.238C93.0347 208.222 92.0087 207.091 90.7628 207.301C89.4123 207.531 88.8365 209.311 89.2972 210.599C90.0824 212.797 92.6892 214.64 94.092 216.503C95.6101 218.513 97.191 220.492 98.8451 222.377C101.557 225.465 108.341 231.788 108.466 236.269C108.602 241.2 108.613 283.15 108.707 284.396L108.676 284.407Z" fill="#293896"/>
<path d="M59.6795 155.09C59.1979 156.567 57.2087 157.268 56.277 158.639C54.6961 160.943 56.6329 164.021 58.7058 165.895C60.7787 167.769 63.3123 169.894 63.0296 172.679C62.7888 175.097 60.6322 176.448 59.491 178.384C58.0672 180.803 58.3918 182.331 58.13 184.865C57.6275 189.566 54.1831 194.821 57.8578 199.187C59.5538 201.207 62.3701 202.087 63.9091 204.222C67.343 208.996 66.4426 216.618 75.0587 212.912C77.2573 211.959 78.8486 209.698 81.5182 211.373C84.481 213.247 82.3767 216.827 83.7063 219.508C84.9103 221.936 87.0669 221.214 89.1817 221.591C92.0503 222.093 94.7514 223.779 97.7874 224.24C100.562 224.658 103.65 224.009 105.503 221.905C107.126 220.052 107.827 217.141 110.173 216.377C113.167 215.404 116.894 218.743 119.26 216.67C122.149 214.116 126.117 209.771 129.896 214.304C131.76 216.545 130.305 219.256 134.147 219.863C136.796 220.282 139.664 218.241 141.287 216.346C143.601 213.624 145.213 210.159 148.27 208.326C152.332 205.887 158.718 206.306 160.414 201.888C161.754 198.37 158.75 194.402 159.776 190.78C160.99 186.446 167.418 184.425 167.156 179.934C166.958 176.416 162.791 174.731 160.728 171.873C158.718 169.088 158.844 165.298 159.514 161.927C160.278 158.032 161.838 153.782 160.55 149.835C159.409 146.349 157.085 145.783 154.531 143.784C149.432 139.774 156.174 132.288 147.464 130.812C144.763 130.352 141.79 130.582 139.507 129.074C137.214 127.567 136.241 124.709 135.738 122.008C135.225 119.307 134.995 116.469 133.603 114.103C131.31 110.198 122.243 107.173 118.098 105.937C112.371 104.231 105.922 103.456 99.9859 104.419C94.8246 105.246 89.6842 107.937 87.2135 112.544C85.4756 115.768 84.9102 119.987 81.78 121.882C78.1471 124.081 72.8393 121.924 69.5729 124.635C67.5104 126.352 67.1545 129.326 66.1389 131.807C64.3278 136.204 58.486 136.706 56.1095 141.261C54.56 144.223 54.4868 148.223 56.8319 150.599C58.0568 151.845 59.9831 152.902 59.826 154.63C59.8156 154.797 59.7737 154.954 59.7318 155.101L59.6795 155.09Z" fill="#0E1A68"/>
<path d="M160.686 171.851C158.676 169.066 158.801 165.277 159.471 161.906C160.236 158.011 161.795 153.76 160.508 149.814C159.367 146.327 157.042 145.762 154.488 143.762C149.389 139.753 156.132 132.267 147.421 130.791C144.72 130.33 141.747 130.561 139.465 129.053C137.172 127.546 136.198 124.687 135.696 121.986C135.183 119.285 134.952 116.448 133.56 114.082C131.267 110.177 122.201 107.152 118.045 105.916C117.563 105.77 117.186 105.623 116.684 105.623C115.427 107.979 113.428 111.967 115.846 114.239C117.532 115.82 119.992 116.134 122.18 116.857C124.378 117.579 126.692 119.212 126.64 121.515C126.567 124.824 121.688 127.315 123.059 130.33C124.525 133.534 130.492 131.21 132.356 134.194C133.549 136.099 131.969 138.57 130.168 139.899C128.357 141.229 126.106 142.297 125.279 144.38C124.295 146.872 125.855 149.688 127.896 151.415C129.938 153.143 132.461 154.253 134.408 156.085C136.355 157.917 137.612 160.974 136.251 163.267C134.806 165.716 130.848 166.7 130.89 169.538C130.932 171.893 133.707 172.982 135.685 174.259C141.286 177.913 142.103 186.697 134.701 188.508C131.539 189.283 128.21 188.822 124.986 189.272C121.761 189.722 118.296 191.544 117.647 194.737C117.249 196.663 117.961 198.747 117.301 200.6C116.38 203.175 113.093 204.18 110.413 203.625C107.732 203.071 105.45 201.385 103.084 200.013C100.718 198.642 97.9333 197.522 95.295 198.244C92.8347 198.914 91.0864 201.008 89.1181 202.62C87.1499 204.243 84.2918 205.447 82.1247 204.096C80.0832 202.83 79.7901 200.045 79.5074 197.658C79.2247 195.271 78.3139 192.434 75.9688 191.921C74.2833 191.554 72.5558 192.591 70.8494 192.34C68.6508 192.015 67.3317 189.67 66.913 187.482C66.5047 185.294 66.6617 182.98 65.8241 180.918C64.9657 178.792 61.982 176.657 59.7834 178.164C57.9513 179.421 58.3177 182.97 58.1188 184.854C57.6163 189.555 54.1719 194.81 57.8466 199.176C59.5426 201.197 62.3589 202.076 63.8978 204.212C67.3317 208.986 66.4314 216.607 75.0475 212.901C77.2461 211.948 78.8374 209.687 81.5071 211.362C84.4699 213.236 82.3655 216.817 83.6951 219.497C84.8991 221.926 87.0558 221.203 89.1601 221.58C92.0286 222.083 94.7297 223.768 97.7657 224.229C100.54 224.648 103.628 223.998 105.482 221.894C107.104 220.041 107.806 217.131 110.151 216.366C113.145 215.393 116.872 218.732 119.238 216.66C122.128 214.105 126.095 209.76 129.875 214.294C131.738 216.534 130.283 219.245 134.125 219.853C136.774 220.271 139.643 218.23 141.265 216.335C143.579 213.613 145.191 210.148 148.248 208.316C152.31 205.876 158.697 206.295 160.393 201.877C161.733 198.359 158.728 194.392 159.754 190.769C160.968 186.435 167.396 184.414 167.135 179.923C166.936 176.405 162.769 174.72 160.707 171.862L160.686 171.851Z" fill="#5B68B7"/>
<path d="M76.3374 137.785C75.8977 138.13 75.5836 138.57 75.4789 139.125C75.1648 140.748 77.1854 142.37 76.6619 144.339C75.9186 147.197 72.2334 147.856 69.8883 149.636C67.9306 151.123 66.8313 153.677 67.1035 156.116C67.3653 158.566 68.988 160.817 71.2179 161.854C74.7775 163.508 79.9178 162.482 81.9384 165.853C83.1214 167.821 82.5142 170.344 82.9015 172.605C83.4145 175.547 85.9062 178.102 88.8795 178.468C91.8423 178.835 94.9831 176.825 95.7054 173.925C96.03 172.637 95.9044 171.276 96.1661 169.978C96.8047 166.868 99.6523 164.586 102.699 163.686C105.745 162.785 108.991 163.005 112.163 163.225C113.838 160.995 112.163 157.833 110.289 155.771C108.415 153.698 106.154 151.301 106.74 148.568C107.441 145.323 111.556 144.297 113.786 141.836C115.974 139.429 116.131 135.607 114.728 132.665C113.325 129.724 110.635 127.567 107.714 126.112C101.034 122.688 97.904 127.022 93.7267 131.639C93.3813 132.016 93.0253 132.404 92.5437 132.571C91.9051 132.791 91.2037 132.571 90.5755 132.341C89.6333 131.985 88.6701 131.587 87.6651 131.566C86.66 131.535 85.5608 131.964 85.1106 132.875C84.4301 134.257 85.3932 136.288 84.2102 137.261C83.2366 138.057 81.8337 137.314 80.6193 136.989C79.4153 136.665 77.4681 136.884 76.3374 137.774V137.785Z" fill="white"/>
<path d="M517 263.867L567.642 293.102L583.539 283.926L532.897 254.69L517 263.867Z" fill="#BBD2E9"/>
<path d="M529.35 221.43L563.6 241.335C564.368 241.778 565.63 241.778 566.398 241.335L572.248 237.958C572.64 237.736 572.828 237.429 572.828 237.139V282.783C572.828 283.073 572.64 283.38 572.265 283.602L566.415 286.979C565.647 287.423 564.385 287.423 563.617 286.979L529.367 267.074C528.992 266.852 528.804 266.562 528.787 266.272V220.628C528.787 220.918 528.958 221.208 529.35 221.43Z" fill="#5B68B7"/>
<path d="M529.35 183.922L563.6 203.827C564.368 204.271 565.63 204.271 566.398 203.827L572.248 200.45C572.64 200.228 572.828 199.921 572.828 199.631V251.04C572.828 251.33 572.64 251.637 572.265 251.859L566.415 255.236C565.647 255.68 564.385 255.68 563.617 255.236L529.367 235.331C528.992 235.109 528.804 234.819 528.787 234.529V183.12C528.787 183.41 528.958 183.7 529.35 183.922Z" fill="#293896"/>
<path d="M525.58 152.179L527.985 150.78C526.638 150.03 525.41 149.978 524.523 150.49L533.392 145.339C534.313 144.81 535.576 144.878 536.974 145.697L575.216 167.786C577.996 169.389 580.23 173.278 580.23 176.468L580.043 244.03C580.043 245.616 579.48 246.725 578.576 247.254L569.706 252.405C570.593 251.893 571.139 250.801 571.173 249.266L568.649 250.733C568.001 251.108 567.08 251.057 566.09 250.477L569.706 248.379L569.894 180.681C569.894 178.395 568.291 175.615 566.312 174.455L528.156 152.418C528.156 152.418 528.139 152.418 528.122 152.4L524.54 154.481C524.54 153.339 524.949 152.554 525.597 152.179H525.58Z" fill="#293896"/>
<path d="M533.939 220.031C530.988 221.754 528.037 223.46 525.069 225.182C525.717 226.547 526.758 227.775 527.918 228.44L536.787 223.289C535.627 222.624 534.604 221.396 533.939 220.031Z" fill="white"/>
<path d="M533.938 220.03C533.477 219.058 533.187 218.018 533.187 217.062L524.317 222.214C524.317 223.169 524.59 224.209 525.068 225.182C528.019 223.459 530.97 221.753 533.938 220.03Z" fill="white"/>
<path d="M528.139 152.417C526.143 151.275 524.54 152.196 524.523 154.481L524.335 222.214C524.335 224.5 525.939 227.28 527.917 228.44L566.073 250.477C568.069 251.62 569.672 250.699 569.689 248.413L569.877 180.681C569.877 178.395 568.274 175.615 566.295 174.455L528.139 152.417Z" fill="#293896"/>
<path d="M528.105 150.848C525.325 149.244 523.073 150.524 523.056 153.713L522.869 221.275C522.869 224.465 525.103 228.354 527.883 229.957L566.125 252.046C568.905 253.649 571.157 252.37 571.174 249.163L571.361 181.601C571.361 178.412 569.127 174.523 566.347 172.919L528.105 150.831V150.848ZM524.336 222.214L524.523 154.481C524.523 152.195 526.144 151.274 528.139 152.417L566.295 174.454C568.291 175.597 569.894 178.394 569.877 180.68L569.69 248.413C569.69 250.698 568.069 251.62 566.074 250.477L527.918 228.439C525.922 227.296 524.319 224.499 524.336 222.214Z" fill="white"/>
<path d="M565.595 183.137L528.513 161.594L528.633 221.924L565.697 243.467L565.595 183.137Z" fill="#5B68B7"/>
<path d="M545.417 212.696L532.027 204.918L532.062 220.627L545.451 228.405L545.417 212.696Z" fill="#BBD2E9"/>
<path d="M562.166 222.435L548.793 214.657L548.827 230.367L562.217 238.144L562.166 222.435Z" fill="#BBD2E9"/>
<path d="M545.417 194.257L532.027 186.479L532.062 202.189L545.451 209.967L545.417 194.257Z" fill="#BBD2E9"/>
<path d="M562.166 203.997L548.793 196.219L548.827 211.928L562.217 219.706L562.166 203.997Z" fill="#BBD2E9"/>
<path d="M545.417 175.836L532.027 168.041L532.062 183.75L545.451 191.545L545.417 175.836Z" fill="#BBD2E9"/>
<path d="M562.166 185.576L548.793 177.798L548.827 193.507L562.217 201.285L562.166 185.576Z" fill="#BBD2E9"/>
<path d="M323.888 239.355L224.013 297.592C224.013 297.592 213.812 302.744 203.692 303.408C193.572 304.072 184.791 299.573 178.643 296.768C172.507 293.963 158.368 285.824 155.437 283.087C152.507 280.34 144.458 274.558 152.415 266.751C160.372 258.954 279.068 198.084 289.623 197.66C300.178 197.237 332.348 224.22 333.161 228.914C333.939 233.39 329.829 235.909 323.888 239.343V239.355Z" fill="#BBD2E9"/>
<path d="M319.733 230.574L310.414 224.495L284.896 241.21L235.13 280.42L228.604 274.879L211.993 282.79L205.902 249.99L319.733 201.427C319.733 201.427 329.304 206.956 319.733 230.574Z" fill="#0E1A68"/>
<path d="M211.923 280.294C211.923 286.614 211.694 293.906 217.201 290.735C222.708 287.564 227.172 279.859 227.172 273.54C227.172 267.22 222.708 264.679 217.201 267.862C211.694 271.044 211.923 273.986 211.923 280.294Z" fill="#0E1A68"/>
<path d="M216.594 295.177L210.137 291.456L224.321 267.197L230.824 270.941L216.594 295.177Z" fill="#0E1A68"/>
<path d="M213.756 288.823C213.756 295.142 218.221 297.683 223.727 294.501C229.234 291.318 233.699 283.625 233.699 277.305C233.699 270.986 229.234 268.445 223.727 271.627C218.221 274.81 213.756 282.503 213.756 288.823Z" fill="#0E1A68"/>
<path d="M291.82 236.206C291.82 242.526 296.285 245.067 301.792 241.885C307.298 238.702 311.763 231.009 311.763 224.689C311.763 218.37 307.298 215.828 301.792 219.011C296.285 222.194 291.82 229.887 291.82 236.206Z" fill="#0E1A68"/>
<path d="M301.197 246.339L294.74 242.607L308.925 218.348L315.416 222.103L301.197 246.339Z" fill="#0E1A68"/>
<path d="M298.357 239.985C298.357 246.304 302.822 248.846 308.329 245.663C313.836 242.48 318.3 234.787 318.3 228.468C318.3 222.148 313.836 219.607 308.329 222.789C302.822 225.972 298.357 233.665 298.357 239.985Z" fill="#0E1A68"/>
<path d="M154.521 253.311C154.625 251.25 155.323 249.727 156.044 248.686C159.456 243.74 157.143 251.525 157.143 251.525L154.521 253.311Z" fill="white"/>
<path d="M328.639 220.408C328.639 220.408 328.742 219.251 327.688 217.66C326.635 216.069 323.258 215.428 323.258 215.428L326.189 220.671L328.639 220.396V220.408Z" fill="#BBD2E9"/>
<path d="M327.998 212.223C327.998 212.223 327.46 207.678 324.381 203.282C321.313 198.886 315.943 194.089 315.943 194.089L313.459 201.816L326.441 212.475L327.998 212.223Z" fill="white"/>
<path d="M280.796 192.783C280.796 192.783 279.765 194.787 278.884 195.634C278.002 196.481 270.527 201.759 270.527 201.759L270.183 201.965V199.034C270.183 191.81 265.077 188.902 258.781 192.532C253.698 195.462 249.393 201.77 247.916 207.895C247.561 209.361 247.378 210.814 247.378 212.2V216.081L246.417 216.676L185.58 251.799V247.873C185.58 246.098 185.271 244.587 184.71 243.373C183.004 239.618 178.929 238.634 174.178 241.381C167.881 245.022 167.469 249.063 167.469 256.287V258.771L156.96 263.419L154.75 259.241L155.013 258.382L155.414 257.089V255.406L154.75 255.325V252.418L156.261 248.674C156.261 248.674 157.738 242.515 157.921 241.313C158.047 240.488 159.409 237.798 159.524 237.649C159.547 237.615 162.649 235.176 162.649 235.176C162.649 235.176 163.84 233.001 167.126 229.704C170.411 226.396 186.359 212.463 189.106 210.139C191.854 207.826 202.295 200.557 213.045 194.741C223.783 188.937 225.455 189.017 226.725 188.731C234.19 187.036 243.898 187.952 245.569 188.067C248.512 186.933 273.194 173.859 276.388 177.706C277.121 179.023 278.838 183.774 278.838 183.774L280.166 184.586V186.109L279.33 188.227L279.914 191.661L280.796 192.783Z" fill="#5B68B7"/>
<path d="M280.796 192.784C280.796 192.784 279.765 194.787 278.884 195.635C278.002 196.482 270.527 201.759 270.527 201.759L270.183 201.965V199.035C270.183 191.811 265.077 188.903 258.781 192.532C253.698 195.463 249.393 201.771 247.916 207.896C247.561 209.361 247.378 210.815 247.378 212.2V216.081L246.417 216.677L185.58 251.8V247.873C185.58 246.099 185.271 244.588 184.71 243.374C183.004 239.619 178.929 238.634 174.178 241.382C167.881 245.023 167.469 249.064 167.469 256.288V258.772L156.96 263.42L154.75 259.241L155.013 258.383L155.414 257.089V255.406L154.75 255.326V253.174C154.75 253.174 157.83 251.17 158.173 250.472C158.516 249.774 164.332 236.482 165.214 235.635C166.496 234.41 185.992 226.099 195.048 221.015C204.516 215.715 240.704 196.734 253.789 190.506C268.741 183.396 268.741 189.017 271.992 191.216C272.278 191.41 279.319 188.228 279.319 188.228L279.903 191.662L280.784 192.784H280.796Z" fill="#5B68B7"/>
<path d="M170.526 237.706C165.374 241.633 166.737 242.801 166.588 251.547C172.861 240.443 169.885 242.045 175.723 240.202C181.562 238.359 185.729 240.065 185.729 240.065C185.729 240.065 183.623 228.055 170.526 237.695V237.706Z" fill="#5B68B7"/>
<path d="M247.917 207.895C247.562 209.361 247.379 210.815 247.379 212.2V216.081L246.417 216.676L185.581 251.8V247.873C185.581 246.098 185.272 244.587 184.711 243.374C185.02 241.885 185.203 240.958 185.203 240.958C185.203 240.958 185.386 240.626 185.718 240.077C186.92 238.062 190.103 233.07 193.744 230.082C198.38 226.27 239.205 205.4 242.216 204.117C244.402 203.19 245.902 201.175 247.15 204.77C247.413 205.537 247.665 206.556 247.917 207.895Z" fill="#293896"/>
<path d="M200.44 233.436L191.029 242.16L194.338 241.679L242.169 215.199C242.169 215.199 237.544 215.004 234.693 216.584C231.843 218.164 200.44 233.425 200.44 233.425V233.436Z" fill="#293896"/>
<path d="M185.58 251.811V247.884C185.58 246.11 185.271 244.598 184.71 243.385C183.004 239.63 178.929 238.645 174.178 241.393C167.881 245.034 167.469 249.075 167.469 256.299V258.783L156.96 263.431L154.75 259.252L156.994 260.386L165.603 255.554C166.381 247.483 167.332 243.087 174.178 239.126C179.101 236.287 183.405 236.859 185.729 240.076C186.885 241.679 187.549 243.934 187.549 246.751V247.953L245.421 215.52V213.333C245.421 210.586 246.05 207.632 247.161 204.77C249.45 198.805 253.801 193.161 258.792 190.288C266.176 186.029 272.152 189.441 272.152 197.912L272.393 198.611L280.796 192.783C280.796 192.783 279.765 194.787 278.884 195.634C278.002 196.481 270.527 201.759 270.527 201.759L270.183 201.965V199.034C270.183 191.81 265.077 188.902 258.781 192.532C253.698 195.462 249.393 201.77 247.916 207.895C247.561 209.361 247.378 210.815 247.378 212.2V216.081L246.417 216.676L185.58 251.799V251.811Z" fill="#0E1A68"/>
<path d="M176.753 226.9C193.422 218.13 243.405 192.372 243.405 192.372C243.405 192.372 262.455 182.274 265.512 182.068C268.568 181.862 272.804 184.964 273.548 185.422C274.281 185.88 278.837 183.785 278.837 183.785C278.837 183.785 277.12 179.034 276.387 177.718C273.205 173.871 248.511 186.945 245.569 188.078C243.897 187.975 234.189 187.059 226.725 188.742C225.465 189.029 223.783 188.948 213.044 194.753C202.306 200.557 191.853 207.827 189.106 210.151C186.358 212.475 170.411 226.407 167.125 229.716C163.839 233.024 162.649 235.188 162.649 235.188C162.649 235.188 161.962 234.925 160.863 235.921C160.451 236.837 160.279 237.512 160.256 237.569L160.359 238.256C171.281 228.331 164.297 233.448 176.753 226.888V226.9Z" fill="white"/>
<path d="M184.149 248.709C184.149 255.028 184.378 257.97 178.871 261.142C173.365 264.324 168.9 261.771 168.9 255.463C168.9 249.155 168.671 246.202 174.177 243.03C179.684 239.848 184.149 242.401 184.149 248.709Z" fill="#0E1A68"/>
<path d="M181.906 250.014C181.906 254.914 183.143 256.116 178.872 258.577C174.602 261.038 171.145 259.069 171.145 254.169C171.145 249.27 169.908 248.068 174.179 245.606C178.449 243.145 181.906 245.114 181.906 250.014Z" fill="#293896"/>
<path d="M268.752 199.87C268.752 206.189 264.287 213.883 258.78 217.065C253.273 220.248 248.809 217.695 248.809 211.387C248.809 205.079 253.273 197.374 258.78 194.191C264.287 191.009 268.752 193.562 268.752 199.87Z" fill="#0E1A68"/>
<path d="M266.508 201.164C266.508 206.064 263.051 212.029 258.78 214.49C254.51 216.951 251.053 214.982 251.053 210.082C251.053 205.182 254.51 199.218 258.78 196.757C263.051 194.295 266.508 196.264 266.508 201.164Z" fill="#293896"/>
<path d="M188.213 243.236L188.099 243.122C187.503 242.561 180.875 234.627 180.577 234.272L176.296 228.33L176.238 228.25L176.524 226.854L179.993 220.511L180.028 220.454L236.731 190.585L236.857 190.517L240.956 193.344L242.73 195.955L242.764 196.058C242.764 196.058 243.486 201.518 243.783 203.648C244.081 205.789 242.902 215.588 242.856 216.012V216.126L242.741 216.184C242.284 216.447 196.296 242.023 193.331 243.683C192.335 244.243 191.499 244.45 190.812 244.45C189.45 244.45 188.637 243.648 188.213 243.236ZM243.325 203.716C243.051 201.702 242.398 196.744 242.318 196.172L240.669 193.699L236.834 191.055L180.383 220.786L176.982 226.968L176.742 228.124L180.955 233.974C181.024 234.055 187.858 242.229 188.431 242.767L188.545 242.881C189.163 243.488 190.446 244.759 193.102 243.259C195.987 241.633 239.948 217.191 242.409 215.817C242.547 214.673 243.6 205.651 243.325 203.694V203.716Z" fill="#5B68B7"/>
<path d="M267.492 181.518L274.075 178.267C274.075 178.267 275.552 178.644 276.204 180.03C276.868 181.415 277.418 183.808 277.418 183.808C277.418 183.808 273.709 185.239 273.594 185.044C273.48 184.849 268.259 181.919 268.259 181.919L267.492 181.518Z" fill="#293896"/>
<path d="M157.921 241.325L160.348 238.944L164.779 235.395L163.702 238.062L160.714 243.534L157.612 246.305L157.143 246.808L157.921 241.325Z" fill="#0E1A68"/>
<path d="M165.225 255.337C165.225 255.337 156.857 260.031 156.319 260.111C155.781 260.202 154.762 258.771 154.762 258.771L155.025 258.405L157.899 257.466L160.577 255.783L161.367 256.173L165.237 255.348L165.225 255.337Z" fill="#5B68B7"/>
<path d="M280.154 184.598C280.154 184.598 278.46 185.995 276.308 187.014C274.155 188.032 273.045 186.647 273.045 186.647L278.826 183.785L280.154 184.598Z" fill="#293896"/>
<path d="M156.96 263.43L161.138 267.311L196.513 287.735L203.955 290.562L204.871 282.732L154.75 259.263L156.96 263.43Z" fill="#0E1A68"/>
<path d="M203.955 290.562C203.955 290.562 199.215 289.75 194.636 288.055C190.057 286.361 165.088 271.684 162.317 269.955C156.376 265.468 154.75 259.263 154.75 259.263L201.997 287.803L203.943 290.562H203.955Z" fill="#293896"/>
<path d="M154.75 252.429V255.337L155.414 255.417V257.111L154.75 259.263L201.997 287.804L204.493 284.427L201.745 279.55L154.75 252.429Z" fill="#5B68B7"/>
<path d="M154.75 252.429L154.486 253.928L154.738 259.263C154.738 259.263 155.574 262.526 158.39 265.113C161.424 267.895 191.51 285.159 194.819 286.144C198.207 287.151 201.997 287.815 201.997 287.815L198.505 283.946L159.867 261.633L154.75 252.44V252.429Z" fill="#5B68B7"/>
<path d="M167.127 229.716L189.108 210.162L231.341 234.547L221.415 254.707L216.252 258.451L167.127 229.716Z" fill="white"/>
<path d="M203.257 275.817L156.262 248.685L157.922 241.324L159.914 237.866L205.386 264.403L203.257 275.817Z" fill="white"/>
<path d="M156.261 248.686L154.75 252.429L201.745 279.55L203.256 275.818L156.261 248.686Z" fill="white"/>
<path d="M154.75 252.429V253.184L201.745 280.317V279.55L154.75 252.429Z" fill="white"/>
<path d="M201.746 280.316C200.533 280.488 196.56 279.71 191.042 277.088C184.665 274.054 158.586 258.988 156.285 257.065C153.56 254.787 154.762 252.417 154.762 252.417L201.746 280.305V280.316Z" fill="white"/>
<path d="M203.257 275.818C203.257 275.818 198.746 276.401 190.984 272.956C177.681 267.048 160.703 256.493 157.887 254.238C155.162 252.062 156.273 248.697 156.273 248.697L156.868 246.27L187.664 259.481L203.863 273.391L203.268 275.818H203.257Z" fill="#5B68B7"/>
<path d="M204.127 268.32C204.127 268.32 202.146 268.136 194.522 264.404C183.818 259.172 163.589 246.797 160.681 244.645C156.937 241.863 157.922 241.325 157.922 241.325L159.524 237.661L188.683 251.834L204.883 265.744L204.138 268.308L204.127 268.32Z" fill="white"/>
<path d="M245.559 188.09L294.26 216.195L231.34 234.547L189.107 210.162L210.699 196.848L222.594 190.517L237.557 189.166L245.559 188.09Z" fill="white"/>
<path d="M276.377 177.717L324.22 205.342L294.248 216.195L245.559 188.078C245.559 188.078 272.622 175.542 276.377 177.717Z" fill="white"/>
<path d="M245.559 188.09L226.715 188.754L271.821 214.799L295.656 215.554C295.656 215.554 295.553 215.371 295.37 215.051C295.748 214.432 295.428 213.94 295.084 213.356C294.042 211.616 291.97 209.487 291.089 208.765C285.845 204.495 283.441 201.702 278.473 198.714C270.195 193.745 259.606 190.918 255.313 189.509C254.328 189.189 252.038 188.674 249.921 188.41C247.642 188.124 245.559 188.09 245.559 188.09Z" fill="#293896"/>
<path d="M243.314 196.309C245.387 196.172 247.825 196.928 249.119 197.431C249.909 197.74 255.587 201.255 256.491 201.942C257.27 202.537 255.392 203.041 254.74 203.041C253.446 202.228 252.187 201.45 250.996 200.728C248.329 199.126 245.741 197.649 243.314 196.309Z" fill="#0E1A68"/>
<path d="M278.473 198.713C283.441 201.69 285.834 204.495 291.089 208.765C291.97 209.486 294.042 211.616 295.084 213.356C295.439 213.94 295.76 214.432 295.37 215.05C295.462 215.222 295.542 215.348 295.588 215.428C293.081 215.348 288.433 213.756 280.259 211.547C277.671 208.891 271.879 205.571 265.616 201.564C259.354 197.546 247.391 192.6 247.391 192.279C247.391 191.959 249.921 188.398 249.921 188.398C252.039 188.662 254.328 189.177 255.313 189.497C259.606 190.906 270.196 193.733 278.473 198.702V198.713Z" fill="#5B68B7"/>
<path d="M268.81 201.427L263.818 202.068L283.922 214.386L280.968 209.338L268.81 201.427Z" fill="#5B68B7"/>
<path d="M232.908 189.326C231.373 189.452 229.954 189.635 228.66 189.876L237.887 195.211C241.322 193.447 243.394 192.371 243.394 192.371L244.722 190.78C244.722 190.78 240.635 188.708 232.908 189.326Z" fill="#0E1A68"/>
<path d="M296.058 215.554L295.096 214.845C295.096 214.845 289.876 212.166 279.526 211.776C269.189 211.387 263.121 213.448 263.121 213.448L270.551 217.501L295.657 220.214L296.058 215.554Z" fill="white"/>
<path d="M159.41 237.867L205.375 264.404L205.478 264.347L211.179 263.454L216.228 258.451L167.103 229.716L165.111 231.261C165.111 231.261 160.085 236.665 159.479 237.707C159.444 237.764 159.421 237.821 159.398 237.867H159.41Z" fill="white"/>
<path d="M328.639 220.408C328.639 220.408 328.456 222.904 327.574 223.751C326.693 224.598 320.064 230.368 320.064 230.368L319.721 230.574V227.643C319.721 220.419 314.615 217.511 308.318 221.141C303.235 224.071 298.93 230.379 297.454 236.504C297.099 237.97 296.915 239.423 296.915 240.809V244.69L295.954 245.285L235.118 280.408V276.482C235.118 274.707 234.808 273.196 234.248 271.982C232.542 268.227 228.466 267.243 223.715 269.99C217.418 273.631 212.313 282.435 212.313 289.659V292.143L203.944 290.563L201.998 287.804V285.526L202.398 284.232V282.549L201.734 282.469V279.561L203.246 275.818C203.246 275.818 203.497 271.444 203.692 270.242C203.818 269.418 204.402 267.22 204.871 265.766C205.089 265.079 205.283 264.564 205.386 264.427C205.409 264.392 205.455 264.346 205.535 264.278C206.634 263.27 211.351 263.316 211.351 263.316C211.351 263.316 213.114 261.622 216.4 258.313C219.685 255.005 228.604 236.87 231.351 234.546C234.099 232.234 244.54 224.964 255.289 219.149C266.028 213.344 267.699 213.424 268.97 213.138C276.435 211.444 292.599 216.092 294.271 216.195C297.213 215.061 321.049 201.495 324.243 205.342C324.975 206.658 326.693 211.409 326.693 211.409L328.021 212.222V213.745L327.654 216.206L327.78 219.297L328.662 220.419L328.639 220.408Z" fill="white"/>
<path d="M328.639 220.407C328.639 220.407 328.456 222.903 327.574 223.75C326.693 224.598 320.064 230.367 320.064 230.367L319.721 230.574V227.643C319.721 220.419 314.615 217.511 308.318 221.14C303.235 224.071 298.93 230.379 297.454 236.504C297.099 237.969 296.915 239.423 296.915 240.808V244.689L295.954 245.285L235.118 280.408V276.481C235.118 274.707 234.808 273.196 234.248 271.982C232.542 268.227 228.466 267.242 223.715 269.99C217.418 273.631 212.313 282.434 212.313 289.658V292.143L203.944 290.563L201.998 287.804V285.525L202.398 284.232V282.549L201.734 282.469V280.316C201.734 280.316 205.02 280.385 207.195 276.527C210.195 271.192 212.862 267.826 219.09 263.98C220.132 263.339 235.129 254.936 244.585 249.635C254.053 244.334 290.241 225.353 303.327 219.125C318.278 212.016 320.121 218.061 321.987 220.19C322.216 220.442 327.608 216.217 327.608 216.217L327.734 219.308L328.616 220.43L328.639 220.407Z" fill="#5B68B7"/>
<path d="M220.075 266.315C214.924 270.242 211.592 276.161 211.443 284.919C217.717 273.814 219.434 270.654 225.273 268.822C231.112 266.979 235.279 268.685 235.279 268.685C235.279 268.685 233.172 256.676 220.075 266.315Z" fill="white"/>
<path d="M297.466 236.504C297.111 237.97 296.928 239.424 296.928 240.809V244.69L295.966 245.285L235.13 280.409V276.482C235.13 274.707 234.821 273.196 234.26 271.983C234.569 270.494 234.752 269.567 234.752 269.567C234.752 269.567 235.462 269.304 235.267 268.686C233.893 264.473 238.851 260.992 243.292 258.691C248.616 255.921 288.754 234.009 291.765 232.726C293.951 231.799 295.863 231.788 296.699 233.379C297.077 234.1 297.214 235.165 297.466 236.504Z" fill="#293896"/>
<path d="M249.989 262.045L240.578 270.768L243.887 270.287L291.718 243.807C291.718 243.807 287.093 243.613 284.242 245.193C281.391 246.773 249.989 262.033 249.989 262.033V262.045Z" fill="#5B68B7"/>
<path d="M235.13 280.409V276.482C235.13 274.707 234.821 273.196 234.26 271.983C232.554 268.228 228.478 267.243 223.727 269.991C217.431 273.631 212.325 282.435 212.325 289.659V292.143L203.956 290.563L202.01 287.804L203.99 287.518L210.459 288.915C211.237 280.844 216.881 271.685 223.727 267.735C228.65 264.896 232.955 265.469 235.279 268.686C236.435 270.288 237.099 272.544 237.099 275.36V276.562L294.97 244.129V241.942C294.97 239.195 295.6 236.241 296.71 233.368C299 227.403 303.35 221.759 308.342 218.885C315.726 214.627 321.702 218.038 321.702 226.51L321.942 227.208C328.182 223.774 328.651 220.397 328.651 220.397C328.651 220.397 328.651 222.251 328.193 223.385C326.819 226.796 320.088 230.345 320.088 230.345L319.744 230.551V227.62C319.744 220.397 314.638 217.489 308.342 221.118C303.259 224.049 298.954 230.357 297.477 236.481C297.122 237.947 296.939 239.401 296.939 240.786V244.667L295.977 245.262L235.141 280.386L235.13 280.409Z" fill="#5B68B7"/>
<path d="M226.302 255.497C242.971 246.727 292.954 220.969 292.954 220.969C292.954 220.969 312.004 210.871 315.061 210.665C318.118 210.459 322.354 213.561 323.098 214.019C323.83 214.477 326.692 211.398 326.692 211.398C326.692 211.398 324.975 206.647 324.243 205.33C321.06 201.484 297.213 215.05 294.271 216.183C292.599 216.08 281.208 210.551 268.97 213.126C267.802 213.367 266.028 213.333 255.289 219.137C244.551 224.941 234.099 232.211 231.351 234.535C228.603 236.859 219.685 254.993 216.4 258.301C213.114 261.61 211.351 263.304 211.351 263.304C211.351 263.304 206.646 263.259 205.535 264.266C205.123 265.182 204.894 265.708 204.871 265.754C204.871 265.754 213.4 262.285 226.302 255.497Z" fill="#5B68B7"/>
<path d="M213.756 288.823C213.756 295.142 218.221 297.683 223.727 294.501C229.234 291.318 233.699 283.625 233.699 277.305C233.699 270.986 229.234 268.445 223.727 271.627C218.221 274.81 213.756 282.503 213.756 288.823Z" fill="#0E1A68"/>
<path d="M213.756 288.823C213.756 295.142 218.221 297.683 223.727 294.501C229.234 291.318 233.699 283.625 233.699 277.305C233.699 270.986 229.234 268.445 223.727 271.627C218.221 274.81 213.756 282.503 213.756 288.823Z" fill="#0E1A68"/>
<path d="M214.385 288.708C214.385 294.787 218.678 297.237 223.978 294.169C229.279 291.112 233.572 283.705 233.572 277.626C233.572 271.547 229.279 269.097 223.978 272.154C218.678 275.21 214.385 282.618 214.385 288.697V288.708Z" fill="#0E1A68"/>
<path d="M215.736 287.953C215.736 293.127 219.388 295.211 223.899 292.612C228.41 290.013 232.062 283.705 232.062 278.531C232.062 273.356 228.41 271.273 223.899 273.871C219.388 276.47 215.736 282.778 215.736 287.953Z" fill="#5B68B7"/>
<path d="M215.988 287.415C215.988 292.315 219.457 294.295 223.727 291.823C227.998 289.35 231.466 283.374 231.466 278.474C231.466 273.574 227.998 271.593 223.727 274.066C219.457 276.539 215.988 282.515 215.988 287.415Z" fill="#293896"/>
<path d="M230.917 279.962C230.597 282.778 229.177 285.995 226.956 288.548C224.735 291.101 222.216 292.383 220.19 292.257C219.297 292.2 218.496 291.868 217.877 291.239C217.671 291.044 217.488 290.815 217.328 290.552C217.294 290.494 217.259 290.449 217.236 290.403C217.122 290.208 217.019 290.014 216.95 289.796C216.836 289.521 216.744 289.224 216.675 288.915C216.549 288.365 216.492 287.77 216.492 287.14C216.492 286.854 216.504 286.568 216.527 286.27C216.527 286.121 216.549 285.972 216.572 285.823C216.584 285.72 216.595 285.629 216.607 285.526C216.618 285.434 216.63 285.343 216.652 285.251C216.698 284.976 216.756 284.69 216.824 284.404C216.859 284.266 216.893 284.129 216.927 283.992C216.95 283.877 216.985 283.763 217.03 283.648C217.076 283.488 217.133 283.305 217.191 283.145C217.225 283.019 217.271 282.893 217.317 282.778C217.511 282.24 217.729 281.714 217.992 281.187C218.049 281.072 218.095 280.969 218.152 280.866C218.335 280.511 218.53 280.157 218.736 279.802C218.793 279.71 218.839 279.63 218.896 279.538C218.999 279.378 219.102 279.218 219.205 279.069C219.606 278.474 220.041 277.901 220.511 277.352C220.751 277.077 220.991 276.825 221.232 276.585C221.346 276.47 221.461 276.356 221.575 276.241C221.61 276.207 221.644 276.173 221.678 276.138C221.77 276.047 221.873 275.966 221.965 275.886C223.121 274.89 224.3 274.215 225.41 273.871C227.368 273.276 229.131 273.734 230.139 275.337C230.173 275.383 230.207 275.44 230.23 275.486C230.425 275.806 230.574 276.173 230.688 276.55C230.997 277.546 231.066 278.714 230.917 279.951V279.962Z" fill="#5B68B7"/>
<path d="M221.346 277.615L221.278 279.79C220.465 279.722 219.652 279.642 218.896 279.55C219 279.39 219.103 279.23 219.206 279.081C219.606 278.485 220.041 277.913 220.511 277.363C220.751 277.089 220.991 276.837 221.232 276.596C221.346 276.482 221.461 276.367 221.575 276.253C221.61 276.219 221.644 276.184 221.678 276.15C221.77 276.058 221.873 275.978 221.965 275.898C223.121 274.902 224.3 274.227 225.411 273.883C227.368 273.288 229.131 273.746 230.139 275.349C224.518 273.425 221.358 277.604 221.358 277.604L221.346 277.615Z" fill="#BBD2E9"/>
<path d="M230.448 279.927C230.448 279.927 228.571 282.411 226.648 283.064C224.724 283.717 220.992 288.227 220.992 288.227L221.278 279.778C225.686 280.11 230.448 279.927 230.448 279.927Z" fill="#BBD2E9"/>
<path d="M226.589 278.473C226.315 280.889 225.101 283.659 223.189 285.846C222.136 287.059 220.991 287.941 219.903 288.456C219.011 288.891 218.163 289.074 217.385 289.028C217.328 289.028 217.27 289.028 217.202 289.005C217.019 288.994 216.835 288.96 216.664 288.902C216.538 288.353 216.48 287.758 216.48 287.128C216.48 286.842 216.492 286.556 216.515 286.258C216.515 286.109 216.538 285.96 216.561 285.811C216.572 285.708 216.583 285.617 216.595 285.514C216.606 285.422 216.618 285.331 216.641 285.239C216.686 284.964 216.744 284.678 216.812 284.392C216.847 284.254 216.881 284.117 216.916 283.98C216.938 283.865 216.973 283.751 217.019 283.636C217.064 283.476 217.122 283.293 217.179 283.133C217.213 283.007 217.259 282.881 217.305 282.766C217.499 282.228 217.717 281.701 217.98 281.175C218.037 281.06 218.083 280.957 218.14 280.854C218.324 280.499 218.518 280.144 218.724 279.79C218.873 279.549 219.033 279.297 219.194 279.057C219.594 278.462 220.029 277.889 220.499 277.34C220.739 277.065 220.98 276.813 221.22 276.573C221.334 276.458 221.449 276.344 221.564 276.229C221.598 276.195 221.632 276.16 221.667 276.126C221.758 276.035 221.861 275.954 221.953 275.874C223.109 274.878 224.288 274.203 225.399 273.859C225.616 274.077 225.811 274.329 225.994 274.626C226.154 274.901 226.28 275.199 226.383 275.531C226.521 276 226.612 276.515 226.635 277.065C226.658 277.511 226.635 277.969 226.578 278.45L226.589 278.473Z" fill="#0E1A68"/>
<path d="M221.015 282.538L219.698 281.771L218.736 279.802C218.885 279.562 219.045 279.31 219.206 279.069C219.606 278.474 220.041 277.902 220.511 277.352C220.751 277.077 220.992 276.826 221.232 276.585C221.347 276.471 221.461 276.356 221.575 276.242C221.61 276.207 221.644 276.173 221.679 276.139C221.942 276.287 222.148 276.425 222.159 276.436L220.499 278.337L221.015 282.515V282.538Z" fill="#293896"/>
<path d="M221.015 282.538L221.198 284.233L219.893 288.457L219.309 290.357C219.115 290.77 219.698 291.72 219.424 291.674C218.989 291.582 217.901 290.941 217.317 290.552C217.283 290.495 217.249 290.449 217.226 290.403C217.111 290.209 217.008 290.014 216.939 289.796C216.951 289.693 216.985 289.602 217.043 289.487L217.203 289.007L219.584 281.989L219.699 281.76L221.015 282.527V282.538Z" fill="#293896"/>
<path d="M228.995 276.229C228.88 276.172 228.731 276.184 228.571 276.275L222.24 278.954L222.068 279.057V282.457L223.465 281.644L228.708 279.584C229.04 279.401 229.304 278.943 229.327 278.565C229.361 277.821 230.506 277.66 230.368 277.019C230.345 276.893 229.086 276.275 229.006 276.229H228.995Z" fill="#293896"/>
<path d="M222.332 285.228L219.584 279.572C219.447 279.344 219.527 278.908 219.779 278.565C220.042 278.21 220.317 277.867 220.603 277.535C220.889 277.203 221.187 276.894 221.485 276.607C221.771 276.333 222.091 276.298 222.217 276.539L224.965 282.194L222.309 285.228H222.332Z" fill="white"/>
<path d="M223.373 283.224V279.824L223.556 279.721L229.887 277.042C230.173 276.882 230.425 276.962 230.482 277.248C230.62 277.89 230.677 278.599 230.643 279.332C230.62 279.721 230.357 280.168 230.025 280.351L224.781 282.412L223.373 283.224Z" fill="white"/>
<path d="M218.381 291.124C218.198 290.975 218.187 290.62 218.358 290.254L220.9 282.755L221.003 282.526L223.361 283.213L222.514 284.988L220.625 291.113C220.43 291.525 220.064 291.799 219.789 291.754C219.263 291.651 218.793 291.433 218.37 291.113L218.381 291.124Z" fill="white"/>
<path d="M219.801 290.929C219.801 290.929 219.87 290.849 219.904 290.781L221.839 284.553L224.255 281.782L229.624 279.653C229.704 279.607 229.819 279.412 229.83 279.298C229.853 278.863 229.83 278.439 229.796 278.05L223.259 280.844L221.805 277.443C221.61 277.649 221.404 277.855 221.221 278.073C220.946 278.382 220.683 278.714 220.431 279.058C220.374 279.138 220.339 279.206 220.328 279.264L221.816 282.732L219.08 290.632C219.298 290.769 219.527 290.872 219.778 290.929H219.801Z" fill="#293896"/>
<path d="M298.357 239.985C298.357 246.304 302.822 248.846 308.329 245.663C313.836 242.48 318.3 234.787 318.3 228.468C318.3 222.148 313.836 219.607 308.329 222.789C302.822 225.972 298.357 233.665 298.357 239.985Z" fill="#0E1A68"/>
<path d="M298.357 239.985C298.357 246.304 302.822 248.846 308.329 245.663C313.836 242.48 318.3 234.787 318.3 228.468C318.3 222.148 313.836 219.607 308.329 222.789C302.822 225.972 298.357 233.665 298.357 239.985Z" fill="#0E1A68"/>
<path d="M298.977 239.869C298.977 245.948 303.27 248.398 308.57 245.342C313.871 242.285 318.164 234.878 318.164 228.799C318.164 222.72 313.871 220.27 308.57 223.327C303.27 226.383 298.977 233.79 298.977 239.869Z" fill="#0E1A68"/>
<path d="M300.326 239.114C300.326 244.289 303.978 246.372 308.489 243.773C312.999 241.175 316.651 234.867 316.651 229.692C316.651 224.517 312.999 222.434 308.489 225.032C303.978 227.631 300.326 233.939 300.326 239.114Z" fill="#5B68B7"/>
<path d="M300.59 238.576C300.59 243.476 304.059 245.457 308.329 242.984C312.599 240.511 316.068 234.535 316.068 229.635C316.068 224.735 312.599 222.755 308.329 225.227C304.059 227.7 300.59 233.676 300.59 238.576Z" fill="#293896"/>
<path d="M315.507 231.124C315.186 233.94 313.767 237.157 311.546 239.71C309.325 242.263 306.806 243.545 304.78 243.42C303.887 243.362 303.086 243.03 302.467 242.401C302.261 242.206 302.078 241.977 301.918 241.714C301.883 241.656 301.849 241.611 301.826 241.565C301.712 241.37 301.609 241.176 301.54 240.958C301.426 240.683 301.334 240.386 301.265 240.077C301.139 239.527 301.082 238.932 301.082 238.302C301.082 238.016 301.094 237.73 301.116 237.432C301.116 237.283 301.139 237.134 301.162 236.986C301.174 236.882 301.185 236.791 301.197 236.688C301.208 236.596 301.219 236.505 301.242 236.413C301.288 236.138 301.345 235.852 301.414 235.566C301.448 235.429 301.483 235.291 301.517 235.154C301.54 235.039 301.574 234.925 301.62 234.81C301.666 234.65 301.723 234.467 301.78 234.307C301.815 234.181 301.861 234.055 301.906 233.94C302.101 233.402 302.318 232.876 302.582 232.349C302.639 232.234 302.685 232.131 302.742 232.028C302.925 231.674 303.12 231.319 303.326 230.964C303.383 230.872 303.429 230.792 303.486 230.7C303.589 230.54 303.692 230.38 303.795 230.231C304.196 229.636 304.631 229.063 305.1 228.514C305.341 228.239 305.581 227.987 305.822 227.747C305.936 227.632 306.051 227.518 306.165 227.403C306.199 227.369 306.234 227.335 306.268 227.3C306.36 227.209 306.463 227.129 306.554 227.048C307.711 226.052 308.89 225.377 310 225.034C311.958 224.438 313.721 224.896 314.728 226.499C314.763 226.545 314.797 226.602 314.82 226.648C315.015 226.968 315.163 227.335 315.278 227.712C315.587 228.708 315.656 229.876 315.507 231.113V231.124Z" fill="#5B68B7"/>
<path d="M305.948 228.766L305.879 230.941C305.066 230.872 304.254 230.792 303.498 230.7C303.601 230.54 303.704 230.38 303.807 230.231C304.208 229.636 304.643 229.063 305.112 228.514C305.353 228.239 305.593 227.987 305.834 227.747C305.948 227.632 306.062 227.518 306.177 227.403C306.211 227.369 306.246 227.335 306.28 227.3C306.372 227.209 306.475 227.129 306.566 227.048C307.723 226.052 308.902 225.377 310.012 225.034C311.97 224.438 313.733 224.896 314.74 226.499C309.119 224.576 305.959 228.754 305.959 228.754L305.948 228.766Z" fill="#BBD2E9"/>
<path d="M315.048 231.088C315.048 231.088 313.171 233.573 311.247 234.225C309.324 234.878 305.592 239.388 305.592 239.388L305.878 230.939C310.286 231.271 315.048 231.088 315.048 231.088Z" fill="#BBD2E9"/>
<path d="M311.179 229.635C310.904 232.051 309.691 234.821 307.779 237.008C306.726 238.221 305.581 239.103 304.493 239.618C303.6 240.053 302.753 240.236 301.975 240.19C301.918 240.19 301.86 240.19 301.792 240.168C301.608 240.156 301.425 240.122 301.254 240.065C301.128 239.515 301.07 238.92 301.07 238.29C301.07 238.004 301.082 237.718 301.105 237.42C301.105 237.271 301.128 237.122 301.15 236.974C301.162 236.87 301.173 236.779 301.185 236.676C301.196 236.584 301.208 236.493 301.231 236.401C301.276 236.126 301.334 235.84 301.402 235.554C301.437 235.417 301.471 235.279 301.505 235.142C301.528 235.027 301.563 234.913 301.608 234.798C301.654 234.638 301.711 234.455 301.769 234.295C301.803 234.169 301.849 234.043 301.895 233.928C302.089 233.39 302.307 232.864 302.57 232.337C302.627 232.222 302.673 232.119 302.73 232.016C302.914 231.661 303.108 231.307 303.314 230.952C303.463 230.711 303.623 230.459 303.784 230.219C304.184 229.624 304.619 229.051 305.089 228.502C305.329 228.227 305.57 227.975 305.81 227.735C305.924 227.62 306.039 227.506 306.153 227.391C306.188 227.357 306.222 227.323 306.256 227.288C306.348 227.197 306.451 227.117 306.543 227.036C307.699 226.04 308.878 225.365 309.989 225.021C310.206 225.239 310.401 225.491 310.572 225.789C310.733 226.063 310.859 226.361 310.962 226.693C311.099 227.162 311.191 227.677 311.214 228.227C311.236 228.673 311.214 229.131 311.156 229.612L311.179 229.635Z" fill="#0E1A68"/>
<path d="M305.616 233.688L304.288 232.921L303.326 230.952C303.475 230.711 303.635 230.459 303.796 230.219C304.196 229.624 304.631 229.051 305.101 228.502C305.341 228.227 305.581 227.975 305.822 227.735C305.936 227.62 306.051 227.506 306.165 227.391C306.2 227.357 306.234 227.322 306.268 227.288C306.532 227.437 306.738 227.574 306.749 227.586L305.089 229.486L305.604 233.665L305.616 233.688Z" fill="#293896"/>
<path d="M305.617 233.688L305.8 235.382L304.495 239.606L303.911 241.507C303.716 241.919 304.3 242.869 304.025 242.823C303.59 242.732 302.503 242.091 301.919 241.702C301.884 241.644 301.85 241.598 301.827 241.553C301.713 241.358 301.61 241.163 301.541 240.946C301.552 240.843 301.587 240.751 301.644 240.637L301.804 240.156L304.186 233.138L304.3 232.909L305.628 233.676L305.617 233.688Z" fill="#293896"/>
<path d="M313.594 227.38C313.48 227.322 313.331 227.334 313.171 227.426L306.84 230.104L306.668 230.207V233.608L308.065 232.795L313.308 230.734C313.64 230.551 313.903 230.093 313.926 229.715C313.961 228.971 315.105 228.811 314.968 228.17C314.945 228.044 313.686 227.426 313.606 227.38H313.594Z" fill="#5B68B7"/>
<path d="M306.933 236.378L304.186 230.723C304.048 230.494 304.128 230.059 304.38 229.715C304.644 229.361 304.918 229.017 305.205 228.685C305.491 228.353 305.788 228.044 306.086 227.758C306.372 227.483 306.693 227.449 306.819 227.689L309.566 233.345L306.91 236.378H306.933Z" fill="white"/>
<path d="M307.975 234.375V230.975L308.158 230.872L314.489 228.193C314.775 228.033 315.027 228.113 315.084 228.399C315.221 229.04 315.279 229.75 315.244 230.482C315.221 230.872 314.958 231.318 314.626 231.501L309.383 233.562L307.975 234.375Z" fill="white"/>
<path d="M302.983 242.274C302.8 242.126 302.788 241.771 302.96 241.404L305.501 233.906L305.604 233.677L307.963 234.364L307.116 236.138L305.227 242.263C305.032 242.675 304.666 242.95 304.391 242.904C303.864 242.801 303.395 242.584 302.971 242.263L302.983 242.274Z" fill="white"/>
<path d="M304.391 242.079C304.391 242.079 304.46 241.999 304.494 241.93L306.429 235.702L308.845 232.932L314.214 230.802C314.294 230.756 314.409 230.562 314.42 230.447C314.443 230.012 314.42 229.589 314.386 229.2L307.849 231.993L306.395 228.593C306.2 228.799 305.994 229.005 305.811 229.222C305.536 229.532 305.273 229.864 305.021 230.207C304.964 230.287 304.941 230.356 304.918 230.413L306.418 233.882L303.682 241.781C303.899 241.919 304.128 242.022 304.38 242.079H304.391Z" fill="#293896"/>
<path d="M236.549 267.964C236.343 267.643 236.183 267.391 236.091 267.3C233.069 264.003 230.298 262.846 230.264 262.846H230.23L225.925 256.859L225.891 256.813L226.165 255.474V255.439L231.351 250.116L288.021 220.259H288.055L292.943 220.843H293.023L293.905 223.796C293.905 223.854 294.351 229.303 294.351 231.444C294.351 234.191 292.348 244.174 292.256 244.598V244.655L292.199 244.678C291.73 244.941 245.742 270.517 242.788 272.177C242.399 272.394 242.01 272.497 241.632 272.497C239.457 272.497 237.465 269.406 236.526 267.964H236.549ZM294.134 231.455C294.134 229.326 293.688 223.876 293.688 223.854L292.852 221.083L288.112 220.499L231.523 250.311L226.406 255.565L226.154 256.779L230.39 262.652C230.71 262.789 233.378 264.003 236.263 267.162C236.366 267.266 236.515 267.517 236.744 267.861C237.808 269.509 240.293 273.356 242.697 272.005C245.616 270.368 290.345 245.491 292.062 244.529C292.222 243.728 294.145 234.1 294.145 231.478L294.134 231.455Z" fill="#5B68B7"/>
<path d="M263.418 260.637L263.956 258.885V258.851L263.143 255.863C263.189 255.428 263.945 248.879 263.945 247.082C263.945 245.285 262.903 240.133 262.857 239.927V239.893L260.407 235.016L260.201 235.119L262.628 239.984C262.697 240.293 263.704 245.296 263.704 247.082C263.704 248.868 262.903 255.783 262.903 255.852V255.874V255.897L263.704 258.885L263.189 260.58L263.407 260.648L263.418 260.637Z" fill="#5B68B7"/>
<path d="M293.424 217.774L292.955 220.98C292.955 220.98 242.971 246.739 226.303 255.508C226.303 255.508 229.76 239.091 230.493 237.901C231.226 236.721 233.927 233.94 241.689 228.742C249.451 223.544 259.343 218.381 261.106 217.534C262.869 216.687 269.303 213.699 274.168 213.722C285.422 213.779 293.424 217.786 293.424 217.786V217.774Z" fill="#0E1A68"/>
<path d="M228.283 252.875C245.65 243.785 286.086 222.938 291.661 220.053L291.879 218.61C289.52 217.614 282.789 215.141 274.145 215.096H274.088C269.795 215.096 263.99 217.672 261.701 218.771C259.617 219.778 249.898 224.895 242.456 229.887C234.087 235.497 232.118 237.935 231.695 238.599C231.271 239.526 229.737 246.121 228.283 252.875Z" fill="#293896"/>
<path d="M210.069 288.686C210.069 288.686 203.841 287.141 203.303 287.232C202.765 287.324 201.998 287.312 201.998 287.312V285.526L204.872 284.588L210.103 284.37L210.893 284.759L210.069 288.686Z" fill="#BBD2E9"/>
<path d="M327.997 212.223C327.997 212.223 327.997 214.604 325.845 215.623C323.692 216.642 322.582 215.257 322.582 215.257C324.219 215.28 326.669 211.41 326.669 211.41L327.997 212.223Z" fill="white"/>
<path d="M169.415 237.42C172.083 239.813 177.566 243.179 183.187 246.35C183.325 246.418 183.462 246.499 183.6 246.579C183.748 246.67 183.909 246.75 184.058 246.842C184.069 246.842 184.092 246.853 184.103 246.865C184.252 246.945 184.401 247.025 184.55 247.105C186.164 248.01 187.778 248.891 189.312 249.716C189.495 249.807 189.656 249.91 189.839 250.002C191.075 250.654 192.255 251.272 193.354 251.845C193.354 251.845 193.376 251.856 193.399 251.868C201.219 255.737 208.58 257.569 209.53 257.718C210.389 257.844 214.064 255.451 216.559 251.479C217.12 250.586 217.773 249.521 218.563 248.239C222.821 241.301 229.118 233.539 229.118 233.539L229.187 233.562C227.55 232.841 220.211 229.463 207.355 222.228C202.718 219.618 192.22 213.104 189.873 210.597C175.769 222.892 165.214 232.417 165.214 232.417C165.214 232.417 165.053 233.505 169.415 237.409V237.42Z" fill="#293896"/>
<path d="M176.754 226.9C181.539 224.381 189.084 220.454 197.395 216.138C194.487 214.249 191.82 212.383 190.423 211.124C189.198 212.235 188.557 213.013 188.248 213.505C187.515 214.684 176.754 226.888 176.754 226.888V226.9Z" fill="#0E1A68"/>
<path d="M192.976 248.136C190.114 246.579 188.351 245.606 187.24 244.999C189.186 246.087 191.144 247.151 192.976 248.136Z" fill="#293896"/>
<path d="M159.56 240.614C160.029 241.015 160.636 241.507 161.414 242.08C164.322 244.232 184.551 256.619 195.255 261.84C202.891 265.56 204.872 265.743 204.872 265.743L205.49 264.335L205.525 264.244L184.998 250.941L159.502 237.684C159.502 237.684 159.445 237.798 159.422 237.844C158.873 238.886 158.919 239.767 159.571 240.591L159.56 240.614Z" fill="white"/>
<path d="M267.929 212.543C267.929 212.543 257.007 204.06 253.115 201.816C249.222 199.573 239.972 194.249 237.533 192.818C232.164 189.67 226.715 188.754 226.715 188.754L222.078 190.78L257.751 213.7L267.929 212.543Z" fill="white"/>
<path d="M324.219 205.342C323.716 201.152 317.408 194.947 313.962 192.074C311.431 189.979 308.352 187.643 303.544 184.827C298.22 181.713 287.184 178.255 274.671 177.008C273.675 176.905 271.74 179.744 271.74 179.744L314.042 206.487L324.219 205.331V205.342Z" fill="white"/>
<path d="M249.921 188.398C249.921 188.398 247.081 188.353 237.888 188.444C228.913 188.536 226.864 189.303 226.864 189.303L226.715 188.753C226.715 188.753 236.984 187.643 245.559 188.089C248.341 187.872 249.921 188.41 249.921 188.41V188.398Z" fill="white"/>
<path d="M323.612 206.865C323.612 206.865 323.406 205.216 321.998 202.663C322.868 202.72 323.704 203.533 323.704 203.533C323.704 203.533 324.78 205.365 325.753 207.46C326.554 209.2 326.119 210.952 326.119 210.952C326.119 210.952 325.947 211.455 325.1 212.337C324.253 213.207 322.799 213.47 322.799 213.47C322.685 213.276 319.582 211.57 319.582 211.57L317.441 210.723C317.441 210.723 323.326 209.566 323.612 206.865Z" fill="#293896"/>
<path d="M195.553 261.988C201.998 264.587 213.092 262.881 216.343 260.958C219.594 259.034 207.734 267.071 205.387 267.037C203.051 267.002 195.553 261.988 195.553 261.988Z" fill="white"/>
<path d="M203.258 275.818C203.258 275.818 204.368 275.921 205.902 273.998C206.898 272.75 208.432 269.316 209.508 267.667C209.508 267.667 208.684 265.79 209.508 264.942C202.124 267.736 199.319 266.763 195.942 265.103C192.565 263.443 187.951 268.4 187.951 268.4L203.269 275.818H203.258Z" fill="#BBD2E9"/>
<path d="M186.233 268.056C187.378 268.056 188.648 266.9 188.889 266.671L198.185 266.957L198.643 263.351C198.757 262.504 199.272 261.771 200.051 261.393C201.161 260.844 203.073 260.008 205.855 259.081C209.656 257.821 211.511 255.635 211.522 255.612L211.339 255.463C211.339 255.463 209.507 257.615 205.775 258.863C202.982 259.79 201.058 260.638 199.936 261.187C199.101 261.599 198.528 262.401 198.402 263.328L197.967 266.717L188.786 266.43L188.751 266.465C188.751 266.465 186.897 268.285 185.695 267.701C182.134 265.972 171.121 259.607 167.355 256.986C166.45 256.23 166.141 253.196 166.141 253.162V253.127L166.107 253.093L160.348 247.094L159.524 244.186L159.959 241.141C159.993 241.015 160.016 240.866 160.028 240.706C160.085 240.248 160.234 238.84 165.523 232.589C166.004 232.028 168.408 233.288 169.804 234.226L169.873 234.272L169.942 234.226L174.246 231.227L174.109 231.032L169.873 233.986C169.266 233.585 166.095 231.559 165.351 232.429C160.577 238.073 159.902 239.836 159.81 240.672C159.787 240.821 159.776 240.958 159.741 241.084L159.295 244.186V244.209L160.176 247.22L165.923 253.208C165.969 253.597 166.29 256.367 167.229 257.146C171.018 259.767 182.043 266.156 185.615 267.884C185.821 267.987 186.027 268.022 186.244 268.022L186.233 268.056Z" fill="#5B68B7"/>
<path d="M188.844 266.557L189.954 269.877L199.353 273.998L203.841 273.391L204.482 272.762L209.496 267.667V264.942C209.496 264.942 201.757 267.278 197.796 266.248C194.373 265.366 190.309 262.847 189.267 262.172L188.844 266.557Z" fill="#0E1A68"/>
<path d="M156.308 248.48L157.739 251.307L162.937 254.833L166.028 253.185L166.52 248.937C165.593 248.342 161.185 245.537 159.193 244.049C158.117 243.248 157.842 242.378 157.728 242.114C157.43 243.213 156.343 247.289 156.297 248.468L156.308 248.48Z" fill="#0E1A68"/>
<path d="M189.278 262.171L166.531 248.948L165.592 251.753L189.782 265.926L189.278 262.171Z" fill="#0E1A68"/>
<path d="M193.228 265.228L162.432 247.323L161.939 247.919L193.743 266.545L193.228 265.228Z" fill="#293896"/>
<path d="M295.37 215.051C295.393 213.459 292.176 209.647 291.088 208.766C285.295 204.049 279.399 200.122 273.996 196.974C266.36 192.532 259.342 190.826 255.312 189.51C254.728 189.315 249.92 188.41 249.92 188.41C251.225 188.09 254.167 187.06 261.551 188.765C268.981 190.483 276.949 194.81 282.399 198.073C287.837 201.336 295.656 206.968 297.133 211.422C297.717 213.185 296.423 214.467 295.37 215.062V215.051Z" fill="#0E1A68"/>
<path d="M321.621 202.331C321.621 202.331 319.675 201.598 316.332 201.701C313.115 201.793 304.632 202.674 294.248 205.972C295.278 206.498 294.82 206.258 294.82 206.258C294.82 206.258 311.317 202.102 317.03 202.491C320.304 202.869 321.094 203.109 321.094 203.109L321.609 202.331H321.621Z" fill="white"/>
<path d="M288.649 179.961C288.649 179.961 285.387 179.824 281.036 182.079C276.686 184.334 267.493 190.013 267.493 190.013L266.943 189.852C266.943 189.852 278.174 182.926 281.277 181.438C284.379 179.95 287.837 179.744 288.638 179.972L288.649 179.961Z" fill="white"/>
<path d="M191.786 264.518C191.786 264.518 197.053 267.083 198.713 267.197C199.754 267.266 201.38 267.14 202.468 267.025V268.445L201.506 270.655C200.487 270.769 199.022 270.849 199.022 270.849L192.199 267.953L191.672 266.327L191.786 264.507V264.518Z" fill="#293896"/>
<path d="M158.517 244.541L163.943 248.308L163.748 249.784L162.672 250.826L158.356 247.678L158.059 246.212L158.517 244.541Z" fill="#293896"/>
<path d="M256.526 221.278C256.526 221.278 259.457 224.93 262.101 232.521C263.281 235.898 263.109 235.944 263.109 235.944L257.957 238.577C257.957 238.577 257.19 231.948 253.298 222.915C252.931 222.068 256.526 221.278 256.526 221.278Z" fill="#0E1A68"/>
<path d="M228.008 234.398C228.169 234.284 243.658 223.293 250.516 219.412C257.236 215.612 265.96 212.727 268.455 212.417L268.432 212.188C266.005 212.486 257.442 215.222 250.401 219.206C243.532 223.087 228.031 234.089 227.871 234.204L228.008 234.398Z" fill="#0E1A68"/>
<path d="M189.954 210.688C193.823 207.288 209.382 197.775 217.498 193.367C225.054 189.257 228.065 189.165 228.1 189.165V188.937C227.974 188.937 225.02 189.028 217.395 193.172C210.172 197.099 193.938 206.887 189.816 210.517L189.965 210.688H189.954Z" fill="#0E1A68"/>
<path d="M194.82 286.133C194.82 286.133 192.759 285.205 191.9 283.889C191.042 282.572 187.939 281.187 187.939 281.187C187.939 281.187 178.884 276.15 172.976 272.967C167.069 269.785 159.57 264.724 159.57 264.724C159.57 264.724 158.597 263.774 158.368 264.232C158.139 264.69 158.082 264.782 158.082 264.782C158.082 264.782 158.906 266.705 161.734 269.006C162.948 269.991 190.549 285.721 192.427 286.694C193.205 287.094 195.232 288.022 196.869 288.48C199.17 289.121 201.62 289.281 202.021 287.816C199.09 287.232 194.579 286.179 194.579 286.179L194.843 286.144L194.82 286.133Z" fill="#0E1A68"/>
<path d="M321.186 211.96C321.186 211.96 322.399 212.979 322.88 213.15C323.361 213.322 325.479 212.131 325.948 210.906C325.227 209.693 324.631 209.258 324.631 209.258C324.631 209.258 324.586 210.334 321.197 211.96H321.186Z" fill="white"/>
<path d="M323.613 206.865C323.613 206.865 323.407 205.216 321.999 202.663C322.217 202.675 322.434 202.743 322.629 202.823C322.789 202.938 322.904 203.029 322.904 203.029C322.904 203.029 324.724 206.498 325.044 207.551C325.365 208.605 325.285 209.544 325.285 209.544L323.877 207.826V208.41C323.877 208.41 323.945 208.673 322.755 209.601C321.564 210.54 320.408 211.043 320.408 211.043L319.32 210.208C321.072 209.635 323.442 208.547 323.613 206.865Z" fill="white"/>
<path d="M272.725 188.845L280.579 192.657C280.899 192.806 280.865 193.104 280.51 193.31L279.926 193.653C279.571 193.86 279.022 193.905 278.713 193.757L270.859 189.944C270.539 189.795 270.573 189.498 270.928 189.292L271.512 188.948C271.866 188.742 272.416 188.696 272.725 188.845Z" fill="#0E1A68"/>
<path d="M289.91 198.805L296.332 203.591C296.595 203.785 296.538 204.094 296.218 204.278L295.691 204.587C295.37 204.77 294.901 204.77 294.638 204.587L288.215 199.801C287.952 199.607 288.009 199.298 288.33 199.114L288.856 198.805C289.177 198.622 289.646 198.622 289.91 198.805Z" fill="#0E1A68"/>
<path d="M254.293 201.918C254.293 201.918 273.664 198.244 280.796 201.918C287.069 206.303 291.065 208.593 294.66 214.18C288.329 211.524 281.185 211.478 276.514 211.306C271.214 211.111 267.928 212.016 267.928 212.016C267.928 212.016 263.131 207.459 254.293 201.907V201.918Z" fill="#0E1A68"/>
<path d="M231.042 256.756C230.55 257.992 231.077 258.828 231.34 259.126C231.615 259.458 236.343 256.607 236.812 256.16C237.282 255.714 236.984 254.478 236.904 254.18C236.824 253.882 231.054 256.744 231.054 256.744L231.042 256.756Z" fill="#5B68B7"/>
<path d="M235.027 254.157L231.799 256.024C231.386 256.264 231.043 256.848 231.043 257.329V257.5C231.043 257.981 231.386 258.176 231.799 257.935L236.229 255.371C236.733 255.085 236.985 254.249 236.641 254.032C236.218 253.768 235.634 253.814 235.016 254.169L235.027 254.157Z" fill="#BBD2E9"/>
<path d="M232.336 256.665C232.336 256.928 232.153 257.237 231.924 257.363C231.695 257.489 231.512 257.386 231.512 257.134C231.512 256.882 231.695 256.562 231.924 256.436C232.153 256.31 232.336 256.413 232.336 256.665Z" fill="#0E1A68"/>
<path d="M265.285 237.844C264.792 239.08 265.319 239.916 265.582 240.213C265.857 240.545 270.585 237.695 271.055 237.248C271.524 236.802 271.226 235.565 271.146 235.268C271.066 234.97 265.296 237.832 265.296 237.832L265.285 237.844Z" fill="#5B68B7"/>
<path d="M269.257 235.245L266.029 237.111C265.617 237.352 265.273 237.936 265.273 238.416V238.588C265.273 239.069 265.617 239.264 266.029 239.023L270.459 236.459C270.963 236.173 271.215 235.337 270.872 235.119C270.448 234.856 269.864 234.902 269.246 235.257L269.257 235.245Z" fill="#BBD2E9"/>
<path d="M266.567 237.741C266.567 238.004 266.383 238.313 266.154 238.439C265.925 238.565 265.742 238.462 265.742 238.21C265.742 237.958 265.925 237.638 266.154 237.512C266.383 237.386 266.567 237.489 266.567 237.741Z" fill="#0E1A68"/>
<path d="M297.706 223.476C299.583 222.938 299.824 223.293 299.675 223.705C299.515 224.14 296.481 227.082 295.897 226.991C295.313 226.899 296.183 225.754 295.668 224.3C296.401 223.991 297.706 223.488 297.706 223.488V223.476Z" fill="#0E1A68"/>
<path d="M169.415 237.421C172.083 239.813 177.567 243.179 183.188 246.35C183.325 246.419 183.462 246.499 183.6 246.579C183.749 246.671 183.909 246.751 184.058 246.842C184.069 246.842 184.092 246.854 184.104 246.865C186.05 247.953 188.007 249.018 189.839 250.002C191.076 250.655 192.255 251.273 193.354 251.845C193.354 251.845 193.377 251.857 193.4 251.868C201.219 255.738 208.58 257.57 209.53 257.718C210.389 257.844 214.064 255.452 216.56 251.479C214.934 250.723 203.543 245.457 197.304 242.16C190.583 238.611 177.59 229.716 177.59 229.716L165.225 232.418C165.225 232.418 165.065 233.505 169.427 237.409L169.415 237.421Z" fill="#5B68B7"/>
<path d="M211.088 225.056C211.088 225.056 203.475 230.516 197.041 237.924C190.618 245.331 187.195 247.723 187.195 247.723C187.195 247.723 194.499 252.028 200.67 254.237C206.841 256.458 209.76 257.821 210.458 256.79C212.656 252.99 225.65 236.721 228.077 233.974C220.533 230.642 211.088 225.067 211.088 225.067V225.056Z" fill="#0E1A68"/>
<path d="M253.971 276.593L256.117 276.198L257.299 278.992L257.354 279.475L257.404 282.729C257.404 282.729 257.52 285.222 255.992 285.512C254.876 285.726 255.871 285.54 255.871 285.54C254.338 285.819 253.976 283.978 253.976 283.978L252.956 279.086C252.795 278.039 252.986 276.774 253.971 276.593Z" fill="white"/>
<path d="M254.896 278.362C254.529 279.217 255.283 280.351 255.957 280.729C256.193 280.866 255.64 282.548 255.731 283.348C255.821 284.186 256.545 284.131 256.716 283.994C256.851 283.884 257.244 281.194 257.364 280.515C257.766 278.263 257.103 277.798 256.429 277.409C255.756 277.025 255.268 277.502 254.896 278.356V278.362Z" fill="white"/>
<path d="M257.134 278.97C254.927 281.517 253.284 279.441 253.284 279.441C253.284 279.441 252.841 277.008 252.741 276.598C252.198 274.275 250.192 266.292 249.861 263.322C249.494 260.057 249.192 254.162 249.192 254.162C249.192 254.162 245.648 248.497 248.599 247.286C250.288 246.59 254.113 246.618 255.541 254.518C255.908 256.556 256.264 262.019 256.511 264.709C256.968 269.689 257.682 277.912 257.682 277.912C257.682 277.912 257.782 278.219 257.129 278.975L257.134 278.97Z" fill="#C5CDFF"/>
<path d="M244.638 252.265C244.638 252.265 239.33 256.38 238.617 258.495C237.903 260.609 237.903 278.974 239.944 280.305C241.984 281.642 252.329 284.393 254.918 281.237C257.506 278.081 256.079 260.609 254.345 256.829C252.611 253.049 252.108 250.994 252.108 250.994L244.644 252.271L244.638 252.265Z" fill="#C5CDFF"/>
<path d="M255.229 310.319L255.892 311.672C255.892 311.672 261.457 313.705 261.799 313.875C262.191 314.066 263.055 314.401 262.98 315.173C262.96 315.359 262.975 315.48 262.869 315.644C262.502 316.252 261.728 316.532 261.004 316.702C259.431 317.052 256.078 316.652 256.078 316.652C255.103 316.559 253.47 316.099 253.289 315.946C253.289 315.946 252.444 315.71 252.303 316.028C252.253 316.148 252.354 316.663 252.374 316.767L250.268 315.929C250.162 315.88 249.931 314.801 249.866 314.324L249.8 311.157L255.229 310.313V310.319Z" fill="#0E1A68"/>
<path d="M261.883 316.116C261.476 316.346 260.898 316.478 260.32 316.571C258.018 316.932 254.489 316.209 254.489 316.209C254.143 316.132 252.816 315.837 252.816 315.837C252.816 315.837 252.278 315.897 252.298 316.034C252.298 315.968 252.303 316.034 252.278 316.034C252.227 316.056 252.368 316.773 252.368 316.773L252.911 316.373C252.911 316.373 254.53 316.697 254.816 316.779C254.816 316.779 258.209 317.475 260.531 317.135C261.265 317.031 262.492 316.527 262.909 315.782C262.979 315.645 263.06 315.327 262.964 315.113C262.959 315.152 262.436 315.815 261.888 316.127L261.883 316.116Z" fill="#C5CDFF"/>
<path d="M252.302 316.028L249.995 315.02C249.995 315.02 250.211 315.956 250.242 315.935L252.348 316.773C252.338 316.702 252.312 316.225 252.302 316.028Z" fill="#C5CDFF"/>
<path d="M254.214 276.225L256.46 310.226C256.651 311.569 257.395 312.007 257.044 312.473C255.742 314.215 249.881 315.919 248.981 313.092L244.824 278.866L254.209 276.22L254.214 276.225Z" fill="#293896"/>
<path d="M236.561 317.124C236.561 317.124 236.466 320.669 236.456 320.756C236.335 322.334 238.034 326.372 240.477 326.635C240.839 326.673 242.116 326.553 242.116 326.553C242.116 326.553 243.784 326.503 243.458 323.298C243.327 322.055 242.141 317.036 242.141 317.036L236.561 317.129V317.124Z" fill="#293896"/>
<path d="M236.325 316.237C236.325 316.237 236.521 318.275 236.692 320.927C236.792 322.505 238.551 325.858 240.703 325.989C241.261 326.028 241.698 325.973 241.738 325.973C242.663 325.924 243.93 325.562 243.407 322.302C243.216 321.141 242.442 316.659 242.377 316.654L236.325 316.237Z" fill="#0E1A68"/>
<path d="M248.266 278.033C247.834 284.953 243.396 318.74 243.396 318.74C243.33 319.71 242.426 321.085 240.928 321.271C239.078 321.496 237.776 320.483 237.776 320.483C236.59 320.028 236.122 318.549 236.112 318.209L238.686 276.373L248.271 278.039L248.266 278.033Z" fill="#293896"/>
<path d="M238.349 253.087C238.349 253.087 241.37 249.302 242.792 248.759C244.215 248.217 248.724 248.639 248.724 248.639C248.724 248.639 251.292 254.512 251.88 257.481C252.8 262.16 249.563 265.469 249.563 265.469L242.28 260.933L238.349 253.093V253.087Z" fill="#C5CDFF"/>
<path d="M249.75 249.379C247.518 251.779 245.829 249.116 244.392 247.248L244.115 240.531L249.629 242.312L249.75 249.379Z" fill="white"/>
<path d="M246.125 236.866C247.387 236.816 247.563 238.126 247.563 238.126L247.648 240.876C247.648 240.876 247.608 241.479 247.136 241.599C246.427 241.78 246.095 241.112 245.753 240.377C245.733 240.339 245.291 239.249 245.266 239.183C244.889 238.252 244.939 236.909 246.125 236.866Z" fill="white"/>
<path d="M248.962 249.752C248.655 250.037 248.906 250.41 249.082 250.662L250.188 252.25C250.54 252.722 250.676 252.179 250.676 251.664L250.56 247.966C250.299 245.654 249.605 245.966 249.605 245.966C249.605 245.966 249.505 246.174 249.56 246.657C249.645 247.451 250.027 248.788 248.967 249.758L248.962 249.752Z" fill="#0E1A68"/>
<path d="M244.342 245.61C244.342 245.61 244.242 246.021 244.493 246.547C245.519 248.7 248.53 249.851 248.53 249.851C248.886 249.987 248.876 250.179 248.836 250.831L248.55 253.231C248.509 253.866 248.208 253.812 247.972 253.56C247.972 253.56 245.594 251.45 244.926 250.738C243.347 249.056 243.312 249.16 243.84 246.974C244.161 245.648 244.337 245.604 244.337 245.604L244.342 245.61Z" fill="#0E1A68"/>
<path d="M248.056 233.003L243.406 233.178L243.587 242.328C243.667 242.947 243.662 243.517 243.768 244.043C243.889 244.623 244.15 245.155 244.814 245.675C244.814 245.675 245.613 246.525 246.558 247.286C247.292 247.883 248.201 248.36 248.729 248.245C249.136 248.163 250.383 247.664 250.383 247.664C251.273 247.215 251.423 246.683 251.745 245.588C251.891 245.1 252.635 236.838 252.635 236.838L252.569 233.759L248.051 233.003H248.056Z" fill="white"/>
<path d="M252.007 232.379C253.334 233.135 253.178 234.981 253.058 235.507C252.635 237.326 252.585 237.145 252.61 237.173C252.63 237.195 252.63 236.455 252.64 235.737C252.65 234.663 251.62 234.899 251.193 235.217C250.424 235.803 248.936 236.471 248.896 236.499C248.373 236.849 248.589 236.586 248.544 236.17C248.534 236.077 248.514 235.524 248.514 235.524C248.443 235.573 247.217 236.23 246.9 236.471C245.543 237.556 245.729 240.46 245.633 240.454C245.236 240.438 245.267 240.257 245.141 239.819C245.141 239.819 245.05 237.753 243.522 238.608C242.718 239.057 243.362 241.03 243.417 241.145L243.789 244.136C243.789 244.175 241.512 240.372 241.27 239.802C238.918 234.143 242.673 228.215 248.071 230.094C249.152 230.472 252.007 232.39 252.007 232.39V232.379Z" fill="#633A11"/>
<path d="M243.824 238.131C245.025 238.093 245.241 240.268 245.241 240.268L245.271 241.977C245.271 241.977 245.231 242.553 244.779 242.668C244.095 242.843 243.753 242.394 243.427 241.687C243.407 241.649 242.989 240.602 242.964 240.537C242.607 239.654 242.688 238.17 243.824 238.131Z" fill="white"/>
<path d="M255.023 274.133C255.023 274.133 251.872 279.228 238.803 276.001L238.702 278.335C238.702 278.335 247.584 283.348 253.199 278.335C254.586 277.097 255.023 274.133 255.023 274.133Z" fill="#0E1A68"/>
<path d="M239.616 277.775C250.438 280.339 254.318 276.439 254.625 276.104C254.932 275.77 255.072 273.995 255.072 273.995C255.072 273.995 252.378 279.003 239.721 276.219L239.621 277.775H239.616Z" fill="#0E1A68"/>
<path d="M244.678 280.06L244.231 286.093C244.171 286.92 243.437 287.479 242.703 287.254C241.884 287.008 241.346 286.158 241.411 285.232L241.743 280.921L238.923 280.302L239.039 277.107L244.789 278.088L244.673 280.055L244.678 280.06Z" fill="#0E1A68"/>
<path d="M236.71 284.641C236.735 285.545 237.866 286.093 238.615 286.071C238.876 286.06 239.354 288.235 240.43 288.125C240.43 288.125 240.41 287.539 240.344 286.509C240.344 286.427 240.435 285.545 239.922 284.948C238.575 283.353 238.414 283.047 237.665 283.068C236.916 283.09 236.68 283.737 236.705 284.641H236.71Z" fill="white"/>
<path d="M236.188 282.537L238.334 282.871L238.942 284.46L238.686 286.224C238.686 286.224 238.596 286.706 238.917 287.319C239.043 287.561 239.269 287.971 239.269 287.971C239.269 287.971 239.324 289.763 238.088 289.369C237.686 289.248 237.404 288.886 237.404 288.886C236.866 288.788 235.962 288.514 235.364 288.366C233.981 288.026 234.368 286.235 234.368 286.235L234.584 284.465C234.7 283.468 235.203 282.389 236.188 282.542V282.537Z" fill="white"/>
<path d="M236.494 284.706C235.644 284.739 235.097 284.405 235.097 284.405C235.097 284.405 234.348 284.016 234.307 283.255C234.182 280.981 233.815 270.878 234.096 268.073C234.398 264.983 235.443 258.074 235.443 258.074C235.443 258.074 236.388 252.25 239.495 252.683C242.083 253.045 242.109 256.59 241.822 259.06C241.596 261.005 240.626 267.405 240.259 270.034C239.56 275.047 239.304 283.496 239.304 283.496C239.304 283.496 238.459 284.641 236.494 284.717V284.706Z" fill="#C5CDFF"/>
<path d="M248.298 282.784C249.62 282.784 250.695 281.611 250.695 280.165C250.695 278.719 249.62 277.552 248.298 277.552C246.976 277.552 245.9 278.724 245.9 280.165C245.9 281.606 246.976 282.784 248.298 282.784ZM248.298 278.226C249.283 278.226 250.082 279.102 250.082 280.171C250.082 281.239 249.283 282.121 248.298 282.121C247.312 282.121 246.508 281.244 246.508 280.171C246.508 279.097 247.307 278.226 248.298 278.226Z" fill="white"/>
<path d="M245.84 283.786C247.167 283.786 248.242 282.619 248.242 281.173C248.242 279.727 247.167 278.56 245.84 278.56C244.513 278.56 243.442 279.732 243.442 281.173C243.442 282.614 244.518 283.786 245.84 283.786ZM245.84 279.222C246.825 279.222 247.629 280.099 247.629 281.167C247.629 282.236 246.83 283.118 245.84 283.118C244.849 283.118 244.055 282.241 244.055 281.167C244.055 280.094 244.854 279.222 245.84 279.222Z" fill="white"/>
<path d="M252.271 233.1C249.812 234.437 246.929 235.107 244.049 235.481C246.229 236.444 249.044 237.176 251.557 236.515C252.377 236.296 253.453 236.106 253.84 235.193C254.436 233.786 252.455 233.489 251.732 233.066L252.267 233.106L252.271 233.1Z" fill="#293896"/>
<path d="M253.984 228.902C253.984 228.902 252.659 232.118 252.819 233.537C252.979 234.962 246.223 235.738 244.306 235.619C242.394 235.506 240.879 235.521 239.785 233.808C238.603 231.953 238.071 230.179 238.071 230.179L247.623 230.777L253.989 228.901L253.984 228.902Z" fill="#5B68B7"/>
<path d="M254.027 228.844C252.718 228.983 249.59 226.997 248.876 226.773C248.084 226.515 246.065 227.193 244.231 227.701C241.542 228.445 241.144 229.532 238.06 230.186C239.179 231.474 240.853 232.519 242.632 232.344C244.056 232.205 248.63 231.259 250.041 231.066L254.017 228.851L254.027 228.844Z" fill="#293896"/>
<path d="M252.248 231.335C252.248 231.335 252.311 231.759 252.294 232.201C252.28 232.637 252.47 233.384 252.031 233.632C251.59 233.869 250.813 232.942 250.775 232.685C250.737 232.428 251.395 229.9 252.248 231.335Z" fill="white"/>
<path d="M447.698 278.685C446.712 286.126 447.16 287.926 447.635 292.306C448.109 296.685 450.084 307.059 450.568 308.82C451.051 310.581 458.504 313.698 459.057 310.811C459.611 307.924 458.491 292.589 458.211 288.393C457.93 284.196 447.698 278.685 447.698 278.685Z" fill="#0E1A68"/>
<path d="M453.973 285.764C453.593 290.321 453.931 292.262 454.385 293.293C454.84 294.324 457.345 295.083 457.345 295.083C457.345 295.083 457.767 308.329 459.07 312.82C460.372 317.309 466.143 315.462 466.413 313.201C466.683 310.94 467.481 304.722 468.205 299.175C468.929 293.628 469.54 288.618 467.87 282.721C466.199 276.827 453.973 285.764 453.973 285.764Z" fill="#0E1A68"/>
<path d="M457.934 333.619C457.934 333.619 457.646 334.669 457.208 336.908C457.065 337.638 456.053 337.153 456.053 337.153C456.053 337.153 456.018 334.668 455.669 334.213C455.318 333.759 457.934 333.619 457.934 333.619Z" fill="#293896"/>
<path d="M452.952 327.791C452.955 329.192 452.862 329.589 452.791 330.185C452.619 331.625 450.256 332.757 449.851 333.296C449.446 333.835 446.874 336.833 446.874 336.833C446.874 336.833 446.83 337.598 447.085 337.906C447.339 338.213 447.268 339.17 448.863 338.6C450.457 338.031 451.646 335.334 454.559 335.237C455.548 335.205 458.118 334.789 457.926 332.939C457.735 331.089 457.08 327.676 457.08 327.676L455.49 325.83L452.952 327.791Z" fill="white"/>
<path d="M452.127 331.467C452.127 331.467 449.771 333.602 449.238 334.214C448.706 334.827 448.868 335.162 449.719 335.387C450.601 335.62 451.677 334.888 453.761 333.663C454.916 332.984 454.919 333.077 456.236 332.464C457.555 331.852 457.775 331.746 457.669 331.075C457.563 330.404 457.487 329.962 457.487 329.962C457.487 329.962 458.065 330.75 458.187 332.272C458.309 333.795 458.258 334.599 456.193 335.141C453.568 335.829 455.427 335.236 454.53 335.572C454.017 335.765 453.288 336.926 451.591 338.221C449.894 339.515 446.89 339.544 446.359 339.515C445.065 339.445 444.458 338.261 445.922 336.926C447.464 335.52 450.271 332.77 452.127 331.467Z" fill="#293896"/>
<path d="M456.187 304.707C457.331 306.116 458.235 307.026 458.629 309.466C459.023 311.906 459.02 315.396 458.629 320.543C458.238 325.691 458.238 329.617 458.193 330.839C458.149 332.06 454.616 332.411 453.48 332.105C452.347 331.8 452.128 331.537 451.954 330.709C451.779 329.881 450.777 309.524 450.566 308.82C450.355 308.113 456.187 304.707 456.187 304.707Z" fill="#0E1A68"/>
<path d="M463.183 335.516C462.895 336.876 461.023 338.896 460.433 340.627C460.116 341.555 459.495 343.951 460.446 344.188C460.457 344.191 460.468 344.193 460.478 344.196C461.57 344.445 463.169 344.308 464.028 343.725C464.887 343.141 467.225 339.086 467.6 338.673C467.973 338.259 467.819 337.788 467.88 337.367C468.098 335.834 467.148 334.937 467.233 334.234C467.318 333.531 467.603 331.163 467.603 331.163L465.174 330.705C465.174 330.705 463.476 332.608 463.499 333.377C463.519 334.147 463.183 335.516 463.183 335.516Z" fill="white"/>
<path d="M462.829 336.532C462.829 336.532 460.721 339.747 460.397 341.07C460.074 342.392 462.123 342.609 463.214 341.891C464.32 341.164 464.98 339.657 466.03 338.491C466.948 337.47 467.73 336.843 467.785 336.476C467.881 335.828 467.413 335.185 467.413 335.185C467.413 335.185 468.196 335.645 468.278 337.346C468.362 339.09 468.286 339.09 467.6 339.81C466.995 340.445 466.019 342.967 464.053 344.703C462.913 345.71 460.803 346.438 459.325 346.459C457.567 346.202 457.197 345.406 457.737 344.37C458.062 343.749 459.083 342.639 460.203 340.663C460.984 339.284 462.829 336.532 462.829 336.532Z" fill="#293896"/>
<path d="M468.136 338.885C468.136 338.885 467.959 341.053 467.854 342.089C467.797 342.65 467.785 342.673 467.785 342.673C467.785 342.673 467.798 342.65 467.356 342.809C467.137 342.888 466.926 342.555 466.926 342.555L466.547 338.822L468.136 338.885Z" fill="#293896"/>
<path d="M466.528 308.982C468.622 314.174 469.189 316.53 469.406 320.543C469.625 324.556 467.967 333.762 467.967 335.464C467.967 337.165 462.994 337.428 462.819 335.464C462.645 333.5 461.003 321.228 460.292 318.015C459.581 314.801 459.066 312.822 459.066 312.822L466.528 308.982Z" fill="#0E1A68"/>
<path d="M466.041 253.398C465.422 253.181 460.539 252.282 456.8 252.031C453.06 251.78 455.261 249.184 450.777 251.332C446.294 253.479 444.424 253.947 443.581 255.457C442.738 256.967 447.007 268.793 446.966 272.057C446.928 275.318 447.192 279.773 447.021 281.824C446.851 283.875 448.441 285.798 453.553 286.993C461.271 288.795 467.33 284.952 467.38 282.9C467.429 280.846 466.574 275.026 466.641 272.208C466.711 269.39 466.862 269.294 467.037 265.39C467.212 261.487 466.041 253.398 466.041 253.398Z" fill="#293896"/>
<path d="M457.201 251.12C457.851 253.124 458.7 254.674 460.362 255.924C461.52 254.716 462.771 254.074 462.872 253.29C463.07 251.766 461.206 249.928 460.889 247.477C460.572 245.026 458.451 243.953 458.451 243.953L457.201 251.12Z" fill="#632100"/>
<path d="M450.604 245.592C451.076 246.872 451.334 252.516 451.417 254.088C451.499 255.661 452.784 256.699 454.484 257.164C456.184 257.628 458.378 256.876 458.56 256.054C458.742 255.232 458.232 252.125 458.398 251.148C458.562 250.172 458.687 247.517 457.646 246.385C456.606 245.252 450.604 245.592 450.604 245.592Z" fill="white"/>
<path d="M452.281 243.354C452.165 244.802 451.816 248.398 452.123 249.816C452.431 251.233 453.357 252.083 453.712 252.412C454.066 252.744 457.981 253.943 458.515 254.038C459.049 254.133 460.062 253.876 460.374 253.48C460.686 253.084 461.582 249.319 461.696 247.167C461.809 245.015 461.859 243.687 461.51 242.309C461.162 240.93 460.566 239.767 459.449 239.319C458.333 238.868 454.883 239.068 453.55 240.102C452.213 241.136 452.281 243.354 452.281 243.354Z" fill="white"/>
<path d="M459.855 240.903C459.596 241.339 458.461 241.831 456.614 242.371C454.768 242.912 454.149 244.347 453.668 245.12C453.185 245.894 452.936 247.903 452.936 247.903L452.78 249.349C452.78 249.349 452.637 247.713 452.021 246.973C451.405 246.233 450.599 247.06 450.599 247.06C450.599 247.06 451.838 249.123 451.833 249.326C451.828 249.527 451.711 249.987 451.711 249.987C451.711 249.987 448.595 248.152 447.955 246.363C447.313 244.575 447.207 241.511 447.904 239.374C448.6 237.236 450.948 236.469 451.455 236.361C451.961 236.252 452.198 235.634 454.173 235.581C456.148 235.528 459.365 237.611 460.455 238.86C461.546 240.11 462.107 241.308 461.632 242.883C460.88 240.652 461.201 240.984 460.547 240.577C460.482 240.535 459.855 240.903 459.855 240.903Z" fill="#632100"/>
<path d="M447.956 246.202C448.259 248.028 446.56 250.712 446.046 253.091C445.531 255.468 448.334 257.478 448.334 257.478C448.334 257.478 450.068 257.906 451.192 257.906C452.186 257.908 453.669 257.924 453.669 257.924C453.669 257.924 452.532 253.295 452.212 250.998C451.892 248.702 450.895 246.625 450.895 246.625L450.401 244.859L447.956 246.202Z" fill="#632100"/>
<path d="M461.906 274.988C462.189 274.914 463.816 274.328 463.816 274.328C463.816 274.328 464.501 273.479 465.414 273.199C466.328 272.919 467.883 272.696 467.883 272.696C467.883 272.696 468.806 271.974 469.332 271.925C469.856 271.877 469.926 272.342 469.876 272.744C469.826 273.146 468.74 273.865 468.62 273.881C468.499 273.899 467.219 274.351 467.219 274.351L466.778 275.105L469.022 274.796C469.022 274.796 473.1 273.545 473.546 273.476C473.991 273.407 474.611 273.582 474.611 273.582C474.611 273.582 475.28 273.371 475.635 273.695C475.989 274.018 475.618 274.431 475.618 274.431L475.342 274.949C475.342 274.949 470.4 276.943 469.487 277.204C468.575 277.463 466.686 277.236 465.187 277.583C463.688 277.929 462.321 277.857 461.839 277.785C461.356 277.714 461.906 274.988 461.906 274.988Z" fill="white"/>
<path d="M466.139 253.387C473.83 258.163 475.299 259.106 477.362 260.404C479.426 261.702 481.086 263.032 481.086 263.032C481.086 263.032 482.186 269.367 480.619 269.208C479.053 269.049 469.383 265.986 467.432 265.013C466.757 264.547 465.575 263.323 465.298 261.567C464.684 257.673 465.21 252.753 466.139 253.387Z" fill="#293896"/>
<path d="M488.275 258.83C487.239 258.349 485.987 259.044 484.844 259.687C483.7 260.331 480.656 261.91 480.143 262.508C479.63 263.107 478.164 268.2 479.636 269.014C481.106 269.828 482.393 268.839 483.832 268.204C485.272 267.567 491.353 263.744 491.454 261.757C491.554 259.769 488.275 258.83 488.275 258.83Z" fill="#293896"/>
<path d="M493.871 255.338C493.792 255.281 493.256 255.215 492.443 255.517C491.629 255.819 490.017 255.943 489.268 256.266C488.565 256.569 487.061 257.862 486.815 258.098C486.477 258.42 485.982 258.902 485.813 259.338C485.472 260.22 486.472 261.37 487.166 261.772C487.788 262.134 488.528 262.269 489.245 262.224C489.425 262.212 489.612 262.188 489.768 262.095C489.926 262.002 490.04 261.844 490.204 261.764C490.476 261.63 490.797 261.74 491.085 261.838C491.86 262.101 492.668 262.266 493.483 262.328C494.307 262.391 495.083 262.256 495.901 262.163L501.001 262.153L501.319 260.336C501.409 259.816 501.181 259.293 500.738 259.007L493.871 255.338Z" fill="white"/>
<path d="M492.563 255.819C493.459 256.351 494.669 257.797 494.969 258.317C495.27 258.836 495.626 259.665 495.119 259.841C493.643 260.356 492.523 258.894 492.523 258.894C492.523 258.894 491.37 257.244 490.677 257.114C489.984 256.983 488.277 256.707 489.27 256.266C490.26 255.824 491.848 255.394 492.563 255.819Z" fill="white"/>
<path d="M444.162 254.746C442.884 255.578 442.655 257.291 442.66 259.278C442.665 261.266 443.474 269.442 444.101 272.279C444.729 275.117 445.073 278.752 446.044 279.288C447.016 279.822 449.396 275.045 449.427 273.797C449.457 272.549 448.423 265.273 447.939 263.058C447.455 260.845 446.954 258.281 446.311 257.083C445.671 255.888 444.162 254.746 444.162 254.746Z" fill="#0E1A68"/>
<path d="M452.548 273.619C449.338 273.164 449.117 273.32 448.543 273.776C447.969 274.233 445.672 278.071 446.047 279.288C446.42 280.506 462.951 278.785 463.37 278.124C463.79 277.463 463.044 274.947 462.732 274.537C462.418 274.127 452.548 273.619 452.548 273.619Z" fill="#0E1A68"/>
<path d="M451.913 247.775C451.799 246.773 451.364 246.271 450.885 246.159C450.404 246.046 449.943 246.653 450.245 247.614C450.547 248.575 451.085 249.025 451.52 249.216C451.955 249.408 451.89 248.702 451.89 248.702L451.913 247.775Z" fill="white"/>
<path opacity="0.3" d="M385.102 310.365C383.861 314.159 375.523 314.815 366.459 311.841C357.419 308.866 351.095 303.409 352.337 299.615C353.578 295.821 361.916 295.165 370.956 298.14C379.997 301.114 386.32 306.594 385.079 310.365H385.102Z" fill="#0E1A68"/>
<path d="M377.608 303.503C379.411 305.237 382.409 305.728 383.323 305.799C384.213 305.892 383.697 307.204 383.697 307.204C383.697 307.204 382.526 307.789 380.536 307.907C378.545 308.024 378.03 307.602 376.812 307.766C375.57 307.93 375.008 308.562 373.79 308.117C372.572 307.672 372.455 304.019 372.455 304.019L375.477 302.848C375.477 302.848 377.21 303.176 377.608 303.48V303.503Z" fill="#0E1A68"/>
<path d="M375.01 254.32C377.235 268.185 373.042 289.451 377.609 303.527C375.057 304.979 373.3 304.768 372.433 304.042C370.56 293.643 366.883 290.856 369.365 283.15C369.178 278.841 366.321 269.754 366.321 269.754L365.267 260.924C365.267 260.924 374.869 252.001 375.01 254.343V254.32Z" fill="#5B68B7"/>
<path d="M359.107 300.295C359.107 300.295 361.73 304.838 362.198 305.307C362.667 305.775 362.831 306.946 362.198 307.18C359.716 308.117 357.42 307.157 356.507 305.19C355.57 303.222 354.75 302.004 354.657 301.255C354.563 300.529 354.797 299.826 354.797 299.826L359.13 300.271L359.107 300.295Z" fill="#0E1A68"/>
<path d="M375.008 254.319C375.008 254.319 373.181 262.259 367.045 264.882C366.178 278.7 357.981 289.146 359.105 300.294C358.332 300.529 356.341 301.489 354.772 299.849C355.452 290.785 353.344 289.076 356.131 280.902C358.285 274.555 353.742 260.315 358.848 254.975C360.253 253.874 375.031 254.319 375.031 254.319H375.008Z" fill="#5B68B7"/>
<path d="M375.384 221.578C376.719 223.358 377.492 226.262 377.492 226.262L376.04 228.065C376.04 228.065 375.127 227.246 374.26 227.199C374.143 226.824 372.949 225.794 372.949 225.794V222.632L374.658 221.367C374.658 221.367 375.056 221.156 375.361 221.578H375.384Z" fill="white"/>
<path d="M371.964 226.917C374.447 227.877 377.491 229.844 377.491 229.844L376.039 228.064C376.039 228.064 376.273 226.495 377.491 226.261C377.655 226.425 386.391 234.435 386.883 236.168C387.351 237.901 386.368 239.681 384.752 239.657C383.136 239.657 379.81 237.643 373.908 234.364C372.643 233.521 371.683 233.521 371.683 233.521L368.943 228.86C368.943 228.86 371.496 226.846 371.964 226.893V226.917Z" fill="#0E1A68"/>
<path d="M362.127 226.566H369.738V234.366H362.127V226.566Z" fill="white"/>
<path d="M356.201 233.943C357.443 232.374 359.34 230.641 359.34 230.641L362.548 229.657C362.548 229.657 365.804 233.358 367.092 232.96C368.38 232.562 367.982 229.376 367.982 229.376C367.982 229.376 369.481 226.753 370.465 228.978C371.448 231.203 376.859 237.761 376.531 239.986C376.203 242.211 373.954 243.312 373.954 243.312C373.954 243.312 373.65 249.682 375.008 254.32C375.008 254.32 369.856 259.706 364.492 258.933C359.129 258.137 358.825 254.975 358.825 254.975C358.825 254.975 360.487 251.368 357.677 245.654C356.67 243.405 355.874 234.857 356.178 233.967L356.201 233.943Z" fill="#0E1A68"/>
<path d="M375.758 225.981C375.922 225.888 376.039 225.653 376.039 225.349V223.639C376.039 223.03 375.594 222.257 375.079 221.953L370.278 219.189C369.996 219.025 369.762 219.025 369.598 219.119L369.224 219.33L369.294 219.447C369.294 219.447 369.247 219.658 369.247 219.775V221.484C369.247 222.117 369.692 222.866 370.207 223.171L375.009 225.958C375.009 225.958 375.219 226.051 375.336 226.075L375.407 226.192L375.781 225.981H375.758Z" fill="#0E1A68"/>
<path d="M375.688 225.559V223.849C375.688 223.24 375.266 222.467 374.727 222.163L369.926 219.399C369.387 219.095 368.966 219.329 368.966 219.961V221.671C368.966 222.303 369.387 223.053 369.926 223.357L374.727 226.144C375.266 226.449 375.688 226.191 375.688 225.582V225.559Z" fill="#0E1A68"/>
<path d="M369.74 223.076V219.446L374.189 222.023V225.629L369.74 223.076Z" fill="white"/>
<path d="M373.932 221.415V221.298L373.51 221.157C373.51 221.157 373.487 221.157 373.463 221.157L373.299 221.087V221.227C373.299 221.227 373.299 221.274 373.323 221.274L373.697 221.485C373.697 221.485 373.838 221.508 373.885 221.485C373.908 221.485 373.932 221.462 373.932 221.438V221.415Z" fill="#293896"/>
<path d="M373.885 221.25L373.51 221.04C373.51 221.04 373.37 221.016 373.323 221.04C373.276 221.063 373.276 221.11 373.323 221.133L373.697 221.344C373.697 221.344 373.838 221.391 373.885 221.344C373.932 221.321 373.932 221.274 373.885 221.227V221.25Z" fill="#5B68B7"/>
<path d="M374.586 221.812V221.672L374.164 221.531H374.118L373.954 221.484V221.601C373.954 221.601 373.954 221.648 374 221.648L374.375 221.859C374.375 221.859 374.516 221.883 374.563 221.859C374.586 221.859 374.609 221.836 374.609 221.812H374.586Z" fill="#293896"/>
<path d="M374.539 221.625L374.164 221.414C374.164 221.414 374.024 221.39 373.977 221.414C373.93 221.437 373.93 221.484 373.977 221.507L374.352 221.718C374.352 221.718 374.492 221.742 374.539 221.718C374.586 221.695 374.586 221.648 374.539 221.601V221.625Z" fill="#5B68B7"/>
<path d="M371.426 219.987V219.87L371.004 219.729C371.004 219.729 370.957 219.729 370.934 219.706L370.77 219.659V219.776C370.77 219.776 370.77 219.823 370.817 219.847L371.192 220.057C371.192 220.057 371.332 220.081 371.379 220.057C371.402 220.057 371.426 220.034 371.426 220.01V219.987Z" fill="#293896"/>
<path d="M371.379 219.798L371.004 219.588C371.004 219.588 370.864 219.564 370.817 219.588C370.77 219.611 370.77 219.658 370.817 219.681L371.192 219.892C371.192 219.892 371.332 219.915 371.379 219.892C371.426 219.869 371.426 219.822 371.379 219.775V219.798Z" fill="#5B68B7"/>
<path d="M374.916 221.859C374.916 221.859 374.19 222.538 373.721 222.374C372.831 222.023 372.012 221.672 371.871 221.203C371.731 220.735 372.316 219.938 372.761 219.868C373.464 219.728 375.08 221.133 375.384 221.601C375.689 222.07 375.572 222.023 375.572 222.023L374.916 221.882V221.859Z" fill="white"/>
<path d="M372.667 220.805C372.667 220.805 373.018 222.304 372.339 224.084C372.503 225.981 371.191 229.494 370.84 230.15C370.512 230.806 369.271 231.368 368.358 231.04C365.922 230.22 364.493 228.815 364.493 228.815V222.702L368.147 218.604L372.667 219.166V220.782V220.805Z" fill="white"/>
<path d="M371.238 220.547C368.568 224.81 367.115 222.374 365.851 229.471C365.851 229.471 365.336 229.307 365.078 228.838C364.024 230.361 364.656 233.499 364.656 233.499C364.656 233.499 360.089 233.944 358.333 228.393C358.333 228.393 358.052 229.096 357.817 230.056C354.96 225.934 360.815 216.894 361.939 215.395C363.064 213.873 365.523 214.13 365.874 214.13C371.05 212.959 373.954 220.056 372.69 220.782C372.409 219.798 371.729 220.173 371.261 220.524L371.238 220.547Z" fill="#944F00"/>
<path d="M366.835 214.856C369.763 216.238 371.051 219.517 371.051 219.517C371.051 219.517 370.887 215.817 366.835 214.856Z" fill="#D49C5D"/>
<path d="M371.682 223.544C372.783 223.357 373.439 225.395 373.439 225.395L374.727 226.144L375.266 227.268C374.704 227.362 373.275 227.151 372.642 226.378C372.01 225.605 372.385 224.388 371.682 223.568V223.544Z" fill="white"/>
<path d="M358.052 234.154C361.167 235.302 359.364 240.361 359.364 240.361C359.364 240.361 356.061 250.9 355.288 252.774C354.797 254.015 353.462 255.092 351.892 254.952C350.323 254.811 349.386 254.015 348.59 253.336C347.794 252.657 347.185 250.806 347.958 250.76C348.731 250.713 350.066 249.963 351.401 249.588C352.97 245.326 353.391 240.899 353.766 238.581C354.141 236.262 354.703 232.89 358.052 234.154Z" fill="#0E1A68"/>
<path d="M354.398 252.188C353.602 250.572 351.401 249.588 351.401 249.588C351.401 249.588 353.813 249.541 354.398 252.188Z" fill="#0E1A68"/>
<path d="M348.497 250.596C348.497 250.596 347.396 249.425 346.248 249.425C345.101 249.425 343.579 249.589 343.555 250.01C343.532 250.713 344.843 250.432 344.82 250.619C344.82 251.322 340.909 251.743 341.002 252.797C341.096 253.851 344.141 255.35 345.991 254.858C347.443 254.484 349.41 253.758 349.715 252.68C350.136 251.228 348.473 250.596 348.473 250.596H348.497Z" fill="white"/>
<path d="M367.982 246.826C367.982 246.826 363.86 247.318 362.549 243.547C362.619 248.676 367.982 246.826 367.982 246.826Z" fill="#0E1A68"/>
<path d="M382.926 237.222C380.092 233.545 377.492 229.845 377.492 229.845C377.492 229.845 380.513 235.958 382.926 237.222Z" fill="#0E1A68"/>
</svg>
