<svg width="705" height="468" viewBox="0 0 705 468" fill="none" xmlns="http://www.w3.org/2000/svg">
<rect width="705" height="468" fill="#E0E6F9"/>
<g style="mix-blend-mode:multiply" opacity="0.29">
<path d="M348.451 195.721L377.117 212.286L404.889 195.753L402.242 194.242L368.606 184.709L348.451 195.721Z" fill="#0E1A68"/>
</g>
<path d="M376.727 210.777L403.606 195.006L403.8 124.975L376.938 159.325L376.727 210.777Z" fill="#0E1A68"/>
<path d="M350.74 195.802L377.603 179.983L377.814 110L350.952 144.35L350.74 195.802Z" fill="#0E1A68"/>
<path d="M350.935 144.35L350.74 195.785L376.726 210.776L376.937 159.324L350.935 144.35Z" fill="#5B68B7"/>
<path d="M353.112 149.32L353.047 176.508L359.738 180.357L359.787 153.169L353.112 149.32Z" fill="#293896"/>
<path d="M359.755 180.649L352.82 176.654V176.507L352.869 149.189L353.34 149.433L353.291 176.377L359.755 180.096V180.649Z" fill="#0E1A68"/>
<path d="M377.816 110L403.802 124.974L376.94 159.324L350.938 144.35L377.816 110Z" fill="white"/>
<path d="M377.264 115.246L397.711 127.037L383.208 145.666L362.744 133.875L377.264 115.246Z" fill="#BBD2E9"/>
<path d="M367.73 142.856C368.185 142.255 369.013 142.093 369.662 142.466L379.326 148.037C379.927 148.378 380.089 149.174 379.667 149.726L376.386 153.981C375.932 154.582 375.104 154.744 374.454 154.371L364.79 148.8C364.189 148.459 364.027 147.647 364.449 147.111L367.73 142.872V142.856Z" fill="#293896"/>
<path d="M366.951 131.033L370.443 132.95L368.9 134.931L365.408 133.031L366.951 131.033Z" fill="#0E1A68"/>
<path d="M375.103 120.671L378.579 122.571L377.036 124.553L373.561 122.653L375.103 120.671Z" fill="#0E1A68"/>
<path d="M373.074 123.253L376.55 125.169L375.007 127.151L371.531 125.234L373.074 123.253Z" fill="#0E1A68"/>
<path d="M371.027 125.852L374.519 127.752L372.96 129.733L369.484 127.833L371.027 125.852Z" fill="#0E1A68"/>
<path d="M368.996 128.45L372.472 130.351L370.929 132.332L367.453 130.432L368.996 128.45Z" fill="#0E1A68"/>
<path d="M377.151 118.072L380.626 119.972L379.083 121.954L375.592 120.054L377.151 118.072Z" fill="#0E1A68"/>
<path d="M362.954 133.988L362.531 133.761L377.197 114.953L397.856 126.842L397.564 127.215L377.311 115.554L362.954 133.988Z" fill="#0E1A68"/>
<path d="M356.459 143.197C356.459 142.466 357.255 141.865 358.262 141.865C359.269 141.865 360.064 142.466 360.064 143.197C360.064 143.928 359.253 144.529 358.262 144.529C357.271 144.529 356.459 143.928 356.459 143.197Z" fill="#293896"/>
<path d="M359.09 139.9C359.09 139.169 359.902 138.568 360.892 138.568C361.883 138.568 362.695 139.169 362.695 139.9C362.695 140.631 361.899 141.232 360.892 141.232C359.885 141.232 359.09 140.631 359.09 139.9Z" fill="#293896"/>
<path d="M360.162 144.968C360.162 144.237 360.974 143.636 361.965 143.636C362.955 143.636 363.768 144.237 363.768 144.968C363.768 145.698 362.972 146.299 361.965 146.299C360.958 146.299 360.162 145.698 360.162 144.968Z" fill="#293896"/>
<path d="M362.809 141.671C362.809 140.94 363.621 140.339 364.612 140.339C365.602 140.339 366.414 140.94 366.414 141.671C366.414 142.402 365.602 143.002 364.612 143.002C363.621 143.002 362.809 142.402 362.809 141.671Z" fill="#293896"/>
<path d="M389.297 151.464L390.58 150.781L437.078 177.579L436.949 222.616L435.682 223.298L435.812 178.262L389.297 151.464Z" fill="#5B68B7"/>
<g opacity="0.46">
<path d="M389.298 151.464L389.168 196.501L435.683 223.299L435.813 178.262L389.298 151.464Z" fill="#BBD2E9"/>
</g>
<g style="mix-blend-mode:multiply" opacity="0.29">
<path d="M418.354 238.162L447.019 254.728L474.792 238.194L472.144 236.684L438.509 227.15L418.354 238.162Z" fill="#0E1A68"/>
</g>
<path d="M446.629 253.218L473.508 237.448L473.703 167.416L446.84 201.766L446.629 253.218Z" fill="#0E1A68"/>
<path d="M420.643 238.243L447.506 222.424L447.716 152.441L420.854 186.791L420.643 238.243Z" fill="#0E1A68"/>
<path d="M420.838 186.791L420.643 238.227L446.628 253.217L446.84 201.765L420.838 186.791Z" fill="#5B68B7"/>
<path d="M423.014 191.762L422.949 218.949L429.641 222.798L429.69 195.611L423.014 191.762Z" fill="#293896"/>
<path d="M429.656 223.09L422.721 219.095V218.949L422.769 191.631L423.241 191.875L423.192 218.819L429.656 222.538V223.09Z" fill="#0E1A68"/>
<path d="M447.717 152.441L473.703 167.416L446.84 201.766L420.838 186.791L447.717 152.441Z" fill="white"/>
<path d="M447.166 157.688L467.613 169.479L453.11 188.107L432.646 176.316L447.166 157.688Z" fill="#BBD2E9"/>
<path d="M437.63 185.297C438.085 184.696 438.913 184.534 439.563 184.908L449.227 190.478C449.828 190.819 449.99 191.615 449.568 192.167L446.287 196.422C445.832 197.023 445.004 197.186 444.354 196.812L434.69 191.242C434.09 190.9 433.927 190.088 434.349 189.552L437.63 185.314V185.297Z" fill="#293896"/>
<path d="M436.853 173.475L440.345 175.391L438.802 177.372L435.311 175.472L436.853 173.475Z" fill="#0E1A68"/>
<path d="M445.006 163.112L448.482 165.013L446.938 166.994L443.463 165.094L445.006 163.112Z" fill="#0E1A68"/>
<path d="M442.976 165.694L446.452 167.611L444.909 169.592L441.434 167.676L442.976 165.694Z" fill="#0E1A68"/>
<path d="M440.93 168.293L444.422 170.193L442.862 172.174L439.387 170.274L440.93 168.293Z" fill="#0E1A68"/>
<path d="M438.9 170.892L442.376 172.792L440.833 174.773L437.357 172.873L438.9 170.892Z" fill="#0E1A68"/>
<path d="M447.051 160.514L450.527 162.414L448.984 164.395L445.492 162.495L447.051 160.514Z" fill="#0E1A68"/>
<path d="M432.856 176.43L432.434 176.202L447.099 157.395L467.758 169.283L467.466 169.657L447.213 157.996L432.856 176.43Z" fill="#0E1A68"/>
<path d="M426.359 185.639C426.359 184.908 427.155 184.307 428.162 184.307C429.169 184.307 429.965 184.908 429.965 185.639C429.965 186.369 429.153 186.97 428.162 186.97C427.172 186.97 426.359 186.369 426.359 185.639Z" fill="#293896"/>
<path d="M428.992 182.342C428.992 181.611 429.804 181.01 430.795 181.01C431.785 181.01 432.598 181.611 432.598 182.342C432.598 183.073 431.802 183.674 430.795 183.674C429.788 183.674 428.992 183.073 428.992 182.342Z" fill="#293896"/>
<path d="M430.064 187.409C430.064 186.678 430.876 186.077 431.867 186.077C432.858 186.077 433.67 186.678 433.67 187.409C433.67 188.14 432.874 188.741 431.867 188.741C430.86 188.741 430.064 188.14 430.064 187.409Z" fill="#293896"/>
<path d="M432.711 184.112C432.711 183.381 433.523 182.78 434.514 182.78C435.505 182.78 436.316 183.381 436.316 184.112C436.316 184.843 435.505 185.444 434.514 185.444C433.523 185.444 432.711 184.843 432.711 184.112Z" fill="#293896"/>
<path d="M459.199 193.905L460.482 193.223L506.981 220.021L506.851 265.057L505.584 265.74L505.714 220.703L459.199 193.905Z" fill="#5B68B7"/>
<g opacity="0.46">
<path d="M459.2 193.905L459.07 238.942L505.585 265.74L505.715 220.703L459.2 193.905Z" fill="#BBD2E9"/>
</g>
<mask id="mask0_2067_299694" style="mask-type:luminance" maskUnits="userSpaceOnUse" x="505" y="216" width="12" height="61">
<path d="M516.417 216.479V274.091C516.417 274.821 515.801 275.552 514.774 276.099C512.719 277.21 509.369 277.21 507.299 276.099C506.256 275.536 505.734 274.806 505.734 274.061L505.908 216.448C505.908 217.178 506.43 217.924 507.473 218.487C509.543 219.613 512.893 219.597 514.947 218.487C515.975 217.924 516.417 217.209 516.417 216.479Z" fill="white"/>
</mask>
<g mask="url(#mask0_2067_299694)">
<path d="M516.417 216.479V274.091C516.417 274.821 515.801 275.552 514.774 276.099C512.719 277.21 509.369 277.21 507.299 276.099C506.256 275.536 505.909 274.806 505.924 274.061V216.448C505.924 217.178 506.446 217.924 507.489 218.487C509.559 219.613 512.909 219.597 514.964 218.487C515.991 217.924 516.433 217.209 516.433 216.479H516.417Z" fill="#293896"/>
</g>
<path d="M514.916 214.44C516.986 215.566 517.002 217.376 514.932 218.502C512.877 219.613 509.527 219.628 507.457 218.502C505.387 217.376 505.387 215.566 507.425 214.44C509.48 213.33 512.83 213.33 514.9 214.44H514.916Z" fill="#BBD2E9"/>
<path d="M470.13 238.684L467.984 238.289L466.803 241.083L466.748 241.565L466.697 244.82C466.697 244.82 466.582 247.313 468.11 247.603C469.226 247.817 468.23 247.63 468.23 247.63C469.763 247.91 470.125 246.069 470.125 246.069L471.146 241.176C471.307 240.13 471.116 238.864 470.13 238.684Z" fill="white"/>
<path d="M469.205 240.453C469.572 241.307 468.818 242.441 468.145 242.819C467.909 242.956 468.461 244.638 468.371 245.438C468.281 246.277 467.557 246.222 467.386 246.085C467.25 245.975 466.858 243.285 466.737 242.606C466.335 240.354 466.999 239.888 467.672 239.499C468.346 239.116 468.833 239.593 469.205 240.447V240.453Z" fill="white"/>
<path d="M466.968 241.061C469.174 243.608 470.818 241.532 470.818 241.532C470.818 241.532 471.26 239.099 471.361 238.688C471.904 236.365 473.909 228.383 474.241 225.413C474.608 222.148 474.909 216.253 474.909 216.253C474.909 216.253 478.453 210.588 475.503 209.377C473.814 208.681 469.988 208.709 468.561 216.609C468.194 218.647 467.837 224.109 467.591 226.799C467.133 231.78 466.42 240.003 466.42 240.003C466.42 240.003 466.319 240.31 466.973 241.066L466.968 241.061Z" fill="#C5CDFF"/>
<path d="M479.463 214.356C479.463 214.356 484.771 218.471 485.485 220.585C486.199 222.7 486.199 241.065 484.158 242.396C482.117 243.733 471.773 246.484 469.184 243.328C466.595 240.172 468.023 222.7 469.757 218.92C471.491 215.14 471.994 213.085 471.994 213.085L479.458 214.362L479.463 214.356Z" fill="#C5CDFF"/>
<path d="M468.873 272.41L468.209 273.763C468.209 273.763 462.645 275.796 462.303 275.965C461.911 276.157 461.046 276.491 461.122 277.264C461.142 277.45 461.127 277.571 461.232 277.735C461.599 278.343 462.373 278.623 463.097 278.793C464.671 279.143 468.023 278.743 468.023 278.743C468.998 278.65 470.632 278.19 470.813 278.036C470.813 278.036 471.657 277.801 471.798 278.119C471.848 278.239 471.748 278.754 471.728 278.858L473.834 278.02C473.939 277.971 474.171 276.891 474.236 276.415L474.301 273.248L468.873 272.404V272.41Z" fill="#0E1A68"/>
<path d="M462.218 278.207C462.625 278.437 463.203 278.568 463.781 278.661C466.084 279.023 469.612 278.3 469.612 278.3C469.959 278.223 471.286 277.927 471.286 277.927C471.286 277.927 471.824 277.988 471.804 278.125C471.804 278.059 471.799 278.125 471.824 278.125C471.874 278.146 471.733 278.864 471.733 278.864L471.191 278.464C471.191 278.464 469.572 278.787 469.285 278.87C469.285 278.87 465.893 279.565 463.57 279.226C462.836 279.122 461.61 278.618 461.193 277.872C461.122 277.736 461.042 277.418 461.138 277.204C461.143 277.242 461.665 277.905 462.213 278.218L462.218 278.207Z" fill="#C5CDFF"/>
<path d="M471.799 278.118L474.106 277.11C474.106 277.11 473.89 278.047 473.86 278.025L471.754 278.864C471.764 278.792 471.789 278.316 471.799 278.118Z" fill="#C5CDFF"/>
<path d="M469.888 238.316L467.641 272.317C467.45 273.659 466.706 274.098 467.058 274.563C468.36 276.306 474.221 278.01 475.121 275.183L479.277 240.957L469.893 238.311L469.888 238.316Z" fill="#293896"/>
<path d="M487.54 279.215C487.54 279.215 487.636 282.759 487.646 282.847C487.767 284.425 486.068 288.463 483.625 288.726C483.263 288.764 481.986 288.644 481.986 288.644C481.986 288.644 480.317 288.594 480.644 285.389C480.775 284.146 481.961 279.127 481.961 279.127L487.54 279.22V279.215Z" fill="#293896"/>
<path d="M487.777 278.328C487.777 278.328 487.581 280.366 487.41 283.018C487.309 284.596 485.55 287.949 483.399 288.08C482.841 288.119 482.404 288.064 482.363 288.064C481.438 288.015 480.172 287.653 480.695 284.393C480.886 283.232 481.66 278.75 481.725 278.745L487.777 278.328Z" fill="#0E1A68"/>
<path d="M475.835 240.124C476.267 247.044 480.706 280.831 480.706 280.831C480.771 281.801 481.676 283.176 483.174 283.362C485.024 283.587 486.325 282.573 486.325 282.573C487.512 282.119 487.979 280.639 487.989 280.3L485.416 238.464L475.83 240.129L475.835 240.124Z" fill="#293896"/>
<path d="M485.753 215.178C485.753 215.178 482.732 211.392 481.309 210.85C479.887 210.308 475.378 210.73 475.378 210.73C475.378 210.73 472.809 216.603 472.221 219.572C471.301 224.251 474.538 227.56 474.538 227.56L481.822 223.024L485.753 215.184V215.178Z" fill="#C5CDFF"/>
<path d="M474.352 211.47C476.583 213.87 478.272 211.207 479.71 209.339L479.986 202.622L474.472 204.403L474.352 211.47Z" fill="white"/>
<path d="M477.976 198.956C476.715 198.907 476.539 200.217 476.539 200.217L476.453 202.967C476.453 202.967 476.493 203.57 476.966 203.69C477.675 203.871 478.006 203.202 478.348 202.468C478.368 202.43 478.811 201.34 478.836 201.274C479.213 200.343 479.162 199 477.976 198.956Z" fill="white"/>
<path d="M475.14 211.843C475.446 212.128 475.195 212.5 475.019 212.752L473.913 214.341C473.562 214.812 473.426 214.27 473.426 213.755L473.541 210.057C473.803 207.745 474.496 208.057 474.496 208.057C474.496 208.057 474.597 208.265 474.542 208.747C474.456 209.542 474.074 210.879 475.135 211.848L475.14 211.843Z" fill="#0E1A68"/>
<path d="M479.759 207.701C479.759 207.701 479.86 208.112 479.608 208.638C478.583 210.791 475.572 211.941 475.572 211.941C475.215 212.078 475.225 212.27 475.265 212.922L475.552 215.322C475.592 215.957 475.894 215.903 476.13 215.65C476.13 215.65 478.508 213.541 479.176 212.829C480.754 211.147 480.79 211.251 480.262 209.065C479.94 207.739 479.764 207.695 479.764 207.695L479.759 207.701Z" fill="#0E1A68"/>
<path d="M476.046 195.094L480.695 195.269L480.515 204.419C480.434 205.038 480.439 205.607 480.334 206.133C480.213 206.714 479.952 207.246 479.288 207.766C479.288 207.766 478.489 208.615 477.544 209.377C476.81 209.974 475.9 210.451 475.372 210.336C474.965 210.254 473.719 209.755 473.719 209.755C472.829 209.306 472.678 208.774 472.356 207.678C472.211 207.191 471.467 198.929 471.467 198.929L471.532 195.85L476.051 195.094H476.046Z" fill="white"/>
<path d="M472.094 194.47C470.767 195.226 470.923 197.072 471.044 197.598C471.466 199.417 471.516 199.236 471.491 199.263C471.471 199.285 471.471 198.546 471.461 197.828C471.451 196.754 472.482 196.99 472.909 197.308C473.678 197.894 475.166 198.562 475.206 198.59C475.729 198.94 475.513 198.677 475.558 198.261C475.568 198.168 475.588 197.614 475.588 197.614C475.658 197.664 476.885 198.321 477.201 198.562C478.559 199.647 478.373 202.551 478.468 202.545C478.865 202.529 478.835 202.348 478.961 201.91C478.961 201.91 479.051 199.844 480.579 200.699C481.383 201.148 480.74 203.12 480.685 203.236L480.313 206.227C480.313 206.265 482.59 202.463 482.831 201.893C485.183 196.234 481.429 190.306 476.03 192.185C474.95 192.563 472.094 194.481 472.094 194.481V194.47Z" fill="#633A11"/>
<path d="M480.278 200.222C479.076 200.184 478.86 202.359 478.86 202.359L478.83 204.068C478.83 204.068 478.87 204.644 479.323 204.759C480.006 204.934 480.348 204.485 480.675 203.778C480.695 203.74 481.112 202.693 481.137 202.627C481.494 201.745 481.414 200.261 480.278 200.222Z" fill="white"/>
<path d="M469.078 236.224C469.078 236.224 472.23 241.319 485.299 238.092L485.399 240.426C485.399 240.426 476.517 245.439 470.903 240.426C469.515 239.188 469.078 236.224 469.078 236.224Z" fill="#0E1A68"/>
<path d="M484.486 239.866C473.664 242.43 469.783 238.529 469.477 238.195C469.17 237.861 469.029 236.086 469.029 236.086C469.029 236.086 471.724 241.093 484.38 238.31L484.481 239.866H484.486Z" fill="#0E1A68"/>
<path d="M479.423 242.151L479.87 248.183C479.931 249.011 480.665 249.57 481.399 249.345C482.218 249.098 482.756 248.249 482.69 247.323L482.359 243.011L485.178 242.392L485.063 239.198L479.312 240.179L479.428 242.146L479.423 242.151Z" fill="#0E1A68"/>
<path d="M487.392 246.732C487.366 247.636 486.235 248.184 485.486 248.162C485.225 248.151 484.748 250.326 483.672 250.216C483.672 250.216 483.692 249.63 483.757 248.6C483.757 248.518 483.667 247.636 484.18 247.039C485.527 245.444 485.688 245.137 486.436 245.159C487.185 245.181 487.422 245.828 487.397 246.732H487.392Z" fill="white"/>
<path d="M487.914 244.627L485.767 244.962L485.159 246.55L485.415 248.315C485.415 248.315 485.506 248.797 485.184 249.41C485.059 249.651 484.832 250.062 484.832 250.062C484.832 250.062 484.777 251.854 486.014 251.459C486.416 251.339 486.697 250.977 486.697 250.977C487.235 250.879 488.14 250.605 488.738 250.457C490.12 250.117 489.733 248.325 489.733 248.325L489.517 246.556C489.402 245.559 488.899 244.479 487.914 244.633V244.627Z" fill="white"/>
<path d="M487.608 246.797C488.457 246.83 489.005 246.496 489.005 246.496C489.005 246.496 489.754 246.107 489.794 245.345C489.92 243.072 490.287 232.969 490.005 230.164C489.704 227.074 488.658 220.165 488.658 220.165C488.658 220.165 487.713 214.341 484.607 214.774C482.018 215.136 481.993 218.68 482.28 221.151C482.506 223.096 483.476 229.495 483.843 232.125C484.541 237.138 484.798 245.586 484.798 245.586C484.798 245.586 485.642 246.732 487.608 246.808V246.797Z" fill="#C5CDFF"/>
<path d="M475.804 244.875C474.482 244.875 473.406 243.702 473.406 242.256C473.406 240.809 474.482 239.643 475.804 239.643C477.126 239.643 478.202 240.815 478.202 242.256C478.202 243.697 477.126 244.875 475.804 244.875ZM475.804 240.316C474.819 240.316 474.019 241.193 474.019 242.261C474.019 243.33 474.819 244.212 475.804 244.212C476.789 244.212 477.593 243.335 477.593 242.261C477.593 241.188 476.794 240.316 475.804 240.316Z" fill="white"/>
<path d="M478.262 245.877C476.935 245.877 475.859 244.71 475.859 243.264C475.859 241.817 476.935 240.65 478.262 240.65C479.589 240.65 480.66 241.823 480.66 243.264C480.66 244.705 479.584 245.877 478.262 245.877ZM478.262 241.313C477.277 241.313 476.473 242.19 476.473 243.258C476.473 244.327 477.272 245.209 478.262 245.209C479.252 245.209 480.046 244.332 480.046 243.258C480.046 242.184 479.247 241.313 478.262 241.313Z" fill="white"/>
<path d="M471.83 195.191C474.289 196.528 477.172 197.198 480.053 197.572C477.873 198.535 475.058 199.267 472.545 198.606C471.725 198.386 470.648 198.197 470.262 197.284C469.666 195.877 471.647 195.58 472.369 195.157L471.835 195.197L471.83 195.191Z" fill="#293896"/>
<path d="M470.118 190.993C470.118 190.993 471.443 194.208 471.283 195.628C471.122 197.053 477.878 197.829 479.796 197.71C481.707 197.596 483.223 197.612 484.316 195.898C485.499 194.044 486.031 192.27 486.031 192.27L476.479 192.868L470.113 190.992L470.118 190.993Z" fill="#5B68B7"/>
<path d="M470.075 190.935C471.384 191.074 474.512 189.088 475.226 188.864C476.018 188.606 478.036 189.284 479.871 189.792C482.559 190.536 482.957 191.622 486.041 192.277C484.923 193.565 483.249 194.609 481.469 194.435C480.045 194.296 475.471 193.35 474.061 193.157L470.084 190.942L470.075 190.935Z" fill="#293896"/>
<path d="M471.854 193.426C471.854 193.426 471.79 193.85 471.808 194.292C471.821 194.728 471.631 195.475 472.07 195.723C472.511 195.96 473.288 195.032 473.327 194.776C473.365 194.519 472.707 191.991 471.854 193.426Z" fill="white"/>
<path d="M311.609 179.385C311.609 179.385 307.839 176.356 307.546 173.921C307.261 171.601 308.58 169.117 308.58 169.117C308.58 169.117 311.903 168.303 311.903 170.966C311.903 173.628 312.416 173.482 313.458 174.809C314.785 176.511 314.94 178.025 314.639 178.579C313.751 180.208 311.609 179.393 311.609 179.393V179.385Z" fill="white"/>
<path d="M310.429 178.205C310.429 178.205 310.877 191.364 310.038 195.647C309.257 199.621 304.224 210.768 304.224 210.768C304.224 210.768 302.742 215.792 306.887 214.905C311.024 214.017 315.559 200.638 316.292 195.101C316.838 190.997 314.761 178.205 314.761 178.205C314.761 178.205 314.118 179.581 312.204 179.142C311.7 179.028 310.429 178.205 310.429 178.205Z" fill="white"/>
<path d="M311.162 171.479C311.162 171.479 310.103 170.844 309.794 172.562C309.68 173.213 310.014 174.329 309.647 175.274C309.208 176.397 310.201 177.318 310.201 177.318C310.201 177.318 311.39 179.092 313.084 178.351C313.849 178.018 312.913 176.096 311.83 174.435C311.374 173.735 311.227 172.269 311.162 171.479Z" fill="white"/>
<path d="M303.508 214.562C303.508 214.562 302.807 212.453 304.493 208.088C306.178 203.724 308.295 198.521 308.295 198.521C308.295 198.521 312.066 198.74 314.052 200.597C316.039 202.462 315.901 203.447 315.901 203.447C315.901 203.447 311.821 212.876 309.704 214.147C307.595 215.417 304.216 217.241 303.508 214.57V214.562Z" fill="#5B68B7"/>
<path d="M312.895 293.156C312.895 293.156 311.894 293.645 312.13 295.672C312.285 297.032 312.635 298.929 313.221 299.214C313.807 299.491 315.981 299.719 317.17 299.336C318.359 298.954 320.159 297.83 320.851 297.48C321.543 297.13 322.316 296.657 324.686 295.192C327.886 293.213 328.13 291.715 328.261 290.689C328.391 289.647 328.375 288.775 327.87 288.572C324.89 287.399 320.045 292.285 318.636 291.267C317.227 290.249 312.887 293.156 312.887 293.156H312.895Z" fill="white"/>
<path d="M312.358 292.13C312.358 292.13 311.967 293.278 312.081 295.314C312.195 297.342 312.529 297.993 313.107 298.278C313.694 298.563 315.363 298.709 316.535 298.278C317.472 297.936 318.278 297.537 318.946 297.138C320.126 296.421 321.657 295.534 323.628 294.638C326.681 293.254 328.139 290.16 328.204 289.125C328.261 288.213 326.918 287.22 324.532 288.01C321.095 289.134 319.035 290.306 318.107 290.249C316.364 290.127 312.35 292.138 312.35 292.138L312.358 292.13Z" fill="#293896"/>
<path d="M293.817 286.405C293.817 286.405 289.485 281.422 286.766 282.187C286.179 282.358 284.64 283.767 283.916 284.858C283.566 285.388 282.32 287.309 284.176 288.97C285.08 289.777 286.204 289.345 287.955 291.438C289.705 293.522 293.866 295.069 294.803 295.468C296.627 296.25 298.638 296.258 297.172 293.506C296.277 291.82 294.746 291.6 293.956 290.314C293.068 288.864 293.817 286.414 293.817 286.414V286.405Z" fill="#293896"/>
<path d="M297.67 295.168C297.206 294.353 295.691 294.15 293.843 293.49C292.173 292.888 290.374 291.617 289.388 290.298C288.403 288.979 287.516 286.463 285.374 285.453C284.845 285.201 284.136 285.079 283.688 285.225C282.785 286.365 282.605 287.587 284.169 288.979C285.073 289.785 286.196 289.354 287.947 291.446C289.698 293.531 293.859 295.078 294.795 295.477C296.082 296.031 297.523 296.291 297.67 295.176V295.168Z" fill="white"/>
<path d="M297.132 295.876C297.083 295.803 297.067 295.705 296.994 295.68C294.787 294.711 291.049 294.15 288.989 291.332C286.929 288.515 286.595 287.22 284.413 286.251C283.737 285.95 283.444 286.202 283.273 286.227C282.866 286.504 282.931 287.196 283.574 288.433C284.356 289.948 284.706 290.38 286.05 292.269C287.165 293.84 287.76 294.329 288.696 294.736C289.641 295.135 296.481 296.242 297.132 295.876Z" fill="#0E1A68"/>
<path d="M309.135 227.371C312.058 239.13 310.82 244.83 307.758 257.874C308.76 253.624 307.099 267.255 305.096 271.75C300.593 281.887 293.655 289.541 293.655 289.509C293.631 289.729 291.75 285.959 290.235 284.314C288.346 282.254 286.302 282.237 286.318 282.425C286.318 282.425 294.323 271.123 295.153 266.774C295.862 263.045 296.139 245.196 296.815 238.413C297.083 235.661 305.829 214.082 309.135 227.363V227.371Z" fill="#0E1A68"/>
<path d="M311.106 234.903C312.107 242.858 315.437 251.205 317.726 259.746C316.61 255.586 320.445 267.792 320.624 272.376C320.869 278.581 320.795 289.932 320.82 289.614C320.747 290.624 318.361 294.923 314.623 295.094C312.058 295.208 311.83 294.133 311.847 293.083C311.847 293.083 310.625 273.304 310.063 271.342C308.003 264.087 303.459 254.478 301.53 249.055C300.618 246.482 310.967 233.861 311.097 234.903H311.106Z" fill="#0E1A68"/>
<path d="M305.308 211.802C305.308 211.802 306.635 206.192 304.421 202.145C303.932 201.265 309.982 200.695 309.982 200.695C309.982 200.695 311.342 205.931 311.879 211.256C312.067 213.08 305.3 211.802 305.3 211.802H305.308Z" fill="white"/>
<path d="M305.357 192.748L310.365 190.118L314.045 200.59C315.096 203.456 313.826 204.734 312.995 205.182C311.277 206.119 309.095 206.094 307.816 206.037C305.357 205.923 303.452 202.772 303.297 202.52L299.299 196.461L305.349 192.74L305.357 192.748Z" fill="white"/>
<path d="M304.672 204.465C304.672 204.465 302.563 202.552 299.892 199.783C297.213 197.006 297.205 195.028 297.645 193.423C297.93 192.373 298.044 191.738 298.174 191.078C298.459 189.645 298.272 189.263 298.272 189.263C298.272 189.263 299.493 188.798 299.754 190.028C299.901 190.704 300.357 190.468 300.357 190.468C300.357 190.468 301.236 189.694 300.666 188.741C300.088 187.78 299.713 187.691 299.713 187.691C299.713 187.691 301.415 187.544 302.246 188.334C302.677 188.741 302.726 187.927 302.726 187.447C302.726 186.966 302.384 186.299 302.384 186.299L305.544 187.162C305.544 187.162 305.877 186.926 305.877 186.445C305.877 185.965 305.259 185.582 305.259 185.582C305.259 185.582 307.889 185.696 309.851 188.359C310.519 189.271 310.926 191.095 310.617 192.52C310.332 193.863 310.568 197.495 310.568 197.495C310.568 197.495 311.431 200.223 309.851 198.26C309.037 197.251 308.369 199.987 308.035 202.185C307.685 204.49 306.7 206.012 304.689 204.481L304.672 204.465Z" fill="#160404"/>
<path d="M309.053 197.381C309.053 197.381 308.369 197.951 308.63 198.977C308.817 199.702 309.338 200.084 309.55 200.166C310.112 200.385 310.494 200.263 310.494 200.263C310.494 200.263 309.607 198.789 309.46 198.513C309.314 198.236 309.053 197.381 309.053 197.381Z" fill="white"/>
<path d="M309.223 196.852C309.223 196.852 309.647 196.575 309.704 197.381C309.761 198.179 309.907 198.602 310.103 198.96C310.282 199.286 310.925 200.19 310.925 200.19C310.925 200.19 310.893 200.744 310.282 200.32C309.989 200.117 309.598 199.636 309.207 198.944C309.044 198.659 308.67 196.99 309.215 196.852H309.223Z" fill="white"/>
<path d="M294.494 252.287C294.494 252.287 294.681 246.506 295.903 237.793C296.888 230.758 297.002 228.201 298.264 222.9C299.673 216.989 302.8 208.935 305.796 208.064C308.101 207.388 313.866 210.165 315.047 211.052C315.853 211.655 318.141 216.826 317.441 221.752C317.115 224.048 315.682 229.211 314.623 236.108C314.012 240.114 314.2 241.034 314.623 244.413C314.973 247.206 315.983 251.498 315.608 251.734C303.085 259.616 294.494 252.296 294.494 252.296V252.287Z" fill="#5B68B7"/>
<path d="M310.104 215.214C310.104 215.214 316.756 209.831 320.974 205.157C326.324 199.229 331.902 187.968 331.902 187.968C331.902 187.968 332.179 188.204 334.117 188.147C335.069 188.114 335.159 189.71 335.159 189.71C335.159 189.71 330.005 203.423 324.875 209.644C320.535 214.904 314.875 220.458 314.875 220.458C314.875 220.458 308.369 223.308 307.758 219.391C307.587 218.308 308.638 216.687 310.112 215.214H310.104Z" fill="white"/>
<path d="M331.966 189.776C331.966 189.776 330.158 186.681 330.663 184.906C330.956 183.872 330.419 181.389 331.551 181.796C332.683 182.203 332.088 185.655 332.088 185.655C332.088 185.655 331.974 187.023 334.352 183.823C336.225 181.299 337.43 179.727 338.936 180.802C340.052 181.6 339.042 184.727 337.226 187.553C335.41 190.37 333.888 190.883 333.888 190.883L331.966 189.776Z" fill="white"/>
<path d="M315.282 220.922C316.91 220.026 318.075 219.636 320.957 216.533C320.322 211.884 317.822 210.32 316.194 209.555C313.897 211.802 310.697 214.025 310.184 214.4C309.956 214.644 306.675 216.574 307.489 219.44C308.653 223.528 313.547 221.883 315.282 220.93V220.922Z" fill="#5B68B7"/>
<path d="M367.927 170.301L362.686 170.573L363.122 179.857C363.152 180.538 363.799 181.491 364.295 182.134L365.664 184.003C366.152 184.464 366.807 184.714 367.483 184.683L368.642 184.631L369.755 184.578C370.424 184.547 371.056 184.237 371.499 183.73L372.815 181.521C373.236 180.704 373.673 180.046 373.643 179.365L373.206 170.074L367.927 170.301Z" fill="white"/>
<path d="M372.229 170.119L372.666 179.402C372.696 180.083 372.26 180.742 371.846 181.559L370.53 183.768C370.086 184.275 369.454 184.585 368.785 184.615L369.763 184.57C370.432 184.54 371.064 184.229 371.507 183.723L372.824 181.513C373.245 180.696 373.681 180.038 373.651 179.357L373.215 170.066L372.237 170.112L372.229 170.119Z" fill="white"/>
<path d="M365.094 186.386L365.176 181.302L371.982 180.977L372.396 186.008L365.094 186.386Z" fill="white"/>
<path d="M373.207 173.735H373.591C374.178 173.879 374.824 174.394 374.727 175.286C374.629 176.103 374.569 176.172 374.456 177.178C374.29 178.6 373.117 178.199 373.117 178.199L373.207 173.735Z" fill="white"/>
<path d="M362.972 174.221L362.589 174.266C362.017 174.455 361.415 175.038 361.603 175.915C361.776 176.717 361.844 176.778 362.055 177.769C362.348 179.176 363.476 178.662 363.476 178.662L362.972 174.221Z" fill="white"/>
<path d="M364.191 164.899C364.191 164.899 364.199 164.899 364.222 164.892C364.199 164.892 364.191 164.899 364.191 164.899Z" fill="#561F04"/>
<path d="M374.456 169.075C374.381 167.767 373.26 166.299 372.305 165.52C370.62 164.143 369.041 164.37 369.041 164.37C369.319 164.309 370.117 165.353 369.741 165.678C369.259 166.087 368.928 165.429 368.515 164.778C367.785 163.621 365.98 164.097 365.98 164.097C365.98 164.097 366.92 164.286 366.988 165.277C366.988 165.277 367.026 165.694 366.905 165.784C366.755 165.898 366.83 165.936 366.296 165.33C365.567 164.521 364.401 164.823 364.221 164.876C364.273 164.876 364.431 164.952 364.807 165.489C365.138 165.966 365.01 166.73 364.559 166.685C364.559 166.685 364.484 166.382 364.311 166.117C363.86 165.436 363.19 165.61 363.19 165.61C363.19 165.61 363.702 166.17 363.251 166.851C363.085 167.093 362.724 167.547 362.724 167.547C362.724 167.547 361.243 168.735 361.498 170.679L363.033 178.041V178.079C363.07 178.752 363.717 179.713 364.206 180.356C364.206 180.356 365.364 181.612 367.071 182.535C367.928 182.996 369.41 183.072 370.154 182.353C370.854 181.688 372.079 180.757 372.726 179.736C373.185 179.009 373.531 178.351 373.546 177.708C373.666 176.838 374.523 170.536 374.448 169.068L374.456 169.075Z" fill="#561F04"/>
<path d="M364.212 180.363C364.212 180.363 365.37 181.619 367.077 182.542C367.934 183.004 369.416 183.08 370.16 182.361C370.86 181.695 372.085 180.765 372.732 179.743C373.191 179.017 373.537 178.359 373.552 177.715C373.665 176.906 373.95 175.544 373.996 173.6C374.048 171.739 373.823 168.735 372.559 166.934C371.8 165.852 370.326 165.073 369.709 165.005C369.844 165.255 370.153 165.618 370.017 165.762C370.145 166.011 369.927 166.178 369.769 166.314C369.295 166.723 368.957 166.064 368.543 165.414C368.122 164.748 367.355 164.627 366.776 164.642C366.889 164.801 366.972 165.013 366.994 165.285C366.994 165.285 367.009 165.497 366.979 165.648C367.002 165.731 367.017 165.815 367.024 165.913C367.024 165.913 367.062 166.329 366.942 166.42C366.791 166.533 366.874 166.571 366.332 165.973C365.866 165.451 365.219 165.391 364.768 165.429C364.783 165.451 364.798 165.474 364.821 165.497C365.009 165.762 365.046 166.117 364.971 166.367C365.137 166.821 364.986 167.358 364.603 167.32C364.603 167.32 364.535 167.017 364.355 166.753C364.069 166.321 363.685 166.231 363.452 166.231C363.452 166.329 363.452 166.435 363.415 166.548C363.505 166.775 363.55 167.116 363.294 167.494C363.136 167.736 362.768 168.19 362.768 168.19C362.768 168.19 361.595 169.136 361.52 170.725L363.046 178.048V178.086C363.084 178.759 363.73 179.72 364.219 180.363H364.212Z" fill="#561F04"/>
<path d="M392.722 218.631C392.722 218.631 396.798 221.067 397.31 221.453C397.821 221.839 398.129 221.975 398.565 223.185C398.994 224.373 398.979 226.794 398.039 227.558C396.272 229.004 395.918 228.27 395.602 227.316C394.933 225.296 393.978 224.479 393.978 224.479C393.978 224.479 391.316 223.246 390.677 221.581C390.038 219.917 392.715 218.631 392.715 218.631H392.722Z" fill="white"/>
<path d="M360.731 188.496C360.731 188.496 358.054 186.953 355.249 198.112C354.347 201.691 354.317 203.976 354.106 206.064C353.723 209.779 355.761 212.079 356.655 213.373C359.175 217.012 364.431 222.353 364.431 222.353L368.891 214.916L363.409 197.605L360.731 188.496Z" fill="#C5CDFF"/>
<path d="M360.024 262.065C360.024 262.065 358.784 263.117 358.791 265.001C358.799 266.885 358.866 267.392 359.31 267.778C359.761 268.163 361.265 268.633 362.393 268.557C363.521 268.474 365.055 267.641 365.732 267.452C366.417 267.263 367.928 266.779 369.124 266.106C371.26 264.903 371.267 264.88 371.605 263.987C371.951 263.079 371.387 261.778 370.981 261.49C368.627 259.781 366.499 262.875 365.492 261.642C364.484 260.416 360.017 262.065 360.017 262.065H360.024Z" fill="#293896"/>
<path d="M359.784 261.021C359.784 261.021 358.949 261.937 358.829 263.813C358.731 265.304 358.783 266.355 359.235 266.741C359.686 267.127 360.957 267.581 362.085 267.46C362.987 267.362 364.017 267.119 364.687 266.87C366.883 266.045 367.274 265.743 368.033 265.425C371.034 264.176 371.154 263.518 371.44 262.603C371.696 261.801 370.116 260.242 367.838 260.424C364.566 260.673 366.063 260.863 365.258 260.598C363.754 260.106 359.784 261.014 359.784 261.014V261.021Z" fill="#5B68B7"/>
<path d="M368.755 210.664C372.741 217.685 370.365 239.247 368.695 249.173C367.544 256.005 366.589 262.489 366.83 261.339C366.755 261.702 365.063 263.813 363.423 264.358C361.024 265.152 358.076 264.592 358.941 261.377C358.941 261.377 360.099 247.849 360.663 242.735C361.619 234.08 362.002 230.168 361.731 224.819C361.603 222.3 362.596 199.845 368.748 210.671L368.755 210.664Z" fill="#293896"/>
<path d="M373.667 264.434C373.667 264.434 372.426 265.486 372.434 267.37C372.441 269.254 372.501 269.761 372.953 270.147C373.404 270.525 374.908 271.002 376.036 270.918C377.171 270.835 378.683 269.738 379.375 269.579C380.067 269.42 379.871 269.405 382.338 268.8C385.812 267.952 386.451 267.075 386.79 266.182C387.136 265.274 387.324 264.487 386.925 264.2C384.564 262.49 380.149 265.236 379.142 264.011C378.134 262.785 373.667 264.434 373.667 264.434Z" fill="#293896"/>
<path d="M373.426 263.39C373.426 263.39 372.591 264.306 372.471 266.19C372.373 267.68 372.426 268.732 372.877 269.117C373.328 269.503 374.599 269.957 375.727 269.836C376.622 269.738 377.382 269.466 378.044 269.216C379.149 268.8 379.803 268.686 381.728 268.323C384.714 267.763 386.677 265.804 386.963 264.888C387.218 264.086 386.391 262.777 384.112 262.951C380.841 263.201 379.698 263.239 378.893 262.974C377.389 262.482 373.419 263.39 373.419 263.39H373.426Z" fill="#5B68B7"/>
<path d="M380.361 216.444C382.399 224.01 383.421 238.241 383.166 240.42C383.166 240.481 382.782 247.471 382.015 252.987C381.225 258.669 379.759 264.509 380.112 264.116C379.872 264.388 379.052 265.652 377.465 266.318C375.126 267.294 372.156 266.961 372.773 263.685C372.773 263.685 373.961 246.019 373.991 244.135C374.119 236.955 371.374 225.864 370.291 220.795C369.765 218.328 379.097 211.746 380.361 216.437V216.444Z" fill="#293896"/>
<path d="M360.521 226.674C360.521 226.674 361.002 217.89 360.475 212.344C360.002 207.336 357.355 196.956 357.926 193.241C357.926 193.241 357.324 189.693 361.115 187.726C365.063 185.675 371.62 185.736 372.967 186.061C375.132 186.576 381.87 186.999 381.885 191.705C381.885 193.937 380.359 200.557 380.735 205.936C381.006 209.742 381.66 216.543 381.758 217.603C381.908 219.343 382.803 225.569 382.653 225.683C371.583 233.483 360.521 226.674 360.521 226.674Z" fill="#C5CDFF"/>
<path d="M379.088 188.746C380.426 188.262 382.208 189.223 383.291 194.004C384.314 198.491 385.893 202.667 387.367 205.928C389.037 209.605 393.617 218.495 393.617 218.495C393.617 218.495 394.143 219.16 392.722 220.802C391.594 222.118 390.059 222.217 390.059 222.217C390.059 222.217 384.434 214.523 381.374 209.779C379.644 207.101 377.042 195.419 377.042 195.419C377.042 195.419 375.891 189.904 379.08 188.754L379.088 188.746Z" fill="#C5CDFF"/>
<path d="M225.581 284.153C227.281 284.512 227.562 285.838 226.907 286.992L224.988 289.707C224.27 290.955 223.303 291.548 222.039 291.329C220.448 290.674 220.744 289.879 221.431 287.336L222.289 283.856L225.596 284.153H225.581Z" fill="#5B68B7"/>
<path d="M223.381 293.996C222.757 295.198 222.04 297.476 222.508 298.334C223.319 298.88 224.942 298.88 225.737 298.552C227.843 297.678 228.421 298.037 229.575 297.632C230.792 297.21 231.432 297.101 231.993 295.822C232.212 295.26 231.806 294.23 230.792 294.137C228.904 294.168 227.375 294.059 226.424 293.653L226.595 290.393L224.598 292.109L223.397 294.012L223.381 293.996Z" fill="#5B68B7"/>
<path d="M221.368 287.553C222.007 289.457 224.722 289.301 224.816 286.758L225.315 283.419C227.218 271.921 227.312 272.498 227.546 271.11L227.437 269.628L228.139 261.328L227.749 260.314L220.9 259.159C220.697 260.501 221.259 260.704 221.29 262.966C221.321 264.838 221.805 268.239 221.961 270.579C219.324 276.617 221.976 281.313 221.383 287.553H221.368Z" fill="white"/>
<path d="M226.923 268.208C225.753 274.09 226.908 276.773 226.112 279.129C223.6 284.589 224.224 289.613 223.117 294.59C224.084 296.228 226.112 296.368 227.142 293.451C227.532 292.093 228.312 290.596 228.639 289.66C230.059 285.588 230.512 285.276 231.604 281.734C232.025 280.393 232.399 279.113 232.727 277.881C233.445 275.151 231.806 272.077 232.041 269.69L226.923 268.192V268.208Z" fill="white"/>
<path d="M228.685 262.919C229.137 266.476 228.872 270.72 228.108 275.431C226.485 277.522 219.621 276.742 219.979 273.45C220.136 271.999 220.213 270.189 219.667 268.005L224.395 259.783L228.685 262.919Z" fill="#5B68B7"/>
<path d="M222.086 270.61C223.132 271.328 223.99 272.295 224.458 273.465C225.363 275.727 224.894 277.131 224.894 278.645C224.894 281.344 229.466 281.874 231.915 280.767C232.477 280.517 232.929 280.174 233.194 279.752C233.428 275.384 233.272 271.484 232.617 268.176C232.555 267.864 232.492 267.552 232.414 267.24L222.539 261.53L219.216 263.012C218.28 266.367 219.762 269.003 222.086 270.595V270.61Z" fill="#5B68B7"/>
<g opacity="0.5" style="mix-blend-mode:multiply">
<path d="M228.28 267.443C231.213 270.127 231.868 275.135 231.915 280.767C232.477 280.517 232.929 280.174 233.194 279.753C233.428 275.384 233.272 271.484 232.617 268.177L228.28 267.443Z" fill="#293896"/>
</g>
<path d="M231.93 246.648C231.945 246.772 230.713 250.969 230.713 250.969L224.628 248.005L226.438 243.496L231.93 246.648Z" fill="white"/>
<path d="M235.893 240.313C236.315 237.895 236.611 232.387 228.374 233.558C224.224 234.15 221.681 239.127 224.52 243.574C226.252 246.273 229.481 247.895 231.962 247.037C235.457 245.82 236.533 243.714 235.878 240.313H235.893Z" fill="white"/>
<path d="M231.572 233.059C238.031 234.01 235.893 238.503 235.893 238.503C232.914 239.798 233.756 244.775 231.509 246.117C230.495 246.725 228.935 246.881 227.219 246.288C224.38 245.29 223.35 243.527 222.866 239.798C222.476 236.85 225.113 232.107 231.572 233.074V233.059Z" fill="black"/>
<path d="M233.367 242.653C233.023 242.591 232.664 242.809 232.493 243.106C232.321 243.402 232.259 243.761 232.259 244.12C232.259 244.447 232.259 244.775 232.306 245.087C232.337 245.368 232.43 245.68 232.696 245.789C232.867 245.852 233.07 245.789 233.211 245.68C233.351 245.571 233.445 245.399 233.538 245.243C233.85 244.635 234.49 242.856 233.367 242.653Z" fill="white"/>
<path d="M219.214 263.028C221.476 262.779 224.924 265.571 228.263 267.428C229.838 268.302 231.383 268.957 232.787 268.988C233.068 267.568 233.333 266.102 233.551 264.682C233.942 262.201 234.176 259.892 234.035 258.317C233.801 255.789 233.567 253.371 233.973 251.296C233.973 251.296 230.712 249.502 226.656 246.507C223.754 244.369 222.225 245.118 221.461 245.773C219.401 247.521 220.493 259.253 219.23 263.028H219.214Z" fill="#293896"/>
<g opacity="0.5" style="mix-blend-mode:multiply">
<path d="M228.28 267.428C229.855 268.302 231.4 268.957 232.804 268.988C233.085 267.569 233.35 266.102 233.568 264.682L230.292 254.932C229.169 259.175 230.121 263.684 228.264 267.444L228.28 267.428Z" fill="#5B68B7"/>
</g>
<path d="M232.461 250.642C235.534 251.422 236.018 254.011 235.737 257.803L236.252 264.932L238.842 272.811L236.548 274.012C234.583 271.251 232.789 268.458 232.055 265.556C231.572 263.279 231.213 260.767 231.057 257.881C230.636 254.713 230.62 251.905 232.445 250.626L232.461 250.642Z" fill="white"/>
<path d="M237.64 270.314L239.263 273.778C239.559 274.839 239.871 275.806 239.871 276.68C239.699 277.304 239.606 277.756 239.309 278.255C239.075 278.427 238.904 278.536 238.779 278.552L238.545 278.864L237.781 279.316L236.688 279.566C236.049 279.831 235.846 279.254 236.267 278.926L236.813 278.365L237.11 277.538C237.11 277.538 236.314 276.056 236.22 275.244C236.127 274.449 236.439 273.169 236.439 273.169L235.628 271.126L237.64 270.314Z" fill="white"/>
<path d="M230.839 262.514C230.574 260.845 230.527 259.862 230.418 257.896C229.996 254.729 230.636 251.921 232.461 250.642C235.535 251.422 236.299 253.855 236.018 257.662V261.328C234.958 262.499 232.477 262.655 230.839 262.514Z" fill="#293896"/>
<path d="M206.062 296.322C206.062 296.322 206.125 298.288 202.053 298.412C197.997 298.537 196.015 297.851 196.015 297.851C196.015 297.851 192.864 298.553 191.21 297.632C189.572 296.712 190.071 296.213 190.071 296.213C190.383 294.169 191.148 292.188 192.411 290.284L197.217 289.005L197.591 292.219L200.945 293.794C200.945 293.794 205.704 294.528 206.047 296.322H206.062Z" fill="#0E1A68"/>
<path d="M202.163 272.545L201.352 281.297C201.601 281.313 201.835 281.313 202.054 281.297C204.378 281.235 204.69 280.112 206.297 279.924C208.076 279.722 207.779 280.112 211.976 279.94C216.173 279.784 217.156 277.459 215.44 276.305C213.724 275.151 210.01 275.073 210.01 275.073L208.076 274.355L206.734 273.856L205.907 271.391L204.581 271.796L202.132 272.53L202.163 272.545Z" fill="#0E1A68"/>
<path d="M200.323 255.337L197.484 275.026C200.214 275.431 201.072 275.572 201.883 275.572C202.788 275.572 203.646 275.431 204.473 275.119C204.707 275.041 204.925 274.948 205.159 274.839C205.721 274.573 206.252 274.261 206.782 273.871C209.263 267.397 209.793 260.423 212.211 250.86C212.414 250.095 212.414 249.268 212.211 248.504L211.4 245.508L208.545 234.993L203.428 236.241L199.059 237.318L197.25 237.77L200.588 249.736L200.339 255.337H200.323Z" fill="#0E1A68"/>
<path d="M206.89 238.332C206.89 238.332 210.93 256.445 207.483 267.522C207.483 267.522 201.632 283.591 199.261 290.393C198.621 292.203 196.858 293.357 194.939 293.201C194.206 293.139 193.426 293.029 192.693 292.842C191.273 292.468 190.384 291.064 190.555 289.613C191.101 285.151 192.817 274.23 197.17 265.79L195.204 248.098C192.615 245.009 191.491 241.078 194.237 234.915L206.89 238.347V238.332Z" fill="#293896"/>
<g opacity="0.5" style="mix-blend-mode:multiply">
<path d="M200.619 250.703L200.744 251L204.66 260.189L204.395 272.966L204.332 276.102C204.332 276.102 204.613 276.071 204.941 276.009C205.643 275.899 206.766 275.743 207.889 275.54L206.548 275.041C209.028 268.567 209.559 261.593 211.977 252.029C212.18 251.265 212.18 250.438 211.977 249.674L211.166 246.678L208.311 236.163L203.193 237.411L203.115 238.581L202.741 240.453L200.635 250.703H200.619Z" fill="#293896"/>
</g>
<path d="M246.345 222.185L248.997 222.481L252.944 222.247L256.377 222.575L259.154 223.651L260.714 224.681C260.839 224.759 260.917 224.884 260.948 225.024C260.979 225.164 260.948 225.305 260.87 225.43L260.683 225.71L260.839 225.82C260.932 225.882 260.979 225.976 260.995 226.085C261.01 226.194 260.995 226.303 260.917 226.381C260.729 226.6 260.433 226.693 260.152 226.615L259.778 226.506L259.559 226.725C259.247 227.052 258.748 227.13 258.358 226.896L256.486 225.804L253.818 225.866L255.799 226.428L256.252 226.693C256.439 226.803 256.564 226.974 256.611 227.177C256.657 227.38 256.611 227.598 256.501 227.77C256.423 227.879 256.283 227.926 256.143 227.879L255.082 227.489L252.242 226.99L250.308 226.491L247.936 225.04L245.456 224.072L246.329 222.2L246.345 222.185Z" fill="white"/>
<path d="M229.497 216.506L232.476 218.534C237.172 218.44 248.982 222.481 248.982 222.481L247.922 225.024C241.104 225.539 229.497 223.76 229.497 223.76C228.732 223.526 227.843 223.214 226.876 222.84C228.67 221.483 229.528 219.033 229.481 216.506H229.497Z" fill="#5B68B7"/>
<path d="M225.017 213.245L229.666 216.412C229.713 219.033 228.824 221.576 226.967 222.98C224.799 222.122 222.24 220.968 219.588 219.735L225.033 213.261L225.017 213.245Z" fill="#5B68B7"/>
<path d="M193.752 236.148C194.844 237.349 196.264 238.083 197.777 238.488C202.083 239.705 207.372 238.379 209.603 237.693C210.289 237.49 210.695 237.334 210.695 237.334L218.542 228.535C225.36 223.964 223.659 210.89 223.659 210.89C213.378 204.275 207.153 212.029 200.882 218.503C194.61 224.962 193.736 236.148 193.736 236.148H193.752Z" fill="#5B68B7"/>
<path d="M226.156 247.037L228.153 246.632L231.179 247.037L235.313 248.301L236.842 249.814V250.953L237.232 251.64V252.233L236.125 254.339C236.016 254.557 235.782 254.698 235.548 254.698H235.313L235.157 255.041C235.079 255.197 234.908 255.29 234.736 255.259H234.596C234.596 255.259 234.471 255.181 234.424 255.119C234.393 255.056 234.377 254.994 234.409 254.916L234.502 254.62L234.346 254.448C234.112 254.198 234.081 253.808 234.284 253.512L234.658 252.966L234.315 252.217L231.366 251.624L228.558 249.799L224.268 249.237L226.171 247.037H226.156Z" fill="white"/>
<path d="M228.543 219.751C228.387 219.907 222.817 222.2 222.817 222.2C222.817 222.2 219.385 219.205 220.789 213.385C222.115 213.042 223.66 211.435 225.813 209.953L228.543 219.751Z" fill="white"/>
<path d="M223.239 211.903C223.239 211.903 224.503 205.476 230.931 205.476C230.931 205.476 238.138 206.77 237.748 213.183C237.748 213.183 237 217.208 234.722 218.253L234.41 219.673C234.332 220.016 234.051 220.297 233.708 220.359L232.99 220.5L231.29 221.95C230.634 222.512 229.745 222.746 228.903 222.543C228.107 222.356 227.124 221.872 226.172 220.812C224.082 218.456 223.255 211.903 223.255 211.903H223.239Z" fill="white"/>
<path d="M236.89 215.773C235.174 216.88 231.492 214.587 229.464 216.787C229.464 216.787 226.64 218.815 224.487 216.272C222.334 213.729 222.568 212.403 222.568 212.403C222.568 212.403 224.175 205.772 228.528 205.117C232.475 204.524 234.924 206.272 236.656 208.378C238.388 210.484 239.527 214.057 236.874 215.773H236.89Z" fill="black"/>
<path d="M229.214 215.398C228.933 215.351 228.652 215.398 228.372 215.492C227.654 215.757 227.092 216.381 226.905 217.114C226.811 217.473 226.811 217.894 227.077 218.16C227.264 218.347 227.545 218.425 227.825 218.394C228.091 218.362 228.34 218.253 228.574 218.113C229.058 217.816 229.682 217.317 229.9 216.771C230.134 216.194 229.869 215.523 229.23 215.398H229.214Z" fill="white"/>
<g opacity="0.5" style="mix-blend-mode:multiply">
<path d="M197.777 238.488C202.083 239.705 207.357 238.379 209.588 237.692L210.68 230.562L207.622 225.96C207.622 225.96 204.096 236.382 197.777 238.472V238.488Z" fill="#5B68B7"/>
</g>
<path d="M228.155 246.616L228.561 249.799C228.561 249.799 209.73 253.918 206.22 249.799C206.22 249.799 204.504 248.005 205.689 240.844L207.14 227.973C208.263 219.424 218.56 221.873 216.236 229.72L212.585 244.542L228.171 246.601L228.155 246.616Z" fill="#5B68B7"/>
<path d="M351.191 350.62V354.856C351.191 354.856 352.067 356.536 353.966 356.097C355.865 355.66 357.252 353.761 360.1 352.957C362.948 352.153 364.628 349.159 364.409 348.065C364.19 346.97 362.144 346.094 359.955 347.115C357.764 348.137 351.191 350.62 351.191 350.62Z" fill="#5B68B7"/>
<path d="M351.192 347.626V350.62C351.192 350.62 354.112 351.862 355.281 349.744V345.946L351.192 347.626Z" fill="white"/>
<path d="M360.666 352.731V356.966C360.666 356.966 361.542 358.646 363.441 358.208C365.34 357.769 366.727 355.871 369.575 355.067C372.423 354.264 374.102 351.27 373.883 350.175C373.665 349.08 371.619 348.204 369.429 349.225C367.237 350.249 360.666 352.731 360.666 352.731Z" fill="#5B68B7"/>
<path d="M360.666 349.738V352.731C360.666 352.731 363.587 353.973 364.756 351.855V348.058L360.666 349.738Z" fill="white"/>
<path d="M349.289 297.621C349.289 297.621 346.069 302.067 350.591 309.503L352.125 319.622L349.825 329.435C349.825 329.435 349.289 341.241 351.052 347.834C351.052 347.834 353.973 348.6 355.961 347.298C355.961 347.298 356.418 331.737 358.641 325.22C360.865 318.703 361.4 307.05 361.4 307.05L349.289 297.621Z" fill="#293896"/>
<path d="M350.591 309.504C350.591 309.504 352.277 311.651 355.957 311.804C355.957 311.804 356.111 320.083 354.424 324.376C352.737 328.669 351.971 339.249 352.431 340.782C352.89 342.315 349.364 332.042 349.823 329.435C350.284 326.829 351.511 316.403 350.591 309.504Z" fill="#0E1A68"/>
<path d="M358.512 300.002C358.512 300.002 355.292 304.448 359.815 311.885L361.348 322.003L359.048 331.816C359.048 331.816 358.512 343.622 360.274 350.215C360.274 350.215 363.194 350.981 365.184 349.678C365.184 349.678 365.641 334.118 367.864 327.601C370.087 321.084 370.623 309.431 370.623 309.431L358.512 300.002Z" fill="#293896"/>
<path d="M359.814 311.885C359.814 311.885 361.501 314.031 365.18 314.183C365.18 314.183 365.333 322.463 363.646 326.756C361.96 331.049 361.194 341.628 361.653 343.161C362.113 344.695 358.586 334.422 359.047 331.815C359.507 329.211 360.734 318.784 359.814 311.885Z" fill="#0E1A68"/>
<path d="M370.624 309.431C370.624 309.431 371.496 302.503 370.833 301.507C370.17 300.512 358.512 300.002 358.512 300.002L361.4 307.051C361.4 307.051 368.71 311.007 370.624 309.431Z" fill="#293896"/>
<path d="M349.367 259.238C349.367 259.238 347.077 260.69 347.001 264.734C346.925 268.78 349.056 276.913 349.056 276.913L349.367 259.238Z" fill="#5B68B7"/>
<path d="M366.502 266.109L360.51 262.369L353.45 260.156C353.45 260.156 350.282 258.477 349.366 259.24C348.45 260.004 347.382 265.117 348.221 270.537C349.061 275.956 350.663 289.541 349.289 294.274C347.916 299.007 347.38 303.891 353.449 305.265C359.516 306.639 369.973 304.883 371.042 302.974C372.11 301.067 368.6 294.655 367.836 291.145C367.075 287.632 366.502 266.109 366.502 266.109Z" fill="#5B68B7"/>
<path d="M385.234 267.189L389.264 269.527L379.172 275.442L375.146 273.05L385.234 267.189Z" fill="#293896"/>
<path d="M385.234 266.273L389.264 268.611L379.172 274.526L375.146 272.134L385.234 266.273Z" fill="#5B68B7"/>
<path d="M385.217 266.798L388.477 268.69L380.314 273.473L377.058 271.539L385.217 266.798Z" fill="#BBD2E9"/>
<path d="M375.145 272.134V273.05L376.762 273.094L375.145 272.134Z" fill="#293896"/>
<path d="M379.172 274.526V275.442L389.264 269.526V268.61L379.172 274.526Z" fill="#293896"/>
<path d="M378.723 275.321C378.723 275.321 379.126 273.435 379.67 272.719C380.214 272.003 382.132 270.83 382.189 271.46C382.246 272.089 381.595 272.204 381.505 273.134L385.506 270.789C385.506 270.789 385.996 272.319 385.365 273.607C384.736 274.894 383.448 276.441 382.36 277.042C381.273 277.643 380.901 278.271 380.901 278.271L378.723 275.321Z" fill="white"/>
<path d="M362.293 256.984C362.293 256.984 360.55 261.185 361.121 262.732C361.121 262.732 355.512 263.705 353.451 261.301C353.451 261.301 353.69 257.198 353.714 255.012C353.737 252.827 361.289 253.755 362.293 256.984Z" fill="white"/>
<path d="M361.727 257.504C361.727 257.504 357.862 256.569 357.095 256.408C356.329 256.246 360.672 257.819 360.78 260.504L361.727 257.504Z" fill="white"/>
<path d="M362.443 244.257C362.443 244.257 364.712 245.165 364.813 248.243C364.915 251.321 365.167 251.623 365.167 252.581C365.167 253.54 365.066 256.819 365.167 257.273C365.268 257.727 364.865 257.929 363.804 257.929C362.745 257.929 359.011 256.618 358.053 255.608C357.095 254.6 353.412 255.861 353.412 255.861C353.412 255.861 350.335 240.272 362.443 244.257Z" fill="white"/>
<path d="M364.16 245.852C364.16 245.852 362.914 248.421 362.998 250.008C363.081 251.595 362.736 258.19 363.577 259.777C364.417 261.364 352.894 259.737 350.974 258.63C349.054 257.523 349.221 241.576 355.65 242.243C362.08 242.912 364.97 243.773 364.16 245.852Z" fill="#613722"/>
<path d="M364.277 245.023C364.277 245.023 363.972 243.023 361.078 241.464C358.184 239.906 353.432 242.772 353.432 242.772L358.183 246.308L364.277 245.023Z" fill="#613722"/>
<path d="M363.954 246.307C363.954 246.307 363.555 253.961 364.445 255.631C364.445 255.631 362.609 252.778 362.636 250.767C362.664 248.757 362.767 245.889 363.954 246.307Z" fill="#613722"/>
<path d="M363.993 266.962C363.993 266.962 360.805 270.526 362.7 276.914C364.595 283.301 363.552 287.026 364.484 289.49C365.415 291.954 370.922 303.412 367.301 304.734C367.301 304.734 371.228 304.098 371.243 302.265C371.243 302.265 371.432 300.797 370.247 298.002L368.368 292.862C368.368 292.862 367.657 291.488 367.444 287.722L363.993 266.962Z" fill="#5B68B7"/>
<path d="M371.369 280.592C371.369 280.592 371.827 267.024 366.503 266.108C361.18 265.192 363.642 275.496 364.271 277.787C364.901 280.078 366.332 289.063 368.851 288.492C371.37 287.919 380.815 279.104 380.815 279.104C380.815 279.104 381.616 276.871 378.525 275.212L371.369 280.592Z" fill="#5B68B7"/>
<path d="M371.37 280.591C371.37 280.591 371.479 282.439 371.37 282.937C371.26 283.434 372.279 281.539 372.777 280.757C373.274 279.976 375.146 277.751 375.146 277.751L371.37 280.591Z" fill="#5B68B7"/>
<path d="M359.732 349.433C359.732 349.433 360.237 350.222 360.016 350.886C359.795 351.549 360.26 351.455 362.096 351.328C363.933 351.201 366.144 350.381 365.986 349.686C365.828 348.991 365.608 349.149 365.671 348.391C365.734 347.633 365.104 348.107 364.013 348.391C362.921 348.674 358.879 348.106 359.732 349.433Z" fill="#0E1A68"/>
<path d="M350.637 347.474C350.637 347.474 351.143 348.264 350.922 348.927C350.701 349.591 351.165 349.496 353.002 349.369C354.838 349.243 357.049 348.422 356.89 347.727C356.733 347.033 356.512 347.19 356.575 346.432C356.638 345.674 356.008 346.148 354.917 346.432C353.827 346.716 349.785 346.148 350.637 347.474Z" fill="#0E1A68"/>
</svg>
