<svg width="705" height="468" viewBox="0 0 705 468" fill="none" xmlns="http://www.w3.org/2000/svg">
<rect width="705" height="468" fill="#E0E6F9"/>
<path d="M162.474 195.286L151 188.652V120.445L154.244 122.32L162.474 145.109V195.286Z" fill="#0E1A68"/>
<path d="M186.22 131.387L162.474 145.095L154.244 122.32L151 120.445L174.746 106.737L178.003 108.612L186.22 131.387Z" fill="#5B68B7"/>
<path d="M178.003 108.612L154.244 122.32L151 120.445L174.746 106.737L178.003 108.612Z" fill="#293896"/>
<path d="M186.22 181.565L162.475 195.286V145.109L186.22 131.388V181.565Z" fill="#293896"/>
<path d="M181.3 141.293L180.596 140.881L170.451 146.744L171.156 147.143L181.3 141.293Z" fill="white"/>
<path d="M171.156 147.142L170.451 146.743V153.404L171.156 153.816V147.142Z" fill="white"/>
<path d="M181.301 147.954V141.293L171.156 147.143V153.817L181.301 147.954Z" fill="#0E1A68"/>
<path d="M179.931 145.972V145.095L172.525 149.376V150.253L179.931 145.972Z" fill="#293896"/>
<path d="M156.211 123.038L177.138 110.966L184.251 130.67L163.324 142.742L156.211 123.038Z" fill="white"/>
<path d="M157.209 123.41L176.7 112.148L183.255 130.31L163.764 141.572L157.209 123.41Z" fill="#BBD2E9"/>
<path d="M179.48 125.045L178.469 122.227L170.559 126.787L171.582 129.606L179.48 125.045Z" fill="#293896"/>
<path d="M159.775 124.926L160.799 127.758L168.697 123.197L167.673 120.365L159.775 124.926Z" fill="#293896"/>
<path d="M169.361 123.436L170.372 126.268L178.283 121.708L177.259 118.876L169.361 123.436Z" fill="#0E1A68"/>
<path d="M168.152 120.086L169.176 122.918L177.074 118.357L176.05 115.525L168.152 120.086Z" fill="#5B68B7"/>
<path d="M180.689 128.395L179.665 125.563L171.768 130.124L172.791 132.956L180.689 128.395Z" fill="#293896"/>
<path d="M171.103 129.885L170.093 127.053L162.195 131.613L163.206 134.445L171.103 129.885Z" fill="#5B68B7"/>
<path d="M172.314 133.235L171.29 130.403L163.393 134.964L164.416 137.796L172.314 133.235Z" fill="#293896"/>
<path d="M169.906 126.534L168.882 123.716L160.984 128.276L161.995 131.095L169.906 126.534Z" fill="white"/>
<path d="M178.07 136.027C177.897 135.841 177.272 132.331 177.272 132.331L176.156 130.23C175.637 129.299 175.238 130.044 175.477 130.642L175.81 131.732L175.89 133.354L178.057 136.04L178.07 136.027Z" fill="white"/>
<path d="M179.705 139.311C179.585 139.351 177.604 138.181 177.604 138.181L175.118 136.971L172.937 135.416L171.608 134.592L170.345 134.246C169.587 133.967 169.733 133.395 170.278 133.435L171.661 133.594L172.818 133.94L171.435 132.93L169.627 132.265C169.068 132.052 168.975 131.361 169.667 131.454L172.658 132.238L171.714 131.454L169.8 130.736C169.254 130.55 169.135 129.779 169.999 129.965L171.461 130.31L173.203 131.108L172.671 130.603L171.156 129.606C170.544 129.087 170.81 128.569 171.608 128.941L173.004 129.725C173.549 130.005 174.107 130.39 174.546 130.829L175.424 131.799L176.248 132.571C177.006 133.275 177.803 135.057 178.096 136.041L179.731 139.325L179.705 139.311Z" fill="white"/>
<path d="M205.83 123.104L206.787 128.768C206.973 130.377 206.508 131.533 205.71 132.384C204.367 133.847 202.094 134.419 200.445 134.897C199.966 135.03 199.554 135.176 199.222 135.309L197.055 129.14L198.331 115.738C202.08 115.539 204.447 118.118 205.816 123.104H205.83Z" fill="#293896"/>
<g opacity="0.5" style="mix-blend-mode:multiply">
<path d="M205.725 132.384C204.382 133.846 202.108 134.418 200.46 134.897L199.516 131.333L203.385 124.034L205.725 132.384Z" fill="#5B68B7"/>
</g>
<path d="M189.305 126.773L186.526 126.614L182.909 124.367L180.21 123.702H178.522C178.402 123.702 178.269 123.742 178.163 123.809L177.831 123.995L177.405 124.048C177.126 124.088 176.887 124.287 176.82 124.566L176.381 124.859C176.182 125.058 176.328 125.457 176.607 125.47L177.192 125.391L178.243 125.564L179.958 126.242L181.035 127.81C181.035 127.81 180.888 128.196 180.809 128.223C180.184 128.475 179.054 128.528 179.054 128.528L178.469 128.502C177.963 128.701 177.724 129.153 178.243 129.326L179.054 129.565L182.218 130.018L185.382 129.619L188.706 130.084L189.291 126.773H189.305Z" fill="white"/>
<path d="M194.981 185.513C192.255 186.085 191.817 188.199 192.854 190.034L195.912 194.368C197.055 196.362 198.331 197.134 200.352 196.801C202.16 196.057 202.147 195.246 202.187 193.623L201.921 191.044L200.259 185.048L194.981 185.513Z" fill="#0E1A68"/>
<path d="M201.908 191.377C201.057 194.263 196.39 193.89 196.031 190.035L194.516 178.999L194.197 174.505L191.112 163.896L190.447 161.117L192.628 147.715L204.035 147.196C204.035 147.196 201.576 170.277 201.562 171.195C202.972 177.776 202.28 184.783 201.908 191.377Z" fill="#5B68B7"/>
<path d="M194.901 196.217C195.938 197.959 195.459 200.871 194.847 202.187C193.039 202.865 191.537 202.998 190.487 202.28C187.083 202.081 185.168 202.533 183.413 202.027C181.552 201.496 180.276 200.937 179.318 199.076C178.946 198.238 179.451 196.683 180.98 196.457C183.812 196.337 187.016 196.31 188.399 195.606L190.154 190.992L194.542 194.449L194.887 196.204L194.901 196.217Z" fill="#0E1A68"/>
<path d="M194.462 166.554C194.303 168.988 194.183 171.141 194.289 173.016C196.776 180.674 195.646 189.582 195.486 196.802C193.532 199.913 188.519 197.799 188.014 194.887C185.926 178.933 186.844 183.161 185.355 173.747C184.397 166.541 184.929 153.113 185.328 147.196L196.576 145.88C196.576 145.88 196.576 145.986 196.576 146.039C196.789 147.582 203.955 145.627 204.035 147.209C204.208 150.866 202.626 158.032 195.074 158.91C194.981 158.936 194.476 166.475 194.476 166.581L194.462 166.554Z" fill="#5B68B7"/>
<path d="M189.796 123.689L187.961 115.392L192.561 111.616L195.659 117.958L189.796 123.689Z" fill="white"/>
<path d="M203.412 137.09C203.545 139.045 204.036 147.195 204.036 147.195C201.165 151.995 195.089 153.311 189.691 152.407C187.882 152.101 186.247 151.184 184.997 149.455C183.535 144.15 182.857 138.234 183.216 133.594C183.388 131.24 183.827 129.219 184.572 127.77L190.967 120.524C192.39 119.487 192.749 118.836 197.495 115.99C201.205 114.674 204.236 119.407 203.904 125.098C203.904 125.098 203.279 135.149 203.412 137.09Z" fill="#293896"/>
<path d="M189.317 119.447L187.722 119.208C186.605 119.035 185.635 118.384 185.05 117.426C183.999 115.698 182.59 112.799 183.015 110.313C183.667 106.471 185.581 105.155 189.264 105.474C192.96 105.793 194.888 108 194.848 112.002C194.809 116.004 193.718 115.738 193.718 115.738L189.317 119.447Z" fill="white"/>
<path d="M182.949 111.524L185.302 113.451L186.379 115.286L187.163 115.964L187.735 117.108C188.187 118.012 189.224 118.451 190.195 118.158C191.365 117.799 192.934 117.041 194.223 115.432C194.223 115.432 195.34 114.196 194.968 110.659C194.596 107.109 192.136 105.673 191.086 105.408C190.035 105.142 184.571 104.078 182.576 107.003C180.369 110.247 182.922 111.537 182.922 111.537L182.949 111.524Z" fill="#613722"/>
<path d="M186.433 113.757C186.619 113.718 186.805 113.784 186.951 113.904C187.097 114.023 187.204 114.17 187.297 114.329C187.669 114.941 187.882 115.645 187.922 116.35C187.922 116.536 187.922 116.722 187.869 116.895C187.802 117.068 187.669 117.228 187.483 117.267C187.31 117.307 187.124 117.241 186.978 117.135C186.832 117.028 186.738 116.869 186.645 116.709C186.326 116.191 185.156 114.01 186.419 113.744L186.433 113.757Z" fill="white"/>
<g opacity="0.5" style="mix-blend-mode:multiply">
<path d="M191.831 133.275C194.29 145.095 186.765 144.071 189.677 152.408C187.869 152.102 186.233 151.185 184.984 149.456C183.521 144.151 182.843 138.235 183.202 133.594L191.831 133.275Z" fill="#5B68B7"/>
</g>
<path d="M182.962 136.147L179.89 134.392C177.032 133.302 174.639 136.546 176.181 139.631L183.6 145.135C184.597 145.999 186.046 146.292 187.176 146.145C190.739 144.949 191.205 139.006 191.83 133.289C191.404 127.545 186.232 125.125 183.945 128.914L182.962 136.161V136.147Z" fill="#293896"/>
<path d="M180.941 150.173C180.715 148.551 180.263 147.035 179.146 145.865L173.27 149.256C174.4 150.226 174.918 151.742 175.064 153.563L180.941 150.173Z" fill="white"/>
<path fill-rule="evenodd" clip-rule="evenodd" d="M417.01 170.915L358.805 221.946H340.201L219 154.583L268.268 127.193H286.871L303.681 136.539L271.223 154.583L349.503 198.089L398.407 170.915H417.01Z" fill="#293896"/>
<path fill-rule="evenodd" clip-rule="evenodd" d="M367.351 153.369L361.635 139.492H364.549L368.766 153.369H367.351Z" fill="#0E1A68"/>
<path fill-rule="evenodd" clip-rule="evenodd" d="M354.812 121.516L352.431 127.76L356.297 131.469L368.512 136.688L370.88 130.457L372.309 123.377L371.65 101.422L359.589 94.7197L354.812 121.516Z" fill="#5B68B7"/>
<path fill-rule="evenodd" clip-rule="evenodd" d="M352.432 127.76L347.627 130.43L353.109 145.748L365.32 140.585L368.514 136.687L352.432 127.76Z" fill="#0E1A68"/>
<path fill-rule="evenodd" clip-rule="evenodd" d="M371.652 101.422L370.881 130.457L368.514 136.688L353.833 144.847V147.84L369.901 138.913L372.982 129.284L372.548 100.923L371.652 101.422Z" fill="#293896"/>
<path fill-rule="evenodd" clip-rule="evenodd" d="M363.709 139.358L353.833 144.847V147.841L362.967 142.716L363.709 139.358Z" fill="#293896"/>
<path fill-rule="evenodd" clip-rule="evenodd" d="M441.525 140.153L404.305 153.154L358.805 186.127L350.61 193.423L358.805 221.946L440.447 176.565L437.309 171.562L441.525 140.153Z" fill="#BBDAF9"/>
<path fill-rule="evenodd" clip-rule="evenodd" d="M303.682 100.721L273.171 107.72L271.224 118.765V154.584L303.682 136.539V100.721Z" fill="#FBF5EC"/>
<path fill-rule="evenodd" clip-rule="evenodd" d="M237.603 118.765L358.805 186.127V221.946L237.603 154.583V118.765Z" fill="#5B68B7"/>
<mask id="mask0_2067_300515" style="mask-type:luminance" maskUnits="userSpaceOnUse" x="353" y="127" width="3" height="2">
<path d="M354.827 127.842L355.514 128.273C355.514 128.273 355.388 128.206 355.318 128.165C354.799 127.99 354.211 128.206 353.889 128.367C353.805 128.408 353.735 128.448 353.707 128.462L353.02 128.03C353.02 128.03 353.118 127.976 353.202 127.936C353.524 127.788 354.113 127.558 354.631 127.747C354.701 127.774 354.771 127.801 354.841 127.842H354.827Z" fill="white"/>
</mask>
<g mask="url(#mask0_2067_300515)">
<path d="M353.706 128.475L353.02 128.043C353.02 128.043 353.118 127.989 353.202 127.949C353.524 127.8 354.112 127.571 354.631 127.76C354.701 127.787 354.771 127.814 354.841 127.854L355.527 128.286C355.527 128.286 355.401 128.218 355.331 128.178C354.813 128.003 354.225 128.218 353.902 128.38C353.818 128.421 353.748 128.461 353.72 128.475H353.706Z" fill="#8E8A8B"/>
</g>
<path d="M341.813 92.3596C341.813 92.3596 343.466 97.7675 342.36 100.505C340.973 103.944 340.973 103.256 340.973 103.256C340.973 103.256 343.074 103.512 344.559 103.256C346.576 102.906 348.691 102.096 348.691 102.096L343.999 91.7393L341.785 92.3596H341.813Z" fill="#8D5114"/>
<path d="M337.26 141.785C337.26 141.785 340.65 145.642 341.56 146.357C342.471 147.072 345.819 147.76 346.673 147.894C347.612 148.043 348.522 148.407 349.055 147.287C349.769 145.764 345.693 136.054 345.693 136.054L337.245 136.539V141.785H337.26Z" fill="#363030"/>
<path d="M333.322 161.988C333.322 161.988 335.69 159.088 336.166 158.468C337.539 156.688 336.908 154.665 336.908 154.665L333.799 141.772C333.602 140.949 333.532 139.79 333.981 138.778C334.121 138.468 334.303 138.171 334.569 137.902L347.989 128.502L350.244 129.432C352.822 132.332 351.533 133.654 351.533 135.434C351.533 135.528 344.277 140.477 342.512 141.732C342.288 141.893 341.727 142.716 341.755 142.972C341.965 144.577 342.358 153.262 342.638 156.337L342.75 157.753C342.75 158.4 342.61 158.643 342.134 159.412C341.615 160.261 338.113 162.972 338.113 162.972C338.113 162.972 335.872 164.874 333.686 164.024C332.552 163.592 332.622 162.716 333.21 162.122C333.252 162.095 333.28 162.055 333.322 162.015V161.988Z" fill="#CCA283"/>
<path d="M341.294 162.838L339.501 162.069L340.734 160.693H341.742L341.294 162.838Z" fill="#5C5555"/>
<path d="M342.863 160.464L342.485 162.177C342.485 162.177 342.443 162.487 341.729 162.716C341.546 162.783 341.28 162.837 341.28 162.837L341.126 160.895L342.863 160.464Z" fill="#7C7677"/>
<path d="M332.09 165.534C331.25 165.049 331.6 164.051 331.656 163.943C332.132 163.013 332.917 163.161 332.917 163.161C332.482 163.7 336.755 164.644 334.962 164.307C333.855 164.105 337.259 163.592 338.548 162.878C339.458 162.392 340.383 161.273 340.957 160.733C342.722 159.075 342.821 157.618 342.821 157.618C342.821 157.618 342.975 158.171 342.975 159.061C342.975 160.356 342.414 160.585 342.414 160.585C342.414 160.585 342.344 161.044 341.125 161.556C339.753 162.136 338.814 164.442 337.035 165.305C335.55 166.006 333.309 166.249 332.09 165.534Z" fill="#7C7677"/>
<path d="M332.146 165.116C331.222 164.577 331.376 163.835 332.833 162.419C332.903 162.365 333.239 162.068 333.239 162.068C332.804 162.608 332.917 163.417 334.401 163.66C335.606 163.849 336.895 163.538 338.198 162.581C339.024 161.961 340.271 161.246 341.42 159.87C342.877 158.144 342.652 156.337 342.652 156.337C342.652 156.337 343.717 157.011 343.479 158.629C343.283 159.911 342.765 160.72 342.765 160.72L340.775 161.623C339.445 162.23 339.178 163.916 337.035 164.887C334.836 165.871 333.043 165.656 332.16 165.143L332.146 165.116Z" fill="#4B378D"/>
<path d="M338.871 164.954C338.871 164.954 341.351 161.731 341.813 161.111C343.256 159.169 342.471 156.755 342.471 156.755L339.347 144.725C339.095 143.66 338.563 141.664 340.132 140.073L350.96 129.581C350.96 129.581 355.415 127.571 357.797 130.525C360.22 133.532 360.346 135.326 358.553 137.686C358.497 137.767 349.574 143.363 347.683 144.442C347.038 144.806 347.248 145.656 347.304 145.912C348.369 150.336 348.019 155.285 348.173 158.94V159.169L348.299 160.693C348.299 161.34 348.159 161.583 347.683 162.352C347.164 163.215 343.648 165.912 343.648 165.912C343.648 165.912 341.407 167.813 339.221 166.964C338.087 166.532 338.157 165.642 338.745 165.062C338.773 165.022 338.815 164.995 338.857 164.954H338.871Z" fill="#E8C6AC"/>
<path d="M346.841 165.804L345.048 165.036L346.28 163.66H347.289L346.841 165.804Z" fill="#5C5555"/>
<path d="M348.41 163.431L348.046 165.143C348.046 165.143 348.004 165.454 347.289 165.683C347.107 165.737 346.841 165.791 346.841 165.791L346.673 163.862L348.41 163.431Z" fill="#7C7677"/>
<path d="M337.637 168.501C336.796 168.016 337.147 167.018 337.203 166.91C337.679 165.979 338.463 166.128 338.463 166.128C338.029 166.667 342.302 167.611 340.509 167.274C339.402 167.072 342.806 166.546 344.095 165.844C345.005 165.359 345.93 164.253 346.504 163.7C348.269 162.028 348.381 160.585 348.381 160.585C348.381 160.585 348.521 161.124 348.521 162.014C348.521 163.309 347.961 163.538 347.961 163.538C347.961 163.538 347.891 163.997 346.672 164.509C345.314 165.089 344.375 167.395 342.582 168.258C341.097 168.973 338.856 169.202 337.637 168.488V168.501Z" fill="#7C7677"/>
<path d="M337.708 168.083C336.783 167.544 336.937 166.802 338.394 165.386C338.464 165.319 338.786 165.022 338.786 165.022C338.352 165.575 338.464 166.37 339.949 166.613C341.154 166.802 342.443 166.492 343.731 165.521C344.558 164.9 345.847 164.213 346.953 162.81C348.522 160.828 348.172 159.169 348.172 159.169C348.172 159.169 349.237 159.938 348.998 161.569C348.802 162.851 348.284 163.66 348.284 163.66L346.295 164.563C344.964 165.17 344.698 166.869 342.555 167.827C340.355 168.811 338.562 168.596 337.68 168.083H337.708Z" fill="#4B378D"/>
<path d="M343.816 129.648C342.569 130.659 334.962 136.526 334.85 136.633C333.197 137.942 333.982 138.778 333.982 138.778C333.982 138.724 334.612 137.497 335.719 137.618C338.506 137.928 341.574 139.317 343.451 140.167C347.752 142.136 349.069 147.301 349.069 147.301C349.181 147.409 350.624 145.588 351.002 145.143C351.857 144.105 361.298 141.515 361.873 135.393C362.027 133.68 361.817 131.563 361.284 128.259C361.284 128.259 358.356 132.278 351.31 130.713C345.987 129.54 345.749 127.261 345.749 127.261C345.749 127.53 345.188 128.555 343.83 129.648H343.816Z" fill="#293896"/>
<path d="M331.488 125.548L334.906 127.598C341.084 125.373 341.644 125.211 343.83 123.903C344.81 123.31 345.791 121.948 346.057 120.869L349.041 108.394C350.442 106.304 351.142 101.436 348.41 101.071C344.208 100.532 343.339 106.506 343.087 108.597C342.779 111.118 342.247 117.052 342.107 118.684C342.093 118.94 341.924 119.183 341.686 119.331L331.502 125.548H331.488Z" fill="#0E1A68"/>
<path d="M346.282 101.031L343.915 110.835C343.915 110.835 343.396 112.791 343.592 113.869C343.859 115.393 345.049 116.702 345.119 116.809C345.988 117.942 346.492 119.412 346.212 121.826L345.694 127.706C345.694 127.706 345.357 129.297 349.756 130.889C359.436 134.409 361.635 130.7 361.635 130.7C361.733 130.538 361.859 129.891 361.761 129.419C361.481 128.111 361.243 127.234 360.963 126.25L359.8 121.246C359.576 120.518 359.45 119.763 359.436 119.008L360.809 112.561C360.809 112.561 362.728 108.098 361.103 106.169C359.548 104.294 355.528 101.422 354.001 100.667C353.608 100.478 352.768 100.195 351.787 100.019C351.787 100.019 348.201 99.5879 346.268 101.031H346.282Z" fill="#293896"/>
<path d="M348.522 103.998C351.282 106.062 352.416 103.445 353.789 101.422L353.285 94.3828L347.527 95.4752L348.522 103.998Z" fill="white"/>
<path d="M353.608 99.21C353.608 99.21 353.721 100.1 353.707 100.262C353.412 103 350.106 104.389 350.106 104.389C349.7 104.631 349.77 105.13 349.896 105.764L350.316 107.639C350.443 108.259 350.765 108.165 351.003 107.881C351.003 107.881 353.384 105.508 354.043 104.739C355.584 102.892 355.402 102.514 354.547 100.451C354.043 99.1965 353.608 99.2235 353.608 99.2235V99.21Z" fill="white"/>
<path d="M349.559 104.011C349.868 104.334 349.994 104.591 349.825 104.86L348.551 106.654C348.018 107.355 347.836 106.87 347.78 106.357L347.444 102.716C347.444 100.424 348.074 100.262 348.074 100.262C348.074 100.262 348.088 100.437 348.144 100.909C348.243 101.705 348.607 103.067 349.559 104.011Z" fill="white"/>
<path d="M349.166 84.0113C346.336 84.1461 343.156 86.2904 342.246 88.637C340.845 92.2782 342.568 94.0313 342.54 94.1527C342.344 94.9753 344.753 91.0509 345.748 91.3746C346.854 91.7252 351.127 93.9369 351.295 94.5168C353.565 102.946 352.444 106.128 352.444 106.128C353.452 106.128 357.557 103.08 358.426 100.289C358.818 99.0211 357.949 92.5883 357.641 91.2532C356.534 86.3309 353.747 83.809 349.166 84.0113Z" fill="#8D5114"/>
<path d="M345.609 90.2014C341.812 90.2688 342.289 92.5884 342.723 94.5708C343.087 96.2026 344.292 98.7649 344.292 98.7649C345.259 100.869 346.351 102.19 347.528 102.608C349.307 103.242 350.246 102.406 352.487 100.262C352.515 100.235 352.109 97.268 351.885 96.1621C351.45 94.0853 350.33 90.0935 345.609 90.2014Z" fill="white"/>
<path d="M351.283 87.8418L343.62 88.071C343.62 88.071 343.508 89.3927 344.012 90.7682C346.113 96.4863 352.837 95.9064 352.837 95.9064C353.482 94.9894 351.269 87.8553 351.269 87.8553L351.283 87.8418Z" fill="#8D5114"/>
<path d="M344.74 125.736C344.74 125.736 343.717 125.925 343.787 126.384C343.885 127.179 344.712 128.245 345.216 129C345.44 129.351 345.846 129.634 346.224 129.486C346.603 129.337 347.863 127.908 347.247 126.964C346.631 126.02 345.132 125.48 344.754 125.736H344.74Z" fill="#4B378D"/>
<path d="M346.435 128.002L346.407 127.759L345.777 125.736L340.328 126.411L337.386 128.191C337.386 128.191 336.966 128.568 337.274 128.919C337.4 129.054 337.75 128.946 337.946 128.865C338.436 128.663 339.249 128.272 339.389 128.191C339.795 127.948 340.005 128.434 340.005 128.434C340.075 128.609 340.636 129.485 340.86 129.876C341.126 130.335 341.546 130.456 342.163 130.618C342.989 130.834 343.045 130.591 343.241 130.402C343.297 130.349 343.185 130.119 343.185 130.119C344.726 129.93 346.561 129.135 346.435 128.015V128.002Z" fill="white"/>
<path d="M344.04 125.912C344.04 125.912 345.16 125.75 346.043 127.18C347.178 129.027 346.225 129.445 346.225 129.445C346.225 129.445 351.632 128.205 353.229 127.53C355.401 126.613 355.709 126.263 356.451 125.818C357.698 125.076 357.95 123.673 357.95 123.673L360.836 110.97C361.62 107.477 360.542 105.292 358.048 105.144C354.602 104.928 354.448 109.136 354.266 111.172C354.14 112.601 353.579 119.452 353.243 121.354C353.201 121.597 353.131 122.123 352.417 122.473L344.04 125.912Z" fill="#5B68B7"/>
<path fill-rule="evenodd" clip-rule="evenodd" d="M299.521 114.167L384.875 161.611L361.061 174.84L275.721 127.41L299.521 114.167Z" fill="#BBDAF9"/>
<path fill-rule="evenodd" clip-rule="evenodd" d="M319.021 138.872V138.886V138.899V138.913V138.926V138.94V138.953V138.967V138.98L334.823 147.759H335.355C335.551 147.652 335.747 147.544 335.929 147.436L335.845 147.382V147.355C336.223 147.153 336.602 146.937 336.966 146.735C338.311 146.02 339.642 145.319 340.986 144.617L325.185 135.838H325.031L324.708 136L324.386 136.162L324.064 136.323L323.742 136.485L323.42 136.647L323.097 136.809L322.775 136.971L322.453 137.133L322.131 137.294L321.795 137.456L321.473 137.618L321.136 137.78L320.814 137.942L320.478 138.104L320.156 138.265L319.82 138.427L319.735 138.468L319.651 138.508L319.567 138.549L319.483 138.589L319.399 138.629L319.315 138.67L319.231 138.71L319.147 138.751L319.021 138.872Z" fill="#B0CCE9"/>
<path fill-rule="evenodd" clip-rule="evenodd" d="M325.086 135.568L320.323 137.241L319.693 137.591L319.581 137.78L319.455 137.982V138.994L320.029 138.67V138.427L320.155 138.212L321.262 137.591L325.086 135.865V135.568Z" fill="url(#paint0_linear_2067_300515)"/>
<path fill-rule="evenodd" clip-rule="evenodd" d="M336.125 146.02L332.511 143.349L320.323 137.24L319.693 137.591L319.581 137.78L319.455 137.982L330.452 144.644L335.256 146.761L335.635 146.707L335.845 146.37L336.125 146.02Z" fill="white"/>
<path fill-rule="evenodd" clip-rule="evenodd" d="M340.875 144.348L325.087 135.568L320.325 137.241L336.126 146.02L336.897 146.101L340.875 144.348Z" fill="#FBFAF8"/>
<path fill-rule="evenodd" clip-rule="evenodd" d="M335.256 146.761L319.454 137.981V138.993L335.256 147.772V146.761Z" fill="#BBDAF9"/>
<path fill-rule="evenodd" clip-rule="evenodd" d="M340.875 144.348L336.126 146.02L335.482 146.371L335.384 146.559L335.258 146.762V147.773L335.832 147.449V147.207L335.958 146.991L337.065 146.384L340.875 144.644V144.348Z" fill="#F7F4EF"/>
<path fill-rule="evenodd" clip-rule="evenodd" d="M325.256 135.852C326.082 136.31 336.434 142.069 337.261 142.527C336.589 142.756 335.93 142.999 335.258 143.228C334.599 143.458 333.927 143.7 333.255 143.93H333.128C332.302 143.471 321.95 137.713 321.123 137.254C321.782 137.025 322.454 136.782 323.126 136.553C323.785 136.324 324.457 136.081 325.13 135.852H325.256ZM337.709 142.837C337.037 143.067 336.378 143.309 335.706 143.539C335.048 143.768 334.375 144.011 333.703 144.24C337.709 146.465 332.162 143.39 336.168 145.615H336.294C336.953 145.386 337.625 145.143 338.298 144.914C338.956 144.685 339.628 144.442 340.301 144.213C336.294 141.988 341.842 145.062 337.835 142.837H337.709Z" fill="#293896"/>
<path fill-rule="evenodd" clip-rule="evenodd" d="M325.256 135.608C326.082 136.067 336.434 141.825 337.261 142.284C336.589 142.513 335.93 142.756 335.258 142.985C334.585 143.214 333.927 143.457 333.255 143.687C332.428 143.228 322.076 137.469 321.249 137.011C321.922 136.782 322.58 136.539 323.252 136.31C323.911 136.08 324.583 135.838 325.256 135.608ZM337.835 142.594C337.163 142.823 336.504 143.066 335.832 143.295C335.174 143.525 334.501 143.767 333.829 143.997C337.835 146.222 332.288 143.147 336.294 145.372C336.953 145.143 337.625 144.9 338.298 144.671C338.956 144.442 339.628 144.199 340.301 143.97C336.294 141.745 341.842 144.819 337.835 142.608V142.594Z" fill="#FBFAF8"/>
<path fill-rule="evenodd" clip-rule="evenodd" d="M321.262 137.254L333.267 143.93V143.687L321.262 137.012V137.254ZM333.841 144.24L336.307 145.616V145.373L333.841 143.997V144.24Z" fill="#BBDAF9"/>
<path fill-rule="evenodd" clip-rule="evenodd" d="M337.261 142.527L333.269 143.929V143.687L337.261 142.284V142.527ZM340.301 144.213L336.308 145.615V145.372L340.301 143.97V144.213Z" fill="#F7F4EF"/>
<path fill-rule="evenodd" clip-rule="evenodd" d="M307.926 122.568L308.318 121.772L348.648 127.774L348.27 147.045L307.926 122.568Z" fill="#5B68B7"/>
<path fill-rule="evenodd" clip-rule="evenodd" d="M307.927 141.03V122.567L348.257 128.569L348.271 147.044L307.927 141.03Z" fill="#293896"/>
<path fill-rule="evenodd" clip-rule="evenodd" d="M351.451 156.943L359.52 163.43H360.444L366.174 160.517L359.044 154.03L351.451 156.943Z" fill="#B0CCE9"/>
<path fill-rule="evenodd" clip-rule="evenodd" d="M360.444 163.43L358.847 160.26L369.998 157.968V159.761L360.444 163.43Z" fill="white"/>
<path fill-rule="evenodd" clip-rule="evenodd" d="M352.389 155.163L360.444 161.637L369.998 157.968L361.929 151.495L352.389 155.163Z" fill="#293896"/>
<path fill-rule="evenodd" clip-rule="evenodd" d="M360.443 163.43V161.636L352.388 155.163V156.943L360.443 163.43Z" fill="#BBDAF9"/>
<path fill-rule="evenodd" clip-rule="evenodd" d="M360.444 161.825V161.636L369.998 157.968V158.157L360.444 161.825ZM360.444 163.43L369.998 159.761V159.573L360.444 163.241V163.43Z" fill="#0E1A68"/>
<path fill-rule="evenodd" clip-rule="evenodd" d="M287.839 124.875L294.872 128.786H296.048L303.949 123.972L296.511 120.061L287.839 124.875Z" fill="#B0CCE9"/>
<path fill-rule="evenodd" clip-rule="evenodd" d="M288.428 125.023L295.852 129.149H296.665L305 124.065L297.576 119.938L288.428 125.023Z" fill="#B0CCE9"/>
<path fill-rule="evenodd" clip-rule="evenodd" d="M296.664 129.149V128.367L289.24 124.24V125.022L296.664 129.149Z" fill="#BBDAF9"/>
<path fill-rule="evenodd" clip-rule="evenodd" d="M289.24 124.24L296.665 128.367L300.209 126.884L305.826 123.283L298.402 119.156L289.24 124.24Z" fill="#FDFAF5"/>
<path fill-rule="evenodd" clip-rule="evenodd" d="M296.006 128.003H296.875L304.775 123.175L297.771 119.507L289.24 124.24L296.006 128.003Z" fill="#B0CCE9"/>
<path fill-rule="evenodd" clip-rule="evenodd" d="M289.843 122.555L296.876 126.466L300.224 125.063L305.547 121.651L298.515 117.74L289.843 122.555Z" fill="#293896"/>
<path fill-rule="evenodd" clip-rule="evenodd" d="M296.875 128.003V126.466L289.843 122.555V124.092L296.875 128.003Z" fill="#BBDAF9"/>
<path fill-rule="evenodd" clip-rule="evenodd" d="M296.665 129.15V128.367L299.62 126.722L305.826 123.283L305.812 124.065L296.665 129.15Z" fill="white"/>
<path fill-rule="evenodd" clip-rule="evenodd" d="M296.876 128.003V126.466L299.677 124.915L305.547 121.651V123.175L296.876 128.003Z" fill="white"/>
<path fill-rule="evenodd" clip-rule="evenodd" d="M424.715 130.808L441.525 140.153L435.74 143.377H408.928L405.524 141.475L424.715 130.808Z" fill="#BBDAF9"/>
<path fill-rule="evenodd" clip-rule="evenodd" d="M329.149 139.034V137.821L330.326 135.366L329.948 137.362L329.149 139.034Z" fill="#BBDAF9"/>
<path fill-rule="evenodd" clip-rule="evenodd" d="M329.99 136.054L330.326 135.366V136.58L329.948 137.362L329.99 136.054Z" fill="#BBDAF9"/>
<path fill-rule="evenodd" clip-rule="evenodd" d="M329.359 137.376L329.149 137.821L328.421 143.067L329.149 153.316L329.359 152.871V137.376Z" fill="#BBDAF9"/>
<path fill-rule="evenodd" clip-rule="evenodd" d="M324.709 137.161L327.048 137.511L329.149 137.821L330.326 135.367L328.169 135.057L325.885 134.706L324.709 137.161Z" fill="#5B68B7"/>
<path fill-rule="evenodd" clip-rule="evenodd" d="M324.694 137.159L329.148 137.82V153.315L324.694 152.655V137.159Z" fill="#0E1A68"/>
<path fill-rule="evenodd" clip-rule="evenodd" d="M405.524 141.475L441.525 140.154L358.805 186.127L237.604 118.765L286.872 91.375L303.682 100.721L271.224 118.765L358.805 167.449L405.524 141.475Z" fill="#FDFAF7"/>
<g opacity="0.21" style="mix-blend-mode:multiply">
<path d="M233.29 185.79C232.828 186.073 232.856 186.72 233.332 186.99L237.647 189.364C238.277 189.714 239.076 189.701 239.706 189.35L256.642 179.667C257.077 179.411 257.048 178.791 256.586 178.575L250.885 175.932C250.226 175.622 249.428 175.675 248.812 176.067L233.29 185.803V185.79Z" fill="#B0CCE9"/>
</g>
<path d="M253.035 176.39C253.035 176.565 252.965 176.754 252.839 176.902L253.035 176.39Z" fill="#6D340F"/>
<path d="M253.02 174.422C256.788 169.58 257.376 164.496 257.404 164.227V165.157L257.292 165.723C256.984 167.355 255.989 171.441 253.034 175.204V174.422H253.02Z" fill="#0E1A68"/>
<path d="M243.494 181.69C243.494 181.852 243.424 182.041 243.312 182.189L243.494 181.69Z" fill="#6D340F"/>
<path d="M237.484 189.903L232.525 187.139C232.315 187.017 232.189 186.774 232.189 186.424L237.148 189.188C237.148 189.539 237.274 189.782 237.484 189.89V189.903Z" fill="#733A19"/>
<path d="M237.107 175.501V176.418L237.219 176.863C237.849 179.344 239.404 180.909 241.533 181.313C241.533 181.313 245.946 180.706 247.305 179.938C248.734 179.142 250.961 177.186 251.227 177.052L253.048 175.191C256.004 171.428 256.999 167.342 257.307 165.71L257.419 165.144L257.461 177.915C257.461 178.616 256.957 179.452 256.326 179.816L238.311 189.823C237.681 190.173 237.177 189.877 237.177 189.189L237.135 175.501H237.107Z" fill="#5B68B7"/>
<path d="M237.107 175.648L232.162 172.884V172.735L237.107 175.5V175.648Z" fill="#5C361D"/>
<path d="M237.107 175.648C237.653 178.413 239.278 180.139 241.533 180.557C241.533 180.584 241.533 180.625 241.533 180.638V181.313C239.418 180.908 237.863 179.357 237.233 176.862L237.121 176.417V175.648H237.107Z" fill="#0E1A68"/>
<path d="M257.461 164.352C257.433 164.621 256.859 169.705 253.076 174.547V174.385C253.076 174.102 252.88 173.994 252.628 174.129L251.577 174.722C251.325 174.857 251.115 175.194 251.115 175.477V176.718C250.064 177.716 248.832 178.647 247.389 179.442C246.03 180.198 244.727 180.629 243.537 180.777V179.698C243.537 179.429 243.326 179.307 243.088 179.456L242.024 180.036C241.799 180.17 241.617 180.454 241.575 180.71C239.32 180.292 237.695 178.566 237.149 175.801V175.653L243.494 172.133L244.419 171.62L250.135 168.438L251.059 167.912L257.447 164.365L257.461 164.352Z" fill="#5B68B7"/>
<path d="M252.445 161.447L257.404 164.225L237.106 175.5V176.417L237.148 189.188C237.148 189.538 237.274 189.781 237.484 189.889L232.525 187.125C232.315 187.003 232.189 186.76 232.189 186.41L232.147 172.722L252.445 161.447Z" fill="#0E1A68"/>
<path d="M243.523 180.57C244.714 180.435 246.017 180.004 247.376 179.249C248.804 178.453 250.037 177.522 251.102 176.524L251.578 176.646L251.466 176.983C250.415 177.981 248.804 179.222 247.376 180.017C246.017 180.772 244.714 181.204 243.523 181.339V180.584V180.57Z" fill="#0E1A68"/>
<path d="M241.941 181.757V182.796C241.941 182.917 241.997 182.998 242.053 183.038L241.857 182.931C241.787 182.89 241.745 182.809 241.745 182.674V181.649L241.941 181.757Z" fill="#0E1A68"/>
<path d="M241.94 181.758L241.744 181.663L243.355 180.76L243.551 180.868L241.94 181.758Z" fill="#EA931B"/>
<path d="M243.551 180.868V181.907C243.551 182.136 243.369 182.446 243.159 182.554L242.332 183.012C242.108 183.134 241.94 183.026 241.94 182.797V181.758L243.551 180.868Z" fill="#293896"/>
<path d="M241.842 179.816L242.907 179.223C243.033 179.155 243.145 179.155 243.229 179.196L243.621 179.425C243.537 179.384 243.425 179.384 243.299 179.452L242.248 180.045C242.024 180.167 241.8 180.517 241.8 180.8V182.041L241.408 181.825V180.585C241.408 180.301 241.632 179.951 241.856 179.829L241.842 179.816Z" fill="#293896"/>
<path d="M243.298 179.451C243.55 179.316 243.746 179.424 243.746 179.708V180.962L241.785 182.041V180.8C241.785 180.517 241.995 180.18 242.233 180.045L243.284 179.451H243.298Z" fill="#BBDAF9"/>
<path d="M251.593 176.512V177.551C251.593 177.672 251.649 177.753 251.719 177.807L251.523 177.685C251.439 177.645 251.397 177.564 251.397 177.443V176.404L251.593 176.512Z" fill="#0E1A68"/>
<path d="M251.592 176.512L251.396 176.417L253.007 175.514L253.203 175.622L251.592 176.512Z" fill="#EA931B"/>
<path d="M253.203 175.622V176.661C253.203 176.903 253.021 177.2 252.811 177.321L251.998 177.78C251.774 177.901 251.606 177.807 251.606 177.551V176.512L253.217 175.622H253.203Z" fill="#293896"/>
<path d="M251.493 174.584L252.543 174.004C252.669 173.936 252.796 173.923 252.866 173.977L253.258 174.206C253.174 174.152 253.062 174.165 252.936 174.233L251.885 174.826C251.885 174.826 251.787 174.88 251.745 174.921C251.745 174.921 251.717 174.921 251.717 174.934C251.549 175.096 251.423 175.339 251.423 175.568V176.809L251.03 176.593V175.339C251.03 175.056 251.241 174.705 251.479 174.584H251.493Z" fill="#293896"/>
<path d="M252.95 174.219C253.202 174.084 253.398 174.192 253.398 174.462V175.716L251.451 176.808V175.568C251.451 175.285 251.647 174.947 251.9 174.813L252.95 174.219Z" fill="#BBDAF9"/>
<path d="M239.979 169.727V170.173C239.866 170.105 239.81 170.024 239.81 169.957V169.512C239.81 169.593 239.866 169.674 239.979 169.741V169.727Z" fill="#BBDAF9"/>
<path d="M243.229 170.16V170.605C243.229 170.673 243.158 170.767 243.06 170.821V170.376C243.158 170.322 243.229 170.241 243.229 170.16Z" fill="#BBDAF9"/>
<path d="M243.074 170.389V170.834L242.514 171.13V170.685L243.074 170.389Z" fill="#BBDAF9"/>
<path d="M241.73 170.686L241.716 171.131L239.979 170.16V169.729L241.73 170.686Z" fill="#5B68B7"/>
<path d="M242.514 170.687V171.132C242.304 171.253 241.939 171.253 241.715 171.132V170.687C241.939 170.808 242.29 170.808 242.514 170.687Z" fill="#BBDAF9"/>
<path d="M243.06 169.944C243.285 170.065 243.285 170.267 243.06 170.389L242.514 170.685C242.304 170.807 241.94 170.807 241.73 170.685L239.979 169.714C239.754 169.593 239.754 169.391 239.979 169.269L240.525 168.959C240.735 168.838 241.099 168.838 241.309 168.959L243.06 169.93V169.944Z" fill="#293896"/>
<path d="M246.59 166.006V166.451C246.478 166.397 246.422 166.302 246.422 166.221V165.776C246.422 165.857 246.478 165.952 246.59 166.006Z" fill="#BBDAF9"/>
<path d="M249.84 166.437V166.882C249.84 166.962 249.784 167.043 249.672 167.111V166.666C249.784 166.598 249.84 166.531 249.84 166.437Z" fill="#293896"/>
<path d="M249.672 166.666V167.111L249.126 167.408V166.976L249.672 166.666Z" fill="#293896"/>
<path d="M248.34 166.976L248.326 167.407L246.589 166.436V166.005L248.34 166.976Z" fill="#5B68B7"/>
<path d="M249.125 166.977V167.408C248.915 167.529 248.551 167.529 248.327 167.408V166.977C248.551 167.098 248.915 167.098 249.125 166.977Z" fill="#BBDAF9"/>
<path d="M249.672 166.221C249.896 166.343 249.896 166.545 249.672 166.666L249.125 166.976C248.915 167.098 248.551 167.098 248.341 166.976L246.59 166.005C246.366 165.884 246.366 165.682 246.59 165.56L247.136 165.25C247.36 165.129 247.725 165.129 247.935 165.25L249.672 166.221Z" fill="#5B68B7"/>
<path d="M246.478 165.062L247.262 165.507C247.655 165.722 247.921 166.1 248.047 166.639L247.248 166.194C247.122 165.668 246.842 165.277 246.464 165.062H246.478Z" fill="#8D542D"/>
<mask id="mask1_2067_300515" style="mask-type:luminance" maskUnits="userSpaceOnUse" x="246" y="165" width="3" height="2">
<path d="M246.478 165.062L247.262 165.507C247.655 165.722 247.921 166.1 248.047 166.639L247.248 166.194C247.122 165.668 246.842 165.277 246.464 165.062H246.478Z" fill="white"/>
</mask>
<g mask="url(#mask1_2067_300515)">
<path d="M248.061 166.627L247.262 166.182C247.136 165.656 246.856 165.265 246.478 165.049L247.262 165.494C247.654 165.71 247.92 166.087 248.047 166.627H248.061Z" fill="#0E1A68"/>
</g>
<path d="M247.122 163.997C244.922 162.756 241.154 166.209 240.622 169.863L241.406 170.308C241.925 166.653 245.693 163.201 247.906 164.442L247.122 163.997Z" fill="#0E1A68"/>
<path d="M245.204 164.652C247.095 163.6 248.664 164.293 248.986 166.113L248.062 166.626C247.754 165.358 246.591 164.927 245.204 165.709C243.803 166.478 242.654 168.19 242.346 169.809L241.422 170.321C241.73 168.15 243.299 165.704 245.204 164.652Z" fill="#5B68B7"/>
<path d="M258.786 122.757C258.786 122.757 252.93 131.01 251.501 136.243C251.123 137.645 251.207 139.816 252.79 141.88C255.228 145.089 260.649 150.416 260.649 150.416L260.789 143.943C260.789 143.943 257.077 138.994 257.217 137.753C257.441 135.798 260.355 131.968 260.355 131.968L258.786 122.743V122.757Z" fill="#0E1A68"/>
<path d="M281.256 187.111C281.256 187.111 281.746 187.88 283.063 188.258C284.072 188.541 286.677 188.514 286.677 188.514C288.05 188.554 289.871 188.554 290.249 189.809C290.249 189.809 290.404 190.442 290.376 190.645C290.277 191.373 289.577 191.724 288.737 192.101C288.737 192.101 287.196 192.789 285.851 193.14C284.114 193.612 283.133 193.652 281.844 193.571C281.844 193.571 280.219 193.45 279.575 193.504C278.861 193.558 279.029 194.057 279.001 194.704L276.773 195.486C274.518 195.958 272.823 194.111 272.837 193.612L273.005 188.73L281.27 187.125L281.256 187.111Z" fill="#5B68B7"/>
<path d="M280.359 193.316C280.975 193.316 282.782 193.477 284.575 193.113C286.271 192.776 288.946 191.562 288.946 191.562C289.703 191.225 290.319 190.713 290.333 190.281C290.361 190.443 290.375 190.618 290.375 190.699C290.277 191.428 289.577 191.778 288.736 192.156C288.736 192.156 287.195 192.844 285.85 193.194C284.113 193.666 283.133 193.693 281.844 193.612C281.844 193.612 279.981 193.518 279.911 193.518C279.476 193.491 279.07 193.639 279.07 193.707C279.07 193.68 279.224 193.289 280.359 193.302V193.316Z" fill="#383736"/>
<path d="M276.8 194.61L279.014 193.855C279.014 194.071 279.014 194.57 279 194.785L276.772 195.568C274.517 196.04 272.822 194.206 272.836 193.693L272.878 192.749C272.864 193.261 274.559 195.096 276.814 194.624L276.8 194.61Z" fill="#383736"/>
<path d="M265.188 182.297C265.188 182.297 265.37 183.578 266.659 183.686C267.458 183.753 268.606 183.78 268.606 183.78C269.965 183.537 271.674 183.564 271.982 184.535C271.982 184.535 272.122 184.913 272.108 185.115C272.038 185.843 272.304 185.236 271.282 186.113C271.282 186.113 269.377 187.583 268.144 188.069C266.813 188.594 265.917 188.567 265.426 188.514C265.426 188.514 264.39 188.541 263.787 188.608C263.115 188.689 263.283 189.498 263.283 190.145L261.21 190.968C259.095 191.507 257.442 189.741 257.442 189.242V184.104L265.188 182.27V182.297Z" fill="#5B68B7"/>
<path d="M264.529 188.419C265.117 188.419 265.79 188.312 267.541 187.853C268.997 187.462 271.141 186.019 271.141 186.019C271.645 185.655 272.065 185.21 272.065 184.778C272.093 184.94 272.107 185.102 272.121 185.196C272.177 185.844 271.575 186.208 271.085 186.545C271.085 186.545 269.418 187.745 268.157 188.136C266.532 188.649 266.28 188.608 265.551 188.622C265.551 188.622 264.627 188.662 264.01 188.689C263.744 188.689 263.352 188.851 263.352 188.932C263.352 188.892 263.45 188.446 264.529 188.419Z" fill="#383736"/>
<path d="M261.208 190.402L263.267 189.593C263.267 189.809 263.281 190.024 263.281 190.227L261.208 191.049C259.093 191.589 257.44 189.822 257.44 189.323V188.676C257.44 189.175 259.093 190.928 261.208 190.389V190.402Z" fill="#383736"/>
<path d="M271.058 106.453L275.568 106.979L273.677 118.132C273.201 121.341 271.744 121.719 270.735 121.638C268.62 121.49 266.533 120.869 265.412 120.114C263.241 118.631 263.465 114.167 263.479 113.857L263.381 106.291L271.058 106.439V106.453Z" fill="white"/>
<path d="M262.162 127.518V121.476L263.045 114.706L269.629 116.163L268.873 122.69C268.873 123.62 269.559 123.877 270.063 124.672L272.851 128.947C273.523 129.972 274.91 131.617 274.91 134.503V150.403L261.434 152.21V131.118C261.434 129.891 261.686 128.664 262.162 127.518Z" fill="white"/>
<path d="M270.496 146.681V149.634C270.496 151.832 269.95 155.554 269.95 155.554L259.457 155.932C258.141 155.676 257.636 153.95 257.636 152.196V146.681H270.496Z" fill="#16556E"/>
<path d="M274.657 105.4C276.506 106.29 275.89 109.015 275.89 109.015C275.89 108.947 274.027 110.916 274.027 111.01C274.027 111.064 272.808 114.827 272.808 114.827C272.78 115.259 272.135 115.838 271.869 115.191C271.561 114.463 272.149 113.964 271.841 113.586C271.533 113.195 270.622 113.006 269.558 115.339L268.955 117.16C267.961 119.21 266.14 119.21 264.851 118.846C264.851 118.846 263.128 118.293 262.526 117.632C262.231 117.308 261.405 113.694 261.055 112.615C259.766 108.596 261.587 101.071 270.16 103.553C272.472 104.227 274.643 105.4 274.643 105.4H274.657Z" fill="#895B13"/>
<path d="M268.646 149.459C268.646 149.459 266.993 165.359 266.321 170.645C265.635 176.013 266.209 183.444 266.209 183.444C266.209 183.444 265.495 186.748 261.782 187.584C259.611 188.056 257.93 188.272 257.061 186.761C257.061 186.761 256.123 176.539 256.921 167.894C257.496 161.704 257.454 151.59 257.454 151.59L268.646 149.459Z" fill="#0E1A68"/>
<path d="M273.213 155.096C273.213 155.096 276.786 165.83 278.649 173.949C280.442 181.784 280.372 182.068 281.338 185.79C281.913 187.988 282.851 188.271 282.655 188.271C282.361 188.271 277.654 194.461 272.793 191.44C272.793 191.44 270.076 180.746 268.647 175.891C267.134 170.766 265.215 166.815 262.637 161.717C261.054 158.575 259.499 153.181 259.499 153.181L273.227 155.109L273.213 155.096Z" fill="#293896"/>
<path d="M263.171 119.574C262.386 119.399 262.176 119.534 262.022 119.992C261.868 120.451 261.882 120.478 261.7 120.923C261.546 121.287 261.728 121.314 261.728 121.314C261.728 121.314 265.678 122.366 268.62 124.294C270.707 125.656 270.861 125.791 270.861 125.791L270.371 124.254C269.993 122.946 268.41 121.637 266.056 120.639C266.056 120.639 264.123 119.817 263.171 119.588V119.574Z" fill="#E4EFF5"/>
<path d="M271.869 113.21C271.869 113.21 270.847 113.304 270.482 114.356C270.23 115.098 270.482 115.732 270.622 115.921C271.001 116.42 271.421 116.541 271.421 116.541C271.421 116.541 271.477 114.747 271.505 114.424C271.533 114.1 271.855 113.223 271.855 113.223L271.869 113.21Z" fill="white"/>
<path d="M272.262 113.074C272.262 113.074 272.808 113.074 272.388 113.803C271.968 114.544 271.87 114.989 271.842 115.407C271.814 115.799 271.87 116.958 271.87 116.958C271.87 116.958 271.519 117.43 271.211 116.702C271.057 116.351 270.987 115.718 271.043 114.895C271.057 114.558 271.688 112.886 272.276 113.074H272.262Z" fill="#FDFDFD"/>
<path d="M269.404 159.6C269.404 159.6 268.199 160.908 265.005 159.829C261.811 158.75 258.519 156.094 258.519 156.094L258.925 154.246C258.925 154.246 267.176 157.847 268.689 157.361C270.202 156.862 269.39 159.614 269.39 159.614L269.404 159.6Z" fill="#292928"/>
<path d="M273.256 127.733C275.077 129.095 275.623 130.349 275.623 134.88L275.175 155.5C275.175 156.282 275.217 158.386 271.028 159.007C269.711 159.209 267.82 159.762 264.851 158.818C263.632 158.427 257.258 155.595 257.258 153.936L257.062 131.387C257.16 128.717 257.328 125.44 257.762 124.024C258.771 120.814 261.713 121.205 261.713 121.205C261.713 121.205 266.644 122.797 269.249 124.712C270.51 125.642 270.664 125.737 273.256 127.733Z" fill="#293896"/>
<path d="M296.566 144.779L301.119 146.06C301.119 146.06 303.501 148.218 304.481 148.825C305.462 149.432 303.781 150.713 302.31 150.646C300.839 150.578 298.948 149.162 298.948 149.162L294.955 147.949L296.566 144.779Z" fill="white"/>
<path d="M296.987 147.611C296.623 148.461 296.049 148.865 296.049 148.865C296.049 148.865 295.334 149.445 294.62 149.176C292.476 148.366 283.413 144.159 280.947 142.743C278.244 141.192 271.828 136.067 271.828 136.067C271.828 136.067 266.911 132.763 268.774 129.877C270.329 127.477 272.851 128.421 274.98 129.715C276.661 130.727 285.066 137.551 285.066 137.551L297.197 144.348C297.197 144.348 297.856 145.642 297.001 147.611H296.987Z" fill="#5B68B7"/>
<path d="M391.502 160.531L389.358 159.331L389.372 163.647L391.516 164.847L391.502 160.531Z" fill="#5B68B7"/>
<path d="M400.705 155.406L398.576 154.22L389.358 159.331L391.502 160.531L400.705 155.406Z" fill="#787474"/>
<path d="M391.501 160.531L391.515 164.846L400.719 159.722L400.705 155.406L391.501 160.531Z" fill="#BBDAF9"/>
<path d="M382.409 141.234L394.904 134.315C395.282 134.1 395.675 134.032 396.039 134.086C396.795 134.194 397.566 134.315 398.322 134.423C397.958 134.369 397.566 134.437 397.202 134.652L384.706 141.571C383.585 142.191 382.997 143.796 383.389 145.172L387.536 159.898C387.788 160.802 388.404 161.382 389.119 161.489L386.835 161.152C386.121 161.044 385.505 160.465 385.252 159.561L381.106 144.834C380.728 143.459 381.316 141.854 382.423 141.234H382.409Z" fill="#5B68B7"/>
<path d="M384.693 141.584C383.572 142.205 382.984 143.809 383.376 145.185L387.522 159.912C387.901 161.287 389.119 161.894 390.24 161.274L402.736 154.356C403.856 153.735 404.445 152.13 404.052 150.755L399.906 136.028C399.514 134.653 398.309 134.046 397.188 134.666L384.693 141.584Z" fill="#BBDAF9"/>
<path d="M397.861 136.284L402.904 152.427L389.89 159.655L384.847 143.513L397.861 136.284Z" fill="#559A33"/>
<path d="M402.203 152.238L389.75 159.17L384.847 143.513L397.3 136.595L402.203 152.238Z" fill="white"/>
<path d="M389.778 159.17L402.231 152.238L397.342 136.594L397.889 136.284L402.932 152.427L389.932 159.655L389.778 159.17Z" fill="#293896"/>
<path d="M395.97 152.967C395.745 153.089 395.633 153.412 395.717 153.695L395.844 154.113C395.928 154.397 396.18 154.518 396.404 154.383L398.827 153.035C399.051 152.913 399.164 152.59 399.08 152.32L398.953 151.902C398.869 151.632 398.617 151.497 398.393 151.632L395.97 152.981V152.967Z" fill="#BBDAF9"/>
<path d="M391.934 155.205C391.71 155.326 391.598 155.65 391.682 155.92L391.808 156.338C391.892 156.621 392.145 156.742 392.369 156.608L394.792 155.259C395.016 155.138 395.128 154.814 395.044 154.531L394.918 154.113C394.834 153.843 394.582 153.722 394.358 153.843L391.934 155.192V155.205Z" fill="#293896"/>
<path d="M395.52 149.029C395.408 149.097 395.352 149.259 395.394 149.393L395.856 150.85C395.898 150.985 396.024 151.052 396.136 150.985L397.313 150.324C397.425 150.256 397.481 150.095 397.439 149.96L396.991 148.517C396.949 148.382 396.823 148.314 396.711 148.382L395.534 149.029H395.52Z" fill="#293896"/>
<path d="M394.708 146.426C394.596 146.48 394.54 146.655 394.582 146.79L395.03 148.246C395.072 148.381 395.198 148.449 395.31 148.381L396.487 147.734C396.599 147.666 396.655 147.505 396.613 147.37L396.165 145.913C396.123 145.778 395.997 145.711 395.885 145.778L394.708 146.426Z" fill="#293896"/>
<path d="M393.434 150.188C393.322 150.256 393.266 150.418 393.308 150.553L393.757 151.996C393.799 152.13 393.925 152.198 394.037 152.13L395.213 151.483C395.326 151.416 395.382 151.254 395.34 151.119L394.891 149.676C394.849 149.541 394.723 149.474 394.611 149.541L393.434 150.188Z" fill="#293896"/>
<path d="M393.909 143.836C393.797 143.89 393.741 144.065 393.783 144.2L394.231 145.643C394.273 145.778 394.399 145.845 394.511 145.778L395.688 145.131C395.8 145.063 395.856 144.901 395.814 144.766L395.366 143.323C395.324 143.189 395.198 143.121 395.086 143.189L393.909 143.836Z" fill="#293896"/>
<path d="M394.176 140.789C393.881 140.951 393.741 141.382 393.853 141.733C393.965 142.097 394.302 142.259 394.582 142.097L396.809 140.856C397.103 140.694 397.243 140.263 397.131 139.912C397.019 139.548 396.683 139.4 396.403 139.548L394.19 140.789H394.176Z" fill="#293896"/>
<path d="M392.606 147.599C392.494 147.667 392.438 147.829 392.48 147.963L392.928 149.42C392.97 149.555 393.097 149.622 393.209 149.555L394.385 148.894C394.497 148.827 394.553 148.678 394.511 148.53L394.063 147.073C394.021 146.939 393.895 146.871 393.783 146.939L392.606 147.586V147.599Z" fill="#293896"/>
<path d="M391.319 151.361C391.207 151.429 391.151 151.591 391.193 151.725L391.641 153.182C391.683 153.317 391.809 153.384 391.922 153.317L393.098 152.669C393.21 152.602 393.266 152.44 393.224 152.305L392.776 150.849C392.734 150.714 392.608 150.647 392.496 150.714L391.319 151.361Z" fill="#293896"/>
<path d="M391.809 144.995C391.697 145.063 391.641 145.224 391.683 145.359L392.132 146.816C392.174 146.951 392.3 147.018 392.412 146.951L393.588 146.303C393.701 146.236 393.757 146.074 393.715 145.939L393.266 144.483C393.224 144.348 393.098 144.28 392.986 144.348L391.809 144.995Z" fill="#293896"/>
<path d="M390.507 148.759C390.395 148.826 390.339 148.988 390.381 149.123L390.829 150.566C390.871 150.701 390.997 150.768 391.109 150.701L392.286 150.053C392.398 149.999 392.454 149.824 392.412 149.689L391.964 148.246C391.922 148.111 391.795 148.044 391.683 148.111L390.507 148.772V148.759Z" fill="#293896"/>
<path d="M389.694 146.17C389.582 146.237 389.526 146.399 389.568 146.534L390.016 147.99C390.058 148.125 390.184 148.193 390.297 148.125L391.473 147.464C391.585 147.397 391.641 147.249 391.599 147.1L391.151 145.644C391.109 145.509 390.983 145.441 390.871 145.509L389.694 146.156V146.17Z" fill="#293896"/>
<path d="M386.921 144.821C386.626 144.983 386.486 145.401 386.598 145.765C386.71 146.129 387.033 146.291 387.327 146.129L393.182 142.879C393.477 142.717 393.631 142.286 393.505 141.935C393.392 141.571 393.07 141.409 392.762 141.585L386.907 144.835L386.921 144.821Z" fill="#293896"/>
<g style="mix-blend-mode:multiply" opacity="0.29">
<path d="M420 239.182L443.135 252.552L465.549 239.208L463.412 237.989L436.266 230.295L420 239.182Z" fill="#231F20"/>
</g>
<path d="M442.82 251.332L464.513 238.605L464.671 182.085L442.991 209.807L442.82 251.332Z" fill="#0E1A68"/>
<path d="M421.848 239.247L443.528 226.48L443.698 170L422.018 197.722L421.848 239.247Z" fill="#0E1A68"/>
<path d="M422.005 197.723L421.848 239.234L442.82 251.332L442.99 209.808L422.005 197.723Z" fill="#5B68B7"/>
<path d="M423.761 201.733L423.709 223.675L429.109 226.782L429.149 204.84L423.761 201.733Z" fill="#293896"/>
<path d="M429.122 227.017L423.525 223.793V223.675L423.565 201.628L423.945 201.825L423.906 223.57L429.122 226.572V227.017Z" fill="#0E1A68"/>
<path d="M443.699 170L464.671 182.085L442.991 209.808L422.006 197.722L443.699 170Z" fill="white"/>
<path d="M443.253 174.233L459.755 183.75L448.051 198.784L431.535 189.268L443.253 174.233Z" fill="#BBDAF9"/>
<path d="M435.559 196.517C435.926 196.032 436.594 195.901 437.119 196.202L444.918 200.698C445.403 200.973 445.534 201.615 445.193 202.061L442.545 205.495C442.178 205.98 441.51 206.111 440.986 205.81L433.186 201.314C432.702 201.039 432.57 200.383 432.911 199.951L435.559 196.53V196.517Z" fill="#293896"/>
<path d="M434.931 186.975L437.749 188.521L436.504 190.12L433.686 188.587L434.931 186.975Z" fill="#0E1A68"/>
<path d="M441.511 178.611L444.316 180.145L443.071 181.744L440.266 180.211L441.511 178.611Z" fill="#0E1A68"/>
<path d="M439.872 180.695L442.677 182.242L441.432 183.841L438.627 182.294L439.872 180.695Z" fill="#0E1A68"/>
<path d="M438.22 182.793L441.038 184.326L439.779 185.926L436.975 184.392L438.22 182.793Z" fill="#0E1A68"/>
<path d="M436.581 184.891L439.386 186.424L438.141 188.024L435.336 186.49L436.581 184.891Z" fill="#0E1A68"/>
<path d="M443.163 176.515L445.967 178.048L444.722 179.647L441.904 178.114L443.163 176.515Z" fill="#0E1A68"/>
<path d="M431.704 189.359L431.363 189.176L443.199 173.997L459.872 183.592L459.636 183.893L443.291 174.482L431.704 189.359Z" fill="#0E1A68"/>
<path d="M426.463 196.792C426.463 196.202 427.105 195.717 427.918 195.717C428.731 195.717 429.373 196.202 429.373 196.792C429.373 197.382 428.718 197.867 427.918 197.867C427.118 197.867 426.463 197.382 426.463 196.792Z" fill="#293896"/>
<path d="M428.586 194.131C428.586 193.541 429.241 193.056 430.041 193.056C430.84 193.056 431.496 193.541 431.496 194.131C431.496 194.72 430.853 195.205 430.041 195.205C429.228 195.205 428.586 194.72 428.586 194.131Z" fill="#293896"/>
<path d="M429.451 198.22C429.451 197.631 430.106 197.146 430.906 197.146C431.705 197.146 432.361 197.631 432.361 198.22C432.361 198.81 431.719 199.295 430.906 199.295C430.093 199.295 429.451 198.81 429.451 198.22Z" fill="#293896"/>
<path d="M431.588 195.559C431.588 194.969 432.243 194.484 433.043 194.484C433.843 194.484 434.498 194.969 434.498 195.559C434.498 196.149 433.843 196.634 433.043 196.634C432.243 196.634 431.588 196.149 431.588 195.559Z" fill="#293896"/>
<path d="M452.965 203.464L454 202.913L491.527 224.541L491.423 260.888L490.4 261.439L490.505 225.091L452.965 203.464Z" fill="#5B68B7"/>
<g opacity="0.46">
<path d="M452.966 203.464L452.861 239.811L490.402 261.439L490.507 225.091L452.966 203.464Z" fill="#BBDAF9"/>
</g>
<g style="mix-blend-mode:multiply" opacity="0.29">
<path d="M476.416 273.435L499.551 286.804L521.965 273.461L519.828 272.242L492.682 264.548L476.416 273.435Z" fill="#231F20"/>
</g>
<path d="M499.236 285.585L520.929 272.858L521.087 216.338L499.407 244.06L499.236 285.585Z" fill="#0E1A68"/>
<path d="M478.264 273.5L499.944 260.733L500.114 204.253L478.434 231.975L478.264 273.5Z" fill="#0E1A68"/>
<path d="M478.421 231.976L478.264 273.487L499.236 285.585L499.406 244.061L478.421 231.976Z" fill="#5B68B7"/>
<path d="M480.177 235.986L480.125 257.928L485.525 261.035L485.565 239.093L480.177 235.986Z" fill="#293896"/>
<path d="M485.538 261.27L479.941 258.046V257.928L479.981 235.881L480.361 236.078L480.322 257.823L485.538 260.825V261.27Z" fill="#0E1A68"/>
<path d="M500.115 204.253L521.087 216.338L499.407 244.06L478.422 231.975L500.115 204.253Z" fill="white"/>
<path d="M499.669 208.486L516.171 218.002L504.467 233.037L487.951 223.521L499.669 208.486Z" fill="#BBDAF9"/>
<path d="M491.973 230.77C492.34 230.285 493.009 230.154 493.533 230.455L501.332 234.951C501.817 235.226 501.948 235.868 501.607 236.314L498.96 239.748C498.593 240.233 497.924 240.364 497.4 240.063L489.601 235.567C489.116 235.292 488.985 234.636 489.325 234.204L491.973 230.783V230.77Z" fill="#293896"/>
<path d="M491.347 221.228L494.165 222.774L492.92 224.373L490.102 222.84L491.347 221.228Z" fill="#0E1A68"/>
<path d="M497.927 212.864L500.732 214.398L499.487 215.997L496.682 214.464L497.927 212.864Z" fill="#0E1A68"/>
<path d="M496.288 214.949L499.093 216.496L497.848 218.095L495.043 216.548L496.288 214.949Z" fill="#0E1A68"/>
<path d="M494.636 217.046L497.454 218.579L496.196 220.178L493.391 218.645L494.636 217.046Z" fill="#0E1A68"/>
<path d="M492.997 219.144L495.802 220.677L494.557 222.276L491.752 220.743L492.997 219.144Z" fill="#0E1A68"/>
<path d="M499.577 210.768L502.382 212.301L501.136 213.9L498.318 212.367L499.577 210.768Z" fill="#0E1A68"/>
<path d="M488.122 223.612L487.781 223.429L499.617 208.25L516.29 217.845L516.054 218.146L499.709 208.735L488.122 223.612Z" fill="#0E1A68"/>
<path d="M482.877 231.045C482.877 230.455 483.519 229.97 484.332 229.97C485.145 229.97 485.787 230.455 485.787 231.045C485.787 231.634 485.132 232.12 484.332 232.12C483.532 232.12 482.877 231.634 482.877 231.045Z" fill="#293896"/>
<path d="M485.002 228.384C485.002 227.794 485.657 227.309 486.457 227.309C487.256 227.309 487.912 227.794 487.912 228.384C487.912 228.973 487.269 229.458 486.457 229.458C485.644 229.458 485.002 228.973 485.002 228.384Z" fill="#293896"/>
<path d="M485.867 232.473C485.867 231.884 486.522 231.398 487.322 231.398C488.122 231.398 488.777 231.884 488.777 232.473C488.777 233.063 488.135 233.548 487.322 233.548C486.509 233.548 485.867 233.063 485.867 232.473Z" fill="#293896"/>
<path d="M488.004 229.812C488.004 229.222 488.659 228.737 489.459 228.737C490.259 228.737 490.914 229.222 490.914 229.812C490.914 230.402 490.259 230.887 489.459 230.887C488.659 230.887 488.004 230.402 488.004 229.812Z" fill="#293896"/>
<path d="M509.381 237.717L510.416 237.166L547.943 258.794L547.839 295.141L546.816 295.692L546.921 259.344L509.381 237.717Z" fill="#5B68B7"/>
<g opacity="0.46">
<path d="M509.382 237.717L509.277 274.064L546.818 295.692L546.923 259.344L509.382 237.717Z" fill="#BBDAF9"/>
</g>
<mask id="mask2_2067_300515" style="mask-type:luminance" maskUnits="userSpaceOnUse" x="546" y="255" width="10" height="50">
<path d="M555.557 255.935V302.431C555.557 303.021 555.06 303.61 554.231 304.052C552.573 304.948 549.869 304.948 548.198 304.052C547.356 303.598 546.936 303.008 546.936 302.407L547.076 255.91C547.076 256.499 547.497 257.101 548.338 257.555C550.009 258.464 552.713 258.452 554.371 257.555C555.2 257.101 555.557 256.524 555.557 255.935Z" fill="white"/>
</mask>
<g mask="url(#mask2_2067_300515)">
<path d="M555.557 255.935V302.431C555.557 303.021 555.059 303.61 554.23 304.052C552.572 304.948 549.869 304.948 548.198 304.052C547.356 303.598 547.076 303.008 547.088 302.407V255.91C547.088 256.499 547.509 257.101 548.351 257.555C550.022 258.464 552.725 258.452 554.383 257.555C555.212 257.101 555.57 256.524 555.57 255.935H555.557Z" fill="#293896"/>
</g>
<path d="M554.346 254.289C556.017 255.198 556.03 256.659 554.359 257.568C552.701 258.464 549.997 258.476 548.327 257.568C546.656 256.659 546.656 255.198 548.301 254.289C549.959 253.393 552.663 253.393 554.334 254.289H554.346Z" fill="#BBDAF9"/>
<path d="M522.377 265.437L520.15 265.027L518.924 267.927L518.867 268.427L518.815 271.805C518.815 271.805 518.695 274.392 520.28 274.693C521.438 274.915 520.406 274.721 520.406 274.721C521.996 275.011 522.372 273.101 522.372 273.101L523.431 268.024C523.598 266.938 523.4 265.624 522.377 265.437Z" fill="white"/>
<path d="M521.418 267.273C521.799 268.16 521.017 269.337 520.318 269.729C520.073 269.871 520.646 271.617 520.552 272.447C520.459 273.317 519.707 273.26 519.53 273.118C519.389 273.004 518.982 270.212 518.857 269.507C518.44 267.171 519.128 266.687 519.827 266.284C520.526 265.886 521.032 266.38 521.418 267.267V267.273Z" fill="white"/>
<path d="M519.096 267.904C521.386 270.548 523.091 268.393 523.091 268.393C523.091 268.393 523.551 265.869 523.655 265.442C524.218 263.031 526.299 254.748 526.644 251.666C527.025 248.277 527.338 242.16 527.338 242.16C527.338 242.16 531.015 236.281 527.953 235.024C526.2 234.302 522.231 234.331 520.749 242.529C520.369 244.644 519.998 250.313 519.743 253.104C519.268 258.273 518.527 266.807 518.527 266.807C518.527 266.807 518.423 267.125 519.101 267.91L519.096 267.904Z" fill="#BBD2E9"/>
<path d="M532.063 240.191C532.063 240.191 537.571 244.461 538.312 246.656C539.053 248.85 539.053 267.908 536.935 269.29C534.817 270.677 524.082 273.531 521.396 270.257C518.709 266.982 520.191 248.85 521.99 244.927C523.79 241.004 524.311 238.872 524.311 238.872L532.058 240.197L532.063 240.191Z" fill="#BBD2E9"/>
<path d="M521.074 300.437L520.385 301.842C520.385 301.842 514.611 303.951 514.256 304.127C513.849 304.326 512.952 304.673 513.03 305.475C513.051 305.668 513.035 305.793 513.145 305.964C513.526 306.595 514.329 306.885 515.08 307.061C516.713 307.425 520.192 307.01 520.192 307.01C521.204 306.913 522.899 306.436 523.087 306.276C523.087 306.276 523.963 306.032 524.11 306.362C524.162 306.487 524.057 307.021 524.036 307.129L526.222 306.259C526.332 306.208 526.572 305.088 526.639 304.594L526.707 301.307L521.074 300.432V300.437Z" fill="#231F20"/>
<path d="M514.167 306.453C514.589 306.691 515.189 306.828 515.789 306.924C518.178 307.3 521.84 306.549 521.84 306.549C522.2 306.47 523.577 306.163 523.577 306.163C523.577 306.163 524.135 306.225 524.114 306.367C524.114 306.299 524.109 306.367 524.135 306.367C524.187 306.39 524.041 307.135 524.041 307.135L523.478 306.72C523.478 306.72 521.798 307.055 521.501 307.141C521.501 307.141 517.98 307.863 515.57 307.51C514.808 307.402 513.536 306.879 513.103 306.106C513.03 305.964 512.946 305.634 513.045 305.412C513.051 305.452 513.593 306.14 514.162 306.464L514.167 306.453Z" fill="#282827"/>
<path d="M524.109 306.362L526.504 305.315C526.504 305.315 526.279 306.288 526.248 306.265L524.062 307.135C524.073 307.061 524.099 306.566 524.109 306.362Z" fill="#282827"/>
<path d="M522.127 265.055L519.796 300.34C519.597 301.733 518.825 302.188 519.19 302.671C520.541 304.479 526.624 306.248 527.557 303.314L531.871 267.796L522.132 265.05L522.127 265.055Z" fill="#293896"/>
<path d="M540.447 307.499C540.447 307.499 540.546 311.178 540.556 311.269C540.682 312.906 538.918 317.096 536.383 317.369C536.008 317.409 534.683 317.284 534.683 317.284C534.683 317.284 532.951 317.233 533.29 313.907C533.426 312.616 534.657 307.408 534.657 307.408L540.447 307.505V307.499Z" fill="#383736"/>
<path d="M540.691 306.578C540.691 306.578 540.488 308.693 540.311 311.445C540.206 313.082 538.381 316.562 536.148 316.698C535.569 316.738 535.115 316.681 535.073 316.681C534.114 316.63 532.799 316.255 533.342 312.872C533.54 311.667 534.343 307.016 534.411 307.01L540.691 306.578Z" fill="#231F20"/>
<path d="M528.298 266.933C528.747 274.114 533.353 309.177 533.353 309.177C533.421 310.183 534.359 311.61 535.914 311.803C537.834 312.036 539.185 310.985 539.185 310.985C540.416 310.513 540.901 308.978 540.911 308.625L538.24 265.21L528.293 266.938L528.298 266.933Z" fill="#293896"/>
<path d="M538.59 241.045C538.59 241.045 535.455 237.116 533.979 236.553C532.503 235.99 527.824 236.428 527.824 236.428C527.824 236.428 525.158 242.523 524.548 245.604C523.593 250.46 526.952 253.894 526.952 253.894L534.511 249.186L538.59 241.05V241.045Z" fill="#BBD2E9"/>
<path d="M526.76 237.197C529.076 239.687 530.828 236.924 532.32 234.985L532.607 228.015L526.885 229.862L526.76 237.197Z" fill="white"/>
<path d="M530.52 224.21C529.211 224.159 529.028 225.518 529.028 225.518L528.939 228.372C528.939 228.372 528.981 228.998 529.472 229.123C530.207 229.31 530.551 228.617 530.906 227.855C530.927 227.815 531.386 226.684 531.412 226.615C531.803 225.649 531.751 224.256 530.52 224.21Z" fill="#FFE8D9"/>
<path d="M527.578 237.583C527.896 237.879 527.635 238.265 527.452 238.527L526.305 240.176C525.94 240.665 525.799 240.102 525.799 239.567L525.919 235.73C526.19 233.33 526.91 233.654 526.91 233.654C526.91 233.654 527.014 233.87 526.957 234.371C526.868 235.195 526.472 236.582 527.572 237.589L527.578 237.583Z" fill="#02137B"/>
<path d="M532.371 233.285C532.371 233.285 532.475 233.711 532.214 234.257C531.15 236.492 528.026 237.686 528.026 237.686C527.655 237.828 527.666 238.027 527.708 238.703L528.005 241.194C528.047 241.853 528.36 241.796 528.605 241.535C528.605 241.535 531.072 239.346 531.766 238.607C533.404 236.861 533.44 236.969 532.893 234.701C532.559 233.325 532.376 233.279 532.376 233.279L532.371 233.285Z" fill="#02137B"/>
<path d="M528.518 220.203L533.343 220.385L533.155 229.88C533.071 230.522 533.077 231.114 532.967 231.66C532.842 232.262 532.571 232.814 531.882 233.354C531.882 233.354 531.053 234.235 530.072 235.025C529.31 235.645 528.366 236.14 527.819 236.02C527.396 235.935 526.103 235.418 526.103 235.418C525.179 234.952 525.023 234.4 524.689 233.263C524.538 232.757 523.766 224.183 523.766 224.183L523.833 220.988L528.523 220.203H528.518Z" fill="white"/>
<path d="M524.418 219.555C523.041 220.339 523.203 222.255 523.328 222.801C523.766 224.689 523.818 224.501 523.792 224.529C523.771 224.552 523.771 223.785 523.761 223.04C523.751 221.925 524.82 222.17 525.263 222.5C526.061 223.108 527.605 223.802 527.647 223.83C528.19 224.194 527.965 223.921 528.012 223.489C528.023 223.392 528.044 222.818 528.044 222.818C528.117 222.869 529.389 223.551 529.718 223.802C531.126 224.927 530.933 227.941 531.033 227.935C531.445 227.918 531.413 227.73 531.544 227.276C531.544 227.276 531.638 225.132 533.223 226.019C534.058 226.485 533.39 228.532 533.333 228.651L532.947 231.756C532.947 231.796 535.31 227.85 535.56 227.259C538.001 221.385 534.105 215.233 528.503 217.184C527.381 217.576 524.418 219.566 524.418 219.566V219.555Z" fill="#633A11"/>
<path d="M532.91 225.525C531.664 225.485 531.439 227.742 531.439 227.742L531.408 229.516C531.408 229.516 531.45 230.113 531.919 230.233C532.629 230.415 532.984 229.948 533.323 229.215C533.343 229.175 533.776 228.089 533.802 228.021C534.173 227.106 534.089 225.565 532.91 225.525Z" fill="white"/>
<path d="M523.556 221.97C526.206 222.937 529.179 223.175 532.105 223.119C530.076 224.404 527.379 225.552 524.776 225.268C523.926 225.171 522.825 225.143 522.304 224.29C521.5 222.977 523.43 222.385 524.088 221.856L523.561 221.976L523.556 221.97Z" fill="#0E1A68"/>
<path d="M521.224 218.042C521.224 218.042 523.024 221.049 523.076 222.488C523.128 223.932 529.977 223.699 531.87 223.295C533.759 222.897 535.271 222.687 536.106 220.816C537.008 218.792 537.274 216.944 537.274 216.944L527.843 218.963L521.219 218.042H521.224Z" fill="#13238A"/>
<path d="M521.172 217.991C522.497 217.934 525.319 215.489 525.997 215.159C526.748 214.784 528.861 215.159 530.765 215.392C533.555 215.733 534.113 216.757 537.285 216.95C536.362 218.4 534.849 219.691 533.049 219.782C531.61 219.856 526.91 219.594 525.475 219.611L521.182 217.996L521.172 217.991Z" fill="#1A2EB0"/>
<path d="M521.287 262.884C521.287 262.884 524.558 268.171 538.12 264.823L538.224 267.245C538.224 267.245 529.007 272.447 523.181 267.245C521.741 265.96 521.287 262.884 521.287 262.884Z" fill="#020202"/>
<path d="M537.274 266.665C526.044 269.326 522.017 265.278 521.699 264.931C521.38 264.584 521.234 262.742 521.234 262.742C521.234 262.742 524.03 267.939 537.165 265.05L537.269 266.665H537.274Z" fill="#020202"/>
<path d="M532.023 269.036L532.487 275.296C532.55 276.155 533.311 276.735 534.073 276.501C534.923 276.246 535.481 275.364 535.414 274.403L535.069 269.929L537.996 269.286L537.876 265.972L531.908 266.989L532.028 269.031L532.023 269.036Z" fill="#020202"/>
<path d="M540.29 273.789C540.264 274.727 539.09 275.296 538.313 275.273C538.042 275.262 537.546 277.519 536.43 277.405C536.43 277.405 536.451 276.797 536.518 275.728C536.518 275.643 536.424 274.727 536.957 274.108C538.354 272.453 538.521 272.135 539.299 272.157C540.076 272.18 540.321 272.851 540.295 273.789H540.29Z" fill="white"/>
<path d="M540.833 271.605L538.605 271.952L537.974 273.601L538.24 275.432C538.24 275.432 538.334 275.932 538 276.569C537.87 276.819 537.635 277.245 537.635 277.245C537.635 277.245 537.578 279.104 538.861 278.695C539.278 278.57 539.57 278.195 539.57 278.195C540.129 278.092 541.067 277.808 541.688 277.655C543.123 277.302 542.721 275.443 542.721 275.443L542.497 273.607C542.377 272.572 541.855 271.452 540.833 271.611V271.605Z" fill="white"/>
<path d="M540.515 273.858C541.396 273.892 541.965 273.545 541.965 273.545C541.965 273.545 542.742 273.141 542.784 272.351C542.914 269.991 543.295 259.507 543.003 256.596C542.69 253.39 541.605 246.22 541.605 246.22C541.605 246.22 540.624 240.176 537.4 240.625C534.714 241.001 534.688 244.679 534.985 247.243C535.22 249.262 536.227 255.903 536.608 258.632C537.333 263.834 537.599 272.601 537.599 272.601C537.599 272.601 538.475 273.789 540.515 273.869V273.858Z" fill="#BBD2E9"/>
<path d="M528.267 271.861C526.896 271.861 525.779 270.645 525.779 269.144C525.779 267.643 526.896 266.432 528.267 266.432C529.639 266.432 530.756 267.648 530.756 269.144C530.756 270.639 529.639 271.861 528.267 271.861ZM528.267 267.131C527.245 267.131 526.416 268.041 526.416 269.149C526.416 270.258 527.245 271.173 528.267 271.173C529.29 271.173 530.124 270.264 530.124 269.149C530.124 268.035 529.295 267.131 528.267 267.131Z" fill="#F7F7F7"/>
<path d="M530.818 272.902C529.44 272.902 528.324 271.691 528.324 270.19C528.324 268.689 529.44 267.478 530.818 267.478C532.195 267.478 533.306 268.694 533.306 270.19C533.306 271.685 532.189 272.902 530.818 272.902ZM530.818 268.165C529.795 268.165 528.961 269.075 528.961 270.184C528.961 271.293 529.79 272.208 530.818 272.208C531.845 272.208 532.669 271.298 532.669 270.184C532.669 269.07 531.84 268.165 530.818 268.165Z" fill="#F7F7F7"/>
<path d="M523.316 220.208C523.316 220.208 523.316 220.64 523.4 221.078C523.478 221.51 523.4 222.283 523.875 222.465C524.349 222.636 524.986 221.596 524.986 221.334C524.986 221.072 523.953 218.65 523.316 220.208Z" fill="#BBD2E9"/>
<path d="M426.847 207.496L421.605 207.769L422.042 217.052C422.072 217.733 422.718 218.686 423.215 219.329L424.583 221.198C425.072 221.659 425.727 221.909 426.403 221.879L427.561 221.826L428.674 221.773C429.344 221.743 429.975 221.432 430.419 220.926L431.735 218.716C432.156 217.899 432.593 217.241 432.562 216.56L432.126 207.27L426.847 207.496Z" fill="white"/>
<path d="M431.149 207.315L431.585 216.598C431.616 217.279 431.179 217.937 430.766 218.754L429.45 220.963C429.006 221.47 428.374 221.78 427.705 221.811L428.683 221.765C429.352 221.735 429.984 221.425 430.427 220.918L431.743 218.709C432.165 217.891 432.601 217.233 432.571 216.552L432.134 207.262L431.157 207.307L431.149 207.315Z" fill="white"/>
<path d="M424.014 223.581L424.096 218.497L430.902 218.172L431.316 223.203L424.014 223.581Z" fill="white"/>
<path d="M432.127 210.931H432.511C433.097 211.074 433.744 211.589 433.646 212.482C433.549 213.299 433.488 213.367 433.376 214.373C433.21 215.795 432.037 215.395 432.037 215.395L432.127 210.931Z" fill="white"/>
<path d="M421.892 211.416L421.509 211.461C420.937 211.651 420.335 212.233 420.523 213.111C420.696 213.913 420.764 213.973 420.975 214.964C421.268 216.372 422.396 215.857 422.396 215.857L421.892 211.416Z" fill="white"/>
<path d="M423.111 202.095C423.111 202.095 423.119 202.095 423.142 202.087C423.119 202.087 423.111 202.095 423.111 202.095Z" fill="#561F04"/>
<path d="M433.376 206.271C433.3 204.962 432.18 203.494 431.225 202.715C429.54 201.338 427.961 201.565 427.961 201.565C428.239 201.504 429.037 202.548 428.661 202.874C428.179 203.282 427.848 202.624 427.435 201.974C426.705 200.816 424.9 201.292 424.9 201.292C424.9 201.292 425.84 201.482 425.908 202.473C425.908 202.473 425.946 202.889 425.825 202.98C425.675 203.093 425.75 203.131 425.216 202.526C424.487 201.716 423.321 202.019 423.141 202.072C423.193 202.072 423.351 202.147 423.727 202.685C424.058 203.161 423.93 203.925 423.479 203.88C423.479 203.88 423.404 203.577 423.231 203.313C422.78 202.632 422.11 202.806 422.11 202.806C422.11 202.806 422.622 203.366 422.171 204.047C422.005 204.289 421.644 204.742 421.644 204.742C421.644 204.742 420.163 205.93 420.418 207.875L421.952 215.236V215.274C421.99 215.947 422.637 216.908 423.126 217.551C423.126 217.551 424.284 218.807 425.991 219.73C426.848 220.192 428.33 220.267 429.074 219.549C429.773 218.883 430.999 217.952 431.646 216.931C432.105 216.205 432.451 215.546 432.466 214.903C432.586 214.033 433.443 207.731 433.368 206.263L433.376 206.271Z" fill="#561F04"/>
<path d="M423.132 217.559C423.132 217.559 424.29 218.815 425.997 219.738C426.854 220.199 428.336 220.275 429.08 219.556C429.78 218.89 431.005 217.96 431.652 216.938C432.111 216.212 432.457 215.554 432.472 214.911C432.585 214.101 432.87 212.739 432.915 210.795C432.968 208.934 432.743 205.93 431.479 204.13C430.72 203.048 429.246 202.268 428.629 202.2C428.764 202.45 429.073 202.813 428.937 202.957C429.065 203.207 428.847 203.373 428.689 203.509C428.215 203.918 427.877 203.26 427.463 202.609C427.042 201.943 426.275 201.822 425.696 201.837C425.809 201.996 425.892 202.208 425.914 202.48C425.914 202.48 425.929 202.692 425.899 202.843C425.922 202.927 425.937 203.01 425.944 203.108C425.944 203.108 425.982 203.524 425.861 203.615C425.711 203.729 425.794 203.766 425.252 203.169C424.786 202.647 424.139 202.586 423.688 202.624C423.703 202.647 423.718 202.669 423.741 202.692C423.929 202.957 423.966 203.312 423.891 203.562C424.057 204.016 423.906 204.553 423.523 204.515C423.523 204.515 423.455 204.213 423.275 203.948C422.989 203.517 422.605 203.426 422.372 203.426C422.372 203.524 422.372 203.63 422.335 203.744C422.425 203.971 422.47 204.311 422.214 204.689C422.056 204.932 421.688 205.386 421.688 205.386C421.688 205.386 420.515 206.331 420.439 207.92L421.966 215.244V215.281C422.004 215.955 422.65 216.916 423.139 217.559H423.132Z" fill="#561F04"/>
<path d="M451.642 255.826C451.642 255.826 455.718 258.262 456.23 258.648C456.741 259.034 457.049 259.17 457.485 260.381C457.914 261.569 457.899 263.99 456.959 264.754C455.192 266.199 454.838 265.465 454.522 264.512C453.853 262.492 452.898 261.674 452.898 261.674C452.898 261.674 450.236 260.441 449.597 258.777C448.957 257.112 451.635 255.826 451.635 255.826H451.642Z" fill="white"/>
<path d="M419.651 225.692C419.651 225.692 416.974 224.148 414.169 235.308C413.267 238.886 413.237 241.171 413.026 243.259C412.642 246.974 414.68 249.274 415.575 250.568C418.095 254.207 423.351 259.548 423.351 259.548L427.811 252.111L422.329 234.801L419.651 225.692Z" fill="#C5CDFF"/>
<path d="M418.944 299.261C418.944 299.261 417.703 300.312 417.711 302.196C417.718 304.08 417.786 304.587 418.23 304.973C418.681 305.359 420.185 305.828 421.313 305.752C422.441 305.669 423.975 304.837 424.652 304.648C425.336 304.459 426.848 303.974 428.044 303.301C430.179 302.098 430.187 302.075 430.525 301.182C430.871 300.275 430.307 298.973 429.901 298.686C427.547 296.976 425.419 300.07 424.411 298.837C423.404 297.612 418.937 299.261 418.937 299.261H418.944Z" fill="#293896"/>
<path d="M418.704 298.217C418.704 298.217 417.869 299.132 417.748 301.009C417.651 302.499 417.703 303.551 418.155 303.937C418.606 304.322 419.877 304.776 421.005 304.655C421.907 304.557 422.937 304.315 423.607 304.065C425.803 303.24 426.194 302.938 426.953 302.62C429.954 301.372 430.074 300.713 430.36 299.798C430.616 298.996 429.036 297.438 426.758 297.619C423.486 297.869 424.983 298.058 424.178 297.793C422.674 297.301 418.704 298.209 418.704 298.209V298.217Z" fill="#5B68B7"/>
<path d="M427.675 247.859C431.661 254.88 429.284 276.442 427.615 286.369C426.464 293.2 425.509 299.684 425.75 298.534C425.675 298.897 423.983 301.008 422.343 301.553C419.944 302.347 416.996 301.788 417.861 298.572C417.861 298.572 419.019 285.045 419.583 279.93C420.538 271.275 420.922 267.364 420.651 262.015C420.523 259.495 421.516 237.04 427.668 247.867L427.675 247.859Z" fill="#293896"/>
<path d="M432.587 301.63C432.587 301.63 431.346 302.681 431.354 304.565C431.361 306.449 431.421 306.956 431.872 307.342C432.324 307.72 433.828 308.197 434.956 308.114C436.091 308.03 437.603 306.933 438.295 306.774C438.987 306.616 438.791 306.6 441.258 305.995C444.732 305.148 445.371 304.27 445.71 303.377C446.056 302.47 446.244 301.683 445.845 301.395C443.484 299.685 439.069 302.432 438.062 301.206C437.054 299.98 432.587 301.63 432.587 301.63Z" fill="#293896"/>
<path d="M432.346 300.585C432.346 300.585 431.511 301.501 431.391 303.385C431.293 304.875 431.346 305.927 431.797 306.313C432.248 306.699 433.519 307.153 434.647 307.031C435.542 306.933 436.302 306.661 436.963 306.411C438.069 305.995 438.723 305.881 440.648 305.518C443.634 304.958 445.597 302.999 445.882 302.083C446.138 301.281 445.311 299.973 443.032 300.147C439.761 300.396 438.618 300.434 437.813 300.169C436.309 299.678 432.339 300.585 432.339 300.585H432.346Z" fill="#5B68B7"/>
<path d="M439.28 253.64C441.318 261.205 442.341 275.437 442.085 277.615C442.085 277.676 441.702 284.667 440.935 290.182C440.145 295.864 438.679 301.705 439.032 301.311C438.792 301.584 437.972 302.847 436.385 303.513C434.046 304.489 431.076 304.156 431.693 300.88C431.693 300.88 432.881 283.214 432.911 281.33C433.039 274.15 430.294 263.059 429.211 257.99C428.684 255.524 438.017 248.941 439.28 253.632V253.64Z" fill="#293896"/>
<path d="M419.44 263.869C419.44 263.869 419.922 255.085 419.395 249.54C418.922 244.531 416.274 234.151 416.846 230.436C416.846 230.436 416.244 226.888 420.035 224.921C423.983 222.871 430.54 222.931 431.886 223.256C434.052 223.771 440.79 224.195 440.805 228.9C440.805 231.132 439.279 237.752 439.655 243.132C439.926 246.937 440.58 253.739 440.678 254.798C440.828 256.538 441.723 262.765 441.572 262.878C430.503 270.678 419.44 263.869 419.44 263.869Z" fill="#C5CDFF"/>
<path d="M438.007 225.941C439.346 225.457 441.128 226.418 442.211 231.2C443.234 235.686 444.813 239.862 446.287 243.123C447.957 246.8 452.537 255.69 452.537 255.69C452.537 255.69 453.063 256.356 451.642 257.997C450.514 259.314 448.979 259.412 448.979 259.412C448.979 259.412 443.354 251.718 440.294 246.974C438.564 244.296 435.962 232.614 435.962 232.614C435.962 232.614 434.811 227.099 438 225.949L438.007 225.941Z" fill="#C5CDFF"/>
<path d="M380.562 348.778V353.389C380.562 353.389 381.516 355.217 383.582 354.74C385.649 354.264 387.158 352.197 390.258 351.322C393.359 350.447 395.187 347.189 394.948 345.997C394.71 344.805 392.484 343.852 390.1 344.964C387.716 346.076 380.562 348.778 380.562 348.778Z" fill="#5B68B7"/>
<path d="M380.562 345.52V348.778C380.562 348.778 383.741 350.13 385.014 347.825V343.691L380.562 345.52Z" fill="white"/>
<path d="M390.873 351.077V355.687C390.873 355.687 391.826 357.515 393.893 357.038C395.96 356.561 397.469 354.495 400.569 353.62C403.669 352.745 405.497 349.487 405.259 348.295C405.02 347.103 402.794 346.15 400.411 347.262C398.025 348.376 390.873 351.077 390.873 351.077Z" fill="#5B68B7"/>
<path d="M390.873 347.819V351.077C390.873 351.077 394.052 352.428 395.324 350.124V345.99L390.873 347.819Z" fill="white"/>
<path d="M378.492 291.095C378.492 291.095 374.987 295.934 379.909 304.027L381.578 315.041L379.075 325.721C379.075 325.721 378.492 338.571 380.411 345.746C380.411 345.746 383.59 346.58 385.754 345.162C385.754 345.162 386.251 328.226 388.67 321.133C391.091 314.04 391.674 301.357 391.674 301.357L378.492 291.095Z" fill="#0E1A68"/>
<path d="M379.909 304.028C379.909 304.028 381.745 306.366 385.75 306.531C385.75 306.531 385.917 315.543 384.081 320.215C382.245 324.887 381.411 336.403 381.911 338.071C382.412 339.74 378.573 328.559 379.074 325.721C379.575 322.885 380.911 311.537 379.909 304.028Z" fill="#0B1347"/>
<path d="M388.529 293.686C388.529 293.686 385.025 298.525 389.948 306.619L391.616 317.631L389.113 328.312C389.113 328.312 388.529 341.161 390.447 348.337C390.447 348.337 393.625 349.171 395.791 347.753C395.791 347.753 396.288 330.817 398.708 323.724C401.127 316.631 401.711 303.948 401.711 303.948L388.529 293.686Z" fill="#0E1A68"/>
<path d="M389.949 306.619C389.949 306.619 391.785 308.955 395.789 309.121C395.789 309.121 395.956 318.132 394.12 322.805C392.284 327.477 391.45 338.991 391.951 340.66C392.451 342.329 388.612 331.149 389.114 328.311C389.614 325.477 390.95 314.128 389.949 306.619Z" fill="#0B1347"/>
<path d="M401.713 303.948C401.713 303.948 402.662 296.407 401.94 295.323C401.219 294.24 388.53 293.686 388.53 293.686L391.673 301.358C391.673 301.358 399.629 305.664 401.713 303.948Z" fill="#0E1A68"/>
<path d="M378.578 249.319C378.578 249.319 376.086 250.899 376.003 255.301C375.92 259.705 378.24 268.557 378.24 268.557L378.578 249.319Z" fill="#485292"/>
<path d="M397.228 256.797L390.706 252.727L383.022 250.318C383.022 250.318 379.574 248.491 378.577 249.321C377.58 250.152 376.417 255.718 377.331 261.617C378.244 267.515 379.988 282.301 378.493 287.452C376.998 292.603 376.416 297.919 383.021 299.414C389.624 300.91 401.006 298.999 402.168 296.921C403.331 294.845 399.511 287.866 398.679 284.046C397.851 280.223 397.228 256.797 397.228 256.797Z" fill="#5B68B7"/>
<path d="M417.614 257.973L422 260.517L411.016 266.955L406.634 264.352L417.614 257.973Z" fill="#0C0C6A"/>
<path d="M417.614 256.976L422 259.52L411.016 265.958L406.634 263.355L417.614 256.976Z" fill="#5766CA"/>
<path d="M417.595 257.546L421.143 259.605L412.258 264.811L408.715 262.707L417.595 257.546Z" fill="#BBD2E9"/>
<path d="M406.635 263.354V264.352L408.395 264.4L406.635 263.354Z" fill="#0C0C6A"/>
<path d="M411.016 265.958V266.955L422 260.517V259.52L411.016 265.958Z" fill="#0C0C6A"/>
<path d="M410.527 266.824C410.527 266.824 410.966 264.772 411.558 263.992C412.15 263.213 414.237 261.936 414.3 262.622C414.362 263.307 413.654 263.431 413.556 264.444L417.91 261.892C417.91 261.892 418.443 263.557 417.757 264.959C417.071 266.36 415.669 268.043 414.486 268.697C413.303 269.351 412.898 270.035 412.898 270.035L410.527 266.824Z" fill="white"/>
<path d="M392.646 246.866C392.646 246.866 390.749 251.438 391.371 253.122C391.371 253.122 385.266 254.181 383.022 251.564C383.022 251.564 383.284 247.098 383.309 244.72C383.334 242.341 391.554 243.352 392.646 246.866Z" fill="white"/>
<path d="M392.027 247.432C392.027 247.432 387.821 246.414 386.986 246.239C386.152 246.063 390.879 247.775 390.998 250.697L392.027 247.432Z" fill="#DDA68C"/>
<path d="M392.81 233.014C392.81 233.014 395.28 234.002 395.39 237.352C395.5 240.702 395.775 241.031 395.775 242.074C395.775 243.117 395.665 246.686 395.775 247.18C395.885 247.674 395.446 247.894 394.292 247.894C393.139 247.894 389.075 246.467 388.032 245.368C386.989 244.271 382.981 245.644 382.981 245.644C382.981 245.644 379.632 228.677 392.81 233.014Z" fill="white"/>
<path d="M394.677 234.75C394.677 234.75 393.321 237.547 393.413 239.274C393.504 241.001 393.128 248.179 394.043 249.906C394.957 251.633 382.416 249.862 380.326 248.657C378.237 247.452 378.418 230.096 385.416 230.822C392.413 231.55 395.559 232.487 394.677 234.75Z" fill="#613722"/>
<path d="M394.805 233.847C394.805 233.847 394.472 231.67 391.323 229.974C388.173 228.278 383 231.397 383 231.397L388.172 235.245L394.805 233.847Z" fill="#613722"/>
<path d="M394.454 235.245C394.454 235.245 394.019 243.576 394.988 245.393C394.988 245.393 392.989 242.288 393.019 240.1C393.05 237.912 393.162 234.79 394.454 235.245Z" fill="#613722"/>
<path d="M394.496 257.726C394.496 257.726 391.026 261.605 393.089 268.557C395.151 275.509 394.016 279.564 395.03 282.245C396.044 284.927 402.037 297.398 398.096 298.837C398.096 298.837 402.371 298.144 402.386 296.149C402.386 296.149 402.592 294.551 401.302 291.509L399.257 285.915C399.257 285.915 398.484 284.42 398.252 280.32L394.496 257.726Z" fill="#485292"/>
<path d="M402.524 272.56C402.524 272.56 403.022 257.793 397.228 256.796C391.434 255.799 394.114 267.013 394.799 269.507C395.484 272 397.042 281.78 399.783 281.159C402.525 280.535 412.804 270.94 412.804 270.94C412.804 270.94 413.677 268.51 410.312 266.704L402.524 272.56Z" fill="#5B68B7"/>
<path d="M402.524 272.559C402.524 272.559 402.643 274.57 402.524 275.112C402.405 275.653 403.514 273.59 404.056 272.739C404.597 271.89 406.635 269.468 406.635 269.468L402.524 272.559Z" fill="#485292"/>
<path d="M389.858 347.487C389.858 347.487 390.408 348.346 390.168 349.069C389.927 349.79 390.432 349.687 392.431 349.55C394.43 349.412 396.837 348.519 396.665 347.762C396.494 347.006 396.253 347.178 396.322 346.353C396.391 345.527 395.706 346.044 394.517 346.353C393.329 346.661 388.93 346.042 389.858 347.487Z" fill="#142591"/>
<path d="M379.959 345.354C379.959 345.354 380.509 346.214 380.268 346.936C380.028 347.659 380.533 347.555 382.532 347.417C384.531 347.279 386.937 346.386 386.765 345.629C386.593 344.874 386.353 345.046 386.421 344.22C386.49 343.395 385.804 343.911 384.617 344.22C383.43 344.53 379.031 343.911 379.959 345.354Z" fill="#142591"/>
<defs>
<linearGradient id="paint0_linear_2067_300515" x1="321.36" y1="139.452" x2="320.365" y2="142.469" gradientUnits="userSpaceOnUse">
<stop stop-color="#D8C1B5"/>
<stop offset="1" stop-color="#DE9473"/>
</linearGradient>
</defs>
</svg>
