<svg width="705" height="468" viewBox="0 0 705 468" fill="none" xmlns="http://www.w3.org/2000/svg">
<rect width="705" height="468" fill="#E0E6F9"/>
<path d="M247.94 233.125C247.493 233.726 240.88 253.49 240.88 253.49C240.88 253.49 238.633 258.36 245.453 259.288C252.881 260.304 259.471 259.267 259.471 259.267L258.142 255.565L247.138 253.49L252.456 239.753C252.456 239.753 252.181 227.48 247.94 233.125Z" fill="white"/>
<g opacity="0.29" style="mix-blend-mode:multiply">
<path d="M230.473 343.366C243.597 337.765 239.539 333.135 258.188 333.506C270.796 333.757 279.943 340.167 276.424 345.408C273.868 349.197 267.897 353.128 249.454 352.713C226.324 352.189 223.218 346.467 230.473 343.377V343.366Z" fill="#5B68B7"/>
</g>
<path d="M245.133 283.772C245.305 284.252 249.959 290.924 252.962 296.351C254.452 299.048 255.071 300.413 254.463 301.669C250.394 310.011 250.509 324.927 251.047 326.488C251.047 326.488 254.005 335.726 257.936 335.115C258.498 335.028 259.266 334.896 259.06 334.416C258.968 334.187 256.882 331.086 256.24 329.36C255.117 326.39 262.693 304.278 262.693 304.278C263.358 302.16 263.713 300.828 263.163 297.672C262.762 295.292 254.853 271.323 254.853 271.323L247.127 267.229C247.127 267.229 241.821 274.381 245.133 283.761V283.772Z" fill="white"/>
<path d="M255.266 330.561C255.266 330.561 256.366 333.902 258.67 333.913C258.991 333.913 261.077 336.916 261.077 336.916C261.077 336.916 261.34 337.986 260.515 339.001C259.69 340.017 257.673 339.493 256.137 338.86C252.308 337.287 251.632 334.098 251.632 334.098L250.119 330.364L248.457 335.376C248.457 335.376 247.918 335.463 247.93 334.983C247.93 334.284 248.973 328.038 248.973 328.038C248.973 328.038 248.537 324.14 251.105 324.642C254.016 325.21 255.277 330.561 255.277 330.561H255.266Z" fill="#5B68B7"/>
<path d="M257.408 289.043C257.465 289.556 260.949 297.124 262.611 303.282C263.437 306.34 263.712 307.857 262.783 308.982C256.582 316.451 252.937 331.509 253.086 333.213C253.086 333.213 254.221 341.173 257.568 343.477C257.969 343.761 259.368 344.132 259.276 343.597C259.242 343.346 257.809 339.175 257.591 337.286C257.213 334.032 270.406 313.492 270.406 313.492C271.609 311.516 271.999 310.216 272.549 306.951C274.429 295.923 268.033 279.598 268.033 279.598L264.64 272.599C264.64 272.599 256.433 278.834 257.408 289.032V289.043Z" fill="white"/>
<path d="M249.729 238.543C249.27 239.82 249.396 242.146 252.479 243.293C254.439 244.024 259.62 239.624 262.188 237.189C262.589 236.807 260.193 234.699 258.692 230.954C258.05 229.349 259.208 224.074 259.208 224.074L253.568 221.039C253.568 221.039 250.703 229.698 249.362 235.158C249.236 235.649 250.141 237.363 249.717 238.554L249.729 238.543Z" fill="white"/>
<path d="M263.85 235.952C263.85 235.952 268.412 241.707 268.79 244.764C268.939 245.933 267.185 248.477 265.844 251.043C264.836 252.965 263.323 257.136 263.483 258.425C263.54 258.84 263.953 263.895 265.34 267.772C268.32 276.049 272.171 288.104 272.171 288.104C272.171 288.104 269.925 290.648 263.919 291.445C249.029 293.433 246.554 289.545 246.554 289.545C246.175 289.207 242.267 279.783 243.619 273.373C244.754 267.99 249.855 259.932 249.832 258.425C249.774 254.526 248.365 244.557 248.365 244.557C248.365 244.557 246.989 239.883 247.791 236.597C248.88 232.142 249.19 231.497 251.196 230.329C251.7 230.045 253.557 230.646 256.308 231.323C256.308 231.323 261.294 231.77 263.827 235.941L263.85 235.952Z" fill="#293896"/>
<path d="M249.948 219.366C251.667 218.525 253.088 220.775 253.088 220.775C253.088 220.775 253.409 223.231 253.89 224.476C254.188 225.24 252.251 225.099 251.357 224.269C251.3 224.214 250.165 223.253 250.097 223.177C249.031 222.096 248.331 220.152 249.959 219.355L249.948 219.366Z" fill="white"/>
<path d="M255.116 338.947C255.116 338.947 255.048 339.941 255.781 340.967C256.618 342.124 258.326 343.326 259.277 343.424C259.69 343.468 260.561 346.012 260.561 346.012C260.561 346.012 260.561 347.148 259.46 347.977C258.372 348.818 256.48 347.825 255.082 346.831C251.873 344.56 251.747 341 251.747 341L251.162 336.883L248.216 341.546C248.216 341.546 247.609 341.513 247.781 341.033C248.033 340.334 250.623 334.295 250.623 334.295C250.623 334.295 251.815 330.124 254.085 331.544C255.838 332.636 255.116 338.925 255.116 338.925V338.947Z" fill="#5B68B7"/>
<path d="M249.846 210.347C254.018 204.243 260.414 204.789 261.732 204.997C261.732 204.997 272.174 207.541 269.24 217.511C267.646 222.938 261.228 226.726 262.064 232.688C266.053 260.981 251.691 260.708 251.691 260.708C251.691 260.708 255.841 255.969 251.829 251.197C248.448 247.179 245.502 235.386 245.502 235.386C245.502 235.386 241.983 221.846 249.846 210.369V210.347Z" fill="#D16B0F"/>
<path d="M260.894 237.776C260.894 237.776 257.547 237.722 256.813 243.924C256.057 250.345 256.24 262.356 256.24 262.356C256.24 262.356 260.504 272.653 265.823 277.993C267.691 279.871 268 277.174 268 277.174L262.12 261.45C262.12 255.302 263.977 246.599 264.298 242.832C264.585 239.578 262.212 237.776 260.882 237.776H260.894Z" fill="white"/>
<path d="M267.631 275.995C267.631 275.995 270.519 280.45 270.852 281.149C271.517 282.503 271.322 283.224 270.944 284.13C270.565 285.036 269.236 286.303 269.236 286.303C269.236 286.303 266.955 287.21 266.576 286.303C266.198 285.397 266.668 284.949 266.668 284.949L267.241 282.689C267.241 282.689 265.339 278.889 265.625 277.535C265.912 276.181 267.619 275.995 267.619 275.995H267.631Z" fill="white"/>
<g style="mix-blend-mode:multiply" opacity="0.29">
<path d="M289.691 199.816L321.921 217.56L353.146 199.85L350.17 198.233L312.352 188.021L289.691 199.816Z" fill="#231F20"/>
</g>
<path d="M321.482 215.943L351.704 199.051L351.922 124.04L321.72 160.832L321.482 215.943Z" fill="#0E1A68"/>
<path d="M292.264 199.903L322.467 182.959L322.704 108L292.501 144.792L292.264 199.903Z" fill="#0E1A68"/>
<path d="M292.483 144.793L292.264 199.886L321.48 215.943L321.718 160.832L292.483 144.793Z" fill="#5B68B7"/>
<path d="M294.931 150.114L294.857 179.235L302.381 183.358L302.436 154.237L294.931 150.114Z" fill="#293896"/>
<path d="M302.399 183.674L294.602 179.394V179.238L294.656 149.978L295.186 150.239L295.131 179.098L302.399 183.082V183.674Z" fill="#0E1A68"/>
<path d="M322.705 108L351.922 124.039L321.719 160.832L292.484 144.792L322.705 108Z" fill="white"/>
<path d="M322.084 113.62L345.074 126.25L328.768 146.203L305.76 133.573L322.084 113.62Z" fill="#BBDAF9"/>
<path d="M311.366 143.192C311.878 142.548 312.809 142.374 313.539 142.774L324.404 148.741C325.08 149.106 325.263 149.959 324.788 150.55L321.099 155.108C320.588 155.752 319.657 155.925 318.926 155.525L308.061 149.559C307.385 149.193 307.203 148.323 307.678 147.749L311.366 143.209V143.192Z" fill="#293896"/>
<path d="M310.491 130.525L314.417 132.578L312.682 134.7L308.756 132.665L310.491 130.525Z" fill="#0E1A68"/>
<path d="M319.658 119.429L323.566 121.464L321.831 123.587L317.924 121.551L319.658 119.429Z" fill="#0E1A68"/>
<path d="M317.375 122.194L321.283 124.247L319.548 126.369L315.641 124.317L317.375 122.194Z" fill="#0E1A68"/>
<path d="M315.073 124.979L318.999 127.014L317.245 129.136L313.338 127.101L315.073 124.979Z" fill="#0E1A68"/>
<path d="M312.789 127.76L316.697 129.795L314.962 131.918L311.055 129.882L312.789 127.76Z" fill="#0E1A68"/>
<path d="M321.958 116.645L325.866 118.68L324.131 120.802L320.205 118.767L321.958 116.645Z" fill="#0E1A68"/>
<path d="M305.996 133.694L305.521 133.45L322.011 113.306L345.238 126.04L344.909 126.44L322.139 113.95L305.996 133.694Z" fill="#0E1A68"/>
<path d="M298.693 143.557C298.693 142.775 299.588 142.131 300.72 142.131C301.853 142.131 302.747 142.775 302.747 143.557C302.747 144.34 301.834 144.984 300.72 144.984C299.607 144.984 298.693 144.34 298.693 143.557Z" fill="#293896"/>
<path d="M301.652 140.027C301.652 139.244 302.565 138.601 303.679 138.601C304.793 138.601 305.706 139.244 305.706 140.027C305.706 140.81 304.811 141.454 303.679 141.454C302.547 141.454 301.652 140.81 301.652 140.027Z" fill="#293896"/>
<path d="M302.857 145.455C302.857 144.672 303.77 144.028 304.884 144.028C305.998 144.028 306.911 144.672 306.911 145.455C306.911 146.238 306.016 146.881 304.884 146.881C303.752 146.881 302.857 146.238 302.857 145.455Z" fill="#293896"/>
<path d="M305.834 141.922C305.834 141.139 306.747 140.495 307.861 140.495C308.975 140.495 309.888 141.139 309.888 141.922C309.888 142.705 308.975 143.348 307.861 143.348C306.747 143.348 305.834 142.705 305.834 141.922Z" fill="#293896"/>
<path d="M335.615 152.411L337.058 151.68L389.337 180.383L389.192 228.622L387.767 229.353L387.913 181.114L335.615 152.411Z" fill="#5B68B7"/>
<g opacity="0.46">
<path d="M335.617 152.414L335.471 200.653L387.769 229.357L387.915 181.118L335.617 152.414Z" fill="#BBDAF9"/>
</g>
<g style="mix-blend-mode:multiply" opacity="0.29">
<path d="M368.285 245.272L400.515 263.016L431.74 245.306L428.763 243.689L390.946 233.478L368.285 245.272Z" fill="#231F20"/>
</g>
<path d="M400.076 261.397L430.297 244.506L430.516 169.494L400.314 206.287L400.076 261.397Z" fill="#0E1A68"/>
<path d="M370.859 245.357L401.062 228.413L401.299 153.454L371.097 190.247L370.859 245.357Z" fill="#0E1A68"/>
<path d="M371.079 190.247L370.859 245.34L400.076 261.397L400.314 206.286L371.079 190.247Z" fill="#5B68B7"/>
<path d="M373.524 195.568L373.451 224.689L380.975 228.812L381.03 199.691L373.524 195.568Z" fill="#293896"/>
<path d="M380.993 229.128L373.195 224.849V224.692L373.25 195.432L373.78 195.693L373.725 224.553L380.993 228.536V229.128Z" fill="#0E1A68"/>
<path d="M401.301 153.456L430.517 169.495L400.315 206.288L371.08 190.248L401.301 153.456Z" fill="white"/>
<path d="M400.68 159.076L423.67 171.706L407.363 191.659L384.355 179.029L400.68 159.076Z" fill="#BBDAF9"/>
<path d="M389.958 188.649C390.469 188.005 391.401 187.831 392.131 188.231L402.996 194.198C403.672 194.563 403.854 195.416 403.38 196.007L399.691 200.565C399.18 201.209 398.249 201.382 397.518 200.982L386.653 195.016C385.977 194.65 385.795 193.78 386.269 193.206L389.958 188.666V188.649Z" fill="#293896"/>
<path d="M389.084 175.982L393.011 178.035L391.275 180.157L387.35 178.122L389.084 175.982Z" fill="#0E1A68"/>
<path d="M398.252 164.885L402.16 166.92L400.425 169.043L396.518 167.007L398.252 164.885Z" fill="#0E1A68"/>
<path d="M395.969 167.651L399.877 169.704L398.142 171.826L394.234 169.774L395.969 167.651Z" fill="#0E1A68"/>
<path d="M393.666 170.435L397.593 172.47L395.839 174.592L391.932 172.557L393.666 170.435Z" fill="#0E1A68"/>
<path d="M391.385 173.216L395.293 175.251L393.558 177.374L389.65 175.338L391.385 173.216Z" fill="#0E1A68"/>
<path d="M400.55 162.102L404.457 164.137L402.723 166.259L398.797 164.224L400.55 162.102Z" fill="#0E1A68"/>
<path d="M384.592 179.151L384.117 178.907L400.606 158.763L423.834 171.497L423.505 171.897L400.734 159.407L384.592 179.151Z" fill="#0E1A68"/>
<path d="M377.285 189.014C377.285 188.231 378.18 187.587 379.312 187.587C380.444 187.587 381.339 188.231 381.339 189.014C381.339 189.796 380.426 190.44 379.312 190.44C378.198 190.44 377.285 189.796 377.285 189.014Z" fill="#293896"/>
<path d="M380.246 185.483C380.246 184.7 381.159 184.057 382.273 184.057C383.387 184.057 384.3 184.7 384.3 185.483C384.3 186.266 383.405 186.91 382.273 186.91C381.141 186.91 380.246 186.266 380.246 185.483Z" fill="#293896"/>
<path d="M381.451 190.911C381.451 190.128 382.364 189.484 383.478 189.484C384.592 189.484 385.505 190.128 385.505 190.911C385.505 191.694 384.61 192.337 383.478 192.337C382.346 192.337 381.451 191.694 381.451 190.911Z" fill="#293896"/>
<path d="M384.428 187.378C384.428 186.595 385.341 185.951 386.455 185.951C387.569 185.951 388.481 186.595 388.481 187.378C388.481 188.161 387.569 188.804 386.455 188.804C385.341 188.804 384.428 188.161 384.428 187.378Z" fill="#293896"/>
<path d="M414.209 197.869L415.652 197.138L467.931 225.841L467.785 274.08L466.361 274.811L466.507 226.572L414.209 197.869Z" fill="#5B68B7"/>
<g opacity="0.46">
<path d="M414.211 197.872L414.064 246.111L466.363 274.815L466.509 226.576L414.211 197.872Z" fill="#BBDAF9"/>
</g>
<mask id="mask0_2067_305167" style="mask-type:luminance" maskUnits="userSpaceOnUse" x="466" y="222" width="13" height="65">
<path d="M478.538 222.05V283.759C478.538 284.541 477.845 285.324 476.69 285.91C474.381 287.1 470.614 287.1 468.286 285.91C467.114 285.307 466.527 284.525 466.527 283.727L466.723 222.018C466.723 222.8 467.309 223.598 468.482 224.201C470.809 225.407 474.576 225.391 476.886 224.201C478.041 223.598 478.538 222.832 478.538 222.05Z" fill="white"/>
</mask>
<g mask="url(#mask0_2067_305167)">
<path d="M478.538 222.05V283.759C478.538 284.541 477.845 285.324 476.691 285.91C474.381 287.1 470.614 287.1 468.287 285.91C467.114 285.307 466.723 284.525 466.741 283.727V222.018C466.741 222.8 467.327 223.598 468.5 224.201C470.827 225.407 474.594 225.391 476.904 224.201C478.059 223.598 478.556 222.832 478.556 222.05H478.538Z" fill="#293896"/>
</g>
<path d="M476.851 219.867C479.179 221.073 479.196 223.012 476.869 224.218C474.559 225.407 470.793 225.423 468.465 224.218C466.137 223.012 466.137 221.073 468.429 219.867C470.739 218.677 474.506 218.677 476.833 219.867H476.851Z" fill="#BBDAF9"/>
<path d="M432.314 234.662L429.211 234.118L427.503 237.967L427.423 238.631L427.351 243.113C427.351 243.113 427.183 246.546 429.393 246.946C431.006 247.24 429.567 246.984 429.567 246.984C431.783 247.369 432.307 244.833 432.307 244.833L433.782 238.095C434.014 236.654 433.738 234.911 432.314 234.662Z" fill="white"/>
<path d="M430.975 237.098C431.506 238.275 430.416 239.837 429.442 240.358C429.1 240.547 429.9 242.863 429.769 243.965C429.638 245.119 428.592 245.044 428.344 244.855C428.148 244.704 427.581 240.999 427.407 240.064C426.826 236.962 427.785 236.321 428.759 235.785C429.732 235.257 430.437 235.914 430.975 237.091V237.098Z" fill="white"/>
<path d="M427.744 237.937C430.934 241.445 433.31 238.586 433.31 238.586C433.31 238.586 433.949 235.235 434.095 234.669C434.88 231.47 437.779 220.476 438.259 216.386C438.789 211.889 439.225 203.769 439.225 203.769C439.225 203.769 444.348 195.967 440.083 194.299C437.641 193.341 432.111 193.379 430.047 204.26C429.517 207.067 429.001 214.59 428.645 218.295C427.983 225.154 426.951 236.48 426.951 236.48C426.951 236.48 426.806 236.903 427.751 237.944L427.744 237.937Z" fill="#BBD2E9"/>
<path d="M445.805 201.155C445.805 201.155 453.479 206.822 454.511 209.734C455.543 212.647 455.543 237.94 452.592 239.774C449.642 241.615 434.687 245.403 430.944 241.057C427.202 236.711 429.265 212.647 431.772 207.441C434.28 202.234 435.006 199.404 435.006 199.404L445.798 201.163L445.805 201.155Z" fill="#BBD2E9"/>
<path d="M430.499 281.113L429.54 282.977C429.54 282.977 421.496 285.776 421.002 286.01C420.435 286.274 419.185 286.735 419.294 287.799C419.323 288.055 419.301 288.221 419.454 288.447C419.984 289.285 421.103 289.67 422.15 289.904C424.424 290.387 429.271 289.836 429.271 289.836C430.681 289.708 433.043 289.074 433.304 288.863C433.304 288.863 434.525 288.538 434.729 288.976C434.801 289.142 434.656 289.851 434.627 289.994L437.672 288.84C437.824 288.772 438.159 287.285 438.253 286.629L438.348 282.268L430.499 281.105V281.113Z" fill="#231F20"/>
<path d="M420.876 289.1C421.464 289.417 422.3 289.598 423.136 289.726C426.464 290.224 431.565 289.228 431.565 289.228C432.067 289.122 433.985 288.715 433.985 288.715C433.985 288.715 434.763 288.798 434.734 288.986C434.734 288.896 434.726 288.986 434.763 288.986C434.835 289.017 434.632 290.005 434.632 290.005L433.847 289.454C433.847 289.454 431.507 289.9 431.093 290.013C431.093 290.013 426.188 290.971 422.83 290.503C421.769 290.36 419.996 289.666 419.393 288.639C419.291 288.451 419.175 288.013 419.313 287.719C419.321 287.772 420.076 288.685 420.868 289.115L420.876 289.1Z" fill="#282827"/>
<path d="M434.727 288.978L438.063 287.59C438.063 287.59 437.751 288.88 437.707 288.85L434.662 290.005C434.677 289.906 434.713 289.25 434.727 288.978Z" fill="#282827"/>
<path d="M431.964 234.156L428.716 280.985C428.44 282.834 427.364 283.437 427.873 284.079C429.755 286.478 438.228 288.825 439.529 284.931L445.539 237.793L431.972 234.148L431.964 234.156Z" fill="#293896"/>
<path d="M457.485 290.485C457.485 290.485 457.623 295.367 457.637 295.488C457.812 297.661 455.355 303.222 451.824 303.584C451.3 303.637 449.455 303.471 449.455 303.471C449.455 303.471 447.042 303.403 447.514 298.989C447.703 297.276 449.418 290.364 449.418 290.364L457.485 290.493V290.485Z" fill="#383736"/>
<path d="M457.828 289.263C457.828 289.263 457.544 292.07 457.297 295.722C457.152 297.895 454.609 302.513 451.498 302.694C450.692 302.747 450.06 302.672 450.001 302.672C448.664 302.604 446.833 302.106 447.589 297.616C447.865 296.016 448.984 289.844 449.079 289.836L457.828 289.263Z" fill="#231F20"/>
<path d="M440.564 236.645C441.189 246.175 447.606 292.71 447.606 292.71C447.7 294.045 449.008 295.939 451.174 296.196C453.848 296.505 455.73 295.109 455.73 295.109C457.445 294.483 458.121 292.446 458.135 291.978L454.415 234.358L440.557 236.652L440.564 236.645Z" fill="#293896"/>
<path d="M454.9 202.289C454.9 202.289 450.533 197.075 448.476 196.328C446.419 195.581 439.901 196.162 439.901 196.162C439.901 196.162 436.188 204.251 435.337 208.34C434.008 214.784 438.688 219.342 438.688 219.342L449.217 213.094L454.9 202.296V202.289Z" fill="#BBD2E9"/>
<path d="M438.418 197.181C441.644 200.486 444.086 196.818 446.164 194.245L446.564 184.994L438.592 187.447L438.418 197.181Z" fill="white"/>
<path d="M443.659 179.946C441.835 179.878 441.581 181.682 441.581 181.682L441.457 185.47C441.457 185.47 441.515 186.3 442.198 186.466C443.223 186.715 443.703 185.794 444.197 184.783C444.226 184.73 444.865 183.229 444.902 183.138C445.447 181.855 445.374 180.007 443.659 179.946Z" fill="#FFE8D9"/>
<path d="M439.56 197.696C440.003 198.088 439.64 198.601 439.386 198.948L437.787 201.136C437.278 201.785 437.082 201.038 437.082 200.329L437.249 195.236C437.627 192.051 438.63 192.481 438.63 192.481C438.63 192.481 438.775 192.768 438.695 193.432C438.572 194.526 438.019 196.367 439.553 197.703L439.56 197.696Z" fill="#02137B"/>
<path d="M446.237 191.99C446.237 191.99 446.383 192.556 446.019 193.28C444.537 196.246 440.184 197.83 440.184 197.83C439.668 198.019 439.683 198.283 439.741 199.181L440.155 202.486C440.213 203.361 440.649 203.286 440.991 202.939C440.991 202.939 444.428 200.034 445.394 199.053C447.676 196.736 447.727 196.88 446.964 193.869C446.499 192.043 446.245 191.982 446.245 191.982L446.237 191.99Z" fill="#02137B"/>
<path d="M440.866 174.626L447.588 174.867L447.326 187.469C447.21 188.322 447.217 189.106 447.065 189.831C446.89 190.631 446.513 191.362 445.553 192.079C445.553 192.079 444.398 193.249 443.032 194.298C441.971 195.12 440.655 195.777 439.892 195.618C439.304 195.505 437.502 194.818 437.502 194.818C436.215 194.2 435.997 193.468 435.532 191.959C435.322 191.287 434.246 179.908 434.246 179.908L434.341 175.667L440.873 174.626H440.866Z" fill="white"/>
<path d="M435.156 173.766C433.237 174.807 433.462 177.35 433.637 178.075C434.247 180.58 434.32 180.331 434.284 180.369C434.255 180.399 434.255 179.38 434.24 178.392C434.226 176.913 435.715 177.237 436.333 177.675C437.445 178.482 439.596 179.403 439.654 179.441C440.41 179.923 440.097 179.561 440.163 178.988C440.177 178.86 440.206 178.097 440.206 178.097C440.308 178.165 442.081 179.071 442.539 179.403C444.501 180.897 444.232 184.896 444.37 184.889C444.944 184.866 444.901 184.617 445.082 184.013C445.082 184.013 445.213 181.169 447.422 182.346C448.585 182.964 447.655 185.681 447.575 185.839L447.037 189.959C447.037 190.012 450.329 184.775 450.678 183.991C454.079 176.196 448.65 168.031 440.846 170.62C439.283 171.14 435.156 173.781 435.156 173.781V173.766Z" fill="#633A11"/>
<path d="M446.985 181.69C445.249 181.637 444.936 184.633 444.936 184.633L444.893 186.987C444.893 186.987 444.951 187.78 445.605 187.938C446.593 188.18 447.087 187.561 447.56 186.587C447.589 186.535 448.192 185.093 448.228 185.003C448.744 183.788 448.628 181.743 446.985 181.69Z" fill="white"/>
<path d="M433.955 176.975C437.647 178.258 441.789 178.575 445.866 178.499C443.039 180.205 439.282 181.729 435.656 181.352C434.471 181.223 432.938 181.186 432.211 180.054C431.092 178.311 433.781 177.526 434.697 176.824L433.963 176.983L433.955 176.975Z" fill="#0E1A68"/>
<path d="M430.708 171.758C430.708 171.758 433.216 175.75 433.288 177.659C433.361 179.575 442.902 179.266 445.54 178.73C448.171 178.202 450.278 177.923 451.441 175.44C452.698 172.754 453.069 170.302 453.069 170.302L439.93 172.98L430.701 171.758H430.708Z" fill="#13238A"/>
<path d="M430.635 171.692C432.481 171.616 436.412 168.372 437.357 167.934C438.403 167.436 441.346 167.934 443.999 168.243C447.886 168.696 448.664 170.054 453.082 170.311C451.796 172.235 449.689 173.948 447.181 174.069C445.176 174.167 438.628 173.82 436.63 173.842L430.649 171.699L430.635 171.692Z" fill="#1A2EB0"/>
<path d="M430.795 231.274C430.795 231.274 435.351 238.292 454.245 233.847L454.39 237.062C454.39 237.062 441.55 243.966 433.433 237.062C431.427 235.357 430.795 231.274 430.795 231.274Z" fill="#020202"/>
<path d="M453.068 236.291C437.423 239.823 431.813 234.45 431.369 233.99C430.926 233.53 430.723 231.085 430.723 231.085C430.723 231.085 434.618 237.982 452.916 234.148L453.061 236.291H453.068Z" fill="#020202"/>
<path d="M445.75 239.437L446.396 247.745C446.484 248.885 447.545 249.654 448.606 249.345C449.79 249.005 450.568 247.836 450.473 246.56L449.994 240.622L454.07 239.769L453.903 235.37L445.59 236.721L445.757 239.43L445.75 239.437Z" fill="#020202"/>
<path d="M457.268 245.746C457.232 246.991 455.597 247.746 454.514 247.716C454.136 247.701 453.446 250.696 451.891 250.545C451.891 250.545 451.92 249.738 452.014 248.319C452.014 248.206 451.883 246.991 452.625 246.169C454.572 243.973 454.805 243.55 455.887 243.581C456.97 243.611 457.312 244.501 457.275 245.746H457.268Z" fill="white"/>
<path d="M458.025 242.848L454.923 243.308L454.043 245.496L454.414 247.926C454.414 247.926 454.545 248.59 454.08 249.435C453.898 249.767 453.571 250.333 453.571 250.333C453.571 250.333 453.491 252.8 455.279 252.257C455.86 252.091 456.267 251.593 456.267 251.593C457.044 251.457 458.352 251.08 459.217 250.876C461.216 250.408 460.656 247.941 460.656 247.941L460.344 245.504C460.176 244.13 459.45 242.644 458.025 242.855V242.848Z" fill="white"/>
<path d="M457.581 245.837C458.81 245.882 459.602 245.422 459.602 245.422C459.602 245.422 460.684 244.886 460.743 243.837C460.924 240.706 461.455 226.791 461.048 222.928C460.612 218.672 459.1 209.157 459.1 209.157C459.1 209.157 457.734 201.136 453.243 201.732C449.501 202.23 449.464 207.112 449.879 210.515C450.206 213.194 451.608 222.007 452.139 225.629C453.149 232.534 453.519 244.169 453.519 244.169C453.519 244.169 454.74 245.746 457.581 245.852V245.837Z" fill="#BBD2E9"/>
<path d="M440.517 243.188C438.606 243.188 437.051 241.573 437.051 239.581C437.051 237.589 438.606 235.981 440.517 235.981C442.428 235.981 443.983 237.596 443.983 239.581C443.983 241.565 442.428 243.188 440.517 243.188ZM440.517 236.91C439.093 236.91 437.937 238.117 437.937 239.588C437.937 241.06 439.093 242.275 440.517 242.275C441.941 242.275 443.104 241.067 443.104 239.588C443.104 238.109 441.949 236.91 440.517 236.91Z" fill="#F7F7F7"/>
<path d="M444.073 244.57C442.155 244.57 440.6 242.963 440.6 240.97C440.6 238.978 442.155 237.371 444.073 237.371C445.992 237.371 447.539 238.986 447.539 240.97C447.539 242.955 445.984 244.57 444.073 244.57ZM444.073 238.284C442.649 238.284 441.486 239.491 441.486 240.963C441.486 242.434 442.642 243.649 444.073 243.649C445.505 243.649 446.653 242.442 446.653 240.963C446.653 239.484 445.497 238.284 444.073 238.284Z" fill="#F7F7F7"/>
<path d="M433.623 174.635C433.623 174.635 433.623 175.208 433.739 175.789C433.848 176.363 433.739 177.389 434.401 177.63C435.062 177.857 435.948 176.476 435.948 176.129C435.948 175.782 434.51 172.567 433.623 174.635Z" fill="#BBD2E9"/>
<g opacity="0.29" style="mix-blend-mode:multiply">
<path d="M313.568 349.057C313.568 349.057 326.09 341.124 331.318 337.836C350.246 325.907 358.925 326.399 361.694 326.852C364.463 327.305 362.872 332.364 348.159 341.045C343.696 343.683 357.106 342.089 349.791 349.057C346.341 352.345 335.533 357.955 323.383 359.294C315.469 360.16 299.31 358.625 313.568 349.057Z" fill="#293896"/>
</g>
<path d="M319.373 340.552C319.373 340.552 317.617 338.564 317.245 338.761C316.852 338.958 315.716 340.847 315.612 341.123C315.509 341.399 315.509 341.753 316.191 342.186C316.873 342.619 319.352 340.552 319.352 340.552H319.373Z" fill="#5B68B7"/>
<path d="M352.437 324.078C352.437 324.078 350.928 326.696 352.871 326.618C354.069 326.578 357.83 325.653 357.83 325.653C359.814 325.043 362.356 324.767 363.017 326.145C363.017 326.145 363.306 326.677 363.306 326.992C363.348 328.055 363.616 327.13 362.273 328.606C362.273 328.606 359.669 331.027 357.996 332.051C355.888 333.331 354.731 333.508 353.987 333.527C353.987 333.527 352.499 333.429 351.61 333.646C350.619 333.882 351.052 335.063 351.176 336.008L348.242 337.602C345.205 338.784 342.374 336.48 342.291 335.752L341.278 328.153L352.458 324.059L352.437 324.078Z" fill="#5B68B7"/>
<path d="M352.663 333.231C353.53 333.113 354.522 332.838 357.023 331.853C359.11 331.007 362.023 328.507 362.023 328.507C362.705 327.877 363.243 327.148 363.16 326.519C363.243 326.755 363.284 326.991 363.325 327.129C363.532 328.093 362.705 328.723 362.044 329.294C362.044 329.294 359.792 331.381 358.014 332.188C355.7 333.231 355.308 333.212 354.233 333.389C354.233 333.389 352.869 333.625 351.96 333.763C351.547 333.822 351.01 334.137 351.03 334.235C351.03 334.176 351.092 333.487 352.704 333.271L352.663 333.231Z" fill="#5B68B7"/>
<path d="M348.116 336.754L351.03 335.179C351.071 335.494 351.133 335.809 351.195 336.124L348.261 337.718C345.223 338.9 342.393 336.596 342.31 335.868L342.186 334.903C342.289 335.632 345.099 337.935 348.137 336.754H348.116Z" fill="#5B68B7"/>
<path d="M312.885 266.042L309.538 272.046L309.414 274.88L309.455 278.385L307.843 281.574C307.843 281.574 307.265 282.834 310.385 284.113C311.976 284.763 314.187 282.834 314.187 282.834C315.096 282.302 316.192 280.353 316.419 279.211C316.625 278.168 316.832 273.148 316.832 273.148C316.584 271.632 314.58 265.766 312.865 266.042H312.885Z" fill="white"/>
<path d="M311.852 273.758C311.852 273.758 311.294 275.372 312.596 276.868C313.898 278.364 313.898 279.034 313.898 279.034C313.898 279.034 314.084 279.526 313.505 279.959C312.927 280.392 311.687 281.121 311.852 281.731C312.018 282.341 312.307 282.833 313.216 282.42C314.105 282.006 316.109 279.9 316.109 279.9C316.109 279.9 316.832 278.148 316.522 276.553C316.047 274.171 314.911 273.502 314.911 273.502C314.911 273.502 312.617 272.4 311.873 273.758H311.852Z" fill="white"/>
<path d="M312.121 276.357C309.332 275.688 308.96 273.818 308.96 273.818C308.96 273.818 308.443 273.621 308.794 271.77C309.456 268.345 311.915 256.061 313.444 251.986C315.118 247.518 321.792 236.041 321.792 236.041C321.792 236.041 326.689 226.474 333.612 229.387C337.786 231.139 333.178 236.119 331.752 239.683C330.636 242.478 325.532 251.75 323.776 255.904C321.73 260.766 317.039 275.806 317.039 275.806C317.039 275.806 314.932 277.007 312.121 276.338V276.357Z" fill="#0E1A68"/>
<path d="M344.894 206.158L351.631 206.945L348.8 223.462C348.097 228.206 345.907 228.777 344.398 228.659C341.237 228.442 337.889 226.474 336.216 225.332C332.971 223.147 333.529 217.576 333.529 217.123L333.385 205.941L344.874 206.158H344.894Z" fill="white"/>
<path d="M331.793 229.073L333.673 218.738L342.806 220.766L341.628 230.806C341.628 232.243 342.682 232.636 343.488 233.837L331.813 229.073H331.793Z" fill="white"/>
<path d="M340.927 270.136C340.927 270.136 348.51 297.814 349.213 300.708C350.742 307.046 354.276 328.957 354.276 328.957C354.276 328.957 354.544 333.15 348.51 334.429C345.142 335.138 341.423 332.795 341.278 331.89C338.24 311.633 337.063 307.617 336.133 305.393C334.562 301.633 329.479 292.42 326.565 286.022C324.23 280.904 324.23 274.959 324.23 274.959L340.947 270.136H340.927Z" fill="#0E1A68"/>
<path d="M318.548 339.175C318.548 339.175 315.861 340.848 314.477 345.199C313.898 346.99 314.663 348.191 314.663 348.191C314.663 348.191 316.254 348.762 317.68 349.352C317.948 349.47 318.3 350.061 318.527 350.258C321.172 352.679 322.515 353.408 322.908 353.624C324.933 354.707 327.536 354.982 329.127 354.707C330.719 354.451 335.182 351.951 335.182 351.951C335.182 351.951 335.719 349.923 334.004 349.136C332.289 348.348 329.251 348.742 329.251 348.742C329.251 348.742 325.47 345.376 324.148 344.057C322.825 342.738 318.568 339.195 318.568 339.195L318.548 339.175Z" fill="#5B68B7"/>
<path d="M345.865 282.126C344.315 291.949 339.377 314.922 337.992 318.505C335.037 326.261 327.681 345.947 327.268 346.537C327.144 346.715 326.482 347.699 321.709 343.092C320.221 341.655 317.308 339.864 315.634 341.104C315.634 341.104 321.916 320.651 324.581 313.052C328.652 301.418 328.838 276.811 328.838 276.811L345.865 282.106V282.126Z" fill="#0E1A68"/>
<path d="M347.828 238.207C349.833 240.176 352.333 246.318 351.961 253.267C351.217 267.027 348.448 283.248 348.448 283.248C348.448 284.449 346.774 286.595 342.89 287.48C340.885 287.933 338.674 288.76 334.004 287.48C327.516 285.709 323.073 280.689 323.073 278.13C323.073 278.13 323.796 269.96 322.515 246.908C321.585 230.333 331.049 228.384 331.049 228.384L339.749 231.278L347.808 238.207H347.828Z" fill="#5B68B7"/>
<path d="M368.822 278.682L371.756 282.599C371.756 282.599 373.988 286.359 371.446 288.209C370.165 289.135 368.884 289.607 368.884 289.607C368.884 289.607 368.037 289.902 367.437 289.627C367.107 289.489 366.879 288.761 367.024 288.269C367.169 287.796 366.9 286.89 366.445 286.32C363.883 283.249 363.511 281.989 363.511 281.989L368.822 278.682Z" fill="white"/>
<path d="M367.087 282.656C364.153 284.861 362.397 283.542 362.397 283.542C362.397 283.542 351.796 274.113 347.828 267.557C345.349 263.443 341.505 252.537 341.505 252.537C341.505 252.537 337.703 241.454 342.476 238.915C346.465 236.808 349.399 240.726 350.783 244.289C352.643 249.072 354.689 257.636 356.962 262.163C359.545 267.321 369.381 279.093 369.381 279.093C369.381 279.093 369.422 280.904 367.066 282.676L367.087 282.656Z" fill="#0E1A68"/>
<path d="M322.122 349.845C322.267 349.983 324.995 353.172 325.573 353.625C326.875 354.609 327.825 354.707 328.445 354.707C327.598 354.885 325.284 354.884 323.259 353.92C320.8 352.758 318.692 350.18 318.547 350.16C318.341 350.16 321.275 351.144 321.275 351.144L322.122 349.825V349.845Z" fill="#0E1A68"/>
<path d="M319.022 347.779C320.076 349.098 320.923 350.397 321.047 350.889L314.703 348.192C314.703 348.192 314.393 347.779 314.29 347.227C313.876 345.18 317.844 346.302 319.022 347.779Z" fill="#293896"/>
<path d="M332.784 226.002C331.565 225.727 331.255 225.924 331.007 226.632C330.78 227.341 330.78 227.38 330.49 228.05C330.263 228.621 330.531 228.64 330.531 228.64C330.531 228.64 336.669 230.254 341.215 233.207C344.459 235.314 344.707 235.511 344.707 235.511L343.963 233.148C343.364 231.121 340.925 229.132 337.247 227.597C337.247 227.597 334.251 226.317 332.763 225.983L332.784 226.002Z" fill="#293896"/>
<path d="M333.84 202.261C334.006 201.966 334.316 201.513 334.77 201.237C335.349 200.883 335.969 200.903 335.969 200.903C335.969 200.903 335.783 200.942 335.163 201.277C334.853 201.434 334.729 201.67 334.646 201.887C336.63 201.08 339.151 200.784 342.251 201.237C342.623 201.296 344.71 201.788 346.383 201.71C346.487 201.71 345.701 201.926 345.805 202.438C345.846 202.674 346.693 202.654 347.231 202.654C347.644 202.654 349.462 202.989 349.855 203.718C349.876 203.757 348.966 203.895 349.504 204.308C350.309 204.958 351.157 205.627 351.963 206.729C352.582 207.596 353.037 209.269 353.037 209.269C352.789 209.722 351.487 209.21 350.929 209.741C350.64 210.017 349.731 210.962 349.173 212.32C348.615 213.698 348.264 214.997 347.892 216.828L347.52 218.561C347.479 219.191 346.528 217.281 346.073 216.73C345.619 216.159 344.73 216.513 342.147 218.639C341.031 219.565 336.341 223.206 336.341 223.206C335.059 223.954 333.923 224.388 332.807 222.773C332.435 222.242 329.811 217.734 329.336 216.12C327.745 210.608 329.005 204.761 333.84 202.28V202.261Z" fill="#84460F"/>
<path d="M346.012 216.493C346.012 216.493 344.586 216.651 344.049 218.206C343.677 219.308 344.049 220.233 344.255 220.509C344.834 221.257 345.454 221.434 345.454 221.434C345.454 221.434 345.537 218.796 345.578 218.304C345.619 217.812 346.012 216.513 346.012 216.513V216.493Z" fill="white"/>
<path d="M346.692 215.941C346.692 215.941 347.518 215.941 346.898 217.024C346.278 218.107 346.113 218.776 346.072 219.406C346.03 219.977 346.113 221.69 346.113 221.69C346.113 221.69 345.576 222.379 345.121 221.316C344.894 220.804 344.791 219.859 344.853 218.638C344.894 218.146 345.824 215.666 346.692 215.941Z" fill="white"/>
</svg>
