<svg width="705" height="468" viewBox="0 0 705 468" fill="none" xmlns="http://www.w3.org/2000/svg">
<rect width="705" height="468" fill="#E0E6F9"/>
<path fill-rule="evenodd" clip-rule="evenodd" d="M559.648 232.756L501.549 283.694H482.98L361.999 216.454L411.177 189.114H429.747L446.526 198.443L414.128 216.454L492.265 259.881L541.079 232.756H559.648Z" fill="#293896"/>
<path fill-rule="evenodd" clip-rule="evenodd" d="M510.08 215.242L504.375 201.391H507.283L511.492 215.242H510.08Z" fill="#0E1A68"/>
<path fill-rule="evenodd" clip-rule="evenodd" d="M497.565 183.447L495.187 189.68L499.047 193.381L511.24 198.591L513.603 192.372L515.029 185.305L514.372 163.39L502.333 156.699L497.565 183.447Z" fill="#5B68B7"/>
<path fill-rule="evenodd" clip-rule="evenodd" d="M495.188 189.68L490.392 192.345L495.863 207.635L508.052 202.481L511.24 198.591L495.188 189.68Z" fill="#0E1A68"/>
<path fill-rule="evenodd" clip-rule="evenodd" d="M514.371 163.39L513.602 192.372L511.239 198.591L496.585 206.735V209.724L512.623 200.812L515.699 191.201L515.266 162.892L514.371 163.39Z" fill="#293896"/>
<path fill-rule="evenodd" clip-rule="evenodd" d="M506.443 201.257L496.585 206.736V209.724L505.702 204.609L506.443 201.257Z" fill="#293896"/>
<path fill-rule="evenodd" clip-rule="evenodd" d="M584.119 202.051L546.966 215.028L501.55 247.941L493.37 255.223L501.55 283.694L583.042 238.396L579.91 233.402L584.119 202.051Z" fill="#BBDAF9"/>
<path fill-rule="evenodd" clip-rule="evenodd" d="M446.527 162.689L416.072 169.676L414.129 180.701V216.454L446.527 198.443V162.689Z" fill="#FBF5EC"/>
<path fill-rule="evenodd" clip-rule="evenodd" d="M380.568 180.701L501.549 247.941V283.694L380.568 216.455V180.701Z" fill="#5B68B7"/>
<mask id="mask0_2067_305190" style="mask-type:luminance" maskUnits="userSpaceOnUse" x="495" y="189" width="4" height="2">
<path d="M497.579 189.761L498.264 190.192C498.264 190.192 498.138 190.125 498.068 190.084C497.551 189.909 496.963 190.125 496.642 190.286C496.558 190.326 496.488 190.367 496.46 190.38L495.775 189.95C495.775 189.95 495.873 189.896 495.956 189.855C496.278 189.707 496.865 189.478 497.383 189.667C497.453 189.694 497.523 189.721 497.592 189.761H497.579Z" fill="white"/>
</mask>
<g mask="url(#mask0_2067_305190)">
<path d="M496.46 190.394L495.774 189.963C495.774 189.963 495.872 189.909 495.956 189.869C496.278 189.721 496.865 189.492 497.382 189.681C497.452 189.707 497.522 189.734 497.592 189.775L498.277 190.206C498.277 190.206 498.151 190.138 498.082 190.098C497.564 189.923 496.977 190.138 496.655 190.3C496.571 190.34 496.502 190.381 496.474 190.394H496.46Z" fill="#8E8A8B"/>
</g>
<path d="M484.587 154.344C484.587 154.344 486.237 159.742 485.133 162.474C483.749 165.907 483.749 165.221 483.749 165.221C483.749 165.221 485.846 165.476 487.328 165.221C489.342 164.871 491.453 164.063 491.453 164.063L486.769 153.725L484.56 154.344H484.587Z" fill="#8D5114"/>
<path d="M480.043 203.68C480.043 203.68 483.427 207.53 484.336 208.243C485.245 208.957 488.586 209.643 489.439 209.778C490.376 209.926 491.285 210.29 491.817 209.172C492.53 207.651 488.461 197.959 488.461 197.959L480.029 198.444V203.68H480.043Z" fill="#363030"/>
<path d="M476.114 223.845C476.114 223.845 478.477 220.95 478.952 220.331C480.323 218.554 479.693 216.535 479.693 216.535L476.589 203.666C476.393 202.845 476.324 201.687 476.771 200.677C476.911 200.368 477.093 200.072 477.358 199.802L490.754 190.42L493.005 191.349C495.578 194.243 494.292 195.562 494.292 197.339C494.292 197.433 487.048 202.374 485.287 203.626C485.063 203.787 484.504 204.608 484.532 204.864C484.741 206.466 485.133 215.135 485.412 218.204L485.524 219.618C485.524 220.264 485.385 220.506 484.909 221.273C484.392 222.121 480.896 224.827 480.896 224.827C480.896 224.827 478.659 226.725 476.477 225.877C475.345 225.446 475.415 224.571 476.002 223.979C476.044 223.952 476.072 223.912 476.114 223.871V223.845Z" fill="#CCA283"/>
<path d="M484.068 224.692L482.278 223.925L483.509 222.552H484.516L484.068 224.692Z" fill="#5C5555"/>
<path d="M485.635 222.323L485.257 224.033C485.257 224.033 485.215 224.342 484.502 224.571C484.32 224.639 484.055 224.692 484.055 224.692L483.901 222.754L485.635 222.323Z" fill="#7C7677"/>
<path d="M474.883 227.384C474.044 226.9 474.394 225.903 474.45 225.796C474.925 224.867 475.708 225.015 475.708 225.015C475.275 225.554 479.54 226.496 477.75 226.159C476.645 225.957 480.043 225.446 481.329 224.732C482.238 224.248 483.161 223.13 483.734 222.592C485.496 220.936 485.594 219.482 485.594 219.482C485.594 219.482 485.748 220.034 485.748 220.923C485.748 222.215 485.189 222.444 485.189 222.444C485.189 222.444 485.119 222.902 483.902 223.413C482.532 223.992 481.595 226.294 479.819 227.155C478.337 227.855 476.1 228.098 474.883 227.384Z" fill="#7C7677"/>
<path d="M474.938 226.967C474.015 226.429 474.169 225.689 475.623 224.275C475.693 224.221 476.029 223.925 476.029 223.925C475.595 224.464 475.707 225.271 477.19 225.514C478.392 225.702 479.678 225.392 480.979 224.437C481.804 223.817 483.048 223.104 484.195 221.731C485.649 220.008 485.425 218.204 485.425 218.204C485.425 218.204 486.488 218.877 486.25 220.493C486.055 221.771 485.537 222.579 485.537 222.579L483.552 223.481C482.223 224.087 481.958 225.769 479.818 226.739C477.623 227.721 475.833 227.506 474.952 226.994L474.938 226.967Z" fill="#4B378D"/>
<path d="M481.651 226.807C481.651 226.807 484.126 223.589 484.588 222.97C486.028 221.032 485.245 218.622 485.245 218.622L482.127 206.615C481.875 205.551 481.344 203.559 482.91 201.97L493.719 191.497C493.719 191.497 498.165 189.492 500.542 192.44C502.961 195.442 503.087 197.232 501.297 199.588C501.242 199.668 492.334 205.255 490.447 206.332C489.804 206.695 490.013 207.543 490.069 207.799C491.132 212.214 490.782 217.155 490.936 220.803V221.032L491.062 222.553C491.062 223.199 490.922 223.441 490.447 224.209C489.929 225.07 486.42 227.762 486.42 227.762C486.42 227.762 484.182 229.66 482.001 228.812C480.868 228.382 480.938 227.493 481.526 226.914C481.554 226.874 481.596 226.847 481.637 226.807H481.651Z" fill="#E8C6AC"/>
<path d="M489.607 227.654L487.817 226.887L489.048 225.514H490.055L489.607 227.654Z" fill="#5C5555"/>
<path d="M491.174 225.285L490.81 226.995C490.81 226.995 490.768 227.304 490.055 227.533C489.873 227.587 489.608 227.641 489.608 227.641L489.44 225.716L491.174 225.285Z" fill="#7C7677"/>
<path d="M480.42 230.346C479.581 229.862 479.931 228.865 479.987 228.758C480.462 227.829 481.245 227.977 481.245 227.977C480.812 228.515 485.077 229.458 483.287 229.121C482.182 228.919 485.58 228.394 486.867 227.694C487.775 227.21 488.698 226.106 489.272 225.554C491.033 223.885 491.145 222.444 491.145 222.444C491.145 222.444 491.285 222.983 491.285 223.871C491.285 225.164 490.726 225.392 490.726 225.392C490.726 225.392 490.656 225.85 489.439 226.362C488.083 226.94 487.146 229.242 485.356 230.104C483.874 230.817 481.637 231.046 480.42 230.333V230.346Z" fill="#7C7677"/>
<path d="M480.49 229.929C479.567 229.391 479.721 228.65 481.175 227.237C481.245 227.17 481.567 226.874 481.567 226.874C481.133 227.425 481.245 228.22 482.727 228.462C483.93 228.65 485.216 228.341 486.503 227.372C487.328 226.752 488.614 226.066 489.719 224.666C491.285 222.687 490.935 221.031 490.935 221.031C490.935 221.031 491.998 221.799 491.76 223.427C491.564 224.706 491.047 225.514 491.047 225.514L489.062 226.416C487.733 227.022 487.467 228.718 485.328 229.673C483.133 230.656 481.343 230.441 480.462 229.929H480.49Z" fill="#4B378D"/>
<path d="M486.587 191.564C485.342 192.574 477.75 198.43 477.638 198.537C475.988 199.843 476.771 200.678 476.771 200.678C476.771 200.624 477.4 199.399 478.505 199.52C481.287 199.83 484.35 201.216 486.223 202.064C490.516 204.029 491.831 209.185 491.831 209.185C491.942 209.293 493.383 207.476 493.76 207.031C494.613 205.995 504.038 203.41 504.611 197.299C504.765 195.589 504.555 193.476 504.024 190.178C504.024 190.178 501.101 194.189 494.068 192.628C488.754 191.457 488.517 189.182 488.517 189.182C488.517 189.451 487.957 190.474 486.601 191.564H486.587Z" fill="#293896"/>
<path d="M474.282 187.472L477.694 189.519C483.86 187.297 484.42 187.136 486.601 185.83C487.58 185.238 488.559 183.878 488.824 182.801L491.803 170.35C493.201 168.263 493.9 163.404 491.174 163.04C486.979 162.502 486.112 168.465 485.86 170.552C485.552 173.069 485.021 178.992 484.881 180.621C484.867 180.876 484.699 181.119 484.462 181.267L474.296 187.472H474.282Z" fill="#0E1A68"/>
<path d="M489.049 163L486.685 172.786C486.685 172.786 486.168 174.738 486.364 175.815C486.63 177.336 487.818 178.642 487.888 178.749C488.755 179.88 489.258 181.347 488.979 183.757L488.461 189.626C488.461 189.626 488.126 191.215 492.516 192.803C502.179 196.316 504.374 192.615 504.374 192.615C504.472 192.453 504.598 191.807 504.5 191.336C504.22 190.03 503.982 189.155 503.703 188.172L502.542 183.178C502.318 182.451 502.193 181.697 502.179 180.944L503.549 174.509C503.549 174.509 505.465 170.053 503.843 168.128C502.29 166.257 498.277 163.39 496.753 162.636C496.362 162.448 495.523 162.165 494.544 161.99C494.544 161.99 490.964 161.559 489.035 163H489.049Z" fill="#293896"/>
<path d="M491.285 165.961C494.04 168.021 495.173 165.409 496.543 163.39L496.04 156.363L490.293 157.454L491.285 165.961Z" fill="white"/>
<path d="M496.361 161.183C496.361 161.183 496.473 162.071 496.459 162.233C496.166 164.965 492.866 166.352 492.866 166.352C492.46 166.594 492.53 167.092 492.656 167.725L493.075 169.596C493.201 170.215 493.523 170.121 493.761 169.838C493.761 169.838 496.138 167.469 496.795 166.702C498.333 164.858 498.151 164.481 497.298 162.421C496.795 161.169 496.361 161.196 496.361 161.196V161.183Z" fill="white"/>
<path d="M492.32 165.975C492.627 166.298 492.753 166.554 492.585 166.823L491.313 168.613C490.782 169.313 490.6 168.829 490.544 168.317L490.208 164.682C490.208 162.394 490.838 162.232 490.838 162.232C490.838 162.232 490.852 162.407 490.907 162.879C491.005 163.673 491.369 165.032 492.32 165.975Z" fill="white"/>
<path d="M491.929 146.011C489.104 146.146 485.93 148.286 485.021 150.629C483.623 154.263 485.343 156.013 485.315 156.134C485.119 156.955 487.524 153.038 488.517 153.361C489.622 153.711 493.887 155.919 494.054 156.498C496.32 164.911 495.201 168.088 495.201 168.088C496.208 168.088 500.305 165.046 501.172 162.259C501.563 160.994 500.696 154.573 500.389 153.24C499.284 148.327 496.501 145.809 491.929 146.011Z" fill="#8D5114"/>
<path d="M488.377 152.19C484.588 152.257 485.063 154.572 485.497 156.551C485.86 158.18 487.063 160.738 487.063 160.738C488.028 162.838 489.118 164.157 490.293 164.574C492.069 165.207 493.005 164.372 495.243 162.232C495.271 162.205 494.865 159.243 494.641 158.14C494.208 156.066 493.089 152.082 488.377 152.19Z" fill="white"/>
<path d="M494.039 149.834L486.391 150.063C486.391 150.063 486.279 151.382 486.782 152.755C488.88 158.463 495.592 157.884 495.592 157.884C496.235 156.969 494.025 149.847 494.025 149.847L494.039 149.834Z" fill="#8D5114"/>
<path d="M487.51 187.661C487.51 187.661 486.489 187.85 486.559 188.307C486.657 189.102 487.482 190.165 487.985 190.919C488.209 191.269 488.615 191.551 488.992 191.403C489.37 191.255 490.628 189.828 490.013 188.886C489.398 187.944 487.902 187.405 487.524 187.661H487.51Z" fill="#4B378D"/>
<path d="M489.203 189.923L489.175 189.68L488.546 187.661L483.106 188.334L480.17 190.111C480.17 190.111 479.75 190.488 480.058 190.838C480.184 190.973 480.533 190.865 480.729 190.784C481.219 190.582 482.03 190.192 482.169 190.111C482.575 189.869 482.785 190.353 482.785 190.353C482.855 190.528 483.414 191.403 483.638 191.794C483.903 192.251 484.323 192.373 484.938 192.534C485.763 192.75 485.819 192.507 486.015 192.319C486.071 192.265 485.959 192.036 485.959 192.036C487.497 191.848 489.329 191.053 489.203 189.936V189.923Z" fill="white"/>
<path d="M486.811 187.836C486.811 187.836 487.93 187.675 488.811 189.102C489.943 190.946 488.992 191.363 488.992 191.363C488.992 191.363 494.39 190.125 495.984 189.452C498.151 188.536 498.459 188.186 499.2 187.742C500.444 187.002 500.696 185.602 500.696 185.602L503.577 172.921C504.36 169.434 503.283 167.254 500.794 167.106C497.354 166.89 497.2 171.09 497.018 173.123C496.893 174.55 496.333 181.388 495.998 183.286C495.956 183.529 495.886 184.054 495.173 184.403L486.811 187.836Z" fill="#5B68B7"/>
<path fill-rule="evenodd" clip-rule="evenodd" d="M442.374 176.111L527.572 223.468L503.801 236.674L418.617 189.33L442.374 176.111Z" fill="#BBDAF9"/>
<path fill-rule="evenodd" clip-rule="evenodd" d="M461.838 200.772V200.785V200.799V200.812V200.826V200.839V200.853V200.866V200.88L477.611 209.643H478.143C478.338 209.535 478.534 209.428 478.716 209.32L478.632 209.266V209.239C479.009 209.037 479.387 208.822 479.751 208.62C481.093 207.906 482.421 207.207 483.764 206.507L467.991 197.743H467.837L467.515 197.905L467.194 198.066L466.872 198.228L466.551 198.389L466.229 198.551L465.907 198.712L465.586 198.874L465.264 199.035L464.943 199.197L464.607 199.359L464.285 199.52L463.95 199.682L463.628 199.843L463.293 200.005L462.971 200.166L462.635 200.328L462.552 200.368L462.468 200.409L462.384 200.449L462.3 200.489L462.216 200.53L462.132 200.57L462.048 200.61L461.964 200.651L461.838 200.772Z" fill="#B0CCE9"/>
<path fill-rule="evenodd" clip-rule="evenodd" d="M467.893 197.474L463.138 199.143L462.509 199.493L462.397 199.681L462.271 199.883V200.893L462.845 200.57V200.327L462.971 200.112L464.075 199.493L467.893 197.77V197.474Z" fill="url(#paint0_linear_2067_305190)"/>
<path fill-rule="evenodd" clip-rule="evenodd" d="M478.912 207.906L475.305 205.241L463.139 199.143L462.51 199.493L462.398 199.681L462.272 199.883L473.249 206.533L478.045 208.646L478.423 208.592L478.632 208.256L478.912 207.906Z" fill="white"/>
<path fill-rule="evenodd" clip-rule="evenodd" d="M483.652 206.237L467.894 197.474L463.139 199.143L478.912 207.906L479.681 207.987L483.652 206.237Z" fill="#FBFAF8"/>
<path fill-rule="evenodd" clip-rule="evenodd" d="M478.045 208.646L462.272 199.883V200.892L478.045 209.656V208.646Z" fill="#BBDAF9"/>
<path fill-rule="evenodd" clip-rule="evenodd" d="M483.652 206.237L478.912 207.907L478.269 208.257L478.171 208.445L478.045 208.647V209.657L478.618 209.333V209.091L478.744 208.876L479.849 208.27L483.652 206.533V206.237Z" fill="#F7F4EF"/>
<path fill-rule="evenodd" clip-rule="evenodd" d="M468.06 197.757C468.885 198.215 479.219 203.963 480.044 204.42C479.373 204.649 478.715 204.891 478.044 205.12C477.387 205.349 476.716 205.591 476.045 205.82H475.919C475.094 205.362 464.76 199.614 463.935 199.157C464.593 198.928 465.264 198.686 465.935 198.457C466.592 198.228 467.263 197.986 467.935 197.757H468.06ZM480.491 204.73C479.82 204.959 479.163 205.201 478.492 205.43C477.835 205.659 477.163 205.901 476.492 206.13C480.491 208.351 474.954 205.282 478.953 207.503H479.079C479.736 207.274 480.407 207.032 481.079 206.803C481.736 206.574 482.407 206.332 483.078 206.103C479.079 203.882 484.616 206.951 480.617 204.73H480.491Z" fill="#293896"/>
<path fill-rule="evenodd" clip-rule="evenodd" d="M468.06 197.514C468.885 197.971 479.219 203.719 480.044 204.177C479.373 204.406 478.715 204.648 478.044 204.877C477.373 205.106 476.716 205.348 476.045 205.577C475.22 205.119 464.886 199.371 464.061 198.914C464.732 198.685 465.39 198.443 466.061 198.214C466.718 197.985 467.389 197.743 468.06 197.514ZM480.617 204.487C479.946 204.716 479.289 204.958 478.618 205.187C477.96 205.416 477.289 205.658 476.618 205.887C480.617 208.108 475.08 205.039 479.079 207.26C479.736 207.031 480.407 206.789 481.079 206.56C481.736 206.331 482.407 206.089 483.078 205.86C479.079 203.639 484.616 206.708 480.617 204.5V204.487Z" fill="#FBFAF8"/>
<path fill-rule="evenodd" clip-rule="evenodd" d="M464.076 199.156L476.059 205.82V205.577L464.076 198.914V199.156ZM476.633 206.129L479.094 207.502V207.26L476.633 205.887V206.129Z" fill="#BBDAF9"/>
<path fill-rule="evenodd" clip-rule="evenodd" d="M480.044 204.42L476.059 205.82V205.578L480.044 204.178V204.42ZM483.078 206.103L479.093 207.503V207.26L483.078 205.86V206.103Z" fill="#F7F4EF"/>
<path fill-rule="evenodd" clip-rule="evenodd" d="M450.764 184.497L451.155 183.703L491.412 189.693L491.035 208.93L450.764 184.497Z" fill="#5B68B7"/>
<path fill-rule="evenodd" clip-rule="evenodd" d="M450.762 202.926V184.497L491.019 190.487L491.033 208.929L450.762 202.926Z" fill="#293896"/>
<path fill-rule="evenodd" clip-rule="evenodd" d="M494.21 218.811L502.264 225.286H503.187L508.906 222.378L501.789 215.903L494.21 218.811Z" fill="#B0CCE9"/>
<path fill-rule="evenodd" clip-rule="evenodd" d="M503.186 225.286L501.592 222.122L512.723 219.834V221.624L503.186 225.286Z" fill="white"/>
<path fill-rule="evenodd" clip-rule="evenodd" d="M495.146 217.034L503.186 223.495L512.723 219.834L504.668 213.372L495.146 217.034Z" fill="#293896"/>
<path fill-rule="evenodd" clip-rule="evenodd" d="M503.186 225.285V223.495L495.145 217.033V218.81L503.186 225.285Z" fill="#BBDAF9"/>
<path fill-rule="evenodd" clip-rule="evenodd" d="M503.186 223.684V223.495L512.723 219.834V220.022L503.186 223.684ZM503.186 225.286L512.723 221.624V221.436L503.186 225.097V225.286Z" fill="#0E1A68"/>
<path fill-rule="evenodd" clip-rule="evenodd" d="M430.713 186.799L437.732 190.703H438.907L446.793 185.897L439.368 181.993L430.713 186.799Z" fill="#B0CCE9"/>
<path fill-rule="evenodd" clip-rule="evenodd" d="M431.3 186.947L438.711 191.066H439.522L447.842 185.991L440.431 181.872L431.3 186.947Z" fill="#B0CCE9"/>
<path fill-rule="evenodd" clip-rule="evenodd" d="M439.521 191.066V190.285L432.111 186.166V186.947L439.521 191.066Z" fill="#BBDAF9"/>
<path fill-rule="evenodd" clip-rule="evenodd" d="M432.11 186.166L439.521 190.285L443.059 188.804L448.666 185.21L441.255 181.091L432.11 186.166Z" fill="#FDFAF5"/>
<path fill-rule="evenodd" clip-rule="evenodd" d="M438.864 189.922H439.731L447.617 185.103L440.626 181.441L432.11 186.166L438.864 189.922Z" fill="#B0CCE9"/>
<path fill-rule="evenodd" clip-rule="evenodd" d="M432.712 184.483L439.731 188.387L443.073 186.987L448.387 183.582L441.367 179.678L432.712 184.483Z" fill="#293896"/>
<path fill-rule="evenodd" clip-rule="evenodd" d="M439.73 189.922V188.387L432.711 184.483V186.018L439.73 189.922Z" fill="#BBDAF9"/>
<path fill-rule="evenodd" clip-rule="evenodd" d="M439.521 191.066V190.285L442.472 188.643L448.666 185.21L448.652 185.991L439.521 191.066Z" fill="white"/>
<path fill-rule="evenodd" clip-rule="evenodd" d="M439.731 189.921V188.387L442.528 186.839L448.387 183.581V185.102L439.731 189.921Z" fill="white"/>
<path fill-rule="evenodd" clip-rule="evenodd" d="M567.34 192.722L584.119 202.05L578.344 205.268H551.581L548.183 203.37L567.34 192.722Z" fill="#BBDAF9"/>
<path fill-rule="evenodd" clip-rule="evenodd" d="M471.947 200.934V199.722L473.121 197.272L472.744 199.265L471.947 200.934Z" fill="#BBDAF9"/>
<path fill-rule="evenodd" clip-rule="evenodd" d="M472.785 197.959L473.121 197.272V198.484L472.744 199.265L472.785 197.959Z" fill="#BBDAF9"/>
<path fill-rule="evenodd" clip-rule="evenodd" d="M472.156 199.278L471.947 199.723L471.219 204.959L471.947 215.19L472.156 214.745V199.278Z" fill="#BBDAF9"/>
<path fill-rule="evenodd" clip-rule="evenodd" d="M467.514 199.062L469.849 199.412L471.947 199.722L473.121 197.272L470.968 196.962L468.689 196.612L467.514 199.062Z" fill="#5B68B7"/>
<path fill-rule="evenodd" clip-rule="evenodd" d="M467.501 199.062L471.947 199.722V215.189L467.501 214.53V199.062Z" fill="#0E1A68"/>
<path fill-rule="evenodd" clip-rule="evenodd" d="M548.183 203.37L584.119 202.051L501.55 247.941L380.569 180.701L429.747 153.361L446.527 162.69L414.128 180.701L501.55 229.297L548.183 203.37Z" fill="#FDFAF7"/>
<path d="M570.15 278.727C570.038 278.672 569.925 278.781 570.15 278.727V278.727Z" fill="#E8C6AC"/>
<path d="M582.246 248.156C582.26 246.366 583.756 242.879 583.449 241.573H570.668C570.71 242.004 573.94 242.462 573.94 242.462L577.296 265.642C577.296 265.642 578.359 272.669 577.967 273.396C577.576 274.123 576.01 275.065 573.674 276.546C573.157 276.896 570.235 278.713 570.193 278.74C570.179 278.74 570.165 278.74 570.151 278.74C570.207 278.767 570.277 278.861 570.277 279.077C570.277 279.804 577.981 279.157 577.981 279.157C577.981 279.157 579.855 279.292 580.764 278.659C581.519 278.107 581.729 278.013 581.729 277.327C581.729 277.327 581.03 273.113 582.596 264.646C583.099 261.954 581.771 257.404 581.771 257.404L582.246 248.169V248.156Z" fill="#EBEBEB"/>
<path d="M579.168 279.266L579.363 281.003C579.363 281.003 579.867 281.339 580.44 281.245C581.209 281.124 581.489 280.76 581.489 280.76L582.076 278.041C582.076 278.041 581.517 278.956 579.965 279.226C579.475 279.306 579.168 279.266 579.168 279.266Z" fill="#321D10"/>
<path d="M577.616 276.977C574.68 278.781 572.834 277.798 572.568 277.664C571.506 277.112 571.939 276.466 572.526 276.075C572.764 275.914 573.114 275.833 573.114 275.833C573.142 275.833 570.303 275.604 569.506 276.143C569.24 276.318 568.989 276.573 568.975 276.762C568.947 277.179 569.254 277.475 569.254 277.475C569.254 277.475 570.96 278.135 572.121 278.714C574.107 279.696 578.959 279.104 580.776 279.185C581.392 279.212 582.245 278.283 582.301 277.139C582.356 275.591 581.825 274.918 581.825 274.918C581.825 274.918 581.084 274.797 579.728 275.685C579.406 275.9 578.232 276.6 577.616 276.977Z" fill="#293896"/>
<path d="M580.581 278.902C580.315 278.956 579.336 279.01 577.826 279.144C575.085 279.4 573.869 279.252 572.191 278.592C570.974 278.108 570.359 277.825 569.786 277.502C569.492 277.34 568.891 277.004 568.961 276.748C568.821 277.138 569.073 277.462 569.073 277.462C569.073 277.462 571.492 278.862 572.68 279.185C574.134 279.575 576.428 279.4 578.413 279.346C579.434 279.319 580.637 279.292 581.196 279.185C581.811 279.077 581.909 278.363 581.951 278.269C581.965 278.215 581.434 278.713 580.567 278.888L580.581 278.902Z" fill="#321D10"/>
<path d="M567.982 227.897L570.555 230.401C570.555 230.401 584.063 224.935 584.231 222.203C584.398 219.51 582.958 210.895 582.958 210.895C582.287 206.547 580.427 204.245 577.505 204.245C573.995 204.245 576.078 209.32 576.078 209.32L577.519 221.058L567.982 227.897Z" fill="white"/>
<path d="M582.063 233.012C582.245 233.012 582.385 233.16 582.385 233.335L581.839 235.475C581.839 235.65 581.7 235.785 581.504 235.785H577.141C576.959 235.785 576.792 235.65 576.764 235.475V233.335C576.736 233.173 576.848 233.012 577.015 233.012H582.049H582.063Z" fill="#EEEDED"/>
<path d="M577.155 233.833C577.155 233.995 577.295 234.116 577.449 234.116C577.602 234.116 577.742 233.982 577.742 233.833C577.742 233.685 577.602 233.551 577.449 233.551C577.295 233.551 577.155 233.672 577.155 233.833Z" fill="#B31E17"/>
<path d="M568.108 238.074C570.43 233.833 576.652 234.56 579.309 236.876C580.204 237.656 581.63 239.689 581.56 241.385C581.56 241.426 581.56 241.466 581.56 241.533C581.63 240.928 581.672 240.551 581.686 240.443C581.91 238.612 584.007 235.906 583.406 232.985L566.64 233.551C566.64 233.685 566.822 235.866 566.822 235.866L567.381 240.026C567.339 239.716 567.703 238.801 568.108 238.074Z" fill="#16556E"/>
<path d="M582.287 237.145L581.756 234.722L567.018 234.762V236.593C567.018 236.593 567.018 237.427 567.074 238.1C567.172 239.191 568.332 239.918 568.332 239.918L571.856 276.142C571.856 276.142 571.898 277.085 571.856 277.394C571.772 278.148 569.702 278.848 567.535 279.467C566.878 279.656 565.298 280.181 565.256 280.194C564.822 280.329 563.858 280.894 564.976 281.083C565.717 281.217 572.429 283.075 572.429 283.075C572.429 283.075 575.058 282.523 575.827 282.469C576.778 282.402 576.876 281.648 576.876 280.961L576.932 278.969C577.016 278.121 575.296 279.252 577.002 267.85C577.351 265.562 576.428 261.739 576.484 259.1C576.638 250.727 577.309 246.043 577.379 245.464C577.603 243.633 581.252 240.618 582.287 237.131V237.145Z" fill="white"/>
<path d="M564.85 249.691C564.85 250.337 572.485 252.532 578.861 251.037C582.93 250.082 587.475 246.07 587.81 245.276C587.838 245.195 583.909 235.449 583.406 232.999L566.668 232.757C566.347 234.17 564.85 249.691 564.85 249.691Z" fill="#293896"/>
<path d="M569.744 205.255L564.92 213.466C564.92 213.466 564.445 214.18 564.473 214.812C564.487 215.445 564.501 216.199 565.298 217.383C565.382 217.505 565.466 217.626 565.549 217.733C566.416 218.81 568.43 221.799 568.43 223.158L566.64 232.958C566.64 232.958 566.64 233.551 566.696 234.452C566.696 234.452 568.598 236.929 572.821 236.956C577.225 236.97 583.476 233.295 583.406 232.985L580.064 224.881C579.896 224.114 579.84 223.333 579.896 222.553L582.007 214.085C582.007 214.085 582.189 210.586 581.672 208.701C580.329 203.801 576.834 203.128 576.638 202.751C576.638 202.751 570.136 204.595 569.744 205.255Z" fill="#293896"/>
<path d="M572.624 187.082L567.758 185.763L565.968 198.766C565.647 201.203 566.709 202.643 567.772 203.02C569.842 203.761 571.813 202.697 574.568 200.853C577.001 199.224 577.127 197.743 577.253 197.434L580.734 189.693L572.624 187.082Z" fill="white"/>
<path d="M574.484 282.967L574.875 284.663C574.875 284.663 575.435 284.946 576.022 284.784C576.791 284.569 577.043 284.178 577.043 284.178L577.322 281.405C577.322 281.405 576.413 282.886 575.001 282.926C574.484 282.94 574.484 282.967 574.484 282.967Z" fill="#321D10"/>
<path d="M572.429 280.665C569.437 282.038 567.773 281.352 567.479 281.244C566.319 280.827 566.221 280.248 566.766 279.804C566.99 279.615 567.521 279.507 567.521 279.507C567.549 279.507 563.914 280.14 563.424 280.732C563.228 280.988 563.159 281.204 563.159 281.405C563.172 281.823 563.536 282.079 563.536 282.079C563.536 282.079 565.354 282.536 566.626 282.98C568.794 283.721 574.233 282.846 576.107 282.711C576.75 282.657 577.519 281.648 577.435 280.49C577.309 278.942 576.694 278.35 576.694 278.35C576.694 278.35 575.911 278.323 574.625 279.346C574.303 279.602 572.919 280.45 572.415 280.679L572.429 280.665Z" fill="#293896"/>
<path d="M576.205 282.199C575.94 282.294 574.835 282.603 573.325 282.845C570.109 283.357 568.529 283.29 566.725 282.832C565.411 282.495 564.739 282.294 564.124 282.038C563.803 281.903 563.173 281.54 563.173 281.392C563.173 281.944 563.383 282.078 563.383 282.078C563.383 282.078 565.019 282.765 567.298 283.37C569.983 284.084 572.598 283.222 574.206 283.047C575.353 282.926 575.814 283.101 576.317 282.819C577.017 282.428 577.226 281.755 577.24 281.661C577.24 281.594 577.058 281.93 576.192 282.199H576.205Z" fill="#321D10"/>
<path d="M573.631 222.203C573.631 222.203 573.408 228.139 572.597 229.688C571.338 232.057 560.124 226.066 557.663 224.828C555.118 223.536 551.79 226.282 548.952 224.451L544.561 221.059C544.351 220.803 544.645 220.44 544.938 220.588C546.994 221.624 552.098 223.845 551.371 221.961C550.965 220.911 549.735 220.359 549.735 220.009C549.735 219.134 551.762 220.211 552.881 220.924C553.999 221.624 555.426 221.678 556.894 222.176C558.362 222.674 568.066 225.461 568.5 225.164C569.227 224.68 565.172 210.209 569.884 210.128C569.884 210.128 575.281 209.092 573.729 221.341C572.107 234.17 573.645 222.216 573.645 222.216L573.631 222.203Z" fill="white"/>
<path d="M583.63 213.709C586.245 209.616 585.909 188.738 580.624 184.969C576.597 182.101 571.856 182.748 568.836 185.063C566.403 186.934 566.962 190.272 567.983 192.736C569.549 196.505 569.521 199.049 569.521 199.924C569.619 219.632 578.806 221.274 583.63 213.709Z" fill="#321D10"/>
<path d="M401.711 184.685C401.711 184.685 395.866 192.924 394.44 198.147C394.063 199.547 394.147 201.714 395.727 203.774C398.16 206.977 403.571 212.295 403.571 212.295L403.711 205.833C403.711 205.833 400.005 200.893 400.145 199.654C400.369 197.702 403.277 193.879 403.277 193.879L401.711 184.672V184.685Z" fill="#0E1A68"/>
<path d="M424.14 248.923C424.14 248.923 424.629 249.69 425.944 250.067C426.95 250.35 429.551 250.323 429.551 250.323C430.922 250.363 432.739 250.363 433.117 251.615C433.117 251.615 433.271 252.248 433.243 252.45C433.145 253.177 432.446 253.527 431.607 253.904C431.607 253.904 430.069 254.59 428.726 254.94C426.992 255.411 426.014 255.452 424.727 255.371C424.727 255.371 423.105 255.25 422.462 255.304C421.749 255.357 421.917 255.855 421.889 256.502L419.665 257.282C417.414 257.754 415.722 255.909 415.736 255.411L415.904 250.538L424.154 248.936L424.14 248.923Z" fill="#5B68B7"/>
<path d="M423.244 255.115C423.86 255.115 425.663 255.276 427.453 254.913C429.145 254.576 431.816 253.365 431.816 253.365C432.571 253.028 433.186 252.517 433.2 252.086C433.228 252.247 433.242 252.422 433.242 252.503C433.144 253.23 432.445 253.58 431.606 253.957C431.606 253.957 430.068 254.644 428.726 254.994C426.992 255.465 426.013 255.492 424.727 255.411C424.727 255.411 422.867 255.317 422.797 255.317C422.363 255.29 421.958 255.438 421.958 255.505C421.958 255.478 422.112 255.088 423.244 255.101V255.115Z" fill="#383736"/>
<path d="M419.693 256.407L421.902 255.654C421.902 255.869 421.902 256.367 421.888 256.582L419.665 257.363C417.414 257.834 415.722 256.004 415.736 255.492L415.778 254.55C415.764 255.061 417.456 256.892 419.707 256.421L419.693 256.407Z" fill="#383736"/>
<path d="M408.101 244.118C408.101 244.118 408.283 245.397 409.569 245.504C410.366 245.572 411.513 245.598 411.513 245.598C412.869 245.356 414.575 245.383 414.883 246.352C414.883 246.352 415.023 246.729 415.009 246.931C414.939 247.658 415.205 247.052 414.184 247.927C414.184 247.927 412.282 249.395 411.052 249.879C409.723 250.404 408.828 250.377 408.339 250.323C408.339 250.323 407.304 250.35 406.703 250.418C406.032 250.498 406.2 251.306 406.2 251.952L404.13 252.773C402.019 253.312 400.369 251.548 400.369 251.05V245.922L408.101 244.091V244.118Z" fill="#5B68B7"/>
<path d="M407.445 250.229C408.032 250.229 408.703 250.122 410.451 249.664C411.906 249.274 414.045 247.833 414.045 247.833C414.548 247.47 414.968 247.025 414.968 246.595C414.996 246.756 415.01 246.918 415.024 247.012C415.08 247.658 414.478 248.022 413.989 248.358C413.989 248.358 412.325 249.556 411.067 249.947C409.445 250.458 409.193 250.418 408.466 250.431C408.466 250.431 407.543 250.472 406.928 250.499C406.662 250.499 406.27 250.66 406.27 250.741C406.27 250.7 406.368 250.256 407.445 250.229Z" fill="#383736"/>
<path d="M404.132 252.208L406.187 251.401C406.187 251.616 406.201 251.831 406.201 252.033L404.132 252.855C402.02 253.393 400.37 251.63 400.37 251.132V250.485C400.37 250.983 402.02 252.733 404.132 252.195V252.208Z" fill="#383736"/>
<path d="M413.96 168.411L418.463 168.936L416.575 180.068C416.1 183.272 414.646 183.649 413.639 183.568C411.527 183.42 409.444 182.801 408.325 182.047C406.158 180.566 406.382 176.11 406.396 175.801L406.298 168.249L413.96 168.397V168.411Z" fill="white"/>
<path d="M405.08 189.438V183.407L405.961 176.649L412.533 178.103L411.778 184.619C411.778 185.547 412.463 185.803 412.967 186.597L415.749 190.865C416.42 191.888 417.805 193.53 417.805 196.411V212.282L404.353 214.086V193.032C404.353 191.807 404.605 190.582 405.08 189.438Z" fill="white"/>
<path d="M413.4 208.566V211.514C413.4 213.709 412.855 217.424 412.855 217.424L402.382 217.801C401.067 217.545 400.564 215.822 400.564 214.072V208.566H413.4Z" fill="#16556E"/>
<path d="M417.554 167.361C419.4 168.249 418.784 170.969 418.784 170.969C418.784 170.901 416.925 172.867 416.925 172.961C416.925 173.015 415.708 176.77 415.708 176.77C415.68 177.201 415.037 177.78 414.771 177.134C414.464 176.407 415.051 175.909 414.743 175.532C414.436 175.142 413.527 174.953 412.464 177.282L411.863 179.099C410.87 181.145 409.052 181.145 407.766 180.782C407.766 180.782 406.046 180.23 405.445 179.57C405.151 179.247 404.326 175.64 403.976 174.563C402.69 170.551 404.508 163.04 413.065 165.517C415.373 166.19 417.54 167.361 417.54 167.361H417.554Z" fill="#895B13"/>
<path d="M411.555 211.339C411.555 211.339 409.905 227.21 409.234 232.487C408.548 237.844 409.122 245.261 409.122 245.261C409.122 245.261 408.409 248.56 404.703 249.394C402.536 249.865 400.858 250.081 399.991 248.573C399.991 248.573 399.054 238.369 399.851 229.741C400.424 223.562 400.382 213.466 400.382 213.466L411.555 211.339Z" fill="#0E1A68"/>
<path d="M416.113 216.966C416.113 216.966 419.679 227.681 421.539 235.785C423.329 243.606 423.259 243.889 424.224 247.604C424.797 249.798 425.734 250.081 425.538 250.081C425.244 250.081 420.546 256.26 415.694 253.245C415.694 253.245 412.981 242.57 411.555 237.724C410.045 232.608 408.129 228.664 405.556 223.576C403.976 220.439 402.424 215.055 402.424 215.055L416.127 216.98L416.113 216.966Z" fill="#293896"/>
<path d="M406.087 181.508C405.304 181.333 405.094 181.468 404.94 181.926C404.787 182.383 404.801 182.41 404.619 182.855C404.465 183.218 404.647 183.245 404.647 183.245C404.647 183.245 408.59 184.295 411.526 186.22C413.61 187.58 413.764 187.714 413.764 187.714L413.274 186.18C412.897 184.874 411.317 183.568 408.968 182.572C408.968 182.572 407.038 181.751 406.087 181.522V181.508Z" fill="#E4EFF5"/>
<path d="M414.771 175.155C414.771 175.155 413.751 175.25 413.387 176.299C413.135 177.04 413.387 177.673 413.527 177.861C413.905 178.359 414.324 178.48 414.324 178.48C414.324 178.48 414.38 176.69 414.408 176.367C414.436 176.044 414.757 175.169 414.757 175.169L414.771 175.155Z" fill="white"/>
<path d="M415.163 175.021C415.163 175.021 415.708 175.021 415.289 175.748C414.869 176.488 414.771 176.932 414.743 177.349C414.715 177.74 414.771 178.898 414.771 178.898C414.771 178.898 414.422 179.369 414.114 178.642C413.96 178.292 413.89 177.659 413.946 176.838C413.96 176.501 414.59 174.832 415.177 175.021H415.163Z" fill="#FDFDFD"/>
<path d="M412.31 221.462C412.31 221.462 411.108 222.768 407.92 221.691C404.731 220.614 401.445 217.962 401.445 217.962L401.851 216.118C401.851 216.118 410.087 219.712 411.597 219.228C413.107 218.73 412.296 221.476 412.296 221.476L412.31 221.462Z" fill="#292928"/>
<path d="M416.156 189.652C417.974 191.012 418.52 192.264 418.52 196.787L418.072 217.369C418.072 218.15 418.114 220.25 413.933 220.869C412.619 221.071 410.731 221.623 407.767 220.681C406.55 220.29 400.188 217.464 400.188 215.808L399.992 193.3C400.09 190.635 400.258 187.364 400.691 185.95C401.698 182.747 404.634 183.137 404.634 183.137C404.634 183.137 409.556 184.726 412.157 186.637C413.416 187.566 413.57 187.66 416.156 189.652Z" fill="#293896"/>
<path d="M439.423 206.668L443.968 207.947C443.968 207.947 446.345 210.101 447.323 210.706C448.302 211.312 446.624 212.591 445.156 212.524C443.688 212.456 441.8 211.043 441.8 211.043L437.815 209.831L439.423 206.668Z" fill="#FDE7DA"/>
<path d="M439.843 209.495C439.48 210.343 438.907 210.747 438.907 210.747C438.907 210.747 438.193 211.326 437.48 211.057C435.341 210.249 426.294 206.049 423.833 204.636C421.134 203.088 414.73 197.972 414.73 197.972C414.73 197.972 409.822 194.674 411.682 191.793C413.234 189.397 415.751 190.34 417.876 191.632C419.554 192.642 427.944 199.453 427.944 199.453L440.053 206.238C440.053 206.238 440.71 207.53 439.857 209.495H439.843Z" fill="#5B68B7"/>
<path d="M534.185 222.391L532.046 221.193L532.06 225.501L534.199 226.699L534.185 222.391Z" fill="#5B68B7"/>
<path d="M543.373 217.276L541.248 216.092L532.047 221.194L534.186 222.392L543.373 217.276Z" fill="#787474"/>
<path d="M534.186 222.392L534.2 226.699L543.387 221.584L543.373 217.276L534.186 222.392Z" fill="#BBDAF9"/>
<path d="M525.111 203.129L537.584 196.223C537.962 196.008 538.353 195.94 538.717 195.994C539.472 196.102 540.241 196.223 540.996 196.331C540.633 196.277 540.241 196.344 539.877 196.56L527.405 203.465C526.286 204.084 525.699 205.686 526.09 207.059L530.229 221.759C530.481 222.661 531.096 223.24 531.809 223.348L529.53 223.011C528.817 222.903 528.202 222.325 527.95 221.423L523.811 206.723C523.434 205.35 524.021 203.748 525.125 203.129H525.111Z" fill="#5B68B7"/>
<path d="M527.39 203.478C526.272 204.098 525.684 205.7 526.076 207.073L530.215 221.772C530.592 223.146 531.809 223.751 532.927 223.132L545.4 216.226C546.519 215.607 547.106 214.005 546.715 212.632L542.576 197.932C542.184 196.559 540.982 195.954 539.863 196.573L527.39 203.478Z" fill="#BBDAF9"/>
<path d="M540.534 198.188L545.568 214.302L532.578 221.517L527.544 205.404L540.534 198.188Z" fill="#559A33"/>
<path d="M544.869 214.113L532.438 221.032L527.544 205.404L539.975 198.498L544.869 214.113Z" fill="white"/>
<path d="M532.466 221.032L544.897 214.113L540.017 198.498L540.562 198.188L545.596 214.302L532.62 221.517L532.466 221.032Z" fill="#293896"/>
<path d="M538.647 214.841C538.423 214.962 538.312 215.285 538.396 215.567L538.521 215.985C538.605 216.267 538.857 216.389 539.081 216.254L541.5 214.908C541.723 214.787 541.835 214.464 541.751 214.194L541.626 213.777C541.542 213.508 541.29 213.373 541.066 213.508L538.647 214.854V214.841Z" fill="#BBDAF9"/>
<path d="M534.62 217.075C534.396 217.196 534.284 217.519 534.368 217.788L534.494 218.205C534.578 218.488 534.83 218.609 535.053 218.475L537.472 217.128C537.696 217.007 537.808 216.684 537.724 216.402L537.598 215.984C537.514 215.715 537.263 215.594 537.039 215.715L534.62 217.061V217.075Z" fill="#293896"/>
<path d="M538.199 210.909C538.087 210.976 538.032 211.138 538.073 211.272L538.535 212.726C538.577 212.861 538.703 212.928 538.815 212.861L539.989 212.201C540.101 212.134 540.157 211.972 540.115 211.838L539.668 210.397C539.626 210.263 539.5 210.195 539.388 210.263L538.213 210.909H538.199Z" fill="#293896"/>
<path d="M537.387 208.311C537.275 208.365 537.219 208.54 537.261 208.675L537.709 210.129C537.751 210.263 537.877 210.33 537.988 210.263L539.163 209.617C539.275 209.55 539.331 209.388 539.289 209.254L538.841 207.8C538.799 207.665 538.674 207.598 538.562 207.665L537.387 208.311Z" fill="#293896"/>
<path d="M536.116 212.067C536.004 212.134 535.948 212.296 535.99 212.431L536.437 213.871C536.479 214.006 536.605 214.073 536.717 214.005L537.891 213.359C538.003 213.292 538.059 213.131 538.017 212.996L537.57 211.556C537.528 211.421 537.402 211.354 537.29 211.421L536.116 212.067Z" fill="#293896"/>
<path d="M536.59 205.727C536.478 205.781 536.422 205.956 536.464 206.091L536.912 207.531C536.954 207.666 537.08 207.733 537.192 207.666L538.366 207.02C538.478 206.952 538.534 206.791 538.492 206.656L538.044 205.216C538.003 205.081 537.877 205.014 537.765 205.081L536.59 205.727Z" fill="#293896"/>
<path d="M536.857 202.685C536.563 202.847 536.423 203.277 536.535 203.627C536.647 203.991 536.983 204.152 537.262 203.991L539.486 202.752C539.779 202.591 539.919 202.16 539.807 201.81C539.695 201.446 539.36 201.298 539.08 201.447L536.871 202.685H536.857Z" fill="#293896"/>
<path d="M535.291 209.483C535.18 209.55 535.124 209.712 535.166 209.846L535.613 211.3C535.655 211.435 535.781 211.502 535.893 211.435L537.067 210.775C537.179 210.708 537.235 210.56 537.193 210.412L536.746 208.958C536.704 208.823 536.578 208.756 536.466 208.823L535.291 209.469V209.483Z" fill="#293896"/>
<path d="M534.004 213.238C533.892 213.305 533.837 213.467 533.878 213.601L534.326 215.055C534.368 215.19 534.494 215.257 534.606 215.19L535.78 214.544C535.892 214.476 535.948 214.315 535.906 214.18L535.459 212.726C535.417 212.592 535.291 212.525 535.179 212.592L534.004 213.238Z" fill="#293896"/>
<path d="M534.493 206.884C534.381 206.952 534.325 207.113 534.367 207.248L534.814 208.702C534.856 208.836 534.982 208.904 535.094 208.836L536.268 208.19C536.38 208.123 536.436 207.961 536.394 207.827L535.947 206.373C535.905 206.238 535.779 206.171 535.667 206.238L534.493 206.884Z" fill="#293896"/>
<path d="M533.194 210.64C533.082 210.708 533.026 210.869 533.068 211.004L533.515 212.444C533.557 212.579 533.683 212.646 533.795 212.579L534.97 211.933C535.081 211.879 535.137 211.704 535.095 211.569L534.648 210.129C534.606 209.994 534.48 209.927 534.368 209.994L533.194 210.654V210.64Z" fill="#293896"/>
<path d="M532.381 208.055C532.269 208.122 532.213 208.284 532.255 208.419L532.703 209.872C532.745 210.007 532.871 210.074 532.983 210.007L534.157 209.347C534.269 209.28 534.325 209.132 534.283 208.984L533.835 207.53C533.794 207.396 533.668 207.328 533.556 207.396L532.381 208.042V208.055Z" fill="#293896"/>
<path d="M529.614 206.71C529.321 206.871 529.181 207.289 529.293 207.652C529.405 208.016 529.726 208.177 530.02 208.016L535.865 204.771C536.158 204.61 536.312 204.179 536.186 203.829C536.074 203.466 535.753 203.304 535.445 203.479L529.6 206.723L529.614 206.71Z" fill="#293896"/>
<path d="M363.506 80.1348V101.635C363.506 102.066 364.116 102.416 364.868 102.416C365.621 102.416 366.23 102.066 366.23 101.635V80.1348H363.506Z" fill="#5B68B7"/>
<path d="M366.23 80.1345C366.23 80.5665 365.62 80.9155 364.868 80.9155C364.116 80.9155 363.506 80.5655 363.506 80.1345C363.506 79.7025 364.116 79.3525 364.868 79.3525C365.62 79.3525 366.23 79.7025 366.23 80.1345Z" fill="#0E1A68"/>
<path d="M412.85 51.7812V73.2812C412.85 73.7132 413.46 74.0623 414.212 74.0623C414.964 74.0623 415.574 73.7122 415.574 73.2812V51.7812H412.85Z" fill="#5B68B7"/>
<path d="M415.576 51.781C415.576 52.213 414.966 52.563 414.214 52.563C413.461 52.563 412.852 52.213 412.852 51.781C412.852 51.349 413.462 51 414.214 51C414.966 50.999 415.576 51.349 415.576 51.781Z" fill="#0E1A68"/>
<path d="M423.77 113.479L353 154.308V102.416L423.77 61.5869V113.479Z" fill="#95ADFB"/>
<path d="M426.081 114.708L355.311 155.537V103.645L426.081 62.8164V114.708Z" fill="#0E1A68"/>
<path d="M423.585 113.127L357.807 151.074V105.226L423.585 67.2793V113.127Z" fill="#95ADFB"/>
<path d="M426.08 62.8159L423.77 61.5869L353 102.416L355.31 103.645L426.08 62.8159Z" fill="#5B68B7"/>
<path d="M355.31 155.537V103.645L353 102.416V154.308L355.31 155.537Z" fill="#95ADFB"/>
<path d="M357.807 127.589C357.807 127.589 369 124.312 380.787 123.603C392.574 122.894 397.148 122.894 397.148 122.894L396.11 128.976L357.807 151.073V127.589Z" fill="#5B68B7"/>
<path d="M385.389 89.3143V94.8823C385.389 94.8823 393.792 94.3003 403.916 92.1213C414.04 89.9423 423.771 84.7253 423.771 84.7253L423.585 67.2783L385.389 89.3143Z" fill="#5B68B7"/>
<path d="M419.397 111.641C418.922 110.324 418.223 109 416.878 109.32C416.115 109.501 415.348 110.078 414.649 110.486C414.002 110.863 413.371 111.211 412.852 111.792C412.924 110.636 412.824 109.318 411.942 109.026C411.993 108.756 412.238 107.629 412.162 107.311C412.127 107.161 412.061 107.01 411.957 106.857C411.724 106.513 411.426 106.383 411.11 106.371C411.314 105.592 411.533 104.827 411.787 104.076C412.745 103.216 413.669 102.364 414.718 101.623C415.607 100.995 416.496 100.357 417.224 99.4466C418.143 98.2976 419.356 95.2236 418.571 93.7656C417.811 92.3556 413.971 94.2186 412.616 95.8236C410.83 97.9396 410.034 101.637 410.681 104.543C410.46 105.254 410.284 105.962 410.148 106.657C409.827 106.849 409.532 107.109 409.303 107.373C409.024 107.594 408.802 107.9 408.716 108.286C408.683 108.435 408.709 109.634 408.793 109.951C407.644 110.612 407.554 112.832 407.708 114.144C407.91 115.865 409.139 115.962 410.331 115.715C411.674 115.437 412.506 114.635 412.736 112.922C412.763 112.719 412.791 112.478 412.816 112.226C413.963 111.529 416.393 110.185 416.869 110.046C417.481 110 418.356 110.589 418.765 111.739C418.98 112.345 419.616 112.249 419.397 111.641ZM418.084 94.8826C418.107 94.8876 418.131 94.8906 418.153 94.8956C417.817 98.0406 416.468 99.4866 414.203 101.045C413.642 101.431 413.04 101.818 412.485 102.273C412.709 101.763 412.95 101.255 413.229 100.752C414.595 98.2896 416.353 96.7736 418.084 94.8826ZM412.599 97.0126C413.335 95.8866 414.454 95.0196 415.588 94.7126C416.249 94.5336 416.844 94.6156 417.443 94.7426C414.841 96.2316 412.523 99.6136 411.153 103.196C411.188 101.009 411.352 98.9176 412.599 97.0126ZM410.99 106.835C411.061 106.845 411.133 106.858 411.207 106.888C411.495 107.005 411.777 107.123 411.584 107.954C411.495 108.337 411.029 108.645 410.742 108.807C410.674 108.845 410.584 108.888 410.486 108.93C410.652 108.217 410.817 107.519 410.99 106.835ZM410.931 109.317C411.108 109.218 411.296 109.085 411.473 108.928C411.332 109.647 411.041 110.306 410.4 110.517C409.87 110.691 409.395 110.397 409.199 109.781C409.181 109.725 409.174 109.666 409.162 109.608C409.672 109.858 410.465 109.577 410.931 109.317ZM410.042 107.278C409.947 107.88 409.879 108.472 409.86 109.037C409.859 109.065 409.866 109.089 409.87 109.114C409.384 109.194 408.947 109.071 409.142 108.308C409.277 107.779 409.67 107.529 410.042 107.278ZM412.221 112.877C412.016 114.283 411.306 114.839 410.246 115.082C409.93 115.154 409.446 115.283 409.147 115.222C408.695 115.13 408.353 114.973 408.186 114.207C408.135 113.873 408.117 113.535 408.13 113.191C408.127 112.039 408.258 111.117 408.887 110.23C409.119 110.791 409.555 111.198 410.139 111.183C410.961 111.162 411.504 110.469 411.79 109.613C412.616 109.831 412.324 112.167 412.221 112.877Z" fill="#95ADFB"/>
<path d="M408.069 114.612C408.142 114.506 408.05 114.328 407.944 114.365C406.917 114.719 405.965 115.67 405.074 116.387C404.9 116.527 404.82 116.851 405.021 117.01C405.709 117.554 406.617 118.2 407.463 118.235C407.745 118.247 407.816 117.793 407.576 117.655C407.227 117.455 406.839 117.364 406.481 117.181C406.225 117.05 405.985 116.886 405.75 116.71C406.57 116.107 407.463 115.485 408.069 114.612Z" fill="#95ADFB"/>
<path d="M364.693 147.1C364.693 147.1 366.928 143.102 373.932 136.289C383.076 127.393 390.694 125.478 390.694 125.478L392.005 131.344L364.693 147.1Z" fill="#95ADFB"/>
<path d="M370 110.199L373.924 107.934V113.855C373.405 114.353 372.866 114.823 372.307 115.266C371.748 115.703 371.114 116.126 370.406 116.535C369.423 117.103 368.588 117.361 367.903 117.309C367.217 117.257 366.696 116.896 366.34 116.227C365.983 115.557 365.805 114.585 365.805 113.309C365.805 112.111 366.004 110.96 366.401 109.855C366.802 108.749 367.386 107.734 368.153 106.812C368.924 105.888 369.865 105.105 370.974 104.465C371.497 104.163 372.014 103.93 372.524 103.766C373.033 103.602 373.496 103.504 373.911 103.473L373.214 105.812C372.912 105.81 372.566 105.861 372.179 105.965C371.791 106.069 371.385 106.243 370.961 106.488C370.352 106.84 369.822 107.307 369.371 107.891C368.924 108.471 368.577 109.125 368.329 109.852C368.085 110.57 367.963 111.323 367.963 112.109C367.963 112.854 368.051 113.465 368.227 113.941C368.403 114.413 368.681 114.703 369.059 114.812C369.438 114.917 369.932 114.793 370.541 114.441C370.839 114.27 371.089 114.109 371.292 113.961C371.5 113.805 371.694 113.656 371.874 113.516V111.133L370 112.215V110.199ZM379.242 102.379C379.941 101.975 380.543 101.784 381.049 101.805C381.554 101.82 381.944 102.043 382.219 102.473C382.494 102.902 382.632 103.542 382.632 104.391V105.547L377.754 108.363C377.776 109.022 377.95 109.451 378.275 109.648C378.604 109.839 379.059 109.766 379.641 109.43C380.124 109.151 380.566 108.839 380.967 108.492C381.369 108.146 381.781 107.736 382.205 107.262V109.105C381.831 109.535 381.439 109.918 381.028 110.254C380.622 110.587 380.128 110.922 379.547 111.258C378.789 111.695 378.117 111.922 377.53 111.938C376.948 111.951 376.491 111.723 376.157 111.254C375.828 110.783 375.663 110.044 375.663 109.039C375.663 108.018 375.812 107.083 376.109 106.234C376.412 105.378 376.831 104.625 377.368 103.977C377.905 103.323 378.529 102.79 379.242 102.379ZM379.256 104.066C378.854 104.298 378.52 104.639 378.254 105.09C377.993 105.538 377.842 106.091 377.801 106.75L380.697 105.078C380.692 104.727 380.636 104.444 380.528 104.23C380.424 104.014 380.266 103.887 380.054 103.848C379.846 103.806 379.58 103.879 379.256 104.066ZM387.496 104.77C387.722 104.639 387.941 104.487 388.153 104.312C388.369 104.135 388.583 103.947 388.795 103.746V105.52C388.574 105.762 388.299 106.014 387.97 106.277C387.645 106.543 387.289 106.788 386.901 107.012C386.45 107.272 386.044 107.423 385.683 107.465C385.327 107.499 385.045 107.367 384.837 107.07C384.634 106.766 384.533 106.238 384.533 105.488V101.277L383.545 101.848V100.84L384.682 99.3867L385.277 97.1992L386.597 96.4375V98.2969L388.714 97.0742V98.8633L386.597 100.086V104.297C386.597 104.63 386.678 104.833 386.84 104.906C387.007 104.971 387.226 104.926 387.496 104.77ZM397.117 99.2148C397.343 99.0846 397.562 98.9323 397.774 98.7578C397.99 98.5807 398.204 98.3919 398.416 98.1914V99.9648C398.195 100.207 397.92 100.46 397.591 100.723C397.266 100.988 396.91 101.233 396.522 101.457C396.071 101.717 395.665 101.868 395.304 101.91C394.948 101.944 394.666 101.812 394.458 101.516C394.255 101.211 394.154 100.684 394.154 99.9336V95.7227L393.166 96.293V95.2852L394.303 93.832L394.898 91.6445L396.218 90.8828V92.7422L398.335 91.5195V93.3086L396.218 94.5312V98.7422C396.218 99.0755 396.299 99.2786 396.461 99.3516C396.628 99.4167 396.847 99.3711 397.117 99.2148ZM402.016 85.9727V88.4492C402.016 88.8815 402.002 89.3008 401.975 89.707C401.953 90.1107 401.935 90.3971 401.921 90.5664L402.029 90.5039C402.192 90.1081 402.383 89.7526 402.604 89.4375C402.83 89.1198 403.078 88.8385 403.349 88.5938C403.619 88.349 403.91 88.1367 404.221 87.957C404.767 87.6419 405.243 87.4792 405.649 87.4688C406.055 87.4531 406.371 87.6172 406.596 87.9609C406.822 88.2995 406.935 88.8438 406.935 89.5938V95.2891L404.871 96.4805V91.3789C404.871 90.7539 404.772 90.3398 404.573 90.1367C404.375 89.9336 404.068 89.9518 403.653 90.1914C403.238 90.431 402.911 90.7318 402.672 91.0938C402.433 91.4505 402.264 91.8737 402.165 92.3633C402.065 92.8477 402.016 93.3997 402.016 94.0195V98.1289L399.952 99.3203V87.1641L402.016 85.9727ZM412.178 83.3633C412.877 82.9596 413.479 82.7682 413.985 82.7891C414.49 82.8047 414.88 83.0273 415.155 83.457C415.43 83.8867 415.568 84.526 415.568 85.375V86.5312L410.69 89.3477C410.712 90.0065 410.886 90.4349 411.211 90.6328C411.54 90.8229 411.995 90.75 412.577 90.4141C413.06 90.1354 413.502 89.8229 413.903 89.4766C414.305 89.1302 414.718 88.7201 415.142 88.2461V90.0898C414.767 90.5195 414.375 90.9023 413.964 91.2383C413.558 91.5716 413.064 91.9062 412.483 92.2422C411.725 92.6797 411.053 92.9062 410.466 92.9219C409.884 92.9349 409.427 92.707 409.093 92.2383C408.764 91.7669 408.599 91.0286 408.599 90.0234C408.599 89.0026 408.748 88.0677 409.046 87.2188C409.348 86.362 409.767 85.6094 410.304 84.9609C410.841 84.3073 411.465 83.7747 412.178 83.3633ZM412.192 85.0508C411.79 85.2826 411.456 85.6237 411.19 86.0742C410.929 86.5221 410.778 87.0755 410.737 87.7344L413.633 86.0625C413.628 85.7109 413.572 85.4284 413.464 85.2148C413.36 84.9987 413.202 84.8711 412.99 84.832C412.782 84.7904 412.516 84.8633 412.192 85.0508Z" fill="white"/>
<path d="M374.061 134.078L371.963 135.289V125.883L369.277 127.434V125.418L376.747 121.105V123.121L374.061 124.672V134.078ZM378.269 131.648V120.227L380.367 119.016V130.438L378.269 131.648ZM387.058 117.004C386.657 117.236 386.3 117.533 385.989 117.895C385.682 118.249 385.423 118.656 385.211 119.117C385.003 119.576 384.846 120.076 384.737 120.617C384.629 121.159 384.575 121.729 384.575 122.328C384.575 123.135 384.661 123.776 384.832 124.25C385.008 124.716 385.279 124.995 385.644 125.086C386.009 125.172 386.481 125.048 387.058 124.715C387.459 124.483 387.861 124.199 388.262 123.863C388.668 123.525 389.108 123.122 389.582 122.656V124.688C389.144 125.148 388.713 125.546 388.289 125.879C387.865 126.217 387.39 126.539 386.862 126.844C385.842 127.432 385.003 127.674 384.345 127.57C383.691 127.458 383.206 127.056 382.89 126.363C382.574 125.665 382.417 124.73 382.417 123.559C382.417 122.694 382.518 121.844 382.721 121.008C382.924 120.172 383.222 119.378 383.614 118.625C384.007 117.872 384.491 117.186 385.069 116.566C385.646 115.947 386.309 115.421 387.058 114.988C387.55 114.704 388.041 114.493 388.533 114.355C389.029 114.21 389.503 114.132 389.954 114.121L389.277 116.48C388.907 116.491 388.535 116.529 388.161 116.594C387.786 116.659 387.419 116.796 387.058 117.004ZM399.649 119.305L397.268 120.68L394.676 117.363L393.79 118.609V122.688L391.693 123.898V112.477L393.79 111.266V116.492C393.93 116.188 394.067 115.884 394.203 115.582C394.338 115.28 394.476 114.977 394.615 114.672L397.295 109.242L399.622 107.898L396.172 114.945L399.649 119.305ZM406.591 115.297L400.894 118.586V107.164L406.591 103.875V105.859L402.991 107.938V110.445L406.341 108.512V110.496L402.991 112.43V115.375L406.591 113.297V115.297ZM412.477 111.898L410.38 113.109V103.703L407.694 105.254V103.238L415.163 98.9258V100.941L412.477 102.492V111.898Z" fill="white"/>
<g style="mix-blend-mode:multiply" opacity="0.29">
<path d="M159 313.424L182.884 327.227L206.025 313.451L203.819 312.192L175.793 304.249L159 313.424Z" fill="#231F20"/>
</g>
<path d="M182.561 325.967L204.957 312.828L205.119 254.477L182.737 283.097L182.561 325.967Z" fill="#0E1A68"/>
<path d="M160.908 313.491L183.291 300.31L183.466 242L161.084 270.621L160.908 313.491Z" fill="#0E1A68"/>
<path d="M161.071 270.621L160.908 313.478L182.56 325.968L182.736 283.098L161.071 270.621Z" fill="#5B68B7"/>
<path d="M162.884 274.762L162.83 297.415L168.406 300.622L168.446 277.969L162.884 274.762Z" fill="#293896"/>
<path d="M168.419 300.866L162.641 297.537V297.415L162.681 274.653L163.074 274.857L163.033 297.306L168.419 300.405V300.866Z" fill="#0E1A68"/>
<path d="M183.466 242L205.118 254.477L182.736 283.097L161.07 270.621L183.466 242Z" fill="white"/>
<path d="M183.006 246.371L200.043 256.196L187.959 271.717L170.908 261.893L183.006 246.371Z" fill="#BBDAF9"/>
<path d="M175.063 269.376C175.442 268.875 176.132 268.74 176.673 269.051L184.725 273.693C185.226 273.977 185.361 274.64 185.009 275.1L182.276 278.645C181.897 279.146 181.207 279.281 180.666 278.97L172.614 274.329C172.113 274.044 171.978 273.368 172.33 272.921L175.063 269.389V269.376Z" fill="#293896"/>
<path d="M174.412 259.524L177.322 261.121L176.036 262.772L173.127 261.189L174.412 259.524Z" fill="#0E1A68"/>
<path d="M181.205 250.891L184.102 252.474L182.816 254.125L179.92 252.542L181.205 250.891Z" fill="#0E1A68"/>
<path d="M179.514 253.042L182.41 254.639L181.124 256.29L178.229 254.693L179.514 253.042Z" fill="#0E1A68"/>
<path d="M177.809 255.207L180.719 256.79L179.419 258.441L176.523 256.858L177.809 255.207Z" fill="#0E1A68"/>
<path d="M176.118 257.373L179.014 258.957L177.728 260.607L174.832 259.024L176.118 257.373Z" fill="#0E1A68"/>
<path d="M182.91 248.726L185.806 250.309L184.521 251.96L181.611 250.376L182.91 248.726Z" fill="#0E1A68"/>
<path d="M171.084 261.987L170.732 261.797L182.952 246.127L200.165 256.033L199.922 256.344L183.047 246.628L171.084 261.987Z" fill="#0E1A68"/>
<path d="M165.672 269.661C165.672 269.052 166.335 268.551 167.174 268.551C168.013 268.551 168.676 269.052 168.676 269.661C168.676 270.269 168 270.77 167.174 270.77C166.349 270.77 165.672 270.269 165.672 269.661Z" fill="#293896"/>
<path d="M167.863 266.912C167.863 266.304 168.54 265.803 169.365 265.803C170.191 265.803 170.867 266.304 170.867 266.912C170.867 267.521 170.204 268.022 169.365 268.022C168.526 268.022 167.863 267.521 167.863 266.912Z" fill="#293896"/>
<path d="M168.756 271.135C168.756 270.526 169.432 270.025 170.258 270.025C171.083 270.025 171.76 270.526 171.76 271.135C171.76 271.744 171.097 272.245 170.258 272.245C169.419 272.245 168.756 271.744 168.756 271.135Z" fill="#293896"/>
<path d="M170.963 268.388C170.963 267.779 171.64 267.278 172.465 267.278C173.291 267.278 173.967 267.779 173.967 268.388C173.967 268.997 173.291 269.497 172.465 269.497C171.64 269.497 170.963 268.997 170.963 268.388Z" fill="#293896"/>
<path d="M193.033 276.548L194.102 275.979L232.845 298.308L232.737 335.833L231.681 336.401L231.79 298.876L193.033 276.548Z" fill="#5B68B7"/>
<g opacity="0.46">
<path d="M193.034 276.548L192.926 314.073L231.682 336.401L231.791 298.876L193.034 276.548Z" fill="#BBDAF9"/>
</g>
<g style="mix-blend-mode:multiply" opacity="0.29">
<path d="M217.244 348.786L241.128 362.589L264.269 348.813L262.063 347.555L234.038 339.611L217.244 348.786Z" fill="#231F20"/>
</g>
<path d="M240.805 361.33L263.201 348.19L263.363 289.839L240.981 318.46L240.805 361.33Z" fill="#0E1A68"/>
<path d="M219.152 348.853L241.535 335.673L241.711 277.362L219.328 305.983L219.152 348.853Z" fill="#0E1A68"/>
<path d="M219.315 305.983L219.152 348.84L240.804 361.33L240.98 318.46L219.315 305.983Z" fill="#5B68B7"/>
<path d="M221.128 310.124L221.074 332.777L226.65 335.984L226.69 313.331L221.128 310.124Z" fill="#293896"/>
<path d="M226.663 336.228L220.885 332.899V332.777L220.925 310.016L221.318 310.219L221.277 332.669L226.663 335.768V336.228Z" fill="#0E1A68"/>
<path d="M241.71 277.362L263.362 289.839L240.98 318.46L219.314 305.983L241.71 277.362Z" fill="white"/>
<path d="M241.25 281.733L258.287 291.558L246.203 307.079L229.152 297.255L241.25 281.733Z" fill="#BBDAF9"/>
<path d="M233.307 304.738C233.686 304.237 234.376 304.102 234.918 304.413L242.969 309.055C243.47 309.339 243.605 310.002 243.254 310.462L240.52 314.008C240.141 314.508 239.451 314.644 238.91 314.332L230.858 309.691C230.357 309.407 230.222 308.73 230.574 308.283L233.307 304.752V304.738Z" fill="#293896"/>
<path d="M232.657 294.887L235.566 296.483L234.28 298.134L231.371 296.551L232.657 294.887Z" fill="#0E1A68"/>
<path d="M239.45 286.253L242.346 287.836L241.06 289.487L238.164 287.904L239.45 286.253Z" fill="#0E1A68"/>
<path d="M237.758 288.405L240.654 290.002L239.368 291.653L236.473 290.056L237.758 288.405Z" fill="#0E1A68"/>
<path d="M236.053 290.57L238.963 292.153L237.663 293.804L234.768 292.221L236.053 290.57Z" fill="#0E1A68"/>
<path d="M234.362 292.735L237.258 294.319L235.972 295.97L233.076 294.386L234.362 292.735Z" fill="#0E1A68"/>
<path d="M241.155 284.088L244.05 285.671L242.765 287.322L239.855 285.739L241.155 284.088Z" fill="#0E1A68"/>
<path d="M229.328 297.349L228.977 297.16L241.196 281.489L258.409 291.395L258.166 291.706L241.291 281.99L229.328 297.349Z" fill="#0E1A68"/>
<path d="M223.916 305.023C223.916 304.414 224.579 303.913 225.418 303.913C226.257 303.913 226.92 304.414 226.92 305.023C226.92 305.632 226.244 306.133 225.418 306.133C224.593 306.133 223.916 305.632 223.916 305.023Z" fill="#293896"/>
<path d="M226.107 302.275C226.107 301.666 226.784 301.165 227.609 301.165C228.435 301.165 229.112 301.666 229.112 302.275C229.112 302.884 228.448 303.385 227.609 303.385C226.77 303.385 226.107 302.884 226.107 302.275Z" fill="#293896"/>
<path d="M227 306.497C227 305.888 227.676 305.388 228.502 305.388C229.327 305.388 230.004 305.888 230.004 306.497C230.004 307.106 229.341 307.607 228.502 307.607C227.663 307.607 227 307.106 227 306.497Z" fill="#293896"/>
<path d="M229.207 303.75C229.207 303.141 229.884 302.641 230.709 302.641C231.535 302.641 232.211 303.141 232.211 303.75C232.211 304.359 231.535 304.86 230.709 304.86C229.884 304.86 229.207 304.359 229.207 303.75Z" fill="#293896"/>
<path d="M251.277 311.91L252.346 311.342L291.089 333.67L290.981 371.195L289.926 371.764L290.034 334.239L251.277 311.91Z" fill="#5B68B7"/>
<g opacity="0.46">
<path d="M251.278 311.91L251.17 349.435L289.927 371.763L290.035 334.238L251.278 311.91Z" fill="#BBDAF9"/>
</g>
<mask id="mask1_2067_305190" style="mask-type:luminance" maskUnits="userSpaceOnUse" x="290" y="330" width="9" height="52">
<path d="M298.95 330.719V378.722C298.95 379.33 298.436 379.939 297.58 380.395C295.869 381.32 293.077 381.32 291.352 380.395C290.483 379.926 290.049 379.318 290.049 378.697L290.194 330.693C290.194 331.302 290.628 331.923 291.497 332.392C293.222 333.33 296.013 333.317 297.725 332.392C298.581 331.923 298.95 331.327 298.95 330.719Z" fill="white"/>
</mask>
<g mask="url(#mask1_2067_305190)">
<path d="M298.95 330.719V378.722C298.95 379.33 298.437 379.939 297.581 380.395C295.869 381.32 293.078 381.32 291.353 380.395C290.484 379.926 290.194 379.318 290.207 378.697V330.693C290.207 331.302 290.642 331.923 291.511 332.392C293.236 333.33 296.027 333.317 297.739 332.392C298.595 331.923 298.963 331.327 298.963 330.719H298.95Z" fill="#293896"/>
</g>
<path d="M297.699 329.02C299.424 329.958 299.437 331.467 297.712 332.405C296.001 333.33 293.209 333.343 291.484 332.405C289.76 331.467 289.76 329.958 291.458 329.02C293.17 328.095 295.961 328.095 297.686 329.02H297.699Z" fill="#BBDAF9"/>
<path d="M229.787 315.596L226.307 312.967L233.306 306.406L236.785 309.022L229.787 315.596Z" fill="#242940"/>
<path d="M186.92 292.011C186.335 293.831 186.163 295.53 186.428 296.991C186.694 298.452 186.455 302.33 186.574 303.591C186.694 304.853 188.009 305.583 189.031 305.53C190.067 305.49 191.01 304.481 191.435 303.047C191.86 301.613 192.697 295.955 192.272 294.415C191.847 292.861 186.933 291.998 186.933 291.998L186.92 292.011Z" fill="white"/>
<path d="M187.995 302.303C187.437 302.662 186.64 302.41 186.574 303.591C186.508 304.773 188.46 313.259 188.553 314.441C188.646 315.623 188.646 318.319 188.991 319.036C189.336 319.753 190 321.466 190.465 321.479H190.917C190.917 321.479 191.209 321.958 191.421 321.984C191.634 322.011 192.802 321.161 192.802 321.161C192.802 321.161 194.091 319.713 194.17 318.89C194.25 318.067 193.679 315.424 193.4 315.132C193.121 314.84 191.966 311.506 191.767 310.258C191.581 309.01 190.917 302.569 190.917 302.569L187.995 302.29V302.303Z" fill="white"/>
<path d="M194.9 281.932C192.988 280.87 190.691 281.016 189.695 281.627C188.885 282.131 188.34 283.512 187.517 286.726C186.693 289.94 186.122 292.649 186.043 293.857C185.963 295.066 188.778 296.792 190.491 296.686C192.205 296.58 194.887 281.919 194.887 281.919L194.9 281.932Z" fill="#0E1A68"/>
<path d="M209.043 302.808C208.99 303.114 208.91 304.641 209.428 305.451C209.933 306.261 214.355 311.546 215.391 312.078C216.427 312.609 219.787 309.993 219.136 308.532C218.498 307.058 214.541 300.112 213.757 299.488C212.974 298.851 209.043 302.821 209.043 302.821V302.808Z" fill="white"/>
<path d="M215.47 309.407C215.47 309.407 214.74 311.333 215.391 311.917C216.041 312.515 217.223 313.949 227.568 314.799C229.295 315.649 229.255 315.649 229.839 315.516C230.41 315.383 230.955 315.357 230.955 315.357C230.955 315.357 231.645 315.038 232.23 314.905C232.801 314.772 232.827 313.896 232.827 313.896C232.827 313.896 233.292 313.484 233.385 313.232C233.465 312.966 232.694 311.917 232.628 311.917C232.562 311.917 230.968 311.121 230.968 311.121C230.968 311.121 228.989 311.439 228.511 311.585C228.033 311.718 225.536 310.828 224.594 310.377C223.651 309.925 220.185 307.442 218.711 307.429C217.237 307.429 215.47 309.407 215.47 309.407Z" fill="white"/>
<path d="M231.713 309.979C231.713 309.979 231.66 309.979 231.606 310.005C231.155 310.125 229.468 310.682 229.468 310.682C229.468 310.682 228.592 311.453 228.579 311.652C228.579 311.851 229.07 312.342 229.84 312.342C230.597 312.342 231.66 311.559 231.66 311.559L233.638 311.107C233.638 311.107 234.076 310.43 233.944 310.257C233.811 310.085 233.067 310.018 233.067 310.018L231.699 309.979H231.713Z" fill="white"/>
<path d="M190.904 363.192C191.09 364.215 190.692 365.437 190.453 366.645C190.214 367.84 189.816 368.836 190.732 369.354C191.648 369.859 194.61 369.992 195.858 368.982C197.106 367.986 198.447 366.751 198.447 366.751C198.447 366.751 201.635 365.251 202.445 364.454C203.255 363.67 202.445 361.917 202.445 361.917C202.445 361.917 200.134 361.32 199.51 361.293C198.886 361.267 196.482 362.807 196.482 362.807L194.424 361.785L190.931 363.206L190.904 363.192Z" fill="#293896"/>
<path d="M200.014 368.544C200.134 369.486 199.762 371.81 199.841 372.634C199.921 373.457 199.894 374.241 200.771 374.586C201.647 374.931 204.755 374.4 205.113 374.227C205.472 374.041 212.789 370.801 212.789 370.801C212.789 370.801 212.949 369.712 212.856 369.088C212.763 368.464 211.143 367.056 210.479 367.282C209.801 367.508 205.804 368.052 205.485 368.039C205.18 368.039 204.781 367.149 204.635 367.003C204.489 366.857 200.001 368.544 200.001 368.544H200.014Z" fill="#293896"/>
<path d="M190.904 362.21C191.09 363.232 190.081 364.786 190.147 366.008C190.213 367.229 189.802 367.853 190.718 368.358C191.634 368.863 194.596 368.996 195.844 367.986C197.092 366.99 198.434 365.755 198.434 365.755C198.434 365.755 201.621 364.255 202.431 363.458C203.241 362.661 202.431 360.921 202.431 360.921C202.431 360.921 200.12 360.324 199.496 360.297C198.872 360.271 196.468 361.811 196.468 361.811L194.41 360.789L190.917 362.21H190.904Z" fill="#0E1A68"/>
<path d="M200.014 367.56C200.134 368.503 199.762 370.827 199.841 371.65C199.921 372.474 199.894 373.257 200.771 373.603C201.647 373.948 204.755 373.417 205.113 373.244C205.472 373.058 212.789 369.818 212.789 369.818C212.789 369.818 212.949 368.729 212.856 368.105C212.763 367.48 211.143 366.073 210.479 366.299C209.801 366.524 205.804 367.069 205.485 367.056C205.18 367.056 204.781 366.166 204.635 366.02C204.489 365.874 200.001 367.56 200.001 367.56H200.014Z" fill="#0E1A68"/>
<path d="M190.439 315.703C189.47 318.279 188.753 320.55 188.806 323.126C188.859 325.702 189.974 333.259 190.067 334.706C190.16 336.154 190.214 342.555 190.692 344.175C191.17 345.795 198.261 346.127 199.031 343.152C199.802 340.178 198.66 320.802 198.314 319.727C197.969 318.651 190.439 315.689 190.439 315.689V315.703Z" fill="#293896"/>
<path d="M190.319 341.067C189.668 343.352 189.057 346.592 189.084 349.009C189.111 351.426 190.053 363.431 190.797 364.32C191.541 365.21 194.861 365.117 195.817 364.533C196.773 363.949 197.198 363.152 197.198 363.152C197.198 363.152 198.924 344.148 199.07 342.98C199.217 341.811 190.332 341.081 190.332 341.081L190.319 341.067Z" fill="#293896"/>
<path d="M196.031 364.519C196.031 364.347 196.535 346.83 197.85 342.886C199.191 338.862 196.788 325.729 196.681 325.171L196.256 325.251C196.283 325.383 198.753 338.836 197.438 342.753C196.11 346.751 195.619 363.789 195.592 364.506H196.031V364.519Z" fill="#0E1A68"/>
<path d="M192.803 319.248C192.644 320.337 192.896 326.048 194.064 329.155C195.233 332.263 197.145 332.409 197.451 333.524C197.756 334.626 198.991 348.145 199.748 349.619C200.505 351.093 205.193 352.036 206.521 350.921C207.849 349.805 209.071 349.699 209.31 348.623C209.549 347.534 209.456 331.731 209.217 328.093C208.978 324.454 209.111 321.227 208.035 319.036C206.959 316.845 192.803 319.262 192.803 319.262V319.248Z" fill="#5B68B7"/>
<path d="M198.527 332.144L198.62 332.104C199.191 331.891 201.091 331.161 201.343 330.59C201.582 330.032 201.21 326.579 201.13 325.889L201.104 325.716L200.931 325.69C196.243 325.105 194.318 324.415 194.304 324.401L193.946 324.269L194.012 324.64C194.185 325.756 194.783 329.421 195.048 329.82C195.314 330.218 197.704 331.639 198.435 332.077L198.527 332.13V332.144ZM200.705 326.128C200.918 328.04 201.064 330.125 200.931 330.417C200.812 330.683 199.63 331.254 198.567 331.652C197.12 330.789 195.566 329.806 195.42 329.594C195.274 329.355 194.849 327.084 194.504 324.959C195.234 325.185 197.16 325.676 200.705 326.128Z" fill="#0E1A68"/>
<path d="M190.306 329.196H190.439C190.718 329.142 191.993 328.054 192.179 327.642C192.365 327.23 191.913 324.003 191.714 322.649V322.516L191.568 322.476C191.555 322.476 189.748 321.839 188.925 320.471L188.54 320.696C189.324 321.998 190.837 322.675 191.302 322.848C191.608 324.933 191.86 327.204 191.78 327.482C191.674 327.722 190.877 328.412 190.519 328.664C190.227 328.067 189.377 326.181 189.204 325.65L188.779 325.783C188.965 326.34 190.147 328.97 190.253 329.103L190.333 329.196H190.306Z" fill="#0E1A68"/>
<path d="M199.908 341.864C199.536 343.445 199.483 346.34 199.403 348.385C199.323 350.43 198.991 367.123 199.496 368.968C202.803 371.903 207.225 367.88 207.225 367.88C207.225 367.88 209.19 350.018 209.336 348.425C209.482 346.831 199.908 341.864 199.908 341.864Z" fill="#5B68B7"/>
<path d="M205.818 368.769C205.818 368.769 207.372 353.843 207.93 348.438C208.488 343.073 207.027 320.789 207.013 320.563L206.588 320.59C206.602 320.816 208.063 343.073 207.505 348.398C206.947 353.803 205.393 368.73 205.393 368.73L205.818 368.769Z" fill="#0E1A68"/>
<path d="M197.464 282.795C195.512 282.091 192.949 280.63 190.944 281.826C189.297 282.795 187.465 287.018 187.982 292.821C188.421 297.748 188.819 305.411 189.071 307.164C189.324 308.93 188.58 318.04 188.753 320.098C188.925 322.157 193.201 324.082 195.857 324.547C198.513 325.012 201.262 325.317 205.472 324.321C209.669 323.325 209.576 321.572 209.576 321.572C209.576 321.572 208.845 310.855 208.872 308.226C208.898 305.597 211.275 294.986 211.275 294.986C211.275 294.986 210.93 291.387 210.04 290.444C209.151 289.501 203.759 285.942 203.307 285.624C202.856 285.305 197.464 282.795 197.464 282.795Z" fill="#293896"/>
<path d="M209.615 290.245C208.393 290.033 205.233 291.679 204.967 293.884C204.489 297.974 208.539 304.587 209.018 305.543C209.482 306.513 216.056 303.326 215.684 301.945C215.312 300.563 211.82 290.617 209.628 290.245H209.615Z" fill="#0E1A68"/>
<path d="M203.745 286.168C203.838 285.597 204.024 284.694 204.263 284.349C204.502 284.017 206.547 284.495 207.198 284.442C207.849 284.389 208.725 280.591 208.725 280.591C208.725 280.591 210.106 280.219 210.199 279.834C210.292 279.449 209.801 277.111 209.801 277.111C209.801 277.111 210.89 273.366 210.784 272.795C210.691 272.224 204.449 268.904 204.449 268.904C204.449 268.904 199.151 272.755 198.726 275.186C198.301 277.616 197.676 279.767 197.265 280.67C196.853 281.573 196.189 283.273 195.844 283.645C195.499 284.017 197.145 284.747 199.35 285.119C201.554 285.491 203.745 286.168 203.745 286.168Z" fill="white"/>
<path d="M206.161 277.284C206.029 276.939 205.883 276.846 205.165 277.258C204.448 277.669 204.302 278.519 204.023 279.25C203.745 279.98 201.872 280.445 200.996 280.79C200.119 281.135 197.715 280.285 197.715 280.285C197.715 280.285 197.051 276.461 197.025 274.628C196.998 272.796 196.454 267.802 201.646 267.324C205.922 265.77 210.73 269.622 211.314 271.189C211.898 272.756 211.208 274.708 211.208 274.708C211.208 274.708 210.424 274.907 210.079 275.133C209.734 275.359 209.203 275.73 209.083 276.102C208.964 276.474 207.795 279.13 207.795 279.13L206.547 278.984L206.175 277.284H206.161Z" fill="#C74C31"/>
<path d="M205.909 276.474C205.909 276.474 205.617 276.474 205.166 277.257C204.714 278.041 204.263 280.551 204.834 280.736C205.405 280.922 205.976 279.86 206.002 279.767C206.029 279.687 206.48 277.297 206.427 276.885C206.374 276.474 205.896 276.474 205.896 276.474H205.909Z" fill="white"/>
<defs>
<linearGradient id="paint0_linear_2067_305190" x1="464.173" y1="201.351" x2="463.181" y2="204.362" gradientUnits="userSpaceOnUse">
<stop stop-color="#D8C1B5"/>
<stop offset="1" stop-color="#DE9473"/>
</linearGradient>
</defs>
</svg>
