<svg width="705" height="468" viewBox="0 0 705 468" fill="none" xmlns="http://www.w3.org/2000/svg">
<rect width="705" height="468" fill="#E0E6F9"/>
<path d="M621.209 331.147L547.687 369L144.707 162.853L209.55 129.464C214.992 126.662 221.451 126.653 226.9 129.44L275.052 154.07L621.209 331.147Z" fill="#CAE5FF"/>
<path d="M31 221.041L168.28 291.264L304.358 221.657L167.078 151.425L31 221.041Z" fill="#CAE5FF"/>
<path d="M616.213 316.214C616.623 320.848 616.939 324.381 623.095 324.12C629.966 323.831 630.419 320.895 630.324 316.028C630.24 311.73 623.326 262.195 629.987 256.927C631.924 255.398 634.302 254.391 636.427 253.077C638.553 251.762 640.531 249.982 640.984 247.716C641.447 245.46 630.356 250.019 628.798 251.511C628.398 251.893 627.862 252.256 627.272 252.2C626.273 252.107 625.926 250.988 625.82 250.103C625.526 247.53 614.298 200.372 616.602 234.915C616.908 239.502 615.234 246.802 615.434 250.746C615.592 253.953 616.771 258.056 616.392 261.132C616.129 263.314 613.404 262.447 612.057 261.542C611.057 260.871 610.289 259.967 609.542 259.072C606.785 255.809 604.017 252.536 601.26 249.273C600.492 248.369 599.461 247.362 598.209 247.548C596.851 247.753 596.272 249.338 596.735 250.485C597.525 252.443 600.145 254.084 601.555 255.743C603.081 257.533 604.67 259.296 606.332 260.974C609.058 263.724 615.876 269.355 616.003 273.346C616.139 277.737 616.15 315.095 616.245 316.205L616.213 316.214Z" fill="#293896"/>
<path d="M566.965 201.055C566.481 202.369 564.482 202.994 563.545 204.215C561.956 206.267 563.903 209.008 565.986 210.677C568.07 212.345 570.617 214.238 570.332 216.718C570.09 218.872 567.923 220.074 566.776 221.799C565.345 223.953 565.671 225.314 565.408 227.57C564.903 231.757 561.441 236.437 565.134 240.325C566.839 242.124 569.669 242.907 571.216 244.809C574.668 249.061 573.763 255.848 582.423 252.547C584.633 251.699 586.232 249.685 588.916 251.177C591.894 252.846 589.778 256.034 591.115 258.421C592.325 260.584 594.493 259.941 596.618 260.276C599.501 260.724 602.216 262.225 605.268 262.635C608.056 263.008 611.161 262.43 613.023 260.556C614.654 258.906 615.359 256.314 617.716 255.633C620.726 254.766 624.472 257.741 626.85 255.895C629.754 253.62 633.743 249.75 637.541 253.787C639.414 255.783 637.952 258.197 641.813 258.738C644.476 259.111 647.359 257.293 648.99 255.605C651.316 253.181 652.936 250.095 656.009 248.464C660.092 246.292 666.51 246.664 668.215 242.73C669.562 239.597 666.542 236.064 667.573 232.838C668.794 228.978 675.255 227.179 674.992 223.179C674.792 220.046 670.604 218.545 668.531 216C666.51 213.52 666.637 210.145 667.31 207.143C668.078 203.675 669.646 199.889 668.352 196.375C667.205 193.27 664.869 192.766 662.301 190.986C657.177 187.415 663.953 180.749 655.198 179.434C652.484 179.024 649.495 179.229 647.201 177.887C644.897 176.544 643.918 173.999 643.413 171.593C642.897 169.188 642.666 166.661 641.266 164.554C638.962 161.077 629.849 158.382 625.682 157.282C619.926 155.762 613.444 155.072 607.478 155.93C602.29 156.667 597.123 159.063 594.64 163.165C592.893 166.037 592.325 169.794 589.179 171.481C585.527 173.439 580.192 171.519 576.909 173.933C574.836 175.462 574.478 178.11 573.458 180.32C571.637 184.236 565.766 184.683 563.377 188.739C561.82 191.377 561.746 194.939 564.103 197.055C565.334 198.165 567.27 199.106 567.112 200.645C567.102 200.794 567.06 200.934 567.018 201.064L566.965 201.055Z" fill="#0E1A68"/>
<path d="M668.49 215.979C666.469 213.499 666.596 210.124 667.269 207.122C668.037 203.654 669.605 199.869 668.311 196.354C667.164 193.249 664.828 192.746 662.26 190.965C657.136 187.394 663.912 180.728 655.157 179.413C652.443 179.003 649.454 179.208 647.16 177.866C644.856 176.523 643.877 173.978 643.372 171.572C642.856 169.167 642.625 166.64 641.225 164.533C638.921 161.056 629.808 158.361 625.631 157.261C625.147 157.131 624.768 157 624.263 157C623 159.098 620.99 162.65 623.421 164.673C625.115 166.081 627.588 166.361 629.787 167.004C631.997 167.647 634.322 169.102 634.27 171.153C634.196 174.099 629.293 176.318 630.671 179.003C632.144 181.856 638.142 179.786 640.015 182.443C641.215 184.14 639.626 186.34 637.816 187.524C635.995 188.709 633.733 189.66 632.902 191.515C631.913 193.734 633.481 196.242 635.533 197.78C637.584 199.318 640.12 200.307 642.078 201.938C644.035 203.57 645.298 206.292 643.93 208.334C642.478 210.516 638.5 211.392 638.542 213.919C638.584 216.016 641.373 216.986 643.361 218.124C648.991 221.377 649.812 229.2 642.372 230.813C639.194 231.502 635.848 231.092 632.607 231.493C629.366 231.894 625.883 233.516 625.231 236.36C624.831 238.075 625.546 239.931 624.883 241.581C623.957 243.874 620.653 244.77 617.959 244.275C615.266 243.781 612.972 242.28 610.594 241.059C608.215 239.837 605.416 238.84 602.765 239.483C600.292 240.08 598.534 241.945 596.556 243.38C594.578 244.825 591.705 245.898 589.527 244.695C587.475 243.567 587.18 241.087 586.896 238.961C586.612 236.835 585.697 234.309 583.34 233.852C581.645 233.526 579.909 234.449 578.194 234.225C575.984 233.936 574.658 231.847 574.237 229.899C573.827 227.95 573.985 225.89 573.143 224.053C572.28 222.161 569.281 220.259 567.071 221.601C565.23 222.72 565.598 225.881 565.398 227.559C564.893 231.745 561.431 236.425 565.125 240.313C566.829 242.112 569.66 242.896 571.207 244.797C574.658 249.049 573.753 255.836 582.414 252.536C584.623 251.687 586.223 249.674 588.906 251.165C591.884 252.834 589.769 256.023 591.105 258.409C592.316 260.572 594.483 259.929 596.598 260.265C599.482 260.712 602.196 262.213 605.248 262.624C608.037 262.997 611.141 262.418 613.003 260.545C614.634 258.894 615.339 256.302 617.696 255.622C620.706 254.755 624.452 257.729 626.83 255.883C629.734 253.608 633.723 249.739 637.521 253.776C639.394 255.771 637.932 258.186 641.794 258.726C644.456 259.099 647.339 257.281 648.97 255.594C651.296 253.17 652.916 250.084 655.989 248.452C660.072 246.28 666.49 246.653 668.195 242.718C669.542 239.586 666.522 236.052 667.553 232.826C668.774 228.967 675.235 227.167 674.972 223.167C674.772 220.035 670.584 218.534 668.511 215.988L668.49 215.979Z" fill="#5B68B7"/>
<path d="M583.709 185.642C583.267 185.95 582.951 186.341 582.846 186.835C582.53 188.281 584.561 189.726 584.035 191.478C583.288 194.024 579.584 194.611 577.227 196.196C575.259 197.52 574.154 199.795 574.428 201.967C574.691 204.149 576.322 206.153 578.563 207.076C582.141 208.549 587.308 207.636 589.339 210.638C590.528 212.391 589.917 214.638 590.307 216.651C590.822 219.271 593.327 221.546 596.315 221.872C599.293 222.199 602.45 220.409 603.176 217.826C603.502 216.679 603.376 215.467 603.639 214.311C604.281 211.542 607.143 209.51 610.205 208.708C613.267 207.906 616.529 208.102 619.718 208.298C621.402 206.312 619.718 203.496 617.834 201.659C615.951 199.813 613.678 197.678 614.267 195.245C614.972 192.355 619.108 191.441 621.349 189.25C623.548 187.106 623.706 183.703 622.296 181.083C620.886 178.463 618.182 176.543 615.246 175.247C608.532 172.198 605.386 176.058 601.187 180.169C600.84 180.505 600.482 180.85 599.998 180.999C599.356 181.195 598.651 180.999 598.02 180.794C597.073 180.477 596.105 180.123 595.095 180.104C594.084 180.076 592.98 180.458 592.527 181.269C591.843 182.5 592.811 184.309 591.622 185.176C590.643 185.884 589.233 185.223 588.013 184.933C586.803 184.644 584.846 184.84 583.709 185.633V185.642Z" fill="white"/>
<path d="M292.282 220.369C292.282 220.369 293.279 221.627 293.181 223.19C293.181 223.19 293.083 224.059 292.005 224.537C290.926 225.014 289.848 225.405 289.113 226.23C288.378 227.055 286.608 228.358 284.872 228.836C283.134 229.313 280.929 228.879 281.027 227.88C281.125 226.882 282.203 226.426 283.575 224.7C284.948 222.972 287.108 221.498 287.106 220.303C287.104 219.109 292.282 220.369 292.282 220.369Z" fill="#0E1A68"/>
<path d="M303.999 211.056C303.999 211.056 304.672 212.247 303.999 214.158C303.326 216.068 301.659 219.715 303.521 220.194C305.383 220.672 308.52 217.501 308.52 215.417C308.52 213.333 309.108 212.812 309.745 211.943C310.382 211.075 310.628 210.249 310.186 209.859C309.745 209.468 308.584 208.591 308.03 208.426C307.475 208.26 307.148 207.688 307.148 207.688L303.999 211.056Z" fill="#0E1A68"/>
<path d="M286.414 221.689C286.414 221.689 288.104 222.291 288.604 222.681L288.428 223.618L289.25 222.653C289.25 222.653 292.085 222.315 292.504 220.701L291.953 219.789L287.104 220.303C287.104 220.303 287.216 220.828 286.414 221.689Z" fill="white"/>
<path d="M304.292 212.678C304.292 212.678 305.608 212.775 306.446 212.541L306.952 213.029L306.754 212.073C306.754 212.073 309.366 209.586 308.027 208.428C308.027 208.428 307.775 208.319 307.547 208.159C307.319 207.998 307.113 208.096 307.113 208.096L303.996 211.057C303.996 211.057 304.319 211.785 304.292 212.678Z" fill="white"/>
<path d="M283.574 181.829C283.574 181.829 285.388 197.439 288.132 199.957C290.876 202.477 303.423 211.335 303.423 211.335C303.423 211.335 307.246 209.684 308.03 207.167L298.155 197.18L293.861 188.842L293.156 181.83L283.574 181.829Z" fill="#5B68B7"/>
<path d="M294.984 205.26L295.891 205.925C295.891 205.925 295.304 205.211 297.008 203.154C298.711 201.097 299.738 198.782 299.738 198.782L298.154 197.18L297.595 196.15L294.48 203.206L294.984 205.26Z" fill="#293896"/>
<path d="M281.665 167.699C281.665 167.699 280.121 174.798 279.901 175.71C279.68 176.622 278.063 181.441 277.77 183.461L280.048 184.177C280.048 184.177 283.651 177.012 283.871 175.938C284.092 174.864 284.581 172.899 284.581 172.899L285.782 165.679L281.665 167.699Z" fill="white"/>
<path d="M280.047 184.176C280.047 184.176 280.304 185.153 280.047 185.903C279.79 186.651 278.54 187.01 278.282 188.573C278.025 190.136 277.547 190.755 276.554 189.941C275.562 189.127 274.533 187.271 275.745 185.641C276.958 184.013 277.767 183.459 277.767 183.459L279.457 182.711L280.047 184.176Z" fill="white"/>
<path d="M300.987 184.588C300.987 184.588 301.616 187.887 299.237 193.705C296.858 199.523 294.995 204.213 294.995 204.213C294.995 204.213 294.995 210.64 294.407 213.071C293.819 215.503 293.158 220.193 293.158 220.193C293.158 220.193 289.801 221.061 286.664 220.193C286.664 220.193 288.429 205.776 288.134 199.957C287.84 194.14 289.479 185.932 289.479 185.932L300.987 184.588Z" fill="#5B68B7"/>
<path d="M286.809 157.353C286.809 157.353 284.237 160.011 283.061 163.529C281.885 167.046 281.664 167.698 281.664 167.698L284.649 168.151L286.809 157.353Z" fill="#293896"/>
<path d="M288.607 156.582C288.607 156.582 287.618 156.907 286.809 157.352C286 157.797 283.647 163.398 284.383 165.873C285.118 168.348 284.309 179.161 283.574 181.831C283.574 181.831 289.013 187.171 295.226 187.628C301.438 188.084 301.144 184.241 300.923 183.394C300.702 182.547 299.012 177.336 299.674 174.991C300.335 172.647 302.736 165.829 302.736 165.829L300.286 159.793L295.198 157.155L288.607 156.582Z" fill="#293896"/>
<path d="M295.198 154.663C295.198 154.663 294.936 156.56 295.198 157.156C295.459 157.754 293.84 159.339 293.081 159.556C292.322 159.773 288.965 160.686 288.5 159.621C288.034 158.558 288.696 158.243 288.598 156.147C288.5 154.053 295.198 154.663 295.198 154.663Z" fill="white"/>
<path d="M289.555 155.93C289.555 155.93 288.428 156.625 287.546 156.581C286.663 156.537 286.218 155.366 286.392 153.672C286.566 151.978 286.683 150.762 286.354 150.024C286.027 149.286 286.86 145.118 290.535 145.118C294.211 145.118 299.147 146.327 295.797 152.323L289.555 155.93Z" fill="white"/>
<path d="M295.449 162.615C295.449 162.615 297.446 165.482 297.103 167.305C296.76 169.129 295.976 169.606 295.976 169.606C295.976 169.606 302.004 167.305 302.739 165.829C303.474 164.353 302.838 161.183 300.289 159.793C300.289 159.793 296.833 160.922 295.449 162.615Z" fill="#293896"/>
<path d="M292.42 151.295C292.42 151.295 292.669 149.236 293.157 148.729C293.157 148.729 291.573 149.276 290.162 148.729C288.751 148.183 286.646 148.651 286.288 147.636C285.93 146.62 286.288 145.839 286.288 145.839C286.288 145.839 286.635 146.464 287.12 145.839C287.605 145.214 290.338 143.183 294.657 144.355C294.657 144.355 297.441 145.214 296.908 146.972C296.908 146.972 298.448 148.56 297.448 150.226C296.449 151.891 295.871 152.45 295.871 152.45L294.822 150.698L294.091 151.084C294.091 151.084 293.654 150.587 292.42 151.295Z" fill="#613722"/>
<path d="M290.24 157.157L289.553 155.932C289.553 155.932 289.033 156.184 288.605 156.381C288.605 156.381 288.581 157.225 288.566 157.353C288.551 157.482 288.551 157.482 288.551 157.482C288.551 157.482 289.676 158.232 289.455 158.844C289.235 159.455 289.229 160.077 289.229 160.077L289.446 160.109C289.446 160.109 289.559 159.833 289.757 158.961C289.955 158.088 290.147 157.522 290.24 157.157Z" fill="white"/>
<path d="M295.096 155.757L295.199 154.66L294.681 154.92C294.681 154.92 293.918 156.445 293.545 157.686C293.545 157.686 292.984 159.232 293.082 159.554C293.082 159.554 293.429 159.503 293.932 159.045C294.436 158.588 293.358 158.929 293.853 157.883C294.35 156.84 295.096 155.757 295.096 155.757Z" fill="white"/>
<path d="M292.419 151.291C292.419 151.291 290.134 152.429 290.032 152.808C289.929 153.188 289.75 153.366 289.75 153.366C289.75 153.366 289.823 153.151 289.823 152.709C289.823 152.266 292.499 151.188 292.55 150.472L292.419 151.291Z" fill="white"/>
<path d="M284.649 168.147C284.649 168.147 284.655 166.904 284.404 165.944C284.404 165.944 284.183 165.073 284.255 164.356C284.327 163.639 284.515 162.354 284.86 161.337C284.86 161.337 284.094 163.279 283.933 165.115C283.771 166.95 284.282 167.943 283.078 167.908L284.649 168.147Z" fill="#0E1A68"/>
<path d="M296.589 161.597L294.545 163.374L292.965 164.701L293.006 163.704C293.006 163.704 293.342 164.058 296.589 161.597Z" fill="#0E1A68"/>
<path d="M301.346 167.059C301.346 167.059 296.937 169.454 295.621 169.704C294.306 169.953 291.703 170.766 291.703 170.766C291.703 170.766 296.304 172.016 296.187 174.151C296.069 176.286 296.473 178.629 297.182 180.817C297.891 183.003 300.623 186.8 297.67 187.558C297.67 187.558 300.832 187.277 301.007 184.398C301.007 184.398 301.123 183.837 300.683 182.47C300.242 181.102 299.654 178.226 299.61 177.835C299.567 177.445 299.463 175.742 299.676 174.992C299.889 174.243 300.914 171.126 300.914 171.126L302.738 165.83C302.738 165.83 302.582 166.28 301.346 167.059Z" fill="#0E1A68"/>
<path d="M284.651 168.153C284.651 168.153 283.162 167.312 281.88 167.062L281.566 168.153H284.651Z" fill="white"/>
<path d="M289.233 187.25C289.233 187.25 288.346 193.761 288.328 193.958C288.31 194.155 288.13 199.961 288.13 199.961C288.13 199.961 287.25 198.873 287.294 197.39C287.337 195.906 288.439 189.348 287.161 187.667C285.883 185.987 285.777 184.971 285.777 184.971C285.777 184.971 286.809 187.03 289.233 187.25Z" fill="#293896"/>
<path d="M290.141 153.07L288.891 153.754L290.632 156.858L297.125 153.591L295.213 150.398L290.141 153.07Z" fill="#776962"/>
<path d="M290.777 153.453L289.527 154.137L291.269 157.242L297.761 153.975L295.85 150.783L290.777 153.453Z" fill="#564C47"/>
<path d="M289.529 154.138L288.891 153.754L290.632 156.858L291.27 157.242L289.529 154.138Z" fill="#776962"/>
<path d="M288.891 153.754L289.529 154.138L295.851 150.784L295.213 150.398L288.891 153.754Z" fill="#89807C"/>
<path d="M295.445 162.615L292.964 164.7L288.988 171.501L295.972 169.606C295.972 169.606 299.01 167.435 295.445 162.615Z" fill="white"/>
<path d="M289.751 153.369C289.751 153.369 289.8 152.804 290.633 152.327C291.466 151.849 292.544 151.153 293.132 150.981C293.721 150.807 293.916 150.85 294.602 151.545C295.288 152.24 295.729 153.239 295.239 153.89C294.749 154.541 292.985 158.623 293.082 159.666C293.18 160.707 292.838 167.482 292.838 167.482C292.838 167.482 292.152 170.782 289.113 171.476C286.074 172.171 286.32 169.87 286.466 168.741C286.614 167.611 289.505 160.274 289.653 159.405C289.8 158.536 291.141 154.633 290.633 153.673C290.124 152.712 289.751 153.369 289.751 153.369Z" fill="white"/>
<path d="M292.967 164.701C292.967 164.701 293.077 167.435 292.497 168.48C291.917 169.524 293.895 167.517 293.954 166.589C294.012 165.663 294.187 163.676 294.547 163.374L292.967 164.701Z" fill="white"/>
<path d="M273.237 216.485C273.136 217.181 273.034 217.889 272.945 218.586C272.844 219.361 272.451 220.99 273.63 221.282C274.175 221.417 274.771 221.203 275.164 220.844C276.508 219.642 276.014 218.642 276.42 216.406C276.546 215.721 277.688 214.946 276.42 213.789C276.179 213.564 275.811 213.261 275.443 213.272C275.012 213.272 274.289 213.732 274.099 213.912C273.579 214.418 273.326 215.811 273.224 216.485H273.237Z" fill="#5B68B7"/>
<path d="M261.016 202.126C260.318 203.137 261.079 207.024 261.561 208.024C262.246 209.451 264.781 214.046 265.555 214.866C266.024 215.371 268.852 215.091 269.118 214.574C269.574 213.686 268.167 207.698 267.913 206.788C267.216 204.227 265.377 202.957 264.224 202.89C262.943 202.8 261.637 201.238 261.016 202.137V202.126Z" fill="#293896"/>
<path d="M273.356 212.743C271.936 212.395 270.478 212.114 269.02 211.945C268.424 211.878 267.802 211.822 267.219 211.956C266.331 212.159 265.317 213.271 265.241 214.181C265.203 214.574 265.583 214.978 265.989 215.147C268.322 216.147 272.405 216.506 273.026 216.529C273.901 216.551 275.131 216.63 275.651 215.866C275.816 215.63 275.892 215.36 275.93 215.091C275.993 214.675 275.981 214.215 275.74 213.855C275.499 213.484 275.144 213.349 274.713 213.215C274.256 213.069 273.825 212.866 273.343 212.754L273.356 212.743Z" fill="#293896"/>
<path d="M259.244 192.567C261.919 189.691 267.879 190.735 261.665 195.409C260.981 195.926 259.142 197.487 257.583 198.588C256.758 199.173 255.059 197.364 256.061 196.24C256.682 195.555 258.141 193.746 259.244 192.567Z" fill="white"/>
<path d="M258.823 192.555C258.489 193.13 258.014 193.75 257.768 194.17C257.663 194.872 258.378 196.415 259.134 196.624C259.509 196.15 261.794 194.069 261.419 192.327C261.15 191.077 259.743 190.967 258.829 192.546L258.823 192.555Z" fill="#293896"/>
<path d="M256.364 195.938C256.694 195.804 258.343 198.039 258.343 198.039C258.343 198.039 255.046 200.825 254.64 202.32C254.64 202.32 252.763 201.87 252.928 201.556C253.093 201.264 253.993 199.253 254.944 197.714C255.553 196.736 256.377 195.938 256.377 195.938H256.364Z" fill="white"/>
<path d="M265.873 220.609C264.58 221.576 263.401 222.654 262.222 223.733C261.879 224.047 259.825 225.069 261.207 226.215C261.714 226.631 262.45 226.788 263.122 226.665C264.111 226.485 264.745 225.721 265.48 225.171C267.522 223.631 267.75 223.44 267.61 222.227C267.509 221.261 265.873 220.609 265.873 220.609Z" fill="#5B68B7"/>
<path d="M266.547 215.744C266.42 215.193 266.255 214.643 265.913 214.171C265.393 213.463 264.467 213.025 263.554 213.048C262.73 213.07 262.096 213.329 261.792 214.048C260.942 216.002 262.35 218.822 263.047 220.766C263.326 221.53 263.656 222.631 264.658 222.833C265.254 222.956 266.357 222.754 266.838 222.237C267.155 221.9 267.168 221.552 267.168 221.125C267.168 221.035 267.384 219.159 266.56 215.733L266.547 215.744Z" fill="#5B68B7"/>
<path d="M270.971 203.51C270.591 202.926 270.566 203.027 269.729 203.117C264.923 203.6 263.452 203.319 263.313 205.229C263.148 207.442 261.373 214.823 261.525 215.329C261.918 216.654 265.836 216.306 266.432 215.329C267.472 213.599 273.571 207.577 270.971 203.521V203.51Z" fill="#5B68B7"/>
<path d="M269.816 197.24C269.804 196.252 270.501 195.072 270.019 194.106C269.905 193.881 269.728 193.702 269.538 193.533C268.194 192.342 266.089 192.028 264.301 191.59C263.248 191.331 260.205 191.421 259.939 191.522C259.267 191.758 258.899 192.668 258.747 193.252C258.341 194.758 258.531 196.274 258.734 197.802C258.912 199.15 259.127 200.487 259.394 201.824C259.926 204.52 259.254 206.262 264.491 206.756C268.663 207.149 270.134 205.812 270.349 204.599C270.489 203.756 269.766 201.892 269.842 200.476C269.905 199.409 269.728 198.308 269.829 197.252L269.816 197.24Z" fill="#293896"/>
<path d="M262.918 191.679C262.918 191.601 262.918 191.522 262.918 191.443C262.918 191.017 262.956 190.601 263.071 190.185C263.159 189.826 263.362 189.691 263.73 189.545C264.339 189.298 264.998 189.421 265.581 189.185C265.974 189.028 266.329 188.815 266.798 188.848C267.141 188.882 267.369 188.781 267.496 189.107C267.635 189.489 267.737 189.871 267.686 190.275C267.635 190.792 267.686 191.376 267.775 191.893C267.851 192.365 267.902 192.747 267.572 193.174C267.306 193.522 266.875 193.769 266.418 193.904C265.962 194.039 265.48 194.072 264.998 194.061C264.541 194.05 264.072 193.994 263.679 193.791C262.766 193.342 262.918 192.455 262.931 191.657L262.918 191.679Z" fill="white"/>
<path d="M260.789 185.197C259.826 186.702 259.75 188.623 260.181 190.309C260.472 191.41 261.094 192.555 262.235 193.027C262.92 193.308 263.718 193.319 264.428 193.14C265.151 192.96 265.811 192.6 266.381 192.162C267.231 191.522 268.106 190.612 268.448 189.646C268.575 189.286 268.613 188.882 268.701 188.511C268.841 187.916 268.968 187.309 268.904 186.691C268.854 186.129 268.904 185.624 268.689 185.073C268.473 184.568 268.118 184.118 267.662 183.77C266.863 183.175 265.785 182.916 264.758 183.029C264.403 183.074 264.048 183.152 263.693 183.242C262.932 183.444 262.159 183.714 261.588 184.208L261.563 184.231C261.246 184.523 260.979 184.837 260.764 185.174L260.789 185.197Z" fill="white"/>
<path d="M264.287 186.084C264.148 186.208 264.224 186.433 264.376 186.534C264.528 186.635 264.731 186.657 264.934 186.657C265.073 186.657 265.251 186.635 265.302 186.511C265.124 186.646 265.073 186.904 265.175 187.095C265.276 187.286 265.479 187.433 265.707 187.489C265.822 187.522 265.986 187.511 266.012 187.399C265.91 187.365 265.822 187.477 265.784 187.567C265.707 187.747 265.657 187.949 265.733 188.129C265.809 188.309 266.062 188.432 266.253 188.343C266.088 188.41 266.037 188.601 266.024 188.769C266.024 189.005 266.012 189.275 266.189 189.466C266.253 189.533 266.341 189.623 266.43 189.668C266.544 189.724 266.684 189.713 266.785 189.803C266.937 189.927 266.912 190.106 266.95 190.275C267.001 190.522 267.216 190.747 267.483 190.825C267.673 190.881 267.888 190.859 268.079 190.893C268.294 190.926 268.51 190.938 268.713 190.837C268.941 190.724 269.093 190.488 269.042 190.264C269.144 190.331 269.283 190.32 269.397 190.264C269.511 190.207 269.587 190.118 269.638 190.016C269.714 189.87 269.765 189.713 269.752 189.556C269.917 189.59 270.082 189.488 270.158 189.365C270.247 189.241 270.259 189.095 270.272 188.949C270.272 188.769 270.221 188.533 270.336 188.399C270.475 188.241 270.627 188.174 270.691 187.972C270.729 187.871 270.729 187.758 270.716 187.657C270.703 187.567 270.615 187.466 270.615 187.388C270.615 187.242 270.792 187.095 270.805 186.938C270.817 186.702 270.729 186.5 270.716 186.275C270.716 186.129 270.792 185.961 270.843 185.826C270.893 185.691 270.932 185.691 270.855 185.556C270.805 185.466 270.741 185.388 270.691 185.298C270.589 185.129 270.488 184.961 270.45 184.77C270.399 184.523 270.424 184.298 270.221 184.085C270.082 183.927 269.816 183.815 269.6 183.905C269.562 183.512 269.093 183.197 268.662 183.265C268.687 183.062 268.573 182.86 268.383 182.748C268.18 182.624 267.914 182.714 267.749 182.579C267.533 182.411 267.445 182.231 267.14 182.152C266.823 182.062 266.468 182.107 266.164 182.242C265.796 181.916 265.15 181.894 264.744 182.186C264.731 182.197 264.706 182.208 264.693 182.22C264.642 182.231 264.604 182.208 264.566 182.186C264.351 182.051 264.072 182.018 263.818 182.085C263.603 182.141 263.463 182.366 263.26 182.399C263.171 182.411 263.07 182.366 262.981 182.355C262.829 182.332 262.69 182.355 262.537 182.422C262.132 182.568 261.764 182.815 261.485 183.13C261.447 183.163 261.422 183.208 261.384 183.231C261.282 183.298 261.143 183.298 261.016 183.309C260.509 183.366 260.116 183.837 260.192 184.276C259.824 184.354 259.52 184.635 259.444 184.961C259.393 185.174 259.494 185.309 259.532 185.5C259.57 185.702 259.494 185.882 259.583 186.084C259.659 186.275 259.837 186.433 260.052 186.489C260.268 186.545 260.521 186.489 260.648 186.32C260.762 186.545 261.029 186.714 261.308 186.714C261.586 186.714 261.865 186.556 261.98 186.332C262.17 186.5 262.461 186.59 262.715 186.534C262.981 186.478 263.197 186.264 263.21 186.028C263.184 186.185 263.349 186.332 263.514 186.376C263.793 186.455 264.135 186.32 264.249 186.073L264.287 186.084Z" fill="#BF7872"/>
<path d="M267.521 188.981C268.281 188.902 268.51 189.689 268.028 190.329C267.888 190.52 267.622 190.689 267.432 190.835C266.126 191.868 265.72 190.835 266.139 190.475C267.102 189.655 266.57 189.071 267.521 188.97V188.981Z" fill="white"/>
<path d="M273.214 196.442C271.844 192.824 265.72 191.903 269.727 198.374C270.171 199.093 270.919 200.879 271.958 202.441C272.504 203.261 274.33 202.598 274.608 202.306C275.166 201.688 275.319 201.441 274.824 200.048C274.52 199.194 273.772 197.925 273.214 196.453V196.442Z" fill="white"/>
<path d="M273.001 195.565C273.47 196.419 273.926 197.599 274.205 198.217C274.078 199.059 271.961 200.273 270.414 200.025C269.919 199.261 266.496 195.487 268.043 193.824C269.146 192.633 271.745 193.33 272.988 195.565H273.001Z" fill="#293896"/>
<path d="M275.025 201.72C275.203 201.35 271.957 200.676 271.614 201.114C271.424 201.361 270.841 202.203 270.689 202.473C270.334 203.08 269.015 205.473 268.685 206.034C267.721 207.708 267.1 206.709 266.339 208.944C266.314 209.034 266.213 209.158 266.301 209.27C266.39 209.382 266.77 209.517 266.961 209.146C267.481 208.124 267.81 208.506 267.341 209.203C266.796 210 265.312 210.832 267.303 210.899C267.836 210.921 267.988 211.079 268.634 210.539C270.029 209.371 268.926 208.697 270.6 207.135C270.993 206.776 274.201 203.518 275.038 201.732L275.025 201.72Z" fill="white"/>
<path d="M251.126 203.812C251.05 204.205 250.974 204.598 250.961 205.003C250.961 205.227 250.961 205.924 251.126 206.081C251.367 206.317 251.405 205.845 251.595 205.924C251.734 205.98 251.899 206.542 252.115 206.171C252.419 205.654 252.153 205.081 252.356 205.014C252.521 204.958 252.508 205.935 252.838 205.823C253.205 205.699 252.698 204.104 253.142 204.025C253.535 203.947 253.205 204.823 253.624 204.969C254.067 205.126 253.75 203.767 253.915 203.239C254.029 202.902 254.384 202.677 254.575 202.374C254.816 201.98 254.727 201.172 254.156 201.003C253.687 200.857 252.964 201.374 252.597 201.632C251.443 202.441 251.265 202.969 251.1 203.812H251.126Z" fill="white"/>
<path d="M251.923 202.934C251.835 203.148 251.885 203.395 251.556 204.372C251.467 204.62 251.366 204.912 251.543 205.148C251.607 205.237 251.721 205.294 251.835 205.271C251.974 205.237 252.012 205.091 252.063 204.99C252.19 204.709 252.317 204.271 252.798 203.788C253.382 203.215 254.079 203.114 254.117 202.339C254.117 202.114 254.079 202.002 253.775 201.901C253.344 201.755 253.039 201.777 252.608 201.991C252.101 202.249 252.088 202.564 251.936 202.934H251.923Z" fill="white"/>
<path d="M523.529 308.907C523.647 308.937 522.172 308.651 518.442 307.75C517.407 308.411 516.712 309.523 516.407 310.635C516.271 311.191 516.169 311.777 516.152 312.363C517.746 312.963 519.493 313.564 521.019 314.226C526.123 316.464 528.819 310.454 523.529 308.892V308.907Z" fill="#293896"/>
<path d="M520.643 351.921C519.406 351.019 517.71 350.358 516.879 350.373C516.251 350.373 515.692 350.689 515.149 350.989C514.641 351.275 514.674 351.59 514.708 352.071C514.793 353.408 516.574 354.415 517.354 354.685C518.185 354.971 518.71 354.881 519.524 355.647C519.711 355.812 519.846 356.038 520.084 356.143C521.932 356.969 524.188 356.458 523.289 353.754C522.899 352.567 522.984 352.357 521.627 351.635C521.305 351.47 521.169 352.342 520.643 351.951V351.921Z" fill="#3C3C45"/>
<path d="M514.695 332.96C514.932 332.69 515.339 332.629 515.712 332.569C517.357 332.314 518.968 331.728 520.579 331.382C521.308 331.232 522.037 331.112 522.766 331.112L524.36 329.835C524.394 330.03 524.411 330.226 524.428 330.436C524.869 335.094 522.749 339.631 523.021 350.554C523.055 352.206 522.783 353.168 522.02 353.724C520.715 354.7 519.29 353.589 519.036 352.792C518.544 351.275 518.052 342.891 517.408 341.839C516.577 340.472 515.848 339.015 515.729 338.204C515.559 337.062 515.458 338.128 515.322 336.987C515.203 335.935 514.762 334.973 514.559 333.937C514.491 333.606 514.457 333.23 514.678 332.96H514.695Z" fill="white"/>
<path d="M518.676 350.525C518.811 351.562 518.93 352.404 519.049 352.794C519.303 353.59 520.728 354.702 522.033 353.726C522.796 353.155 523.085 352.208 523.034 350.555C523.034 350.51 523.034 350.45 523.034 350.405C521.779 350.976 520.151 350.916 518.676 350.54V350.525Z" fill="#E6E6E6"/>
<path d="M523.527 342.337C524.002 342.021 524.731 333.607 524.442 330.422C524.426 330.227 524.392 330.017 524.375 329.821L522.781 331.098C522.051 331.098 521.322 331.219 520.593 331.369C518.982 331.714 517.371 332.3 515.726 332.556C515.353 332.616 514.929 332.676 514.709 332.946C514.488 333.217 514.522 333.592 514.59 333.923C514.794 334.96 515.235 335.921 515.353 336.973C515.489 338.115 515.574 337.048 515.76 338.19C515.879 339.001 516.608 340.459 517.439 341.826C517.507 341.931 517.558 342.111 517.609 342.352C519.44 343.118 522.815 342.802 523.561 342.322L523.527 342.337Z" fill="#4B5598"/>
<path d="M511.351 350.568C511.317 352.13 510.961 356.322 512.538 356.848C513.318 357.118 515.437 356.563 515.59 355.796C516.523 351.184 517.71 342.004 517.659 341.854C517.354 340.922 515.963 341.448 515.285 341.658C511.012 342.965 511.639 339.495 511.334 350.568H511.351Z" fill="white"/>
<path d="M511.502 351.755C511.502 351.755 511.384 351.68 511.316 351.635C511.248 353.528 511.248 356.413 512.554 356.848C513.334 357.119 515.453 356.563 515.606 355.797C515.793 354.88 515.979 353.783 516.183 352.611C514.622 352.912 512.927 352.611 511.519 351.755H511.502Z" fill="#E6E6E6"/>
<path d="M515.914 331.292C516.863 331.337 517.813 331.352 518.779 331.337C519.203 331.337 519.746 331.397 520.153 331.322C520.509 331.247 520.797 331.006 521.153 330.916C521.442 330.856 522.273 330.315 522.493 330.496C522.849 330.751 522.357 331.803 522.256 332.193C521.391 335.724 518.864 336.46 518.084 339.991C517.559 342.395 516.541 345.144 516.032 346.211C515.676 346.977 516.304 346.301 514.269 346.632C513.794 346.707 513.319 346.737 512.827 346.722C512.471 346.722 511.996 346.557 511.657 346.722C511.454 345.46 511.606 344.168 511.301 342.921C510.996 341.629 511.064 340.216 511.013 338.879C510.623 328.648 510.165 331.006 515.88 331.307L515.914 331.292Z" fill="white"/>
<path d="M518.828 339.961C519.608 336.43 521.388 335.724 522.253 332.193C522.355 331.803 522.846 330.751 522.49 330.495C522.253 330.33 511.163 328.888 510.824 330.36C510.603 331.292 510.501 338.458 510.484 339.45C510.468 341.163 509.688 342.395 515.199 342.62C519.014 342.77 518.539 341.208 518.811 339.961H518.828Z" fill="#5B68B7"/>
<path d="M509.691 316.268C509.657 316.599 509.725 317.26 510.098 317.47C510.404 317.651 511.065 317.59 511.421 317.621C512.506 317.711 513.591 317.771 514.677 317.831C515.169 317.861 515.66 317.891 516.152 317.906C517.593 317.951 519.035 317.861 520.425 317.651C520.968 317.575 521.884 317.455 522.308 317.14C522.732 316.824 522.782 316.313 522.698 315.788C522.562 314.871 522.053 313.97 521.07 313.624C520.086 313.278 519.103 313.429 518.136 313.534C515.881 313.789 513.642 314.18 511.455 314.676C511.065 314.766 510.675 314.871 510.336 315.066C509.963 315.307 509.725 315.773 509.691 316.253V316.268Z" fill="white"/>
<path d="M510.437 313.472C510.793 313.006 513.829 311.398 516.525 310.542C519.052 309.731 521.646 308.093 524.342 309.445C527.615 311.083 525.75 314.674 525.241 320.113C524.308 329.879 526.258 330.915 521.578 331.456C517.525 331.922 512.15 332.914 510.776 330.9C510.352 330.269 510.539 329.518 510.59 328.842C511.166 319.887 509.301 315.034 510.437 313.502V313.472Z" fill="#293896"/>
<path d="M515.83 308.604C515.729 308.018 521.138 305.809 521.138 306.681C521.138 309.265 521.647 308.889 521.731 309.836C521.816 310.707 520.901 312.315 517.39 311.864C514.728 311.518 516.153 310.482 515.847 308.589L515.83 308.604Z" fill="white"/>
<path d="M512.844 300.612C512.471 301.018 512.182 301.468 512.098 301.994C511.894 303.166 512.437 304.383 512.149 305.54C511.877 306.667 512.42 309.236 514.93 309.897C516.201 310.228 518.711 309.837 519.525 309.492C520.61 309.026 521.322 308.094 521.967 307.193C527.224 299.801 516.422 296.766 512.861 300.597L512.844 300.612Z" fill="white"/>
<path d="M522.105 298.163C521.155 296.345 513.813 295.699 511.829 300.011C511.676 300.341 511.642 300.702 511.541 301.048C511.303 301.769 512.083 302.024 512.253 302.129C512.779 302.445 512.88 303.181 513.118 303.677C513.27 303.992 513.559 304.158 513.626 304.503C513.711 304.879 513.728 306.246 514.44 305.855C515 305.54 514.898 304.473 515.288 304.548C517.204 304.879 514.78 309.732 520.155 308.68C521.393 308.44 521.868 308.214 522.987 306.802C524.072 305.42 524.191 305.029 524.377 303.872C525.208 298.584 522.529 298.944 522.122 298.148L522.105 298.163Z" fill="#D08A62"/>
<path d="M515.691 303.857C516.675 303.662 517.116 304.729 516.573 305.675C516.42 305.946 516.098 306.216 515.861 306.442C514.301 308.019 513.605 306.622 514.097 306.096C515.233 304.849 514.436 304.098 515.691 303.857Z" fill="white"/>
<path d="M515.676 305.555C515.778 305.45 516.812 304.699 515.964 304.398C515.727 304.308 515.524 304.519 515.524 304.714C515.524 304.819 515.574 304.924 515.574 305.029C515.574 305.36 515.1 305.51 515.235 305.766C515.32 305.946 515.608 305.615 515.676 305.555Z" fill="white"/>
<path d="M511.436 354.865C510.317 355.376 507.129 354.099 505.874 354.535C504.992 354.85 504.738 356.097 505.06 356.803C505.535 357.84 507.485 358.246 508.604 358.171C511.605 357.975 513.25 360.379 515.234 358.787C516.15 358.05 515.743 356.833 515.624 355.812C514.81 356.563 512.64 356.773 511.453 354.865H511.436Z" fill="#3C3C45"/>
<path d="M512.983 313.083C517.832 315.517 513.932 320.49 509.421 317.426C506.793 315.638 503.266 314.255 501.638 312.663C501.112 312.152 500.638 311.566 500.349 310.8C500.112 310.169 501.078 309.688 501.672 309.282C503.113 308.306 503.961 308.696 504.114 308.832C505.894 310.364 509.15 312.422 510.439 312.978C513.186 314.165 513.067 313.098 512.966 313.053L512.983 313.083Z" fill="white"/>
<path d="M513.5 313.013C513.603 313.078 512.22 312.497 508.722 310.853C507.561 311.352 506.623 312.401 506.077 313.513C505.821 314.078 505.599 314.674 505.445 315.287C506.896 316.223 508.483 317.174 509.848 318.158C514.388 321.447 518.381 315.626 513.5 312.997V313.013Z" fill="#293896"/>
<path d="M497.496 304.548C498.174 305.75 498.344 306.411 498.937 307.643C500.328 310.498 500.446 312.466 503.092 312.992C504.008 313.172 505.042 312.646 505.228 312.015C505.839 309.867 504.245 309.536 501.566 305.104C501.26 304.593 500.531 303.572 500.141 302.76C499.7 301.829 497.191 303.992 497.513 304.548H497.496Z" fill="white"/>
<path d="M500.262 302.114C500.347 301.543 500.262 300.972 500.025 300.447C499.669 299.725 499.092 300.071 498.431 299.966C497.837 299.861 497.583 298.809 497.397 298.358C496.566 296.39 496.006 297.066 496.362 298.298C496.43 298.538 496.667 298.974 496.65 299.23C496.616 299.575 496.26 299.47 495.972 299.53C495.786 299.56 495.582 299.62 495.514 299.801C495.429 299.996 495.599 300.041 495.65 300.206C495.701 300.372 495.786 300.221 495.616 300.371C495.531 300.447 495.362 300.417 495.26 300.537C494.955 300.882 495.413 300.987 495.497 301.258C495.565 301.453 495.345 301.679 495.413 301.904C495.48 302.129 495.65 302.37 495.786 302.565C495.921 302.76 496.125 302.851 496.311 303.001C496.481 303.136 496.532 303.301 496.667 303.467C497.007 303.917 497.38 304.293 497.634 304.789C497.719 304.969 497.804 305.149 497.939 305.315C498.431 305.9 500.347 304.548 500.11 304.037C499.889 303.542 500.025 303.181 500.161 302.7C500.211 302.505 500.245 302.31 500.279 302.114H500.262Z" fill="white"/>
<path d="M539.373 332.898C538.689 332.883 538.053 332.681 537.369 332.667C536.669 332.652 535.952 332.898 535.529 333.417C535.203 333.807 534.959 334.442 535.35 334.831C535.724 335.207 536.229 335.466 536.75 335.654C537.809 336.015 538.9 335.928 539.992 336.188C540.692 336.347 541.36 336.621 542.077 336.679C542.712 336.722 543.298 336.563 543.755 336.159C544.162 335.798 544.227 335.322 544.211 334.831C544.178 333.951 543.543 333.561 542.712 333.215C541.002 332.508 540.562 332.955 539.389 332.926L539.373 332.898Z" fill="#293896"/>
<path d="M554.473 299.242C554.261 298.78 553.903 298.29 553.366 298.131C552.828 297.972 552.209 297.972 551.704 298.203C549.358 299.285 549.375 301.999 548.023 306.444C547.697 307.526 546.638 310.196 547.616 311.134C548.055 311.553 549.033 311.942 549.701 311.87C552.404 311.61 554.506 303.384 554.636 300.974C554.669 300.382 554.734 299.805 554.489 299.242H554.473Z" fill="white"/>
<path d="M548.739 291.505C546.686 292.804 548.739 295.431 549.862 299.4C550.139 300.352 550.612 302.864 551.85 303.123C552.42 303.239 553.446 303.123 553.902 302.719C555.71 301.175 553.756 295.359 553.137 292.992C552.909 292.14 551.231 289.918 548.722 291.505H548.739Z" fill="white"/>
<path d="M550.058 326.259C548.103 325.696 546.475 324.556 545.188 325.971C544.732 326.476 544.943 327.111 545.334 327.529C546.637 328.987 548.69 329.377 550.091 329.911C552.257 330.748 553.739 328.669 551.703 327.053C551.149 326.62 550.775 326.461 550.058 326.259Z" fill="#293896"/>
<path d="M550.549 315.506C550.858 315.795 551.722 316.444 552.194 321.568C552.259 322.318 552.455 327.225 551.363 328.437C550.972 328.885 550.419 328.885 550.19 328.841C549.262 328.639 549.067 327.99 548.953 327.384C548.513 325.075 548.171 321.481 547.975 319.663C547.829 318.349 550.223 315.217 550.549 315.521V315.506Z" fill="white"/>
<path d="M538.575 319.895C537.973 323.762 539.976 333.374 541.117 334.442C541.915 335.193 543.706 334.76 543.56 334.009C543.218 332.234 544.342 328.121 544.244 325.768C544.114 322.709 543.446 320.645 543.413 320.558C543.136 319.649 538.641 319.404 538.575 319.895Z" fill="white"/>
<path d="M551.28 302.719C551.459 301.073 551.866 299.442 552.111 297.812C552.355 296.21 552.567 294.42 552.111 292.847C551.981 292.385 551.785 291.938 551.41 291.591C550.824 291.029 549.863 290.87 549.016 291C548.169 291.115 547.387 291.476 546.621 291.822C545.628 292.284 544.716 292.76 543.641 292.991C542.647 293.208 541.523 293.843 540.774 294.449C538.086 296.599 538.086 298.216 538.086 301.881C538.086 303.859 538.037 305.836 537.891 307.813C537.711 310.339 537.418 311.508 537.011 314.019C536.588 316.602 536.148 319.474 539.031 321.076C542.452 322.981 548.153 321.783 551.834 319.272C554.098 317.742 553.43 317.973 553.381 315.476C553.251 309.357 550.889 306.399 551.296 302.733L551.28 302.719Z" fill="#293896"/>
<path d="M541.065 290.452C540.43 289.904 548.085 286.296 548.02 287.465C547.857 290.9 548.411 290.871 548.444 292.127C548.476 293.281 547.515 294.436 543.671 294.104C540.983 293.873 543.264 292.329 541.065 290.452Z" fill="white"/>
<path d="M538.802 282.501C538.46 282.92 538.216 283.396 538.167 283.93C538.069 285.113 538.688 286.297 538.493 287.48C538.297 288.635 539.063 291.16 541.636 291.665C542.939 291.925 545.415 291.377 546.197 290.973C547.24 290.439 547.891 289.472 548.461 288.519C553.136 280.784 542.06 278.417 538.802 282.487V282.501Z" fill="white"/>
<path d="M548.803 280.828C547.842 279.01 540.479 278.346 538.476 282.69C538.313 283.022 538.297 283.383 538.183 283.729C538.085 284.032 538.183 284.292 538.394 284.508C538.671 284.783 538.769 284.941 538.883 285.317C539.111 286.11 539.192 286.933 539.111 287.741C539.062 288.145 539.046 288.65 539.437 288.852C539.697 288.982 540.023 288.896 540.333 288.896C540.854 288.896 541.343 289.127 541.701 289.473C542.141 289.892 542.271 290.469 542.727 290.858C543.2 291.248 543.77 291.479 544.421 291.537C545.138 291.609 545.806 291.45 546.522 291.392C546.946 291.364 547.337 291.306 547.728 291.162C548.591 290.858 549.161 290.166 549.682 289.502C550.774 288.116 550.888 287.712 551.067 286.558C551.898 281.247 549.226 281.622 548.803 280.814V280.828Z" fill="#221A19"/>
<path d="M540.775 287.97C541.769 287.782 542.208 288.85 541.655 289.788C541.492 290.063 541.182 290.337 540.954 290.568C540.628 290.9 539.847 290.654 539.684 289.832C539.635 289.557 539.749 289.399 539.83 289.153C539.895 288.966 539.928 288.793 539.977 288.605C540.091 288.244 540.368 288.056 540.775 287.984V287.97Z" fill="white"/>
<path d="M552.647 297.626C552.696 296.962 552.566 296.284 552.354 295.649C552.044 294.682 551.621 293.744 551.507 292.748C551.36 291.478 551.768 290.222 552.093 288.996C552.435 287.754 552.696 286.456 552.338 285.229C552.012 284.146 551.067 283.165 549.797 282.934C548.998 282.79 548.298 282.703 547.744 283.338C546.913 284.32 546.751 286.181 547.109 287.336C547.37 288.144 547.793 288.909 548.037 289.732C548.168 290.208 548.249 290.699 548.184 291.189C548.135 291.593 547.94 291.969 547.94 292.373C547.94 293.354 548.51 294.162 549.031 294.971C549.601 295.865 549.683 296.775 549.487 297.785C549.308 298.781 548.95 299.762 549.015 300.758C549.064 301.768 549.666 302.836 550.741 303.139C550.204 302.244 550.497 301.147 551.1 300.354C551.539 299.762 552.11 299.228 552.403 298.579C552.549 298.261 552.615 297.944 552.647 297.612V297.626Z" fill="black"/>
<path d="M542.827 296.426C542.615 295.964 542.257 295.473 541.719 295.314C541.182 295.156 540.563 295.156 540.058 295.387C537.712 296.469 536.719 302.805 536.409 305.143C536.344 305.706 537.354 307.293 538.543 307.409C539.7 307.524 541.003 306.196 541.117 305.936C541.214 305.691 542.892 299.774 542.974 298.158C543.006 297.566 543.071 296.989 542.827 296.426Z" fill="white"/>
<path d="M537.598 304.104C536.376 304.206 536.278 306.111 533.183 309.69C532.613 310.339 532.076 311.118 531.196 311.45C530.838 311.58 530.447 311.638 530.121 311.84C528.932 312.605 528.264 313.76 528.183 314.092C527.89 315.217 527.662 315.347 527.841 315.65C528.281 316.458 528.671 315.722 528.916 315.766C529.193 315.809 529.062 315.997 529.6 316.386C530.04 316.704 530.072 316.314 530.284 316.328C530.447 316.328 530.463 316.531 530.659 316.502C530.724 316.502 530.773 316.43 530.854 316.43C531.033 316.43 530.984 316.588 531.506 316.502C531.994 316.415 531.327 315.477 532.125 314.77C532.516 314.423 532.874 313.659 533.623 313.226C538.885 310.137 541.116 305.995 541.116 305.995C541.116 305.995 539.145 306.616 538.673 306.327C538.135 305.995 538.266 304.076 537.614 304.133L537.598 304.104Z" fill="white"/>
<g opacity="0.26" style="mix-blend-mode:multiply">
<path d="M121.215 212.632C123.492 215.269 129.123 216.162 136.432 214.718C140.536 213.909 144.12 214.885 145.144 216.421C147.333 219.717 152.531 215.077 156.574 216.671C160.617 218.265 159.875 222.48 161.058 226.169C162.135 229.54 170.485 230.934 175.56 224.817C179.161 220.477 178.5 218.741 169.417 217.331C160.334 215.92 157.448 215.202 156.177 213.283C154.915 211.363 151.349 208.634 147.43 210.337C145.708 211.088 137.765 210.562 136.282 208.634C134.799 206.706 126.696 206.372 122.353 207.9C118.487 209.26 120.464 211.756 121.215 212.623V212.632Z" fill="#0E1A68"/>
</g>
<path d="M144.821 200.239C145.236 200.623 147.355 201.591 148.634 200.857C149.923 200.122 148.034 198.67 148.034 198.67L144.812 200.239H144.821Z" fill="#5B68B7"/>
<path d="M128.4 146.817C128.338 146.441 127.615 138.496 127.615 138.496C127.615 138.496 125.487 138.796 123.89 140.633C122.054 142.752 122.275 144.989 123.298 147.585C124.013 149.404 124.137 150.623 123.766 151.541C123.484 152.242 124.137 153.001 124.137 153.001C124.622 153.435 125.443 154.846 124.799 155.922C124.155 156.99 120.915 158.059 123.025 159.936C125.134 161.814 126.035 162.106 125.567 163.35C126.9 162.599 127.544 161.873 126.441 160.429C125.337 158.985 122.469 158.868 124.305 158.376C126.141 157.883 127.147 159.127 128.065 158.059C128.983 156.99 130.342 149.963 130.342 149.963L128.391 146.817H128.4Z" fill="#FFB21A"/>
<path d="M118.27 176.293L119.541 177.687C119.541 177.687 125.825 171.569 127.211 169.049C128.147 167.346 130.053 161.037 130.053 161.037C131.112 159.251 132.807 155.846 130.6 155.186C127.211 154.168 126.222 157.506 126.222 157.506C126.222 157.506 124.492 165.118 123.521 167.263C122.409 169.725 118.27 176.293 118.27 176.293Z" fill="white"/>
<path d="M122.399 210.772C122.399 210.772 124.747 208.953 125.929 207.442C127.492 205.464 126.883 202.034 126.883 202.034C126.883 202.034 126.521 195.232 125.982 192.712C125.876 190.517 125.311 179.142 125.311 179.142C125.311 179.142 125.144 177.205 126.15 177.314L134.482 178.24C134.403 178.983 133.829 180.11 133.662 180.494C133.414 181.036 134.915 181.687 134.818 183.098L131.684 192.086C131.684 192.086 132.267 193.321 132.302 195.099C132.338 196.876 130.652 206.825 130.652 206.825L131.225 208.385L126.591 211.54C126.591 211.54 124.623 213.368 122.611 212.275C121.428 211.632 122.258 210.889 122.399 210.764V210.772Z" fill="white"/>
<path d="M131.437 208.16C131.455 206.507 131.579 204.721 131.879 203.069C132.029 202.293 132.152 201.717 132.179 200.774C132.223 200.173 131.79 200.181 131.685 200.298C131.499 200.615 131.358 200.815 131.067 201.041C130.228 201.667 126.574 202.309 126.795 200.465C125.912 200.907 126.494 202.401 126.636 203.119C127.051 205.289 126.486 206.19 125.056 207.767C124.509 208.368 123.944 209.069 123.273 209.587C122.69 210.037 121.163 210.188 121.216 211.139C121.296 212.549 124.111 213.125 125.241 213C126.768 212.833 127.474 211.581 128.701 210.705C130.158 209.679 131.42 209.896 131.437 208.143V208.16Z" fill="#5B68B7"/>
<path d="M130.026 211.89C130.026 211.89 132.153 209.845 133.16 208.226C134.484 206.098 133.495 202.76 133.495 202.76C133.495 202.76 132.065 195.732 131.244 193.295C130.9 189.882 129.355 180.159 129.355 180.159C129.355 180.159 128.976 178.248 129.982 178.265L138.367 178.34C138.367 179.083 137.935 180.268 137.802 180.66C137.617 181.219 139.179 181.72 139.241 183.13L137.061 192.261C137.061 192.261 137.864 193.546 138.094 195.307C138.332 197.068 137.767 207.133 137.767 207.133L138.509 208.627L134.263 212.232C134.263 212.232 132.506 214.243 130.388 213.359C129.143 212.841 129.876 212.015 130.009 211.882L130.026 211.89Z" fill="white"/>
<path d="M138.731 208.375C138.564 206.723 138.352 204.912 138.722 203.276C138.873 202.617 138.881 201.924 138.802 200.989C138.775 200.388 138.193 200.296 138.096 200.422C138.043 200.831 137.831 201.089 137.566 201.34C136.807 202.049 133.179 203.101 133.188 201.248C132.35 201.774 133.171 203.159 133.391 203.86C134.053 205.98 133.585 206.931 132.341 208.634C131.864 209.285 131.379 210.044 130.77 210.62C130.24 211.129 128.74 211.43 128.898 212.373C129.137 213.767 132.005 214.059 133.109 213.817C134.6 213.491 135.165 212.181 136.286 211.188C137.619 210.019 138.899 210.111 138.722 208.367L138.731 208.375Z" fill="#5B68B7"/>
<path d="M140.538 188.78C141.747 181.319 134.191 173.708 135.4 169.126C136.213 166.539 139.505 159.361 137.607 157.333C136.363 156.006 134.05 154.395 132.841 153.669C132.541 153.486 131.543 153.911 130.74 153.703C130.74 153.703 127.792 153.11 126.071 154.153L123.687 161.322C121.869 166.272 126.159 166.58 126.15 170.653C126.15 170.653 124.049 186.836 124.976 189.122C124.976 189.122 127.589 190.791 132.788 190.791C137.987 190.791 140.546 188.78 140.546 188.78H140.538Z" fill="#293896"/>
<path d="M135.297 157.625C132.711 158.693 134.926 161.873 134.926 161.873L139.401 168.541C139.657 168.917 139.746 169.376 139.657 169.81L137.919 178.13L140.787 178.723L144.044 168.892C144.177 168.491 144.177 168.04 143.974 167.665C142.491 165.044 138.96 156.114 135.306 157.616L135.297 157.625Z" fill="white"/>
<path d="M139.83 178.214L139.31 177.922L138.436 177.83C138.224 177.805 138.021 177.905 137.915 178.072L136.671 180.025C136.582 180.167 136.52 180.325 136.494 180.484C136.406 181.001 136.291 182.145 136.953 182.729C138.542 184.139 139.371 183.73 139.371 183.73C139.389 183.655 139.239 181.694 139.38 181.41C139.46 181.268 139.963 179.958 139.963 179.958C140.272 179.165 140.334 178.673 139.822 178.214H139.83Z" fill="white"/>
<path d="M138.895 178.921C138.657 179.53 139.363 180.24 139.954 180.44C140.149 180.515 139.831 181.7 139.963 182.226C140.104 182.785 140.696 182.685 140.828 182.576C140.934 182.501 141.049 180.64 141.093 180.173C141.252 178.62 140.669 178.353 140.078 178.145C139.495 177.936 139.125 178.303 138.886 178.913L138.895 178.921Z" fill="white"/>
<path d="M128.392 155.048C126.918 157.944 127.289 159.504 127.845 159.571C129.751 159.771 133.67 156.692 133.547 155.114L132.708 148.479L127.818 148.989L128.392 155.048Z" fill="white"/>
<path d="M126.396 142.919C123.465 143.528 123.942 145.848 124.215 147.4C124.41 148.485 125.028 150.472 125.028 150.472C125.76 152.416 126.74 153.418 127.932 153.559C129.423 153.735 131.127 152.466 132.336 150.405C133.413 148.577 133.378 147.517 133.36 147.275L133.06 141.091C133.06 141.091 127.958 142.61 126.396 142.927V142.919Z" fill="white"/>
<path d="M131.74 150.046C128.756 147.033 129.418 145.038 128.386 143.979C127.512 143.077 127.777 143.636 127.088 143.211C126.223 142.685 124.829 141.617 126.082 139.639C126.806 138.487 128.465 138.27 128.465 138.27C128.465 138.27 135.12 137.277 136.497 143.57C136.877 145.297 136.859 145.523 136.912 146.941C136.956 148.11 138.748 155.604 134.661 157.858C130.584 160.111 131.29 162.84 132.102 164.317C132.914 165.786 133.373 167.046 132.508 167.781C131.634 168.515 130.831 169.517 132.102 170.168C130.945 170.51 130.31 169.458 131.457 168.123C132.596 166.788 132.261 165.853 130.584 164.877C128.907 163.9 126.453 161.538 128.889 159.327C131.316 157.115 132.181 156.18 131.493 154.569C130.804 152.959 133.373 151.682 131.74 150.029V150.046Z" fill="#FFB21A"/>
<path d="M128.756 141.702L132.101 147.944C132.101 147.944 126.064 148.963 124.625 142.636C124.563 142.361 123.91 145.257 124.06 146.267C124.069 146.342 123.76 145.098 123.69 144.673C123.284 142.102 125.755 140.884 125.755 140.884L128.756 141.693V141.702Z" fill="#FFB21A"/>
<path d="M158.642 178.605C158.872 179.665 159.702 180.959 160.752 181.393C161.034 181.393 161.29 181.393 161.423 181.401C159.869 180.35 163.824 169.642 159.834 167.614C157.777 166.562 155.968 168.115 155.359 169.158C155.359 169.158 153.991 170.485 156.118 170.159C158.236 169.834 157.901 171.845 157.954 173.014C158.007 174.182 156.886 176.461 156.886 177.788C156.886 180.475 159.499 181.393 159.499 181.393C159.499 181.393 159.666 181.393 159.905 181.393C159.146 180.75 158.272 179.841 158.651 178.605H158.642Z" fill="#082633"/>
<path d="M156.696 170.594C156.696 171.387 156.017 172.029 155.178 172.029C154.34 172.029 153.66 171.387 153.66 170.594C153.66 169.801 154.34 169.158 155.178 169.158C156.017 169.158 156.696 169.801 156.696 170.594Z" fill="#5B68B7"/>
<path d="M141.747 181.321C141.747 181.321 141.58 180.395 140 179.785C138.42 179.185 137.784 179.635 137.352 179.977C136.919 180.32 137.043 180.82 137.422 180.937C137.802 181.054 139.011 180.912 139.505 181.38C140.008 181.839 140.723 182.69 140.909 182.623C141.103 182.548 141.739 181.321 141.739 181.321H141.747Z" fill="white"/>
<path d="M148.904 181.061C147.818 180.477 145.674 183.54 144.12 185.117C143.087 183.757 141.922 181.12 141.551 181.086C141.093 181.036 140.13 181.779 140.722 182.53C140.978 182.856 141.649 187.688 144.111 188.673C146.848 189.766 149.628 182.572 149.628 182.572C149.628 182.572 150.158 181.737 148.895 181.07L148.904 181.061Z" fill="white"/>
<path d="M150.715 202.468C151.112 200.415 152.498 198.479 152.586 197.102C152.674 195.733 150.574 194.097 149.523 194.03C148.473 193.964 147.396 194.481 147.396 194.481L147.325 197.152C147.325 197.152 146.195 203.136 146.39 203.92C146.707 204.671 148.72 209.52 149.161 210.255C149.603 210.989 153.16 211.565 152.277 209.128C151.518 207.008 151.853 203.67 150.724 202.468H150.715Z" fill="white"/>
<path d="M148.883 210.034C148.786 210.502 147.012 212.596 147.012 212.596C147.012 212.596 145.909 213.439 145.538 213.807C145.114 214.215 145.203 214.483 145.229 214.733C145.247 214.9 145.317 215.042 145.45 215.142C145.794 215.392 146.429 215.534 146.941 215.567C148.451 215.659 149.792 214.574 149.792 214.574C150.013 214.391 153.641 212.112 153.641 212.112C153.641 212.112 153.65 211.612 153.597 211.319L152.882 209.508C152.882 209.508 152.767 208.916 152.608 208.782C152.476 208.665 152.167 208.599 152.096 208.64C152.123 208.791 152.176 208.991 152.176 208.991C152.176 208.991 151.672 210.101 150.604 210.159C149.536 210.218 148.733 209.575 148.874 210.034H148.883Z" fill="#5B68B7"/>
<path d="M153.677 212.145L153.651 211.594C153.651 211.594 153.624 211.711 153.395 211.919C152.936 212.245 151.797 213.046 151.797 213.046C151.523 213.238 150.508 213.88 149.731 214.373C149.731 214.373 148.425 215.149 147.269 215.216C146.757 215.249 145.627 215.182 145.256 214.79C145.239 214.773 145.318 215.116 145.371 215.249C145.565 215.7 146.298 215.733 146.801 215.833C148.478 216.167 149.837 215.224 149.837 215.224C150.023 215.066 152.15 213.472 152.98 212.829C153.156 212.704 153.324 212.587 153.421 212.512C153.695 212.303 153.677 212.145 153.677 212.145Z" fill="#0E1A68"/>
<path d="M155.598 195.372L153.4 197.041C153.4 197.041 147.831 200.079 147.319 200.722C147.151 201.515 145.977 206.614 145.915 207.448C145.854 208.291 147.954 210.445 149.172 208.141C150.126 206.338 151.141 203.851 151.291 202.917C153.206 201.882 155.66 201.631 156.834 200.813C157.999 199.996 157.964 197.417 157.346 196.616C156.719 195.814 155.607 195.372 155.607 195.372H155.598Z" fill="white"/>
<path d="M145.835 207.125C145.482 207.459 142.781 208.276 142.781 208.276C142.781 208.276 141.368 208.402 140.848 208.51C140.256 208.627 140.177 208.902 140.053 209.119C139.974 209.27 139.947 209.42 140 209.578C140.133 209.962 140.583 210.413 140.989 210.713C142.198 211.581 143.946 211.381 143.946 211.381C144.237 211.348 148.597 211.348 148.597 211.348C148.597 211.348 148.898 210.939 149.03 210.672L149.489 208.794C149.489 208.794 149.736 208.243 149.683 208.051C149.639 207.884 149.48 207.717 149.401 207.726C149.33 207.867 149.198 208.001 149.198 208.001C149.198 208.001 148.13 208.66 147.212 208.151C146.285 207.642 146.002 206.682 145.843 207.141L145.835 207.125Z" fill="#5B68B7"/>
<path d="M148.581 211.395L148.881 210.919C148.881 210.919 148.793 211.003 148.475 211.053C147.901 211.086 146.48 211.153 146.48 211.153C146.145 211.17 144.918 211.17 143.982 211.178C143.982 211.178 142.438 211.137 141.44 210.586C140.999 210.344 140.099 209.701 140.01 209.175C140.01 209.15 139.869 209.476 139.843 209.618C139.746 210.102 140.337 210.511 140.69 210.853C141.89 212.004 143.576 211.938 143.576 211.938C143.823 211.904 146.524 211.687 147.592 211.587C147.813 211.579 148.025 211.562 148.149 211.554C148.493 211.52 148.581 211.387 148.581 211.387V211.395Z" fill="#0E1A68"/>
<path d="M146.714 195.523C146.449 197.768 145.531 199.855 144.816 200.239C145.796 200.422 147.429 199.17 148.329 199.972C149.274 199.387 149.848 199.045 149.848 199.045C149.848 199.045 152.902 199.112 152.46 202.759C153.555 204.161 157.297 203.827 157.915 203.176C157.483 201.223 159.433 198.853 157.518 195.907C155.603 192.961 146.714 195.523 146.714 195.523Z" fill="#293896"/>
<path d="M148.225 181.152C146.574 181.845 146.733 183.881 146.645 186.735C146.645 186.735 146.574 194.505 146.645 195.765C147.165 197.034 148.666 197.902 150.458 198.061C155.745 198.528 156.892 197.985 157.81 196.875C158.208 195.674 157.413 190.524 157.413 190.382C157.466 186.46 157.537 183.764 157.537 183.764C156.23 180.576 152.426 180.751 152.426 180.751C152.426 180.751 149.407 180.651 148.216 181.152H148.225Z" fill="#5B68B7"/>
<path d="M150.16 180.986C151.237 182.413 154.309 181.62 153.929 180.427C153.391 178.733 153.497 176.863 153.497 176.863L150.884 177.422L150.16 180.986Z" fill="white"/>
<path d="M157.152 182.721C157.152 182.721 155.634 181.453 154.266 183.247C152.995 184.916 156.163 190.792 156.163 190.792C156.163 190.792 159.456 190.575 159.164 189.59C158.882 188.613 158.026 183.79 157.152 182.721Z" fill="white"/>
<path d="M156.161 190.79C156.161 190.79 156.938 192.401 157.812 192.25C158.686 192.109 160.045 189.129 160.045 189.129L159.268 188.161L156.152 190.782L156.161 190.79Z" fill="white"/>
<path d="M148.774 171.68C148.774 171.68 148.421 171.329 147.671 171.572C147.309 171.688 147.203 171.78 147.203 171.78L147.75 172.114C147.75 172.114 147.953 171.738 148.765 171.688L148.774 171.68Z" fill="#293896"/>
<path d="M151.007 172.056L154.273 172.665L153.461 177.907C153.337 178.282 153.169 179.133 151.889 179.885C151.889 179.885 151.245 180.335 150.442 180.586C149.233 180.961 148.297 180.419 147.962 179.993C147.626 179.592 146.955 178.75 146.823 177.189L146.664 173.074L147.194 171.33L151.024 172.065L151.007 172.056Z" fill="white"/>
<path d="M149.179 169.601C145.948 170.686 146.275 172.221 146.275 172.263C146.195 172.956 146.663 173.757 146.646 173.765C146.628 173.774 146.787 172.238 146.813 172.355C147.59 175.301 151.359 175.309 151.403 175.318C151.421 175.318 151.138 174.642 151.103 174.55C151.085 174.5 151.465 174.408 151.677 174.834C151.695 174.875 151.809 175.234 151.924 175.735C151.977 175.952 152.303 176.595 152.348 176.528C152.348 176.528 152.63 175.276 153.619 175.96C154.139 176.319 153.477 177.463 153.425 177.529L153.672 179.391C153.689 179.482 153.795 178.957 154.466 178.13C155.19 177.237 155.622 176.686 155.878 176.369C158.562 173.048 155.419 169.117 151.456 169.159C150.697 169.167 149.179 169.601 149.179 169.601Z" fill="#082633"/>
<path d="M153.529 175.301C152.54 175.101 152.205 176.537 152.205 176.537C152.205 176.537 152.081 177.855 152.381 177.972C152.84 178.156 153.088 178.214 153.396 177.822C153.414 177.797 154.059 176.954 154.085 176.92C154.579 176.278 154.323 175.46 153.529 175.301Z" fill="white"/>
<path d="M150.16 174.619C150.416 175.311 152.146 180.027 151.06 181.888C152.323 181.888 152.914 179.518 152.243 176.329C151.572 173.141 151.246 173.191 151.246 173.191C151.246 173.191 150.743 174.11 150.743 174.251C150.743 174.393 150.178 174.619 150.178 174.619H150.16Z" fill="#082633"/>
<path d="M147.446 173.634C146.96 174.477 146.466 177.331 147.296 179.009C146.431 177.841 143.968 172.408 147.605 170.313C151.241 168.218 147.455 173.634 147.455 173.634H147.446Z" fill="#082633"/>
<path d="M148.906 174.025C149.277 174.509 150.168 176.596 149.083 176.896C150.168 176.746 151.025 176.153 150.733 174.718C150.442 173.282 148.906 174.025 148.906 174.025Z" fill="#082633"/>
<path d="M157.809 183.938C157.809 183.938 156.997 186.1 156.926 186.659C156.856 187.218 157.676 188.904 157.941 189.238C158.162 189.521 160.166 189.788 160.854 189.864C160.916 189.864 160.978 189.847 161.013 189.805C161.057 189.763 161.075 189.705 161.057 189.647C161.022 189.471 160.933 189.238 160.704 189.087C160.404 188.879 159.795 188.745 159.459 188.703C159.353 188.687 159.274 188.612 159.256 188.512C159.195 187.911 159.106 187.318 158.948 186.834C158.912 186.734 158.965 186.625 159.062 186.575C159.733 186.25 160.589 185.365 160.589 185.365L157.8 183.93L157.809 183.938Z" fill="white"/>
<path d="M161.607 189.647C161.36 188.812 160.813 188.153 160.486 187.886C160.062 187.544 159.48 187.61 159.18 187.794C159.215 188.036 159.25 188.278 159.277 188.528C159.286 188.629 159.374 188.712 159.48 188.72C159.48 188.72 159.568 189.179 159.674 189.471C159.78 189.764 159.983 189.839 160.142 190.106C160.354 190.456 160.018 191.049 160.186 191.116C160.654 191.299 161.395 190.899 161.519 190.698C161.563 190.623 161.792 190.248 161.607 189.647Z" fill="white"/>
<path d="M159.461 185.691C159.24 186.217 159.787 186.776 160.185 187.043C160.335 187.144 160.414 187.227 160.202 187.795C160.061 188.178 160.22 188.788 160.688 188.729C160.688 188.729 160.811 188.412 161.094 187.753C161.111 187.703 161.465 187.252 161.332 186.76C160.97 185.474 160.679 185.274 160.335 185.099C160.035 184.94 159.673 185.174 159.452 185.691H159.461Z" fill="white"/>
<path d="M159.311 185.425C160.131 185.684 162.241 184.682 162.241 184.682C162.241 184.682 162.338 184.498 162.515 184.181C163.503 182.387 167.034 176.261 167.943 173.891C168.932 171.287 170.37 166.513 170.37 166.513C170.37 166.513 172.445 161.03 169.717 159.428C168.164 158.51 164.139 159.002 163.133 163.434C162.744 165.136 161.923 172.572 161.923 172.572L157.81 182.746C157.81 182.746 157.704 184.916 159.311 185.425Z" fill="#5B68B7"/>
<path d="M170.992 215.035C170.277 216.679 170.242 216.545 169.412 217.321C168.344 218.331 164.672 220.226 164.328 220.434C164.099 220.568 163.745 220.952 163.851 221.386C163.896 221.561 163.931 221.661 164.081 221.795C164.61 222.262 165.511 222.279 166.314 222.321C168.9 222.462 171.628 220.86 171.628 220.86C171.99 220.593 174.311 219.708 174.47 219.525C174.47 219.525 175.202 219.349 175.423 219.617C175.503 219.717 175.538 220.234 175.547 220.326L177.568 219.041C177.665 218.966 177.665 217.914 177.621 217.455L177.347 214.4L170.975 215.026L170.992 215.035Z" fill="#5B68B7"/>
<path d="M164.007 221.57C164.678 222.087 165.534 222.12 166.338 222.154C169.824 222.312 172.419 220.251 172.419 220.251C173.116 219.809 174.008 219.483 174.334 219.441C174.334 219.441 175.341 219.066 175.438 219.617C175.455 219.733 175.491 219.633 175.5 219.775C175.491 219.709 175.429 219.65 175.455 219.633C175.526 219.558 175.553 220.343 175.553 220.343C175.244 220.126 174.502 219.375 172.816 220.259C172.816 220.259 170.151 222.655 166.911 222.629C166.108 222.629 164.678 222.538 164.06 221.937C163.954 221.837 163.795 221.561 163.84 221.336C163.857 221.361 163.972 221.553 163.999 221.578L164.007 221.57Z" fill="#0E1A68"/>
<path d="M175.441 219.502L177.657 218.133C177.657 218.133 177.657 219.051 177.613 219.043L175.565 220.336C175.565 220.269 175.477 219.685 175.441 219.502Z" fill="#0E1A68"/>
<path d="M167.142 186.116L168.192 203L170.381 215.544C170.337 216.837 172.72 217.914 173.303 218.047C174.238 218.256 176.886 218.531 177.531 215.752L176.03 205.929L175.88 187.802L167.133 186.125L167.142 186.116Z" fill="#0E1A68"/>
<path d="M172.172 223.549L174.255 224.242L174.017 222.598L172.172 223.549Z" fill="#0E1A68"/>
<path d="M169.227 219.45L165.749 223.105C165.749 223.105 163.984 224.875 163.313 225.375C163.013 225.601 162.836 226.035 162.872 226.427C162.889 226.686 162.995 226.919 163.207 227.078C163.737 227.487 164.743 227.721 165.546 227.787C167.929 227.979 170.083 226.31 170.083 226.31C170.436 226.026 172.81 224.09 172.978 223.915C173.464 223.431 173.931 223.205 174.17 223.456C174.17 223.456 174.249 224.14 174.267 224.249L176.244 222.529C176.244 222.529 176.279 221.737 176.209 221.286L175.759 218.248L169.236 219.458L169.227 219.45Z" fill="#5B68B7"/>
<path d="M162.888 226.527C163.462 227.162 164.715 227.362 165.518 227.454C168.343 227.779 170.108 225.985 170.108 225.985C170.788 225.451 172.694 223.907 172.888 223.773C172.888 223.773 173.974 222.763 174.133 223.423C174.159 223.531 174.186 223.548 174.204 223.681C174.186 223.615 174.142 223.573 174.124 223.548C173.912 223.13 172.818 224.132 172.818 224.132C172.668 224.324 170.514 226.168 170.161 226.452C170.161 226.452 168.184 228.355 165.492 227.971C164.688 227.854 163.673 227.696 163.1 227.07C162.941 226.895 162.861 226.511 162.888 226.536V226.527Z" fill="#0E1A68"/>
<path d="M174.133 223.422C174.133 223.422 175.095 222.737 175.421 222.52C176.189 222.011 176.242 221.711 176.242 221.711C176.242 221.711 176.304 222.587 176.269 222.579C176.269 222.579 176.269 222.821 175.845 223.146C175.457 223.447 174.256 224.223 174.256 224.223L174.133 223.414V223.422Z" fill="#0E1A68"/>
<path d="M173.666 204.786C174.998 200.847 182.051 194.988 180.48 190.724C178.909 186.459 172.536 185.591 172.536 185.591C172.536 185.591 168.467 197 165.969 204.085C166.357 206.238 166.675 207.999 166.86 208.967C168.396 217.096 168.484 220.309 168.484 220.309C168.634 221.227 169.914 222.054 171.547 222.087C174.442 222.145 175.722 221.086 175.722 221.086C176.075 220.827 176.013 220.585 175.996 220.268C175.996 220.268 176.022 214.734 175.06 210.386C174.61 208.308 174.063 206.547 173.657 204.795L173.666 204.786Z" fill="#0E1A68"/>
<path d="M165.384 160.121C163.875 162.8 163.566 166.514 163.981 170.679C164.396 174.843 166.717 189.298 167.132 189.874C168.218 190.158 169.639 191.393 171.113 189.874C175.941 188.681 180.496 191.218 180.602 192.954C181.634 193.304 182.023 187.387 181.987 187.638C181.987 187.638 181.484 184.024 181.175 179.968C180.937 176.78 181.52 170.262 181.784 167.608C181.899 166.473 181.511 165.346 180.725 164.486C178.616 162.183 174.67 160.639 174.67 160.639L170.486 159.228C170.486 159.228 166.399 158.294 165.376 160.113L165.384 160.121Z" fill="#293896"/>
<path d="M168.147 165.136C167.309 163.993 167.573 160.679 169.48 159.127C170.071 159.152 170.504 159.235 170.504 159.235L173.523 160.045C173.523 160.045 176.144 161.046 177.353 161.923C176.753 161.939 175.447 162.774 173.426 164.594C171.537 166.296 169.295 166.713 168.138 165.128L168.147 165.136Z" fill="white"/>
<path d="M167.637 189.607L165.863 188.33L165.819 188.363C165.263 187.946 164.521 187.628 163.012 188.605C162.5 188.93 161.811 190.992 161.758 191.142C161.591 191.584 162.173 191.785 162.703 191.267C162.994 190.984 163.365 190.182 163.471 190.249C163.683 190.391 160.823 195.248 161.088 195.365C161.723 195.649 163.25 193.295 163.25 193.295C165.236 194.514 166.49 193.27 166.49 193.27L167.513 191.918C168.105 191.217 168.467 190.182 167.655 189.607H167.637Z" fill="white"/>
<path d="M168.551 162.324C170.969 164.435 172.893 162.224 174.341 160.471L174.376 154.337L169.089 155.989L168.551 162.315V162.324Z" fill="white"/>
<path d="M172.532 150.796C171.208 150.796 171.066 151.989 171.066 151.989V154.501C171.066 154.501 171.128 155.044 171.622 155.144C172.373 155.286 172.699 154.668 173.035 153.984C173.061 153.942 173.485 152.932 173.511 152.882C173.873 152.023 173.785 150.796 172.532 150.796Z" fill="white"/>
<path d="M165.995 148.811L171.856 147.033L173.162 154.661C173.268 155.254 173.198 157.165 173.242 157.674C173.286 158.233 173.18 158.801 172.633 159.477C172.403 159.761 171.309 161.622 169.164 161.897C167.787 162.072 166.472 161.522 165.801 160.629C164.53 158.884 164.662 158.943 162.323 153.701L161.176 150.622L165.986 148.811H165.995Z" fill="white"/>
<path d="M162.896 147.708C161.996 148.551 161.687 149.11 161.034 150.396C160.275 151.906 163.046 155.22 163.029 155.245C163.02 155.27 162.676 152.874 162.64 152.19C162.587 151.264 163.629 151.214 164.159 151.422C164.935 151.731 166.312 152.474 166.356 152.482C167.01 152.641 167.292 152.432 167.222 152.031C167.204 151.948 166.674 151.063 166.674 151.063C166.763 151.097 167.504 151.155 167.91 151.264C169.075 151.564 169.349 155.295 169.349 155.295C169.463 155.67 169.799 156.054 170.214 156.037C170.637 156.021 170.884 155.595 170.884 155.153C170.884 155.153 171.07 152.616 171.926 152.699C172.915 152.791 172.897 154.877 172.87 155.002L173.25 157.924C173.638 157.932 175.086 157.406 175.36 156.346C175.889 154.335 177.046 148.985 175.598 147.9C174.177 144.337 169.852 142.676 165.527 145.263C164.476 145.897 162.888 147.7 162.888 147.7L162.896 147.708Z" fill="#082633"/>
<path d="M171.724 152.748C170.453 153.082 170.754 154.743 170.754 154.743L171.354 156.696C171.354 156.696 171.566 157.205 172.078 157.172C172.845 157.121 172.978 156.437 173.11 155.703C173.119 155.661 173.251 154.584 173.26 154.517C173.375 153.599 172.934 152.439 171.733 152.757L171.724 152.748Z" fill="white"/>
<path d="M153.83 172.619C153.83 172.619 154.086 172.385 154.174 172.143C154.263 171.901 153.539 171.901 153.53 171.935C153.53 171.968 153.442 172.377 153.459 172.394C153.486 172.41 153.83 172.619 153.83 172.619Z" fill="#5B68B7"/>
<path d="M155.174 170.234C155.015 171.294 154.308 172.537 154.22 172.604C154.15 172.379 153.797 172.187 153.717 172.262C153.638 172.337 153.867 172.512 153.832 172.621C153.797 172.729 153.126 172.354 152.949 172.095C153.135 171.619 154.75 170.618 154.662 169.909C154.6 169.408 155.332 169.166 155.174 170.234Z" fill="#293896"/>
<path d="M154.663 169.909C154.69 170.134 154.549 170.392 154.328 170.66C154.328 170.66 154.355 170.693 154.425 170.726C154.496 170.76 154.584 170.71 154.584 170.71L154.69 170.543C154.69 170.543 154.822 170.493 154.928 170.518C155.034 170.543 155.078 170.66 155.078 170.66V170.676C155.123 170.526 155.158 170.384 155.184 170.234C155.343 169.166 154.61 169.408 154.672 169.909H154.663Z" fill="#0E1A68"/>
<path d="M155.714 173.13C155.74 173.004 155.582 172.562 155.749 172.362C155.908 172.17 155.087 172.704 155.078 172.746C155.07 172.779 155.246 173.03 155.255 173.03C155.273 173.03 155.696 173.246 155.714 173.13Z" fill="#5B68B7"/>
<path d="M155.899 170.358C156.12 170.851 156.49 172.879 156.411 172.937C156.226 172.762 155.422 172.737 155.378 172.845C155.334 172.954 155.714 172.962 155.714 173.129C155.714 173.296 154.84 172.954 154.504 173.096C154.425 173.029 155.466 170.459 155.334 170.016C155.202 169.574 155.678 169.866 155.89 170.358H155.899Z" fill="#293896"/>
<path d="M155.482 171.66C155.658 170.967 155.632 170.266 155.632 170.266L155.438 170.183C155.438 170.183 155.526 170.975 155.482 171.668V171.66Z" fill="#0E1A68"/>
<path d="M155.898 170.358C155.678 169.866 155.201 169.574 155.342 170.016C155.378 170.142 155.325 170.442 155.219 170.809C155.219 170.809 155.281 170.901 155.404 170.909C155.537 170.909 155.616 170.843 155.616 170.843L155.598 171.026C155.598 171.026 155.74 171.001 155.898 171.093C156.057 171.185 156.181 171.385 156.181 171.385C156.084 170.951 155.978 170.542 155.898 170.358Z" fill="#0E1A68"/>
<path d="M154.98 169.132C154.98 169.132 154.018 167.563 153.594 167.647C153.453 167.672 153.594 168.189 153.303 168.565C152.747 169.291 152.482 170.518 152.685 170.793C152.994 171.21 154.654 170.292 154.654 170.292L154.98 169.132Z" fill="#5B68B7"/>
<path d="M154.717 170.31C154.655 170.31 154.593 170.277 154.585 170.218C154.558 170.076 154.523 169.801 154.611 169.567C154.682 169.367 154.788 169.242 154.858 169.175C154.902 169.133 154.973 169.125 155.017 169.158C155.123 169.233 155.326 169.359 155.494 169.417C155.741 169.5 156.2 169.417 156.2 169.417L155.838 170.669C155.838 170.669 155.458 170.418 155.229 170.343C155.079 170.293 154.849 170.302 154.708 170.318L154.717 170.31Z" fill="#293896"/>
<path d="M156.197 169.409C156.197 169.409 157.759 168.349 158.059 168.516C158.245 168.624 158.192 169.726 157.556 170.736C157.194 171.312 157.468 171.762 157.159 171.871C156.726 172.021 155.835 170.669 155.835 170.669C155.835 170.669 155.729 170.419 155.87 169.935C156.012 169.459 156.197 169.417 156.197 169.417V169.409Z" fill="#293896"/>
<path d="M158.059 168.516C157.759 168.349 156.197 169.409 156.197 169.409C156.197 169.409 155.967 169.442 155.826 169.926C155.685 170.402 155.835 170.661 155.835 170.661C155.835 170.661 156.727 172.013 157.159 171.863C157.194 171.854 157.212 171.837 157.23 171.821C157.23 171.821 157.23 171.37 156.735 171.028C156.206 170.652 156.038 170.152 156.188 169.834C156.294 169.609 156.771 169.459 157.097 169.284C157.794 168.908 158.068 168.541 158.068 168.541C158.068 168.541 158.059 168.524 158.051 168.524L158.059 168.516Z" fill="#5B68B7"/>
<path d="M157.054 170.326C157.019 170.693 157.275 171.019 157.345 171.386C157.363 171.202 157.398 170.977 157.557 170.727C157.813 170.326 157.972 169.909 158.06 169.55C157.725 169.834 157.089 169.917 157.054 170.326Z" fill="#5B68B7"/>
<path d="M154.139 168.866C153.98 169.342 152.851 170.085 152.859 170.502C152.859 170.686 152.948 170.811 153.036 170.894C153.248 170.878 153.504 170.803 153.751 170.711C153.671 170.661 153.601 170.569 153.601 170.419C153.583 170.093 154.166 169.734 154.325 169C154.378 168.758 154.422 168.424 154.201 168.057C154.157 168.007 154.113 167.957 154.06 167.915C154.201 168.224 154.28 168.416 154.139 168.858V168.866Z" fill="#293896"/>
<path d="M155.217 170.124C154.952 170.048 154.776 170.19 154.688 170.307C154.688 170.307 154.705 170.307 154.714 170.307C154.855 170.29 155.085 170.282 155.235 170.332C155.358 170.374 155.526 170.466 155.65 170.541C155.535 170.374 155.402 170.174 155.217 170.124Z" fill="#5B68B7"/>
<path d="M166.038 190.097C166.947 190.706 168.36 190.589 168.36 190.589C168.36 190.589 168.854 189.788 169.075 189.496C170.319 187.835 174.715 182.193 175.951 179.965C177.301 177.511 180.364 171.269 180.364 171.269C180.364 171.269 182.677 166.403 179.676 165.293C176.657 164.166 174.088 166.128 172.738 169.917C172.146 171.577 170.16 177.887 170.16 177.887L164.141 187.668C164.141 187.668 164.661 189.17 166.047 190.105L166.038 190.097Z" fill="#5B68B7"/>
<path d="M118.534 176.496L119.081 176.738L119.655 177.364C119.796 177.514 119.823 177.731 119.735 177.914L118.711 179.984C118.64 180.134 118.534 180.268 118.411 180.385C118.005 180.744 117.069 181.47 116.186 181.278C114.059 180.819 113.953 179.942 113.953 179.942C114.015 179.884 115.816 178.908 115.983 178.632C116.072 178.499 116.928 177.364 116.928 177.364C117.457 176.679 117.846 176.354 118.543 176.496H118.534Z" fill="white"/>
<path d="M118.435 177.637C118.038 178.163 117.023 178.004 116.511 177.653C116.334 177.537 115.478 178.455 114.94 178.647C114.366 178.847 114.128 178.329 114.145 178.163C114.145 178.037 115.725 176.911 116.105 176.61C117.376 175.617 117.932 175.926 118.444 176.276C118.947 176.619 118.841 177.111 118.444 177.637H118.435Z" fill="white"/>
<path d="M595.316 324.475L597.341 330.931C597.341 330.931 597.576 332.46 598.575 333.199C601.316 335.222 606.038 338.988 606.148 338.971C608.478 338.63 606.361 335.56 606.361 335.56C606.361 335.56 605.494 333.335 603.443 331.666C602.501 330.897 602.094 330.705 602.094 330.705L599.884 323.101L595.321 324.471L595.316 324.475Z" fill="white"/>
<path d="M606.563 342.049C606.674 340.708 604.768 336.946 605.038 335.768C605.206 335.016 605.754 334.414 606.179 334.521C606.647 334.551 607.319 334.786 607.854 334.957C607.704 335.021 607.399 335.059 607.279 335.162C606.798 335.563 606.51 336.054 606.577 336.942C606.643 337.834 606.886 338.535 607.257 339.534C607.629 340.533 608.204 342.463 607.85 343.27C607.611 343.821 607.43 343.94 607.16 344.051C606.802 343.906 606.466 343.21 606.563 342.049Z" fill="#00117C"/>
<path d="M607.283 335.105C606.023 336.032 606.735 338.214 606.739 338.222C607.398 339.836 607.946 341.326 607.862 342.471C607.84 342.77 607.761 343.769 607.146 344.038C607.146 344.038 607.367 344.08 608.044 343.803C608.999 343.41 609.684 342.748 609.892 342.36C610.449 341.314 609.98 340.037 609.861 339.67C609.542 338.675 609.335 337.821 609.127 337.176C609.105 337.104 608.495 334.213 607.279 335.105H607.283Z" fill="#000940"/>
<path d="M598.378 342.338C599.487 342.898 599.363 345.156 598.952 345.63C598.837 345.763 598.585 345.925 598.36 346.01C597.657 346.284 597.215 346.258 596.176 345.737C593.868 344.58 593.196 344.042 592.126 343.222C591.087 342.424 590.618 341.689 591.277 341.186C592.422 340.306 595.61 341.173 595.999 341.655C597.719 343.773 597.887 342.086 598.378 342.334V342.338Z" fill="#00117C"/>
<path d="M592.527 320.283C592.527 320.283 592.664 328.088 592.762 331.85C592.801 333.323 593.655 335.752 593.655 335.752L595.905 342.665C595.905 342.665 595.896 343.959 597.696 342.353C598.027 342.054 598.266 341.721 598.31 341.333C598.974 335.923 596.816 332.016 596.816 332.016L599.027 322.807L592.527 320.283Z" fill="white"/>
<path d="M598.329 340.959C598.329 340.959 598.271 342.035 598.872 342.979C599.319 343.675 597.59 344.43 595.928 343.726C593.067 342.509 592.294 341.903 593.297 341.211C594.296 340.519 596.675 342.095 596.759 342.15C596.843 342.206 598.333 340.963 598.333 340.963L598.329 340.959Z" fill="white"/>
<path d="M595.185 295.885C595.154 296.44 595.671 298.062 595.463 298.822C595.256 299.578 596.012 299.894 595.848 300.808C595.68 301.721 596.113 302.11 596.069 302.832C596.02 303.553 597.462 303.438 597.387 304.275C597.311 305.107 598.032 305.27 598.147 305.735C598.262 306.2 599.221 306.414 599.031 306.785C598.841 307.157 598.169 307.644 598.006 306.969C597.838 306.299 597.528 306.427 597.073 305.496C596.613 304.565 595.848 305.124 595.538 304.104C595.229 303.084 594.495 301.726 594.778 301.277C595.061 300.829 594.544 300.786 594.579 299.578C594.614 298.37 593.81 298.993 593.916 297.823C594.022 296.653 595.185 295.889 595.185 295.889V295.885Z" fill="black"/>
<path d="M598.71 306.691C598.71 306.691 598.193 306.956 598.321 307.4C598.449 307.844 598.564 308.6 599.665 308.707C600.766 308.813 601.102 308.69 601.191 309.078C601.403 310.009 602.062 308.856 601.199 308.203C600.695 307.819 600.032 307.763 599.568 307.255C599.104 306.743 598.71 306.691 598.71 306.691Z" fill="black"/>
<path d="M598.867 306.992C598.867 306.992 598.947 306.984 599.027 306.984C599.442 306.975 600.49 306.971 600.3 306.617C600.07 306.194 598.965 305.216 598.713 306.032C598.465 306.847 598.032 306.429 597.492 306.911C596.958 307.394 597.868 308.572 598.235 308.41C598.607 308.243 598.991 307.321 598.867 306.992Z" fill="#293896"/>
<path d="M596.244 306.069C596.244 306.069 597.349 305.676 598.039 307.068C598.468 307.931 598.543 314.451 597.424 314.754C595.718 315.215 592.397 311.936 591.58 310.86C590.567 309.528 588.516 305.659 588.516 305.659L590.258 305.245L594.926 309.284C594.926 309.284 594.489 307.512 594.966 306.932C595.448 306.355 595.537 305.719 596.24 306.069H596.244Z" fill="white"/>
<path d="M590.118 305.308C590.118 305.308 589.057 304.313 588.433 303.715C587.708 303.019 586.501 303.741 586.126 304.014C585.834 304.227 585.555 304.501 585.834 304.684C585.913 304.74 586.179 304.667 586.466 304.616C586.899 304.539 587.257 304.693 587.492 305.051C587.894 305.662 588.221 306.025 588.876 306.089C588.986 306.102 590.167 306.405 590.118 305.308Z" fill="white"/>
<path d="M581.124 307.882C581.124 307.882 580.293 305.986 579.948 305.2C579.679 304.585 578.418 304.466 578.034 304.436C577.353 304.381 576.646 305.021 576.394 305.23C576.168 305.418 576.208 305.614 576.425 305.64C576.623 305.666 577.101 305.58 577.525 306.494C577.764 307.006 578.533 308.317 579.413 308.39C579.524 308.398 580.996 308.774 581.124 307.886V307.882Z" fill="white"/>
<path d="M592.362 306.844C593.617 308.24 596.487 306.784 595.62 305.768C594.298 304.222 595.249 300.832 595.249 300.832L591.301 302.715L592.362 306.84V306.844Z" fill="white"/>
<path d="M591.497 296.568L594.914 296.896L594.618 302.477C594.53 302.883 594.45 303.788 593.203 304.697C593.203 304.697 592.584 305.231 591.784 305.568C590.586 306.072 589.565 305.59 589.171 305.18C588.791 304.787 588.234 304.339 587.933 302.708C587.933 302.708 586.881 299.608 586.708 298.476C586.501 297.118 587.487 296.162 587.487 296.162L591.497 296.568Z" fill="white"/>
<path d="M589.142 294.079C585.406 295.629 585.591 297.521 585.591 297.559C585.578 298.298 586.829 298.989 586.807 299.006C586.79 299.019 587.174 297.563 587.214 297.687C587.89 299.835 588.218 300.018 588.673 300.462C589.084 300.864 590.203 301.679 589.858 300.65C589.858 300.65 590.742 299.796 592.387 302.866C593.302 304.57 594.902 304.045 594.902 304.045C594.925 304.134 595.075 303.562 595.681 302.623C596.326 301.62 596.72 300.996 596.945 300.646C599.359 296.91 595.725 293.076 591.657 293.494C590.879 293.571 589.137 294.083 589.137 294.083L589.142 294.079Z" fill="black"/>
<path d="M590.051 300.607C590.051 300.607 590.639 300.568 590.975 301.162C591.214 301.58 591.138 301.99 591.072 302.118C590.9 302.464 590.661 302.579 590.661 302.579C590.661 302.579 590.422 301.504 590.365 301.307C590.307 301.111 590.051 300.603 590.051 300.603V300.607Z" fill="white"/>
<path d="M589.728 300.433C589.728 300.433 589.397 300.488 589.733 300.889C590.069 301.291 590.188 301.551 590.254 301.803C590.316 302.034 590.418 302.742 590.418 302.742C590.418 302.742 590.688 302.986 590.789 302.516C590.838 302.294 590.811 301.897 590.683 301.402C590.63 301.201 590.06 300.253 589.728 300.433Z" fill="white"/>
<path d="M589.777 308.105C587.429 310.748 591.948 316.32 591.585 321.571C591.475 323.134 589.994 326.43 590.135 326.708C590.135 326.708 591.232 328.86 595.392 329.778C601.175 331.05 604.469 325.563 604.469 325.563C604.257 325.192 602.254 321.751 600.437 318.489C598.708 315.389 598.73 309.403 598.584 309.027C597.041 305.15 595.427 305.445 595.427 305.445C595.427 305.445 593.783 305.496 592.014 306.418C591.258 306.815 590.476 307.319 589.782 308.1L589.777 308.105Z" fill="#00117C"/>
<path d="M580.212 306.798C580.212 306.798 579.054 307.438 579.116 307.66C579.668 309.727 581.786 313.864 584.262 314.735C584.934 314.97 585.867 314.432 585.867 314.432C585.867 314.432 590.916 312.366 592.247 311.2C594.479 309.24 591.818 307.255 589.651 308.203C588.794 308.578 586.141 310.696 584.598 311.315C584.24 311.456 580.217 306.798 580.217 306.798H580.212Z" fill="white"/>
<path d="M587.219 297.683C587.219 297.683 588.81 297.977 590.614 298.08C592.131 298.165 587.643 298.882 587.643 298.882L587.219 297.683Z" fill="#020202"/>
<path d="M588.638 295.351C588.638 295.351 588.908 298.049 590.831 298.092C590.831 298.092 589.589 298.429 587.391 296.602C587.069 296.333 588.638 295.351 588.638 295.351Z" fill="#020202"/>
<path d="M588.098 299.805C588.098 299.805 589.8 297.495 590.339 298.865C590.339 298.865 589.764 298.267 589.384 300.983C589.38 301.03 588.986 300.74 588.646 300.428C588.359 300.167 588.111 299.881 588.098 299.805Z" fill="#020202"/>
<path d="M590.115 297.998C588.029 295.868 590.46 294.177 590.46 294.177C590.46 294.177 592.215 292.977 595.421 294.881C596.186 295.334 594.806 294.467 592.79 294.296C589.549 294.023 589.187 296.909 590.765 298.011C592.344 299.108 590.111 297.998 590.111 297.998H590.115Z" fill="#020202"/>
<path d="M591.555 306.926C591.466 306.875 591.395 306.832 591.32 306.785C591.55 306.631 591.785 306.495 592.01 306.375C593.779 305.449 595.406 305.406 595.406 305.406C595.406 305.406 595.883 305.338 596.568 305.884C596.621 306.081 596.595 306.311 596.418 306.563C595.843 307.379 593.584 308.087 591.555 306.93V306.926Z" fill="white"/>
<path d="M595.74 307.337C595.74 307.337 595.258 307.657 595.439 308.084C595.62 308.511 595.828 309.245 596.934 309.228C598.039 309.211 598.357 309.053 598.494 309.425C598.821 310.326 599.33 309.109 598.397 308.554C597.849 308.229 597.186 308.251 596.659 307.798C596.133 307.345 595.74 307.337 595.74 307.337Z" fill="black"/>
<path d="M595.931 307.613C595.931 307.613 596.006 307.596 596.086 307.588C596.501 307.532 597.54 307.408 597.306 307.08C597.027 306.687 595.807 305.841 595.661 306.678C595.511 307.515 595.029 307.152 594.556 307.69C594.078 308.232 595.131 309.3 595.475 309.095C595.82 308.89 596.094 307.925 595.931 307.613Z" fill="#293896"/>
<path d="M590.299 297.766C591.174 297.604 591.669 299.107 591.559 299.884C591.448 300.657 592.235 300.887 592.182 301.809C592.125 302.736 592.607 303.073 592.651 303.795C592.691 304.516 594.106 304.235 594.137 305.076C594.167 305.913 594.897 305.994 595.069 306.442C595.242 306.89 596.219 306.993 596.077 307.386C595.932 307.779 595.326 308.334 595.078 307.685C594.831 307.04 594.543 307.198 593.973 306.327C593.403 305.456 592.713 306.096 592.28 305.123C591.846 304.145 590.953 302.881 591.179 302.403C591.409 301.925 590.887 301.942 590.776 300.738C590.666 299.534 589.945 300.242 589.901 299.068C589.861 297.894 590.303 297.77 590.303 297.77L590.299 297.766Z" fill="black"/>
<path d="M466.862 210.971C467.781 217.116 467.363 218.602 466.92 222.219C466.478 225.836 464.637 234.402 464.186 235.857C463.736 237.311 456.79 239.885 456.274 237.501C455.759 235.117 456.802 222.453 457.063 218.988C457.325 215.522 466.862 210.971 466.862 210.971Z" fill="#0E1A68"/>
<path d="M461.011 216.816C461.365 220.579 461.05 222.182 460.627 223.034C460.203 223.885 457.868 224.512 457.868 224.512C457.868 224.512 457.475 235.451 456.261 239.159C455.046 242.866 449.668 241.341 449.416 239.474C449.164 237.606 448.421 232.472 447.746 227.891C447.071 223.31 446.502 219.173 448.058 214.304C449.615 209.436 461.011 216.816 461.011 216.816Z" fill="#0E1A68"/>
<path d="M457.32 256.336C457.32 256.336 457.588 257.203 457.996 259.052C458.13 259.655 459.072 259.254 459.072 259.254C459.072 259.254 459.105 257.202 459.431 256.826C459.758 256.451 457.32 256.336 457.32 256.336Z" fill="#293896"/>
<path d="M461.965 251.523C461.962 252.68 462.049 253.008 462.115 253.501C462.276 254.69 464.478 255.625 464.855 256.07C465.233 256.515 467.63 258.99 467.63 258.99C467.63 258.99 467.671 259.622 467.434 259.876C467.197 260.13 467.263 260.92 465.776 260.45C464.29 259.98 463.183 257.752 460.468 257.673C459.546 257.646 457.15 257.302 457.329 255.775C457.507 254.247 458.117 251.429 458.117 251.429L459.6 249.904L461.965 251.523Z" fill="white"/>
<path d="M462.732 254.556C462.732 254.556 464.928 256.318 465.424 256.824C465.92 257.33 465.769 257.606 464.976 257.792C464.154 257.985 463.151 257.381 461.209 256.369C460.132 255.808 460.129 255.885 458.902 255.379C457.672 254.873 457.467 254.785 457.566 254.232C457.665 253.678 457.735 253.312 457.735 253.312C457.735 253.312 457.197 253.963 457.083 255.22C456.969 256.478 457.017 257.142 458.942 257.589C461.388 258.158 459.656 257.668 460.492 257.945C460.97 258.105 461.649 259.063 463.231 260.133C464.812 261.202 467.612 261.226 468.107 261.202C469.314 261.143 469.879 260.166 468.515 259.063C467.077 257.903 464.461 255.631 462.732 254.556Z" fill="#293896"/>
<path d="M458.947 232.46C457.881 233.623 457.039 234.375 456.672 236.39C456.304 238.405 456.307 241.287 456.672 245.537C457.036 249.789 457.036 253.031 457.078 254.04C457.118 255.048 460.412 255.338 461.47 255.085C462.527 254.833 462.731 254.616 462.893 253.932C463.056 253.248 463.99 236.438 464.186 235.856C464.383 235.273 458.947 232.46 458.947 232.46Z" fill="#0E1A68"/>
<path d="M452.43 257.902C452.698 259.026 454.443 260.694 454.993 262.123C455.288 262.889 455.867 264.868 454.981 265.064C454.971 265.066 454.96 265.068 454.951 265.07C453.933 265.276 452.443 265.163 451.643 264.681C450.842 264.199 448.663 260.851 448.313 260.509C447.966 260.168 448.109 259.779 448.053 259.431C447.849 258.165 448.735 257.424 448.655 256.844C448.576 256.263 448.31 254.308 448.31 254.308L450.574 253.93C450.574 253.93 452.157 255.501 452.136 256.136C452.116 256.772 452.43 257.902 452.43 257.902Z" fill="white"/>
<path d="M452.759 258.738C452.759 258.738 454.724 261.393 455.026 262.485C455.327 263.577 453.417 263.756 452.401 263.163C451.369 262.563 450.755 261.319 449.776 260.356C448.92 259.512 448.191 258.994 448.14 258.692C448.051 258.156 448.487 257.625 448.487 257.625C448.487 257.625 447.757 258.005 447.68 259.41C447.602 260.85 447.673 260.85 448.313 261.445C448.877 261.969 449.786 264.052 451.618 265.485C452.681 266.317 454.648 266.918 456.025 266.935C457.664 266.723 458.009 266.065 457.505 265.21C457.202 264.697 456.25 263.781 455.207 262.149C454.478 261.011 452.759 258.738 452.759 258.738Z" fill="#293896"/>
<path d="M447.812 260.683C447.812 260.683 447.977 262.473 448.074 263.328C448.128 263.792 448.139 263.81 448.139 263.81C448.139 263.81 448.127 263.792 448.539 263.923C448.743 263.988 448.939 263.714 448.939 263.714L449.293 260.631L447.812 260.683Z" fill="#293896"/>
<path d="M449.312 235.987C447.36 240.275 446.831 242.22 446.628 245.534C446.424 248.848 447.97 256.45 447.97 257.856C447.97 259.261 452.605 259.477 452.768 257.856C452.93 256.234 454.461 246.1 455.123 243.446C455.786 240.793 456.266 239.158 456.266 239.158L449.312 235.987Z" fill="#0E1A68"/>
<path d="M449.76 190.087C450.337 189.908 454.888 189.166 458.374 188.959C461.859 188.751 459.808 186.608 463.987 188.381C468.165 190.154 469.909 190.54 470.694 191.788C471.48 193.035 467.501 202.801 467.539 205.496C467.575 208.189 467.329 211.868 467.488 213.561C467.647 215.255 466.164 216.843 461.4 217.83C454.206 219.318 448.559 216.145 448.513 214.45C448.466 212.754 449.264 207.947 449.201 205.62C449.136 203.293 448.996 203.214 448.832 199.99C448.669 196.767 449.76 190.087 449.76 190.087Z" fill="#293896"/>
<path d="M458.004 188.206C457.398 189.861 456.607 191.142 455.058 192.174C453.979 191.176 452.813 190.646 452.718 189.998C452.534 188.74 454.271 187.222 454.567 185.198C454.862 183.174 456.839 182.288 456.839 182.288L458.004 188.206Z" fill="#632100"/>
<path d="M464.152 183.641C463.712 184.698 463.472 189.359 463.394 190.658C463.317 191.957 462.12 192.813 460.535 193.197C458.951 193.581 456.906 192.959 456.737 192.281C456.567 191.602 457.042 189.036 456.888 188.23C456.735 187.424 456.618 185.231 457.588 184.296C458.558 183.361 464.152 183.641 464.152 183.641Z" fill="white"/>
<path d="M462.59 181.794C462.698 182.99 463.023 185.959 462.737 187.131C462.45 188.301 461.587 189.002 461.256 189.274C460.926 189.548 457.277 190.539 456.779 190.617C456.282 190.696 455.337 190.483 455.047 190.156C454.756 189.83 453.921 186.72 453.814 184.943C453.709 183.166 453.663 182.069 453.988 180.931C454.312 179.793 454.868 178.832 455.908 178.462C456.949 178.09 460.164 178.255 461.407 179.109C462.653 179.963 462.59 181.794 462.59 181.794Z" fill="white"/>
<path d="M455.529 179.769C455.77 180.129 456.828 180.535 458.549 180.981C460.27 181.428 460.847 182.612 461.295 183.251C461.745 183.89 461.977 185.549 461.977 185.549L462.123 186.743C462.123 186.743 462.256 185.392 462.83 184.781C463.405 184.17 464.156 184.853 464.156 184.853C464.156 184.853 463.001 186.557 463.006 186.724C463.01 186.89 463.12 187.27 463.12 187.27C463.12 187.27 466.023 185.755 466.62 184.278C467.218 182.801 467.317 180.271 466.668 178.506C466.019 176.741 463.83 176.107 463.358 176.018C462.886 175.928 462.666 175.418 460.825 175.374C458.984 175.33 455.986 177.05 454.969 178.082C453.953 179.114 453.43 180.103 453.872 181.404C454.574 179.562 454.274 179.835 454.884 179.499C454.944 179.465 455.529 179.769 455.529 179.769Z" fill="#632100"/>
<path d="M466.617 184.145C466.336 185.653 467.919 187.869 468.398 189.834C468.878 191.797 466.265 193.457 466.265 193.457C466.265 193.457 464.649 193.81 463.601 193.81C462.675 193.812 461.293 193.825 461.293 193.825C461.293 193.825 462.353 190.002 462.651 188.106C462.949 186.209 463.879 184.494 463.879 184.494L464.339 183.036L466.617 184.145Z" fill="#632100"/>
<path d="M453.619 207.915C453.356 207.854 451.84 207.371 451.84 207.371C451.84 207.371 451.202 206.67 450.35 206.439C449.499 206.207 448.049 206.023 448.049 206.023C448.049 206.023 447.189 205.426 446.698 205.387C446.21 205.347 446.145 205.731 446.192 206.063C446.238 206.395 447.25 206.988 447.362 207.002C447.475 207.016 448.668 207.39 448.668 207.39L449.079 208.012L446.988 207.757C446.988 207.757 443.186 206.724 442.771 206.667C442.356 206.61 441.779 206.755 441.779 206.755C441.779 206.755 441.155 206.581 440.824 206.848C440.494 207.115 440.84 207.456 440.84 207.456L441.097 207.884C441.097 207.884 445.703 209.531 446.554 209.746C447.404 209.96 449.164 209.772 450.561 210.059C451.959 210.345 453.233 210.285 453.682 210.225C454.132 210.167 453.619 207.915 453.619 207.915Z" fill="white"/>
<path d="M449.672 190.076C442.504 194.021 441.135 194.799 439.212 195.871C437.289 196.943 435.742 198.041 435.742 198.041C435.742 198.041 434.716 203.273 436.176 203.141C437.636 203.01 446.649 200.481 448.467 199.677C449.097 199.292 450.198 198.281 450.456 196.831C451.029 193.616 450.539 189.553 449.672 190.076Z" fill="#293896"/>
<path d="M429.041 194.573C430.007 194.176 431.173 194.749 432.239 195.281C433.305 195.812 436.142 197.116 436.621 197.61C437.099 198.104 438.464 202.311 437.093 202.983C435.723 203.655 434.523 202.838 433.182 202.313C431.84 201.787 426.172 198.63 426.078 196.99C425.985 195.348 429.041 194.573 429.041 194.573Z" fill="#293896"/>
<path d="M423.824 191.69C423.898 191.642 424.397 191.588 425.155 191.838C425.914 192.087 427.416 192.19 428.114 192.457C428.769 192.706 430.171 193.774 430.4 193.969C430.715 194.235 431.177 194.633 431.334 194.993C431.652 195.721 430.72 196.671 430.074 197.003C429.493 197.302 428.804 197.413 428.135 197.376C427.967 197.367 427.794 197.347 427.648 197.27C427.501 197.193 427.395 197.063 427.242 196.996C426.989 196.886 426.689 196.976 426.42 197.057C425.698 197.275 424.945 197.411 424.185 197.462C423.418 197.514 422.694 197.403 421.932 197.326L417.179 197.318L416.882 195.817C416.798 195.388 417.011 194.956 417.423 194.72L423.824 191.69Z" fill="white"/>
<path d="M425.042 192.087C424.207 192.527 423.08 193.721 422.8 194.15C422.519 194.579 422.188 195.263 422.66 195.409C424.037 195.834 425.08 194.627 425.08 194.627C425.08 194.627 426.155 193.264 426.801 193.157C427.447 193.049 429.037 192.821 428.112 192.457C427.189 192.091 425.709 191.737 425.042 192.087Z" fill="white"/>
<path d="M470.155 191.2C471.346 191.887 471.559 193.301 471.555 194.943C471.55 196.585 470.796 203.336 470.211 205.679C469.627 208.023 469.306 211.024 468.401 211.467C467.495 211.908 465.277 207.963 465.248 206.932C465.22 205.902 466.184 199.893 466.635 198.064C467.086 196.237 467.552 194.12 468.152 193.13C468.748 192.143 470.155 191.2 470.155 191.2Z" fill="#0E1A68"/>
<path d="M462.34 206.785C465.332 206.409 465.538 206.538 466.073 206.915C466.608 207.292 468.748 210.461 468.399 211.467C468.051 212.472 452.644 211.051 452.253 210.505C451.862 209.959 452.557 207.882 452.848 207.543C453.141 207.205 462.34 206.785 462.34 206.785Z" fill="#0E1A68"/>
<path d="M462.934 185.444C463.04 184.617 463.445 184.203 463.892 184.11C464.34 184.017 464.77 184.517 464.488 185.312C464.206 186.105 463.706 186.476 463.299 186.635C462.895 186.793 462.955 186.21 462.955 186.21L462.934 185.444Z" fill="white"/>
</svg>
